<svg width="26" height="18" viewBox="0 0 26 18" fill="none" xmlns="http://www.w3.org/2000/svg">
<path d="M22.1267 0.922852H4.3932C2.37993 0.922852 0.742188 2.56059 0.742188 4.57386V13.9622C0.742188 15.9755 2.37993 17.6132 4.3932 17.6132H22.1267C24.14 17.6132 25.7777 15.9755 25.7777 13.9622V4.57386C25.7777 2.56059 24.14 0.922852 22.1267 0.922852Z" fill="white" fill-opacity="0.4"/>
<path d="M10.1875 12.6386L11.1434 7.26172H12.637L11.711 12.6386H10.1875Z" fill="#3C58BF"/>
<path d="M10.1875 12.6386L11.4122 7.26172H12.637L11.711 12.6386H10.1875Z" fill="#293688"/>
<path d="M17.1173 7.32101C16.8185 7.20152 16.3406 7.08203 15.7432 7.08203C14.2496 7.08203 13.1742 7.82883 13.1742 8.90421C13.1742 9.71075 13.921 10.129 14.5184 10.3978C15.1158 10.6666 15.2951 10.8459 15.2951 11.0848C15.2951 11.4433 14.8171 11.6225 14.3989 11.6225C13.8015 11.6225 13.4729 11.5329 12.9651 11.3238L12.756 11.2342L12.5469 12.459C12.9053 12.6083 13.5625 12.7577 14.2496 12.7577C15.8328 12.7577 16.8783 12.0109 16.8783 10.8757C16.8783 10.2484 16.4899 9.77049 15.5938 9.38216C15.0561 9.11331 14.7275 8.96395 14.7275 8.69511C14.7275 8.45613 14.9964 8.21716 15.5938 8.21716C16.1016 8.21716 16.4601 8.30677 16.7289 8.42626L16.8783 8.486L17.1173 7.32101Z" fill="#3C58BF"/>
<path d="M17.1173 7.32101C16.8185 7.20152 16.3406 7.08203 15.7432 7.08203C14.2496 7.08203 13.443 7.82883 13.443 8.90421C13.443 9.71075 13.921 10.129 14.5184 10.3978C15.1158 10.6666 15.2951 10.8459 15.2951 11.0848C15.2951 11.4433 14.8171 11.6225 14.3989 11.6225C13.8015 11.6225 13.4729 11.5329 12.9651 11.3238L12.756 11.2342L12.5469 12.459C12.9053 12.6083 13.5625 12.7577 14.2496 12.7577C15.8328 12.7577 16.8783 12.0109 16.8783 10.8757C16.8783 10.2484 16.4899 9.77049 15.5938 9.38216C15.0561 9.11331 14.7275 8.96395 14.7275 8.69511C14.7275 8.45613 14.9964 8.21716 15.5938 8.21716C16.1016 8.21716 16.4601 8.30677 16.7289 8.42626L16.8783 8.486L17.1173 7.32101Z" fill="#293688"/>
<path d="M19.6889 7.26172C19.3305 7.26172 19.0616 7.29159 18.9123 7.65005L16.6719 12.6386H18.285L18.5837 11.7425H20.4955L20.6747 12.6386H22.1085L20.8539 7.26172H19.6889ZM19.0019 10.8463C19.0915 10.5775 19.5993 9.26313 19.5993 9.26313C19.5993 9.26313 19.7188 8.93454 19.8084 8.72544L19.898 9.23326C19.898 9.23326 20.1967 10.5775 20.2565 10.8762H19.0019V10.8463Z" fill="#3C58BF"/>
<path d="M20.0474 7.26172C19.6889 7.26172 19.4201 7.29159 19.2707 7.65005L16.6719 12.6386H18.285L18.5837 11.7425H20.4955L20.6747 12.6386H22.1085L20.8539 7.26172H20.0474ZM19.0019 10.8463C19.1214 10.5476 19.5993 9.26313 19.5993 9.26313C19.5993 9.26313 19.7188 8.93454 19.8084 8.72544L19.898 9.23326C19.898 9.23326 20.1967 10.5775 20.2565 10.8762H19.0019V10.8463Z" fill="#293688"/>
<path d="M7.44351 11.025L7.29415 10.2483C7.0253 9.35217 6.15902 8.3664 5.20312 7.88845L6.54735 12.6679H8.16043L10.58 7.29102H8.96697L7.44351 11.025Z" fill="#3C58BF"/>
<path d="M7.44351 11.025L7.29415 10.2483C7.0253 9.35217 6.15902 8.3664 5.20312 7.88845L6.54735 12.6679H8.16043L10.58 7.29102H9.26569L7.44351 11.025Z" fill="#293688"/>
<path d="M3.28906 7.26172L3.55791 7.32146C5.4697 7.76954 6.78406 8.90467 7.29188 10.2489L6.75419 7.7098C6.66457 7.35133 6.39573 7.26172 6.06714 7.26172H3.28906Z" fill="#FFBC00"/>
<path d="M3.28906 7.26172C5.20086 7.7098 6.78406 8.87479 7.29188 10.219L6.78406 8.09813C6.69444 7.73967 6.39573 7.53057 6.06714 7.53057L3.28906 7.26172Z" fill="#F7981D"/>
<path d="M3.28906 7.26172C5.20086 7.7098 6.78406 8.87479 7.29188 10.219L6.93342 9.05403C6.8438 8.69556 6.72432 8.3371 6.30611 8.18774L3.28906 7.26172Z" fill="#ED7C00"/>
<path d="M8.93847 10.8466L7.92283 9.83091L7.44489 10.966L7.3254 10.2192C7.05655 9.32309 6.19027 8.33732 5.23438 7.85938L6.5786 12.6389H8.19168L8.93847 10.8466ZM11.7165 12.6389L10.4321 11.3245L10.1931 12.6389H11.7165ZM15.1518 10.7868C15.2713 10.9063 15.331 10.9959 15.3012 11.1154C15.3012 11.4739 14.8232 11.6531 14.405 11.6531C13.8076 11.6531 13.479 11.5635 12.9712 11.3544L12.7621 11.2648L12.553 12.4895C12.9114 12.6389 13.5686 12.7882 14.2556 12.7882C15.2115 12.7882 15.9882 12.5194 16.4363 12.0414L15.1518 10.7868ZM16.8844 12.6389H18.2883L18.5871 11.7427H20.4988L20.6781 12.6389H22.1119L21.6041 10.4582L19.8118 8.72566L19.9014 9.2036C19.9014 9.2036 20.2001 10.5478 20.2599 10.8466H19.0053C19.1247 10.5478 19.6027 9.26335 19.6027 9.26335C19.6027 9.26335 19.7222 8.93476 19.8118 8.72566" fill="#051244"/>
</svg>
