<svg width="103" height="131" viewBox="0 0 103 131" fill="none" xmlns="http://www.w3.org/2000/svg">
<path d="M52 70.564L102.242 48.7197V106.243L52 129.058V70.564Z" fill="#F1F1F1"/>
<path d="M51.7637 72.0205L2.25 49.2053L51.7637 26.8756L100.792 49.2053L51.7637 72.0205Z" fill="#E6AE00" fill-opacity="0.15"/>
<mask id="mask0_437_3104" style="mask-type:luminance" maskUnits="userSpaceOnUse" x="0" y="24" width="103" height="107">
<path d="M0.0546875 24.6909H102.935V131H0.0546875V24.6909Z" fill="white"/>
</mask>
<g mask="url(#mask0_437_3104)">
<path d="M101.922 47.2144L52.1955 24.9559C51.729 24.7481 51.2604 24.7481 50.7938 24.9559L1.06931 47.2144C0.759624 47.3509 0.515137 47.5628 0.329735 47.846C0.14637 48.1292 0.0546875 48.4388 0.0546875 48.775V106.987C0.0546875 107.323 0.14637 107.635 0.329735 107.918C0.515137 108.202 0.759624 108.411 1.06931 108.55L50.7938 130.806C51.2604 131.016 51.729 131.016 52.1955 130.806L101.922 108.55C102.23 108.411 102.476 108.202 102.66 107.918C102.843 107.635 102.935 107.323 102.935 106.987V48.775C102.935 48.4388 102.843 48.1292 102.66 47.846C102.476 47.5628 102.23 47.3509 101.922 47.2144ZM49.7812 126.601L3.48361 105.879V51.5357L49.7812 72.26V126.601ZM51.4947 69.2732L5.82865 48.8341L51.4947 28.395L97.1607 48.8341L51.4947 69.2732ZM99.5057 105.879L53.2102 126.601V72.26L99.5057 51.5357V105.879Z" fill="black"/>
</g>
<circle cx="13.2186" cy="13.2186" r="13.2186" transform="matrix(0.956305 0.292372 0 1 12.9141 73.1979)" stroke="#ECB300" stroke-width="0.896176"/>
<path d="M22.9268 92.8239C22.3659 92.6604 21.8786 92.3759 21.4647 91.9705C21.0531 91.5657 20.7295 91.0579 20.494 90.4469C20.2607 89.8365 20.1324 89.146 20.1091 88.3755C20.0836 87.6067 20.1696 86.9824 20.3668 86.5026C20.5663 86.0235 20.8624 85.7006 21.2552 85.5339C21.6501 85.3655 22.1268 85.3616 22.6854 85.5222C23.244 85.6828 23.7291 85.9632 24.1406 86.3634C24.5543 86.7642 24.8788 87.2666 25.114 87.8707C25.3492 88.4726 25.4784 89.1576 25.5017 89.9258C25.5272 90.6992 25.4404 91.3289 25.2412 91.815C25.0441 92.3016 24.7493 92.6317 24.3568 92.8053C23.9642 92.9789 23.4876 92.9851 22.9268 92.8239ZM22.8859 91.588C23.2685 91.698 23.5671 91.5826 23.7819 91.242C23.9967 90.9014 24.0896 90.3246 24.0606 89.5115C24.0429 88.9768 23.976 88.5165 23.8599 88.1308C23.746 87.7457 23.5916 87.4365 23.3965 87.2031C23.2037 86.9704 22.9801 86.8174 22.7258 86.7443C22.3454 86.635 22.0478 86.7483 21.8328 87.0843C21.6179 87.4204 21.5226 87.9885 21.5469 88.7889C21.5648 89.3305 21.6308 89.7973 21.7449 90.1893C21.8612 90.5796 22.0169 90.8926 22.2119 91.1283C22.407 91.3616 22.6316 91.5149 22.8859 91.588ZM26.6246 93.7335L26.5891 92.6594L28.8891 91.0189C29.0844 90.8705 29.2478 90.7333 29.3792 90.6075C29.5129 90.4822 29.613 90.3507 29.6795 90.213C29.7459 90.0729 29.776 89.91 29.7699 89.7241C29.763 89.5175 29.7126 89.3269 29.6185 89.1521C29.5244 88.975 29.3989 88.8241 29.2419 88.6994C29.0848 88.5724 28.9085 88.4808 28.7129 88.4246C28.5086 88.3658 28.3318 88.3582 28.1825 88.4017C28.0332 88.4451 27.92 88.5365 27.8428 88.6757C27.7656 88.8149 27.7307 88.9969 27.7381 89.2218L26.3981 88.8366C26.3829 88.3753 26.4685 88.0033 26.6551 87.7205C26.8417 87.4377 27.1101 87.2546 27.4604 87.1711C27.8108 87.0877 28.2185 87.1129 28.6836 87.2466C29.1618 87.384 29.581 87.5932 29.9412 87.8741C30.3035 88.1533 30.5888 88.4785 30.797 88.8498C31.0051 89.2211 31.116 89.6098 31.1294 90.016C31.1382 90.2823 31.0969 90.5307 31.0055 90.7613C30.9162 90.9925 30.7508 91.2302 30.5091 91.4744C30.2674 91.7164 29.9245 91.9917 29.4804 92.3006L28.5389 93.029L28.5405 93.0772L31.3444 93.8832L31.3847 95.1019L26.6246 93.7335Z" fill="#ECB300"/>
<circle cx="50.8174" cy="27.4346" r="27.4346" fill="#E6AE00"/>
<mask id="mask1_437_3104" style="mask-type:luminance" maskUnits="userSpaceOnUse" x="39" y="15" width="24" height="25">
<path d="M39.8281 15.0887H62.4057V39.094H39.8281V15.0887Z" fill="white"/>
</mask>
<g mask="url(#mask1_437_3104)">
<path d="M61.903 20.7383L59.3511 19.6686V16.1964C59.3511 15.5769 58.8442 15.0887 58.2248 15.0887H51.4697C50.8508 15.0887 50.3439 15.5769 50.3439 16.1964V19.4995L47.4169 20.7383C47.0413 20.8882 46.8727 21.3391 47.0227 21.7142L48.4675 25.0738C48.7113 24.9799 48.9557 24.9052 49.1808 24.83L47.7168 21.4138L50.3439 20.3067V24.5483C50.607 24.4922 50.8508 24.4544 51.0946 24.417V16.1964C51.0946 15.9899 51.2632 15.8208 51.4697 15.8208H58.2248C58.4313 15.8208 58.6004 15.9899 58.6004 16.1964V25.5993H56.4615C56.6674 25.8245 56.8739 26.0875 57.043 26.35H59.9887C60.0826 26.35 60.233 26.4066 60.2704 26.4439C60.6268 26.8008 60.8146 27.1759 60.7959 27.5323C60.758 28.171 60.1765 28.6399 60.1765 28.6399C60.1013 28.6965 60.0452 28.8091 60.0265 28.9024C60.0265 29.0155 60.0452 29.1089 60.1204 29.1841C60.6647 29.7849 60.9085 30.3478 60.8146 30.8733C60.6833 31.7558 59.7075 32.3 59.7075 32.3186C59.5384 32.4125 59.4637 32.619 59.5384 32.7876C59.8014 33.4257 59.8201 33.9705 59.5949 34.4394C59.2006 35.2653 58.1122 35.5844 58.1122 35.5844C57.9997 35.6217 57.9063 35.7157 57.8497 35.8282C57.8124 35.9408 57.831 36.0726 57.9063 36.166C58.2627 36.6355 58.3939 37.0671 58.3 37.4235C58.1501 37.949 57.5685 38.2494 57.3807 38.3433H54.9227C54.3593 38.3433 53.909 37.9303 53.909 37.4048C53.909 36.8793 54.3593 36.4663 54.9227 36.4663H55.7855C55.992 36.4663 56.1611 36.2977 56.1611 36.0912C56.1611 35.8848 55.992 35.7156 55.7855 35.7156H54.9227C54.3593 35.7156 53.909 35.3027 53.909 34.7772C53.909 34.2516 54.3593 33.8387 54.9227 33.8387H56.5362C56.7426 33.8387 56.9118 33.6701 56.9118 33.4636C56.9118 33.2571 56.7426 33.088 56.5362 33.088H54.9227C53.9469 33.088 53.1589 33.8387 53.1589 34.7772C53.1589 35.3027 53.4214 35.7722 53.8156 36.0912C53.4214 36.4103 53.1589 36.8793 53.1589 37.4048C53.1589 37.7425 53.2714 38.0808 53.4587 38.3433H49.4433C49.3681 38.3433 49.2182 38.2873 49.1616 38.2307L47.2665 36.5789C46.6849 36.0912 45.5213 36.0912 45.4653 36.0912H44.7146V28.227H45.2775C46.0847 28.227 46.6289 27.8706 46.9666 27.6454C47.004 27.6262 47.0413 27.5889 47.0792 27.5702C50.9255 25.2616 54.4724 26.1062 54.9227 26.2188C55.7481 26.7816 56.4615 28.1144 57.0804 30.1792C57.1743 30.5169 56.9865 30.9859 56.5548 31.155C56.1045 31.3236 55.6169 31.155 55.0727 30.6295C54.4719 30.0666 53.7965 29.3719 53.6278 29.1089C53.5905 29.0529 53.5339 28.9963 53.4774 28.9777C53.5526 28.7712 53.6465 28.5647 53.7031 28.3209C53.7591 28.1144 53.6465 27.9079 53.44 27.8519C53.2336 27.7954 53.0271 27.9079 52.9711 28.1144C52.2017 30.8546 50.0628 30.8546 49.9689 30.8546C49.7624 30.8546 49.5933 31.0238 49.5933 31.2302C49.5933 31.4367 49.7437 31.6053 49.9689 31.6053C50.1001 31.6053 51.9579 31.568 53.121 29.691C53.4966 30.16 54.3033 30.9299 54.5658 31.1737C55.1287 31.6992 55.6921 31.9809 56.2358 31.9809C56.4423 31.9809 56.6301 31.943 56.8365 31.8683C57.5872 31.5866 58.0188 30.7234 57.8124 29.9914C57.5685 29.1468 56.7992 26.5378 55.2978 25.5807C55.2605 25.562 55.2413 25.5433 55.2039 25.5433C55.0353 25.4868 51.0946 24.2858 46.7036 26.9508C46.6663 26.9694 46.6284 27.0068 46.5724 27.026C46.2907 27.2133 45.8596 27.4763 45.2775 27.4763H40.211C40.0051 27.4763 39.8359 27.6454 39.8359 27.8519V36.8606C39.8359 37.48 40.3428 37.9869 40.9617 37.9869H43.5888C44.2083 37.9869 44.7146 37.48 44.7146 36.8606H45.484C45.803 36.8606 46.4971 36.9358 46.7788 37.161L48.6553 38.7936C48.8431 38.9627 49.1808 39.094 49.4433 39.094H57.4746C57.512 39.094 57.5685 39.094 57.6059 39.0753C57.6619 39.0566 58.7503 38.625 59.032 37.6492C59.1633 37.1797 59.0881 36.6728 58.7882 36.1473C59.2385 35.9408 59.914 35.5092 60.2704 34.7958C60.5521 34.2143 60.5708 33.5388 60.3456 32.8255C60.7394 32.5438 61.4148 31.9244 61.5653 31.0238C61.6778 30.3478 61.4527 29.6536 60.9085 28.9777C61.171 28.6965 61.5087 28.2083 61.5466 27.6076C61.5839 27.026 61.3401 26.4626 60.7959 25.9371C60.7394 25.881 60.6647 25.8245 60.5894 25.7871L62.2781 21.7328C62.4472 21.3391 62.2781 20.9074 61.903 20.7383ZM43.9639 36.8606C43.9639 37.0671 43.7953 37.2362 43.5888 37.2362H40.9617C40.7552 37.2362 40.5866 37.0671 40.5866 36.8606V28.227H43.9639V36.8606ZM59.8574 25.5993H59.3511V20.4753L61.6026 21.433L59.8574 25.5993Z" fill="black"/>
</g>
<path d="M54.8531 23.5353C56.0914 23.5353 57.1046 22.5215 57.1046 21.2827C57.1046 20.0438 56.0914 19.0306 54.8531 19.0306C53.6148 19.0306 52.6016 20.0438 52.6016 21.2827C52.6016 22.5215 53.6148 23.5353 54.8531 23.5353ZM54.8531 19.7813C55.6785 19.7813 56.3539 20.4568 56.3539 21.2827C56.3539 22.1086 55.6785 22.7841 54.8531 22.7841C54.0272 22.7841 53.3517 22.1086 53.3517 21.2827C53.3517 20.4568 54.0272 19.7813 54.8531 19.7813Z" fill="black"/>
<path d="M42.6564 29.9916C42.6564 30.0414 42.6471 30.0891 42.6279 30.1353C42.6092 30.1809 42.5817 30.2219 42.5469 30.2567C42.5117 30.2919 42.4712 30.3194 42.425 30.3381C42.3789 30.3573 42.3311 30.3666 42.2813 30.3666C42.2315 30.3666 42.1838 30.3573 42.1376 30.3381C42.092 30.3194 42.051 30.2919 42.0162 30.2567C41.981 30.2219 41.9535 30.1809 41.9348 30.1353C41.9156 30.0891 41.9062 30.0414 41.9062 29.9916C41.9062 29.9418 41.9156 29.894 41.9348 29.8479C41.9535 29.8017 41.981 29.7612 42.0162 29.7259C42.051 29.6907 42.092 29.6637 42.1376 29.6445C42.1838 29.6258 42.2315 29.616 42.2813 29.616C42.3311 29.616 42.3789 29.6258 42.425 29.6445C42.4712 29.6637 42.5117 29.6907 42.5469 29.7259C42.5817 29.7612 42.6092 29.8017 42.6279 29.8479C42.6471 29.894 42.6564 29.9418 42.6564 29.9916Z" fill="black"/>
</svg>
