<svg width="103" height="132" viewBox="0 0 103 132" fill="none" xmlns="http://www.w3.org/2000/svg">
<path d="M51.7589 72.0617L2.23438 49.2416L51.7589 26.907L100.798 49.2416L51.7589 72.0617Z" fill="#E6AE00" fill-opacity="0.15"/>
<path d="M101.944 47.2501L52.2069 24.9868C51.7402 24.7789 51.2715 24.7789 50.8049 24.9868L1.06953 47.2501C0.759778 47.3866 0.515238 47.5985 0.329795 47.8818C0.14639 48.1651 0.0546875 48.4748 0.0546875 48.8111V107.036C0.0546875 107.372 0.14639 107.684 0.329795 107.967C0.515238 108.251 0.759778 108.46 1.06953 108.599L50.8049 130.86C51.2715 131.07 51.7402 131.07 52.2069 130.86L101.944 108.599C102.252 108.46 102.499 108.251 102.682 107.967C102.865 107.684 102.957 107.372 102.957 107.036V48.8111C102.957 48.4748 102.865 48.1651 102.682 47.8818C102.499 47.5985 102.252 47.3866 101.944 47.2501ZM49.7921 126.654L3.48436 105.927V51.5723L49.7921 72.3012V126.654ZM51.5059 69.3137L5.82991 48.8701L51.5059 28.4266L97.1819 48.8701L51.5059 69.3137ZM99.5274 105.927L53.2217 126.654V72.3012L99.5274 51.5723V105.927Z" fill="black"/>
<circle cx="13.2215" cy="13.2215" r="13.2215" transform="matrix(0.956305 0.292372 0 1 12.9062 73.2391)" stroke="#ECB300" stroke-width="0.896372"/>
<path d="M22.3985 92.9149C21.8375 92.7513 21.35 92.4668 20.9361 92.0613C20.5243 91.6565 20.2007 91.1485 19.9651 90.5373C19.7318 89.9268 19.6034 89.2362 19.5801 88.4656C19.5547 87.6966 19.6406 87.0721 19.838 86.5923C20.0375 86.113 20.3336 85.79 20.7265 85.6233C21.1215 85.4549 21.5983 85.451 22.157 85.6116C22.7158 85.7723 23.2009 86.0527 23.6125 86.453C24.0263 86.8539 24.3509 87.3564 24.5862 87.9607C24.8214 88.5626 24.9506 89.2478 24.9739 90.0162C24.9995 90.7898 24.9126 91.4196 24.7134 91.9058C24.5163 92.3925 24.2214 92.7227 23.8288 92.8963C23.4361 93.0699 22.9594 93.0761 22.3985 92.9149ZM22.3576 91.6787C22.7402 91.7887 23.039 91.6734 23.2538 91.3327C23.4686 90.992 23.5615 90.415 23.5325 89.6018C23.5148 89.0669 23.4479 88.6066 23.3318 88.2208C23.2179 87.8356 23.0634 87.5263 22.8683 87.2929C22.6754 87.0601 22.4518 86.9071 22.1974 86.834C21.817 86.7246 21.5193 86.838 21.3043 87.1741C21.0893 87.5102 20.9939 88.0785 21.0182 88.879C21.0361 89.4207 21.1022 89.8877 21.2163 90.2797C21.3326 90.6701 21.4883 90.9832 21.6835 91.2189C21.8785 91.4523 22.1032 91.6056 22.3576 91.6787ZM28.7696 87.6081L29.0027 94.66L27.5906 94.254L27.4043 88.6174L27.3652 88.6061L25.8692 89.1788L25.8255 87.8565L27.4423 87.2265L28.7696 87.6081Z" fill="#ECB300"/>
<circle cx="50.8155" cy="27.4659" r="27.4405" fill="#E6AE00"/>
<mask id="mask0_947_5271" style="mask-type:luminance" maskUnits="userSpaceOnUse" x="39" y="14" width="28" height="26">
<path d="M39.8438 14.8435H66.1867V39.5866H39.8438V14.8435Z" fill="white"/>
</mask>
<g mask="url(#mask0_947_5271)">
</g>
<path fill-rule="evenodd" clip-rule="evenodd" d="M60.5586 28.7215C60.1031 28.7215 59.732 28.3515 59.732 27.8972C59.732 27.4422 60.1031 27.0723 60.5586 27.0723C61.0146 27.0723 61.3851 27.4422 61.3851 27.8972C61.3851 28.3515 61.0146 28.7215 60.5586 28.7215ZM44.4059 32.2132C44.4059 32.6676 44.0348 33.0375 43.5799 33.0375C43.1238 33.0375 42.7528 32.6676 42.7528 32.2132C42.7528 31.7583 43.1238 31.3878 43.5799 31.3878C44.0348 31.3878 44.4059 31.7583 44.4059 32.2132ZM46.5411 28.3699C46.5411 27.9149 46.9116 27.5455 47.3682 27.5455C47.8237 27.5455 48.1948 27.9149 48.1948 28.3699C48.1948 28.8248 47.8237 29.1942 47.3682 29.1942C46.9116 29.1942 46.5411 28.8248 46.5411 28.3699ZM53.4963 31.53C53.4963 31.9844 53.1257 32.3543 52.6697 32.3543C52.2142 32.3543 51.8437 31.9844 51.8437 31.53C51.8437 31.0745 52.2142 30.7051 52.6697 30.7051C53.1257 30.7051 53.4963 31.0745 53.4963 31.53ZM54.5633 26.1724C54.5633 25.7175 54.9338 25.3475 55.3899 25.3475C55.8454 25.3475 56.2164 25.7175 56.2164 26.1724C56.2164 26.6268 55.8454 26.9967 55.3899 26.9967C54.9338 26.9967 54.5633 26.6268 54.5633 26.1724ZM58.9682 34.5612C59.6254 34.5612 60.1592 34.0274 60.1592 33.3719V29.4686C59.3304 29.2592 58.7933 28.4332 58.9666 27.5739L56.7997 26.9751C56.4525 27.5805 55.7543 27.9066 55.0471 27.7572L53.7657 30.334C54.0901 30.6307 54.2945 31.0567 54.2945 31.53C54.2945 32.4232 53.5657 33.1503 52.6697 33.1503C51.5793 33.1503 50.8039 32.0977 51.1138 31.0656L48.5142 29.5169C47.9937 30.0363 47.1871 30.1418 46.5489 29.7691L44.968 31.3722C45.6207 32.4432 44.8486 33.8335 43.5799 33.8335C42.6839 33.8335 41.9551 33.107 41.9551 32.2132C41.9551 30.9584 43.326 30.1852 44.3987 30.814L45.9795 29.2103C45.3263 28.1399 46.0984 26.749 47.3682 26.749C48.4503 26.749 49.2335 27.7883 48.9247 28.8337L51.5232 30.3824C51.9215 29.9852 52.5008 29.818 53.0624 29.9569L54.3322 27.4022C53.9856 27.1039 53.7651 26.6635 53.7651 26.1724C53.7651 25.2786 54.4939 24.5515 55.3893 24.5515C56.2853 24.5515 57.0146 25.2786 57.0146 26.1724C57.0146 26.1841 57.0135 26.1957 57.0135 26.208L59.3232 26.8462C59.5382 26.5946 59.8281 26.4096 60.1592 26.3257V23.1351C60.1592 22.4796 59.6248 21.9463 58.9682 21.9463H55.4493C54.7177 24.0255 52.7308 25.5203 50.4006 25.5203C48.0709 25.5203 46.0834 24.0255 45.3524 21.9463H41.8335C41.1763 21.9463 40.642 22.4796 40.642 23.1351V33.3719C40.642 34.0274 41.1763 34.5612 41.8335 34.5612H58.9682ZM52.5375 36.8259H48.2637C48.5292 36.391 48.7369 35.896 48.8802 35.3572H51.9215C52.0642 35.896 52.272 36.391 52.5375 36.8259ZM56.2592 38.7901H44.5431C44.6286 38.0674 44.9691 37.6224 45.2141 37.6224H55.5876C55.8326 37.6224 56.1731 38.0674 56.2592 38.7901ZM48.9691 15.8722C48.4075 16.8276 48.0926 18.3246 48.0476 19.8133L45.8657 19.8117C46.0156 17.9697 47.2716 16.4344 48.9691 15.8722ZM54.9366 19.8189L52.7536 19.8172C52.7097 18.3269 52.3947 16.8287 51.832 15.8722C53.5324 16.4355 54.7888 17.973 54.9366 19.8189ZM52.753 20.5604L54.9349 20.5621C54.7816 22.4002 53.5268 23.93 51.832 24.4921C52.3931 23.5383 52.7075 22.0463 52.753 20.5604ZM48.8464 20.5577L51.9548 20.5599C51.8781 23.149 51.0227 24.7237 50.4006 24.7237C49.779 24.7237 48.923 23.1484 48.8464 20.5577ZM50.4011 15.64C49.7784 15.64 48.9213 17.2187 48.8464 19.8144L51.9554 19.8166C51.8809 17.2198 51.0238 15.64 50.4011 15.64ZM48.0481 20.5565C48.0937 22.0436 48.4081 23.5372 48.9691 24.4921C47.2727 23.93 46.0173 22.3968 45.8662 20.5549L48.0481 20.5565ZM66.1767 22.2285L66.0461 19.7722C66.0317 19.4884 65.7295 19.3112 65.474 19.435L63.2643 20.5038C63.0666 20.5999 62.9832 20.8376 63.0793 21.0354C63.176 21.2337 63.4143 21.3164 63.6126 21.2203L64.5725 20.756L61.0563 26.3541C61.0241 26.3441 60.9907 26.3341 60.9574 26.3257V23.1351C60.9574 22.0402 60.0653 21.1503 58.9682 21.1503H55.6615C56.2653 17.873 53.7395 14.844 50.4011 14.844C47.0622 14.844 44.5364 17.873 45.1402 21.1503H41.8335C40.7364 21.1503 39.8438 22.0402 39.8438 23.1351V33.3719C39.8438 34.4668 40.7364 35.3572 41.8335 35.3572H48.0498C47.8748 35.9205 47.6132 36.4259 47.2888 36.8259H45.2141C44.3787 36.8259 43.7243 37.843 43.7243 39.1417V39.1883C43.7243 39.4083 43.9032 39.5866 44.1231 39.5866H56.678C56.898 39.5866 57.0769 39.4083 57.0769 39.1883V39.1417C57.0769 37.843 56.4231 36.8259 55.5876 36.8259H53.5124C53.188 36.4259 52.9263 35.9205 52.7514 35.3572H58.9682C60.0653 35.3572 60.9574 34.4668 60.9574 33.3719V29.4686C62.1595 29.1637 62.5916 27.6739 61.7317 26.7779L65.3162 21.0715L65.3796 22.2702C65.3912 22.4902 65.5718 22.6535 65.7989 22.6474C66.0189 22.6357 66.1883 22.4479 66.1767 22.2285Z" fill="black"/>
</svg>
