<svg width="103" height="131" viewBox="0 0 103 131" fill="none" xmlns="http://www.w3.org/2000/svg">
<path d="M52 70.5641L102.242 48.7198V106.243L52 129.058V70.5641Z" fill="#F1F1F1"/>
<path d="M51.7637 72.0205L2.25 49.2053L51.7637 26.8756L100.792 49.2053L51.7637 72.0205Z" fill="#E6AE00" fill-opacity="0.15"/>
<mask id="mask0_437_3165" style="mask-type:luminance" maskUnits="userSpaceOnUse" x="0" y="24" width="103" height="107">
<path d="M0.0625 24.691H102.942V131H0.0625V24.691Z" fill="white"/>
</mask>
<g mask="url(#mask0_437_3165)">
<path d="M101.93 47.2144L52.2034 24.956C51.7368 24.7481 51.2682 24.7481 50.8016 24.956L1.07712 47.2144C0.767437 47.3509 0.52295 47.5628 0.337547 47.846C0.154183 48.1292 0.0625 48.4389 0.0625 48.7751V106.987C0.0625 107.324 0.154183 107.635 0.337547 107.918C0.52295 108.202 0.767437 108.411 1.07712 108.55L50.8016 130.806C51.2682 131.016 51.7368 131.016 52.2034 130.806L101.93 108.55C102.238 108.411 102.484 108.202 102.667 107.918C102.851 107.635 102.942 107.324 102.942 106.987V48.7751C102.942 48.4389 102.851 48.1292 102.667 47.846C102.484 47.5628 102.238 47.3509 101.93 47.2144ZM49.789 126.601L3.49143 105.879V51.5357L49.789 72.26V126.601ZM51.5025 69.2732L5.83646 48.8342L51.5025 28.3951L97.1685 48.8342L51.5025 69.2732ZM99.5136 105.879L53.218 126.601V72.26L99.5136 51.5357V105.879Z" fill="black"/>
</g>
<circle cx="13.2186" cy="13.2186" r="13.2186" transform="matrix(0.956305 0.292372 0 1 12.9141 73.1978)" stroke="#ECB300" stroke-width="0.896176"/>
<path d="M21.4924 92.8043C20.9315 92.6408 20.4442 92.3564 20.0303 91.951C19.6186 91.5462 19.2951 91.0383 19.0596 90.4273C18.8263 89.8169 18.6979 89.1265 18.6746 88.356C18.6492 87.5872 18.7351 86.9629 18.9324 86.4831C19.1319 86.0039 19.428 85.681 19.8208 85.5143C20.2156 85.346 20.6924 85.3421 21.251 85.5027C21.8096 85.6633 22.2946 85.9436 22.7062 86.3438C23.1199 86.7446 23.4443 87.2471 23.6796 87.8512C23.9148 88.453 24.044 89.138 24.0672 89.9063C24.0928 90.6797 24.006 91.3094 23.8067 91.7954C23.6097 92.2821 23.3149 92.6122 22.9223 92.7858C22.5298 92.9594 22.0531 92.9655 21.4924 92.8043ZM21.4515 91.5684C21.834 91.6784 22.1327 91.5631 22.3475 91.2225C22.5623 90.8819 22.6552 90.305 22.6262 89.492C22.6085 88.9572 22.5416 88.497 22.4255 88.1113C22.3116 87.7262 22.1571 87.4169 21.9621 87.1836C21.7693 86.9508 21.5457 86.7979 21.2914 86.7248C20.911 86.6154 20.6133 86.7288 20.3984 87.0648C20.1835 87.4008 20.0881 87.969 20.1124 88.7693C20.1303 89.311 20.1964 89.7778 20.3105 90.1698C20.4268 90.5601 20.5824 90.8731 20.7775 91.1087C20.9725 91.3421 21.1972 91.4953 21.4515 91.5684ZM27.6321 94.5114C27.1713 94.3789 26.7575 94.1713 26.3908 93.8886C26.0263 93.6065 25.7334 93.2779 25.5121 92.9029C25.2909 92.5278 25.1692 92.136 25.1471 91.7272L26.5164 92.1209C26.5407 92.3984 26.6567 92.6511 26.8644 92.879C27.0722 93.107 27.3152 93.2609 27.5934 93.3409C27.8151 93.4047 28.009 93.4093 28.1751 93.3547C28.3434 93.2985 28.4722 93.1912 28.5617 93.0328C28.6533 92.8727 28.6951 92.6711 28.687 92.4278C28.6788 92.1799 28.6216 91.9475 28.5154 91.7306C28.4114 91.5143 28.2707 91.3283 28.0933 91.1728C27.9159 91.0172 27.7153 90.9061 27.4913 90.8395C27.2957 90.7832 27.1069 90.771 26.925 90.8028C26.7452 90.8352 26.6067 90.9102 26.5094 91.0277L25.2463 90.4293L25.4396 86.8023L29.5216 87.9758L29.5619 89.1944L26.6439 88.3556L26.5294 90.0719L26.5686 90.0832C26.6802 89.9425 26.8525 89.8488 27.0857 89.8022C27.3188 89.7555 27.5821 89.7744 27.8755 89.8588C28.2776 89.9743 28.6395 90.1773 28.9613 90.4676C29.2831 90.7578 29.541 91.1036 29.7351 91.505C29.9292 91.904 30.0326 92.3293 30.0453 92.7808C30.0632 93.2565 29.9728 93.6488 29.7742 93.9576C29.5777 94.2649 29.2949 94.47 28.9259 94.573C28.5589 94.6744 28.1277 94.6539 27.6321 94.5114Z" fill="#ECB300"/>
<circle cx="50.8174" cy="27.4346" r="27.4346" fill="#E6AE00"/>
<path d="M46.4298 19.235C48.9075 19.5817 48.9614 19.782 49.1567 19.782C49.4786 19.782 49.5509 19.3293 49.247 19.2283C47.4019 18.6105 45.7855 18.8098 45.0302 18.1718C44.9103 18.0698 44.7307 18.0865 44.6297 18.2054C44.5282 18.3258 44.5435 18.5049 44.6634 18.6064C45.2112 19.0689 45.8084 19.1336 46.4298 19.235Z" fill="black"/>
<path d="M50.0261 23.1683C49.432 22.8558 48.2565 22.4652 48.1186 22.0745C48.0966 22.0116 48.1186 21.9438 48.1348 21.9358C48.2745 21.8639 48.3292 21.6933 48.2574 21.5532C48.186 21.4131 48.0145 21.3579 47.8748 21.4302C47.596 21.5734 47.4676 21.9398 47.5825 22.264C47.8272 22.9568 49.0584 23.3021 49.7616 23.6717C50.2748 23.9411 50.8442 24.4274 50.7616 24.9105C50.7284 25.1067 50.6493 25.1709 50.5932 25.2019C50.2542 25.3896 49.4563 25.0578 49.0724 24.8988C48.8703 24.8153 48.6247 24.7219 48.2439 24.5464C47.8573 24.3685 47.5749 24.1849 47.0873 24.1548C46.0321 24.0911 45.7797 24.0475 44.6141 23.0614C44.2292 22.7368 43.8319 22.4009 43.3972 22.1805C43.2576 22.1104 43.086 22.1652 43.0151 22.3057C42.9441 22.4458 43.0003 22.6165 43.1404 22.6879C43.5153 22.8778 43.8705 23.1782 44.2468 23.4961C45.5054 24.5589 45.8686 24.6505 47.0522 24.7224C47.5093 24.7502 47.6198 24.9289 48.7109 25.3654C49.1954 25.5656 49.793 25.8234 50.3269 25.8234C50.9021 25.8234 51.2366 25.5073 51.322 25.0062C51.4903 24.021 50.3727 23.3502 50.0261 23.1683Z" fill="black"/>
<mask id="mask1_437_3165" style="mask-type:luminance" maskUnits="userSpaceOnUse" x="38" y="15" width="7" height="8">
<path d="M38.4766 15.7748H44.3237V22.6084H38.4766V15.7748Z" fill="white"/>
</mask>
<g mask="url(#mask1_437_3165)">
<path d="M38.5773 21.198C38.5275 21.3471 38.6074 21.5078 38.756 21.5581L41.5858 22.5118C42.0024 22.6686 42.4524 22.4921 42.5898 22.1252L44.2017 17.8106C44.3396 17.4415 44.1137 17.0154 43.6894 16.8564L40.6742 15.8367C40.5252 15.7869 40.364 15.8664 40.3137 16.015C40.2634 16.1636 40.3433 16.3253 40.4919 16.3755L43.499 17.3921C43.6256 17.4393 43.6935 17.547 43.6692 17.6117L42.0572 21.9259C42.0334 21.9905 41.9113 22.0278 41.7761 21.9762L38.9379 21.0193C38.7893 20.9699 38.6281 21.0489 38.5773 21.198Z" fill="black"/>
</g>
<path d="M42.3081 18.2965C42.3898 18.0918 42.2901 17.8596 42.0858 17.7779C41.881 17.6966 41.6493 17.7959 41.5676 18.0006C41.4859 18.2049 41.5856 18.4371 41.7899 18.5188C41.9946 18.6005 42.2263 18.5008 42.3081 18.2965Z" fill="black"/>
<path d="M41.0503 17.7941C41.132 17.5893 41.0323 17.3576 40.828 17.2759C40.6233 17.1942 40.3911 17.2939 40.3099 17.4982C40.2281 17.7029 40.3274 17.9346 40.5321 18.0164C40.7364 18.0981 40.9686 17.9988 41.0503 17.7941Z" fill="black"/>
<path d="M44.4075 29.6586H43.3986C43.1018 29.6586 42.9531 29.782 42.9531 30.029C42.9531 30.2795 43.1018 30.4048 43.3986 30.4048H44.4075C44.6742 30.4048 44.8529 30.293 44.8529 30.029C44.8529 29.7663 44.6742 29.6586 44.4075 29.6586Z" fill="black"/>
<path d="M46.2718 27.6244C45.0688 27.6244 45.098 29.1511 45.5313 29.6374C45.8928 30.0419 46.6521 30.0397 47.0126 29.6396C47.1914 29.4411 47.2807 29.1542 47.2807 28.7784C47.2807 28.4066 47.1914 28.121 47.0126 27.9221C46.8335 27.7236 46.5865 27.6244 46.2718 27.6244ZM46.2718 29.3581C46.0428 29.3581 46.0356 29.0096 46.0356 28.7784C46.0356 28.5498 46.0455 28.2095 46.2718 28.2095C46.4931 28.2095 46.5079 28.5548 46.5079 28.7784C46.5079 29.0101 46.5012 29.3581 46.2718 29.3581Z" fill="black"/>
<path d="M49.1105 29.1969C48.4307 29.1969 48.1016 29.6661 48.1016 30.3455C48.1016 31.0419 48.4338 31.5098 49.1105 31.5098C49.4253 31.5098 49.6722 31.4106 49.8509 31.2125C50.0297 31.0136 50.1195 30.7267 50.1195 30.3509C50.1195 29.6652 49.7908 29.1969 49.1105 29.1969ZM49.1105 30.9306C49.0283 30.9306 48.9682 30.8866 48.9309 30.799C48.8559 30.6243 48.8537 30.0878 48.9309 29.9081C49.0036 29.738 49.2048 29.7236 49.2874 29.9108C49.3269 30.0002 49.3467 30.147 49.3467 30.3509C49.3467 30.5826 49.34 30.9306 49.1105 30.9306Z" fill="black"/>
<path d="M48.4773 27.6406C48.3058 27.7493 48.4221 27.668 46.4733 30.9953C46.1891 31.4815 46.785 31.8327 47.0741 31.3437C49.0022 27.9751 48.9896 28.1296 48.9896 27.9145C48.9896 27.6469 48.7184 27.4893 48.4773 27.6406Z" fill="black"/>
<path d="M61.5111 31.4682C60.3078 28.7341 57.9217 26.6843 56.9513 25.9295C56.6033 25.6601 56.1301 26.0207 56.2845 26.4329C56.659 27.4315 56.6447 28.933 56.5611 30.0511C56.3568 29.6384 55.6793 28.6335 55.2262 28.5693C55.0039 28.5343 54.7736 28.6726 54.6681 28.8975C54.6016 29.0381 54.5922 29.1822 54.5828 29.3246C54.4252 31.65 52.0831 33.0442 52.8486 36.0585C53.1953 37.4217 54.1791 38.5878 55.5482 39.2573C55.6186 39.2923 55.9604 39.3943 56.0668 39.4468C56.285 39.6686 56.659 39.4221 56.5293 39.1316C56.5293 39.1316 56.5288 39.1316 56.5288 39.1311C55.5966 37.0549 56.7713 35.7177 57.2957 35.2552C59.0563 37.0508 57.8328 39.0095 57.7793 39.0934C57.6518 39.2919 57.8067 39.551 58.0443 39.5308C59.1717 39.4248 60.147 38.8249 60.9422 37.7464C62.2291 36.001 62.4473 33.5952 61.5111 31.4682ZM58.5153 38.8694C58.8484 38.0225 59.2095 36.3091 57.6047 34.7613C57.4457 34.6082 57.2001 34.5969 57.0322 34.7334C56.6837 35.0163 55.1081 36.4496 55.7776 38.7369C54.5693 38.1388 53.7031 37.1128 53.3996 35.9189C52.819 33.6333 54.2635 32.4017 54.9074 30.5517C55.1696 29.7978 55.1301 29.2976 55.1777 29.1611C55.4134 29.3484 55.5917 29.594 55.7866 29.8625C56.1445 30.3564 56.3523 30.9599 56.3878 31.6078C56.4062 31.9428 56.8948 31.976 56.9518 31.6397C56.9742 31.5077 57.4542 28.5953 56.95 26.6569C58.0218 27.5401 59.9638 29.3636 60.9907 31.6967C61.8452 33.6383 61.6512 35.8268 60.4847 37.4092C59.9194 38.1756 59.2589 38.6651 58.5153 38.8694Z" fill="black"/>
<path d="M50.8203 26.6375C50.8203 26.7947 50.9474 26.9218 51.1045 26.9218H55.4784C55.6356 26.9218 55.7627 26.7947 55.7627 26.6375C55.7627 26.4808 55.6356 26.3533 55.4784 26.3533H51.1045C50.9474 26.3533 50.8203 26.4808 50.8203 26.6375Z" fill="black"/>
<path d="M62.6684 19.966H51.1012C50.7048 19.966 50.3828 20.288 50.3828 20.684V22.631C50.3828 22.7877 50.5099 22.9152 50.667 22.9152C50.8237 22.9152 50.9513 22.7877 50.9513 22.631V20.684C50.9513 20.6014 51.0182 20.5345 51.1012 20.5345H62.6684C62.7515 20.5345 62.8184 20.6014 62.8184 20.684V26.2034C62.8184 26.286 62.7515 26.3533 62.6684 26.3533H58.731C58.5743 26.3533 58.4468 26.4809 58.4468 26.6376C58.4468 26.7947 58.5743 26.9218 58.731 26.9218H62.6684C63.0649 26.9218 63.3869 26.5994 63.3869 26.2034V20.684C63.3869 20.288 63.0649 19.966 62.6684 19.966Z" fill="black"/>
<path d="M53.7229 21.5614C53.7472 21.4064 53.6412 21.261 53.4859 21.2367C53.3323 21.2147 53.1855 21.3189 53.1612 21.4738C53.1127 21.7854 52.8748 22.036 52.5681 22.0979C52.3252 22.1487 52.1523 22.3575 52.1563 22.5954L52.1869 24.3381C52.1909 24.577 52.3723 24.7799 52.6166 24.8203C52.9241 24.8724 53.1711 25.1144 53.2304 25.4238C53.2564 25.5594 53.3754 25.6542 53.5092 25.6542C53.6875 25.6542 53.8222 25.4921 53.7885 25.3165C53.6875 24.7898 53.2753 24.374 52.7544 24.268L52.7261 22.6457C53.2425 22.5218 53.6403 22.0916 53.7229 21.5614Z" fill="black"/>
<path d="M59.9817 25.3166C59.9481 25.4926 60.0832 25.6542 60.261 25.6542C60.3948 25.6542 60.5138 25.5595 60.5399 25.4239C60.5991 25.1145 60.8456 24.8725 61.1528 24.8209C61.3979 24.78 61.5789 24.577 61.5834 24.3377L61.6139 22.5955C61.618 22.3575 61.4451 22.1487 61.2008 22.098C60.8955 22.036 60.6575 21.7855 60.609 21.4739C60.5848 21.3189 60.4397 21.2152 60.2839 21.2368C60.129 21.261 60.023 21.4065 60.0468 21.5614C60.1299 22.0922 60.5286 22.5228 61.0441 22.6458L61.0158 24.2677C60.4954 24.3736 60.0828 24.7899 59.9817 25.3166Z" fill="black"/>
<path d="M56.8831 21.5757C55.8535 21.5757 55.0156 22.414 55.0156 23.4436C55.0156 24.4737 55.8535 25.312 56.8831 25.312C57.9131 25.312 58.751 24.4737 58.751 23.4436C58.751 22.414 57.9131 21.5757 56.8831 21.5757ZM56.8831 24.7435C56.1669 24.7435 55.5841 24.1603 55.5841 23.4436C55.5841 22.7274 56.1669 22.1442 56.8831 22.1442C57.5997 22.1442 58.1826 22.7274 58.1826 23.4436C58.1826 24.1603 57.5997 24.7435 56.8831 24.7435Z" fill="black"/>
</svg>
