<svg width="103" height="131" viewBox="0 0 103 131" fill="none" xmlns="http://www.w3.org/2000/svg">
<path d="M52 70.5641L102.242 48.7198V106.243L52 129.058V70.5641Z" fill="#F1F1F1"/>
<path d="M51.7637 72.0205L2.25 49.2053L51.7637 26.8756L100.792 49.2053L51.7637 72.0205Z" fill="#E6AE00" fill-opacity="0.15"/>
<mask id="mask0_437_3127" style="mask-type:luminance" maskUnits="userSpaceOnUse" x="0" y="24" width="103" height="107">
<path d="M0.0703125 24.691H102.95V131H0.0703125V24.691Z" fill="white"/>
</mask>
<g mask="url(#mask0_437_3127)">
<path d="M101.938 47.2144L52.2112 24.956C51.7446 24.7482 51.276 24.7482 50.8094 24.956L1.08493 47.2144C0.775249 47.3509 0.530762 47.5628 0.34536 47.846C0.161995 48.1292 0.0703125 48.4389 0.0703125 48.7751V106.987C0.0703125 107.324 0.161995 107.635 0.34536 107.918C0.530762 108.202 0.775249 108.411 1.08493 108.55L50.8094 130.806C51.276 131.016 51.7446 131.016 52.2112 130.806L101.938 108.55C102.245 108.411 102.492 108.202 102.675 107.918C102.859 107.635 102.95 107.324 102.95 106.987V48.7751C102.95 48.4389 102.859 48.1292 102.675 47.846C102.492 47.5628 102.245 47.3509 101.938 47.2144ZM49.7969 126.601L3.49924 105.879V51.5357L49.7969 72.2601V126.601ZM51.5103 69.2732L5.84427 48.8342L51.5103 28.3951L97.1763 48.8342L51.5103 69.2732ZM99.5214 105.879L53.2258 126.601V72.2601L99.5214 51.5357V105.879Z" fill="black"/>
</g>
<circle cx="13.2186" cy="13.2186" r="13.2186" transform="matrix(0.956305 0.292372 0 1 12.9219 73.1978)" stroke="#ECB300" stroke-width="0.896176"/>
<path d="M22.7923 92.7851C22.2314 92.6216 21.7441 92.3372 21.3303 91.9318C20.9186 91.527 20.595 91.0191 20.3595 90.4081C20.1262 89.7978 19.9979 89.1073 19.9746 88.3368C19.9491 87.568 20.0351 86.9437 20.2324 86.4639C20.4318 85.9848 20.7279 85.6618 21.1207 85.4952C21.5156 85.3268 21.9923 85.3229 22.5509 85.4835C23.1095 85.6441 23.5946 85.9245 24.0061 86.3246C24.4198 86.7255 24.7443 87.2279 24.9795 87.832C25.2147 88.4338 25.3439 89.1189 25.3672 89.8871C25.3927 90.6605 25.3059 91.2902 25.1067 91.7763C24.9096 92.2629 24.6148 92.593 24.2223 92.7666C23.8297 92.9402 23.3531 92.9464 22.7923 92.7851ZM22.7514 91.5493C23.134 91.6592 23.4327 91.5439 23.6475 91.2033C23.8623 90.8627 23.9551 90.2859 23.9261 89.4728C23.9084 88.9381 23.8415 88.4778 23.7255 88.0921C23.6115 87.707 23.4571 87.3978 23.262 87.1644C23.0692 86.9316 22.8456 86.7787 22.5913 86.7056C22.2109 86.5962 21.9133 86.7096 21.6983 87.0456C21.4834 87.3816 21.3881 87.9498 21.4124 88.7502C21.4303 89.2918 21.4963 89.7586 21.6105 90.1506C21.7267 90.5409 21.8824 90.8539 22.0775 91.0895C22.2725 91.3229 22.4971 91.4762 22.7514 91.5493ZM28.9614 94.5007C28.4745 94.3607 28.038 94.1477 27.6517 93.8616C27.2676 93.5739 26.9606 93.2424 26.7308 92.8671C26.503 92.4902 26.3791 92.0954 26.359 91.6828L27.7805 92.0914C27.7949 92.266 27.8532 92.4328 27.9553 92.5918C28.0595 92.749 28.1954 92.887 28.363 93.0056C28.5305 93.1242 28.7175 93.2132 28.924 93.2726C29.1392 93.3345 29.3281 93.349 29.4906 93.3161C29.6531 93.2833 29.7788 93.2092 29.8675 93.0937C29.9563 92.9783 29.9976 92.8277 29.9915 92.6418C29.9852 92.4536 29.9297 92.2728 29.825 92.0995C29.7223 91.9245 29.5772 91.7691 29.3898 91.6334C29.2044 91.4983 28.9857 91.3945 28.7336 91.322L28.1109 91.143L28.0747 90.0482L28.6974 90.2273C28.9104 90.2885 29.0971 90.3035 29.2576 90.2724C29.4202 90.2418 29.5449 90.1708 29.6316 90.0594C29.7183 89.9456 29.7585 89.7958 29.7524 89.6099C29.7465 89.4332 29.7012 89.2667 29.6164 89.1105C29.5336 88.9526 29.4193 88.8151 29.2733 88.6981C29.1296 88.5818 28.9631 88.4964 28.774 88.4421C28.5827 88.3871 28.409 88.3735 28.2527 88.4013C28.0964 88.4269 27.9726 88.4924 27.8814 88.5981C27.7902 88.7037 27.7443 88.8451 27.7437 89.0222L26.3906 88.6332C26.3837 88.2289 26.4816 87.9024 26.6844 87.6538C26.8872 87.4052 27.1661 87.2456 27.5211 87.1749C27.8783 87.1025 28.2851 87.1319 28.7415 87.2631C29.2023 87.3956 29.6084 87.5999 29.9599 87.876C30.3113 88.152 30.5876 88.4679 30.7888 88.8235C30.9921 89.1775 31.0989 89.54 31.109 89.9112C31.1242 90.3066 31.0188 90.6025 30.7928 90.7989C30.5689 90.996 30.2713 91.0764 29.8998 91.0401L29.9016 91.0951C30.395 91.3029 30.7748 91.5905 31.041 91.958C31.3093 92.3239 31.4496 92.7256 31.4619 93.1634C31.4774 93.5656 31.3794 93.8909 31.168 94.1393C30.9588 94.3883 30.6637 94.5468 30.2827 94.6145C29.9017 94.6823 29.4613 94.6444 28.9614 94.5007Z" fill="#ECB300"/>
<circle cx="50.8174" cy="27.4346" r="27.4346" fill="#E6AE00"/>
<mask id="mask1_437_3127" style="mask-type:luminance" maskUnits="userSpaceOnUse" x="39" y="13" width="24" height="28">
<path d="M39.1641 13.7173H62.0813V40.466H39.1641V13.7173Z" fill="white"/>
</mask>
<g mask="url(#mask1_437_3127)">
<path d="M61.8763 17.7012L58.703 13.951C58.5778 13.8032 58.4029 13.722 58.21 13.722C58.0171 13.722 57.8417 13.8032 57.7165 13.951L54.5433 17.7012C54.378 17.8964 54.3425 18.1621 54.4491 18.3939C54.5562 18.6263 54.7813 18.7706 55.0362 18.7706H56.0977V26.8341C55.1614 25.9231 54.0018 25.2418 52.7096 24.8819V21.5733H53.7711C54.026 21.5733 54.2511 21.4289 54.3583 21.1965C54.4654 20.9642 54.4293 20.6991 54.2641 20.5039L51.0908 16.7537C50.9662 16.6059 50.7908 16.5247 50.5979 16.5247C50.4044 16.5247 50.2295 16.6059 50.1043 16.7537L46.9311 20.5039C46.7658 20.6991 46.7303 20.9647 46.8369 21.1965C46.9441 21.4289 47.1691 21.5733 47.424 21.5733H48.4861V24.8819C47.1939 25.2418 46.0343 25.9231 45.0974 26.8341V24.376H46.1589C46.4139 24.376 46.6389 24.2316 46.7461 23.9992C46.8532 23.7674 46.8171 23.5017 46.6519 23.3066L43.4786 19.5563C43.354 19.4086 43.1786 19.3273 42.9857 19.3273C42.7922 19.3273 42.6174 19.4086 42.4927 19.5563L39.3189 23.3066C39.1536 23.5017 39.1181 23.7674 39.2247 23.9992C39.3319 24.2316 39.5569 24.376 39.8119 24.376H40.8739V28.8838C40.8739 29.3694 41.2671 29.7642 41.751 29.7642H43.1859C42.8661 30.6249 42.6907 31.5561 42.6907 32.528C42.6912 36.9026 46.2384 40.4617 50.5979 40.4617C54.9578 40.4617 58.5045 36.9026 58.5045 32.528C58.5045 31.5561 58.3291 30.6249 58.0092 29.7642H59.4441C59.9281 29.7642 60.3218 29.3694 60.3218 28.8838V18.7706H61.3833C61.6382 18.7706 61.8633 18.6263 61.9699 18.3939C62.0776 18.1621 62.0415 17.8964 61.8763 17.7012ZM48.9024 20.7374H47.8262L50.5979 17.4621L53.3695 20.7374H52.2933C52.0632 20.7374 51.8771 20.9247 51.8771 21.1554V24.6986C51.4603 24.6304 51.0333 24.5943 50.5979 24.5943C50.1624 24.5943 49.7354 24.6304 49.3192 24.6986V21.1554C49.3192 20.9247 49.1325 20.7374 48.9024 20.7374ZM41.7516 28.9283C41.7279 28.9283 41.707 28.9074 41.707 28.8838V23.9581C41.707 23.7274 41.5203 23.5401 41.2907 23.5401H40.214L42.9857 20.2648L45.7579 23.5401H44.6812C44.4516 23.5401 44.2649 23.7274 44.2649 23.9581V27.7828C43.997 28.1426 43.7584 28.5256 43.5531 28.9283H41.7516ZM50.5979 39.6258C46.6976 39.6258 43.5243 36.4418 43.5243 32.528C43.5243 28.6141 46.6976 25.4296 50.5979 25.4296C54.4987 25.4296 57.672 28.6141 57.672 32.528C57.672 36.4418 54.4987 39.6258 50.5979 39.6258ZM59.905 17.9347C59.6754 17.9347 59.4887 18.122 59.4887 18.3527V28.8838C59.4887 28.9074 59.4678 28.9283 59.4441 28.9283H57.6426C57.4379 28.5256 57.1993 28.1426 56.9308 27.7828V18.3527C56.9308 18.122 56.7447 17.9347 56.5146 17.9347H55.4378L58.21 14.6588L60.9817 17.9347H59.905ZM50.5979 26.371C47.2148 26.371 44.4617 29.1331 44.4617 32.528C44.4617 35.9229 47.2148 38.6849 50.5979 38.6849C53.9815 38.6849 56.734 35.9229 56.734 32.528C56.734 29.1331 53.9815 26.371 50.5979 26.371ZM50.5979 37.8491C47.6739 37.8491 45.2948 35.4621 45.2948 32.528C45.2948 29.5939 47.6739 27.2063 50.5979 27.2063C53.5224 27.2063 55.9009 29.5939 55.9009 32.528C55.9009 35.4621 53.5224 37.8491 50.5979 37.8491ZM52.8359 33.8213C52.8912 34.2776 52.7694 34.6944 52.4829 35.0266C52.1574 35.4045 51.6233 35.6606 51.0141 35.7401V36.1598C51.0141 36.3905 50.828 36.5772 50.5979 36.5772C50.3677 36.5772 50.1816 36.3905 50.1816 36.1598V35.7339C49.2712 35.5929 48.5662 35.0058 48.3592 34.1727C48.3034 33.9488 48.4393 33.722 48.6621 33.6662C48.8855 33.6109 49.1116 33.7468 49.1669 33.9708C49.3485 34.7012 50.0851 34.9448 50.6627 34.9302C51.1602 34.9183 51.6272 34.7418 51.8528 34.4801C51.9848 34.3267 52.0361 34.1439 52.0096 33.9217C51.9448 33.3859 51.4902 33.0768 50.5358 32.9194C48.9407 32.6566 48.569 31.8387 48.538 31.198C48.4951 30.3113 49.1116 29.5691 50.0722 29.3502C50.1083 29.3423 50.1449 29.335 50.1816 29.3282V28.8962C50.1816 28.6655 50.3677 28.4782 50.5979 28.4782C50.828 28.4782 51.0141 28.6655 51.0141 28.8962V29.3248C51.6825 29.4365 52.3356 29.8341 52.6656 30.6227C52.7547 30.8353 52.6549 31.0807 52.4428 31.1698C52.2313 31.2589 51.9871 31.1591 51.898 30.9464C51.5934 30.2183 50.8534 30.0293 50.2566 30.1652C49.8093 30.2668 49.3418 30.5809 49.37 31.1579C49.3795 31.357 49.4049 31.8867 50.6706 32.0948C51.1641 32.176 52.6673 32.4236 52.8359 33.8213Z" fill="black"/>
</g>
</svg>
