<svg width="103" height="131" viewBox="0 0 103 131" fill="none" xmlns="http://www.w3.org/2000/svg">
<path d="M52 70.5641L102.242 48.7198V106.243L52 129.058V70.5641Z" fill="#F1F1F1"/>
<path d="M51.7637 72.0205L2.25 49.2053L51.7637 26.8756L100.792 49.2053L51.7637 72.0205Z" fill="#E6AE00" fill-opacity="0.15"/>
<mask id="mask0_437_3199" style="mask-type:luminance" maskUnits="userSpaceOnUse" x="0" y="24" width="103" height="107">
<path d="M0.0703125 24.691H102.95V131H0.0703125V24.691Z" fill="white"/>
</mask>
<g mask="url(#mask0_437_3199)">
<path d="M101.938 47.2144L52.2112 24.956C51.7446 24.7482 51.276 24.7482 50.8094 24.956L1.08493 47.2144C0.775249 47.3509 0.530762 47.5628 0.34536 47.846C0.161995 48.1292 0.0703125 48.4389 0.0703125 48.7751V106.987C0.0703125 107.324 0.161995 107.635 0.34536 107.918C0.530762 108.202 0.775249 108.411 1.08493 108.55L50.8094 130.806C51.276 131.016 51.7446 131.016 52.2112 130.806L101.938 108.55C102.245 108.411 102.492 108.202 102.675 107.918C102.859 107.635 102.95 107.324 102.95 106.987V48.7751C102.95 48.4389 102.859 48.1292 102.675 47.846C102.492 47.5628 102.245 47.3509 101.938 47.2144ZM49.7969 126.601L3.49924 105.879V51.5357L49.7969 72.2601V126.601ZM51.5103 69.2732L5.84427 48.8342L51.5103 28.3951L97.1763 48.8342L51.5103 69.2732ZM99.5214 105.879L53.2258 126.601V72.2601L99.5214 51.5357V105.879Z" fill="black"/>
</g>
<circle cx="13.2186" cy="13.2186" r="13.2186" transform="matrix(0.956305 0.292372 0 1 12.9219 73.1978)" stroke="#ECB300" stroke-width="0.896176"/>
<path d="M22.1081 92.7837C21.5473 92.6202 21.0599 92.3357 20.6461 91.9303C20.2344 91.5256 19.9108 91.0177 19.6753 90.4067C19.442 89.7963 19.3137 89.1059 19.2904 88.3354C19.265 87.5665 19.3509 86.9422 19.5482 86.4625C19.7476 85.9833 20.0438 85.6604 20.4365 85.4937C20.8314 85.3254 21.3081 85.3215 21.8668 85.4821C22.4254 85.6426 22.9104 85.923 23.3219 86.3232C23.7356 86.724 24.0601 87.2265 24.2954 87.8306C24.5305 88.4324 24.6598 89.1174 24.683 89.8856C24.7086 90.6591 24.6217 91.2888 24.4225 91.7748C24.2255 92.2615 23.9307 92.5916 23.5381 92.7652C23.1456 92.9387 22.6689 92.9449 22.1081 92.7837ZM22.0673 91.5478C22.4498 91.6578 22.7485 91.5425 22.9633 91.2019C23.1781 90.8613 23.271 90.2844 23.2419 89.4714C23.2243 88.9366 23.1574 88.4764 23.0413 88.0907C22.9274 87.7056 22.7729 87.3963 22.5779 87.1629C22.385 86.9302 22.1615 86.7773 21.9072 86.7042C21.5268 86.5948 21.2291 86.7081 21.0142 87.0442C20.7992 87.3802 20.7039 87.9484 20.7282 88.7487C20.7461 89.2903 20.8121 89.7571 20.9263 90.1491C21.0425 90.5394 21.1982 90.8524 21.3933 91.0881C21.5883 91.3215 21.813 91.4747 22.0673 91.5478ZM28.3718 94.5264C28.0283 94.4254 27.6948 94.2693 27.3713 94.0581C27.05 93.8475 26.7589 93.5717 26.4979 93.2307C26.2369 92.8897 26.0251 92.4765 25.8627 91.9911C25.7024 91.5063 25.6116 90.9414 25.5903 90.2965C25.5729 89.705 25.6195 89.1944 25.7302 88.7648C25.843 88.3335 26.0124 87.9889 26.2386 87.7311C26.4669 87.474 26.7445 87.3083 27.0715 87.234C27.3983 87.1575 27.7682 87.1786 28.1812 87.2973C28.6268 87.4254 29.0233 87.6303 29.3706 87.912C29.7178 88.1914 29.9998 88.5169 30.2166 88.8884C30.4356 89.2605 30.5733 89.6467 30.6296 90.0471L29.2374 89.6468C29.1749 89.3857 29.0544 89.1601 28.8759 88.9701C28.6974 88.7801 28.4799 88.6482 28.2234 88.5745C27.7887 88.4495 27.465 88.5542 27.2521 88.8886C27.0414 89.2236 26.9453 89.7335 26.9636 90.4185L27.0092 90.4316C27.1023 90.2515 27.2312 90.1124 27.3959 90.0142C27.5627 89.9144 27.7534 89.8567 27.9682 89.8412C28.1851 89.824 28.4152 89.8504 28.6587 89.9204C29.0543 90.0341 29.4097 90.234 29.7248 90.5201C30.0399 90.8039 30.2922 91.1424 30.4818 91.5356C30.6713 91.9288 30.7734 92.3457 30.7879 92.7864C30.8037 93.2637 30.7123 93.658 30.5138 93.9692C30.3174 94.281 30.0347 94.4884 29.6657 94.5915C29.2987 94.6928 28.8674 94.6712 28.3718 94.5264ZM28.3265 93.354C28.5439 93.4165 28.7366 93.4174 28.9047 93.3566C29.0728 93.2958 29.2026 93.1853 29.2942 93.0253C29.3858 92.8652 29.4277 92.6681 29.4199 92.434C29.4122 92.1999 29.3564 91.9759 29.2524 91.7619C29.1506 91.5485 29.0131 91.3623 28.84 91.2034C28.6668 91.0445 28.4715 90.9338 28.2542 90.8713C28.0911 90.8245 27.9411 90.8132 27.8042 90.8374C27.6693 90.8623 27.5517 90.9172 27.4511 91.0019C27.3528 91.0873 27.2768 91.1973 27.2231 91.3319C27.1693 91.4642 27.1452 91.6153 27.1509 91.7851C27.1584 92.0123 27.2141 92.2341 27.3182 92.4504C27.4244 92.6673 27.5641 92.8564 27.7374 93.0176C27.9128 93.1794 28.1092 93.2916 28.3265 93.354Z" fill="#ECB300"/>
<circle cx="50.8174" cy="27.4346" r="27.4346" fill="#E6AE00"/>
<mask id="mask1_437_3199" style="mask-type:luminance" maskUnits="userSpaceOnUse" x="57" y="17" width="5" height="21">
<path d="M57.2578 17.1469H61.3257V37.9338H57.2578V17.1469Z" fill="white"/>
</mask>
<g mask="url(#mask1_437_3199)">
<path d="M61.3016 17.388C61.3016 17.3875 61.3011 17.387 61.3011 17.3859C61.2862 17.3459 61.2641 17.3095 61.2364 17.2772C61.2282 17.2669 61.2164 17.2597 61.2067 17.2505C61.1846 17.2294 61.161 17.2105 61.1338 17.1956C61.1277 17.1925 61.1241 17.1869 61.1184 17.1843C61.1082 17.1797 61.0974 17.1802 61.0871 17.1761C61.0722 17.1709 61.0594 17.1617 61.0435 17.1581C61.0312 17.1556 61.0189 17.1581 61.0071 17.1566C60.9891 17.1545 60.9717 17.1535 60.9542 17.1535C60.9275 17.1545 60.9019 17.1586 60.8762 17.1653C60.8603 17.1699 60.8449 17.173 60.8295 17.1797C60.8029 17.1904 60.7793 17.2058 60.7567 17.2228C60.7449 17.2315 60.732 17.2377 60.7213 17.2479C60.6895 17.2782 60.6618 17.3126 60.6423 17.3541C59.7992 19.132 58.7135 20.8012 57.4143 22.3158C57.3846 22.3502 57.3635 22.3907 57.3486 22.4328C57.3435 22.4487 57.343 22.4651 57.3399 22.4816C57.3358 22.5041 57.3281 22.5262 57.3281 22.5493V37.5729C57.3281 37.771 57.4877 37.9311 57.6858 37.9311H60.9645C61.1625 37.9311 61.3226 37.771 61.3226 37.5729V17.5081C61.3226 17.466 61.3154 17.4254 61.3016 17.388ZM60.6069 37.2143H58.0429V22.6817C58.0711 22.6483 58.0968 22.6129 58.125 22.5796C58.3076 22.362 58.4852 22.1414 58.6591 21.9182C58.7109 21.8515 58.7628 21.7858 58.8141 21.7186C59.0142 21.4559 59.2097 21.1901 59.3975 20.9192C59.4267 20.8776 59.4544 20.835 59.4826 20.7929C59.6458 20.5559 59.8028 20.3158 59.9568 20.0731C60.0034 19.9987 60.0506 19.9243 60.0963 19.8499C60.2697 19.5692 60.438 19.2865 60.5981 18.9986C60.6012 18.9935 60.6043 18.9889 60.6069 18.9843V37.2143Z" fill="black"/>
</g>
<mask id="mask2_437_3199" style="mask-type:luminance" maskUnits="userSpaceOnUse" x="51" y="24" width="5" height="14">
<path d="M51.75 24.3083H55.9533V37.9338H51.75V24.3083Z" fill="white"/>
</mask>
<g mask="url(#mask2_437_3199)">
<path d="M55.8428 24.6449C55.8295 24.6116 55.8115 24.5808 55.7895 24.5531C55.7854 24.5479 55.7843 24.5418 55.7802 24.5372C55.7761 24.5331 55.7705 24.531 55.7664 24.5269C55.7412 24.5007 55.712 24.4782 55.6791 24.4607C55.6735 24.4576 55.6689 24.453 55.6632 24.4505C55.6622 24.4499 55.6607 24.4489 55.6596 24.4479C55.6222 24.431 55.5837 24.4233 55.5442 24.4197C55.5339 24.4186 55.5242 24.4202 55.5139 24.4202C55.4816 24.4202 55.4503 24.4243 55.4195 24.4325C55.4082 24.4356 55.3974 24.4381 55.3862 24.4422C55.3467 24.4571 55.3087 24.4771 55.2753 24.5059C54.2779 25.3889 53.1921 26.1858 52.0479 26.8754C52.0115 26.898 51.9812 26.9277 51.955 26.9605C51.9489 26.9688 51.9427 26.9759 51.9371 26.9847C51.9145 27.0185 51.8966 27.0544 51.8863 27.094C51.8853 27.0975 51.8858 27.1011 51.8853 27.1047C51.8791 27.1299 51.875 27.1555 51.875 27.1822V37.5731C51.875 37.7711 52.0351 37.9312 52.2326 37.9312H55.5124C55.7104 37.9312 55.87 37.7711 55.87 37.5731V24.7742C55.87 24.7368 55.8633 24.7008 55.8521 24.666C55.85 24.6583 55.8454 24.6521 55.8428 24.6449ZM55.1542 37.2144H52.5903V27.3839C52.8212 27.2417 53.0495 27.095 53.2758 26.9446C53.3071 26.9241 53.3373 26.9015 53.3686 26.8805C53.597 26.7271 53.8217 26.5691 54.0439 26.4074C54.1229 26.3505 54.2004 26.292 54.2784 26.234C54.46 26.0985 54.6396 25.96 54.8171 25.8194C54.8905 25.7609 54.9649 25.7029 55.0373 25.6439C55.0757 25.6126 55.1158 25.5824 55.1542 25.5511V37.2144Z" fill="black"/>
</g>
<mask id="mask3_437_3199" style="mask-type:luminance" maskUnits="userSpaceOnUse" x="46" y="27" width="5" height="11">
<path d="M46.3594 27.8547H50.4314V37.9336H46.3594V27.8547Z" fill="white"/>
</mask>
<g mask="url(#mask3_437_3199)">
<path d="M50.3982 28.3137C50.3951 28.2753 50.3864 28.2383 50.3715 28.2034C50.3695 28.1983 50.37 28.1932 50.3679 28.1885C50.3669 28.1855 50.3643 28.1839 50.3633 28.1814C50.3448 28.1444 50.3207 28.1111 50.2904 28.0828C50.2838 28.0757 50.2761 28.071 50.2689 28.0649C50.2581 28.0557 50.2484 28.0449 50.236 28.0377C50.2176 28.0259 50.1976 28.0182 50.1781 28.01C50.1724 28.0079 50.1678 28.0043 50.1622 28.0023C50.1232 27.989 50.0831 27.9833 50.0426 27.9833C50.0344 27.9833 50.0257 27.9843 50.017 27.9848C49.9744 27.9879 49.9328 27.9961 49.8928 28.0146C48.8666 28.4918 47.7809 28.8961 46.6654 29.2168C46.6223 29.2291 46.5838 29.2507 46.5494 29.2768C46.5381 29.2856 46.5299 29.2958 46.5196 29.3061C46.4986 29.3261 46.4801 29.3471 46.4642 29.3712C46.456 29.3846 46.4494 29.3979 46.4432 29.4118C46.4314 29.4364 46.4232 29.4626 46.4175 29.4898C46.4145 29.5057 46.4114 29.5206 46.4098 29.5365C46.4093 29.5452 46.4062 29.5529 46.4062 29.5611V37.5727C46.4062 37.7707 46.5658 37.9308 46.7639 37.9308H50.0436C50.2412 37.9308 50.4013 37.7707 50.4013 37.5727V28.3394C50.4013 28.3368 50.4008 28.3343 50.4002 28.3322C50.4002 28.3261 50.3987 28.3199 50.3982 28.3137ZM49.686 37.214H47.1215V29.8295C47.1769 29.813 47.2308 29.7915 47.2857 29.7751C47.6223 29.6714 47.9558 29.5611 48.2857 29.4426C48.3489 29.42 48.4125 29.3995 48.4756 29.3759C48.8496 29.2384 49.2175 29.0906 49.5808 28.9351C49.6152 28.9202 49.6516 28.9079 49.686 28.893V37.214Z" fill="black"/>
</g>
<mask id="mask4_437_3199" style="mask-type:luminance" maskUnits="userSpaceOnUse" x="40" y="29" width="6" height="9">
<path d="M40.9375 29.6937H45.0464V37.9336H40.9375V29.6937Z" fill="white"/>
</mask>
<g mask="url(#mask4_437_3199)">
<path d="M44.9264 30.0112C44.9233 29.9933 44.913 29.9794 44.9074 29.963C44.9002 29.943 44.894 29.9245 44.8843 29.906C44.8689 29.8783 44.8494 29.8547 44.8273 29.8327C44.8181 29.8229 44.8135 29.8101 44.8032 29.8014C44.7991 29.7978 44.794 29.7978 44.7899 29.7942C44.7632 29.7742 44.7324 29.7608 44.7011 29.749C44.6862 29.7429 44.6734 29.7336 44.6585 29.73C44.6108 29.7188 44.561 29.7157 44.5087 29.7244C43.4322 29.9255 42.3465 30.0487 41.2808 30.0913C41.232 30.0933 41.1864 30.1051 41.1448 30.1241C41.1294 30.1313 41.1181 30.1446 41.1037 30.1539C41.0796 30.1693 41.0545 30.1836 41.0355 30.2036C41.0227 30.217 41.016 30.2349 41.0057 30.2498C40.9903 30.2719 40.9734 30.2929 40.9637 30.3186C40.9565 30.3365 40.9565 30.3571 40.9519 30.376C40.9467 30.4012 40.9375 30.4238 40.9375 30.4499V37.5728C40.9375 37.7709 41.0971 37.931 41.2951 37.931H44.5749C44.7724 37.931 44.9325 37.7709 44.9325 37.5728V30.0769C44.9325 30.0666 44.9269 30.0579 44.9258 30.0476C44.9248 30.0353 44.9289 30.0235 44.9264 30.0112ZM44.2173 37.2142H41.6528V30.7911C41.7005 30.7886 41.7487 30.7824 41.7969 30.7788C42.1566 30.7568 42.5179 30.728 42.8801 30.6885C42.9022 30.6859 42.9242 30.6844 42.9463 30.6818C43.3265 30.6393 43.7077 30.5838 44.088 30.5223C44.1305 30.5151 44.1742 30.5115 44.2173 30.5043V37.2142Z" fill="black"/>
</g>
<mask id="mask5_437_3199" style="mask-type:luminance" maskUnits="userSpaceOnUse" x="40" y="17" width="19" height="11">
<path d="M40.9375 17.1469H58.1819V27.9862H40.9375V17.1469Z" fill="white"/>
</mask>
<g mask="url(#mask5_437_3199)">
<path d="M57.6296 20.2516L58.1047 17.5707C58.1047 17.5702 58.1047 17.5691 58.1047 17.5681C58.1057 17.563 58.1047 17.5573 58.1057 17.5517C58.1098 17.5158 58.1083 17.4799 58.1021 17.4445C58.0996 17.4327 58.0965 17.4209 58.0929 17.409C58.0842 17.3788 58.0713 17.35 58.0549 17.3234C58.0498 17.3141 58.0457 17.3054 58.0395 17.2967C58.0175 17.2664 57.9913 17.2387 57.96 17.2161C57.9569 17.2136 57.9528 17.2125 57.9492 17.2105C57.9466 17.2089 57.9456 17.2064 57.9431 17.2048C57.9369 17.2007 57.9297 17.2007 57.9236 17.1971C57.8933 17.1807 57.862 17.1689 57.8286 17.1612C57.8173 17.1587 57.8071 17.1561 57.7958 17.1546C57.7219 17.1458 57.646 17.1571 57.5782 17.1951L55.2057 18.5256C55.0327 18.6225 54.9717 18.8406 55.0676 19.013C55.1646 19.1854 55.3822 19.248 55.5546 19.151L56.591 18.5697C55.0086 20.7283 53.0209 22.5945 50.7648 24.0122C47.1633 26.2755 43.6111 26.9856 41.2652 27.1837C41.0681 27.2001 40.9219 27.3735 40.9388 27.571C40.9547 27.7573 41.1107 27.8989 41.2949 27.8989C41.3052 27.8989 41.3155 27.8984 41.3257 27.8979C43.7501 27.6932 47.4224 26.9584 51.145 24.6197C53.4519 23.1702 55.4863 21.2666 57.1129 19.0669L56.9251 20.127C56.8907 20.3219 57.0205 20.5077 57.215 20.5421C57.2365 20.5462 57.257 20.5477 57.2781 20.5477C57.4479 20.5477 57.5988 20.4256 57.6296 20.2516Z" fill="black"/>
</g>
</svg>
