<svg width="103" height="131" viewBox="0 0 103 131" fill="none" xmlns="http://www.w3.org/2000/svg">
<path d="M52 70.5641L102.242 48.7198V106.243L52 129.058V70.5641Z" fill="#F1F1F1"/>
<path d="M51.7637 72.0205L2.25 49.2053L51.7637 26.8756L100.792 49.2053L51.7637 72.0205Z" fill="#E6AE00" fill-opacity="0.15"/>
<mask id="mask0_437_3146" style="mask-type:luminance" maskUnits="userSpaceOnUse" x="0" y="24" width="103" height="107">
<path d="M0.0625 24.691H102.942V131H0.0625V24.691Z" fill="white"/>
</mask>
<g mask="url(#mask0_437_3146)">
<path d="M101.93 47.2144L52.2034 24.956C51.7368 24.7482 51.2682 24.7482 50.8016 24.956L1.07712 47.2144C0.767437 47.3509 0.52295 47.5628 0.337547 47.846C0.154183 48.1292 0.0625 48.4389 0.0625 48.7751V106.987C0.0625 107.324 0.154183 107.635 0.337547 107.918C0.52295 108.202 0.767437 108.411 1.07712 108.55L50.8016 130.806C51.2682 131.016 51.7368 131.016 52.2034 130.806L101.93 108.55C102.238 108.411 102.484 108.202 102.667 107.918C102.851 107.635 102.942 107.324 102.942 106.987V48.7751C102.942 48.4389 102.851 48.1292 102.667 47.846C102.484 47.5628 102.238 47.3509 101.93 47.2144ZM49.789 126.601L3.49143 105.879V51.5357L49.789 72.2601V126.601ZM51.5025 69.2732L5.83646 48.8342L51.5025 28.3951L97.1685 48.8342L51.5025 69.2732ZM99.5136 105.879L53.218 126.601V72.2601L99.5136 51.5357V105.879Z" fill="black"/>
</g>
<circle cx="13.2186" cy="13.2186" r="13.2186" transform="matrix(0.956305 0.292372 0 1 12.9141 73.1978)" stroke="#ECB300" stroke-width="0.896176"/>
<path d="M22.4977 92.8979C21.9368 92.7344 21.4495 92.45 21.0357 92.0446C20.624 91.6398 20.3004 91.1319 20.0649 90.5209C19.8316 89.9106 19.7033 89.2201 19.68 88.4496C19.6546 87.6808 19.7405 87.0565 19.9378 86.5767C20.1372 86.0976 20.4333 85.7746 20.8261 85.608C21.221 85.4396 21.6977 85.4357 22.2563 85.5963C22.8149 85.7569 23.3 86.0373 23.7115 86.4374C24.1252 86.8383 24.4497 87.3407 24.6849 87.9448C24.9201 88.5466 25.0493 89.2317 25.0726 89.9999C25.0981 90.7733 25.0113 91.403 24.8121 91.889C24.615 92.3757 24.3202 92.7058 23.9277 92.8794C23.5351 93.053 23.0585 93.0592 22.4977 92.8979ZM22.4568 91.6621C22.8394 91.772 23.1381 91.6567 23.3529 91.3161C23.5677 90.9755 23.6605 90.3987 23.6315 89.5856C23.6138 89.0508 23.5469 88.5906 23.4309 88.2049C23.3169 87.8198 23.1625 87.5106 22.9675 87.2772C22.7746 87.0444 22.551 86.8915 22.2967 86.8184C21.9164 86.709 21.6187 86.8224 21.4037 87.1584C21.1888 87.4944 21.0935 88.0626 21.1178 88.863C21.1357 89.4046 21.2017 89.8714 21.3159 90.2634C21.4321 90.6537 21.5878 90.9667 21.7829 91.2023C21.9779 91.4357 22.2025 91.589 22.4568 91.6621ZM26.0535 92.5392L26.0147 91.3653L28.649 87.5295L29.6075 87.8051L29.6612 89.43L29.0939 89.2669L27.4337 91.6982L27.4355 91.7533L31.3968 92.892L31.4363 94.0866L26.0535 92.5392ZM29.2994 94.6998L29.2466 93.1025L29.2555 92.5902L29.0924 87.657L30.4161 88.0375L30.6491 95.0879L29.2994 94.6998Z" fill="#ECB300"/>
<circle cx="50.8174" cy="27.4346" r="27.4346" fill="#E6AE00"/>
<mask id="mask1_437_3146" style="mask-type:luminance" maskUnits="userSpaceOnUse" x="40" y="14" width="22" height="26">
<path d="M40.5234 14.4033H61.742V39.7802H40.5234V14.4033Z" fill="white"/>
</mask>
<g mask="url(#mask1_437_3146)">
<path d="M53.1271 30.8097C53.1271 31.324 52.8178 31.766 52.3757 31.9615V32.4447C52.3757 32.6624 52.1991 32.839 51.9814 32.839C51.7637 32.839 51.5871 32.6624 51.5871 32.4447V32.0642C51.3128 32.0454 51.0512 31.9382 50.8424 31.7544C50.6791 31.61 50.663 31.3606 50.8074 31.1974C50.9513 31.0341 51.2006 31.0185 51.3639 31.1624C51.425 31.2157 51.5272 31.2795 51.671 31.2795H51.8709C52.1286 31.2795 52.3385 31.0691 52.3385 30.8103C52.3385 30.5637 52.138 30.3538 51.892 30.3427C51.8726 30.3416 51.8531 30.3388 51.8343 30.3349C51.1967 30.2688 50.7086 29.7351 50.7086 29.0848C50.7086 28.5228 51.0784 28.0463 51.5871 27.8853V27.451C51.5871 27.2328 51.7637 27.0562 51.9814 27.0562C52.1991 27.0562 52.3757 27.2333 52.3757 27.451V27.8459C52.6051 27.8847 52.8194 27.9864 52.9949 28.1424C53.1576 28.2868 53.1726 28.5367 53.0271 28.7C52.8827 28.8627 52.6328 28.8777 52.4701 28.7322C52.3863 28.6578 52.2774 28.6161 52.1641 28.6161H51.9642C51.7065 28.6161 51.4966 28.8266 51.4966 29.0854C51.4966 29.3336 51.6982 29.5435 51.9459 29.553C51.9681 29.5535 51.9898 29.5569 52.0109 29.5613C52.6434 29.6313 53.1271 30.1644 53.1271 30.8097ZM59.287 23.4531C59.1426 23.2893 58.8932 23.2743 58.73 23.4181C58.5667 23.5625 58.5517 23.8118 58.6955 23.9751C60.15 25.6228 60.9519 27.7437 60.9519 29.9462C60.9519 34.9276 56.8995 38.981 51.9192 38.981C47.2521 38.981 43.3808 35.438 42.9299 30.8408L44.0195 31.7727C44.185 31.9143 44.4343 31.8943 44.5759 31.7294C44.7175 31.5633 44.6981 31.3145 44.5326 31.1729L42.7461 29.6463C42.6667 29.5785 42.5645 29.5452 42.459 29.553C42.3551 29.5619 42.2579 29.6107 42.1902 29.6907L40.6652 31.4761C40.523 31.6416 40.543 31.8904 40.7091 32.032C40.7835 32.0959 40.874 32.127 40.9651 32.127C41.0767 32.127 41.1872 32.0804 41.265 31.9887L42.1474 30.9558C42.6539 35.9361 46.8562 39.7707 51.9181 39.7707C57.3338 39.7707 61.7399 35.3635 61.7399 29.9467C61.7405 27.551 60.8686 25.2452 59.287 23.4531ZM42.4578 24.4472V17.6775C42.4578 17.1905 42.8544 16.7945 43.3419 16.7945H46.0287C46.5163 16.7945 46.9128 17.1905 46.9128 17.6775V17.8436H47.6192C48.1151 17.8436 48.5333 17.7103 48.9343 17.4221L49.1403 17.2749C49.2297 17.2105 49.3191 17.1538 49.4096 17.1016L49.2075 16.0365C49.1681 15.8249 49.0492 15.1851 49.5296 14.7553C49.8633 14.4532 50.3454 14.4132 50.7258 14.6565L50.9452 14.7959C51.0173 14.8425 51.0912 14.8425 51.1617 14.797L51.3855 14.6542C51.7137 14.4438 52.123 14.4438 52.4529 14.6553L52.6734 14.7959C52.7456 14.8425 52.82 14.8419 52.8905 14.797L53.1115 14.6565C53.4931 14.4127 53.9751 14.4532 54.3094 14.7575C54.6282 15.0424 54.7359 15.4734 54.6287 16.037L54.5205 16.6113H55.4545C56.2354 16.6113 56.8701 17.2466 56.8701 18.0274C56.8701 18.3128 56.7851 18.5783 56.6391 18.801C57.105 19.0331 57.4255 19.514 57.4255 20.0688C57.4255 20.6242 57.105 21.1051 56.6391 21.3372C56.7851 21.5599 56.8701 21.8254 56.8701 22.1108C56.8701 22.6245 56.5952 23.0755 56.1848 23.3237C56.3548 23.5569 56.4547 23.8441 56.4547 24.1539C56.4547 24.5199 56.3148 24.8542 56.0849 25.1064C56.3536 25.3862 56.6141 25.6722 56.8601 25.9849C57.9075 27.3094 58.4612 28.7961 58.4612 30.2838C58.4612 33.7064 55.5262 36.4914 51.9187 36.4914C48.3106 36.4914 45.3751 33.7064 45.3751 30.2838C45.3751 28.4734 46.2003 26.6602 47.6986 25.1785C47.8014 25.0775 47.9035 24.9775 48.0046 24.8787C48.1018 24.7843 48.1968 24.691 48.2901 24.5993C48.1318 24.5638 47.968 24.546 47.7902 24.546H46.9073C46.8584 24.9864 46.483 25.3307 46.0287 25.3307H43.3419C42.8544 25.3302 42.4578 24.9342 42.4578 24.4472ZM56.2398 26.4736C55.9771 26.1393 55.6895 25.8305 55.3918 25.524C55.2785 25.5528 55.1608 25.5684 55.0386 25.5684H53.0643C52.2835 25.5684 51.6482 24.9331 51.6482 24.1534C51.6482 23.6397 51.9231 23.1888 52.3341 22.9405C52.1641 22.7073 52.0642 22.4202 52.0642 22.1103C52.0642 22.0897 52.0647 22.0692 52.0653 22.0486H50.7786C50.5703 23.1682 49.9833 23.9701 49.2852 24.7104C49.2836 24.7115 49.2825 24.7132 49.2813 24.7143C49.0481 24.9603 48.8032 25.1996 48.555 25.4418C48.455 25.5395 48.3539 25.6384 48.2529 25.7383C46.905 27.07 46.1631 28.6844 46.1631 30.2822C46.1631 33.2699 48.7449 35.7006 51.9176 35.7006C55.0902 35.7006 57.6709 33.2699 57.6709 30.2822C57.6715 28.9754 57.1761 27.6576 56.2398 26.4736ZM52.4374 24.1534C52.4374 24.4983 52.7189 24.7787 53.0643 24.7787H55.0386C55.384 24.7787 55.6656 24.4983 55.6656 24.1534C55.6656 23.808 55.384 23.5264 55.0386 23.5264H53.0643C52.7189 23.5264 52.4374 23.808 52.4374 24.1534ZM53.4797 22.7373H55.4545C55.8 22.7373 56.081 22.4557 56.081 22.1103C56.081 21.7654 55.8 21.485 55.4545 21.485H53.9634C53.7546 21.5388 53.5408 21.5438 53.3348 21.5016C53.0566 21.5677 52.8539 21.8193 52.8539 22.1103C52.8533 22.4563 53.1343 22.7373 53.4797 22.7373ZM52.5479 21.0468C52.4057 20.8857 52.3013 20.693 52.2441 20.4803L51.9181 19.2608L51.0729 19.4874C51.0657 19.8467 50.9774 20.1855 50.8252 20.4876C50.853 20.7597 50.8646 21.0168 50.8591 21.2595H52.3502C52.4085 21.1829 52.4746 21.1112 52.5479 21.0468ZM56.0093 19.4424H54.8975L54.9797 19.7473C55.0675 20.0755 55.0319 20.4081 54.902 20.6958H56.0099C56.3553 20.6958 56.6369 20.4148 56.6369 20.0688C56.6363 19.7234 56.3548 19.4424 56.0093 19.4424ZM54.3716 17.4004L54.3627 17.4471L54.6859 18.6527H55.4545C55.8 18.6527 56.081 18.3723 56.081 18.0274C56.081 17.682 55.8 17.4004 55.4545 17.4004H54.3716ZM49.9827 15.8915L50.1555 16.8029L52.4457 16.1881C52.8389 16.0831 53.2498 16.1376 53.6036 16.3419C53.6547 16.3714 53.703 16.4041 53.7502 16.4391L53.8535 15.8899C53.9318 15.4789 53.8218 15.3806 53.7813 15.3434C53.7091 15.2779 53.6164 15.2707 53.5364 15.3218L53.3159 15.4623C52.9877 15.6733 52.5784 15.6733 52.2485 15.4612L52.0281 15.3207C51.9553 15.2746 51.8815 15.2746 51.8109 15.3195L51.5866 15.4623C51.2589 15.6733 50.8491 15.6727 50.5198 15.4606L50.3015 15.3218C50.221 15.2707 50.1277 15.2784 50.0577 15.3423C50.0144 15.3806 49.9056 15.4778 49.9827 15.8915ZM46.9128 18.6338V23.7563H47.7897C48.1879 23.7563 48.5477 23.8235 48.9004 23.9646C49.4963 23.2976 49.9339 22.599 50.0438 21.6238C50.0449 21.6144 50.0455 21.6044 50.0472 21.5944C50.0549 21.5183 50.061 21.4405 50.0649 21.3611C49.6884 21.6216 49.2325 21.7748 48.741 21.7748C48.5233 21.7748 48.3467 21.5982 48.3467 21.3806C48.3467 21.1629 48.5233 20.9863 48.741 20.9863C49.5923 20.9863 50.2849 20.2932 50.2849 19.4419V19.1853C50.2849 19.007 50.4048 18.851 50.577 18.8043L52.0953 18.3973C52.1963 18.37 52.3041 18.3845 52.3946 18.4367C52.4857 18.4889 52.5518 18.5755 52.579 18.6766L53.0066 20.2776C53.0493 20.4376 53.1538 20.5725 53.2993 20.6564C53.4448 20.7402 53.613 20.763 53.7735 20.7203C54.1078 20.6308 54.3061 20.2865 54.2167 19.9528L53.5525 17.4737C53.4475 17.0805 53.0427 16.8473 52.6501 16.9517L50.3293 17.5742C50.0499 17.6492 49.8311 17.7525 49.5996 17.9185L49.3935 18.0657C48.8604 18.4478 48.2795 18.6344 47.6198 18.6344H46.9128V18.6338ZM43.247 24.4472C43.247 24.4971 43.2914 24.541 43.3419 24.541H46.0287C46.0792 24.541 46.1237 24.4971 46.1237 24.4472V17.6775C46.1237 17.6275 46.0792 17.5837 46.0287 17.5837H43.3419C43.2914 17.5837 43.247 17.6275 43.247 17.6775V24.4472Z" fill="black"/>
</g>
</svg>
