<svg width="48" height="44" viewBox="0 0 48 44" fill="none" xmlns="http://www.w3.org/2000/svg">
<path d="M35.7186 39.2705C35.0873 39.763 34.405 40.2213 33.6926 40.6287C33.5022 40.7375 33.4345 40.9823 33.5462 41.1721C33.6174 41.3018 33.7534 41.3729 33.8928 41.3729C33.9571 41.3729 34.0248 41.3556 34.0896 41.3185C34.8326 40.8903 35.5462 40.4152 36.2076 39.8955C36.3813 39.763 36.4114 39.5118 36.2759 39.3382C36.1399 39.1652 35.8923 39.1345 35.7186 39.2705Z" fill="#181A20"/>
<path d="M31.258 41.7914C30.4333 42.1172 29.5641 42.3857 28.6816 42.5963C28.4675 42.6438 28.335 42.8614 28.3859 43.0749C28.4305 43.2584 28.5931 43.3811 28.773 43.3811C28.8037 43.3811 28.8344 43.3776 28.8645 43.3707C29.7846 43.1531 30.688 42.8712 31.5502 42.5315C31.7539 42.4534 31.8558 42.2225 31.7742 42.0188C31.6961 41.8116 31.4617 41.7132 31.258 41.7914Z" fill="#181A20"/>
<path d="M23.6016 24.9907C23.6016 25.2112 23.7786 25.3877 23.9991 25.3877C24.2161 25.3877 24.3967 25.2112 24.3967 24.9907V22.338C24.3967 22.1169 24.2161 21.9375 23.9991 21.9375C23.7786 21.9375 23.6016 22.1169 23.6016 22.338V24.9907Z" fill="#181A20"/>
<path d="M23.6016 19.6826C23.6016 19.9036 23.7786 20.0802 23.9991 20.0802C24.2161 20.0802 24.3967 19.9036 24.3967 19.6826V17.0298C24.3967 16.8087 24.2161 16.6328 23.9991 16.6328C23.7786 16.6328 23.6016 16.8087 23.6016 17.0298V19.6826Z" fill="#181A20"/>
<path d="M23.6016 14.3765C23.6016 14.5941 23.7786 14.7741 23.9991 14.7741C24.2161 14.7741 24.3967 14.5941 24.3967 14.3765V11.7202C24.3967 11.5032 24.2161 11.3232 23.9991 11.3232C23.7786 11.3232 23.6016 11.5032 23.6016 11.7202V14.3765Z" fill="#181A20"/>
<path d="M23.9991 9.46546C24.2161 9.46546 24.3967 9.28895 24.3967 9.06847V6.41511C24.3967 6.19463 24.2161 6.01465 23.9991 6.01465C23.7786 6.01465 23.6016 6.19463 23.6016 6.41511V9.06847C23.6016 9.28895 23.7786 9.46546 23.9991 9.46546Z" fill="#181A20"/>
<path d="M24.3681 30.3711C24.4294 30.1604 24.6429 30.0349 24.8605 30.0962C26.7008 30.6089 28.1233 32.0864 28.5712 33.9446C28.6221 34.1581 28.4896 34.3723 28.2755 34.4232C28.2454 34.4301 28.2147 34.433 28.184 34.433C28.0041 34.433 27.8409 34.3109 27.7975 34.1315C27.4172 32.5516 26.2083 31.2988 24.647 30.8601C24.4329 30.8028 24.3108 30.5817 24.3681 30.3711ZM23.6042 27.6876C19.9178 27.8954 16.9844 30.9585 16.9844 34.6952C16.9844 38.5673 20.1314 41.716 24.0017 41.716C27.8686 41.716 31.0156 38.5673 31.0156 34.6952C31.0156 30.9585 28.0822 27.8954 24.3993 27.6876V27.6437C24.3993 27.4261 24.2188 27.2461 24.0017 27.2461C23.7812 27.2461 23.6042 27.4261 23.6042 27.6437V27.6876Z" fill="#181A20"/>
<mask id="mask0_405_3732" style="mask-type:luminance" maskUnits="userSpaceOnUse" x="22" y="42" width="5" height="2">
<path d="M22.8984 42.915H26.6021V43.9307H22.8984V42.915Z" fill="white"/>
</mask>
<g mask="url(#mask0_405_3732)">
<path d="M26.0199 43.0375C25.1304 43.1225 24.2103 43.1526 23.3173 43.1225C23.083 43.1121 22.9134 43.2851 22.9065 43.5062C22.8995 43.7267 23.0696 43.9101 23.2901 43.9171C23.528 43.9275 23.7658 43.9304 24.0066 43.9304C24.7062 43.9304 25.4082 43.8968 26.0974 43.8285C26.315 43.8083 26.4747 43.6109 26.4545 43.3939C26.4337 43.1769 26.2404 43.0137 26.0199 43.0375Z" fill="#181A20"/>
</g>
<path d="M20.6267 42.8572C19.7372 42.7073 18.8512 42.4966 18.0023 42.2322C17.7887 42.1639 17.5677 42.2831 17.5034 42.4937C17.4357 42.7038 17.5544 42.9249 17.765 42.9932C18.651 43.268 19.5706 43.4891 20.4976 43.6413C20.5179 43.6448 20.5416 43.6483 20.5625 43.6483C20.7523 43.6483 20.9218 43.5094 20.956 43.3155C20.9895 43.0985 20.8437 42.8942 20.6267 42.8572Z" fill="#181A20"/>
<path d="M15.4885 41.2471C14.6731 40.8559 13.8861 40.4045 13.1523 39.9022C12.9694 39.7795 12.7246 39.827 12.599 40.007C12.4769 40.1904 12.5244 40.4352 12.7044 40.5608C13.4717 41.0839 14.2929 41.5556 15.1453 41.9636C15.2026 41.9908 15.2605 42.0041 15.3184 42.0041C15.4642 42.0041 15.6071 41.9196 15.6749 41.7766C15.7698 41.5799 15.6887 41.3386 15.4885 41.2471Z" fill="#181A20"/>
<path d="M6.61835 28.503V28.9278C5.22656 29.036 4.13281 29.9191 4.13281 30.9891C4.13281 32.1512 5.35156 33.0609 6.90712 33.0609H7.12413C8.19705 33.0609 9.10677 33.6454 9.10677 34.3381C9.10677 34.9666 8.35619 35.5065 7.41291 35.5985V34.433C7.41291 34.216 7.23582 34.036 7.01534 34.036C6.79832 34.036 6.61835 34.216 6.61835 34.433V35.5713C5.78328 35.422 5.14497 34.9191 5.14497 34.3381C5.14497 34.1176 4.96788 33.9411 4.7474 33.9411C4.52691 33.9411 4.35041 34.1176 4.35041 34.3381C4.35041 35.3711 5.31105 36.2062 6.61835 36.3798V36.6819C6.61835 36.8995 6.79832 37.0794 7.01534 37.0794C7.23582 37.0794 7.41291 36.8995 7.41291 36.6819V36.4C8.83189 36.2947 9.90075 35.4284 9.90075 34.3381C9.90075 33.1766 8.682 32.2663 7.12413 32.2663H6.90712C5.8371 32.2663 4.93085 31.6824 4.93085 30.9891C4.93085 30.3607 5.67795 29.8207 6.61835 29.7293V30.466C6.61835 30.6871 6.79832 30.8636 7.01534 30.8636C7.23582 30.8636 7.41291 30.6871 7.41291 30.466V29.7565C8.25145 29.9058 8.88918 30.4087 8.88918 30.9891C8.88918 31.2067 9.06626 31.3867 9.28675 31.3867C9.50723 31.3867 9.68374 31.2067 9.68374 30.9891C9.68374 29.9567 8.71962 29.1211 7.41291 28.9481V28.503C7.41291 28.282 7.23582 28.1055 7.01534 28.1055C6.79832 28.1055 6.61835 28.282 6.61835 28.503Z" fill="#181A20"/>
<mask id="mask1_405_3732" style="mask-type:luminance" maskUnits="userSpaceOnUse" x="0" y="0" width="48" height="40">
<path d="M0 0.708984H48V39.6563H0V0.708984Z" fill="white"/>
</mask>
<g mask="url(#mask1_405_3732)">
<path d="M45.2598 32.2807C45.2297 32.2871 45.1991 32.2906 45.1684 32.2906C44.9884 32.2906 44.8252 32.1685 44.7818 31.985C44.4016 30.4057 43.1927 29.1557 41.6314 28.7171C41.4172 28.6563 41.2951 28.4387 41.3524 28.2252C41.4138 28.014 41.6273 27.8919 41.8449 27.9497C43.6852 28.4659 45.1076 29.9405 45.5556 31.7981C45.6065 32.0116 45.474 32.2292 45.2598 32.2807ZM13.2367 32.5932C13.2367 34.8178 12.0654 36.7709 10.3073 37.871C10.2934 37.878 10.2795 37.8884 10.2662 37.8982C9.31887 38.4792 8.20544 38.8155 7.01736 38.8155C3.58507 38.8155 0.79456 36.0232 0.79456 32.5932C0.79456 29.1592 3.58507 26.3704 7.01736 26.3704C10.4462 26.3704 13.2367 29.1592 13.2367 32.5932ZM41.2002 25.5383L24.3275 0.882017C24.3275 0.878544 24.3212 0.875651 24.3212 0.872179C24.3038 0.851924 24.2905 0.834563 24.2731 0.817781C24.2633 0.810836 24.2564 0.803892 24.2494 0.797526C24.2326 0.783637 24.2159 0.77322 24.1985 0.763383C24.1916 0.75991 24.1817 0.752966 24.1748 0.749494C24.1545 0.739656 24.1343 0.732711 24.1134 0.726345C24.1071 0.726345 24.1001 0.722873 24.0903 0.719401C24.0625 0.712457 24.0324 0.708984 24.0017 0.708984C23.9711 0.708984 23.941 0.712457 23.9103 0.719401C23.9034 0.722873 23.8929 0.726345 23.8866 0.726345C23.8657 0.732711 23.8455 0.739656 23.8287 0.749494C23.8183 0.752966 23.8084 0.75991 23.8015 0.763383C23.7841 0.77322 23.7674 0.783637 23.7541 0.797526C23.7471 0.803892 23.7373 0.810836 23.7297 0.817781C23.713 0.834563 23.6962 0.851924 23.6829 0.868707C23.6788 0.875651 23.6759 0.875651 23.6725 0.882017L6.80324 25.5788C3.03183 25.691 0 28.7917 0 32.5932C0 36.4619 3.14699 39.61 7.01736 39.61C8.25984 39.61 9.42766 39.2842 10.4392 38.7171C10.6157 38.8872 10.7957 39.0568 10.9826 39.22C11.0573 39.2877 11.1522 39.3184 11.2436 39.3184C11.3559 39.3184 11.4647 39.2744 11.5428 39.1858C11.6887 39.0192 11.6719 38.768 11.5087 38.6222C11.3796 38.5099 11.2541 38.3942 11.1285 38.2755C12.8872 36.9983 14.0312 34.9266 14.0312 32.5932C14.0312 28.9688 11.2714 25.9763 7.74363 25.6094L23.6042 2.39359V3.75933C23.6042 3.9804 23.7812 4.15632 24.0017 4.15632C24.2188 4.15632 24.3993 3.9804 24.3993 3.75933V2.39359L40.2564 25.5689C36.7292 25.9358 33.9688 28.9283 33.9688 32.5522C33.9688 34.8959 35.1267 36.9746 36.8987 38.2518C36.7731 38.3675 36.6476 38.4862 36.5185 38.5979C36.3553 38.7478 36.342 38.9989 36.4884 39.1621C36.566 39.2507 36.6748 39.2946 36.7836 39.2946C36.8779 39.2946 36.9734 39.2605 37.048 39.1963C37.235 39.0296 37.4115 38.8594 37.5874 38.6899C38.5961 39.2507 39.7535 39.5695 40.9861 39.5695C44.8565 39.5695 48 36.4208 48 32.5522C48 28.7512 44.9682 25.65 41.2002 25.5383Z" fill="#181A20"/>
</g>
</svg>
