<svg width="45" height="32" viewBox="0 0 45 32" fill="none" xmlns="http://www.w3.org/2000/svg">
<mask id="mask0_405_3793" style="mask-type:luminance" maskUnits="userSpaceOnUse" x="10" y="24" width="5" height="8">
<path d="M10.6406 24.1582H14.7362V31.9675H10.6406V24.1582Z" fill="white"/>
</mask>
<g mask="url(#mask0_405_3793)">
<path d="M14.7132 31.9624H10.6875V24.2305H14.7132V31.9624Z" fill="#181A20"/>
</g>
<path d="M3.56084 15.9494C3.14222 16.9365 3.60297 18.0751 4.59059 18.4937C5.57822 18.9118 6.71835 18.4521 7.13751 17.465C7.55666 16.4779 7.09538 15.3394 6.10776 14.9213C5.12013 14.5027 3.97946 14.9629 3.56084 15.9494Z" fill="#B7B7B7"/>
<path d="M10.9123 20.3812C10.4937 21.3672 10.955 22.5068 11.9421 22.9254C12.9302 23.3435 14.0704 22.8827 14.4895 21.8962C14.9081 20.9091 14.4469 19.7706 13.4592 19.3519C12.4716 18.9333 11.3315 19.3935 10.9123 20.3812Z" fill="#B7B7B7"/>
<path d="M18.2719 13.2637C17.8528 14.2503 18.3146 15.3894 19.3022 15.808C20.2898 16.2266 21.43 15.7653 21.8491 14.7793C22.2683 13.7917 21.8065 12.6531 20.8188 12.2345C19.8312 11.8164 18.6911 12.2761 18.2719 13.2637Z" fill="#B7B7B7"/>
<path d="M25.6237 15.111C25.2045 16.0986 25.6652 17.2371 26.6529 17.6557C27.6416 18.0744 28.7817 17.6136 29.2003 16.6265C29.6189 15.64 29.1582 14.5009 28.17 14.0823C27.1824 13.6636 26.0423 14.1249 25.6237 15.111Z" fill="#B7B7B7"/>
<path d="M32.7014 3.45966C32.2828 4.44622 32.744 5.58582 33.7317 6.00391C34.7193 6.42253 35.8594 5.96178 36.2786 4.97522C36.6977 3.98867 36.2359 2.8496 35.2488 2.43098C34.2612 2.01236 33.1205 2.4731 32.7014 3.45966Z" fill="#B7B7B7"/>
<mask id="mask1_405_3793" style="mask-type:luminance" maskUnits="userSpaceOnUse" x="3" y="20" width="5" height="12">
<path d="M3.27344 20.0625H7.36898V31.9673H3.27344V20.0625Z" fill="white"/>
</mask>
<g mask="url(#mask1_405_3793)">
<path d="M7.36109 31.9624H3.33594V20.1504H7.36109V31.9624Z" fill="#181A20"/>
</g>
<mask id="mask2_405_3793" style="mask-type:luminance" maskUnits="userSpaceOnUse" x="18" y="16" width="5" height="16">
<path d="M18.0156 16.6494H22.1112V31.9672H18.0156V16.6494Z" fill="white"/>
</mask>
<g mask="url(#mask2_405_3793)">
<path d="M22.072 31.9619H18.0469V16.707H22.072V31.9619Z" fill="#181A20"/>
</g>
<mask id="mask3_405_3793" style="mask-type:luminance" maskUnits="userSpaceOnUse" x="25" y="20" width="5" height="12">
<path d="M25.3906 20.0625H29.4862V31.9673H25.3906V20.0625Z" fill="white"/>
</mask>
<g mask="url(#mask3_405_3793)">
<path d="M29.4319 31.9624H25.4062V20.1504H29.4319V31.9624Z" fill="#181A20"/>
</g>
<mask id="mask4_405_3793" style="mask-type:luminance" maskUnits="userSpaceOnUse" x="32" y="8" width="5" height="24">
<path d="M32.7578 8.45898H36.8534V31.9678H32.7578V8.45898Z" fill="white"/>
</mask>
<g mask="url(#mask4_405_3793)">
<path d="M36.8449 31.9623H32.8203V8.49023H36.8449V31.9623Z" fill="#181A20"/>
</g>
<mask id="mask5_405_3793" style="mask-type:luminance" maskUnits="userSpaceOnUse" x="40" y="2" width="5" height="30">
<path d="M40.1328 2.45215H44.2284V31.9678H40.1328V2.45215Z" fill="white"/>
</mask>
<g mask="url(#mask5_405_3793)">
<path d="M44.2054 31.9621H40.1797V2.55371H44.2054V31.9621Z" fill="#181A20"/>
</g>
<mask id="mask6_405_3793" style="mask-type:luminance" maskUnits="userSpaceOnUse" x="0" y="1" width="39" height="21">
<path d="M0 1.36035H38.7674V21.9746H0V1.36035Z" fill="white"/>
</mask>
<g mask="url(#mask6_405_3793)">
<path d="M38.2218 1.4707L33.8772 3.42835L27.1559 15.1822L19.8879 12.5964L12.8908 20.4232L5.31884 16.0435L0.0234375 19.6681V21.0312L5.3695 17.3719L13.1201 21.8546L20.2228 13.9093L27.6657 16.557L34.6729 4.30292L38.6847 2.49619L38.2218 1.4707Z" fill="#B7B7B7"/>
</g>
<mask id="mask7_405_3793" style="mask-type:luminance" maskUnits="userSpaceOnUse" x="36" y="0" width="4" height="5">
<path d="M36.5781 0.636719H39.8546V4.36323H36.5781V0.636719Z" fill="white"/>
</mask>
<g mask="url(#mask7_405_3793)">
<path d="M37.8286 4.23161L38.2035 2.09052L36.6016 0.629883L39.8177 1.54498L37.8286 4.23161Z" fill="#B7B7B7"/>
</g>
</svg>
