<svg width="44" height="42" viewBox="0 0 44 42" fill="none" xmlns="http://www.w3.org/2000/svg">
<mask id="mask0_405_3758" style="mask-type:luminance" maskUnits="userSpaceOnUse" x="0" y="0" width="44" height="42">
<path d="M0 0H43.4921V41.0254H0V0Z" fill="white"/>
</mask>
<g mask="url(#mask0_405_3758)">
<path d="M42.8118 37.2707H41.1119V15.3258C41.1119 14.9492 40.8076 14.6456 40.433 14.6456H35.9594C35.5834 14.6456 35.2805 14.9505 35.2805 15.3258V37.2707H32.8868V19.0083C32.8868 18.6324 32.5825 18.3281 32.2079 18.3281H27.7336C27.3584 18.3281 27.0554 18.633 27.0554 19.0083V37.2713H24.6617V22.6901C24.6617 22.3142 24.3575 22.0099 23.9828 22.0099H19.5085C19.1333 22.0099 18.8297 22.3149 18.8297 22.6901V37.2707H16.4346V19.0083C16.4346 18.6324 16.1303 18.3281 15.7557 18.3281H11.2841C10.9095 18.3281 10.6052 18.633 10.6052 19.0083V37.2713H8.20818V26.3726C8.20818 25.9967 7.9039 25.6931 7.52929 25.6931H3.05702C2.68242 25.6931 2.37881 25.9973 2.37881 26.3726V37.2707H0.678887C0.303606 37.2707 0 37.5749 0 37.9502V40.3392C0 40.7158 0.304282 41.0194 0.678887 41.0194H42.8118C43.1871 41.0194 43.4907 40.7145 43.4907 40.3392V37.9502C43.4914 37.5749 43.1871 37.2707 42.8118 37.2707ZM36.6376 16.0061H39.7535V37.2707H36.6376V16.0061ZM28.4125 19.6886H31.5284V37.2707H28.4125V19.6886ZM20.1874 23.3711H23.3033V37.2707H20.1874V23.3711ZM11.9623 19.6886H15.0755V37.2707H11.9623V19.6886ZM3.73659 27.0529H6.84973V37.2707H3.73659V27.0529ZM42.1329 39.6589H1.35777V38.6305H42.1329V39.6589ZM13.527 13.4271L21.4749 16.9859L38.6378 9.30375L37.5471 8.89736C37.1948 8.76618 37.0156 8.37467 37.1468 8.02238C37.2773 7.67009 37.6681 7.49023 38.0197 7.6214L40.6683 8.60795C41.0199 8.73913 41.1991 9.13064 41.0686 9.48294L40.0841 12.1376C39.982 12.4115 39.723 12.5812 39.4478 12.5812C39.3687 12.5812 39.2889 12.5677 39.2112 12.5386C38.8589 12.4074 38.6797 12.0159 38.8109 11.6636L39.2321 10.5276L21.7514 18.3517C21.5756 18.4315 21.3735 18.4315 21.1977 18.3517L13.3729 14.8491L3.51006 23.6828C3.38091 23.7984 3.21863 23.8559 3.05837 23.8559C2.87107 23.8559 2.6858 23.7788 2.55191 23.6287C2.3024 23.3481 2.32607 22.9173 2.60601 22.6671L12.7988 13.5407C12.9976 13.3635 13.2829 13.3182 13.527 13.4271ZM3.05702 10.9536H12.6237C12.9983 10.9536 13.3025 10.6487 13.3025 10.2734V0.685123C13.3025 0.309165 12.9983 0.00488281 12.6237 0.00488281H3.05702C2.68174 0.00488281 2.37881 0.309841 2.37881 0.685123V10.2727C2.37881 10.6487 2.68242 10.9536 3.05702 10.9536ZM7.04041 1.36604H8.63891V3.65627L8.17032 3.39391C7.96476 3.27896 7.71457 3.27896 7.50901 3.39391L7.04041 3.65627V1.36604ZM3.73659 1.36604H5.68196V4.81457C5.68196 5.05597 5.80976 5.27978 6.01667 5.4015C6.22426 5.52389 6.48054 5.52659 6.6915 5.40893L7.83966 4.76791L8.98714 5.40893C9.08992 5.46573 9.2042 5.49481 9.3178 5.49481C9.43681 5.49481 9.55581 5.46371 9.66197 5.4015C9.86889 5.27843 9.99669 5.05597 9.99669 4.81457V1.36604H11.9441V9.59248H3.73659V1.36604ZM28.2421 10.9536C31.2532 10.9536 33.703 8.49841 33.703 5.48061C33.703 2.46145 31.2532 0.00488281 28.2421 0.00488281C25.2297 0.00488281 22.7779 2.46078 22.7779 5.48061C22.7779 8.49774 25.2291 10.9536 28.2421 10.9536ZM28.2421 1.36604C30.504 1.36604 32.3445 3.21202 32.3445 5.48061C32.3445 7.74717 30.504 9.59248 28.2421 9.59248C25.9783 9.59248 24.1363 7.74717 24.1363 5.48061C24.1363 3.21202 25.9783 1.36604 28.2421 1.36604ZM26.5976 4.5299C26.5976 3.86724 26.9946 3.29789 27.5632 3.04297V2.72922C27.5632 2.35259 27.8675 2.04898 28.2421 2.04898C28.6167 2.04898 28.9203 2.35394 28.9203 2.72922V2.97332C29.2476 3.07543 29.5417 3.27964 29.7493 3.5616C29.9732 3.86318 29.9103 4.28985 29.6094 4.51367C29.3078 4.73749 28.8831 4.6746 28.66 4.37302C28.635 4.33989 28.5647 4.26145 28.4443 4.26145H28.2245C28.0785 4.26145 27.9554 4.38384 27.9554 4.5299C27.9554 4.67866 28.0765 4.79969 28.2245 4.79969H28.3334C28.3861 4.79969 28.4362 4.80646 28.4855 4.81728C29.2747 4.92884 29.8839 5.60706 29.8839 6.42862C29.8839 7.09128 29.487 7.66265 28.9203 7.9169V8.22862C28.9203 8.60457 28.6167 8.90886 28.2421 8.90886C27.8675 8.90886 27.5632 8.6039 27.5632 8.22862V7.98654C27.2353 7.88444 26.9411 7.67956 26.7315 7.39691C26.5084 7.09533 26.5713 6.66866 26.8715 6.44485C27.1724 6.22103 27.5977 6.28392 27.8215 6.58549C27.8466 6.6193 27.9189 6.69842 28.0399 6.69842H28.259C28.4044 6.69842 28.5261 6.57535 28.5261 6.42862C28.5261 6.28324 28.4044 6.16085 28.259 6.16085H28.1475C28.094 6.16085 28.042 6.15409 27.9919 6.14192C27.2049 6.02899 26.5976 5.34943 26.5976 4.5299ZM14.5846 4.01532C14.5846 3.63936 14.8882 3.33508 15.2628 3.33508H19.1792L18.7249 2.88001C18.4598 2.61427 18.4598 2.18354 18.7249 1.9178C18.9899 1.65206 19.4193 1.65206 19.6844 1.9178L21.2977 3.53456C21.4918 3.7293 21.5499 4.02141 21.4445 4.27565C21.339 4.53057 21.0922 4.69624 20.817 4.69624H15.2614C14.8882 4.69556 14.5846 4.3906 14.5846 4.01532ZM20.8183 7.62343H16.9025L17.3569 8.0785C17.622 8.34424 17.622 8.77497 17.3569 9.04071C17.2244 9.17324 17.0506 9.23951 16.8768 9.23951C16.7037 9.23951 16.5293 9.17324 16.3968 9.04071L14.7841 7.42396C14.5893 7.22922 14.5318 6.93711 14.6373 6.68219C14.7421 6.42794 14.9896 6.26228 15.2648 6.26228H20.8203C21.1956 6.26228 21.4992 6.56656 21.4992 6.94184C21.4992 7.3178 21.1929 7.62343 20.8183 7.62343Z" fill="#181A20"/>
</g>
</svg>
