<svg width="47" height="25" viewBox="0 0 47 25" fill="none" xmlns="http://www.w3.org/2000/svg">
<path d="M2.27397 13.1429L8.72923 19.6113C9.24935 20.1326 9.24935 20.9773 8.72923 21.4986C8.20911 22.0199 7.36605 22.0199 6.84592 21.4986L0.390093 15.0302C-0.130031 14.5089 -0.130031 13.6642 0.390093 13.1429C0.910218 12.6216 1.75385 12.6216 2.27397 13.1429Z" fill="#B7B7B7"/>
<path d="M6.77695 19.3685L12.6532 1.31673C12.8813 0.615992 13.6334 0.233043 14.3325 0.461669C15.0321 0.690295 15.4139 1.44362 15.1858 2.14436L9.30955 20.1961C9.0815 20.8968 8.32932 21.2798 7.63029 21.0512C6.9307 20.8225 6.54889 20.0692 6.77695 19.3685Z" fill="#B7B7B7"/>
<path d="M15.386 1.54894L23.2216 18.0312C23.5377 18.6965 23.2559 19.4932 22.5917 19.8099C21.9276 20.1271 21.1331 19.8447 20.8165 19.1794L12.9814 2.69721C12.6648 2.03134 12.9472 1.23515 13.6107 0.917932C14.2749 0.601285 15.0699 0.883638 15.386 1.54894Z" fill="#B7B7B7"/>
<path d="M21.3988 17.8141L25.186 12.6472C25.6216 12.0533 26.4549 11.9253 27.0482 12.3614C27.6409 12.798 27.7684 13.6331 27.3328 14.227L23.5462 19.3945C23.1107 19.9883 22.2773 20.1164 21.684 19.6797C21.0913 19.2436 20.9639 18.4085 21.3988 17.8141Z" fill="#B7B7B7"/>
<path d="M27.5223 12.5062L31.4398 17.7388C31.8816 18.3281 31.7622 19.1649 31.174 19.6073C30.5853 20.0497 29.7508 19.9302 29.309 19.3404L25.3915 14.1083C24.9502 13.5184 25.0691 12.6816 25.6578 12.2398C26.246 11.7974 27.081 11.9169 27.5223 12.5062Z" fill="#B7B7B7"/>
<path d="M29.8465 16.8753L40.6851 2.74791C41.1332 2.1632 41.9694 2.05403 42.5529 2.50328C43.1359 2.95253 43.2451 3.79045 42.797 4.37459L31.9584 18.502C31.5097 19.0867 30.6735 19.1964 30.0905 18.7472C29.5075 18.2979 29.3978 17.46 29.8465 16.8753Z" fill="#B7B7B7"/>
<path d="M37.3312 2.96028L42.9737 0.140746C43.6321 -0.188476 44.4318 0.0795886 44.7604 0.739175C45.0885 1.39876 44.821 2.2001 44.1626 2.52932L38.5201 5.34885C37.8622 5.67807 37.062 5.41001 36.7339 4.75042C36.4058 4.09083 36.6733 3.2895 37.3312 2.96028Z" fill="#B7B7B7"/>
<path d="M44.8453 1.82126L43.7079 7.45461C43.5621 8.17707 42.8597 8.64404 42.1384 8.49772C41.4176 8.35197 40.9512 7.6478 41.097 6.92534L42.2344 1.29199C42.3801 0.569536 43.0832 0.102568 43.8039 0.248317C44.5252 0.394637 44.9911 1.09881 44.8453 1.82126Z" fill="#B7B7B7"/>
<path d="M3.45948 12.0666L9.5798 5.19297C10.0725 4.63912 10.0245 3.78921 9.47178 3.29537C8.91907 2.80097 8.07087 2.84955 7.57761 3.4034L1.45786 10.2776C0.964601 10.8315 1.01261 11.6808 1.56532 12.1752C2.11859 12.669 2.96622 12.621 3.45948 12.0666Z" fill="#181A20"/>
<path d="M7.63902 5.55015L14.5801 23.3618C14.8493 24.0534 15.6272 24.3952 16.3171 24.1249C17.0075 23.8551 17.3482 23.0755 17.079 22.3845L10.1379 4.5722C9.86869 3.8806 9.09079 3.53938 8.40091 3.80916C7.71046 4.07894 7.36981 4.85855 7.63902 5.55015Z" fill="#181A20"/>
<path d="M17.3099 22.9714L24.2447 5.95015C24.5247 5.26313 24.1961 4.47837 23.5102 4.19773C22.8243 3.91709 22.0413 4.24689 21.7612 4.93448L14.8264 21.9557C14.5464 22.6427 14.8756 23.4275 15.5615 23.7075C16.2473 23.9882 17.0304 23.659 17.3099 22.9714Z" fill="#181A20"/>
<path d="M22.4247 6.27235L26.5274 11.2495C26.9995 11.8222 27.8448 11.9028 28.4158 11.4302C28.9868 10.9575 29.0674 10.1104 28.5959 9.5377L24.4926 4.56051C24.0211 3.98838 23.1757 3.90722 22.6042 4.3799C22.0332 4.85258 21.9526 5.70022 22.4247 6.27235Z" fill="#181A20"/>
<path d="M28.8879 11.2577L32.5276 5.77178C32.9374 5.15392 32.77 4.31943 32.1533 3.90847C31.5365 3.49752 30.7038 3.66556 30.294 4.28399L26.6542 9.76931C26.2438 10.3877 26.4119 11.2222 27.0286 11.6326C27.6453 12.0436 28.4781 11.8761 28.8879 11.2577Z" fill="#181A20"/>
<path d="M30.9669 6.73151L42.6719 20.313C43.1561 20.8743 44.0031 20.9366 44.5638 20.4514C45.1245 19.9661 45.1863 19.1179 44.7021 18.5561L32.9971 4.97452C32.5129 4.41267 31.6659 4.35037 31.1052 4.83563C30.5445 5.32089 30.4827 6.16966 30.9669 6.73151Z" fill="#181A20"/>
<path d="M39.2968 20.2909L45.1307 22.8024C45.8115 23.095 46.6002 22.7795 46.8929 22.0976C47.1849 21.4157 46.87 20.6253 46.1893 20.332L40.3553 17.8212C39.6746 17.5285 38.8858 17.844 38.5937 18.5259C38.3011 19.2078 38.616 19.9983 39.2968 20.2909Z" fill="#181A20"/>
<path d="M46.9091 21.0061L45.4436 15.4076C45.2556 14.6897 44.5223 14.2605 43.8061 14.4485C43.0894 14.6371 42.6613 15.3716 42.8487 16.0895L44.3148 21.6879C44.5028 22.4058 45.2362 22.8351 45.9523 22.647C46.6691 22.4584 47.0972 21.724 46.9091 21.0061Z" fill="#181A20"/>
</svg>
