<svg width="39" height="26" viewBox="0 0 39 26" fill="none" xmlns="http://www.w3.org/2000/svg">
<mask id="mask0_405_3844" style="mask-type:luminance" maskUnits="userSpaceOnUse" x="6" y="0" width="33" height="12">
<path d="M6.85938 0.875977H38.333V11.381H6.85938V0.875977Z" fill="white"/>
</mask>
<g mask="url(#mask0_405_3844)">
<path d="M37.8172 8.34942L30.8487 1.38542C30.5221 1.07285 30.0864 0.895508 29.6373 0.895508C28.6843 0.895508 27.8952 1.6846 27.8952 2.63699C27.8952 3.08543 28.0719 3.52112 28.3851 3.84709L32.3797 7.8391H8.71087C7.75146 7.8391 6.96875 8.62819 6.96875 9.57994C6.96875 10.5323 7.75146 11.3208 8.71087 11.3208H36.5854C37.5378 11.3208 38.3275 10.5323 38.3275 9.57994C38.3275 9.11746 38.1438 8.67539 37.8172 8.34942Z" fill="black"/>
</g>
<mask id="mask1_405_3844" style="mask-type:luminance" maskUnits="userSpaceOnUse" x="0" y="14" width="32" height="12">
<path d="M0 14.6475H31.5176V25.2494H0V14.6475Z" fill="white"/>
</mask>
<g mask="url(#mask1_405_3844)">
<path d="M29.6166 14.8037H1.74212C0.782709 14.8037 0 15.5922 0 16.5446C0 17.007 0.183717 17.4491 0.510324 17.7751L7.47879 24.7391C7.8054 25.0517 8.24109 25.229 8.69018 25.229C9.6432 25.229 10.4323 24.4399 10.4323 23.4875C10.4323 23.0391 10.2556 22.6034 9.94238 22.2774L5.94782 18.2854H29.6166C30.569 18.2854 31.3588 17.4963 31.3588 16.5446C31.3588 15.5922 30.569 14.8037 29.6166 14.8037Z" fill="black"/>
</g>
</svg>
