<svg preserveAspectRatio="none" width="100%" height="100%" overflow="visible" style="display: block;" viewBox="0 0 14.4361 18.2376" fill="none" xmlns="http://www.w3.org/2000/svg">
<path id="Vector" d="M1.15745 0.0586612C2.32228 -0.0445584 3.63909 0.0511761 4.82354 0.0377271C8.92602 -0.00884755 13.4426 -0.560853 14.1254 4.74449C14.1849 5.20765 14.1355 5.66313 14.1566 6.1039C14.2067 7.14676 13.8048 7.64987 13.1526 8.40726C13.0704 8.50431 12.6837 8.98252 12.7236 9.08209C13.1783 10.2166 14.3525 10.312 14.4114 11.7425C14.5 13.8906 14.4149 15.0347 13.0507 16.7146C12.2748 17.344 11.6619 17.9424 10.6196 18.1019C9.22123 18.2745 7.7217 18.2423 6.30631 18.2094C4.30234 18.1629 2.05966 18.3929 0.100413 18.0203C-0.0469958 16.5774 -0.0264593 0.842415 0.125057 0.575952C0.277767 0.307237 0.879396 0.159164 1.15745 0.0586612ZM4.93497 15.4504C5.81764 15.8803 6.03679 16.1472 7.01877 16.062C10.0981 14.9951 8.37858 12.7769 7.49148 10.8322C7.03798 9.83809 7.11868 8.06831 7.59741 7.08839C8.0996 5.96411 9.10966 4.84704 8.59218 3.54448C8.12345 2.36467 7.45444 2.14876 6.27762 2.16426C5.53137 2.44987 5.09782 2.72349 4.73609 3.49499C4.12637 4.83479 5.0892 5.93045 5.67493 7.02466C6.28709 8.16822 6.32598 9.95449 5.78491 11.1291C4.97326 12.891 4.00156 13.41 4.93497 15.4504Z" fill="var(--fill-0, black)"/>
</svg>
