<svg width="70" height="60" viewBox="0 0 70 60" fill="none" xmlns="http://www.w3.org/2000/svg">
<mask id="mask0_405_3666" style="mask-type:luminance" maskUnits="userSpaceOnUse" x="0" y="0" width="70" height="60">
<path d="M0 0H70V60H0V0Z" fill="white"/>
</mask>
<g mask="url(#mask0_405_3666)">
<path fill-rule="evenodd" clip-rule="evenodd" d="M26.3382 40.6796C26.9957 40.6796 27.4318 41.1026 27.4318 41.7416C27.4318 42.3806 26.9957 42.8036 26.3382 42.8036H7.42867C6.77119 42.8036 6.33506 42.3806 6.33506 41.7416C6.33506 41.1026 6.77119 40.6796 7.42867 40.6796H26.3382ZM1.09361 31.7594H20.0032C20.6607 31.7594 21.0968 32.1824 21.0968 32.8214C21.0968 33.4248 20.7078 33.8351 20.1106 33.8796L20.0032 33.8834H1.09361C0.436133 33.8834 0 33.4604 0 32.8214C0 32.218 0.388983 31.8064 0.986211 31.7632L1.09361 31.7594ZM7.42867 22.8379H26.3382C26.9957 22.8379 27.4318 23.2609 27.4318 23.8999C27.4318 24.5046 27.0429 24.9149 26.4456 24.9594L26.3382 24.9632H7.42867C6.77512 24.9632 6.33506 24.5351 6.33506 23.8999C6.33506 23.2965 6.72404 22.8862 7.32127 22.8417L7.42867 22.8379ZM66.8763 21.2005C68.782 24.8196 69.8415 28.919 69.8415 33.2444C69.8415 48.0107 57.4897 60.0152 42.2944 60.0064C34.9718 60.0064 28.0841 57.2472 22.8374 52.1481C22.4013 51.7251 22.4013 51.0861 22.8374 50.6631C23.2722 50.2388 23.9297 50.2388 24.3658 50.6631C29.1724 55.3392 35.5127 57.8862 42.2892 57.8862C56.2808 57.8862 67.6464 46.842 67.6464 33.2444C67.6464 29.5351 66.7899 26.0048 65.2549 22.8417L66.8763 21.2005ZM63.5248 24.5922C64.7048 27.2802 65.3584 30.2401 65.3584 33.3473C65.3584 45.6707 55.0863 55.6542 42.4044 55.6542C37.7091 55.6542 33.226 54.2721 29.4003 51.7251C28.8542 51.4101 28.7429 50.7711 29.0716 50.2388C29.4003 49.8158 30.0578 49.7078 30.7114 50.0191C34.0956 52.3552 38.144 53.5252 42.4044 53.5252C53.8814 53.5252 63.1725 44.497 63.1725 33.3435C63.1725 30.8549 62.7102 28.4731 61.8641 26.2729L63.5248 24.5922ZM63.2393 15.315C64.2124 15.1855 65.1632 15.6771 65.5928 16.5346C66.025 17.3958 65.8391 18.4261 65.1344 19.0904C57.0941 26.9207 51.2843 33.2724 43.1497 41.1928C42.3167 42.0122 40.9755 42.0732 40.0692 41.33L30.215 33.2266C29.75 32.8493 29.4593 32.3082 29.4095 31.7213C29.3558 31.1344 29.5457 30.5526 29.936 30.1042C30.3276 29.6519 30.8869 29.3737 31.488 29.3242C32.0918 29.2759 32.6903 29.4627 33.1527 29.8425L41.396 36.6108C48.6386 29.4766 54.3215 23.3753 61.9112 15.982C62.2635 15.6225 62.7324 15.3875 63.238 15.315H63.2393ZM42.4044 11.0404C48.196 11.0404 53.4846 13.1225 57.5224 16.5587L56.0123 18.092C52.3687 15.0191 47.6118 13.1606 42.4044 13.1606C38.0326 13.1606 33.7669 14.4385 30.27 16.9868C29.7238 17.3056 29.0703 17.1989 28.7416 16.7746C28.4128 16.3516 28.5241 15.6098 28.959 15.2896C32.896 12.5267 37.5978 11.0404 42.4044 11.0404ZM47.3237 0C47.9812 0 48.4173 0.423018 48.4173 1.06199C48.4173 1.6654 48.0283 2.07698 47.4311 2.12017L47.3237 2.12398H43.3867V6.5841C49.8121 6.79243 55.6089 9.14126 60.1575 12.9306L60.4404 13.1695L60.6552 13.3778L59.1307 14.9276C54.6057 11.0607 48.7015 8.70427 42.2892 8.70427C35.2966 8.70427 28.7376 11.4685 23.8197 16.4596C23.3835 16.8826 22.7261 16.8826 22.2912 16.4596C21.8551 16.0366 21.8551 15.3976 22.2912 14.9746C27.2302 9.86535 33.7433 7.00965 40.8079 6.60442L41.2008 6.5841V2.12398H37.3752C36.7177 2.12398 36.2829 1.70097 36.2829 1.06199C36.2829 0.458587 36.6705 0.0470019 37.2678 0.00381098L37.3752 0H47.3237Z" fill="#E6AE00"/>
</g>
</svg>
