<svg width="60" height="60" viewBox="0 0 60 60" fill="none" xmlns="http://www.w3.org/2000/svg">
<mask id="mask0_405_3640" style="mask-type:luminance" maskUnits="userSpaceOnUse" x="0" y="37" width="29" height="23">
<path d="M0 37.2764H28.2762V60.0001H0V37.2764Z" fill="white"/>
</mask>
<g mask="url(#mask0_405_3640)">
<path d="M2.00052 50.0003C2.00052 48.4214 4.2999 48.0011 5.65496 48.0011H14.8047L20.6862 49.9498C20.8963 50.0208 21.1051 50.0208 21.3153 49.9498L26 48.3887V49.3821L20.8581 51.9531L16.1993 51.0211C16.127 51.006 16.0533 50.9992 15.9796 51.0006C15.9059 51.002 15.8322 51.0115 15.7599 51.0292C15.689 51.047 15.6194 51.0729 15.5525 51.1057C15.487 51.1384 15.4242 51.1794 15.3669 51.2258C15.3096 51.2721 15.2577 51.3254 15.2127 51.384C15.1663 51.4427 15.1281 51.5055 15.0967 51.5724C15.064 51.6392 15.0408 51.7088 15.0244 51.7812C15.008 51.8535 14.9998 51.9272 14.9998 52.0009V60.0003H17.0004V53.2208L20.7994 53.9809C21.0232 54.0246 21.2375 53.9959 21.4422 53.8963L27.4424 50.8955C27.613 50.8109 27.748 50.6895 27.849 50.5271C27.9486 50.366 27.9991 50.19 27.9991 50.0003V47.0009C28.0005 46.8398 27.9637 46.6884 27.89 46.5451C27.8163 46.4018 27.7153 46.2831 27.5843 46.1889C27.4547 46.0948 27.31 46.0347 27.1517 46.0115C26.9921 45.987 26.8365 46.0006 26.685 46.0525L21 47.9466L15.2796 46.0511C15.1772 46.0183 15.0735 46.0006 14.9657 46.0006H12.0182C12.1669 45.9255 12.3129 45.8423 12.4535 45.7509C12.594 45.6594 12.7277 45.5612 12.8574 45.4548C12.987 45.3483 13.1098 45.235 13.2272 45.115C13.3432 44.9949 13.4537 44.8693 13.5561 44.737C13.6584 44.6046 13.7539 44.4668 13.8399 44.3235C13.9272 44.1802 14.0064 44.0328 14.0774 43.8813C14.1483 43.7299 14.2111 43.5743 14.2643 43.416C14.3175 43.2577 14.3626 43.0967 14.398 42.9329C14.4335 42.7692 14.4594 42.604 14.4758 42.4376C14.4936 42.2711 14.5017 42.1032 14.499 41.9354C14.4977 41.7689 14.4867 41.601 14.4663 41.4359C14.4472 41.2694 14.4171 41.1043 14.3789 40.9419C14.3407 40.7782 14.293 40.6185 14.2356 40.4602C14.1797 40.3033 14.1142 40.1491 14.0405 39.999C13.9668 39.8489 13.8849 39.7029 13.7949 39.5609C13.7062 39.4204 13.6079 39.2839 13.5028 39.1543C13.3978 39.0233 13.2859 38.8991 13.1672 38.7817C13.0484 38.663 12.9229 38.5525 12.7919 38.4488C12.6595 38.3451 12.5231 38.2482 12.3811 38.1608C12.2392 38.0721 12.0918 37.9916 11.9417 37.9193C11.7903 37.847 11.6361 37.7828 11.4778 37.7282C11.3195 37.6737 11.1584 37.6273 10.9947 37.5904C10.8323 37.5536 10.6672 37.5249 10.5007 37.5072C10.3342 37.4881 10.1677 37.4785 9.99989 37.4785C9.83204 37.4785 9.66556 37.4881 9.49907 37.5072C9.33259 37.5249 9.16747 37.5536 9.00508 37.5904C8.84133 37.6273 8.68031 37.6737 8.52201 37.7282C8.36372 37.7828 8.20951 37.847 8.05804 37.9193C7.90793 37.9916 7.76056 38.0721 7.61864 38.1608C7.47672 38.2482 7.34026 38.3451 7.20789 38.4488C7.07689 38.5525 6.95134 38.663 6.83262 38.7817C6.7139 38.8991 6.602 39.0233 6.49692 39.1543C6.39185 39.2839 6.2936 39.4204 6.2049 39.5609C6.11483 39.7029 6.03296 39.8489 5.95927 39.999C5.88558 40.1491 5.82008 40.3033 5.76413 40.4602C5.70681 40.6185 5.65905 40.7782 5.62084 40.9419C5.58263 41.1043 5.55261 41.2694 5.53351 41.4359C5.51304 41.601 5.50212 41.7689 5.50076 41.9354C5.49803 42.1032 5.50622 42.2711 5.52396 42.4376C5.54033 42.604 5.56626 42.7692 5.60174 42.9329C5.63722 43.0967 5.68225 43.2577 5.73547 43.416C5.78869 43.5743 5.85146 43.7299 5.92242 43.8813C5.99338 44.0328 6.07253 44.1802 6.15986 44.3235C6.24584 44.4668 6.34136 44.6046 6.4437 44.737C6.54605 44.8693 6.65658 44.9949 6.77258 45.115C6.88993 45.235 7.01275 45.3483 7.14239 45.4548C7.27203 45.5612 7.40576 45.6594 7.54631 45.7509C7.68687 45.8423 7.83288 45.9255 7.98162 46.0006H5.65496C2.27208 46.0006 0 47.6081 0 50.0003V60.0003H2.00052V50.0003ZM9.99989 39.5009C10.1636 39.5009 10.326 39.5173 10.4871 39.5487C10.6481 39.5814 10.805 39.6278 10.9565 39.6906C11.108 39.7533 11.2526 39.8311 11.3891 39.9226C11.5255 40.0126 11.6511 40.1163 11.7671 40.2323C11.8831 40.3483 11.9868 40.4752 12.0782 40.6117C12.1696 40.7482 12.2474 40.8928 12.3102 41.0443C12.3729 41.1958 12.4193 41.3513 12.4521 41.5123C12.4835 41.6734 12.4999 41.8371 12.4999 42.0009C12.4999 42.1646 12.4835 42.327 12.4521 42.4881C12.4193 42.6491 12.3729 42.806 12.3102 42.9575C12.2474 43.109 12.1696 43.2536 12.0782 43.3901C11.9868 43.5265 11.8831 43.6521 11.7671 43.7681C11.6511 43.8841 11.5255 43.9878 11.3891 44.0792C11.2526 44.1706 11.108 44.2471 10.9565 44.3098C10.805 44.3726 10.6481 44.4204 10.4871 44.4531C10.326 44.4845 10.1636 44.5009 9.99989 44.5009C9.83613 44.5009 9.67375 44.4845 9.51272 44.4531C9.3517 44.4204 9.19477 44.3726 9.04329 44.3098C8.89182 44.2471 8.74717 44.1706 8.61071 44.0792C8.47425 43.9878 8.3487 43.8841 8.23271 43.7681C8.11672 43.6521 8.01301 43.5265 7.92158 43.3901C7.83015 43.2536 7.75237 43.109 7.6896 42.9575C7.62682 42.806 7.58043 42.6491 7.54768 42.4881C7.51629 42.327 7.49992 42.1646 7.49992 42.0009C7.49992 41.8371 7.51629 41.6734 7.54768 41.5123C7.58043 41.3513 7.62682 41.1958 7.6896 41.0443C7.75237 40.8928 7.83015 40.7482 7.92158 40.6117C8.01301 40.4752 8.11672 40.3483 8.23271 40.2323C8.3487 40.1163 8.47425 40.0126 8.61071 39.9226C8.74717 39.8311 8.89182 39.7533 9.04329 39.6906C9.19477 39.6278 9.3517 39.5814 9.51272 39.5487C9.67375 39.5173 9.83613 39.5009 9.99989 39.5009Z" fill="#E6AE00"/>
</g>
<mask id="mask1_405_3640" style="mask-type:luminance" maskUnits="userSpaceOnUse" x="3" y="51" width="4" height="9">
<path d="M3.82031 51.9482H6.2657V59.9995H3.82031V51.9482Z" fill="white"/>
</mask>
<g mask="url(#mask1_405_3640)">
<path d="M4 52H6.00052V59.9994H4V52Z" fill="#E6AE00"/>
</g>
<path d="M18.5981 41.7767L23.598 43.9191C23.8614 44.0324 24.1234 44.0324 24.3868 43.9191L29.3867 41.7767C29.5709 41.6975 29.7169 41.5747 29.8275 41.4082C29.938 41.2404 29.9926 41.0575 29.9926 40.8569V35.1432C29.9926 34.9426 29.938 34.7598 29.8275 34.5933C29.7169 34.4254 29.5709 34.3026 29.3867 34.2248L24.3868 32.081C24.1234 31.9691 23.8614 31.9691 23.598 32.081L18.5981 34.2248C18.4152 34.3026 18.2678 34.4254 18.1573 34.5933C18.0481 34.7598 17.9922 34.9426 17.9922 35.1432V40.8569C17.9922 41.0575 18.0481 41.2404 18.1573 41.4082C18.2678 41.5747 18.4152 41.6975 18.5981 41.7767ZM19.9927 36.6593L22.9921 37.9448V41.4846L19.9927 40.2005V36.6593ZM24.9927 41.4846V37.9448L27.9921 36.6593V40.2005L24.9927 41.4846ZM23.9924 34.0843L26.4542 35.1391L23.9924 36.2008L21.5306 35.1459L23.9924 34.0843Z" fill="#E6AE00"/>
<mask id="mask2_405_3640" style="mask-type:luminance" maskUnits="userSpaceOnUse" x="31" y="8" width="29" height="24">
<path d="M31.7656 8.28125H59.9954V31.338H31.7656V8.28125Z" fill="white"/>
</mask>
<g mask="url(#mask2_405_3640)">
<path d="M54.3364 17.0016H52.0097C52.1584 16.9265 52.3045 16.8433 52.445 16.7519C52.5856 16.6604 52.7193 16.5622 52.8489 16.4557C52.9786 16.3493 53.1014 16.236 53.2188 16.1159C53.3347 15.9958 53.4453 15.8689 53.5476 15.7366C53.65 15.6042 53.7455 15.4677 53.8315 15.3245C53.9188 15.1812 53.9979 15.0338 54.0689 14.8823C54.1399 14.7308 54.2026 14.5753 54.2559 14.417C54.3091 14.2573 54.3541 14.0963 54.3896 13.9325C54.4251 13.7688 54.451 13.6037 54.4674 13.4372C54.4851 13.2707 54.4933 13.1042 54.4906 12.9364C54.4892 12.7699 54.4783 12.602 54.4578 12.4355C54.4387 12.2704 54.4087 12.1053 54.3705 11.9429C54.3323 11.7792 54.2845 11.6195 54.2272 11.4612C54.1712 11.3043 54.1057 11.1501 54.0321 11C53.9584 10.8485 53.8765 10.7038 53.7864 10.5619C53.6977 10.4214 53.5995 10.2849 53.4944 10.1539C53.3893 10.0242 53.2774 9.90007 53.1587 9.78271C53.04 9.66399 52.9144 9.55345 52.7834 9.44974C52.6511 9.34603 52.5146 9.24914 52.3727 9.16044C52.2308 9.07174 52.0834 8.99123 51.9333 8.92027C51.7818 8.84794 51.6276 8.7838 51.4693 8.72922C51.311 8.67327 51.15 8.62824 50.9862 8.59139C50.8239 8.55318 50.6587 8.52589 50.4923 8.50678C50.3258 8.48904 50.1593 8.47949 49.9914 8.47949C49.8236 8.47949 49.6571 8.48904 49.4906 8.50678C49.3241 8.52589 49.159 8.55318 48.9966 8.59139C48.8329 8.62824 48.6719 8.67327 48.5136 8.72922C48.3553 8.7838 48.2011 8.84794 48.0496 8.92027C47.8995 8.99123 47.7521 9.07174 47.6102 9.16044C47.4683 9.24914 47.3318 9.34603 47.1994 9.44974C47.0684 9.55345 46.9429 9.66399 46.8242 9.78271C46.7054 9.90007 46.5936 10.0242 46.4885 10.1539C46.3834 10.2849 46.2851 10.4214 46.1964 10.5619C46.1064 10.7038 46.0245 10.8485 45.9508 11C45.8771 11.1501 45.8116 11.3043 45.7557 11.4612C45.6984 11.6195 45.6506 11.7792 45.6124 11.9429C45.5742 12.1053 45.5442 12.2704 45.5251 12.4355C45.5046 12.602 45.4937 12.7699 45.4923 12.9364C45.4896 13.1042 45.4978 13.2707 45.5155 13.4372C45.5319 13.6037 45.5578 13.7688 45.5933 13.9325C45.6288 14.0963 45.6738 14.2573 45.727 14.417C45.7802 14.5753 45.843 14.7308 45.914 14.8823C45.9849 15.0338 46.0641 15.1812 46.1514 15.3245C46.2374 15.4677 46.3329 15.6042 46.4353 15.7366C46.5376 15.8689 46.6481 15.9958 46.7641 16.1159C46.8815 16.236 47.0043 16.3493 47.1339 16.4557C47.2636 16.5622 47.3973 16.6604 47.5379 16.7519C47.6784 16.8433 47.8244 16.9265 47.9732 17.0016H45.0256C44.9178 17.0016 44.8141 17.0193 44.7117 17.0521L38.9913 18.9475L33.3063 17.0534C33.2313 17.0289 33.1548 17.0125 33.0757 17.0057C32.9965 16.9988 32.9188 17.0016 32.8396 17.0139C32.7618 17.0261 32.6868 17.0466 32.6131 17.0766C32.5394 17.1067 32.4712 17.1449 32.407 17.1913C32.3429 17.2377 32.2842 17.2909 32.2337 17.3509C32.1819 17.411 32.1382 17.4765 32.1014 17.5461C32.0659 17.617 32.0386 17.6907 32.0195 17.7671C32.0017 17.8436 31.9922 17.9227 31.9922 18.0018V21.0013C31.9922 21.191 32.0413 21.3656 32.1409 21.528C32.2405 21.6891 32.3756 21.8119 32.5449 21.8965L38.5451 24.8959C38.7498 24.9969 38.964 25.0256 39.1878 24.9819L42.9869 24.2218V31.0013H44.9874V23.0018C44.9874 22.9268 44.9792 22.8545 44.9628 22.7821C44.9465 22.7098 44.9233 22.6402 44.8905 22.572C44.8591 22.5051 44.8209 22.4423 44.7745 22.385C44.7295 22.3263 44.6776 22.2731 44.6203 22.2267C44.563 22.1803 44.5002 22.1394 44.4347 22.1066C44.3679 22.0739 44.2983 22.048 44.2273 22.0302C44.155 22.0125 44.0813 22.0029 44.0076 22.0016C43.9339 22.0002 43.8602 22.007 43.7879 22.022L39.125 22.9527L33.9913 20.3831V19.3897L38.6761 20.9494C38.8862 21.0204 39.095 21.0204 39.3052 20.9494L45.1921 19.0008H54.3418C55.6914 19.0008 57.9908 19.4224 57.9908 21.0013V31.0013H59.9913V21.0013C59.9913 18.6077 57.7192 17.0016 54.3364 17.0016ZM49.9914 10.5019C50.1552 10.5019 50.3176 10.5169 50.4786 10.5496C50.6396 10.581 50.7966 10.6288 50.948 10.6915C51.0995 10.7543 51.2442 10.8321 51.3806 10.9222C51.5171 11.0136 51.6426 11.1173 51.7586 11.2333C51.8746 11.3493 51.9783 11.4762 52.0697 11.6127C52.1612 11.7491 52.239 11.8924 52.3017 12.0453C52.3645 12.1967 52.4109 12.3523 52.4436 12.5133C52.475 12.6744 52.4914 12.8367 52.4914 13.0019C52.4914 13.1656 52.475 13.328 52.4436 13.489C52.4109 13.6501 52.3645 13.807 52.3017 13.9585C52.239 14.1099 52.1612 14.2532 52.0697 14.3897C51.9783 14.5261 51.8746 14.6531 51.7586 14.7691C51.6426 14.885 51.5171 14.9888 51.3806 15.0802C51.2442 15.1716 51.0995 15.248 50.948 15.3108C50.7966 15.3736 50.6396 15.4213 50.4786 15.4527C50.3176 15.4855 50.1552 15.5019 49.9914 15.5019C49.8277 15.5019 49.6653 15.4855 49.5043 15.4527C49.3432 15.4213 49.1863 15.3736 49.0348 15.3108C48.8834 15.248 48.7387 15.1716 48.6023 15.0802C48.4658 14.9888 48.3403 14.885 48.2243 14.7691C48.1083 14.6531 48.0046 14.5261 47.9131 14.3897C47.8217 14.2532 47.7439 14.1099 47.6811 13.9585C47.6184 13.807 47.572 13.6501 47.5392 13.489C47.5078 13.328 47.4915 13.1656 47.4915 13.0019C47.4915 12.8367 47.5078 12.6744 47.5392 12.5133C47.572 12.3523 47.6184 12.1967 47.6811 12.0453C47.7439 11.8924 47.8217 11.7491 47.9131 11.6127C48.0046 11.4762 48.1083 11.3493 48.2243 11.2333C48.3403 11.1173 48.4658 11.0136 48.6023 10.9222C48.7387 10.8321 48.8834 10.7543 49.0348 10.6915C49.1863 10.6288 49.3432 10.581 49.5043 10.5496C49.6653 10.5169 49.8277 10.5019 49.9914 10.5019Z" fill="#E6AE00"/>
</g>
<path d="M54 23.001H56.0005V31.0004H54V23.001Z" fill="#E6AE00"/>
<mask id="mask3_405_3640" style="mask-type:luminance" maskUnits="userSpaceOnUse" x="31" y="0" width="12" height="17">
<path d="M31.7656 0H42.2459V16.3155H31.7656V0Z" fill="white"/>
</mask>
<g mask="url(#mask3_405_3640)">
<path d="M39.9916 5.5008H41.9921C41.9743 5.25517 41.932 5.01227 41.8679 4.77482C41.8024 4.53738 41.7151 4.30812 41.6045 4.08842C41.4954 3.86735 41.3657 3.65992 41.2142 3.46478C41.0641 3.26964 40.8963 3.09088 40.7107 2.92849C40.5251 2.7661 40.3259 2.62281 40.113 2.49999C39.8988 2.37718 39.6763 2.27483 39.443 2.19568C39.2096 2.11653 38.9708 2.06058 38.7266 2.02647C38.4823 1.99372 38.238 1.98553 37.991 2.00054V0H35.9919V2.00054C35.7462 1.98553 35.5006 1.99372 35.2563 2.02647C35.0121 2.06058 34.7733 2.11653 34.5399 2.19568C34.3066 2.27483 34.0841 2.37718 33.8699 2.49999C33.657 2.62281 33.4578 2.7661 33.2722 2.92849C33.0866 3.09088 32.9188 3.26964 32.7687 3.46478C32.6185 3.65992 32.4875 3.86735 32.3784 4.08842C32.2678 4.30812 32.1805 4.53738 32.1164 4.77482C32.0509 5.01227 32.0099 5.25517 31.9922 5.5008C32.0099 5.74644 32.0509 5.98798 32.1164 6.22542C32.1805 6.46286 32.2678 6.69212 32.3784 6.91319C32.4875 7.1329 32.6185 7.34168 32.7687 7.53682C32.9188 7.73197 33.0866 7.91073 33.2722 8.07176C33.4578 8.23415 33.657 8.37743 33.8699 8.50025C34.0841 8.62443 34.3066 8.72541 34.5399 8.80456C34.7733 8.88507 35.0121 8.94102 35.2563 8.97377C35.5006 9.00653 35.7462 9.01471 35.9919 8.9997V12.0005C34.907 12.0005 33.9913 11.3127 33.9913 10.5008H31.9922C32.0099 10.7464 32.0509 10.988 32.1164 11.2254C32.1805 11.4629 32.2678 11.6921 32.3784 11.9132C32.4875 12.1329 32.6185 12.3417 32.7687 12.5368C32.9188 12.732 33.0866 12.9107 33.2722 13.0717C33.4578 13.2341 33.657 13.3774 33.8699 13.5002C34.0841 13.6244 34.3066 13.7254 34.5399 13.8045C34.7733 13.8851 35.0121 13.941 35.2563 13.9738C35.5006 14.0065 35.7462 14.0147 35.9919 13.9997V16.0002H37.991V13.9997C38.238 14.0147 38.4823 14.0065 38.7266 13.9738C38.9708 13.941 39.2096 13.8851 39.443 13.8045C39.6763 13.7254 39.8988 13.6244 40.113 13.5002C40.3259 13.3774 40.5251 13.2341 40.7107 13.0717C40.8963 12.9107 41.0641 12.732 41.2142 12.5368C41.3657 12.3417 41.4954 12.1329 41.6045 11.9132C41.7151 11.6921 41.8024 11.4629 41.8679 11.2254C41.932 10.988 41.9743 10.7464 41.9921 10.5008C41.9743 10.2552 41.932 10.0123 41.8679 9.77481C41.8024 9.53736 41.7151 9.30811 41.6045 9.0884C41.4954 8.86733 41.3657 8.65991 41.2142 8.46477C41.0641 8.26963 40.8963 8.09086 40.7107 7.92847C40.5251 7.76608 40.3259 7.6228 40.113 7.49998C39.8988 7.37716 39.6763 7.27482 39.443 7.19567C39.2096 7.11652 38.9708 7.06057 38.7266 7.02645C38.4823 6.9937 38.238 6.98552 37.991 7.00053V3.99972C39.0759 3.99972 39.9916 4.68749 39.9916 5.5008ZM39.9916 10.5008C39.9916 11.3127 39.0759 12.0005 37.991 12.0005V8.9997C39.0759 8.9997 39.9916 9.68747 39.9916 10.5008ZM35.9919 7.00053C34.907 7.00053 33.9913 6.31276 33.9913 5.5008C33.9913 4.68749 34.907 3.99972 35.9919 3.99972V7.00053Z" fill="#E6AE00"/>
</g>
<path d="M7.99916 29.9997C8.00052 29.2791 8.036 28.5613 8.10833 27.8449C8.17929 27.1271 8.28573 26.4162 8.42628 25.7093C8.5682 25.0038 8.74287 24.3051 8.95302 23.6159C9.16181 22.9268 9.40471 22.25 9.68036 21.5854C9.95738 20.9194 10.2644 20.2699 10.6042 19.634C10.944 18.9994 11.3152 18.3826 11.715 17.7835C12.1148 17.1845 12.5447 16.6072 13.0005 16.0505C13.4576 15.4937 13.9407 14.9601 14.451 14.4511C14.9601 13.9421 15.4936 13.459 16.049 13.0019C16.6058 12.5447 17.1844 12.1163 17.7834 11.7151C18.3811 11.3152 18.9993 10.9454 19.6339 10.6056C20.2684 10.2658 20.9193 9.95741 21.5839 9.68176C22.2498 9.40474 22.9267 9.1632 23.6158 8.95305C24.3049 8.7429 25.0022 8.56822 25.7091 8.4263C26.416 8.28575 27.1269 8.17931 27.8434 8.10835C28.5612 8.03739 29.2789 8.00054 29.9995 8.00054V6C29.6064 6 29.2148 6.01092 28.8218 6.03002C28.4301 6.05049 28.0385 6.07915 27.6482 6.11872C27.2566 6.15693 26.8677 6.20606 26.4788 6.26337C26.0912 6.32205 25.7037 6.38892 25.3188 6.46534C24.934 6.54312 24.5519 6.62909 24.1712 6.72462C23.7891 6.82014 23.4111 6.92522 23.0358 7.03984C22.6606 7.15447 22.288 7.27729 21.9182 7.40966C21.5484 7.54203 21.1827 7.68395 20.8197 7.83406C20.4567 7.98553 20.0978 8.14383 19.743 8.31168C19.3882 8.48089 19.0375 8.65693 18.6923 8.84251C18.3457 9.0281 18.0045 9.22052 17.6674 9.42248C17.3304 9.62444 16.9988 9.8346 16.6726 10.0529C16.3465 10.2713 16.0258 10.4978 15.7106 10.7312C15.394 10.9659 15.0856 11.2074 14.7813 11.4558C14.4783 11.7055 14.1809 11.962 13.8902 12.2254C13.5995 12.4888 13.3143 12.7604 13.0373 13.0374C12.7603 13.3158 12.4887 13.5996 12.2254 13.8903C11.962 14.1809 11.7054 14.4784 11.4557 14.7827C11.2074 15.0857 10.9658 15.3954 10.7311 15.7107C10.4978 16.0259 10.2712 16.3466 10.0529 16.6727C9.83456 16.9989 9.62441 17.3305 9.42245 17.6675C9.22049 18.0046 9.02671 18.3458 8.84249 18.6924C8.6569 19.0376 8.4795 19.3883 8.31166 19.7431C8.14381 20.0979 7.98415 20.4568 7.83404 20.8198C7.68393 21.1828 7.54201 21.5485 7.40965 21.9184C7.27728 22.2882 7.1531 22.6607 7.03984 23.036C6.92521 23.4126 6.82013 23.7906 6.72461 24.1714C6.62909 24.5521 6.54312 24.9342 6.46533 25.3204C6.38891 25.7052 6.32068 26.0914 6.26337 26.4803C6.20469 26.8678 6.15693 27.2581 6.11736 27.6484C6.07915 28.0387 6.04913 28.4303 6.03002 28.8234C6.01092 29.215 6 29.608 6 29.9997H7.99916Z" fill="#E6AE00"/>
<path d="M53.8002 33.129L51.8161 32.8711C51.7301 33.5261 51.6127 34.1743 51.4681 34.8184C51.3221 35.4625 51.1474 36.0998 50.9455 36.7275C50.7421 37.3553 50.5115 37.9734 50.2536 38.5821C49.9957 39.1893 49.7105 39.7843 49.3993 40.3656C49.0868 40.9483 48.7498 41.5146 48.3868 42.0673C48.0238 42.6186 47.6376 43.1522 47.2269 43.6694C46.8161 44.1866 46.3835 44.6847 45.9278 45.1623C45.472 45.6399 44.9971 46.097 44.5004 46.5324C44.0037 46.9677 43.4892 47.3798 42.9556 47.7687C42.4221 48.1576 41.8721 48.522 41.3058 48.8618C40.7395 49.2016 40.1595 49.5141 39.5646 49.802C38.971 50.0899 38.3637 50.3492 37.7469 50.5826C37.1287 50.8159 36.5024 51.0206 35.8651 51.1966C35.2292 51.374 34.5865 51.5214 33.9369 51.6401C33.2874 51.7589 32.6337 51.8489 31.976 51.909C31.3196 51.969 30.6605 51.999 30 52.0004V53.9996C30.7205 53.9996 31.4397 53.9655 32.1561 53.9C32.8739 53.8345 33.5862 53.7376 34.2958 53.6079C35.004 53.4769 35.7054 53.3159 36.3987 53.1235C37.0933 52.9311 37.7769 52.7073 38.4511 52.4535C39.1252 52.1996 39.787 51.9158 40.4352 51.6019C41.0834 51.2881 41.7166 50.9456 42.3347 50.5757C42.9515 50.2046 43.552 49.8075 44.1333 49.3831C44.716 48.9587 45.2768 48.5083 45.8186 48.0334C46.3603 47.5586 46.8803 47.0605 47.377 46.5392C47.8737 46.0179 48.3459 45.4748 48.7935 44.9112C49.241 44.3462 49.6641 43.7635 50.0598 43.1617C50.4542 42.5599 50.8226 41.9418 51.1624 41.3058C51.5022 40.6713 51.8133 40.0217 52.0958 39.3599C52.3769 38.6967 52.628 38.0226 52.8491 37.3361C53.0702 36.6511 53.2598 35.9565 53.4195 35.2537C53.5778 34.5509 53.7047 33.8427 53.8002 33.129Z" fill="#E6AE00"/>
</svg>
