<svg width="71" height="60" viewBox="0 0 71 60" fill="none" xmlns="http://www.w3.org/2000/svg">
<mask id="mask0_405_3693" style="mask-type:luminance" maskUnits="userSpaceOnUse" x="0" y="36" width="21" height="6">
<path d="M0.5 36.3125H20.8379V41.3659H0.5V36.3125Z" fill="white"/>
</mask>
<g mask="url(#mask0_405_3693)">
<path fill-rule="evenodd" clip-rule="evenodd" d="M9.94117 41.3141C6.38617 41.3141 2.83117 40.4653 0.883621 38.7677C0.542311 38.4691 0.505611 37.9509 0.801658 37.6067C1.0977 37.2637 1.61517 37.2267 1.95526 37.5241C3.46485 38.8392 6.52563 39.6572 9.94117 39.6572C13.3579 39.6572 16.4175 38.8392 17.9271 37.5241C18.3736 37.1354 18.8507 36.8171 19.4318 36.526C19.8355 36.3212 20.326 36.484 20.5291 36.8899C20.7322 37.2958 20.5683 37.7918 20.1658 37.9953C19.7034 38.2285 19.3425 38.4679 18.9975 38.7677C18.9975 38.7677 18.9975 38.7677 18.9963 38.7689C17.05 40.4653 13.4962 41.3141 9.94117 41.3141Z" fill="#E6AE00"/>
</g>
<mask id="mask1_405_3693" style="mask-type:luminance" maskUnits="userSpaceOnUse" x="49" y="34" width="22" height="7">
<path d="M49.3438 34.7334H70.5013V40.4184H49.3438V34.7334Z" fill="white"/>
</mask>
<g mask="url(#mask1_405_3693)">
<path fill-rule="evenodd" clip-rule="evenodd" d="M50.2638 40.2778C49.9347 40.2778 49.6215 40.0755 49.4992 39.7461C49.3377 39.3204 49.5518 38.8467 49.975 38.6863C50.8204 38.3643 51.4883 37.9855 52.0168 37.5241C52.018 37.5241 52.018 37.5229 52.018 37.5229C55.9119 34.1289 66.2392 34.1289 70.1319 37.5241C70.4732 37.8214 70.5099 38.3421 70.2139 38.6851C69.9178 39.0268 69.4028 39.065 69.0603 38.7665C67.5507 37.4513 64.4911 36.6334 61.0743 36.6334C57.6576 36.6334 54.5992 37.4513 53.0896 38.7665C53.0896 38.7665 53.0896 38.7665 53.0884 38.7665C52.4131 39.3562 51.5825 39.8337 50.5537 40.226C50.4583 40.2618 50.3592 40.2778 50.2638 40.2778Z" fill="#E6AE00"/>
</g>
<mask id="mask2_405_3693" style="mask-type:luminance" maskUnits="userSpaceOnUse" x="0" y="43" width="71" height="8">
<path d="M0.5 43.8926H70.4942V50.5251H0.5V43.8926Z" fill="white"/>
</mask>
<g mask="url(#mask2_405_3693)">
<path fill-rule="evenodd" clip-rule="evenodd" d="M9.94117 50.5251C6.38617 50.5251 2.83117 49.6763 0.883621 47.9774C0.542311 47.6801 0.505611 47.1619 0.801658 46.8177C1.0977 46.4747 1.61517 46.4377 1.95526 46.7351C3.46485 48.0502 6.52563 48.8682 9.94117 48.8682C13.3567 48.8682 16.4163 48.0502 17.9259 46.7363C17.9259 46.7351 17.9259 46.7351 17.9271 46.7351C21.8209 43.3398 32.1459 43.3398 36.041 46.7338C36.041 46.7338 36.0422 46.7338 36.0422 46.7351C37.5518 48.0502 40.6113 48.8682 44.0269 48.8682C47.4449 48.8682 50.5044 48.0502 52.014 46.7351C52.014 46.7338 52.0152 46.7338 52.0152 46.7338C55.9115 43.3398 66.2352 43.3398 70.1279 46.7351C70.4692 47.0324 70.5059 47.553 70.2099 47.8948C69.9138 48.2402 69.3976 48.2748 69.0563 47.9774C67.5479 46.6623 64.4871 45.8443 61.0703 45.8443C57.6536 45.8443 54.594 46.6623 53.0857 47.9774C53.0844 47.9787 53.0832 47.9787 53.0832 47.9799C49.1881 51.3727 38.8669 51.3727 34.973 47.9799C34.9718 47.9799 34.9718 47.9787 34.9705 47.9774C33.461 46.6623 30.4002 45.8443 26.9846 45.8443C23.5691 45.8443 20.5083 46.6623 18.9999 47.9774C17.0524 49.6763 13.4962 50.5251 9.94117 50.5251Z" fill="#E6AE00"/>
</g>
<mask id="mask3_405_3693" style="mask-type:luminance" maskUnits="userSpaceOnUse" x="0" y="53" width="71" height="7">
<path d="M0.5 53.3672H70.4942V59.9997H0.5V53.3672Z" fill="white"/>
</mask>
<g mask="url(#mask3_405_3693)">
<path fill-rule="evenodd" clip-rule="evenodd" d="M9.94117 59.734C6.38617 59.734 2.83117 58.8864 0.883621 57.1875C0.542311 56.8902 0.505611 56.3696 0.801658 56.0278C1.0977 55.6824 1.61517 55.6478 1.95526 55.9452C3.46485 57.2603 6.52563 58.0783 9.94117 58.0783C13.3579 58.0783 16.4175 57.2603 17.9271 55.9452C17.9271 55.9439 17.9283 55.9427 17.9283 55.9427C21.8246 52.5499 32.1483 52.5499 36.0422 55.9452C36.0422 55.9452 36.0422 55.9452 36.0434 55.9452C37.5518 57.2603 40.6113 58.0783 44.0269 58.0783C47.4449 58.0783 50.5044 57.2603 52.014 55.9452C55.9067 52.5499 66.234 52.5499 70.1279 55.9452C70.4692 56.2425 70.5059 56.7607 70.2099 57.1049C69.9138 57.4479 69.3976 57.4849 69.0563 57.1875C67.5467 55.8724 64.4871 55.0544 61.0703 55.0544C57.6536 55.0544 54.594 55.8724 53.0844 57.1875C49.1906 60.5828 38.8656 60.5828 34.9718 57.1888L34.9705 57.1875C33.461 55.8724 30.4002 55.0544 26.9846 55.0544C23.5691 55.0544 20.5108 55.8724 19.0012 57.1863C18.9999 57.1875 18.9999 57.1875 18.9975 57.1875C17.0524 58.8839 13.4962 59.734 9.94117 59.734Z" fill="#E6AE00"/>
</g>
<path fill-rule="evenodd" clip-rule="evenodd" d="M35.507 36.0456C32.845 36.0456 30.6797 34.2851 30.6797 32.1224C30.6797 31.6659 31.0442 31.2982 31.4969 31.2982C31.9483 31.2982 32.3153 31.6659 32.3153 32.1224C32.3153 33.3561 33.7759 34.3998 35.507 34.3998C37.2367 34.3998 38.6974 33.3561 38.6974 32.1224C38.6974 30.8862 37.2367 29.8424 35.507 29.8424C32.845 29.8424 30.6797 28.0819 30.6797 25.9179C30.6797 23.7527 32.845 21.9922 35.507 21.9922C38.1677 21.9922 40.3342 23.7527 40.3342 25.9179C40.3342 26.3719 39.9672 26.7408 39.5158 26.7408C39.0644 26.7408 38.6974 26.3719 38.6974 25.9179C38.6974 24.6817 37.2355 23.638 35.507 23.638C33.7759 23.638 32.3153 24.6817 32.3153 25.9179C32.3153 27.1517 33.7759 28.1954 35.507 28.1954C38.1677 28.1954 40.3342 29.9572 40.3342 32.1224C40.3342 34.2851 38.1677 36.0456 35.507 36.0456Z" fill="#E6AE00"/>
<path fill-rule="evenodd" clip-rule="evenodd" d="M35.5059 37.9089C35.0545 37.9089 34.6875 37.54 34.6875 37.086V20.9538C34.6875 20.4985 35.0545 20.1309 35.5059 20.1309C35.9573 20.1309 36.3231 20.4985 36.3231 20.9538V37.086C36.3231 37.54 35.9573 37.9089 35.5059 37.9089Z" fill="#E6AE00"/>
<path fill-rule="evenodd" clip-rule="evenodd" d="M35.5055 43.1689C35.4981 43.1689 35.4908 43.1689 35.4847 43.1689C31.6911 43.1417 28.0089 43.08 26.9703 43.0628C21.9302 42.9739 19.9777 40.3782 19.2266 38.2142C18.1599 35.1397 18.7348 30.7945 20.8475 25.9817C22.7657 21.6119 25.6907 17.5282 28.672 15.057C29.0194 14.7683 29.5356 14.8189 29.8231 15.1681C30.1106 15.5197 30.0617 16.0379 29.7118 16.3278C26.9189 18.6435 24.164 22.5001 22.3449 26.6455C20.4291 31.0129 19.8554 35.0312 20.7717 37.6713C21.6133 40.0993 23.7101 41.3602 26.9984 41.4157C29.1393 41.454 32.4998 41.5021 35.5104 41.5231C35.5116 41.5231 35.5128 41.5231 35.514 41.5231C38.5259 41.5008 41.8754 41.454 44.0113 41.4157C47.3021 41.3602 49.3964 40.0993 50.2393 37.6713C51.1556 35.0312 50.5806 31.0129 48.6649 26.6455C46.8458 22.5001 44.0921 18.6435 41.2992 16.3278C40.9493 16.0379 40.8992 15.5197 41.1866 15.1681C41.4753 14.8177 41.9904 14.7683 42.339 15.057C45.3203 17.5282 48.244 21.6119 50.1622 25.9817C52.2749 30.7945 52.8511 35.1397 51.7844 38.2142C51.032 40.3782 49.0796 42.9739 44.0394 43.0628C41.8974 43.0998 38.532 43.1466 35.5104 43.1689C35.5092 43.1689 35.5067 43.1689 35.5055 43.1689Z" fill="#E6AE00"/>
<path fill-rule="evenodd" clip-rule="evenodd" d="M41.9788 16.5161H29.0237C27.0859 16.5161 25.5078 14.9296 25.5078 12.979C25.5078 11.0273 27.0859 9.43945 29.0237 9.43945H41.9788C43.9177 9.43945 45.4958 11.0285 45.4958 12.979C45.4958 14.9296 43.9177 16.5161 41.9788 16.5161ZM29.0237 11.0865C27.9875 11.0865 27.1446 11.9353 27.1446 12.9778C27.1446 14.0215 27.9875 14.8703 29.0237 14.8703H41.9788C43.0174 14.8703 43.859 14.0215 43.859 12.979C43.859 11.9353 43.0174 11.0865 41.9788 11.0865H29.0237Z" fill="#E6AE00"/>
<path fill-rule="evenodd" clip-rule="evenodd" d="M29.7157 11.0875C29.3548 11.0875 29.0233 10.8445 28.9266 10.4768L26.4102 1.0351C26.3454 0.788355 26.3968 0.523102 26.5521 0.32077C26.7063 0.117205 26.946 0 27.2017 0C28.1767 0 28.9927 0.645242 29.7829 1.27074C30.3261 1.70132 30.9427 2.19111 31.3525 2.19111C31.7598 2.19111 32.3764 1.70132 32.9208 1.27074C33.7098 0.645242 34.527 0 35.502 0C36.4782 0 37.293 0.645242 38.0832 1.27074C38.6264 1.70132 39.243 2.19111 39.6528 2.19111C40.0602 2.19111 40.6779 1.70132 41.2223 1.27074C42.0114 0.645242 42.8273 0 43.8035 0C44.0568 0 44.2966 0.118438 44.4519 0.32077C44.6061 0.523102 44.6599 0.788355 44.5926 1.0351L42.0787 10.4768C41.9612 10.9161 41.5122 11.1764 41.0755 11.0579C40.64 10.942 40.3807 10.4904 40.4981 10.0512L42.5594 2.30831C42.4505 2.39344 42.3404 2.4798 42.234 2.56493C41.4437 3.19043 40.6278 3.83567 39.6528 3.83567C38.6778 3.83567 37.8606 3.19043 37.0716 2.56493C36.5272 2.13436 35.9106 1.6458 35.502 1.6458C35.0934 1.6458 34.4769 2.13436 33.9337 2.56493C33.1422 3.19043 32.3275 3.83814 31.3525 3.83814C30.3763 3.83814 29.5603 3.19043 28.7712 2.56493C28.6636 2.4798 28.5535 2.39344 28.4434 2.30831L30.5072 10.0512C30.6221 10.4904 30.364 10.942 29.9273 11.0592C29.8563 11.0777 29.7854 11.0875 29.7157 11.0875Z" fill="#E6AE00"/>
</svg>
