<svg width="61" height="60" viewBox="0 0 61 60" fill="none" xmlns="http://www.w3.org/2000/svg">
<path d="M32.4612 0.0627446C14.3763 -1.09305 -0.593049 13.8763 0.562745 31.9612C1.5183 46.9084 13.5916 58.9817 28.5388 59.9373C46.6222 61.0931 61.5931 46.1237 60.4373 28.0403C59.4817 13.0916 47.407 1.0183 32.4612 0.0627446ZM44.0824 44.8854C45.2632 40.8321 45.967 36.1691 46.0613 31.1543H58.1625C57.8975 37.5841 55.4283 43.4528 51.4927 48.0289C49.6876 46.7642 47.1626 45.6952 44.0824 44.8854ZM9.50726 48.0289C5.5702 43.4528 3.10107 37.5841 2.83605 31.1543H14.9373C15.0315 36.1691 15.7368 40.8321 16.9161 44.8854C13.8345 45.6952 11.3109 46.7642 9.50726 48.0289ZM16.9102 15.1352C15.7338 19.1841 15.0315 23.8397 14.9373 28.8457H2.83605C3.10107 22.4454 5.54664 16.6031 9.44984 12.0359C11.2859 13.28 13.8286 14.3342 16.9102 15.1352ZM29.3457 28.8457H17.2445C17.3446 24.0709 18.0542 19.564 19.2145 15.6652C22.3329 16.2939 25.7914 16.6517 29.3457 16.7165V28.8457ZM29.3457 31.1543V43.2835C25.7841 43.3483 22.327 43.712 19.2189 44.3495C18.0557 40.4463 17.3446 35.935 17.2445 31.1543H29.3457ZM31.6529 31.1543H43.7541C43.6554 35.935 42.9428 40.4463 41.7811 44.3495C38.6715 43.712 35.2145 43.3483 31.6529 43.2835V31.1543ZM31.6529 28.8457V16.7165C35.2071 16.6517 38.6656 16.2924 41.7841 15.6637C42.9443 19.564 43.6554 24.0709 43.7541 28.8457H31.6529ZM31.6529 14.4093V2.42439C35.4427 3.14437 38.8335 7.35234 41.0567 13.4596C38.1577 14.025 34.9509 14.3475 31.6529 14.4093ZM29.3457 2.42439V14.4093C26.0491 14.3475 22.8408 14.025 19.9418 13.4596C22.165 7.35234 25.5559 3.1429 29.3457 2.42439ZM29.3457 45.5922V57.5756C25.5588 56.8571 22.1695 52.6535 19.9462 46.5536C22.8364 45.9794 26.0417 45.654 29.3457 45.5922ZM31.6529 57.5756V45.5922C34.9568 45.654 38.1621 45.9794 41.0523 46.5536C38.8291 52.6535 35.4412 56.8571 31.6529 57.5756ZM46.0613 28.8457C45.9685 23.8397 45.2662 19.1841 44.0898 15.1352C47.1714 14.3342 49.7127 13.28 51.5487 12.0359C55.4519 16.6016 57.8989 22.4454 58.1625 28.8457H46.0613ZM49.9541 10.3147C48.339 11.338 46.0774 12.2405 43.3845 12.9325C41.9357 8.83794 39.9701 5.50749 37.6556 3.25038C42.3642 4.51071 46.5825 6.98425 49.9541 10.3147ZM17.6155 12.9325C14.9211 12.242 12.661 11.3395 11.0459 10.3162C14.4161 6.98425 18.6358 4.51218 23.3444 3.25038C21.0284 5.50749 19.0628 8.83941 17.6155 12.9325ZM11.1048 49.7412C12.6846 48.7032 14.9284 47.7874 17.6214 47.0866C19.0687 51.1724 21.0328 54.4955 23.3444 56.7496C18.6623 55.4952 14.4647 53.0437 11.1048 49.7412ZM43.3772 47.0866C46.0701 47.7874 48.3139 48.7032 49.8953 49.7412C46.5339 53.0437 42.3377 55.4967 37.6541 56.7496C39.9672 54.4955 41.9298 51.1724 43.3772 47.0866Z" fill="#E6AE00"/>
</svg>
