<svg width="60" height="60" viewBox="0 0 60 60" fill="none" xmlns="http://www.w3.org/2000/svg">
<path d="M21 20H23.0008V21.9995H21V20Z" fill="#E6AE00"/>
<path d="M21 24H23.0008V25.9995H21V24Z" fill="#E6AE00"/>
<path d="M21 28H23.0008V29.9995H21V28Z" fill="#E6AE00"/>
<path d="M21 32H23.0008V34.0008H21V32Z" fill="#E6AE00"/>
<path d="M25 20H27.0008V21.9995H25V20Z" fill="#E6AE00"/>
<path d="M25 24H27.0008V25.9995H25V24Z" fill="#E6AE00"/>
<path d="M25 28H27.0008V29.9995H25V28Z" fill="#E6AE00"/>
<path d="M25 32H27.0008V34.0008H25V32Z" fill="#E6AE00"/>
<path d="M28.9922 20H30.9917V21.9995H28.9922V20Z" fill="#E6AE00"/>
<path d="M28.9922 24H30.9917V25.9995H28.9922V24Z" fill="#E6AE00"/>
<path d="M28.9922 28H30.9917V29.9995H28.9922V28Z" fill="#E6AE00"/>
<path d="M28.9922 32H30.9917V34.0008H28.9922V32Z" fill="#E6AE00"/>
<path d="M33 20H34.9995V21.9995H33V20Z" fill="#E6AE00"/>
<path d="M25 16H27.0008V18.0008H25V16Z" fill="#E6AE00"/>
<path d="M28.9922 16H30.9917V18.0008H28.9922V16Z" fill="#E6AE00"/>
<path d="M33 16H34.9995V18.0008H33V16Z" fill="#E6AE00"/>
<path d="M33 24H34.9995V25.9995H33V24Z" fill="#E6AE00"/>
<path d="M33 28H34.9995V29.9995H33V28Z" fill="#E6AE00"/>
<path d="M33 32H34.9995V34.0008H33V32Z" fill="#E6AE00"/>
<path d="M37.0078 20H39.0073V21.9995H37.0078V20Z" fill="#E6AE00"/>
<path d="M37.0078 24H39.0073V25.9995H37.0078V24Z" fill="#E6AE00"/>
<path d="M37.0078 28H39.0073V29.9995H37.0078V28Z" fill="#E6AE00"/>
<path d="M37.0078 32H39.0073V34.0008H37.0078V32Z" fill="#E6AE00"/>
<mask id="mask0_405_3606" style="mask-type:luminance" maskUnits="userSpaceOnUse" x="0" y="0" width="60" height="60">
<path d="M0 0H60V60H0V0Z" fill="white"/>
</mask>
<g mask="url(#mask0_405_3606)">
<path d="M59.0003 15H44.0003V0.999746C44.0003 0.447154 43.5531 0 43.0005 0H17.0008C16.4469 0 15.9997 0.447154 15.9997 0.999746V15H0.999746C0.447155 15 0 15.4472 0 15.9997V51.9995C0 52.5534 0.447155 53.0005 0.999746 53.0005H3.0907C3.03481 53.3257 3.00051 53.6585 3.00051 54.0003V59.0003C3.00051 59.5528 3.44766 60 4.00025 60H55.9997C56.5536 60 57.0008 59.5528 57.0008 59.0003V54.0003C57.0008 53.6585 56.9652 53.3257 56.9106 53.0005H59.0003C59.5528 53.0005 60 52.5534 60 51.9995V15.9997C60 15.4472 59.5528 15 59.0003 15ZM43.0005 43.0005C43.0005 44.1031 42.1037 45 40.9997 45C39.8971 45 39.0003 44.1031 39.0003 43.0005C39.0003 41.8966 39.8971 40.9997 40.9997 40.9997C42.1037 40.9997 43.0005 41.8966 43.0005 43.0005ZM19.0003 40.9997C20.1029 40.9997 20.9997 41.8966 20.9997 43.0005C20.9997 44.1031 20.1029 45 19.0003 45C17.8976 45 17.0008 44.1031 17.0008 43.0005C17.0008 41.8966 17.8976 40.9997 19.0003 40.9997ZM13.0005 58.0005H5V54.0003C5 51.7937 6.7937 50 9.00025 50C11.2068 50 13.0005 51.7937 13.0005 54.0003V58.0005ZM7.00076 45.9997C7.00076 44.8971 7.89761 44.0003 9.00025 44.0003C10.1029 44.0003 10.9997 44.8971 10.9997 45.9997C10.9997 47.1024 10.1029 48.0005 9.00025 48.0005C7.89761 48.0005 7.00076 47.1024 7.00076 45.9997ZM13.1517 49.6786C12.7769 49.3166 12.3539 49.0015 11.8941 48.7475C12.5749 48.0285 13.0005 47.0655 13.0005 45.9997C13.0005 43.7945 11.2068 41.9995 9.00025 41.9995C6.7937 41.9995 5 43.7945 5 45.9997C5 47.0655 5.42556 48.0285 6.10772 48.7475C5.15244 49.2746 4.35976 50.0572 3.81225 50.9997H2.00076V16.9995H15.9997V40.3824C15.3849 41.0849 15 41.9944 15 43.0005C15 44.0663 15.4256 45.0292 16.1077 45.7469C14.6291 46.5638 13.534 47.9865 13.1517 49.6786ZM23.0005 58.0005H15V50.9997C15 48.7945 16.7937 46.9995 19.0003 46.9995C21.2068 46.9995 23.0005 48.7945 23.0005 50.9997V58.0005ZM35 58.0005H25V50.9997C25 48.2431 27.2434 45.9997 30 45.9997C32.7579 45.9997 35 48.2431 35 50.9997V58.0005ZM27.0008 40.9997C27.0008 39.3458 28.346 38.0005 30 38.0005C31.654 38.0005 33.0005 39.3458 33.0005 40.9997C33.0005 42.6537 31.654 44.0003 30 44.0003C28.346 44.0003 27.0008 42.6537 27.0008 40.9997ZM36.0899 47.5622C35.4217 46.3834 34.4245 45.4192 33.2215 44.7917C34.3 43.8745 35 42.5241 35 40.9997C35 38.2431 32.7579 35.9997 30 35.9997C27.2434 35.9997 25 38.2431 25 40.9997C25 42.5241 25.6999 43.8745 26.7797 44.7917C25.5767 45.4192 24.5783 46.3834 23.9101 47.5622C23.3854 46.8153 22.6969 46.1916 21.8941 45.7469C22.5749 45.0292 23.0005 44.0663 23.0005 43.0005C23.0005 40.794 21.2068 39.0003 19.0003 39.0003C18.6535 39.0003 18.3219 39.0574 18.0005 39.1425V1.99949H42.0008V39.1425C41.6781 39.0574 41.3478 39.0003 40.9997 39.0003C38.7945 39.0003 37.0008 40.794 37.0008 43.0005C37.0008 44.0663 37.425 45.0292 38.1072 45.7469C37.3044 46.1916 36.6159 46.8153 36.0899 47.5622ZM45 54.0003V58.0005H37.0008V50.9997C37.0008 48.7945 38.7945 46.9995 40.9997 46.9995C43.2063 46.9995 45 48.7945 45 50.9997V54.0003ZM55 58.0005H47.0008V54.0003C47.0008 51.7937 48.7945 50 50.9997 50C53.2063 50 55 51.7937 55 54.0003V58.0005ZM49.0003 45.9997C49.0003 44.8971 49.8971 44.0003 50.9997 44.0003C52.1037 44.0003 53.0005 44.8971 53.0005 45.9997C53.0005 47.1024 52.1037 48.0005 50.9997 48.0005C49.8971 48.0005 49.0003 47.1024 49.0003 45.9997ZM58.0005 50.9997H56.1878C55.6415 50.0572 54.8488 49.2746 53.8935 48.7475C54.5757 48.0285 55 47.0655 55 45.9997C55 43.7945 53.2063 41.9995 50.9997 41.9995C48.7945 41.9995 47.0008 43.7945 47.0008 45.9997C47.0008 47.0655 47.425 48.0285 48.1072 48.7475C47.6474 49.0015 47.2256 49.3166 46.8496 49.6786C46.4672 47.9865 45.3722 46.5638 43.8948 45.7469C44.5757 45.0292 45 44.0663 45 43.0005C45 41.9944 44.6151 41.0849 44.0003 40.3824V16.9995H58.0005V50.9997Z" fill="#E6AE00"/>
</g>
<path d="M47 23.001H48.9995V39.0007H47V23.001Z" fill="#E6AE00"/>
<path d="M53 23.001H54.9995V39.0007H53V23.001Z" fill="#E6AE00"/>
<path d="M5 23.001H7.00076V39.0007H5V23.001Z" fill="#E6AE00"/>
<path d="M11 23.001H13.0008V39.0007H11V23.001Z" fill="#E6AE00"/>
<path d="M23.9997 14H35.9992C36.5531 14 37.0003 13.5528 37.0003 13.0003V4.99975C37.0003 4.44715 36.5531 4 35.9992 4H23.9997C23.4472 4 23 4.44715 23 4.99975V13.0003C23 13.5528 23.4472 14 23.9997 14ZM24.9995 5.99949H34.9995V11.9992H24.9995V5.99949Z" fill="#E6AE00"/>
</svg>
