<svg width="50" height="50" viewBox="0 0 50 50" fill="none" xmlns="http://www.w3.org/2000/svg">
<path d="M25 8C34.4 8 42 15.6 42 25C42 34.4 34.4 42 25 42C15.6 42 8 34.4 8 25C8 15.6 15.6 8 25 8ZM25 40C33.3 40 40 33.3 40 25C40 16.7 33.3 10 25 10C16.7 10 10 16.7 10 25C10 33.3 16.7 40 25 40Z" fill="#E5AE00"/>
<path d="M16.6953 23.3001L24.9953 31.6001L33.2953 23.3001L34.6953 24.7001L24.9953 34.4001L15.2953 24.7001L16.6953 23.3001Z" fill="#E5AE00"/>
<path d="M26 33L24 33L24 16L26 16L26 33Z" fill="#E5AE00"/>
</svg>
