<svg width="28" height="28" viewBox="0 0 28 28" fill="none" xmlns="http://www.w3.org/2000/svg">
<g clip-path="url(#clip0_3270_3438)">
<path d="M22.9242 4.375C20.5617 2.1875 17.4555 0.875 13.9992 0.875C10.543 0.875 7.43672 2.1875 5.07422 4.375H22.9242ZM5.07422 23.625C7.43672 25.8125 10.543 27.125 13.9992 27.125C17.4555 27.125 20.5617 25.8125 22.9242 23.625H5.07422Z" fill="#ED4C5C"/>
<path d="M0.875 14C0.875 15.8812 1.26875 17.6313 1.96875 19.25H26.0312C26.7313 17.6313 27.125 15.8812 27.125 14C27.125 12.1187 26.7313 10.3687 26.0312 8.75H1.96875C1.26875 10.3687 0.875 12.1187 0.875 14Z" fill="#2A5F9E"/>
<path d="M5.07578 23.625H22.882C24.1945 22.4 25.2883 20.9125 25.9883 19.25H1.92578C2.71328 20.9125 3.76328 22.4 5.07578 23.625ZM22.9258 4.375H5.07578C3.76328 5.6 2.66953 7.0875 1.96953 8.75H26.032C25.2883 7.0875 24.2383 5.6 22.9258 4.375Z" fill="#F9F9F9"/>
</g>
<defs>
<clipPath id="clip0_3270_3438">
<rect width="28" height="28" fill="white"/>
</clipPath>
</defs>
</svg>
