<svg width="28" height="28" viewBox="0 0 28 28" fill="none" xmlns="http://www.w3.org/2000/svg">
<g clip-path="url(#clip0_3270_3432)">
<path d="M26.7328 10.9375C25.3766 5.1625 20.1703 0.875 14.0016 0.875H13.5641V10.9375H26.7328ZM7.43906 2.625C4.37656 4.41875 2.05781 7.39375 1.22656 10.9375H7.43906V2.625ZM1.22656 17.0625C2.05781 20.6063 4.37656 23.5812 7.43906 25.375V17.0625H1.22656ZM13.5641 27.125H14.0016C20.2141 27.125 25.3766 22.8375 26.7766 17.0625H13.5641V27.125Z" fill="#F9F9F9"/>
<path d="M26.7312 10.9375H13.5625V0.875C11.3313 0.9625 9.23125 1.575 7.4375 2.625V10.9375H1.225C1.00625 11.9 0.875 12.95 0.875 14C0.875 15.05 1.00625 16.1 1.225 17.0625H7.4375V25.375C9.23125 26.425 11.3313 27.0375 13.5625 27.125V17.0625H26.775C26.9937 16.1 27.125 15.05 27.125 14C27.125 12.95 26.9937 11.9 26.7312 10.9375Z" fill="#428BC1"/>
</g>
<defs>
<clipPath id="clip0_3270_3432">
<rect width="28" height="28" fill="white"/>
</clipPath>
</defs>
</svg>
