<svg width="24" height="25" viewBox="0 0 24 25" fill="none" xmlns="http://www.w3.org/2000/svg">
<g id="vuesax/bold/tick-circle">
<g id="tick-circle">
<path id="Vector" d="M12 2.38574C6.49 2.38574 2 6.87574 2 12.3857C2 17.8957 6.49 22.3857 12 22.3857C17.51 22.3857 22 17.8957 22 12.3857C22 6.87574 17.51 2.38574 12 2.38574ZM16.78 10.0857L11.11 15.7557C10.97 15.8957 10.78 15.9757 10.58 15.9757C10.38 15.9757 10.19 15.8957 10.05 15.7557L7.22 12.9257C6.93 12.6357 6.93 12.1557 7.22 11.8657C7.51 11.5757 7.99 11.5757 8.28 11.8657L10.58 14.1657L15.72 9.02574C16.01 8.73574 16.49 8.73574 16.78 9.02574C17.07 9.31574 17.07 9.78574 16.78 10.0857Z" fill="#E5AF02"/>
</g>
</g>
</svg>
