<svg width="38" height="16" viewBox="0 0 38 16" fill="none" xmlns="http://www.w3.org/2000/svg">
<path d="M17.4737 7.80353V12.0491H16.1172V1.56494H19.7133C20.6247 1.56494 21.4018 1.8667 22.0377 2.47021C22.6877 3.07371 23.0127 3.81055 23.0127 4.68073C23.0127 5.57196 22.6877 6.3088 22.0377 6.90529C21.4089 7.50178 20.6317 7.79651 19.7133 7.79651H17.4737V7.80353ZM17.4737 2.85617V6.5123H19.7416C20.2785 6.5123 20.7307 6.32985 21.0839 5.97196C21.4442 5.61406 21.6279 5.17897 21.6279 4.68774C21.6279 4.20353 21.4442 3.77547 21.0839 3.41757C20.7307 3.04564 20.2856 2.86319 19.7416 2.86319H17.4737V2.85617Z" fill="#5F6368"/>
<path d="M26.5612 4.63916C27.5644 4.63916 28.3557 4.90583 28.935 5.43916C29.5144 5.97249 29.804 6.70232 29.804 7.62863V12.0497H28.5111V11.0532H28.4546C27.8965 11.8742 27.1476 12.2813 26.215 12.2813C25.4166 12.2813 24.7525 12.0497 24.2156 11.5795C23.6786 11.1093 23.4102 10.5269 23.4102 9.82512C23.4102 9.08126 23.6928 8.49179 24.258 8.0567C24.8232 7.61459 25.5791 7.39705 26.5188 7.39705C27.3242 7.39705 27.9883 7.54442 28.5041 7.83916V7.53038C28.5041 7.06021 28.3204 6.66723 27.9459 6.3374C27.5715 6.00758 27.1334 5.84618 26.6318 5.84618C25.8759 5.84618 25.2753 6.16196 24.8373 6.80056L23.6433 6.0567C24.3004 5.10933 25.2753 4.63916 26.5612 4.63916ZM24.809 9.84617C24.809 10.197 24.9574 10.4918 25.2612 10.7234C25.5579 10.9549 25.9112 11.0742 26.3139 11.0742C26.8862 11.0742 27.3948 10.8637 27.8399 10.4427C28.285 10.0216 28.5111 9.53038 28.5111 8.96196C28.0872 8.63214 27.5008 8.46372 26.7449 8.46372C26.1938 8.46372 25.7346 8.59705 25.3672 8.8567C24.9927 9.13038 24.809 9.46021 24.809 9.84617Z" fill="#5F6368"/>
<path d="M37.1736 4.87012L32.652 15.1999H31.2531L32.9346 11.5859L29.9531 4.87012H31.4297L33.5775 10.021H33.6058L35.697 4.87012H37.1736Z" fill="#5F6368"/>
<path d="M12.0763 6.94745C12.0763 6.50816 12.0368 6.0878 11.9633 5.68359H6.27734V7.99938L9.55199 8.00008C9.41917 8.77061 8.99173 9.42745 8.3368 9.86534V11.3678H10.286C11.4242 10.3215 12.0763 8.77482 12.0763 6.94745Z" fill="#4285F4"/>
<path d="M8.34275 9.86522C7.80016 10.2287 7.10142 10.4414 6.284 10.4414C4.70496 10.4414 3.36543 9.38452 2.88571 7.95996H0.875V9.50944C1.87117 11.4729 3.91862 12.8203 6.284 12.8203C7.91885 12.8203 9.29229 12.2863 10.292 11.367L8.34275 9.86522Z" fill="#34A853"/>
<path d="M2.69155 6.81C2.69155 6.41 2.75867 6.02333 2.8809 5.65982V4.11035H0.870187C0.458295 4.92228 0.226562 5.83877 0.226562 6.81C0.226562 7.78122 0.459001 8.69772 0.870187 9.50964L2.8809 7.96017C2.75867 7.59666 2.69155 7.21 2.69155 6.81Z" fill="#FABB05"/>
<path d="M6.284 3.17875C7.17631 3.17875 7.97537 3.48401 8.60628 4.0805L10.3337 2.36612C9.28452 1.39559 7.91673 0.799805 6.284 0.799805C3.91933 0.799805 1.87117 2.14717 0.875 4.11068L2.88571 5.66015C3.36543 4.23559 4.70496 3.17875 6.284 3.17875Z" fill="#E94235"/>
</svg>
