<svg width="34" height="14" viewBox="0 0 34 14" fill="none" xmlns="http://www.w3.org/2000/svg">
<path d="M6.65028 2.69639C6.9535 2.69639 8.03836 2.72334 8.74588 3.7543C8.68524 3.80146 7.60711 4.40791 7.60711 5.76904C7.60711 7.3458 8.98172 7.90508 9.02215 7.91855C9.01541 7.95225 8.79979 8.67998 8.30116 9.42793C7.84969 10.0748 7.37127 10.7284 6.65028 10.7284C5.92928 10.7284 5.74061 10.3106 4.91854 10.3106C4.10321 10.3106 3.81346 10.7419 3.15985 10.7419C2.49949 10.7419 2.03455 10.1354 1.51571 9.40098C0.902522 8.51826 0.403889 7.16387 0.403889 5.87686C0.403889 3.82168 1.74481 2.72334 3.06551 2.72334C3.75955 2.72334 4.34578 3.18154 4.78377 3.18154C5.20155 3.18154 5.84842 2.69639 6.65028 2.69639ZM6.27967 1.82715C5.92254 2.2584 5.3161 2.58184 4.83768 2.58184C4.78377 2.58184 4.72987 2.5751 4.69617 2.56836C4.68944 2.54141 4.67596 2.45381 4.67596 2.37295C4.67596 1.82715 4.95897 1.28135 5.25545 0.937695C5.63953 0.48623 6.28641 0.156055 6.812 0.13584C6.82547 0.196484 6.83221 0.270605 6.83221 0.344726C6.83221 0.890527 6.60311 1.42959 6.27967 1.82715ZM11.6709 0.897265H15.5925C17.5332 0.897265 18.8606 2.22471 18.8606 4.18555C18.8606 6.1127 17.486 7.4334 15.5184 7.4334H13.4093V10.6206H11.6709V0.897265ZM13.4093 2.35273V5.99141H15.1276C16.3674 5.99141 17.0952 5.34453 17.0952 4.18555C17.0952 2.99287 16.3877 2.35273 15.1343 2.35273H13.4093ZM22.1225 9.42793C23.1332 9.42793 23.8879 8.77432 23.8879 7.91855V7.33232L22.2236 7.44014C21.287 7.50078 20.849 7.8377 20.849 8.4374C20.849 9.05732 21.3813 9.42793 22.1225 9.42793ZM21.6306 10.7419C20.2088 10.7419 19.1913 9.87939 19.1913 8.53174C19.1913 7.19756 20.1953 6.42939 21.9877 6.32158L23.8879 6.20703V5.58711C23.8879 4.86611 23.4028 4.46182 22.4998 4.46182C21.7317 4.46182 21.2061 4.73135 21.0511 5.22998H19.4744C19.6091 3.92949 20.8287 3.10068 22.5807 3.10068C24.4742 3.10068 25.5388 4.02383 25.5388 5.58711V10.6206H23.9284V9.60986H23.8138C23.4028 10.3241 22.5942 10.7419 21.6306 10.7419ZM27.3991 13.2957C27.2981 13.2957 26.8466 13.289 26.7388 13.2688V11.9009C26.8331 11.9211 27.0824 11.9278 27.197 11.9278C27.9045 11.9278 28.3021 11.6583 28.5177 10.9777L28.6053 10.6543L25.9706 3.24893H27.8034L29.5284 9.00342H29.643L31.3612 3.24893H33.1267L30.4651 10.8564C29.8384 12.6893 29.05 13.2957 27.3991 13.2957Z" fill="black"/>
</svg>
