<svg width="56" height="37" viewBox="0 0 56 37" fill="none" xmlns="http://www.w3.org/2000/svg">
<g clip-path="url(#clip0_627_991)">
<path d="M56.0025 33.4999C55.7082 33.8147 55.4098 34.1238 54.897 33.9299C54.3943 33.7398 54.3592 33.3342 54.3599 32.9005C54.3641 30.3102 54.3643 27.7199 54.3605 25.1296C54.3603 24.9135 54.339 24.6975 54.3228 24.3908C53.2919 25.2653 52.3702 25.998 52.4688 27.4419C52.5944 29.2819 52.5153 31.1357 52.4824 32.9829C52.4758 33.3006 52.3423 33.6041 52.1089 33.8322C51.6012 34.2438 50.8897 33.8521 50.8662 33.168C50.8401 32.409 50.8587 31.6485 50.8585 30.8887C50.8582 29.6109 50.8785 28.3326 50.8524 27.0552C50.8262 26.5363 50.9215 26.0182 51.1314 25.5382C51.3412 25.0582 51.6604 24.6281 52.0662 24.2787C52.4501 23.9391 52.8538 23.6196 53.3107 23.2391L48.311 20.8591C47.7213 21.4298 47.0972 22.0085 46.512 22.6206C46.3896 22.7486 46.3718 22.9995 46.3713 23.1939C46.3632 26.3886 46.3668 29.5833 46.3627 32.778C46.3698 33.0014 46.3465 33.2247 46.2934 33.4425C46.2546 33.6147 46.1477 33.7664 45.9946 33.8662C45.8415 33.9661 45.6538 34.0066 45.4701 33.9794C45.2846 33.9732 45.1079 33.9025 44.9738 33.7807C44.8398 33.659 44.7577 33.4947 44.7432 33.3193C44.7248 33.1475 44.7188 32.9748 44.7253 32.8022C44.7244 29.6248 44.7176 26.4474 44.734 23.27C44.7438 23.101 44.7128 22.9321 44.6434 22.7762C44.5739 22.6203 44.4679 22.4814 44.3333 22.3701C43.7906 21.8859 43.2848 21.3646 42.7569 20.8523C42.5566 20.9442 42.3999 21.0246 42.2362 21.0894C42.0706 21.169 41.8792 21.1855 41.7011 21.1357C41.523 21.0858 41.3718 20.9732 41.2785 20.8211C41.0346 20.4791 41.0305 20.0593 41.3983 19.8486C42.183 19.3993 42.1241 18.7167 42.0877 18.0258C42.0719 17.8763 42.0033 17.7363 41.8931 17.6284C40.7762 16.5602 40.2861 15.2714 40.343 13.7806C40.3541 13.4901 40.3969 13.2097 39.9419 13.1251C39.8344 13.0846 39.7391 13.0193 39.6648 12.9354C39.5904 12.8514 39.5391 12.7512 39.5156 12.6438C39.4416 11.3022 39.3091 9.94245 39.9807 8.68162C40.9693 6.8256 42.6049 5.91098 44.7668 5.86524C45.7081 5.84533 46.6846 5.82619 47.5892 6.02973C50.0858 6.59144 51.5737 8.468 51.6208 10.9228C51.6288 11.3371 51.6247 11.7517 51.6217 12.1661C51.6166 12.856 51.483 13.0317 50.788 13.2639C50.7492 13.7893 50.7348 14.3227 50.6656 14.8496C50.5284 15.8951 50.0277 16.7802 49.2674 17.5409C48.6868 18.1218 48.9055 19.3985 49.6605 19.7632C50.8928 20.3583 52.1156 20.9757 53.3764 21.5119C54.7001 22.0748 55.6657 22.8948 56.0025 24.2762V33.4999ZM41.9851 13.7878H41.9878C41.9878 13.8913 41.9847 13.9949 41.9882 14.0983C42.0663 16.4528 44.3348 18.0388 46.6343 17.3074C48.4329 16.7353 49.2535 15.2796 49.088 13.3787C49.0787 13.2712 48.8405 13.1323 48.6851 13.0934C47.4579 12.7867 46.1873 12.5955 45.0069 12.175C44.2227 11.8957 43.6153 11.7602 42.9821 12.3649C42.8159 12.5008 42.6193 12.5992 42.4072 12.6529C42.0472 12.765 41.9335 12.9843 41.9814 13.3223C41.9934 13.4772 41.9947 13.6327 41.9851 13.7878ZM49.928 11.639C50.1964 9.58132 49.1513 7.8796 47.2513 7.55186C46.1219 7.36356 44.9667 7.36233 43.8369 7.5482C41.9603 7.8587 40.7272 9.80525 41.2332 11.5716C41.8473 11.1694 42.4432 10.8179 42.9918 10.4095C43.6096 9.94939 43.7616 9.91481 44.4588 10.2605C46.1551 11.0896 48.0211 11.56 49.928 11.639ZM43.6928 18.7329C43.719 19.0867 43.6283 19.4505 43.7797 19.6189C44.3163 20.2163 44.9356 20.747 45.5642 21.3414C46.0644 20.8507 46.4924 20.3749 46.9831 19.9668C47.3998 19.6204 47.5069 19.2613 47.2697 18.7604C46.1219 19.1155 44.9602 19.1113 43.6928 18.7329Z" fill="#898989"/>
<path d="M38.5849 22.8494C37.7641 23.5706 36.9053 24.242 36.1683 25.0174C35.9065 25.2928 35.8589 25.8199 35.8534 26.2338C35.8243 28.427 35.8418 30.6207 35.8363 32.8142C35.8357 33.0363 35.8706 33.3227 35.745 33.4656C35.5468 33.6909 35.2163 33.9652 34.9609 33.9489C34.7049 33.9326 34.4405 33.6095 34.2436 33.3731C34.1513 33.2622 34.2001 33.0392 34.1999 32.867C34.1979 30.6735 34.2197 28.4797 34.1901 26.2865C34.1668 25.7423 34.2689 25.2 34.4894 24.6971C34.7099 24.1942 35.0434 23.7429 35.4667 23.3745C36.2552 22.6634 37.013 21.9218 37.8563 21.1258C37.5242 20.9123 37.18 20.7162 36.8253 20.5383C35.4522 19.9423 34.0652 19.3751 32.6921 18.779C32.3987 18.6516 32.2147 18.6712 31.9816 18.8993C31.0562 19.8049 30.0908 20.6742 29.1769 21.5899C28.9681 21.8124 28.8468 22.0965 28.8334 22.394C28.8106 25.831 28.8192 29.2682 28.8166 32.7053C28.8211 32.9294 28.8063 33.1535 28.7722 33.3753C28.7377 33.545 28.6423 33.6981 28.5021 33.8086C28.362 33.9191 28.1858 33.9802 28.0034 33.9815C27.8211 33.9828 27.644 33.9242 27.5021 33.8158C27.3602 33.7073 27.2623 33.5556 27.225 33.3865C27.1886 33.165 27.173 32.9409 27.1783 32.7168C27.1756 29.2796 27.1773 25.8425 27.1835 22.4054C27.1916 22.2445 27.1618 22.0838 27.0962 21.9352C27.0307 21.7865 26.931 21.6536 26.8045 21.5459C25.8615 20.6814 24.9336 19.8021 24.0208 18.9081C23.7961 18.6893 23.6179 18.6412 23.3135 18.7739C21.9247 19.3789 20.5197 19.9503 19.1295 20.5524C18.7881 20.7257 18.4578 20.9181 18.1406 21.1285C18.871 21.8173 19.507 22.4815 20.2138 23.0691C21.3808 24.0392 21.8741 25.2089 21.8162 26.6889C21.7365 28.7242 21.797 30.7644 21.795 32.8025C21.8012 32.9923 21.7906 33.1823 21.7631 33.3704C21.6904 33.7699 21.3774 34.0228 21.0012 33.9641C20.7188 33.9199 20.4278 33.6632 20.2401 33.4294C20.1189 33.2784 20.1585 32.9981 20.158 32.7756C20.1532 30.5993 20.1405 28.4229 20.1634 26.2469C20.1787 25.9197 20.118 25.5933 19.9855 25.2908C19.853 24.9883 19.652 24.7171 19.3967 24.4963C18.7656 23.9269 18.1727 23.3195 17.5632 22.7286L17.4099 22.7799V23.3091C17.4099 26.4353 17.4099 29.5615 17.4098 32.6878C17.4098 32.8432 17.4147 32.999 17.4057 33.154C17.3765 33.656 17.0747 33.9761 16.6237 33.991C16.1925 34.0053 15.8402 33.6801 15.7795 33.2007C15.7674 33.063 15.764 32.9247 15.7693 32.7867C15.7688 29.6259 15.7782 26.4651 15.7657 23.3043C15.7576 21.2505 16.7159 19.8202 18.7187 19.0095C20.0908 18.4541 21.4412 17.8502 22.8158 17.3008C23.4164 17.0608 23.6665 16.6954 23.6808 16.0744C23.6951 15.4536 23.5476 15.0007 23.0439 14.5413C21.7118 13.3262 21.1125 11.7763 21.0246 10.0322C21.0134 9.80986 20.8276 9.59222 20.7098 9.37879C20.5525 9.09362 20.2692 8.82599 20.2365 8.53123C20.0233 6.61273 20.1072 4.72956 21.2949 3.05081C22.512 1.33043 24.205 0.290381 26.3831 0.102977C28.2899 -0.0610885 30.222 -0.140869 31.9971 0.758229C34.48 2.01584 35.7415 4.00551 35.8315 6.66232C35.8421 6.91336 35.7966 7.1637 35.6979 7.3969C35.5992 7.6301 35.4497 7.84089 35.2589 8.01543C35.0998 8.18409 35.0005 8.39582 34.975 8.62078C34.8572 9.66321 34.8657 10.7261 34.6552 11.7495C34.4056 12.9632 33.6569 13.9577 32.7015 14.7993C31.9643 15.4487 32.2006 16.8698 33.1216 17.2626C34.5487 17.8711 35.9781 18.4748 37.4099 19.0735C39.3006 19.8625 40.2193 21.2488 40.2238 23.1874C40.2312 26.4173 40.2307 29.6471 40.2223 32.877C40.222 33.0813 40.2474 33.3517 40.1276 33.4752C39.9161 33.6933 39.5895 33.9668 39.3341 33.9471C39.0777 33.9274 38.8033 33.6082 38.6265 33.3623C38.5224 33.2174 38.586 32.9598 38.5859 32.7529C38.5844 29.6266 38.5841 26.5004 38.5849 23.3742C38.5849 23.1873 38.5849 23.0004 38.5849 22.8494ZM34.1325 6.856C34.4157 4.87715 32.7423 2.56047 30.6458 1.89424C29.5433 1.54387 28.4199 1.5848 27.2939 1.59435C23.6774 1.62503 21.234 4.41679 21.8917 8.26983C22.2841 8.03143 22.648 7.82053 23.0006 7.5938C23.4945 7.27615 23.9699 7.29824 24.2583 7.66666C24.5427 8.02993 24.4452 8.4914 23.9768 8.83232C23.6609 9.06216 23.2974 9.23405 22.9877 9.47008C22.8432 9.58016 22.6851 9.78207 22.6874 9.94032C22.7081 11.3478 23.2308 12.5793 24.3017 13.5581C26.0864 15.1892 28.5576 15.4631 30.7417 14.2398C32.7951 13.0897 33.6169 10.9789 33.2331 8.51943C32.0327 8.51943 30.8071 8.61427 29.6045 8.49707C27.848 8.33374 26.1991 7.61963 24.9193 6.4679C24.4881 6.08585 24.4479 5.61355 24.7834 5.28059C25.1135 4.95298 25.5635 4.94951 26.0025 5.3111C28.4129 7.29632 31.2237 7.3033 34.1325 6.856ZM27.9987 20.499C28.9887 19.5574 29.927 18.6676 30.8594 17.7722C30.9271 17.7071 31.005 17.5892 30.9869 17.5164C30.8683 17.0416 30.7245 16.5725 30.5833 16.0819C28.9161 16.6948 27.0677 16.6974 25.3986 16.0891C25.2682 16.5651 25.1387 16.991 25.0423 17.4235C25.0322 17.4852 25.0358 17.5482 25.053 17.6084C25.0702 17.6687 25.1006 17.7248 25.1421 17.7733C26.0697 18.6723 27.0101 19.5596 27.9987 20.499Z" fill="#898989"/>
<path d="M11.5053 23.3511C10.9048 23.9276 10.2913 24.4935 9.7129 25.0901C9.59011 25.2522 9.52835 25.4487 9.53746 25.6481C9.52606 28.0315 9.5301 30.4151 9.52956 32.7986C9.53442 32.954 9.53093 33.1095 9.51913 33.2646C9.47095 33.7099 9.18446 33.9665 8.7335 33.9824C8.30357 33.9975 8.01336 33.7563 7.92579 33.3485C7.89431 33.1612 7.8825 32.9714 7.89048 32.7819C7.88837 30.4156 7.89915 28.0492 7.87456 25.6832C7.85558 25.404 7.74051 25.1385 7.54702 24.9272C7.0345 24.3696 6.46886 23.8558 5.94292 23.3432L2.20116 25.1521C2.82843 25.7358 3.37941 26.2597 3.94359 26.7706C4.34718 27.1221 4.66471 27.5531 4.87389 28.0333C5.08307 28.5134 5.17884 29.0312 5.15448 29.5501C5.12797 30.7068 5.15253 31.8645 5.14672 33.0217C5.14365 33.632 4.8335 33.9931 4.3338 33.9947C3.83392 33.9963 3.51438 33.6337 3.51024 33.0262C3.50246 31.8863 3.48272 30.7456 3.51686 29.6066C3.54013 29.2704 3.48129 28.9337 3.3449 28.6226C3.20851 28.3115 2.99822 28.0344 2.73042 27.8128C2.39479 27.5232 2.10231 27.1886 1.79042 26.8743L1.64508 26.9121V27.3772C1.64508 29.1908 1.64479 31.0043 1.64421 32.8179C1.65293 32.9903 1.64504 33.1631 1.62073 33.3342C1.53984 33.7451 1.24962 33.9857 0.823664 33.9852C0.628171 33.9937 0.436711 33.9306 0.288984 33.809C0.141257 33.6874 0.0485817 33.5165 0.0302054 33.3319C0.00163541 33.0918 -0.00668842 32.8499 0.0053241 32.6085C0.0038091 30.6222 0.0102415 28.6359 0.0026487 26.6496C-0.00299628 25.1728 0.685921 24.1095 2.07609 23.45C2.90619 23.0562 3.7336 22.657 4.5691 22.2738C5.04673 22.0546 5.23508 21.7217 5.27494 21.2119C5.34952 20.2576 5.1664 19.5091 4.30624 18.8418C3.37367 18.1183 2.88547 17.0437 2.74313 15.8974C2.56196 14.4384 2.47579 12.9697 2.93924 11.533C3.29979 10.399 4.04237 9.40819 5.05348 8.712C5.32926 8.51797 5.38902 8.33587 5.33687 8.02067C5.10897 6.6431 5.62894 5.53749 6.82694 4.74988C7.38912 4.38828 8.05364 4.19633 8.7331 4.19925C9.41255 4.20218 10.0751 4.39984 10.6338 4.76625C11.8313 5.56621 12.325 6.68344 12.0907 8.05281C12.0378 8.36171 12.1043 8.51126 12.3537 8.69255C13.9078 9.8219 14.7432 11.3201 14.774 13.1805C14.7936 14.3662 14.9082 15.5629 14.4909 16.7234C14.1381 17.7657 13.4703 18.687 12.5703 19.3732C12.2698 19.5991 12.0963 19.8263 12.1539 20.1949C12.1746 20.3321 12.1748 20.4713 12.1546 20.6086C12.0211 21.5281 12.3365 22.1623 13.3127 22.5069C13.8888 22.7102 14.0359 23.1594 13.8188 23.5885C13.6065 24.0082 13.1605 24.1221 12.6024 23.8795C12.2557 23.7289 11.9213 23.5527 11.5053 23.3511ZM4.30009 14.9212C4.22408 17.1874 6.24753 19.157 8.72975 19.1447C11.0557 19.1332 13.2046 17.1962 13.0691 15.1999C10.8385 15.6263 8.86454 15.1163 7.12993 13.7289C7.05952 13.693 6.98129 13.673 6.90138 13.6705C6.82148 13.6679 6.74206 13.6829 6.66929 13.7143C5.89912 14.0875 5.1434 14.4875 4.30009 14.9212ZM13.0973 13.5827C13.3549 11.2301 11.3732 9.18887 8.78487 9.08176C6.46536 8.98578 4.35264 10.8861 4.33212 13.2603C4.97659 12.8512 5.56822 12.5308 6.09154 12.1303C6.86016 11.542 7.15387 11.5417 7.84125 12.2068C9.30184 13.6201 11.0414 14.1059 13.0973 13.5827ZM10.4844 20.5911H6.92105C6.90232 20.9394 6.87231 21.3683 6.86092 21.7977C6.84916 21.9132 6.88008 22.029 6.9484 22.1253C7.51652 22.6962 8.10001 23.2534 8.68735 23.823C8.85495 23.6739 8.94913 23.5942 9.03843 23.5099C9.50274 23.0718 9.97162 22.6377 10.4243 22.1889C10.5206 22.093 10.5769 21.9673 10.583 21.8351C10.5666 21.3902 10.5151 20.9465 10.4844 20.5911ZM10.4804 7.62838C10.5543 6.9141 10.2415 6.297 9.56896 5.9665C8.89136 5.63351 8.22578 5.67944 7.62026 6.12164C7.37203 6.29057 7.17609 6.51941 7.05274 6.78437C6.92939 7.04933 6.88314 7.34076 6.91884 7.62838H10.4804Z" fill="#898989"/>
</g>
<defs>
<clipPath id="clip0_627_991">
<rect width="56" height="37" fill="white"/>
</clipPath>
</defs>
</svg>
