<svg width="45" height="41" viewBox="0 0 45 41" fill="none" xmlns="http://www.w3.org/2000/svg">
<mask id="mask0_627_909" style="mask-type:luminance" maskUnits="userSpaceOnUse" x="0" y="0" width="45" height="41">
<path d="M0 0H45V40.725H0V0Z" fill="white"/>
</mask>
<g mask="url(#mask0_627_909)">
<path d="M44.3564 23.3432L44.0435 23.11L44.9142 20.3678C45.0291 20.0057 44.9963 19.6214 44.8216 19.285C44.6482 18.9487 44.3541 18.6991 43.9931 18.5843L43.0873 18.296V15.8221C43.0873 15.0393 42.4521 14.403 41.6716 14.403H36.0279C35.6365 14.403 35.3189 14.7206 35.3189 15.112C35.3189 15.5034 35.6365 15.8221 36.0279 15.8221H37.4799C37.515 16.0741 37.5736 16.3202 37.6463 16.5616L33.465 15.228L13.6697 0.479956C13.0427 0.0147217 12.1545 0.1448 11.6881 0.772925L0.699382 15.5749C0.47321 15.8796 0.37946 16.2534 0.434538 16.6284C0.489617 17.0034 0.687663 17.3339 0.991179 17.56L2.36696 18.5843L0.184929 25.4655C0.070085 25.8264 0.101726 26.212 0.276335 26.5483C0.450945 26.8846 0.745085 27.1343 1.10602 27.2491L2.01188 27.5374V34.2686C2.01188 35.0514 2.64704 35.6878 3.42751 35.6878H21.8412C22.2326 35.6878 22.5502 35.3702 22.5502 34.9776C22.5502 34.5862 22.2326 34.2686 21.8412 34.2686H7.62048C7.30876 32.0983 5.5943 30.3803 3.42751 30.0686V27.9885L23.633 34.4292L31.6791 40.4233C31.9263 40.6073 32.2193 40.7046 32.5216 40.7046C32.5908 40.7046 32.6599 40.6999 32.7302 40.6882C33.1052 40.6331 33.4357 40.4362 33.6595 40.1315L35.1631 38.1065L37.5595 38.8706C37.6967 38.9139 37.8373 38.9339 37.9767 38.9339C38.2017 38.9339 38.4256 38.88 38.6318 38.7733C38.9705 38.5975 39.2189 38.3022 39.3279 37.9471L40.0474 35.6878H41.6716C42.4521 35.6878 43.0873 35.0514 43.0873 34.2686V27.4319L44.6482 25.3284C45.1146 24.7014 44.9834 23.8096 44.3564 23.3432ZM6.18962 34.2686H3.42751V31.5018C4.81266 31.7854 5.9072 32.8811 6.18962 34.2686ZM42.8412 22.2147L41.4408 21.1718C41.3541 20.5553 41.3634 19.8464 41.4631 19.2663L43.5654 19.9366L42.8412 22.2147ZM39.2564 33.5081C39.049 33.4741 38.8392 33.4483 38.6271 33.4413L39.765 31.9085L39.2564 33.5081ZM35.0259 35.9139C33.1017 34.8686 30.7029 35.2225 29.1595 36.7776L5.19938 18.9288C6.24235 17.001 5.89079 14.5975 4.33805 13.0507L10.3228 4.98816C11.0623 5.38894 11.8685 5.5905 12.6724 5.5905C13.9638 5.5905 15.2377 5.08425 16.1892 4.12566L40.147 21.9745C39.6384 22.912 39.4404 23.9831 39.5986 25.0577C39.7556 26.1323 40.2525 27.1003 41.0095 27.8526L35.0259 35.9139ZM41.6716 15.8221V17.8436L39.4896 17.1475C39.2072 16.7468 39.0115 16.3003 38.9154 15.8221H41.6716ZM38.8287 18.4272C38.8451 18.4331 38.8615 18.4366 38.8791 18.4413L40.1072 18.8339C40.0287 19.2182 39.983 19.6413 39.9713 20.076L36.9595 17.8319L38.8287 18.4272ZM12.8248 1.61902L15.0408 3.27019C13.9861 4.21472 12.4568 4.43972 11.1759 3.83855L12.8248 1.61902ZM1.8361 16.4221L3.48376 14.2026C3.94548 14.7159 4.24548 15.3534 4.3486 16.0518C4.45173 16.7514 4.34626 17.4487 4.05094 18.0745L1.8361 16.4221ZM2.37048 23.26C3.6068 23.9491 4.3193 25.326 4.16813 26.7346L1.53493 25.8968L2.37048 23.26ZM5.5322 27.1706C5.89079 25.0073 4.77516 22.8487 2.80407 21.8936L3.5693 19.4807L20.1384 31.8264L5.5322 27.1706ZM32.524 39.2842L30.308 37.6343C31.3615 36.6897 32.892 36.4635 34.1716 37.0659L32.524 39.2842ZM37.9838 37.5159L36.0572 36.9018L37.467 35.0022C37.7248 34.9296 37.9861 34.8768 38.2474 34.8628C38.442 34.8522 38.6318 34.8616 38.8205 34.8803L37.9838 37.5159ZM40.4986 34.2686L41.6716 30.5819V34.2686H40.4986ZM41.865 26.7018C41.4033 26.1885 41.1021 25.551 41.0002 24.8526C40.897 24.153 41.0025 23.4557 41.2966 22.8311L43.5127 24.4823L41.865 26.7018Z" fill="#898989"/>
</g>
<path d="M26.8957 14.7591C23.7621 12.4235 19.316 13.0786 16.9863 16.2181C15.8578 17.738 15.3867 19.6083 15.6632 21.4845C15.9375 23.3595 16.9254 25.0142 18.4429 26.145C19.6781 27.0649 21.1429 27.5478 22.6547 27.5478C23.0004 27.5478 23.3496 27.522 23.7 27.4716C25.5714 27.195 27.2238 26.206 28.3511 24.686C29.4808 23.1649 29.9507 21.2958 29.6765 19.4196C29.4011 17.5446 28.4144 15.8899 26.8957 14.7591ZM27.2156 23.8388C26.3132 25.0552 24.9902 25.8462 23.4937 26.0677C21.9961 26.2892 20.5031 25.9107 19.2879 25.0071C18.0738 24.1024 17.2839 22.7771 17.0636 21.2771C16.8433 19.7771 17.2195 18.2817 18.1218 17.0642C19.9863 14.5528 23.5418 14.029 26.0496 15.897C28.5574 17.7649 29.08 21.3274 27.2156 23.8388Z" fill="#898989"/>
<path d="M24.6404 16.6136L24.1412 17.2863C23.8423 17.1925 23.5259 17.1597 23.2083 17.2078C22.647 17.291 22.1513 17.5874 21.8126 18.0433C21.1341 18.9585 21.2982 20.2441 22.1701 20.9589C22.197 20.9953 22.2205 21.0328 22.2404 21.0738C22.2943 21.1863 22.3177 21.3082 22.3083 21.4347C22.2802 21.8249 21.931 22.1191 21.5513 22.091C21.3626 22.0769 21.1904 21.9902 21.0673 21.8472C20.9431 21.7042 20.8822 21.5203 20.8962 21.3316C20.9244 20.9414 20.6314 20.6015 20.2412 20.5734C19.8357 20.5464 19.5123 20.8394 19.4841 21.2296C19.4419 21.7957 19.6248 22.3453 19.9962 22.7753C20.0091 22.7906 20.0244 22.7999 20.0373 22.814L19.5697 23.4445C19.3365 23.7585 19.4009 24.2039 19.7162 24.4371C19.8427 24.5308 19.9915 24.5777 20.138 24.5777C20.3548 24.5777 20.5681 24.4781 20.7064 24.2917L21.3076 23.4808C21.3556 23.4878 21.4013 23.5019 21.4505 23.5054C21.5021 23.5089 21.5537 23.5113 21.6052 23.5113C22.7068 23.5113 23.6419 22.6535 23.7228 21.5355C23.7498 21.1628 23.6783 20.789 23.5154 20.4527C23.4415 20.2992 23.3478 20.1562 23.2388 20.0249C23.199 19.971 23.1509 19.923 23.097 19.882C22.9458 19.7695 22.8462 19.6042 22.8181 19.4167C22.7912 19.2292 22.838 19.0417 22.9505 18.8894C23.063 18.7382 23.2294 18.6386 23.4158 18.6117C23.6044 18.5847 23.7908 18.6304 23.9419 18.7441C24.0439 18.8203 24.1201 18.9164 24.1693 19.0312C24.1951 19.0886 24.2115 19.1496 24.2208 19.2105C24.2783 19.5984 24.6392 19.8644 25.0248 19.8093C25.4115 19.7519 25.6787 19.3921 25.6224 19.0042C25.5955 18.8203 25.5439 18.641 25.4712 18.4699C25.4197 18.3515 25.3458 18.246 25.2744 18.1406L25.7783 17.4597C26.0126 17.1457 25.947 16.7015 25.633 16.4671C25.3177 16.2339 24.8736 16.2984 24.6404 16.6136Z" fill="#898989"/>
</svg>
