<svg width="43" height="42" viewBox="0 0 43 42" fill="none" xmlns="http://www.w3.org/2000/svg">
<path d="M33.0077 30.3485C32.8988 30.3485 32.792 30.3288 32.6863 30.2894L9.49315 21.3636C9.1479 21.2319 8.92188 20.8991 8.92188 20.53V9.81886C8.92188 9.44977 9.1479 9.11799 9.49315 8.98528L32.6863 0.0595045C32.9631 -0.0472856 33.2679 -0.00788728 33.5126 0.158C33.7552 0.323887 33.9004 0.598638 33.9004 0.894125V29.4558C33.9004 29.7502 33.7552 30.025 33.5126 30.1909C33.3612 30.2945 33.186 30.3485 33.0077 30.3485ZM10.7062 19.9162L32.116 28.1556V2.19323L10.7062 10.4337V19.9162Z" fill="#898989"/>
<path d="M13.3802 33.9174H8.02723C7.58348 33.9174 7.20712 33.5909 7.14491 33.1502L5.36059 20.6548C5.29112 20.1675 5.63016 19.7154 6.11849 19.6459C6.59645 19.5848 7.05679 19.9155 7.12625 20.4049L8.80171 32.1331H12.3807L11.1895 21.5039C11.1355 21.0145 11.487 20.5739 11.9764 20.5169C12.4492 20.465 12.9054 20.8155 12.9624 21.3038L14.2656 32.9252C14.2936 33.1792 14.2138 33.4301 14.0438 33.6199C13.8758 33.8086 13.6353 33.9174 13.3802 33.9174Z" fill="#898989"/>
<path d="M36.5795 10.7119C36.2924 10.7119 36.0103 10.573 35.8372 10.3138C35.5645 9.90529 35.6744 9.3506 36.085 9.07689L41.438 5.5072C41.8444 5.23556 42.3991 5.34235 42.6738 5.755C42.9465 6.16349 42.8366 6.71922 42.426 6.99189L37.0731 10.5626C36.9217 10.6642 36.7506 10.7119 36.5795 10.7119Z" fill="#898989"/>
<path d="M41.9309 26.7778C41.7599 26.7778 41.5888 26.7301 41.4374 26.6285L36.0845 23.0578C35.676 22.7851 35.564 22.2294 35.8367 21.8209C36.1114 21.4103 36.6682 21.3014 37.0725 21.5731L42.4255 25.1428C42.834 25.4165 42.946 25.9712 42.6733 26.3797C42.5001 26.6389 42.2181 26.7778 41.9309 26.7778Z" fill="#898989"/>
<mask id="mask0_627_917" style="mask-type:luminance" maskUnits="userSpaceOnUse" x="35" y="15" width="8" height="3">
<path d="M35.6562 15.0781H43.0019V17.2015H35.6562V15.0781Z" fill="white"/>
</mask>
<g mask="url(#mask0_627_917)">
<path d="M41.9243 16.9611H36.5724C36.0799 16.9611 35.6797 16.5609 35.6797 16.0685C35.6797 15.5749 36.0799 15.1758 36.5724 15.1758H41.9243C42.4168 15.1758 42.817 15.5749 42.817 16.0685C42.817 16.5609 42.4168 16.9611 41.9243 16.9611Z" fill="#898989"/>
</g>
</svg>
