<svg width="47" height="45" viewBox="0 0 47 45" fill="none" xmlns="http://www.w3.org/2000/svg">
<mask id="mask0_627_930" style="mask-type:luminance" maskUnits="userSpaceOnUse" x="7" y="2" width="40" height="34">
<path d="M7.71875 2.36816H46.9938V35.5098H7.71875V2.36816Z" fill="white"/>
</mask>
<g mask="url(#mask0_627_930)">
<path d="M9.67929 15.0963V6.05181C9.67929 5.59211 9.86852 5.17409 10.1721 4.8694C10.4758 4.56578 10.8948 4.37656 11.3535 4.37656H43.4079C43.8676 4.37656 44.2856 4.56578 44.5892 4.8694C44.8929 5.17409 45.0821 5.59211 45.0821 6.05181V31.8179C45.0821 32.2776 44.8929 32.6956 44.5892 33.0003C44.2856 33.3039 43.8676 33.4921 43.4079 33.4921H29.3066C29.142 34.1442 28.9346 34.7835 28.6866 35.4068H43.4079C44.3957 35.4068 45.2927 35.0027 45.9427 34.3527C46.5927 33.7027 46.9958 32.8057 46.9958 31.8179V6.05181C46.9958 5.06398 46.5927 4.16595 45.9427 3.51701C45.2927 2.86701 44.3957 2.46289 43.4079 2.46289H11.3535C10.3656 2.46289 9.46868 2.86701 8.81868 3.51701C8.16974 4.16595 7.76562 5.06398 7.76562 6.05181V15.8607C8.38569 15.5624 9.02501 15.308 9.67929 15.0963Z" fill="#898989"/>
</g>
<mask id="mask1_627_930" style="mask-type:luminance" maskUnits="userSpaceOnUse" x="7" y="10" width="40" height="3">
<path d="M7.71875 10.4668H46.9938V12.4606H7.71875V10.4668Z" fill="white"/>
</mask>
<g mask="url(#mask1_627_930)">
<path d="M8.72246 10.5273C8.19433 10.5273 7.76562 10.956 7.76562 11.4842C7.76562 12.0123 8.19433 12.441 8.72246 12.441H46.0389C46.5671 12.441 46.9958 12.0123 46.9958 11.4842C46.9958 10.956 46.5671 10.5273 46.0389 10.5273H8.72246Z" fill="#898989"/>
</g>
<mask id="mask2_627_930" style="mask-type:luminance" maskUnits="userSpaceOnUse" x="13" y="0" width="4" height="7">
<path d="M13.8906 0H16.0801V6.88919H13.8906V0Z" fill="white"/>
</mask>
<g mask="url(#mask2_627_930)">
<path d="M15.898 0.956833C15.898 0.428704 15.4693 0 14.9412 0C14.412 0 13.9844 0.428704 13.9844 0.956833V5.74099C13.9844 6.27019 14.412 6.6989 14.9412 6.6989C15.4693 6.6989 15.898 6.27019 15.898 5.74099V0.956833Z" fill="#898989"/>
</g>
<mask id="mask3_627_930" style="mask-type:luminance" maskUnits="userSpaceOnUse" x="22" y="0" width="3" height="7">
<path d="M22.1016 0H24.2911V6.88919H22.1016V0Z" fill="white"/>
</mask>
<g mask="url(#mask3_627_930)">
<path d="M24.1949 0.956833C24.1949 0.428704 23.7673 0 23.2381 0C22.71 0 22.2812 0.428704 22.2812 0.956833V5.74099C22.2812 6.27019 22.71 6.6989 23.2381 6.6989C23.7673 6.6989 24.1949 6.27019 24.1949 5.74099V0.956833Z" fill="#898989"/>
</g>
<mask id="mask4_627_930" style="mask-type:luminance" maskUnits="userSpaceOnUse" x="30" y="0" width="3" height="7">
<path d="M30.3125 0H32.502V6.88919H30.3125V0Z" fill="white"/>
</mask>
<g mask="url(#mask4_627_930)">
<path d="M32.4918 0.956833C32.4918 0.428704 32.0631 0 31.535 0C31.0068 0 30.5781 0.428704 30.5781 0.956833V5.74099C30.5781 6.27019 31.0068 6.6989 31.535 6.6989C32.0631 6.6989 32.4918 6.27019 32.4918 5.74099V0.956833Z" fill="#898989"/>
</g>
<mask id="mask5_627_930" style="mask-type:luminance" maskUnits="userSpaceOnUse" x="38" y="0" width="3" height="7">
<path d="M38.7969 0H40.9864V6.88919H38.7969V0Z" fill="white"/>
</mask>
<g mask="url(#mask5_627_930)">
<path d="M40.7887 0.956833C40.7887 0.428704 40.36 0 39.8318 0C39.3026 0 38.875 0.428704 38.875 0.956833V5.74099C38.875 6.27019 39.3026 6.6989 39.8318 6.6989C40.36 6.6989 40.7887 6.27019 40.7887 5.74099V0.956833Z" fill="#898989"/>
</g>
<mask id="mask6_627_930" style="mask-type:luminance" maskUnits="userSpaceOnUse" x="0" y="15" width="29" height="30">
<path d="M0 15.2012H28.9038V44.1317H0V15.2012Z" fill="white"/>
</mask>
<g mask="url(#mask6_627_930)">
<path d="M14.4102 15.3115C18.3883 15.3115 21.9911 16.9237 24.5986 19.5323C27.2061 22.1398 28.8194 25.7426 28.8194 29.7217C28.8194 33.7009 27.2061 37.3037 24.5986 39.9112C21.9911 42.5187 18.3883 44.132 14.4102 44.132V42.2183C17.8612 42.2183 20.9851 40.8199 23.2462 38.5588C25.5073 36.2966 26.9057 33.1728 26.9057 29.7217C26.9057 26.2707 25.5073 23.1469 23.2462 20.8847C20.9851 18.6236 17.8612 17.2252 14.4102 17.2252V15.3115ZM14.4102 15.3115V17.2252C10.9592 17.2252 7.83534 18.6236 5.57422 20.8847C3.31203 23.1469 1.91367 26.2707 1.91367 29.7217C1.91367 33.1728 3.31203 36.2966 5.57422 38.5588C7.83534 40.8199 10.9592 42.2183 14.4102 42.2183V44.132C10.4311 44.132 6.82826 42.5187 4.22075 39.9112C1.61325 37.3037 0 33.7009 0 29.7217C0 25.7426 1.61325 22.1398 4.22075 19.5323C6.82826 16.9237 10.4311 15.3115 14.4102 15.3115Z" fill="#898989"/>
</g>
<path d="M40.127 14.3398H42.0407C42.3047 14.3398 42.5185 14.5547 42.5185 14.8188V18.753C42.5185 19.0171 42.3047 19.232 42.0407 19.232H40.127V18.2752H41.5617V15.2967H40.127V14.3398ZM38.2133 14.3398H40.127V15.2967H38.6923V18.2752H40.127V19.232H38.2133C37.9493 19.232 37.7344 19.0171 37.7344 18.753V14.8188C37.7344 14.5547 37.9493 14.3398 38.2133 14.3398Z" fill="#898989"/>
<path d="M32.6494 14.3398H34.563C34.8271 14.3398 35.0409 14.5547 35.0409 14.8188V18.753C35.0409 19.0171 34.8271 19.232 34.563 19.232H32.6494V18.2752H34.0841V15.2967H32.6494V14.3398ZM30.7357 14.3398H32.6494V15.2967H31.2146V18.2752H32.6494V19.232H30.7357C30.4716 19.232 30.2578 19.0171 30.2578 18.753V14.8188C30.2578 14.5547 30.4716 14.3398 30.7357 14.3398Z" fill="#898989"/>
<path d="M40.127 20.4561H42.0407C42.3047 20.4561 42.5185 20.6699 42.5185 20.935V24.8692C42.5185 25.1333 42.3047 25.3471 42.0407 25.3471H40.127V24.3903H41.5617V21.4129H40.127V20.4561ZM38.2133 20.4561H40.127V21.4129H38.6923V24.3903H40.127V25.3471H38.2133C37.9493 25.3471 37.7344 25.1333 37.7344 24.8692V20.935C37.7344 20.6699 37.9493 20.4561 38.2133 20.4561Z" fill="#898989"/>
<path d="M32.6494 20.4561H34.563C34.8271 20.4561 35.0409 20.6699 35.0409 20.935V24.8692C35.0409 25.1333 34.8271 25.3471 34.563 25.3471H32.6494V24.3903H34.0841V21.4129H32.6494V20.4561ZM30.7357 20.4561H32.6494V21.4129H31.2146V24.3903H32.6494V25.3471H30.7357C30.4716 25.3471 30.2578 25.1333 30.2578 24.8692V20.935C30.2578 20.6699 30.4716 20.4561 30.7357 20.4561Z" fill="#898989"/>
<path d="M40.127 26.5723H42.0407C42.3047 26.5723 42.5185 26.7861 42.5185 27.0501V30.9844C42.5185 31.2495 42.3047 31.4633 42.0407 31.4633H40.127V30.5065H41.5617V27.5291H40.127V26.5723ZM38.2133 26.5723H40.127V27.5291H38.6923V30.5065H40.127V31.4633H38.2133C37.9493 31.4633 37.7344 31.2495 37.7344 30.9844V27.0501C37.7344 26.7861 37.9493 26.5723 38.2133 26.5723Z" fill="#898989"/>
<path d="M32.6494 26.5723H34.563C34.8271 26.5723 35.0409 26.7861 35.0409 27.0501V30.9844C35.0409 31.2495 34.8271 31.4633 34.563 31.4633H32.6494V30.5065H34.0841V27.5291H32.6494V26.5723ZM30.7357 26.5723H32.6494V27.5291H31.2146V30.5065H32.6494V31.4633H30.7357C30.4716 31.4633 30.2578 31.2495 30.2578 30.9844V27.0501C30.2578 26.7861 30.4716 26.5723 30.7357 26.5723Z" fill="#898989"/>
<path d="M15.4293 20.0955C15.4293 19.5663 15.0017 19.1387 14.4725 19.1387C13.9443 19.1387 13.5156 19.5663 13.5156 20.0955V29.6638C13.5156 30.192 13.9443 30.6207 14.4725 30.6207C15.0017 30.6207 15.4293 30.192 15.4293 29.6638V20.0955Z" fill="#898989"/>
<path d="M15.0791 28.9249C14.6707 28.5924 14.0698 28.6544 13.7374 29.0628C13.4049 29.4722 13.4669 30.072 13.8753 30.4045L19.0785 34.6231C19.4869 34.9556 20.0877 34.8936 20.4202 34.4852C20.7516 34.0768 20.6907 33.476 20.2812 33.1435L15.0791 28.9249Z" fill="#898989"/>
</svg>
