<svg width="55" height="46" viewBox="0 0 55 46" fill="none" xmlns="http://www.w3.org/2000/svg">
<mask id="mask0_405_1869" style="mask-type:luminance" maskUnits="userSpaceOnUse" x="0" y="0" width="55" height="46">
<path d="M0.65625 0H54.9562V46H0.65625V0Z" fill="white"/>
</mask>
<g mask="url(#mask0_405_1869)">
<path d="M1.56099 33.4295H26.0007L17.7284 44.4673C17.625 44.604 17.5661 44.7563 17.5504 44.9269C17.536 45.0975 17.5661 45.259 17.6433 45.4113C17.7193 45.5636 17.8306 45.686 17.9759 45.7759C18.1225 45.8657 18.281 45.91 18.4525 45.91H37.1587C37.3302 45.91 37.4886 45.8657 37.634 45.7759C37.7806 45.686 37.8919 45.5636 37.9679 45.4113C38.0451 45.259 38.0752 45.0975 38.0595 44.9269C38.0451 44.7563 37.9849 44.604 37.8828 44.4673L29.6118 33.4295H54.0515C54.1707 33.4295 54.2872 33.4061 54.3972 33.3605C54.5085 33.3149 54.6067 33.2498 54.6918 33.1652C54.7756 33.0806 54.841 32.9829 54.8869 32.8722C54.9327 32.7616 54.9562 32.647 54.9562 32.5272V26.8774C54.9562 26.759 54.9327 26.6431 54.8869 26.5324C54.841 26.423 54.7756 26.3254 54.6918 26.2407C54.6067 26.1561 54.5085 26.091 54.3972 26.0441C54.2872 25.9985 54.1707 25.9764 54.0515 25.9764H52.3402C52.4136 25.8957 52.4882 25.8175 52.5576 25.7316C52.7802 25.4517 52.9687 25.1509 53.1219 24.828C53.2764 24.505 53.3916 24.1691 53.4689 23.8202C53.5448 23.4712 53.5815 23.1183 53.5775 22.7616C53.5749 22.4035 53.5304 22.0519 53.4453 21.7043L50.8555 10.9126C50.7979 10.6717 50.7219 10.436 50.6263 10.2056C50.5308 9.9764 50.4182 9.75635 50.2872 9.54411C50.1576 9.33187 50.011 9.13265 49.8486 8.94385C49.6862 8.75505 49.5108 8.58057 49.3196 8.42041C49.1298 8.25895 48.9282 8.11442 48.716 7.98551C48.5026 7.85661 48.28 7.74593 48.0496 7.65218C47.8192 7.55843 47.5822 7.48291 47.3386 7.42692C47.0964 7.36963 46.8503 7.33317 46.6028 7.31624L47.7341 4.2863C47.7786 4.16911 47.8152 4.05062 47.844 3.92822C47.8742 3.80713 47.8951 3.68343 47.9095 3.55973C47.9252 3.43473 47.9318 3.31104 47.9305 3.18604C47.9305 3.06104 47.9226 2.93604 47.9069 2.81104C47.8912 2.68734 47.8676 2.56494 47.8375 2.44385C47.8074 2.32145 47.7694 2.20296 47.7236 2.08577C47.6791 1.96989 47.628 1.85531 47.5691 1.74463C47.5102 1.63395 47.4447 1.52718 47.3727 1.42562C47.302 1.32275 47.2234 1.2238 47.1409 1.13135C47.0571 1.0376 46.9681 0.949056 46.8738 0.867025C46.7796 0.783691 46.6814 0.706868 46.5779 0.636556C46.4745 0.564941 46.3671 0.501139 46.2558 0.442546C46.1445 0.385254 46.0306 0.333171 45.9128 0.290202C45.795 0.245931 45.6758 0.208171 45.554 0.178223C45.4323 0.148275 45.3079 0.126139 45.1835 0.111816C45.0591 0.0961914 44.9334 0.0883789 44.809 0.0883789H39.0166C38.8909 0.0883789 38.7665 0.0961914 38.6408 0.111816C38.5165 0.126139 38.3934 0.149577 38.2716 0.178223C38.1499 0.208171 38.0307 0.245931 37.9129 0.290202C37.795 0.334473 37.6811 0.385254 37.5698 0.443848C37.4585 0.501139 37.3512 0.564941 37.2477 0.636556C37.1443 0.706868 37.0461 0.783691 36.9518 0.867025C36.8576 0.949056 36.7685 1.0376 36.686 1.13135C36.6022 1.2238 36.525 1.32275 36.453 1.42562C36.381 1.52848 36.3155 1.63395 36.2579 1.74463C36.199 1.85531 36.1466 1.96859 36.1021 2.08577C36.0576 2.20296 36.0196 2.32145 35.9882 2.44255C35.9581 2.56494 35.9345 2.68734 35.9188 2.81104C35.9031 2.93473 35.8952 3.05973 35.8952 3.18473C35.8939 3.30973 35.9004 3.43473 35.9148 3.55843C35.9293 3.68343 35.9515 3.80583 35.9816 3.92822C36.0104 4.04932 36.0471 4.16911 36.0903 4.2863L37.2189 7.31885C36.9702 7.33708 36.724 7.37354 36.4818 7.42952C36.2383 7.48551 36.0026 7.56104 35.7708 7.65479C35.5404 7.74854 35.3191 7.85921 35.1057 7.98812C34.8923 8.11703 34.6906 8.26156 34.5008 8.42171C34.3109 8.58187 34.1355 8.75635 33.9731 8.94515C33.8108 9.13395 33.6641 9.33317 33.5332 9.54541C33.4036 9.75635 33.2897 9.9777 33.1954 10.2069C33.0998 10.436 33.0226 10.6717 32.965 10.9126L30.3764 21.703C30.2926 22.0506 30.2481 22.4022 30.2442 22.7603C30.2403 23.117 30.2769 23.4699 30.3542 23.8188C30.4314 24.1678 30.5466 24.5037 30.6998 24.8267C30.8543 25.1496 31.0429 25.4504 31.2655 25.7303C31.3335 25.8162 31.4095 25.8944 31.4828 25.9751H19.3769C19.7147 25.7577 20.0394 25.5233 20.351 25.272C20.6639 25.0207 20.9611 24.7524 21.2453 24.4699C21.5281 24.186 21.7965 23.8879 22.0479 23.5767C22.2993 23.2642 22.5336 22.9399 22.7497 22.6027C22.9657 22.2655 23.1647 21.9178 23.3428 21.5597C23.5222 21.2017 23.6819 20.8345 23.822 20.4595C23.9621 20.0845 24.0812 19.703 24.1794 19.3149C24.2789 18.9269 24.3562 18.535 24.4125 18.1392C24.4701 17.7433 24.5055 17.3449 24.5186 16.9452C24.533 16.5441 24.5251 16.1457 24.4963 15.7459C24.4675 15.3462 24.4164 14.9504 24.3444 14.5558C24.2737 14.1626 24.1807 13.7733 24.0668 13.3905C23.9542 13.0063 23.8207 12.6287 23.6662 12.259C23.5117 11.8905 23.3389 11.5298 23.1464 11.1782C22.9539 10.8267 22.7418 10.4868 22.5127 10.1587C22.2836 9.83057 22.0374 9.51416 21.7742 9.21208C21.5111 8.90999 21.2322 8.62223 20.9389 8.3501C20.6443 8.07796 20.3366 7.82145 20.0158 7.58187C19.6937 7.34229 19.3598 7.11963 19.0142 6.9165C18.6698 6.71208 18.3137 6.52718 17.9484 6.36051C17.5831 6.19385 17.2099 6.04801 16.8289 5.92171C16.4479 5.79541 16.0617 5.68994 15.6689 5.60531C15.2761 5.51937 14.8807 5.45557 14.4813 5.4139C14.082 5.37093 13.6813 5.3488 13.2807 5.3488C12.8787 5.3488 12.4781 5.37093 12.0787 5.4139C11.6794 5.45557 11.284 5.51937 10.8912 5.60531C10.4984 5.68994 10.1121 5.79541 9.73113 5.92171C9.35011 6.04801 8.97696 6.19385 8.61166 6.36051C8.24636 6.52718 7.89154 6.71208 7.54588 6.9165C7.20022 7.11963 6.86634 7.34229 6.54556 7.58187C6.22347 7.82145 5.91578 8.07796 5.62118 8.3501C5.32789 8.62223 5.04901 8.90999 4.78584 9.21208C4.52266 9.51416 4.27651 9.83057 4.04738 10.1587C3.81825 10.4868 3.60745 10.8267 3.41367 11.1782C3.2212 11.5298 3.04837 11.8905 2.89387 12.259C2.74068 12.6287 2.60713 13.0063 2.49322 13.3905C2.37931 13.7733 2.28635 14.1626 2.21565 14.5558C2.14363 14.9504 2.09257 15.3462 2.06377 15.7459C2.03496 16.1457 2.02711 16.5441 2.04151 16.9452C2.0546 17.3449 2.08995 17.7433 2.14756 18.1392C2.20386 18.535 2.28111 18.9269 2.38062 19.3149C2.47882 19.703 2.59797 20.0845 2.73806 20.4595C2.87816 20.8345 3.0379 21.2017 3.21727 21.5597C3.39665 21.9178 3.59436 22.2655 3.81039 22.6027C4.02774 22.9399 4.2608 23.2642 4.51219 23.5767C4.76358 23.8879 5.03199 24.186 5.3148 24.4699C5.59892 24.7524 5.89614 25.0207 6.20906 25.272C6.52068 25.5233 6.84539 25.7577 7.1832 25.9751H1.56099C1.44184 25.9751 1.32531 25.9985 1.21533 26.0441C1.10404 26.0897 1.00584 26.1548 0.920732 26.2394C0.836936 26.3241 0.77147 26.4217 0.725644 26.5324C0.679818 26.6431 0.65625 26.7577 0.65625 26.8774V32.5272C0.65625 32.647 0.679818 32.7616 0.725644 32.8722C0.77147 32.9829 0.836936 33.0806 0.920732 33.1652C1.00584 33.2498 1.10404 33.3149 1.21533 33.3605C1.32531 33.4061 1.44184 33.4295 1.56099 33.4295ZM20.258 44.1066L27.8062 34.0337L35.3545 44.1066H20.258ZM37.9364 2.45817C38.0569 2.28109 38.214 2.14176 38.4039 2.0415C38.595 1.94124 38.798 1.89176 39.014 1.89307H44.8064C44.9112 1.89307 45.0159 1.90609 45.1193 1.93083C45.2215 1.95557 45.3197 1.99333 45.4139 2.0415C45.5069 2.09098 45.5946 2.14958 45.6732 2.21989C45.7531 2.2889 45.8225 2.36702 45.8827 2.45426C45.9429 2.5415 45.9927 2.63395 46.0306 2.73161C46.0686 2.83057 46.0935 2.93213 46.1066 3.0363C46.1197 3.14176 46.121 3.24593 46.1092 3.3514C46.0961 3.45557 46.0712 3.55713 46.0346 3.65609L44.6768 7.2863H39.141L37.7832 3.65609C37.7073 3.45687 37.6837 3.24984 37.7099 3.0389C37.7374 2.82666 37.812 2.63265 37.9364 2.45817ZM32.1362 22.1222L34.7273 11.3345C34.764 11.1756 34.815 11.022 34.8792 10.8709C34.9433 10.7212 35.0193 10.5767 35.107 10.4399C35.1947 10.3019 35.2942 10.173 35.4042 10.0519C35.5142 9.93083 35.6333 9.82015 35.7617 9.71859C35.89 9.61702 36.0261 9.52848 36.1702 9.44906C36.3142 9.37093 36.4635 9.30583 36.618 9.25244C36.7725 9.19906 36.9309 9.15999 37.0919 9.13265C37.2543 9.10661 37.4166 9.09359 37.5803 9.09359H46.2454C46.409 9.09359 46.5714 9.10661 46.7337 9.13265C46.8948 9.15999 47.0532 9.20036 47.2077 9.25244C47.3622 9.30583 47.5115 9.37223 47.6555 9.45036C47.7982 9.52848 47.9344 9.61833 48.0627 9.71989C48.1923 9.82015 48.3115 9.93083 48.4201 10.0519C48.5301 10.173 48.6296 10.3032 48.7174 10.4399C48.8051 10.578 48.881 10.7225 48.9452 10.8722C49.008 11.022 49.0591 11.1769 49.0971 11.3358L51.6869 22.1222C51.7131 22.2303 51.7327 22.3384 51.7458 22.4478C51.7589 22.5558 51.7668 22.6665 51.7681 22.7759C51.7681 22.8866 51.7628 22.9959 51.7523 23.1053C51.7406 23.2147 51.7222 23.3228 51.6987 23.4308C51.6751 23.5376 51.645 23.6444 51.6096 23.7485C51.5743 23.8527 51.5324 23.9543 51.4852 24.0532C51.4381 24.1522 51.3857 24.2498 51.3268 24.3423C51.2692 24.436 51.2064 24.5259 51.137 24.6131C51.0689 24.6991 50.9956 24.7811 50.9183 24.8592C50.8411 24.9373 50.7586 25.0116 50.6722 25.0806C50.5871 25.1496 50.4967 25.2134 50.4038 25.272C50.3108 25.3306 50.2139 25.384 50.1144 25.4321C50.0149 25.4803 49.9141 25.522 49.8093 25.5597C49.7059 25.5962 49.5998 25.6261 49.4925 25.6509C49.3838 25.6756 49.2751 25.6938 49.1664 25.7069C49.0565 25.7186 48.9465 25.7251 48.8352 25.7251H34.9892C34.8792 25.7251 34.7692 25.7186 34.6592 25.7069C34.5492 25.6938 34.4406 25.6756 34.3332 25.6509C34.2258 25.6261 34.1198 25.5962 34.015 25.5597C33.9116 25.5233 33.8095 25.4803 33.71 25.4321C33.6105 25.384 33.5149 25.3306 33.4206 25.272C33.3276 25.2134 33.2386 25.1496 33.1522 25.0806C33.0658 25.0116 32.9846 24.9386 32.906 24.8592C32.8288 24.7811 32.7555 24.6991 32.6874 24.6131C32.6193 24.5272 32.5551 24.436 32.4975 24.3436C32.4386 24.2498 32.3862 24.1535 32.3391 24.0532C32.292 23.9543 32.2501 23.8527 32.2147 23.7485C32.1781 23.6444 32.1493 23.5389 32.1257 23.4308C32.1008 23.3228 32.0838 23.2147 32.072 23.1053C32.0602 22.9959 32.055 22.8866 32.0563 22.7759C32.0576 22.6665 32.0641 22.5558 32.0786 22.4478C32.0916 22.3384 32.1113 22.2303 32.1362 22.1222ZM3.84444 16.5715C3.84444 16.2629 3.86015 15.9556 3.89026 15.6496C3.92038 15.3423 3.9662 15.0389 4.02643 14.7368C4.08666 14.4347 4.16129 14.1366 4.25163 13.841C4.34067 13.5467 4.44541 13.2563 4.56325 12.9725C4.68109 12.6873 4.81333 12.41 4.95867 12.1379C5.10531 11.867 5.26374 11.6027 5.43526 11.3462C5.60678 11.091 5.79139 10.8436 5.98648 10.6053C6.18288 10.367 6.38975 10.1392 6.60841 9.92171C6.82706 9.70426 7.05619 9.49723 7.29449 9.30192C7.53409 9.10661 7.78155 8.92301 8.03818 8.75244C8.29611 8.58057 8.5606 8.42301 8.83294 8.27848C9.10527 8.13265 9.38416 8.00114 9.66959 7.88395C9.95502 7.76546 10.2457 7.6613 10.5416 7.57275C10.8375 7.48291 11.1373 7.40869 11.4398 7.3488C11.7435 7.2876 12.0486 7.24333 12.3563 7.21338C12.664 7.18343 12.9717 7.16781 13.2807 7.16781C13.5897 7.16781 13.8987 7.18343 14.2051 7.21338C14.5128 7.24333 14.8178 7.2889 15.1216 7.3488C15.424 7.40869 15.7239 7.48291 16.0198 7.57275C16.3157 7.6626 16.6064 7.76546 16.8918 7.88395C17.1772 8.00114 17.4561 8.13265 17.7284 8.27848C18.0008 8.42301 18.2653 8.58187 18.5232 8.75244C18.7798 8.92432 19.0273 9.10791 19.2669 9.30322C19.5052 9.49854 19.7343 9.70426 19.953 9.92301C20.1703 10.1405 20.3785 10.3683 20.5736 10.6066C20.77 10.8449 20.9546 11.091 21.1261 11.3475C21.2976 11.604 21.4561 11.867 21.6014 12.1392C21.7467 12.4113 21.879 12.6886 21.9981 12.9738C22.116 13.2577 22.2194 13.548 22.3097 13.8423C22.3988 14.1366 22.4747 14.436 22.5349 14.7381C22.5952 15.0402 22.6397 15.3436 22.6698 15.6509C22.6999 15.9569 22.7156 16.2642 22.7156 16.5728C22.7156 16.88 22.6999 17.1873 22.6698 17.4933C22.6397 17.8006 22.5952 18.1053 22.5349 18.4074C22.4734 18.7095 22.3988 19.0077 22.3097 19.3019C22.2194 19.5962 22.116 19.8866 21.9968 20.1704C21.879 20.4556 21.7467 20.7329 21.6014 21.005C21.4561 21.2772 21.2976 21.5402 21.1248 21.7967C20.9533 22.0532 20.77 22.2993 20.5736 22.5376C20.3772 22.7759 20.1703 23.0037 19.9517 23.2212C19.733 23.4399 19.5052 23.6457 19.2656 23.841C19.0273 24.0363 18.7785 24.2199 18.5219 24.3918C18.2653 24.5623 18.0008 24.7199 17.7284 24.8657C17.4548 25.0103 17.1759 25.1418 16.8905 25.2603C16.605 25.3787 16.3144 25.4816 16.0185 25.5715C15.7239 25.66 15.424 25.7355 15.1203 25.7954C14.8178 25.8553 14.5128 25.9009 14.2051 25.9308C13.8974 25.9608 13.5897 25.9764 13.2807 25.9764C12.9717 25.9751 12.6627 25.9608 12.355 25.9295C12.0486 25.8996 11.7435 25.854 11.4398 25.7941C11.1373 25.7329 10.8375 25.6587 10.5416 25.5688C10.247 25.479 9.95633 25.3748 9.6709 25.2577C9.38547 25.1392 9.10658 25.0077 8.83424 24.8618C8.56191 24.7173 8.29742 24.5584 8.0408 24.3879C7.78286 24.216 7.5354 24.0337 7.29711 23.8384C7.0575 23.6431 6.82968 23.436 6.61102 23.2186C6.39237 22.9998 6.1855 22.772 5.9891 22.535C5.7927 22.2967 5.6094 22.0493 5.43788 21.7941C5.26636 21.5376 5.10793 21.2733 4.96128 21.0024C4.81595 20.7303 4.68371 20.453 4.56587 20.1678C4.44672 19.884 4.34329 19.5949 4.25294 19.2993C4.1626 19.005 4.08797 18.7069 4.02774 18.4048C3.96751 18.1027 3.92169 17.7993 3.89157 17.492C3.86015 17.186 3.84444 16.8787 3.84444 16.5715ZM2.46573 27.7798H53.1468V31.6261H2.46573V27.7798Z" fill="#E6AE00"/>
</g>
<path d="M13.2748 12.1305C13.3914 12.1305 13.5066 12.1423 13.6205 12.1644C13.7344 12.1865 13.8457 12.2204 13.953 12.2646C14.0617 12.3102 14.1638 12.3649 14.2607 12.4287C14.3576 12.4938 14.4467 12.5667 14.5291 12.6488C14.6116 12.7308 14.685 12.8206 14.7504 12.917C14.8146 13.0133 14.8696 13.1149 14.9141 13.223C14.9586 13.3298 14.9926 13.4404 15.0149 13.555C15.0385 13.6683 15.0503 13.7842 15.0503 13.9001C15.0503 14.0199 15.0725 14.1344 15.1183 14.2451C15.1642 14.3558 15.2296 14.4535 15.3147 14.5381C15.3998 14.6227 15.498 14.6878 15.608 14.7334C15.7193 14.779 15.8345 14.8024 15.955 14.8024C16.0755 14.8024 16.1907 14.779 16.3007 14.7334C16.4119 14.6878 16.5101 14.6227 16.5953 14.5381C16.679 14.4535 16.7445 14.3558 16.7916 14.2451C16.8375 14.1344 16.8597 14.0199 16.8597 13.9001C16.8597 13.7035 16.8427 13.5094 16.81 13.3167C16.7772 13.124 16.7288 12.9339 16.6646 12.749C16.6005 12.5641 16.5219 12.3857 16.429 12.2126C16.336 12.0407 16.2286 11.8779 16.1082 11.723C15.9877 11.568 15.8555 11.4235 15.7115 11.2907C15.5674 11.1579 15.4129 11.0381 15.2493 10.93C15.0856 10.8219 14.9128 10.7282 14.7334 10.6488C14.554 10.5693 14.3694 10.5055 14.1796 10.4561V9.93132C14.1796 9.81283 14.156 9.69694 14.1102 9.58626C14.0643 9.47689 13.9989 9.37923 13.9138 9.2946C13.83 9.20996 13.7318 9.14486 13.6205 9.09798C13.5092 9.05241 13.394 9.03027 13.2748 9.03027C13.1544 9.03027 13.0391 9.05241 12.9279 9.09798C12.8166 9.14486 12.7197 9.20996 12.6346 9.2946C12.5495 9.37923 12.484 9.47689 12.4382 9.58626C12.3923 9.69694 12.3688 9.81283 12.3688 9.93132V10.4561C12.1606 10.5094 11.9576 10.5824 11.7613 10.6722C11.5649 10.7633 11.3789 10.8701 11.2022 10.9951C11.0267 11.1188 10.8618 11.2581 10.7112 11.4118C10.5593 11.5654 10.4231 11.7308 10.3027 11.9092C10.1809 12.0876 10.0775 12.2764 9.98975 12.473C9.90333 12.6696 9.83525 12.8727 9.78549 13.0824C9.73443 13.292 9.70432 13.5042 9.69253 13.7191C9.68075 13.9352 9.68991 14.1488 9.71741 14.3623C9.7449 14.5758 9.79073 14.7855 9.8562 14.9912C9.92297 15.1956 10.0055 15.3936 10.1076 15.5837C10.2084 15.7738 10.3262 15.9535 10.4611 16.1214C10.5947 16.2907 10.7439 16.4456 10.9063 16.5876C11.0686 16.7295 11.2415 16.8558 11.4274 16.9665C11.6133 17.0771 11.8071 17.1709 12.0087 17.2464C12.2117 17.3219 12.4185 17.3792 12.6306 17.417C12.8441 17.4548 13.0588 17.4743 13.2748 17.473C13.3914 17.473 13.5066 17.4847 13.6205 17.5068C13.7344 17.5303 13.8457 17.5641 13.9544 17.6084C14.0617 17.6527 14.1638 17.7074 14.2607 17.7712C14.3576 17.8363 14.448 17.9092 14.5305 17.9912C14.6116 18.0745 14.6863 18.1631 14.7504 18.2594C14.8159 18.3571 14.8696 18.4587 14.9141 18.5654C14.9599 18.6735 14.9926 18.7842 15.0162 18.8975C15.0385 19.012 15.0503 19.1266 15.0503 19.2438C15.0503 19.3597 15.0385 19.4743 15.0162 19.5889C14.9926 19.7021 14.9599 19.8128 14.9141 19.9209C14.8696 20.0277 14.8159 20.1292 14.7504 20.2269C14.6863 20.3232 14.6116 20.4118 14.5305 20.4951C14.448 20.5771 14.3576 20.6501 14.2607 20.7152C14.1638 20.779 14.0617 20.8337 13.9544 20.8779C13.8457 20.9222 13.7344 20.9561 13.6205 20.9795C13.5066 21.0016 13.3914 21.0133 13.2748 21.0133C13.1583 21.0133 13.0418 21.0016 12.9279 20.9795C12.8139 20.9561 12.7027 20.9222 12.5953 20.8779C12.4866 20.8337 12.3845 20.779 12.2876 20.7152C12.1907 20.6501 12.1017 20.5771 12.0192 20.4951C11.9367 20.4118 11.8621 20.3232 11.7979 20.2269C11.7338 20.1292 11.6788 20.0277 11.6342 19.9209C11.5897 19.8128 11.5557 19.7021 11.5334 19.5889C11.5099 19.4743 11.4981 19.3597 11.4981 19.2438C11.4981 19.124 11.4758 19.0081 11.43 18.8975C11.3842 18.7881 11.3187 18.6904 11.2336 18.6058C11.1485 18.5212 11.0503 18.4561 10.9403 18.4105C10.829 18.3636 10.7138 18.3415 10.5933 18.3415C10.4742 18.3415 10.3577 18.3636 10.2477 18.4105C10.1364 18.4561 10.0382 18.5212 9.95309 18.6058C9.86929 18.6904 9.80382 18.7881 9.758 18.8975C9.71217 19.0081 9.6886 19.124 9.6886 19.2438C9.6886 19.4391 9.70562 19.6331 9.73836 19.8258C9.77109 20.0199 9.81953 20.2087 9.88369 20.3936C9.94785 20.5785 10.0264 20.7581 10.1194 20.93C10.2123 21.1019 10.3197 21.266 10.4402 21.4209C10.5606 21.5745 10.6928 21.7191 10.8369 21.8519C10.9809 21.9847 11.1354 22.1058 11.2991 22.2126C11.464 22.3206 11.6356 22.4144 11.8149 22.4938C11.9943 22.5732 12.1789 22.6383 12.3688 22.6865V23.2113C12.3688 23.3311 12.3923 23.4456 12.4382 23.5563C12.484 23.667 12.5495 23.7646 12.6346 23.8493C12.7197 23.9339 12.8166 23.999 12.9279 24.0446C13.0391 24.0902 13.1544 24.1136 13.2748 24.1136C13.394 24.1136 13.5092 24.0902 13.6205 24.0446C13.7318 23.999 13.83 23.9339 13.9138 23.8493C13.9989 23.7646 14.0643 23.667 14.1102 23.5563C14.156 23.4456 14.1796 23.3311 14.1796 23.2113V22.6865C14.3891 22.6331 14.5907 22.5602 14.7871 22.4704C14.9835 22.3792 15.1694 22.2725 15.3462 22.1488C15.5229 22.0238 15.6866 21.8857 15.8372 21.7321C15.989 21.5771 16.1252 21.4118 16.2457 21.2334C16.3674 21.055 16.4709 20.8675 16.5586 20.6696C16.645 20.473 16.7131 20.2699 16.7642 20.0602C16.8139 19.8506 16.844 19.6383 16.8558 19.4235C16.8676 19.2087 16.8597 18.9938 16.8309 18.7803C16.8034 18.5667 16.7576 18.3571 16.6921 18.1527C16.6267 17.9469 16.5429 17.749 16.4408 17.5589C16.3399 17.3688 16.2221 17.1904 16.0872 17.0212C15.9537 16.8519 15.8057 16.6969 15.6434 16.555C15.481 16.4131 15.3069 16.2868 15.121 16.1761C14.9363 16.0654 14.7426 15.9717 14.5396 15.8962C14.338 15.8206 14.1298 15.7646 13.9177 15.7256C13.7043 15.6878 13.4909 15.6696 13.2748 15.6696C13.1583 15.6696 13.0418 15.6579 12.9279 15.6357C12.8139 15.6123 12.7027 15.5785 12.5953 15.5342C12.4879 15.4899 12.3858 15.4352 12.2889 15.3701C12.192 15.3063 12.1017 15.2321 12.0205 15.1501C11.938 15.068 11.8634 14.9795 11.7992 14.8818C11.7351 14.7855 11.6801 14.6839 11.6356 14.5771C11.591 14.4691 11.557 14.3584 11.5347 14.2451C11.5112 14.1305 11.5007 14.016 11.5007 13.9001C11.5007 13.7842 11.5112 13.6683 11.5347 13.555C11.557 13.4404 11.591 13.3298 11.6356 13.223C11.6801 13.1162 11.7351 13.0133 11.7992 12.917C11.8634 12.8206 11.938 12.7308 12.0205 12.6488C12.1017 12.5667 12.192 12.4938 12.2889 12.4287C12.3858 12.3649 12.4879 12.3102 12.5953 12.2646C12.7027 12.2204 12.8139 12.1865 12.9279 12.1644C13.0418 12.1423 13.1583 12.1305 13.2748 12.1305Z" fill="#E6AE00"/>
<path d="M41.9109 21.1393C41.8114 21.1393 41.7132 21.1302 41.6163 21.1107C41.5181 21.0911 41.4239 21.0625 41.3322 21.0247C41.2405 20.987 41.1528 20.9401 41.0703 20.8854C40.9878 20.8294 40.9106 20.7669 40.8412 20.6966C40.7705 20.6276 40.7077 20.5508 40.6527 20.4688C40.5977 20.3867 40.5505 20.2995 40.5126 20.2083C40.4746 20.1159 40.4458 20.0221 40.4262 19.9245C40.4065 19.8281 40.3973 19.7292 40.3973 19.6302C40.3973 19.5117 40.3738 19.3958 40.328 19.2852C40.2821 19.1745 40.2167 19.0781 40.1316 18.9935C40.0464 18.9089 39.9496 18.8438 39.8383 18.7969C39.727 18.7513 39.6118 18.7292 39.4913 18.7292C39.3722 18.7292 39.2569 18.7513 39.1456 18.7969C39.0343 18.8438 38.9375 18.9089 38.8524 18.9935C38.7672 19.0781 38.7018 19.1745 38.656 19.2852C38.6101 19.3958 38.5866 19.5117 38.5866 19.6302C38.5879 19.8099 38.6023 19.987 38.6324 20.1628C38.6612 20.3385 38.7044 20.5117 38.762 20.681C38.8196 20.8503 38.8903 21.013 38.9741 21.1706C39.0592 21.3281 39.1548 21.4779 39.2635 21.6211C39.3722 21.763 39.4913 21.8958 39.6209 22.0182C39.7505 22.1406 39.8893 22.2526 40.0386 22.3529C40.1865 22.4544 40.341 22.5417 40.5034 22.6172C40.6658 22.6927 40.8333 22.7552 41.0062 22.8034V23.2109C41.0062 23.3307 41.0284 23.4453 41.0743 23.556C41.1214 23.6667 41.1869 23.7643 41.2707 23.849C41.3558 23.9336 41.454 23.9987 41.5653 24.0443C41.6752 24.0898 41.7905 24.1133 41.9109 24.1133C42.0314 24.1133 42.1466 24.0898 42.2579 24.0443C42.3679 23.9987 42.4661 23.9336 42.5512 23.849C42.6363 23.7643 42.7017 23.6667 42.7476 23.556C42.7934 23.4453 42.8157 23.3307 42.8157 23.2109V22.8034C43.0068 22.75 43.1927 22.6797 43.3708 22.5924C43.5502 22.5065 43.7204 22.4036 43.8801 22.2865C44.0412 22.1693 44.1891 22.0391 44.3266 21.8958C44.4628 21.7513 44.5859 21.5977 44.6945 21.431C44.8032 21.2656 44.8962 21.0911 44.9747 20.9089C45.052 20.7266 45.1122 20.5378 45.1554 20.3451C45.1999 20.151 45.2248 19.9557 45.234 19.7578C45.2418 19.5599 45.2313 19.3633 45.2052 19.1667C45.1777 18.9701 45.1318 18.7773 45.0703 18.5898C45.0088 18.401 44.9302 18.2201 44.8346 18.0456C44.7404 17.8724 44.6304 17.707 44.506 17.5534C44.3816 17.3984 44.2441 17.2565 44.0935 17.1263C43.9443 16.9961 43.7832 16.8815 43.6117 16.7799C43.4415 16.6784 43.2621 16.5938 43.0762 16.5247C42.8903 16.4557 42.6991 16.4036 42.5027 16.3685C42.3076 16.3346 42.1099 16.3177 41.9109 16.3177C41.8114 16.3177 41.7132 16.3086 41.615 16.2891C41.5181 16.2695 41.4239 16.2409 41.3322 16.2031C41.2392 16.1654 41.1528 16.1185 41.0703 16.0638C40.9865 16.0078 40.9106 15.9453 40.8399 15.8763C40.7705 15.806 40.7077 15.7292 40.6527 15.6471C40.5964 15.5651 40.5505 15.4779 40.5126 15.3867C40.4746 15.2943 40.4458 15.2005 40.4262 15.1029C40.4065 15.0065 40.3973 14.9076 40.3973 14.8086C40.3973 14.7096 40.4065 14.612 40.4262 14.5143C40.4458 14.4167 40.4746 14.3229 40.5126 14.2318C40.5505 14.1393 40.5964 14.0521 40.6527 13.9701C40.7077 13.888 40.7705 13.8112 40.8399 13.7422C40.9106 13.6719 40.9865 13.6094 41.0703 13.5534C41.1528 13.4987 41.2392 13.4518 41.3322 13.4141C41.4239 13.3763 41.5181 13.3477 41.615 13.3281C41.7132 13.3099 41.8114 13.2995 41.9109 13.2995C42.0104 13.2995 42.1086 13.3099 42.2068 13.3281C42.3037 13.3477 42.398 13.3763 42.4909 13.4141C42.5826 13.4518 42.669 13.4987 42.7528 13.5534C42.8353 13.6094 42.9112 13.6719 42.9819 13.7422C43.0513 13.8112 43.1142 13.888 43.1705 13.9701C43.2255 14.0521 43.2713 14.1393 43.3093 14.2318C43.3472 14.3229 43.376 14.4167 43.3957 14.5143C43.4153 14.612 43.4245 14.7096 43.4245 14.8086C43.4245 14.9284 43.4481 15.043 43.4939 15.1536C43.5397 15.2643 43.6052 15.362 43.6903 15.4466C43.7754 15.5313 43.8723 15.5964 43.9836 15.6419C44.0949 15.6875 44.2101 15.7109 44.3305 15.7109C44.4497 15.7109 44.5649 15.6875 44.6762 15.6419C44.7875 15.5964 44.8857 15.5313 44.9695 15.4466C45.0546 15.362 45.1201 15.2643 45.1659 15.1536C45.2117 15.043 45.2353 14.9284 45.2353 14.8086C45.234 14.6302 45.2196 14.4531 45.1908 14.276C45.1606 14.1003 45.1174 13.9271 45.0598 13.7578C45.0022 13.5885 44.9315 13.4258 44.8477 13.2682C44.7639 13.1094 44.667 12.9596 44.5597 12.8177C44.451 12.6758 44.3318 12.543 44.2009 12.4193C44.0713 12.2969 43.9325 12.1849 43.7846 12.0846C43.6366 11.9844 43.4808 11.8958 43.3184 11.8203C43.1561 11.7448 42.9885 11.6836 42.8157 11.6341V11.2266C42.8157 11.1068 42.7934 10.9909 42.7476 10.8802C42.7017 10.7708 42.6363 10.6732 42.5512 10.5885C42.4661 10.5039 42.3679 10.4388 42.2579 10.3932C42.1466 10.3464 42.0314 10.3242 41.9109 10.3242C41.7905 10.3242 41.6752 10.3464 41.5653 10.3932C41.454 10.4388 41.3558 10.5039 41.2707 10.5885C41.1869 10.6732 41.1214 10.7708 41.0743 10.8802C41.0284 10.9909 41.0062 11.1068 41.0062 11.2266V11.6341C40.815 11.6875 40.6291 11.7578 40.451 11.8451C40.2717 11.931 40.1028 12.0339 39.9417 12.151C39.782 12.2682 39.6327 12.3984 39.4965 12.5417C39.3591 12.6862 39.236 12.8398 39.1273 13.0065C39.0186 13.1719 38.9257 13.3464 38.8471 13.5286C38.7699 13.7109 38.7096 13.8997 38.6664 14.0924C38.6232 14.2865 38.597 14.4818 38.5892 14.6797C38.58 14.8776 38.5905 15.0742 38.618 15.2708C38.6455 15.4674 38.69 15.6602 38.7515 15.8477C38.8144 16.0365 38.8916 16.2174 38.9872 16.3919C39.0815 16.5651 39.1915 16.7305 39.3159 16.8841C39.4402 17.0391 39.5777 17.181 39.7283 17.3112C39.8789 17.4414 40.0386 17.556 40.2101 17.6576C40.3803 17.7591 40.5597 17.8438 40.7456 17.9128C40.9329 17.9818 41.124 18.0339 41.3191 18.069C41.5155 18.1029 41.7119 18.1211 41.9109 18.1198C42.0104 18.1198 42.1086 18.1289 42.2068 18.1484C42.3037 18.168 42.398 18.1966 42.4909 18.2344C42.5826 18.2721 42.669 18.319 42.7528 18.3737C42.8353 18.4297 42.9112 18.4922 42.9819 18.5625C43.0513 18.6315 43.1142 18.7083 43.1705 18.7904C43.2255 18.8724 43.2713 18.9596 43.3093 19.0508C43.3472 19.1432 43.376 19.237 43.3957 19.3346C43.4153 19.4323 43.4245 19.5299 43.4245 19.6289C43.4245 19.7279 43.4153 19.8255 43.3957 19.9232C43.376 20.0208 43.3472 20.1146 43.3093 20.207C43.2713 20.2982 43.2255 20.3854 43.1705 20.4674C43.1142 20.5495 43.0513 20.6263 42.9819 20.6953C42.9112 20.7656 42.8353 20.8281 42.7528 20.8841C42.669 20.9388 42.5826 20.9857 42.4909 21.0234C42.398 21.0612 42.3037 21.0898 42.2068 21.1094C42.1086 21.1289 42.0104 21.138 41.9109 21.138V21.1393Z" fill="#E6AE00"/>
</svg>
