<svg width="59" height="57" viewBox="0 0 59 57" fill="none" xmlns="http://www.w3.org/2000/svg">
<mask id="mask0_405_1903" style="mask-type:luminance" maskUnits="userSpaceOnUse" x="0" y="17" width="39" height="40">
<path d="M0.109375 17.8911H38.1181V56.698H0.109375V17.8911Z" fill="white"/>
</mask>
<g mask="url(#mask0_405_1903)">
<path d="M6.84517 20.051C6.50531 20.051 6.18401 20.2044 5.83951 20.5043C5.78499 20.5551 5.14819 21.1584 4.80948 21.479L4.59606 21.6809C2.82136 23.3351 2.01984 26.3146 2.54993 29.2757C2.72276 30.2401 2.99999 31.2379 3.37581 32.2426C5.27462 37.3296 8.88549 41.758 11.5812 44.5761C14.2641 47.4138 18.5048 51.2458 23.4995 53.4109C24.4854 53.8377 25.4702 54.1665 26.426 54.3903C29.3641 55.0766 32.3915 54.4387 34.1396 52.7627L34.375 52.5412C34.7103 52.224 35.3076 51.661 35.3958 51.5757C36.4212 50.5225 35.876 49.6147 33.7255 47.4345L33.1687 46.8635C31.7768 45.4251 29.4476 43.0038 27.5117 43.2426C27.0037 43.3026 26.4492 43.6879 25.8634 44.0951C25.287 44.4965 24.6339 44.9521 23.8742 45.1921C21.8454 45.83 19.7842 45.4112 18.0768 44.0086C17.0723 43.1826 16.0516 42.2183 15.1225 41.2182C14.1864 40.2561 13.2747 39.188 12.5022 38.1452C11.188 36.3688 10.8759 34.2959 11.6276 32.3083C11.9083 31.5655 12.3978 30.9391 12.8316 30.3866C13.27 29.8248 13.6853 29.2953 13.7735 28.7924C14.1052 26.8764 11.8155 24.4275 10.4479 22.9648L9.90739 22.3811C8.47371 20.8158 7.60956 20.051 6.84517 20.051ZM28.8004 56.7019C27.7924 56.7019 26.8227 56.5808 25.9586 56.379C24.8845 56.1275 23.7814 55.7584 22.6817 55.2831C17.3692 52.9807 12.9047 48.9537 10.0953 45.9811C7.27202 43.0292 3.47788 38.3678 1.45612 32.9555C1.03854 31.8354 0.727679 30.7188 0.53397 29.6345C0.0166396 26.7507 0.444655 22.7537 3.19602 20.1929L3.39901 19.9991C3.76554 19.6519 4.46614 18.9886 4.49282 18.9655C7.29754 16.5097 9.77864 19.2135 11.4199 21.0026L11.9466 21.5725C13.5728 23.3132 16.2975 26.2258 15.7917 29.1396C15.6166 30.1489 14.9937 30.9426 14.4451 31.6439C14.0692 32.1238 13.7143 32.576 13.5438 33.0293C13.0392 34.3639 13.2492 35.7147 14.1504 36.9317C14.8696 37.9029 15.7187 38.8996 16.6083 39.8143C17.4922 40.7648 18.4457 41.6646 19.3794 42.4317C20.5509 43.3949 21.893 43.6752 23.2571 43.2449C23.7187 43.0996 24.192 42.7697 24.6919 42.4213C25.4238 41.9114 26.252 41.3358 27.2704 41.2159C30.2167 40.8687 32.9866 43.734 34.643 45.4458L35.187 46.003C36.8909 47.7321 39.4671 50.3449 36.8526 53.0118C36.8515 53.013 36.8515 53.013 36.8503 53.0141C36.826 53.0383 36.1509 53.6762 35.7832 54.0246L35.5558 54.2369C33.664 56.0502 31.1307 56.7019 28.8004 56.7019Z" fill="#E6AE00"/>
</g>
<mask id="mask1_405_1903" style="mask-type:luminance" maskUnits="userSpaceOnUse" x="29" y="0" width="3" height="7">
<path d="M29.2109 0H31.5865V6.96499H29.2109V0Z" fill="white"/>
</mask>
<g mask="url(#mask1_405_1903)">
<path d="M30.3434 6.8527C29.7785 6.8527 29.3203 6.3959 29.3203 5.83183V1.02624C29.3203 0.462167 29.7785 0.00537109 30.3434 0.00537109C30.9094 0.00537109 31.3688 0.462167 31.3688 1.02624V5.83183C31.3688 6.3959 30.9094 6.8527 30.3434 6.8527Z" fill="#E6AE00"/>
</g>
<path d="M26.0804 7.6687C25.6071 7.6687 25.1826 7.33994 25.0805 6.86007L24.0772 2.15946C23.96 1.60807 24.3126 1.06592 24.8659 0.948258C25.418 0.829445 25.9632 1.18358 26.0804 1.73496L27.0837 6.43558C27.2009 6.98696 26.8471 7.52912 26.2938 7.64678C26.223 7.66177 26.1511 7.6687 26.0804 7.6687Z" fill="#E6AE00"/>
<path d="M22.0804 9.35029C21.6883 9.35029 21.3137 9.1242 21.1443 8.74469L19.1817 4.35437C18.9532 3.83875 19.1852 3.23546 19.7013 3.0059C20.2198 2.77751 20.8242 3.00936 21.0538 3.52384L23.0153 7.91415C23.2449 8.42863 23.0118 9.03192 22.4945 9.26147C22.3599 9.32145 22.2184 9.35029 22.0804 9.35029Z" fill="#E6AE00"/>
<path d="M18.5163 11.8236C18.1985 11.8236 17.8865 11.6783 17.687 11.4038L14.8521 7.51407C14.5192 7.05727 14.6212 6.41937 15.0783 6.08831C15.5376 5.75609 16.1767 5.85876 16.5096 6.31325L19.3422 10.2029C19.6751 10.6586 19.5742 11.2976 19.116 11.6287C18.935 11.7602 18.7239 11.8236 18.5163 11.8236Z" fill="#E6AE00"/>
<path d="M15.5589 14.9809C15.3153 14.9809 15.0705 14.8944 14.8745 14.7191L11.2915 11.5031C10.8716 11.1247 10.8379 10.4799 11.2161 10.0612C11.5942 9.64243 12.2415 9.60897 12.6625 9.98502L16.2444 13.2022C16.6655 13.5794 16.6991 14.2242 16.321 14.643C16.118 14.8667 15.8396 14.9809 15.5589 14.9809Z" fill="#E6AE00"/>
<path d="M44.0875 49.9882C43.6955 49.9882 43.322 49.7621 43.1515 49.3814L41.19 44.9911C40.9603 44.4766 41.1935 43.8722 41.7097 43.6426C42.227 43.4142 42.8313 43.6461 43.061 44.1606L45.0224 48.5509C45.2521 49.0665 45.0201 49.6698 44.5039 49.8993C44.3671 49.9593 44.2256 49.9882 44.0875 49.9882Z" fill="#E6AE00"/>
<path d="M48.523 47.012C48.2063 47.012 47.8931 46.8655 47.6936 46.591L44.8599 42.7025C44.527 42.2457 44.6291 41.6078 45.0861 41.2767C45.5454 40.9445 46.1845 41.0472 46.5163 41.5028L49.35 45.3902C49.6829 45.847 49.5808 46.4849 49.1238 46.8171C48.9417 46.9486 48.7306 47.012 48.523 47.012Z" fill="#E6AE00"/>
<path d="M52.2312 43.1822C51.9876 43.1822 51.7417 43.0957 51.5469 42.9192L47.9638 39.7032C47.5439 39.3271 47.5091 38.6811 47.8884 38.2613C48.2666 37.8437 48.915 37.8091 49.3349 38.1863L52.9167 41.4023C53.3366 41.7795 53.3714 42.4255 52.9933 42.8431C52.7903 43.068 52.5119 43.1822 52.2312 43.1822Z" fill="#E6AE00"/>
<path d="M55.0646 38.666C54.8917 38.666 54.7166 38.6222 54.5542 38.5288L50.3784 36.126C49.8889 35.8434 49.7219 35.2193 50.0049 34.7314C50.2868 34.2423 50.9108 34.075 51.4027 34.3576L55.5773 36.7604C56.0679 37.0419 56.2349 37.6671 55.9531 38.155C55.7628 38.4826 55.4195 38.666 55.0646 38.666Z" fill="#E6AE00"/>
<path d="M56.9059 33.6609C56.8015 33.6609 56.6948 33.6447 56.5893 33.6101L52.0052 32.1244C51.4658 31.9502 51.1724 31.3746 51.3475 30.8382C51.5204 30.303 52.0992 30.01 52.6374 30.183L57.2226 31.6688C57.7608 31.8429 58.0543 32.4186 57.8803 32.9549C57.7399 33.3864 57.3374 33.6609 56.9059 33.6609Z" fill="#E6AE00"/>
<mask id="mask2_405_1903" style="mask-type:luminance" maskUnits="userSpaceOnUse" x="51" y="25" width="8" height="4">
<path d="M51.7812 25.5688H58.7745V28.5219H51.7812V25.5688Z" fill="white"/>
</mask>
<g mask="url(#mask2_405_1903)">
<path d="M57.6562 28.3843C57.6202 28.3843 57.5843 28.382 57.5483 28.3786L52.7531 27.8756C52.1906 27.8168 51.7834 27.315 51.8414 26.7532C51.9006 26.1926 52.4052 25.7901 52.9677 25.8454L57.7617 26.3484C58.3243 26.4072 58.7326 26.909 58.6734 27.4696C58.6178 27.9944 58.1735 28.3843 57.6562 28.3843Z" fill="#E6AE00"/>
</g>
<path d="M52.4837 23.5708C51.9675 23.5708 51.5221 23.1821 51.4664 22.6572C51.4084 22.0966 51.8156 21.5937 52.3781 21.5349L57.1733 21.0319C57.7382 20.9766 58.2381 21.3803 58.2984 21.9409C58.3564 22.5015 57.9493 23.0045 57.3867 23.0633L52.5927 23.5651C52.5556 23.5685 52.5197 23.5708 52.4837 23.5708Z" fill="#E6AE00"/>
<path d="M51.2276 19.4324C50.7949 19.4324 50.3947 19.1578 50.2532 18.7264C50.0792 18.19 50.3727 17.6144 50.9109 17.4391L55.495 15.9545C56.0343 15.7815 56.6108 16.0745 56.786 16.6097C56.96 17.1461 56.6665 17.7217 56.1283 17.8959L51.5431 19.3816C51.4387 19.4162 51.3308 19.4324 51.2276 19.4324Z" fill="#E6AE00"/>
<path d="M49.134 15.6417C48.7802 15.6417 48.4369 15.4594 48.2455 15.1318C47.9648 14.6427 48.1318 14.0198 48.6213 13.7372L52.7959 11.3344C53.2854 11.0518 53.9118 11.2202 54.196 11.7082C54.4778 12.1961 54.3096 12.8202 53.8201 13.1028L49.6455 15.5056C49.4843 15.5979 49.308 15.6417 49.134 15.6417Z" fill="#E6AE00"/>
<path d="M46.2895 12.3715C46.0088 12.3715 45.7293 12.2573 45.5286 12.0335C45.1504 11.6136 45.1841 10.9688 45.604 10.5916L49.187 7.37556C49.6069 6.99836 50.2542 7.03066 50.6323 7.45054C51.0104 7.86927 50.9768 8.51525 50.5569 8.89245L46.9739 12.1085C46.7778 12.2838 46.5331 12.3715 46.2895 12.3715Z" fill="#E6AE00"/>
<path d="M42.827 9.75901C42.6182 9.75901 42.4082 9.69556 42.2273 9.56406C41.7691 9.233 41.6682 8.5951 41.9999 8.1383L44.8325 4.24977C45.1654 3.79528 45.8057 3.69262 46.2639 4.02483C46.722 4.35474 46.8229 4.99379 46.4912 5.45059L43.6563 9.33912C43.4557 9.61366 43.1448 9.75901 42.827 9.75901Z" fill="#E6AE00"/>
<path d="M38.9069 7.92242C38.7677 7.92242 38.6262 7.89358 38.4904 7.83359C37.9743 7.60404 37.7411 7.00075 37.9719 6.48628L39.9322 2.09481C40.1631 1.57918 40.7674 1.34963 41.2847 1.57687C41.8009 1.80643 42.034 2.41087 41.8032 2.92534L39.8429 7.31566C39.6724 7.69632 39.2989 7.92242 38.9069 7.92242Z" fill="#E6AE00"/>
<path d="M34.6812 6.93929C34.6105 6.93929 34.5386 6.93121 34.4678 6.91506C33.9145 6.79856 33.5607 6.25755 33.6791 5.70501L34.6801 1.0044C34.7984 0.45186 35.3424 0.0977284 35.8957 0.217695C36.4478 0.335354 36.8004 0.876358 36.6833 1.4289L35.6811 6.12951C35.579 6.60938 35.1533 6.93929 34.6812 6.93929Z" fill="#E6AE00"/>
<path d="M19.7094 31.5845C19.7059 31.2869 19.7001 31.0377 19.6955 30.8335C19.6908 30.6305 19.6885 30.4137 19.6885 30.1841C19.6885 29.9545 19.6908 29.6489 19.6955 29.2659C19.7198 28.4757 19.9124 27.8078 20.2719 27.2634C20.6327 26.7189 21.1616 26.2563 21.8622 25.878L22.8192 25.3612C23.1555 25.1801 23.3713 24.9598 23.4652 24.7049C23.558 24.4488 23.6114 24.2088 23.6265 23.9839C23.645 23.7244 23.6566 23.4452 23.6589 23.143C23.6601 22.8419 23.6555 22.5605 23.6404 22.2963C23.6068 21.7795 23.2588 21.5223 22.5964 21.5223C22.2612 21.5223 22.0176 21.5892 21.8703 21.723C21.7207 21.8568 21.6418 22.031 21.6325 22.2467C21.6221 22.6193 21.6151 22.9665 21.6105 23.2872C21.6059 23.6079 21.6151 23.9574 21.6395 24.3346H19.7245C19.7094 24.0139 19.6989 23.7128 19.692 23.4267C19.685 23.143 19.6862 22.8754 19.6955 22.6274C19.7337 21.6745 19.9796 20.9928 20.4332 20.581C20.8867 20.1692 21.6082 19.9639 22.5964 19.9639C23.6439 19.9639 24.3909 20.1692 24.8398 20.581C25.2875 20.9928 25.5311 21.6745 25.5694 22.6274C25.5891 23.1049 25.5891 23.5571 25.5694 23.9839C25.5415 24.7487 25.3443 25.3647 24.9801 25.8307C24.6147 26.2979 24.1403 26.6912 23.5546 27.0119L22.4677 27.6002C22.1603 27.7686 21.948 28.0178 21.8297 28.3511C21.7126 28.6834 21.6534 28.9879 21.6534 29.2659V29.9119H25.4325V31.5845H19.7094Z" fill="#E6AE00"/>
<path d="M27.9676 26.9036H29.5938L29.8455 24.1628L30.0682 21.7727H29.6657L28.9176 24.1628L27.9676 26.9036ZM29.5938 31.5846V28.5624H26.1094V26.9901L28.8306 20.1001H31.408V26.9036H32.6746V28.5624H31.408V31.5846H29.5938Z" fill="#E6AE00"/>
<path d="M40.2741 31.5846L43.5775 21.7727H39.4609V20.1001H45.5065V21.8154L42.2819 31.5846H40.2741Z" fill="#E6AE00"/>
<path d="M35.2471 32.871L38.7351 19.249H36.8629L33.375 32.871H35.2471Z" fill="#E6AE00"/>
</svg>
