<svg width="45" height="45" viewBox="0 0 45 45" fill="none" xmlns="http://www.w3.org/2000/svg">
<mask id="mask0_405_1805" style="mask-type:luminance" maskUnits="userSpaceOnUse" x="3" y="2" width="6" height="7">
<path d="M3.03125 2.93311H8.25285V8.06532H3.03125V2.93311Z" fill="white"/>
</mask>
<g mask="url(#mask0_405_1805)">
<mask id="mask1_405_1805" style="mask-type:luminance" maskUnits="userSpaceOnUse" x="3" y="3" width="6" height="5">
<path d="M4.16411 3.01564C3.87485 3.01688 3.60172 3.12861 3.39688 3.33097C3.39564 3.33221 3.3944 3.33345 3.3944 3.33345C2.96982 3.75555 2.97354 4.4396 3.40061 4.85797L6.2895 7.67237C6.49558 7.87473 6.77118 7.98522 7.06169 7.98398C7.35219 7.98274 7.62407 7.87101 7.82891 7.66865C7.83015 7.66741 7.83139 7.66616 7.83264 7.66492C8.03748 7.46132 8.15045 7.19068 8.14921 6.90266C8.14797 6.61464 8.03251 6.34524 7.82519 6.14164L4.9363 3.32724C4.73021 3.12488 4.45585 3.01439 4.16411 3.01564Z" fill="white"/>
</mask>
<g mask="url(#mask1_405_1805)">
<mask id="mask2_405_1805" style="mask-type:luminance" maskUnits="userSpaceOnUse" x="3" y="3" width="6" height="5">
<path d="M4.16411 3.01466C3.87485 3.0159 3.60172 3.12763 3.39688 3.32999C3.39564 3.33123 3.3944 3.33247 3.3944 3.33247C2.96982 3.75457 2.97354 4.43862 3.40061 4.85699L6.2895 7.67139C6.49558 7.87375 6.77118 7.98424 7.06169 7.983C7.35219 7.98176 7.62407 7.87003 7.82891 7.66767C7.83015 7.66643 7.83139 7.66519 7.83264 7.66395C8.03748 7.46035 8.15045 7.18971 8.14921 6.90169C8.14797 6.61367 8.03251 6.34427 7.82519 6.14067L4.9363 3.32627C4.73021 3.12391 4.45585 3.01342 4.16411 3.01466Z" fill="white"/>
</mask>
<g mask="url(#mask2_405_1805)">
<path d="M2.96875 3.01367V7.9845H8.14938V3.01367H2.96875Z" fill="#E6AE00"/>
</g>
</g>
</g>
<mask id="mask3_405_1805" style="mask-type:luminance" maskUnits="userSpaceOnUse" x="10" y="-1" width="3" height="7">
<path d="M11.0348 -0.000488281H11.3365V0.00944344H11.0348V-0.000488281ZM10.9715 0.00944344H11.4097V0.0206166H10.9715V0.00944344ZM10.9293 0.0206166H11.4519V0.0305483H10.9293V0.0206166ZM10.8883 0.0305483H11.4941V0.0404801H10.8883V0.0305483ZM10.8461 0.0404801H11.5252V0.0516533H10.8461V0.0404801ZM10.815 0.0516533H11.5562V0.061585H10.815V0.0516533ZM10.7939 0.061585H11.5872V0.0727582H10.7939V0.061585ZM10.7629 0.0727582H11.6183V0.0826899H10.7629V0.0727582ZM10.7418 0.0826899H11.6394V0.0938631H10.7418V0.0826899ZM10.7207 0.0938631H11.6605V0.103795H10.7207V0.0938631ZM10.6996 0.103795H11.6816V0.114968H10.6996V0.103795ZM10.6685 0.114968H11.7027V0.1249H10.6685V0.114968ZM10.6574 0.1249H11.7238V0.136073H10.6574V0.1249ZM10.6375 0.136073H11.7437V0.146005H10.6375V0.136073ZM10.6164 0.146005H11.7548V0.155936H10.6164V0.146005ZM10.6052 0.155936H11.7759V0.16711H10.6052V0.155936ZM10.5854 0.16711H11.7958V0.177041H10.5854V0.16711ZM10.5643 0.177041H11.807V0.188214H10.5643V0.177041ZM10.5531 0.188214H11.8281V0.198146H10.5531V0.188214ZM10.5432 0.198146H11.838V0.209319H10.5432V0.198146ZM10.5221 0.209319H11.8479V0.219251H10.5221V0.209319ZM10.5121 0.219251H11.8703V0.229183H10.5121V0.219251ZM10.501 0.229183H11.8802V0.240356H10.501V0.229183ZM10.4811 0.240356H11.8901V0.250288H10.4811V0.240356ZM10.4699 0.250288H11.9013V0.261461H10.4699V0.250288ZM10.46 0.261461H11.9113V0.271393H10.46V0.261461ZM10.4488 0.271393H11.9324V0.282566H10.4488V0.271393ZM10.4389 0.282566H11.9423V0.292497H10.4389V0.282566ZM10.4277 0.292497H11.9535V0.302429H10.4277V0.292497ZM10.4178 0.302429H11.9634V0.313602H10.4178V0.302429ZM10.4078 0.313602H11.9746V0.323534H10.4078V0.313602ZM10.3967 0.323534H11.9845V0.334707H10.3967V0.323534ZM10.3867 0.334707H11.9944V0.344639H10.3867V0.334707ZM10.3756 0.344639H12.0056V0.355812H10.3756V0.344639ZM10.3656 0.355812H12.0155V0.365744H10.3656V0.355812ZM10.3557 0.365744H12.0267V0.376917H10.3557V0.365744ZM10.3445 0.376917H12.0267V0.386849H10.3445V0.376917ZM10.3346 0.386849H12.0366V0.396781H10.3346V0.386849ZM10.3346 0.396781H12.0478V0.407954H10.3346V0.396781ZM10.3234 0.407954H12.0577V0.417885H10.3234V0.407954ZM10.3135 0.417885H12.0677V0.429059H10.3135V0.417885ZM10.3036 0.429059H12.0677V0.43899H10.3036V0.429059ZM10.3036 0.43899H12.0789V0.450164H10.3036V0.43899ZM10.2924 0.450164H12.0888V0.460095H10.2924V0.450164ZM10.2812 0.460095H12.1V0.470027H10.2812V0.460095ZM10.2713 0.470027H12.1V0.4812H10.2713V0.470027ZM10.2713 0.4812H12.1099V0.491132H10.2713V0.4812ZM10.2613 0.491132H12.1099V0.502305H10.2613V0.491132ZM10.2514 0.502305H12.1198V0.512237H10.2514V0.502305ZM10.2514 0.512237H12.131V0.52341H10.2514V0.512237ZM10.2402 0.52341H12.131V0.533342H10.2402V0.52341ZM10.2402 0.533342H12.1409V0.543273H10.2402V0.533342ZM10.2291 0.543273H12.1521V0.554447H10.2291V0.543273ZM10.2191 0.554447H12.1521V0.564378H10.2191V0.554447ZM10.2191 0.564378H12.162V0.575552H10.2191V0.564378ZM10.2092 0.575552H12.162V0.585483H10.2092V0.575552ZM10.2092 0.585483H12.172V0.596656H10.2092V0.585483ZM10.198 0.596656H12.172V0.606588H10.198V0.596656ZM10.198 0.606588H12.1831V0.61652H10.198V0.606588ZM10.1881 0.61652H12.1831V0.627693H10.1881V0.61652ZM10.1881 0.627693H12.1931V0.638866H10.1881V0.627693ZM10.1769 0.638866H12.1931V0.648798H10.1769V0.638866ZM10.1769 0.648798H12.2042V0.669903H10.1769V0.648798ZM10.167 0.669903H12.2042V0.679835H10.167V0.669903ZM10.167 0.679835H12.2142V0.700939H10.167V0.679835ZM10.1571 0.700939H12.2142V0.712113H10.1571V0.700939ZM10.1571 0.712113H12.2253V0.722044H10.1571V0.712113ZM10.1459 0.722044H12.2253V0.731976H10.1459V0.722044ZM10.1459 0.731976H12.2353V0.753081H10.1459V0.731976ZM10.136 0.753081H12.2353V0.774186H10.136V0.753081ZM10.136 0.774186H12.2452V0.795291H10.136V0.774186ZM10.1248 0.795291H12.2452V0.805223H10.1248V0.795291ZM10.1248 0.805223H12.2564V0.837501H10.1248V0.805223ZM10.1149 0.837501H12.2564V0.847432H10.1149V0.837501ZM10.1149 0.847432H12.2663V0.889642H10.1149V0.847432ZM10.1049 0.889642H12.2663V0.910747H10.1049V0.889642ZM10.1049 0.910747H12.2775V0.952957H10.1049V0.910747ZM10.0938 0.952957H12.2775V1.0051H10.0938V0.952957ZM10.0938 1.0051H12.2874V2.03179H10.0938V1.0051ZM10.1049 2.03179H12.2874V2.11497H10.1049V2.03179ZM10.1049 2.11497H12.2974V3.43589H10.1049V2.11497ZM10.1149 3.43589H12.2974V3.51907H10.1149V3.43589ZM10.1149 3.51907H12.3085V4.7866H10.1149V3.51907ZM10.1248 4.7866H12.3085V4.87102H10.1248V4.7866ZM10.1248 4.87102H12.2974V4.90206H10.1248V4.87102ZM10.136 4.90206H12.2974V4.9542H10.136V4.90206ZM10.136 4.9542H12.2874V4.96413H10.136V4.9542ZM10.1459 4.96413H12.2874V4.99641H10.1459V4.96413ZM10.1459 4.99641H12.2775V5.00634H10.1459V4.99641ZM10.1571 5.00634H12.2775V5.02745H10.1571V5.00634ZM10.1571 5.02745H12.2663V5.04855H10.1571V5.02745ZM10.167 5.04855H12.2663V5.05972H10.167V5.04855ZM10.167 5.05972H12.2564V5.07959H10.167V5.05972ZM10.1769 5.07959H12.2564V5.09076H10.1769V5.07959ZM10.1769 5.09076H12.2452V5.11187H10.1769V5.09076ZM10.1881 5.11187H12.2452V5.1218H10.1881V5.11187ZM10.1881 5.1218H12.2353V5.1429H10.1881V5.1218ZM10.198 5.1429H12.2353V5.16401H10.198V5.1429ZM10.2092 5.16401H12.2253V5.18511H10.2092V5.16401ZM10.2191 5.18511H12.2142V5.20622H10.2191V5.18511ZM10.2291 5.20622H12.2042V5.21615H10.2291V5.20622ZM10.2291 5.21615H12.1931V5.22608H10.2291V5.21615ZM10.2402 5.22608H12.1931V5.23725H10.2402V5.22608ZM10.2402 5.23725H12.1831V5.25836H10.2402V5.23725ZM10.2514 5.25836H12.172V5.26829H10.2514V5.25836ZM10.2613 5.26829H12.172V5.27946H10.2613V5.26829ZM10.2613 5.27946H12.162V5.28939H10.2613V5.27946ZM10.2713 5.28939H12.162V5.30057H10.2713V5.28939ZM10.2713 5.30057H12.1521V5.3105H10.2713V5.30057ZM10.2812 5.3105H12.1521V5.32167H10.2812V5.3105ZM10.2924 5.32167H12.1409V5.3316H10.2924V5.32167ZM10.2924 5.3316H12.131V5.34154H10.2924V5.3316ZM10.3036 5.34154H12.131V5.35271H10.3036V5.34154ZM10.3135 5.35271H12.1198V5.36264H10.3135V5.35271ZM10.3135 5.36264H12.1099V5.37381H10.3135V5.36264ZM10.3234 5.37381H12.1099V5.38375H10.3234V5.37381ZM10.3346 5.38375H12.1V5.39492H10.3346V5.38375ZM10.3445 5.39492H12.0888V5.40485H10.3445V5.39492ZM10.3445 5.40485H12.0789V5.41478H10.3445V5.40485ZM10.3557 5.41478H12.0789V5.42596H10.3557V5.41478ZM10.3656 5.42596H12.0677V5.43589H10.3656V5.42596ZM10.3756 5.43589H12.0577V5.44706H10.3756V5.43589ZM10.3867 5.44706H12.0478V5.45699H10.3867V5.44706ZM10.3967 5.45699H12.0366V5.4781H10.3967V5.45699ZM10.4078 5.4781H12.0267V5.48803H10.4078V5.4781ZM10.4178 5.48803H12.0155V5.4992H10.4178V5.48803ZM10.4277 5.4992H12.0056V5.51038H10.4277V5.4992ZM10.4389 5.51038H11.9944V5.52031H10.4389V5.51038ZM10.4488 5.52031H11.9845V5.53024H10.4488V5.52031ZM10.46 5.53024H11.9746V5.54141H10.46V5.53024ZM10.4811 5.54141H11.9634V5.55134H10.4811V5.54141ZM10.491 5.55134H11.9423V5.56252H10.491V5.55134ZM10.501 5.56252H11.9324V5.57245H10.501V5.56252ZM10.5121 5.57245H11.9224V5.58362H10.5121V5.57245ZM10.5221 5.58362H11.9013V5.59355H10.5221V5.58362ZM10.5332 5.59355H11.8901V5.60349H10.5332V5.59355ZM10.5531 5.60349H11.8802V5.61466H10.5531V5.60349ZM10.5643 5.61466H11.8703V5.62459H10.5643V5.61466ZM10.5854 5.62459H11.8479V5.63576H10.5854V5.62459ZM10.5953 5.63576H11.838V5.6457H10.5953V5.63576ZM10.6052 5.6457H11.8181V5.65687H10.6052V5.6457ZM10.6263 5.65687H11.7958V5.6668H10.6263V5.65687ZM10.6474 5.6668H11.7859V5.67673H10.6474V5.6668ZM10.6574 5.67673H11.7648V5.6879H10.6574V5.67673ZM10.6785 5.6879H11.7437V5.69784H10.6785V5.6879ZM10.6996 5.69784H11.7238V5.70901H10.6996V5.69784ZM10.7207 5.70901H11.7027V5.71894H10.7207V5.70901ZM10.7418 5.71894H11.6816V5.73011H10.7418V5.71894ZM10.7629 5.73011H11.6605V5.74005H10.7629V5.73011ZM10.7828 5.74005H11.6394V5.74998H10.7828V5.74005ZM10.815 5.74998H11.6083V5.76115H10.815V5.74998ZM10.8461 5.76115H11.5773V5.77232H10.8461V5.76115ZM10.8771 5.77232H11.5463V5.78226H10.8771V5.77232ZM10.9082 5.78226H11.5041V5.79219H10.9082V5.78226ZM10.9504 5.79219H11.473V5.80336H10.9504V5.79219ZM10.9926 5.80336H11.442V5.81329H10.9926V5.80336ZM11.0646 5.81329H11.3576V5.82447H11.0646V5.81329ZM11.1701 5.82447H11.2843V5.8344H11.1701V5.82447Z" fill="white"/>
</mask>
<g mask="url(#mask3_405_1805)">
<mask id="mask4_405_1805" style="mask-type:luminance" maskUnits="userSpaceOnUse" x="10" y="-1" width="3" height="7">
<path d="M12.2841 1.07166C12.2816 0.476997 11.79 -0.00345007 11.1879 -0.000966981C10.587 0.00151579 10.0991 0.486929 10.1016 1.08159L10.1289 4.75136C10.1314 5.34478 10.623 5.82647 11.2239 5.82399C11.523 5.82275 11.7949 5.70232 11.9911 5.50866C12.1897 5.3125 12.3126 5.04062 12.3114 4.74143L12.2841 1.07166Z" fill="white"/>
</mask>
<g mask="url(#mask4_405_1805)">
<path d="M10.0938 -0.000976562V5.82646H12.3073V-0.000976562H10.0938Z" fill="#E6AE00"/>
</g>
</g>
<mask id="mask5_405_1805" style="mask-type:luminance" maskUnits="userSpaceOnUse" x="0" y="9" width="6" height="4">
<path d="M0.960894 9.96289H2.09932V9.97282H0.960894V9.96289ZM0.897579 9.97282H3.54066V9.984H0.897579V9.97282ZM0.845438 9.984H4.85661V9.99393H0.845438V9.984ZM0.804469 9.99393H4.96089V10.0051H0.804469V9.99393ZM0.762259 10.0051H5.03414V10.015H0.762259V10.0051ZM0.731223 10.015H5.07635V10.025H0.731223V10.015ZM0.698945 10.025H5.11732V10.0361H0.698945V10.025ZM0.667908 10.0361H5.1496V10.0461H0.667908V10.0361ZM0.646803 10.0461H5.18063V10.0572H0.646803V10.0461ZM0.62694 10.0572H5.21167V10.0672H0.62694V10.0572ZM0.605835 10.0672H5.24271V10.0783H0.605835V10.0672ZM0.58473 10.0783H5.26381V10.0883H0.58473V10.0783ZM0.563625 10.0883H5.28492V10.0982H0.563625V10.0883ZM0.54252 10.0982H5.30602V10.1094H0.54252V10.0982ZM0.521415 10.1094H5.32713V10.1206H0.521415V10.1094ZM0.511484 10.1206H5.34699V10.1305H0.511484V10.1206ZM0.490379 10.1305H5.35816V10.1404H0.490379V10.1305ZM0.469274 10.1404H5.37927V10.1516H0.469274V10.1404ZM0.459342 10.1516H5.39913V10.1615H0.459342V10.1516ZM0.44941 10.1615H5.4103V10.1727H0.44941V10.1615ZM0.428305 10.1727H5.43141V10.1826H0.428305V10.1727ZM0.417132 10.1826H5.44134V10.1938H0.417132V10.1826ZM0.407201 10.1938H5.46245V10.2037H0.407201V10.1938ZM0.386096 10.2037H5.47238V10.2137H0.386096V10.2037ZM0.376164 10.2137H5.48355V10.2248H0.376164V10.2137ZM0.364991 10.2248H5.50466V10.2348H0.364991V10.2248ZM0.355059 10.2348H5.51459V10.2459H0.355059V10.2348ZM0.343886 10.2459H5.52452V10.2559H0.343886V10.2459ZM0.333954 10.2559H5.53569V10.267H0.333954V10.2559ZM0.324022 10.267H5.54562V10.277H0.324022V10.267ZM0.312849 10.277H5.5568V10.2869H0.312849V10.277ZM0.302917 10.2869H5.57666V10.2981H0.302917V10.2869ZM0.291744 10.2981H5.58783V10.308H0.291744V10.2981ZM0.281813 10.308H5.59901V10.3192H0.281813V10.308ZM0.271881 10.3192H5.60894V10.3291H0.271881V10.3192ZM0.260708 10.3291H5.60894V10.3403H0.260708V10.3291ZM0.250776 10.3403H5.61887V10.3502H0.250776V10.3403ZM0.239603 10.3502H5.6288V10.3602H0.239603V10.3502ZM0.229671 10.3602H5.63998V10.3713H0.229671V10.3602ZM0.229671 10.3713H5.65115V10.3813H0.229671V10.3713ZM0.219739 10.3813H5.66108V10.3924H0.219739V10.3813ZM0.208566 10.3924H5.67101V10.4024H0.208566V10.3924ZM0.197393 10.4024H5.67101V10.4135H0.197393V10.4024ZM0.197393 10.4135H5.68219V10.4235H0.197393V10.4135ZM0.187461 10.4235H5.69212V10.4346H0.187461V10.4235ZM0.177529 10.4346H5.70329V10.4446H0.177529V10.4346ZM0.177529 10.4446H5.71322V10.4545H0.177529V10.4446ZM0.167598 10.4545H5.71322V10.4657H0.167598V10.4545ZM0.156425 10.4657H5.72315V10.4756H0.156425V10.4657ZM0.156425 10.4756H5.73433V10.4868H0.156425V10.4756ZM0.145251 10.4868H5.73433V10.4967H0.145251V10.4868ZM0.13532 10.4967H5.74426V10.5178H0.13532V10.4967ZM0.125388 10.5178H5.75543V10.5278H0.125388V10.5178ZM0.125388 10.5278H5.76536V10.5389H0.125388V10.5278ZM0.114215 10.5389H5.76536V10.5489H0.114215V10.5389ZM0.114215 10.5489H5.7753V10.56H0.114215V10.5489ZM0.104283 10.56H5.7753V10.57H0.104283V10.56ZM0.104283 10.57H5.78647V10.5811H0.104283V10.57ZM0.0931099 10.5811H5.78647V10.5911H0.0931099V10.5811ZM0.0931099 10.5911H5.7964V10.601H0.0931099V10.5911ZM0.0831782 10.601H5.7964V10.6122H0.0831782V10.601ZM0.0831782 10.6122H5.80757V10.6221H0.0831782V10.6122ZM0.0732464 10.6221H5.80757V10.6333H0.0732464V10.6221ZM0.0732464 10.6333H5.8175V10.6544H0.0732464V10.6333ZM0.0620732 10.6544H5.82868V10.6854H0.0620732V10.6544ZM0.0521415 10.6854H5.83861V10.7065H0.0521415V10.6854ZM0.0409683 10.7065H5.83861V10.7165H0.0409683V10.7065ZM0.0409683 10.7165H5.84854V10.7376H0.0409683V10.7165ZM0.0409683 10.7376H5.85971V10.7487H0.0409683V10.7376ZM0.0310366 10.7487H5.85971V10.7798H0.0310366V10.7487ZM0.0310366 10.7798H5.86965V10.7897H0.0310366V10.7798ZM0.0211049 10.7897H5.86965V10.822H0.0211049V10.7897ZM0.0211049 10.822H5.88082V10.8319H0.0211049V10.822ZM0.00993172 10.8319H5.88082V10.863H0.00993172V10.8319ZM0.00993172 10.863H5.89075V10.8952H0.00993172V10.863ZM0 10.8952H5.89075V10.9362H0V10.8952ZM0 10.9362H5.90068V11.1882H0V10.9362ZM0.00993172 11.1882H5.90068V11.1981H0.00993172V11.1882ZM0.00993172 11.1981H5.89075V11.2615H0.00993172V11.1981ZM0.0211049 11.2615H5.89075V11.2726H0.0211049V11.2615ZM0.0211049 11.2726H5.88082V11.3037H0.0211049V11.2726ZM0.0310366 11.3037H5.88082V11.3136H0.0310366V11.3037ZM0.0310366 11.3136H5.86965V11.3459H0.0310366V11.3136ZM0.0409683 11.3459H5.85971V11.3769H0.0409683V11.3459ZM0.0521415 11.3769H5.85971V11.3869H0.0521415V11.3769ZM0.0521415 11.3869H5.84854V11.408H0.0521415V11.3869ZM0.0620732 11.408H5.84854V11.4191H0.0620732V11.408ZM0.0620732 11.4191H5.83861V11.4291H0.0620732V11.4191ZM0.0732464 11.4291H5.83861V11.4502H0.0732464V11.4291ZM0.0732464 11.4502H5.82868V11.4601H0.0732464V11.4502ZM0.0831782 11.4601H5.82868V11.4824H0.0831782V11.4601ZM0.0931099 11.4824H5.8175V11.5023H0.0931099V11.4824ZM0.104283 11.5023H5.80757V11.5234H0.104283V11.5023ZM0.114215 11.5234H5.7964V11.5445H0.114215V11.5234ZM0.125388 11.5445H5.78647V11.5656H0.125388V11.5445ZM0.13532 11.5656H5.7753V11.5867H0.13532V11.5656ZM0.145251 11.5867H5.76536V11.5967H0.145251V11.5867ZM0.156425 11.5967H5.75543V11.6178H0.156425V11.5967ZM0.167598 11.6178H5.74426V11.6389H0.167598V11.6178ZM0.177529 11.6389H5.73433V11.6488H0.177529V11.6389ZM0.187461 11.6488H5.73433V11.66H0.187461V11.6488ZM0.187461 11.66H5.72315V11.6699H0.187461V11.66ZM0.197393 11.6699H5.72315V11.6811H0.197393V11.6699ZM0.208566 11.6811H5.71322V11.691H0.208566V11.6811ZM0.219739 11.691H5.70329V11.7022H0.219739V11.691ZM0.219739 11.7022H5.69212V11.7121H0.219739V11.7022ZM0.229671 11.7121H5.68219V11.722H0.229671V11.7121ZM0.239603 11.722H5.68219V11.7332H0.239603V11.722ZM0.250776 11.7332H5.67101V11.7432H0.250776V11.7332ZM0.260708 11.7432H5.66108V11.7543H0.260708V11.7432ZM0.271881 11.7543H5.65115V11.7643H0.271881V11.7543ZM0.281813 11.7643H5.65115V11.7754H0.281813V11.7643ZM0.291744 11.7754H5.63998V11.7854H0.291744V11.7754ZM0.291744 11.7854H5.6288V11.7965H0.291744V11.7854ZM0.302917 11.7965H5.61887V11.8065H0.302917V11.7965ZM0.312849 11.8065H5.60894V11.8164H0.312849V11.8065ZM0.324022 11.8164H5.59901V11.8276H0.324022V11.8164ZM0.343886 11.8276H5.58783V11.8375H0.343886V11.8276ZM0.355059 11.8375H5.57666V11.8487H0.355059V11.8375ZM0.364991 11.8487H5.56673V11.8586H0.364991V11.8487ZM0.376164 11.8586H5.5568V11.8698H0.376164V11.8586ZM0.386096 11.8698H5.54562V11.8797H0.386096V11.8698ZM0.397269 11.8797H5.53569V11.8909H0.397269V11.8797ZM0.417132 11.8909H5.51459V11.9008H0.417132V11.8909ZM0.428305 11.9008H5.50466V11.9107H0.428305V11.9008ZM0.438237 11.9107H5.49348V11.9219H0.438237V11.9107ZM0.459342 11.9219H5.47238V11.9319H0.459342V11.9219ZM0.469274 11.9319H5.46245V11.943H0.469274V11.9319ZM0.490379 11.943H5.45251V11.953H0.490379V11.943ZM0.501552 11.953H5.44134V11.9641H0.501552V11.953ZM0.521415 11.9641H5.42024V11.9741H0.521415V11.9641ZM0.54252 11.9741H5.39913V11.984H0.54252V11.9741ZM0.553693 11.984H5.37927V11.9952H0.553693V11.984ZM0.574798 11.9952H5.36809V12.0051H0.574798V11.9952ZM0.594662 12.0051H5.34699V12.0163H0.594662V12.0051ZM0.615767 12.0163H5.32713V12.0262H0.615767V12.0163ZM0.636872 12.0262H5.30602V12.0374H0.636872V12.0262ZM0.667908 12.0374H5.28492V12.0473H0.667908V12.0374ZM0.689013 12.0473H5.26381V12.0585H0.689013V12.0473ZM0.72005 12.0585H5.24271V12.0684H0.72005V12.0585ZM0.751086 12.0684H5.2216V12.0783H0.751086V12.0684ZM0.783364 12.0783H5.19057V12.0895H0.783364V12.0783ZM0.824333 12.0895H5.1496V12.0995H0.824333V12.0895ZM0.876474 12.0995H5.11732V12.1106H0.876474V12.0995ZM0.939789 12.1106H5.08628V12.1206H0.939789V12.1106ZM1.10739 12.1206H5.04531V12.1317H1.10739V12.1206ZM2.54873 12.1317H4.99193V12.1417H2.54873V12.1317ZM3.99007 12.1417H4.90875V12.1516H3.99007V12.1417Z" fill="white"/>
</mask>
<g mask="url(#mask5_405_1805)">
<mask id="mask6_405_1805" style="mask-type:luminance" maskUnits="userSpaceOnUse" x="0" y="9" width="6" height="4">
<path d="M1.09498 9.96436C0.494113 9.96312 0.00249221 10.4436 9.4362e-06 11.0382C-0.00247365 11.6316 0.485422 12.1171 1.08505 12.1195L4.80448 12.1469C5.10615 12.1481 5.38052 12.0264 5.57915 11.8303C5.77655 11.6366 5.89821 11.3697 5.89945 11.0742C5.90193 10.4796 5.41404 9.99415 4.81441 9.99167L1.09498 9.96436Z" fill="white"/>
</mask>
<g mask="url(#mask6_405_1805)">
<path d="M0 9.96362V12.1486H5.90068V9.96362H0Z" fill="#E6AE00"/>
</g>
</g>
<mask id="mask7_405_1805" style="mask-type:luminance" maskUnits="userSpaceOnUse" x="14" y="1" width="6" height="6">
<path d="M14.7266 1.77979H19.7893V6.91324H14.7266V1.77979Z" fill="white"/>
</mask>
<g mask="url(#mask7_405_1805)">
<mask id="mask8_405_1805" style="mask-type:luminance" maskUnits="userSpaceOnUse" x="14" y="1" width="6" height="6">
<path d="M18.6711 1.85597C18.3793 1.85597 18.1099 1.97142 17.9001 2.17378L15.051 5.02667C14.8449 5.23027 14.7331 5.50215 14.7344 5.79017C14.7356 6.07695 14.8498 6.34759 15.0572 6.54995C15.483 6.96708 16.1732 6.96584 16.5978 6.54622C16.5978 6.54622 16.5991 6.54498 16.6003 6.54374L19.4507 3.69085C19.8741 3.26875 19.8716 2.58595 19.4445 2.16758C19.2372 1.96522 18.9628 1.85473 18.6711 1.85597Z" fill="white"/>
</mask>
<g mask="url(#mask8_405_1805)">
<mask id="mask9_405_1805" style="mask-type:luminance" maskUnits="userSpaceOnUse" x="14" y="1" width="6" height="6">
<path d="M18.6711 1.85548C18.3793 1.85548 18.1099 1.97094 17.9001 2.17329L15.051 5.02618C14.8449 5.22978 14.7331 5.50166 14.7344 5.78968C14.7356 6.07646 14.8498 6.3471 15.0572 6.54946C15.483 6.96659 16.1732 6.96535 16.5978 6.54573C16.5978 6.54573 16.5991 6.54449 16.6003 6.54325L19.4507 3.69036C19.8741 3.26827 19.8716 2.58546 19.4445 2.16709C19.2372 1.96473 18.9628 1.85424 18.6711 1.85548Z" fill="white"/>
</mask>
<g mask="url(#mask9_405_1805)">
<path d="M14.7344 1.854V6.96636H19.8753V1.854H14.7344Z" fill="#E6AE00"/>
</g>
</g>
</g>
<mask id="mask10_405_1805" style="mask-type:luminance" maskUnits="userSpaceOnUse" x="1" y="14" width="7" height="6">
<path d="M1.99219 14.4858H7.10206V19.5709H1.99219V14.4858Z" fill="white"/>
</mask>
<g mask="url(#mask10_405_1805)">
<mask id="mask11_405_1805" style="mask-type:luminance" maskUnits="userSpaceOnUse" x="2" y="14" width="6" height="6">
<path d="M5.22416 14.8097C5.22292 14.8097 5.22168 14.811 5.22043 14.8122L2.37127 17.6651C2.16519 17.8687 2.05346 18.1406 2.0547 18.4274C2.05594 18.7154 2.17015 18.986 2.37624 19.1884C2.58356 19.3908 2.85793 19.5012 3.14967 19.5012C3.44017 19.5 3.71205 19.387 3.9169 19.1847C3.91814 19.1847 3.91938 19.1834 3.92062 19.1822L6.76978 16.3293C6.97587 16.1257 7.0876 15.8538 7.08636 15.567C7.08511 15.279 6.9709 15.0084 6.76358 14.806C6.55749 14.6037 6.28313 14.4919 5.99138 14.4932C5.70088 14.4944 5.429 14.6074 5.22416 14.8097Z" fill="white"/>
</mask>
<g mask="url(#mask11_405_1805)">
<mask id="mask12_405_1805" style="mask-type:luminance" maskUnits="userSpaceOnUse" x="2" y="14" width="6" height="6">
<path d="M5.22416 14.8093C5.22292 14.8093 5.22168 14.8105 5.22043 14.8117L2.37127 17.6646C2.16519 17.8682 2.05346 18.1401 2.0547 18.4269C2.05594 18.7149 2.17015 18.9855 2.37624 19.1879C2.58356 19.3903 2.85793 19.5008 3.14967 19.5008C3.44017 19.4995 3.71205 19.3865 3.9169 19.1842C3.91814 19.1842 3.91938 19.1829 3.92062 19.1817L6.76978 16.3288C6.97587 16.1252 7.0876 15.8533 7.08636 15.5666C7.08511 15.2785 6.9709 15.0079 6.76358 14.8055C6.55749 14.6032 6.28313 14.4914 5.99138 14.4927C5.70088 14.4939 5.429 14.6069 5.22416 14.8093Z" fill="white"/>
</mask>
<g mask="url(#mask12_405_1805)">
<path d="M2.05469 14.4919V19.5013H7.08883V14.4919H2.05469Z" fill="#E6AE00"/>
</g>
</g>
</g>
<mask id="mask13_405_1805" style="mask-type:luminance" maskUnits="userSpaceOnUse" x="7" y="7" width="38" height="38">
<path d="M7.83594 7.64697H45.0017V44.3347H7.83594V7.64697Z" fill="white"/>
</mask>
<g mask="url(#mask13_405_1805)">
<path d="M40.9558 19.91C41.0303 20.2054 41.0229 20.5108 40.9446 20.7939C40.8664 21.077 40.7175 21.3401 40.5039 21.55C40.4034 21.6505 40.2892 21.7387 40.1638 21.8144L35.111 25.1005L34.0309 25.7498C33.6833 25.9584 33.625 26.4339 33.913 26.7182H33.9142C34.566 27.3625 35.1979 28.0267 35.8075 28.7107L42.8056 36.5481C43.0551 36.7951 43.0564 37.1949 42.8056 37.4407L38.016 42.1707C37.7665 42.4165 37.3618 42.4165 37.1122 42.1707L29.1743 35.2607C28.4816 34.6586 27.8087 34.0354 27.1557 33.3898C26.8677 33.1055 26.386 33.1626 26.1749 33.5065L25.5182 34.5729L22.1886 39.5611C22.1129 39.6853 22.0235 39.7982 21.9229 39.8976C21.4959 40.3184 20.8602 40.4885 20.2618 40.342C19.6622 40.1968 19.1954 39.7585 19.0117 39.1726L10.0607 12.0068C9.86706 11.391 10.0359 10.7244 10.4965 10.2688C10.8317 9.93853 11.2798 9.761 11.7367 9.761C11.9105 9.761 12.0843 9.78583 12.2569 9.83797L39.7702 18.676C40.3636 18.8572 40.8068 19.319 40.9558 19.91ZM40.3959 16.6735L12.8838 7.83549C11.5058 7.41463 10.016 7.77962 8.99555 8.78645C7.97631 9.79328 7.60759 11.2632 8.03341 12.6251L16.9831 39.7908C17.3891 41.0856 18.4232 42.0527 19.7516 42.378C20.0595 42.4525 20.3736 42.4897 20.6852 42.4897C21.7032 42.4897 22.6976 42.0974 23.4251 41.3799C23.6436 41.1626 23.8385 40.918 24.0036 40.6511L27.0626 36.0987L35.6945 43.5711C36.7249 44.5878 38.4034 44.5891 39.4338 43.5711L44.2246 38.8411C45.255 37.8231 45.255 36.167 44.2246 35.149L36.6554 26.6263L41.2662 23.6046C41.5368 23.4432 41.7851 23.2508 42.0049 23.0323C42.9546 22.0962 43.3419 20.7058 43.0142 19.4059C42.6852 18.095 41.7069 17.0732 40.3959 16.6735Z" fill="#E6AE00"/>
</g>
<path d="M40.9585 19.9107C41.033 20.2062 41.0255 20.5116 40.9473 20.7946C40.8691 21.0777 40.7201 21.3409 40.5066 21.5507C40.406 21.6512 40.2918 21.7394 40.1664 21.8151L35.1137 25.1013L34.0336 25.7505C33.686 25.9591 33.6276 26.4346 33.9169 26.7189L34.8952 27.686L42.8083 36.5488C43.0578 36.7959 43.059 37.1956 42.8083 37.4414L38.0187 42.1714C37.7692 42.4172 37.3644 42.4172 37.1149 42.1714L28.1379 34.3576L27.1584 33.3905C26.8703 33.1062 26.3899 33.1633 26.1776 33.5072L25.5209 34.5736L22.1913 39.5618C22.1155 39.686 22.0261 39.799 21.9256 39.8983C21.4985 40.3191 20.8629 40.4892 20.2645 40.3427C19.6649 40.1975 19.1981 39.7592 19.0143 39.1733L10.0634 12.0075C9.86971 11.3918 10.0386 10.7251 10.4991 10.2695C10.8343 9.93925 11.2825 9.76172 11.7394 9.76172C11.9132 9.76172 12.087 9.78655 12.2595 9.83869L39.7729 18.6767C40.3663 18.8579 40.8095 19.3198 40.9585 19.9107Z" fill="white"/>
</svg>
