<svg width="39" height="49" viewBox="0 0 39 49" fill="none" xmlns="http://www.w3.org/2000/svg">
<mask id="mask0_405_1739" style="mask-type:luminance" maskUnits="userSpaceOnUse" x="2" y="0" width="35" height="29">
<path d="M2.95312 0.293945H36.1424V28.685H2.95312V0.293945Z" fill="white"/>
</mask>
<g mask="url(#mask0_405_1739)">
<path d="M19.5123 28.52C10.4516 28.52 3.07812 22.1915 3.07812 14.4067C3.07812 6.62285 10.4516 0.299316 19.5123 0.299316C28.5721 0.299316 35.9456 6.6288 35.9456 14.4067C35.9456 22.1855 28.5721 28.52 19.5123 28.52ZM19.5123 1.64169C11.1289 1.64169 4.30387 7.36983 4.30387 14.4067C4.30387 21.4445 11.1234 27.1776 19.5123 27.1776C27.9003 27.1776 34.7198 21.4504 34.7198 14.4067C34.7198 7.36389 27.8958 1.64169 19.5123 1.64169Z" fill="#E6AE00"/>
</g>
<path d="M19.5009 33.6136C10.2054 33.6136 2.64062 25.9645 2.64062 16.5649C2.64062 14.7073 2.93437 12.8825 3.51279 11.1379C3.63065 10.7882 3.97879 10.6109 4.29701 10.7347C4.61614 10.8635 4.77751 11.2449 4.66509 11.5936C4.13563 13.1876 3.86637 14.8579 3.86637 16.5589C3.86637 25.2185 10.8817 32.2662 19.5009 32.2662C28.1192 32.2662 35.14 25.2185 35.14 16.5589C35.14 14.9491 34.8997 13.3541 34.4192 11.8304C34.3113 11.4807 34.4782 11.1003 34.8018 10.9764C35.121 10.8585 35.4682 11.0408 35.5815 11.3955C36.1055 13.0588 36.3703 14.7985 36.3703 16.5589C36.3703 25.9585 28.8055 33.6086 19.5054 33.6086L19.5009 33.6136Z" fill="#E6AE00"/>
<path d="M10.0664 30.5705C9.72802 30.5705 9.45312 30.2703 9.45312 29.8998V25.2019C9.45312 24.8324 9.72802 24.5312 10.0664 24.5312C10.4048 24.5312 10.6797 24.8324 10.6797 25.2019V29.8998C10.6797 30.2703 10.4048 30.5705 10.0664 30.5705Z" fill="#E6AE00"/>
<path d="M19.6055 33.6137C19.2671 33.6137 18.9922 33.3135 18.9922 32.943V27.8489C18.9922 27.4784 19.2671 27.1772 19.6055 27.1772C19.9439 27.1772 20.2188 27.4784 20.2188 27.8489V32.943C20.2188 33.3135 19.9439 33.6137 19.6055 33.6137Z" fill="#E6AE00"/>
<path d="M14.6211 32.8569C14.2818 32.8569 14.0078 32.5567 14.0078 32.1862V27.1941C14.0078 26.8236 14.2818 26.5225 14.6211 26.5225C14.9595 26.5225 15.2344 26.8236 15.2344 27.1941V32.1862C15.2344 32.5567 14.9595 32.8569 14.6211 32.8569Z" fill="#E6AE00"/>
<path d="M27.7852 31.3336C27.4468 31.3336 27.1719 31.0324 27.1719 30.6619V25.868C27.1719 25.4974 27.4468 25.1973 27.7852 25.1973C28.1236 25.1973 28.3985 25.4974 28.3985 25.868V30.6619C28.3985 31.0324 28.1236 31.3336 27.7852 31.3336Z" fill="#E6AE00"/>
<path d="M30.7149 29.0939C30.3755 29.0939 30.1016 28.7937 30.1016 28.4232V23.8978C30.1016 23.5272 30.3755 23.2261 30.7149 23.2261C31.0533 23.2261 31.3282 23.5272 31.3282 23.8978V28.4232C31.3282 28.7937 31.0533 29.0939 30.7149 29.0939Z" fill="#E6AE00"/>
<path d="M21.7437 38.3386C13.3168 38.3386 6.2905 32.9216 5.40383 25.7391C5.35941 25.3745 5.59422 25.0357 5.92786 24.9822C6.26149 24.9337 6.57064 25.1922 6.6196 25.5568C7.42377 32.0795 13.9296 36.9913 21.7437 36.9913C30.1326 36.9913 36.9522 31.2632 36.9522 24.2204C36.9522 22.1429 36.3393 20.0813 35.187 18.2505C34.9957 17.9444 35.0646 17.5263 35.3438 17.3163C35.624 17.1073 36.0057 17.1826 36.1969 17.4887C37.4961 19.5394 38.1824 21.8685 38.1824 24.2204C38.1824 31.9983 30.8089 38.3327 21.7492 38.3327L21.7437 38.3386Z" fill="#E6AE00"/>
<mask id="mask1_405_1739" style="mask-type:luminance" maskUnits="userSpaceOnUse" x="4" y="20" width="35" height="24">
<path d="M4.80469 20.5688H38.6495V43.6478H4.80469V20.5688Z" fill="white"/>
</mask>
<g mask="url(#mask1_405_1739)">
<path d="M21.7509 43.4267C12.4554 43.4267 4.89062 35.7766 4.89062 26.377C4.89062 25.9906 4.90604 25.5983 4.93052 25.2179C4.95499 24.8474 5.24874 24.568 5.5869 24.5947C5.92507 24.6215 6.18074 24.9435 6.15626 25.314C6.13087 25.6627 6.12181 26.0223 6.12181 26.377C6.12181 35.0356 13.1372 42.0843 21.7563 42.0843C30.3746 42.0843 37.3954 35.0356 37.3954 26.377C37.3954 24.7612 37.1552 23.1721 36.6747 21.6475C36.5668 21.2987 36.7336 20.9173 37.0573 20.7945C37.3764 20.6706 37.7245 20.8589 37.8369 21.2076C38.3619 22.8719 38.6266 24.6056 38.6266 26.372C38.6266 35.7716 31.0618 43.4207 21.7609 43.4207L21.7509 43.4267Z" fill="#E6AE00"/>
</g>
<path d="M12.3164 40.3888C11.978 40.3888 11.7031 40.0877 11.7031 39.7181V35.0203C11.7031 34.6498 11.978 34.3496 12.3164 34.3496C12.6548 34.3496 12.9297 34.6498 12.9297 35.0203V39.7181C12.9297 40.0877 12.6548 40.3888 12.3164 40.3888Z" fill="#E6AE00"/>
<path d="M21.8555 43.4272C21.5171 43.4272 21.2422 43.126 21.2422 42.7555V37.6614C21.2422 37.2909 21.5171 36.9907 21.8555 36.9907C22.1939 36.9907 22.4688 37.2909 22.4688 37.6614V42.7555C22.4688 43.126 22.1939 43.4272 21.8555 43.4272Z" fill="#E6AE00"/>
<path d="M16.8711 42.6755C16.5327 42.6755 16.2578 42.3753 16.2578 42.0048V37.0118C16.2578 36.6422 16.5327 36.3411 16.8711 36.3411C17.2095 36.3411 17.4844 36.6422 17.4844 37.0118V42.0048C17.4844 42.3753 17.2095 42.6755 16.8711 42.6755Z" fill="#E6AE00"/>
<path d="M30.0274 41.1509C29.688 41.1509 29.4141 40.8508 29.4141 40.4802V35.6863C29.4141 35.3158 29.688 35.0156 30.0274 35.0156C30.3658 35.0156 30.6397 35.3158 30.6397 35.6863V40.4802C30.6397 40.8508 30.3658 41.1509 30.0274 41.1509Z" fill="#E6AE00"/>
<path d="M32.957 38.9132C32.6186 38.9132 32.3438 38.6121 32.3438 38.2415V33.7161C32.3438 33.3466 32.6186 33.0454 32.957 33.0454C33.2954 33.0454 33.5703 33.3466 33.5703 33.7161V38.2415C33.5703 38.6121 33.2954 38.9132 32.957 38.9132Z" fill="#E6AE00"/>
<path d="M17.5592 43.5343C8.49849 43.5343 1.125 37.2058 1.125 29.422C1.125 26.6838 2.03705 24.0268 3.76324 21.7452C3.97902 21.4609 4.36614 21.4173 4.62543 21.6541C4.88563 21.8899 4.92462 22.3139 4.70884 22.5982C3.16488 24.638 2.35074 27.0008 2.35074 29.422C2.35074 36.4648 9.17573 42.1929 17.5592 42.1929C17.8973 42.1929 18.1721 42.4931 18.1721 42.8636C18.1721 43.2341 17.8973 43.5343 17.5592 43.5343Z" fill="#E6AE00"/>
<mask id="mask2_405_1739" style="mask-type:luminance" maskUnits="userSpaceOnUse" x="0" y="25" width="33" height="24">
<path d="M0.703125 25.6409H32.8888V48.6069H0.703125V25.6409Z" fill="white"/>
</mask>
<g mask="url(#mask2_405_1739)">
<path d="M17.5556 48.628C8.26009 48.628 0.695312 40.9789 0.695312 31.5793C0.695312 29.7218 0.989055 27.8969 1.56747 26.1523C1.68533 25.8026 2.03347 25.6203 2.3526 25.7491C2.67082 25.8779 2.83311 26.2593 2.71978 26.6081C2.19032 28.2021 1.92105 29.8773 1.92105 31.5734C1.92105 40.2329 8.93643 47.2807 17.5556 47.2807C23.0415 47.2807 28.1938 44.3344 31.0034 39.5939C31.2047 39.2551 31.3905 38.9064 31.5628 38.5626C31.7241 38.2357 32.0968 38.1178 32.3905 38.2952C32.6897 38.4715 32.7976 38.8797 32.6362 39.2076C32.4494 39.583 32.2436 39.9645 32.0279 40.329C28.9934 45.4449 23.4486 48.628 17.5556 48.628Z" fill="#E6AE00"/>
</g>
<path d="M8.12892 45.5849C7.79052 45.5849 7.51562 45.2847 7.51562 44.9142V40.2163C7.51562 39.8468 7.79052 39.5457 8.12892 39.5457C8.46823 39.5457 8.74222 39.8468 8.74222 40.2163V44.9142C8.74222 45.2847 8.46823 45.5849 8.12892 45.5849Z" fill="#E6AE00"/>
<mask id="mask3_405_1739" style="mask-type:luminance" maskUnits="userSpaceOnUse" x="16" y="42" width="3" height="7">
<path d="M16.875 42.1267H18.4997V48.6078H16.875V42.1267Z" fill="white"/>
</mask>
<g mask="url(#mask3_405_1739)">
<path d="M17.6524 48.6286C17.314 48.6286 17.0391 48.3284 17.0391 47.9579V42.8638C17.0391 42.4933 17.314 42.1931 17.6524 42.1931C17.9908 42.1931 18.2657 42.4933 18.2657 42.8638V47.9579C18.2657 48.3284 17.9908 48.6286 17.6524 48.6286Z" fill="#E6AE00"/>
</g>
<path d="M12.6758 47.8776C12.3374 47.8776 12.0625 47.5765 12.0625 47.207V42.2139C12.0625 41.8434 12.3374 41.5432 12.6758 41.5432C13.0142 41.5432 13.2891 41.8434 13.2891 42.2139V47.207C13.2891 47.5765 13.0142 47.8776 12.6758 47.8776Z" fill="#E6AE00"/>
<path d="M25.832 46.3481C25.4936 46.3481 25.2188 46.047 25.2188 45.6765V42.2408C25.2188 41.8702 25.4936 41.5701 25.832 41.5701C26.1704 41.5701 26.4453 41.8702 26.4453 42.2408V45.6765C26.4453 46.047 26.1704 46.3481 25.832 46.3481Z" fill="#E6AE00"/>
<path d="M20.4449 20.6337C17.1203 20.6337 14.4141 17.5369 14.4141 13.7356C14.4141 9.93534 17.1203 6.83252 20.4449 6.83252C21.366 6.83252 22.249 7.06335 23.0722 7.51906C23.3759 7.6855 23.4938 8.08871 23.3415 8.42158C23.1901 8.75445 22.822 8.88324 22.5183 8.7168C21.8664 8.35718 21.1701 8.17391 20.4394 8.17391C17.7921 8.17391 15.6353 10.6704 15.6353 13.7356C15.6353 16.8008 17.7921 19.2914 20.4394 19.2914C21.1457 19.2914 21.832 19.115 22.4739 18.7713C22.7785 18.6048 23.1457 18.7445 23.2925 19.0774C23.4448 19.4102 23.317 19.8125 23.0133 19.9739C22.1991 20.4138 21.3315 20.6337 20.4349 20.6337H20.4449Z" fill="#E6AE00"/>
<path d="M21.7724 12.6724H13.1441C12.806 12.6724 12.5312 12.3723 12.5312 12.0017C12.5312 11.6312 12.806 11.3311 13.1441 11.3311H21.7724C22.1114 11.3311 22.3852 11.6312 22.3852 12.0017C22.3852 12.3723 22.1114 12.6724 21.7724 12.6724Z" fill="#E6AE00"/>
<path d="M21.7724 16.1241H13.1441C12.806 16.1241 12.5312 15.8239 12.5312 15.4534C12.5312 15.0829 12.806 14.7827 13.1441 14.7827H21.7724C22.1114 14.7827 22.3852 15.0829 22.3852 15.4534C22.3852 15.8239 22.1114 16.1241 21.7724 16.1241Z" fill="#E6AE00"/>
</svg>
