<svg width="30" height="60" viewBox="0 0 30 60" fill="none" xmlns="http://www.w3.org/2000/svg">
<mask id="mask0_405_1781" style="mask-type:luminance" maskUnits="userSpaceOnUse" x="0" y="0" width="30" height="60">
<path d="M0.96875 0H29.1048V59.1287H0.96875V0Z" fill="white"/>
</mask>
<g mask="url(#mask0_405_1781)">
<path d="M22.0521 0.0887466C21.8628 0.0936156 21.6857 0.14474 21.5186 0.243336C21.3526 0.341933 21.2167 0.477046 21.1097 0.648678L1.19576 32.6183C1.07322 32.8143 1.00639 33.0297 0.994134 33.2659C0.981881 33.5033 1.02755 33.726 1.12892 33.9354C1.23029 34.1447 1.37288 34.3103 1.5589 34.432C1.74493 34.555 1.94656 34.6158 2.16266 34.6158H12.4343L8.0454 57.3721C8.01756 57.5182 8.0131 57.6655 8.03315 57.8128C8.05209 57.9613 8.09442 58.1001 8.15903 58.2327C8.22252 58.3642 8.30607 58.4798 8.40744 58.5809C8.50881 58.6807 8.62243 58.7586 8.74942 58.8158C8.87641 58.8718 9.00785 58.9034 9.14487 58.9095C9.28077 58.9156 9.41444 58.8961 9.54477 58.8511C9.67511 58.8061 9.79541 58.7391 9.90346 58.6478C10.0126 58.5577 10.104 58.4494 10.1775 58.324L28.9207 26.3544C29.0366 26.1572 29.0978 25.9417 29.1045 25.708C29.1123 25.4755 29.0644 25.2564 28.9619 25.0507C28.8595 24.8462 28.7158 24.6843 28.532 24.565C28.3482 24.4458 28.1488 24.3861 27.9349 24.3861H18.8362L23.224 1.62977C23.2418 1.53605 23.2507 1.43989 23.2485 1.34372C23.2474 1.24756 23.2352 1.15262 23.214 1.06011C23.1928 0.966378 23.1627 0.876302 23.1226 0.791095C23.0837 0.704671 23.0358 0.624333 22.9789 0.551298C22.9221 0.477047 22.8598 0.410098 22.7896 0.351671C22.7194 0.293243 22.6448 0.244554 22.5646 0.204385C22.4844 0.164216 22.4008 0.135002 22.3139 0.115526C22.2281 0.09605 22.1401 0.0863119 22.0521 0.0887466ZM19.7095 7.4421L16.2452 25.4025C16.2273 25.495 16.2195 25.59 16.2206 25.6849C16.2218 25.7799 16.2329 25.8736 16.2541 25.9661C16.2741 26.0586 16.3042 26.1475 16.3421 26.2327C16.3811 26.3179 16.4278 26.397 16.4824 26.47C16.5381 26.5443 16.5994 26.6112 16.6673 26.6697C16.7364 26.7281 16.8099 26.778 16.889 26.8194C16.967 26.8595 17.0494 26.8912 17.1341 26.9119C17.2187 26.9326 17.3045 26.9435 17.3914 26.9435H25.7961L11.6557 51.0583L15.0243 33.5994C15.0421 33.5069 15.0499 33.412 15.0488 33.317C15.0477 33.2221 15.0365 33.1283 15.0154 33.0358C14.9953 32.9433 14.9652 32.8545 14.9274 32.7693C14.8884 32.6841 14.8416 32.6049 14.787 32.5307C14.7313 32.4576 14.67 32.3907 14.6021 32.3323C14.533 32.2738 14.4595 32.2239 14.3815 32.1825C14.3024 32.1424 14.2211 32.1107 14.1353 32.09C14.0507 32.0693 13.9649 32.0584 13.878 32.0584H4.37607L19.7095 7.4421Z" fill="#E6AE00"/>
</g>
</svg>
