<svg width="55" height="51" viewBox="0 0 55 51" fill="none" xmlns="http://www.w3.org/2000/svg">
<path d="M27.5601 35.4865C27.4219 35.4897 27.2881 35.4662 27.1585 35.4162C27.029 35.3661 26.9144 35.2937 26.8148 35.1979C26.7152 35.1031 26.637 34.9924 26.5814 34.8656C26.5246 34.7389 26.4957 34.6069 26.4925 34.4695C26.4893 34.3311 26.5128 34.198 26.5631 34.0691C26.6135 33.9403 26.6863 33.8263 26.7816 33.7262C26.878 33.6272 26.9893 33.5494 27.1157 33.493C27.242 33.4376 27.3748 33.4089 27.514 33.4057C28.1094 33.3801 28.7005 33.3088 29.2862 33.1927C33.8543 32.2822 36.7594 28.5743 38.3902 25.6298C40.0693 22.5981 41.2868 19.036 42.1113 14.7381C42.7795 11.258 42.7217 7.61611 42.666 4.09345C42.6499 3.09351 42.6328 2.06057 42.6328 1.0404C42.6328 0.903029 42.6595 0.769917 42.7131 0.64213C42.7656 0.515408 42.8405 0.402529 42.939 0.304559C43.0365 0.207654 43.15 0.132047 43.2774 0.0798669C43.4059 0.0266222 43.5387 0 43.6779 0C43.816 0 43.9488 0.0266222 44.0773 0.0798669C44.2047 0.132047 44.3182 0.207654 44.4157 0.304559C44.5142 0.402529 44.5891 0.515408 44.6427 0.64213C44.6952 0.769917 44.7219 0.903029 44.7219 1.0404C44.7219 2.04353 44.738 3.06902 44.754 4.06044C44.8119 7.68852 44.8708 11.4401 44.1619 15.13C43.2935 19.6451 42.0042 23.4095 40.217 26.6362C38.3731 29.9671 35.0493 34.1639 29.6942 35.2341C29.0046 35.3704 28.3086 35.4545 27.6061 35.4854L27.5601 35.4865Z" fill="#E6AE00"/>
<path d="M36.5951 44.4806C36.4302 44.4806 36.2749 44.4444 36.1282 44.3709C33.387 43.0046 31.4702 40.7737 30.5868 37.9208C30.1745 36.5887 30.0021 35.2267 30.0685 33.8348C30.0664 33.7731 30.0707 33.7113 30.0803 33.6495L30.0846 33.6112C30.1007 33.4749 30.1413 33.345 30.2088 33.2247C30.2752 33.1043 30.363 33.001 30.4712 32.9148C30.5793 32.8285 30.7003 32.7668 30.8331 32.7284C30.9659 32.6901 31.1019 32.6784 31.2389 32.6933C31.3771 32.7092 31.5066 32.7497 31.6276 32.8168C31.7486 32.8828 31.8525 32.9701 31.9392 33.0777C32.026 33.1863 32.0881 33.3056 32.1266 33.4387C32.1652 33.5707 32.177 33.706 32.1609 33.8434C32.1106 34.4546 31.8139 39.8919 37.062 42.5084C37.168 42.5606 37.2612 42.6287 37.3436 42.7128C37.425 42.797 37.4914 42.8917 37.5406 42.9982C37.591 43.1037 37.622 43.2155 37.6338 43.3316C37.6456 43.4487 37.6381 43.5637 37.6113 43.6776C37.5845 43.7926 37.5396 43.8991 37.4764 43.9971C37.4132 44.0961 37.335 44.1824 37.2429 44.2548C37.1509 44.3272 37.0491 44.3837 36.9378 44.422C36.8275 44.4603 36.7129 44.4795 36.5951 44.4795V44.4806Z" fill="#E6AE00"/>
<path d="M27.6311 35.4864H27.5829C26.8815 35.4555 26.1866 35.3714 25.4981 35.2351C20.1419 34.1649 16.817 29.966 14.9752 26.6371C13.188 23.4105 11.8977 19.6461 11.0304 15.1299C10.3215 11.4401 10.3804 7.68844 10.4382 4.06035C10.4543 3.07 10.4703 2.04451 10.4703 1.04138C10.4703 0.90294 10.4971 0.770894 10.5506 0.643107C10.6031 0.51532 10.6791 0.403506 10.7766 0.305536C10.874 0.207566 10.9875 0.133023 11.115 0.0797786C11.2435 0.0275989 11.3762 0.000976562 11.5154 0.000976562H43.6836C43.8217 0.000976562 43.9556 0.0275989 44.083 0.0797786C44.2115 0.133023 44.324 0.207566 44.4225 0.305536C44.5199 0.403506 44.5959 0.51532 44.6484 0.643107C44.7019 0.770894 44.7276 0.90294 44.7276 1.04138C44.7276 1.17981 44.7019 1.31186 44.6484 1.43965C44.5959 1.56743 44.5199 1.67925 44.4225 1.77722C44.324 1.87519 44.2115 1.94973 44.083 2.00297C43.9556 2.05622 43.8217 2.08178 43.6836 2.08178H12.5541C12.5477 2.75798 12.537 3.43419 12.5263 4.09336C12.4706 7.61709 12.4128 11.259 13.081 14.7391C13.9076 19.037 15.1251 22.5991 16.802 25.6308C18.435 28.5742 21.339 32.2821 25.9082 33.1926C26.4928 33.3087 27.0829 33.38 27.6782 33.4056C27.8164 33.4088 27.9491 33.4386 28.0755 33.494C28.2029 33.5494 28.3143 33.6271 28.4096 33.7272C28.5049 33.8273 28.5777 33.9412 28.628 34.0701C28.6784 34.1989 28.7019 34.332 28.6987 34.4705C28.6955 34.6079 28.6666 34.7399 28.6098 34.8666C28.5542 34.9923 28.476 35.1041 28.3764 35.1989C28.2757 35.2947 28.1612 35.3671 28.0327 35.4172C27.9031 35.4672 27.7692 35.4907 27.6311 35.4875V35.4864Z" fill="#E6AE00"/>
<path d="M18.6077 44.4808C18.4899 44.4808 18.3753 44.4616 18.265 44.4233C18.1536 44.3849 18.0519 44.3295 17.9598 44.2571C17.8667 44.1837 17.7896 44.0985 17.7264 43.9994C17.6632 43.9004 17.6182 43.7939 17.5904 43.68C17.5636 43.566 17.5561 43.4499 17.5679 43.3339C17.5797 43.2167 17.6107 43.106 17.6611 42.9995C17.7103 42.893 17.7767 42.7982 17.8592 42.7141C17.9405 42.63 18.0348 42.5618 18.1397 42.5096C23.4017 39.8879 23.0301 34.4676 22.9691 33.8585C22.9519 33.7221 22.9626 33.5869 22.999 33.4538C23.0354 33.3207 23.0965 33.2003 23.1811 33.0907C23.2667 32.982 23.3685 32.8937 23.4895 32.8255C23.6094 32.7574 23.7379 32.7148 23.876 32.6967C24.0131 32.6796 24.148 32.6892 24.2819 32.7254C24.4157 32.7627 24.5367 32.8223 24.6459 32.9075C24.7562 32.9916 24.8451 33.0939 24.9136 33.2142C24.9822 33.3335 25.025 33.4623 25.0421 33.5986L25.0486 33.6391C25.0582 33.6998 25.0625 33.7605 25.0625 33.8222C25.1514 35.1235 25.2327 41.3021 19.0735 44.3711C18.9268 44.4445 18.7715 44.4808 18.6077 44.4808Z" fill="#E6AE00"/>
<mask id="mask0_405_1890" style="mask-type:luminance" maskUnits="userSpaceOnUse" x="16" y="42" width="24" height="9">
<path d="M16.1797 42.2537H39.2064V50.908H16.1797V42.2537Z" fill="white"/>
</mask>
<g mask="url(#mask0_405_1890)">
<path d="M37.9154 50.9036H17.2862C17.1481 50.9036 17.0142 50.8781 16.8868 50.8248C16.7583 50.7716 16.6459 50.6971 16.5484 50.5991C16.4499 50.5022 16.375 50.3893 16.3214 50.2615C16.269 50.1337 16.2422 50.0017 16.2422 49.8632V45.0947C16.2422 44.9179 16.2604 44.7432 16.2947 44.5697C16.33 44.3961 16.3814 44.2268 16.4499 44.0638C16.5174 43.8998 16.6009 43.7454 16.7005 43.5974C16.799 43.4505 16.9114 43.3142 17.0367 43.1896C17.162 43.065 17.2991 42.9532 17.4468 42.8541C17.5946 42.7562 17.7499 42.6731 17.9148 42.6049C18.0786 42.5379 18.2478 42.4857 18.4213 42.4516C18.5958 42.4165 18.7714 42.3994 18.9492 42.3994H36.2513C36.4291 42.3994 36.6047 42.4165 36.7792 42.4516C36.9538 42.4857 37.123 42.5368 37.2868 42.6049C37.4506 42.6731 37.607 42.7562 37.7547 42.8541C37.9025 42.9521 38.0385 43.0639 38.1649 43.1896C38.2901 43.3142 38.4026 43.4505 38.5011 43.5974C38.5996 43.7444 38.6831 43.8998 38.7517 44.0638C38.8202 44.2268 38.8716 44.3961 38.9069 44.5697C38.9412 44.7432 38.9594 44.9179 38.9594 45.0947V49.8611C38.9594 49.9996 38.9337 50.1327 38.8802 50.2605C38.8277 50.3882 38.7517 50.5011 38.6542 50.598C38.5568 50.696 38.4433 50.7716 38.3148 50.8248C38.1873 50.8781 38.0535 50.9036 37.9154 50.9036ZM18.3303 48.8228H36.8713V45.0947C36.8702 45.0137 36.8553 44.9349 36.8231 44.8593C36.7921 44.7837 36.7471 44.7166 36.6893 44.6591C36.6304 44.6016 36.564 44.5569 36.488 44.526C36.4119 44.4941 36.3338 44.4781 36.2513 44.4781H18.9492C18.8678 44.4781 18.7886 44.4941 18.7125 44.526C18.6365 44.5569 18.5701 44.6016 18.5123 44.6591C18.4534 44.7166 18.4095 44.7837 18.3774 44.8593C18.3463 44.9349 18.3303 45.0137 18.3303 45.0947V48.8228Z" fill="#E6AE00"/>
</g>
<path d="M41.8882 21.068C41.7651 21.068 41.6451 21.0467 41.5295 21.0041C41.4138 20.9626 41.3089 20.9019 41.2147 20.822C41.1204 20.7432 41.0433 20.6506 40.9823 20.5441C40.9202 20.4376 40.8795 20.3236 40.8592 20.2022C40.8377 20.0819 40.8388 19.9605 40.8613 19.8402C40.8827 19.7188 40.9256 19.6059 40.9877 19.4994C41.0498 19.394 41.129 19.3024 41.2243 19.2236C41.3196 19.1459 41.4246 19.0862 41.5413 19.0458C49.6687 16.1801 51.201 12.9961 52.3564 9.13268C52.7355 7.86545 52.7291 6.83783 52.3372 6.16056C52.0973 5.75377 51.7525 5.4737 51.3049 5.32142L43.7257 5.30013C43.5876 5.30013 43.4548 5.2735 43.3263 5.22132C43.1989 5.16808 43.0854 5.09247 42.9879 4.99557C42.8894 4.8976 42.8145 4.78472 42.7609 4.658C42.7085 4.53021 42.6817 4.3971 42.6817 4.25973C42.6817 4.12129 42.7085 3.98818 42.7609 3.86146C42.8145 3.73367 42.8894 3.62079 42.9879 3.52389C43.0854 3.42592 43.1989 3.35031 43.3263 3.29813C43.4548 3.24488 43.5876 3.21826 43.7257 3.21826L51.4452 3.24062C51.5148 3.24062 51.5844 3.24808 51.6518 3.26192C52.1658 3.38758 52.6359 3.60695 53.0621 3.92003C53.4872 4.2331 53.8363 4.6154 54.1083 5.06692C54.8332 6.27663 54.9157 7.84416 54.3514 9.72795C53.7303 11.8024 52.8908 13.9971 50.9687 15.9948C49.0476 17.9926 46.2753 19.5825 42.2309 21.0073C42.1195 21.0467 42.006 21.0669 41.8882 21.068Z" fill="#E6AE00"/>
<path d="M13.3325 21.0944C13.2136 21.0944 13.0991 21.0741 12.9866 21.0358C8.91007 19.6046 6.11311 18.0104 4.18352 16.0127C2.25392 14.0139 1.40691 11.8085 0.7837 9.72771C0.219384 7.84072 0.301836 6.27639 1.02677 5.06667C1.29876 4.61516 1.64784 4.23286 2.07295 3.91978C2.49914 3.6067 2.96922 3.38734 3.48321 3.26168C3.55067 3.24783 3.62027 3.24038 3.68987 3.24038L11.4811 3.21802H11.4843C11.6224 3.21802 11.7552 3.24464 11.8837 3.29788C12.0111 3.35006 12.1246 3.42567 12.2221 3.52364C12.3206 3.62055 12.3955 3.73343 12.4491 3.86121C12.5016 3.98793 12.5283 4.12105 12.5283 4.25948C12.5283 4.39685 12.5016 4.52997 12.4491 4.65775C12.3955 4.78447 12.3206 4.89735 12.2221 4.99532C12.1246 5.09223 12.0111 5.16784 11.8837 5.22108C11.7552 5.27326 11.6224 5.29988 11.4843 5.29988L3.83443 5.32118C3.38577 5.47346 3.04204 5.75353 2.80217 6.16032C2.41026 6.83759 2.40276 7.86521 2.78183 9.13243C3.94259 13.0076 5.48241 16.2012 13.6773 19.0732C13.793 19.1137 13.899 19.1733 13.9943 19.251C14.0896 19.3288 14.1688 19.4214 14.2309 19.5268C14.2941 19.6333 14.3369 19.7462 14.3583 19.8676C14.3808 19.9879 14.3819 20.1093 14.3616 20.2307C14.3401 20.3521 14.2994 20.4661 14.2384 20.5726C14.1763 20.6791 14.0992 20.7717 14.005 20.8516C13.9107 20.9304 13.8047 20.9911 13.6891 21.0326C13.5734 21.0752 13.4535 21.0965 13.3304 21.0965L13.3325 21.0944Z" fill="#E6AE00"/>
<path d="M32.5464 24.8515C32.3751 24.8515 32.2123 24.8121 32.0603 24.7323L27.5629 22.3757L23.0655 24.7323C22.8888 24.8238 22.7025 24.8632 22.5033 24.8494C22.3052 24.8345 22.1264 24.7695 21.9647 24.6535C21.8041 24.5363 21.6863 24.3862 21.6113 24.203C21.5364 24.0199 21.516 23.8303 21.5492 23.6344L22.4069 18.6443L18.7694 15.111C18.627 14.9725 18.5328 14.8075 18.4846 14.6147C18.4364 14.423 18.4439 14.2324 18.5049 14.0439C18.567 13.8555 18.673 13.6968 18.8251 13.569C18.9771 13.4423 19.1517 13.3635 19.3487 13.3358L24.3772 12.6074L26.6259 8.06669C26.7137 7.88886 26.8422 7.74723 27.0114 7.64287C27.1806 7.53851 27.3637 7.48633 27.5629 7.48633C27.7621 7.48633 27.9452 7.53851 28.1144 7.64287C28.2835 7.74723 28.411 7.88886 28.4999 8.06669L30.7475 12.6074L35.7771 13.3358C35.9741 13.3635 36.1486 13.4423 36.3007 13.569C36.4527 13.6968 36.5588 13.8555 36.6209 14.0439C36.6819 14.2324 36.6883 14.423 36.6412 14.6147C36.593 14.8075 36.4988 14.9725 36.3553 15.111L32.7188 18.6443L33.5776 23.6344C33.5905 23.71 33.5958 23.7845 33.5915 23.8601C33.5883 23.9357 33.5766 24.0103 33.5562 24.0837C33.5369 24.1572 33.5091 24.2275 33.4738 24.2946C33.4384 24.3617 33.3967 24.4234 33.3474 24.482C33.2981 24.5395 33.2435 24.5917 33.1836 24.6375C33.1225 24.6833 33.0583 24.7227 32.9887 24.7546C32.9201 24.7866 32.8484 24.8111 32.7745 24.827C32.6996 24.8441 32.6246 24.8515 32.5486 24.8515H32.5464ZM27.5629 20.1596C27.7342 20.1596 27.897 20.199 28.049 20.2789L31.1597 21.9082L30.5654 18.4569C30.5365 18.2875 30.5483 18.1225 30.6018 17.9595C30.6543 17.7966 30.7432 17.655 30.8663 17.5357L33.3827 15.0907L29.9048 14.5902C29.7356 14.5657 29.5814 14.5029 29.4432 14.4017C29.304 14.3016 29.1969 14.1749 29.1209 14.0216L27.5629 10.8769L26.007 14.0184C25.9321 14.1728 25.8239 14.3006 25.6858 14.4017C25.5466 14.5029 25.3913 14.5657 25.221 14.5902L21.743 15.0939L24.2594 17.5389C24.3826 17.6582 24.4704 17.7987 24.5229 17.9606C24.5764 18.1235 24.5893 18.2886 24.5603 18.4569L23.966 21.9082L27.0767 20.2789C27.2288 20.199 27.3905 20.1596 27.5629 20.1596Z" fill="#E6AE00"/>
</svg>
