<svg width="57" height="45" viewBox="0 0 57 45" fill="none" xmlns="http://www.w3.org/2000/svg">
<path d="M34.1579 16.7835C33.8125 16.439 33.2938 16.3528 32.9483 16.6973L26.0351 22.3778C25.6896 22.2056 25.3442 22.1194 24.9121 22.1194C23.5293 22.1194 22.4062 23.2381 22.4062 24.6152C22.4062 25.9923 23.5293 27.1109 24.9121 27.1109C26.2949 27.1109 27.4179 25.9923 27.4179 24.6152C27.4179 24.2707 27.3313 23.9262 27.2447 23.5826L34.0713 17.9883C34.4168 17.7299 34.5034 17.127 34.1579 16.7835ZM24.9121 25.4755C24.48 25.4755 24.1345 25.1319 24.1345 24.7013C24.1345 24.2707 24.48 23.9262 24.9121 23.9262C25.3442 23.9262 25.6896 24.2707 25.6896 24.7013C25.6896 25.0458 25.3442 25.4755 24.9121 25.4755Z" fill="#E6AE00"/>
<path d="M14.7148 22.6348C14.3693 21.5161 13.4186 20.6558 12.209 20.6558C10.8261 20.6558 9.70312 21.7744 9.70312 23.1515C9.70312 24.5286 10.8261 25.6473 12.209 25.6473C13.2454 25.6473 14.0239 25.0453 14.4559 24.2702L19.6399 25.1314H19.8131C20.2452 25.1314 20.5907 24.8731 20.6773 24.4424C20.7639 24.0118 20.4174 23.496 19.9863 23.4099L14.7148 22.6348ZM12.209 24.0118C11.7769 24.0118 11.4314 23.6683 11.4314 23.2376C11.4314 22.807 11.7769 22.4634 12.209 22.4634C12.641 22.4634 12.9865 22.807 12.9865 23.2376C12.9865 23.6683 12.641 24.0118 12.209 24.0118Z" fill="#E6AE00"/>
<mask id="mask0_405_1877" style="mask-type:luminance" maskUnits="userSpaceOnUse" x="0" y="0" width="57" height="45">
<path d="M0.890625 0H56.1962V44.7549H0.890625V0Z" fill="white"/>
</mask>
<g mask="url(#mask0_405_1877)">
<path d="M5.21043 39.5902H19.901V43.0333H18.1727C17.654 43.0333 17.3085 43.3778 17.3085 43.8937C17.3085 44.4104 17.654 44.7549 18.1727 44.7549H38.9113C39.43 44.7549 39.7755 44.4104 39.7755 43.8937C39.7755 43.3778 39.43 43.0333 38.9113 43.0333H37.183V39.5902H51.8726C54.4651 39.5902 56.1934 38.127 56.1934 35.8897V4.30343C56.1934 1.979 54.2928 0 51.8726 0H5.21043C2.87779 0 0.890625 1.89287 0.890625 4.30343V35.8897C0.890625 38.0409 2.61892 39.5902 5.21043 39.5902ZM35.4547 43.0333H21.6293V39.5902H35.4547V43.0333ZM2.61892 4.30343C2.61892 2.92543 3.74194 1.72062 5.21043 1.72062H51.8726C53.2554 1.72062 54.4651 2.84024 54.4651 4.30343V35.8897C54.4651 37.3529 53.1688 37.8696 51.8726 37.8696H5.21043C4.00081 37.8696 2.61892 37.3529 2.61892 35.8897V4.30343Z" fill="#E6AE00"/>
</g>
<path d="M5.21267 32.7053H51.8749C52.8256 32.7053 53.6032 31.845 53.6032 30.8977V4.30383C53.6032 3.35646 52.8256 2.58228 51.8749 2.58228H50.1466C49.6288 2.58228 49.2824 2.92584 49.2824 3.44259C49.2824 3.95934 49.6288 4.30383 50.1466 4.30383H50.2332L39.1724 11.8772C38.7404 11.5327 38.136 11.2753 37.5307 11.2753C36.1479 11.2753 35.0249 12.3939 35.0249 13.771C35.0249 15.1481 36.1479 16.2667 37.5307 16.2667C38.9136 16.2667 40.0366 15.1481 40.0366 13.771V13.3404L51.8749 5.25027V30.9838H6.33663L9.87889 27.4555C10.2253 27.111 10.2253 26.5952 9.87889 26.2507C9.53342 25.9062 9.01474 25.9062 8.66927 26.2507L5.21267 29.6928V4.30383H44.9626C45.4803 4.30383 45.8268 3.95934 45.8268 3.44259C45.8268 2.92584 45.4803 2.58228 44.9626 2.58228H5.21267C4.26286 2.58228 3.48438 3.35646 3.48438 4.30383V30.8977C3.48438 31.845 4.26286 32.7053 5.21267 32.7053ZM37.5307 14.6313C37.0987 14.6313 36.7532 14.2868 36.7532 13.8571C36.7532 13.4265 37.0987 13.082 37.5307 13.082C37.9628 13.082 38.3083 13.4265 38.3083 13.8571C38.3949 14.2007 37.9628 14.6313 37.5307 14.6313Z" fill="#E6AE00"/>
<path d="M27.8526 34.5987C27.6794 34.771 27.5938 35.0293 27.5938 35.2006C27.5938 35.459 27.6794 35.6313 27.8526 35.8035C28.0258 35.9758 28.1981 36.0619 28.4579 36.0619C28.7168 36.0619 28.889 35.9758 29.0622 35.8035C29.2354 35.6313 29.3211 35.459 29.3211 35.2006C29.3211 34.9432 29.2354 34.771 29.0622 34.5987C28.8034 34.2542 28.1981 34.2542 27.8526 34.5987Z" fill="#E6AE00"/>
</svg>
