<svg width="41" height="52" viewBox="0 0 41 52" fill="none" xmlns="http://www.w3.org/2000/svg">
<mask id="mask0_405_1730" style="mask-type:luminance" maskUnits="userSpaceOnUse" x="0" y="0" width="41" height="52">
<path d="M0.453125 0H40.6753V51.6079H0.453125V0Z" fill="white"/>
</mask>
<g mask="url(#mask0_405_1730)">
<path d="M36.8924 27.1557C36.8907 26.8198 36.9237 26.488 36.9931 26.1593C37.0617 25.8299 37.165 25.5109 37.3021 25.2009C37.4393 24.8908 37.6077 24.5961 37.8073 24.3175C38.007 24.0389 38.2336 23.7814 38.4879 23.5448C38.6563 23.3873 38.816 23.2218 38.9679 23.0498C39.119 22.8778 39.2605 22.6994 39.3924 22.5136C39.5252 22.3287 39.6476 22.1382 39.7596 21.942C39.8716 21.7449 39.9731 21.5439 40.0643 21.3388C40.1554 21.1329 40.2362 20.9238 40.3047 20.7106C40.3742 20.4974 40.4323 20.2818 40.4783 20.0638C40.5252 19.845 40.5599 19.6254 40.5834 19.4041C40.6068 19.1821 40.6181 18.96 40.6181 18.738C40.6181 18.5151 40.6068 18.2931 40.5834 18.0718C40.5599 17.8498 40.5252 17.6301 40.4783 17.4121C40.4323 17.1933 40.3742 16.9777 40.3047 16.7653C40.2362 16.5522 40.1554 16.3422 40.0643 16.1371C39.9731 15.9312 39.8716 15.7302 39.7596 15.534C39.6476 15.3378 39.5252 15.1464 39.3924 14.9615C39.2605 14.7766 39.119 14.5973 38.9679 14.4253C38.816 14.2533 38.6563 14.0886 38.4879 13.9312C38.2327 13.6946 38.0053 13.4378 37.8047 13.1592C37.6051 12.8807 37.4358 12.5859 37.2987 12.2759C37.1624 11.9658 37.0591 11.6461 36.9905 11.3166C36.9219 10.988 36.8889 10.6553 36.8924 10.3202C36.8907 10.0974 36.8777 9.87611 36.8533 9.65487C36.829 9.43362 36.7926 9.21399 36.7448 8.99598C36.6971 8.77797 36.6389 8.56318 36.5686 8.35082C36.4983 8.13846 36.4167 7.92933 36.3247 7.72423C36.2327 7.51914 36.1303 7.31889 36.0165 7.12348C35.9037 6.92727 35.7804 6.73752 35.6476 6.55342C35.5139 6.36851 35.3716 6.19087 35.2197 6.01969C35.0678 5.8477 34.908 5.68378 34.7388 5.52714C34.5695 5.37049 34.3924 5.22192 34.2084 5.08142C34.0235 4.94092 33.8316 4.80931 33.6337 4.68657C33.4349 4.56303 33.2301 4.44918 33.02 4.34502C32.8099 4.24086 32.5938 4.14638 32.3742 4.0616C32.1537 3.97682 31.9289 3.90253 31.7006 3.83874C31.4731 3.77495 31.2422 3.72085 31.0079 3.67806C30.7744 3.63526 30.5391 3.60296 30.3013 3.58116C30.0643 3.56017 29.8264 3.54967 29.5886 3.54967C29.2292 3.55209 28.8733 3.52141 28.52 3.45762C28.1676 3.39383 27.8247 3.29774 27.4922 3.17017C27.1598 3.04178 26.8447 2.88513 26.5461 2.6978C26.2474 2.51128 25.9723 2.29892 25.7188 2.06072C25.5504 1.90326 25.3733 1.75388 25.1893 1.61338C25.0044 1.47208 24.8125 1.33966 24.6146 1.21612C24.4158 1.09257 24.2119 0.978723 24.0009 0.873753C23.7908 0.768783 23.5756 0.674311 23.3551 0.589527C23.1346 0.503937 22.9098 0.429651 22.6815 0.365054C22.4532 0.300457 22.2223 0.246357 21.9888 0.202755C21.7544 0.159959 21.5191 0.126854 21.2813 0.105052C21.0443 0.083251 20.8065 0.0727539 20.5678 0.0727539C20.329 0.0727539 20.0912 0.083251 19.8542 0.105052C19.6164 0.126854 19.3811 0.159959 19.1468 0.202755C18.9132 0.246357 18.6823 0.300457 18.454 0.365054C18.2257 0.429651 18.0009 0.503937 17.7804 0.589527C17.5599 0.674311 17.3447 0.768783 17.1346 0.873753C16.9237 0.978723 16.7197 1.09257 16.5209 1.21612C16.323 1.33966 16.1311 1.47208 15.9462 1.61338C15.7622 1.75388 15.5851 1.90326 15.4167 2.06072C15.1632 2.29811 14.8872 2.51047 14.5886 2.69699C14.29 2.88352 13.9749 3.04097 13.6424 3.16855C13.3099 3.29613 12.9679 3.39222 12.6155 3.45681C12.2622 3.5206 11.9063 3.55209 11.5469 3.54967C11.3082 3.54967 11.0704 3.56098 10.8334 3.58358C10.5964 3.60539 10.3603 3.63849 10.1268 3.68209C9.89241 3.7257 9.66151 3.7798 9.43321 3.84439C9.20578 3.90899 8.98095 3.98408 8.76133 4.06967C8.54085 4.15526 8.32557 4.24974 8.1155 4.35471C7.90456 4.45968 7.70057 4.57434 7.50265 4.69788C7.30387 4.82142 7.1129 4.95465 6.92887 5.09515C6.74397 5.23645 6.56776 5.38583 6.39936 5.54329C6.23008 5.70074 6.07036 5.86546 5.91932 6.03745C5.76828 6.20944 5.62592 6.38789 5.49311 6.5728C5.36116 6.7577 5.2379 6.94826 5.12592 7.14448C5.01307 7.34069 4.91151 7.54175 4.81949 7.74765C4.72835 7.95274 4.64762 8.16187 4.57904 8.37504C4.5096 8.58821 4.45144 8.8038 4.40456 9.02182C4.35769 9.23983 4.3221 9.45946 4.29866 9.68151C4.27522 9.90276 4.26307 10.1248 4.26307 10.3469C4.26481 10.6828 4.23095 11.0146 4.16151 11.3433C4.09293 11.6727 3.98963 11.9917 3.85248 12.3017C3.7162 12.6118 3.54779 12.9065 3.34814 13.1851C3.14849 13.4636 2.92106 13.7212 2.66672 13.9578C2.49918 14.1153 2.34033 14.2808 2.19102 14.4528C2.04085 14.6248 1.90022 14.804 1.76915 14.9889C1.63807 15.1738 1.51654 15.3644 1.40543 15.5606C1.29432 15.7568 1.19363 15.9579 1.10422 16.1638C1.01394 16.3689 0.934946 16.578 0.866369 16.7904C0.798661 17.0035 0.742237 17.2183 0.696231 17.4363C0.651092 17.6544 0.617237 17.8732 0.594668 18.0944C0.572099 18.3157 0.561682 18.5369 0.56255 18.759C0.563418 18.981 0.575571 19.2023 0.599876 19.4227C0.624182 19.6439 0.659772 19.8628 0.707515 20.08C0.75439 20.298 0.81255 20.5128 0.882863 20.7251C0.952307 20.9367 1.03304 21.1458 1.12505 21.3501C1.2162 21.5552 1.31863 21.7554 1.43147 21.9508C1.54432 22.1463 1.66672 22.336 1.79953 22.5201C1.93234 22.7042 2.07383 22.8818 2.22574 23.053C2.37679 23.2242 2.53651 23.3881 2.70491 23.5448C2.95925 23.7822 3.18495 24.0397 3.3846 24.3191C3.58338 24.5977 3.75179 24.8924 3.88894 25.2017C4.02522 25.5117 4.12852 25.8307 4.19797 26.1593C4.26741 26.4888 4.30213 26.8206 4.30127 27.1557C4.30127 27.3519 4.30995 27.5481 4.32817 27.7436C4.3464 27.9398 4.37331 28.1344 4.4089 28.3273C4.44536 28.5211 4.48963 28.7133 4.54345 28.9031C4.59814 29.0928 4.66064 29.2801 4.73182 29.4651C4.803 29.65 4.88286 29.8316 4.97054 30.0101C5.05908 30.1885 5.15543 30.3629 5.2596 30.5333C5.36377 30.7037 5.47574 30.87 5.59554 31.0315C5.71533 31.193 5.84293 31.3497 5.97661 31.5007C6.11116 31.6525 6.25265 31.7978 6.40022 31.9375C6.54779 32.0772 6.70231 32.2112 6.86203 32.3388C7.02262 32.4656 7.18842 32.5867 7.35942 32.7005C7.5313 32.8144 7.70751 32.921 7.88894 33.0211C8.07036 33.1204 8.25613 33.2125 8.44623 33.2973C8.63633 33.382 8.82991 33.4587 9.02696 33.5282C9.22401 33.5968 9.42366 33.6582 9.62679 33.7107C9.82904 33.764 10.0339 33.8084 10.2414 33.8447L2.89849 50.3726C2.87331 50.4372 2.85595 50.5034 2.84814 50.5712C2.83946 50.639 2.83946 50.7069 2.84814 50.7747C2.85682 50.8425 2.87418 50.9079 2.90022 50.9725C2.9254 51.0363 2.95925 51.0969 3.00005 51.1534C3.04172 51.2099 3.08946 51.2608 3.14328 51.3068C3.19797 51.3528 3.25699 51.3916 3.32123 51.4247C3.38633 51.457 3.45317 51.482 3.52436 51.4998C3.59554 51.5176 3.66758 51.5272 3.7405 51.5281H3.91498L20.5921 48.5041L37.2691 51.5281H37.4436C37.5799 51.5248 37.7093 51.4949 37.8325 51.44C37.9549 51.3851 38.0608 51.3092 38.1494 51.2123C38.2066 51.151 38.2527 51.084 38.2882 51.0105C38.3238 50.937 38.3481 50.8595 38.3603 50.7795C38.3724 50.6996 38.3716 50.6197 38.3586 50.5397C38.3464 50.4598 38.3212 50.3831 38.2848 50.3096L30.9237 33.8447C31.1311 33.8084 31.336 33.7648 31.54 33.7123C31.7431 33.6598 31.9436 33.5992 32.1415 33.5306C32.3386 33.462 32.533 33.3853 32.724 33.3013C32.9141 33.2165 33.1007 33.1245 33.283 33.0251C33.4653 32.9258 33.6424 32.8192 33.8143 32.7054C33.9862 32.5915 34.1528 32.4712 34.3134 32.3436C34.4749 32.2169 34.6294 32.0828 34.7778 31.9431C34.9263 31.8035 35.0686 31.6581 35.2032 31.5063C35.3386 31.3553 35.4662 31.1987 35.5869 31.0372C35.7066 30.8757 35.8195 30.7094 35.9245 30.539C36.0296 30.3678 36.1268 30.1934 36.2153 30.0149C36.3039 29.8357 36.3846 29.654 36.4558 29.4691C36.5278 29.2842 36.5912 29.096 36.6459 28.9063C36.6997 28.7157 36.7457 28.5236 36.7822 28.3298C36.8186 28.136 36.8455 27.9414 36.8646 27.7452C36.8829 27.549 36.8915 27.3519 36.8924 27.1557ZM29.5886 32.2645C29.1094 32.2637 28.6355 32.3057 28.1658 32.3921C27.6962 32.4785 27.2405 32.6061 26.7978 32.7764C26.3551 32.9476 25.9349 33.1568 25.5365 33.4046C25.1389 33.6525 24.7709 33.9343 24.4323 34.2509C24.3056 34.3688 24.1728 34.4818 24.0348 34.5876C23.8959 34.6942 23.7527 34.7935 23.6033 34.8871C23.4549 34.98 23.3013 35.0656 23.1433 35.1447C22.9853 35.2239 22.823 35.2957 22.6572 35.3595C22.4922 35.4233 22.3238 35.4798 22.152 35.5283C21.9801 35.5775 21.8065 35.6179 21.6311 35.651C21.4549 35.6833 21.2778 35.7075 21.0999 35.7245C20.9211 35.7406 20.7422 35.7487 20.5625 35.7487C20.3837 35.7487 20.2049 35.7406 20.0261 35.7245C19.8481 35.7075 19.6711 35.6833 19.4948 35.651C19.3195 35.6179 19.1459 35.5775 18.974 35.5283C18.8021 35.4798 18.6337 35.4233 18.4679 35.3595C18.303 35.2957 18.1407 35.2239 17.9827 35.1447C17.8247 35.0656 17.6711 34.98 17.5226 34.8871C17.3733 34.7935 17.2292 34.6942 17.0912 34.5876C16.9523 34.4818 16.8204 34.3688 16.6936 34.2509C16.356 33.9343 15.9888 33.6525 15.5921 33.4046C15.1945 33.1559 14.7752 32.9468 14.3334 32.7764C13.8915 32.6061 13.4367 32.4777 12.9671 32.3913C12.4983 32.3057 12.0252 32.2629 11.5469 32.2645C11.369 32.2629 11.191 32.254 11.0139 32.2363C10.836 32.2185 10.6606 32.1926 10.4862 32.1587C10.3108 32.1248 10.1389 32.0836 9.9688 32.0344C9.79779 31.9843 9.63113 31.9278 9.4662 31.8632C9.30213 31.7986 9.14154 31.7259 8.98529 31.6468C8.82817 31.5677 8.67626 31.4813 8.5287 31.3884C8.38026 31.2948 8.2379 31.1954 8.10074 31.0889C7.96359 30.9831 7.83251 30.8708 7.70665 30.7521C7.58078 30.6343 7.46186 30.5107 7.34988 30.3815C7.23703 30.2523 7.13113 30.1183 7.03304 29.9802C6.93408 29.8413 6.84293 29.6984 6.7596 29.5515C6.67626 29.4045 6.59988 29.2543 6.53217 29.1001C6.46446 28.9467 6.40456 28.79 6.35335 28.6301C6.30213 28.4711 6.25873 28.3096 6.22401 28.1465C6.18929 27.9834 6.16324 27.8186 6.14588 27.6531C6.12852 27.4876 6.11984 27.3221 6.11984 27.1557C6.12158 26.7092 6.07644 26.2675 5.98442 25.8299C5.89154 25.3922 5.75439 24.9675 5.5721 24.5549C5.38894 24.1431 5.16498 23.7515 4.89849 23.3809C4.63286 23.0102 4.33078 22.6679 3.99224 22.353C3.86463 22.2351 3.74484 22.1115 3.63113 21.9823C3.51654 21.8531 3.40977 21.7183 3.30995 21.5794C3.21012 21.4405 3.11811 21.2976 3.0339 21.1498C2.94883 21.0021 2.87245 20.8511 2.80387 20.6969C2.73529 20.5426 2.67453 20.3852 2.62245 20.2253C2.57036 20.0646 2.52696 19.9031 2.49137 19.7384C2.45665 19.5745 2.43061 19.4098 2.41238 19.2426C2.39502 19.0763 2.38633 18.91 2.38633 18.742C2.38633 18.5749 2.39502 18.4077 2.41238 18.2414C2.43061 18.075 2.45665 17.9095 2.49137 17.7456C2.52696 17.5817 2.57036 17.4194 2.62245 17.2595C2.67453 17.0996 2.73529 16.9422 2.80387 16.788C2.87245 16.6329 2.94883 16.4819 3.0339 16.335C3.11811 16.1872 3.21012 16.0435 3.30995 15.9046C3.40977 15.7657 3.51654 15.6317 3.63113 15.5025C3.74484 15.3733 3.86463 15.2497 3.99224 15.1311C4.33078 14.8161 4.63373 14.473 4.89936 14.1015C5.16585 13.7301 5.38981 13.3377 5.57297 12.9251C5.75526 12.5117 5.89328 12.0861 5.98529 11.6477C6.07731 11.2092 6.12245 10.7667 6.11984 10.3202C6.12071 10.1531 6.12939 9.98673 6.14762 9.82039C6.16498 9.65487 6.19189 9.49014 6.22661 9.32623C6.2622 9.16232 6.3056 9.00082 6.35769 8.84175C6.40977 8.68188 6.47054 8.52523 6.53911 8.37101C6.60769 8.21678 6.68408 8.06659 6.76828 7.91964C6.85335 7.77268 6.94536 7.62976 7.04432 7.49088C7.14415 7.35199 7.25092 7.21876 7.36463 7.08957C7.47748 6.96038 7.59814 6.83764 7.72401 6.71975C7.85074 6.60186 7.98356 6.48963 8.12158 6.38385C8.2596 6.27807 8.4037 6.17876 8.55213 6.08671C8.70057 5.99385 8.85422 5.90826 9.0122 5.82993C9.16932 5.7508 9.33078 5.67975 9.49658 5.61596C9.66151 5.55217 9.82991 5.49645 10.0009 5.44801C10.1719 5.39956 10.3455 5.35919 10.5209 5.32689C10.6962 5.29378 10.8724 5.26956 11.0504 5.25341C11.2283 5.23726 11.4072 5.22918 11.586 5.22918C12.0634 5.22999 12.5374 5.188 13.0061 5.10161C13.4749 5.01602 13.9306 4.88763 14.3724 4.71726C14.8143 4.54688 15.2336 4.33694 15.6303 4.08905C16.0278 3.84116 16.395 3.55936 16.7318 3.24284C16.8586 3.12414 16.9914 3.0119 17.1294 2.90613C17.2683 2.79954 17.4124 2.70022 17.5608 2.60656C17.7101 2.5137 17.8638 2.4273 18.0218 2.34898C18.1797 2.26985 18.3412 2.19798 18.507 2.1342C18.6728 2.0696 18.8412 2.01388 19.0131 1.96463C19.1841 1.91618 19.3577 1.87581 19.5339 1.8427C19.7093 1.8104 19.8863 1.78537 20.0652 1.76922C20.2431 1.75308 20.4219 1.745 20.6016 1.745C20.7813 1.745 20.9601 1.75308 21.1381 1.76922C21.3169 1.78537 21.494 1.8104 21.6693 1.8427C21.8455 1.87581 22.0191 1.91618 22.1902 1.96463C22.362 2.01388 22.5304 2.0696 22.6962 2.1342C22.862 2.19798 23.0235 2.26985 23.1815 2.34898C23.3395 2.4273 23.4931 2.5137 23.6424 2.60656C23.7908 2.70022 23.9349 2.79954 24.0738 2.90613C24.2119 3.0119 24.3447 3.12414 24.4714 3.24284C24.8056 3.55936 25.1702 3.84197 25.5652 4.09148C25.9593 4.34098 26.3759 4.55173 26.8152 4.72452C27.2544 4.89732 27.7066 5.02813 28.1737 5.11776C28.6407 5.20738 29.112 5.25341 29.5886 5.25583C29.7674 5.25583 29.9454 5.26471 30.1233 5.28086C30.3004 5.29782 30.4775 5.32285 30.652 5.35515C30.8273 5.38825 31 5.42863 31.1711 5.47707C31.3421 5.52552 31.5096 5.58204 31.6745 5.64583C31.8395 5.70962 32.0009 5.78068 32.158 5.85981C32.316 5.93813 32.4688 6.02372 32.6172 6.11658C32.7657 6.20944 32.9089 6.30876 33.0469 6.41453C33.1849 6.52031 33.3169 6.63174 33.4436 6.74963C33.5695 6.86752 33.6893 6.99106 33.803 7.11945C33.9167 7.24864 34.0226 7.38187 34.1216 7.52075C34.2214 7.65964 34.3134 7.80175 34.3976 7.94871C34.4818 8.09566 34.5582 8.24666 34.6268 8.40007C34.6954 8.5543 34.7553 8.71095 34.8073 8.87002C34.8594 9.02989 34.9028 9.19138 34.9375 9.35449C34.9731 9.5176 34.9992 9.68232 35.0174 9.84866C35.0348 10.0142 35.0443 10.1805 35.0443 10.3469C35.0426 10.7942 35.0877 11.2367 35.1797 11.6751C35.2718 12.1136 35.4089 12.5391 35.5921 12.9517C35.7744 13.3651 35.9983 13.7568 36.2648 14.1282C36.5313 14.4996 36.8334 14.8428 37.1728 15.1585C37.3004 15.2764 37.4211 15.3999 37.5356 15.5291C37.6502 15.6575 37.757 15.7916 37.8577 15.9304C37.9575 16.0693 38.0504 16.213 38.1355 16.36C38.2205 16.5078 38.2978 16.6588 38.3664 16.813C38.4358 16.968 38.4966 17.1255 38.5487 17.2854C38.6016 17.4452 38.645 17.6075 38.6806 17.7722C38.7153 17.9362 38.7422 18.1017 38.7596 18.268C38.777 18.4352 38.7865 18.6015 38.7865 18.7695C38.7865 18.9366 38.777 19.1037 38.7596 19.2709C38.7422 19.4372 38.7153 19.6028 38.6806 19.7667C38.645 19.9314 38.6016 20.0929 38.5487 20.2536C38.4966 20.4134 38.4358 20.5709 38.3664 20.7251C38.2978 20.8802 38.2205 21.0312 38.1355 21.1781C38.0504 21.3259 37.9575 21.4688 37.8577 21.6077C37.757 21.7466 37.6502 21.8806 37.5356 22.0098C37.4211 22.139 37.3004 22.2625 37.1728 22.3804C36.8377 22.6937 36.5382 23.0353 36.2752 23.4043C36.0122 23.7733 35.79 24.1625 35.6086 24.5719C35.428 24.9812 35.2917 25.4035 35.1997 25.8388C35.1077 26.2732 35.0625 26.7124 35.0634 27.1557C35.0634 27.3229 35.0547 27.49 35.0374 27.6563C35.02 27.8227 34.9931 27.9882 34.9584 28.1521C34.9237 28.316 34.8803 28.4783 34.8282 28.6382C34.7761 28.7989 34.7153 28.9564 34.6468 29.1106C34.5782 29.2656 34.5018 29.4166 34.4176 29.5636C34.3325 29.7113 34.2405 29.8551 34.1407 29.9939C34.0417 30.1328 33.9349 30.2677 33.8212 30.3969C33.7075 30.5261 33.5869 30.6496 33.4601 30.7683C33.3334 30.8862 33.2006 30.9984 33.0617 31.105C32.9237 31.2108 32.7796 31.3109 32.6303 31.4038C32.481 31.4966 32.3273 31.5822 32.1693 31.6613C32.0113 31.7405 31.849 31.8115 31.6841 31.8761C31.5183 31.9399 31.349 31.9964 31.178 32.0449C31.0061 32.0933 30.8325 32.1337 30.6563 32.1668C30.481 32.1991 30.3039 32.2233 30.125 32.2403C29.9462 32.2564 29.7674 32.2645 29.5886 32.2645ZM19.6823 42.411V46.9247L12.7952 48.1884L15.4358 41.4001C15.4566 41.3476 15.4714 41.2943 15.481 41.2394C15.4905 41.1845 15.494 41.1296 15.4914 41.0739C15.4888 41.0182 15.481 40.9633 15.4671 40.9092C15.4523 40.8551 15.4332 40.8034 15.408 40.7525C15.3829 40.7025 15.3525 40.6548 15.3169 40.6096C15.2813 40.5652 15.2422 40.524 15.198 40.4869C15.1537 40.4489 15.106 40.4166 15.0547 40.3876C15.0035 40.3593 14.9506 40.3359 14.8941 40.3165C14.7943 40.281 14.691 40.2632 14.5843 40.2624C14.4914 40.2656 14.4011 40.281 14.3125 40.3084C14.224 40.3359 14.1424 40.3746 14.066 40.4239C13.9896 40.4739 13.9219 40.5321 13.8638 40.5999C13.8056 40.6677 13.7587 40.742 13.724 40.822L10.7058 48.5679L5.23963 49.5603L12.1763 33.9981C12.7935 34.0603 13.3829 34.2161 13.9436 34.4648C14.5035 34.7143 15.0044 35.043 15.4454 35.4516C15.6138 35.609 15.7908 35.7584 15.9749 35.9005C16.1589 36.0418 16.3507 36.1742 16.5487 36.2986C16.7474 36.4221 16.9514 36.5368 17.1615 36.6418C17.3724 36.7475 17.5877 36.842 17.8082 36.9276C18.0287 37.0132 18.2527 37.0883 18.481 37.1529C18.7101 37.2175 18.941 37.2716 19.1754 37.3152C19.4089 37.3588 19.645 37.3919 19.8829 37.4137C20.1198 37.4355 20.3577 37.446 20.5964 37.446C20.8351 37.446 21.0738 37.4355 21.3108 37.4137C21.5487 37.3919 21.7848 37.3588 22.0183 37.3152C22.2527 37.2716 22.4836 37.2175 22.7119 37.1529C22.9402 37.0883 23.165 37.0132 23.3855 36.9276C23.606 36.842 23.8212 36.7475 24.0313 36.6418C24.2422 36.5368 24.4462 36.4221 24.645 36.2986C24.8429 36.1742 25.0348 36.0418 25.2188 35.9005C25.4028 35.7584 25.579 35.609 25.7483 35.4516C26.1875 35.0438 26.6867 34.716 27.2457 34.4665C27.8047 34.2169 28.3924 34.0611 29.0079 33.9981L35.954 49.5603L30.4783 48.5679L27.4601 40.822C27.4289 40.7404 27.3846 40.6653 27.3282 40.5959C27.2718 40.5272 27.2049 40.4675 27.1285 40.4174C27.053 40.3674 26.9705 40.3294 26.882 40.3028C26.7926 40.2761 26.7023 40.2632 26.6086 40.2624C26.4992 40.264 26.3924 40.2818 26.29 40.3165C26.2336 40.3359 26.1797 40.3593 26.1285 40.3876C26.0773 40.4166 26.0304 40.4489 25.9862 40.4869C25.9419 40.524 25.902 40.5652 25.8672 40.6096C25.8316 40.6548 25.8013 40.7025 25.7761 40.7525C25.7509 40.8034 25.731 40.8551 25.7171 40.9092C25.7032 40.9633 25.6945 41.0182 25.6928 41.0739C25.6902 41.1296 25.6936 41.1845 25.7032 41.2394C25.7119 41.2943 25.7275 41.3476 25.7483 41.4001L28.3889 48.1884L21.5113 46.9336V42.4199C21.5174 42.3602 21.5174 42.3004 21.5105 42.2415C21.5035 42.1817 21.4905 42.1228 21.4705 42.0663C21.4506 42.0089 21.4245 41.9548 21.3924 41.9023C21.3594 41.8507 21.3221 41.8022 21.2787 41.7578C21.2362 41.7134 21.1884 41.673 21.1363 41.6383C21.0843 41.6028 21.0287 41.5729 20.9705 41.5487C20.9115 41.5245 20.8507 41.5059 20.7874 41.4938C20.7249 41.4809 20.6615 41.4744 20.5964 41.4744C20.5322 41.4744 20.4688 41.4809 20.4063 41.4938C20.3429 41.5059 20.2822 41.5245 20.2231 41.5487C20.165 41.5729 20.1094 41.6028 20.0573 41.6383C20.0053 41.673 19.9575 41.7134 19.9141 41.7578C19.8716 41.8022 19.8334 41.8507 19.8013 41.9023C19.7691 41.9548 19.7431 42.0089 19.7231 42.0663C19.7032 42.1228 19.6902 42.1817 19.6832 42.2415C19.6763 42.3004 19.6763 42.3602 19.6823 42.4199V42.411Z" fill="#E6AE00"/>
</g>
<path d="M26.4895 13.3166C26.3462 13.2367 26.1917 13.1979 26.0251 13.1995C25.8645 13.1995 25.7143 13.2358 25.5745 13.3101C25.4339 13.3844 25.3237 13.4862 25.2412 13.6145L19.0988 23.2378L14.7646 18.1282C14.6778 18.0273 14.5711 17.949 14.4452 17.8941C14.3202 17.8384 14.1874 17.8109 14.0485 17.8125C13.8384 17.8101 13.6518 17.8699 13.4877 17.9926C13.4408 18.0273 13.3974 18.0661 13.3584 18.1089C13.3193 18.1517 13.2846 18.1977 13.256 18.2469C13.2264 18.2962 13.2021 18.3471 13.1839 18.4012C13.1657 18.4545 13.1527 18.5094 13.1466 18.5651C13.1396 18.6208 13.1388 18.6765 13.144 18.733C13.1492 18.7887 13.1596 18.8436 13.177 18.8977C13.1935 18.9518 13.216 19.0035 13.2438 19.0536C13.2716 19.1028 13.3046 19.1497 13.3428 19.1933L18.4895 25.2508C18.5789 25.3485 18.6856 25.4252 18.8106 25.4801C18.9356 25.5351 19.0667 25.5641 19.2047 25.5665H19.2629C19.4131 25.5577 19.5528 25.5165 19.6813 25.443C19.8098 25.3695 19.9122 25.2726 19.9886 25.1515L26.808 14.5173C26.8688 14.4172 26.907 14.3106 26.9235 14.1967C26.94 14.0821 26.9339 13.9698 26.9035 13.8584C26.874 13.747 26.8237 13.6444 26.7516 13.5508C26.6804 13.4571 26.5928 13.3796 26.4895 13.3166Z" fill="#E6AE00"/>
<path d="M20.5885 6.39404C20.1545 6.39404 19.7214 6.41342 19.2891 6.45299C18.8576 6.49336 18.4288 6.5523 18.0026 6.63144C17.5773 6.71057 17.1562 6.80908 16.7413 6.92616C16.3255 7.04405 15.9175 7.18051 15.5165 7.33554C15.1155 7.49057 14.724 7.66337 14.3411 7.85393C13.9583 8.0453 13.5868 8.25281 13.2257 8.47809C12.8646 8.70337 12.5165 8.944 12.1806 9.20077C11.8455 9.45754 11.5243 9.72965 11.217 10.0163C10.9106 10.3021 10.6189 10.6025 10.3437 10.915C10.0686 11.2283 9.8099 11.5529 9.56944 11.8904C9.32812 12.2271 9.10503 12.5735 8.90017 12.9312C8.69618 13.2881 8.51042 13.6539 8.34462 14.0278C8.17795 14.4024 8.03212 14.7835 7.90625 15.1711C7.78038 15.5587 7.67448 15.9511 7.59028 16.3484C7.50521 16.7457 7.44184 17.1454 7.39931 17.5483C7.35677 17.952 7.33594 18.3557 7.33594 18.7611C7.33594 19.1656 7.35677 19.5702 7.39931 19.9731C7.44184 20.376 7.50521 20.7765 7.59028 21.1738C7.67448 21.571 7.78038 21.9635 7.90625 22.351C8.03212 22.7386 8.17795 23.1189 8.34462 23.4936C8.51042 23.8674 8.69618 24.2332 8.90017 24.5909C9.10503 24.9478 9.32812 25.295 9.56944 25.6317C9.8099 25.9685 10.0686 26.2931 10.3437 26.6063C10.6189 26.9196 10.9106 27.2192 11.217 27.5059C11.5243 27.7917 11.8455 28.0638 12.1806 28.3206C12.5165 28.5774 12.8646 28.8188 13.2257 29.0433C13.5868 29.2685 13.9583 29.4769 14.3411 29.6674C14.724 29.8588 15.1155 30.0316 15.5165 30.1866C15.9175 30.3416 16.3255 30.4781 16.7413 30.5952C17.1562 30.7131 17.5773 30.8116 18.0026 30.8899C18.4288 30.969 18.8576 31.0288 19.2891 31.0684C19.7214 31.1079 20.1545 31.1281 20.5885 31.1281C21.0226 31.1281 21.4557 31.1079 21.8872 31.0684C22.3194 31.0288 22.7483 30.969 23.1736 30.8899C23.5998 30.8116 24.02 30.7131 24.4358 30.5952C24.8507 30.4781 25.2587 30.3416 25.6597 30.1866C26.0608 30.0316 26.4531 29.8588 26.8359 29.6674C27.2187 29.4769 27.5903 29.2685 27.9514 29.0433C28.3125 28.8188 28.6606 28.5774 28.9957 28.3206C29.3316 28.0638 29.6528 27.7917 29.9601 27.5059C30.2665 27.2192 30.5573 26.9196 30.8333 26.6063C31.1085 26.2931 31.3663 25.9685 31.6076 25.6317C31.849 25.295 32.072 24.9478 32.276 24.5909C32.4809 24.2332 32.6667 23.8674 32.8325 23.4936C32.9983 23.1189 33.145 22.7386 33.2708 22.351C33.3967 21.9635 33.5017 21.571 33.5868 21.1738C33.671 20.7765 33.7352 20.376 33.7778 19.9731C33.8203 19.5702 33.8411 19.1656 33.8411 18.7611C33.8403 18.3557 33.8186 17.952 33.776 17.5491C33.7326 17.1462 33.6684 16.7465 33.5833 16.3492C33.4983 15.9527 33.3924 15.5603 33.2665 15.1727C33.1398 14.7852 32.9939 14.4048 32.8273 14.031C32.6615 13.6571 32.4757 13.2914 32.2708 12.9345C32.066 12.5776 31.8429 12.2312 31.6016 11.8945C31.3611 11.5577 31.1024 11.2331 30.8273 10.9198C30.5521 10.6074 30.2604 10.3078 29.954 10.0211C29.6476 9.73531 29.3264 9.46319 28.9904 9.20642C28.6554 8.94965 28.3073 8.70822 27.947 8.48375C27.5859 8.25846 27.2144 8.05014 26.8316 7.85958C26.4496 7.66821 26.0582 7.49542 25.6571 7.34038C25.2561 7.18454 24.8481 7.04808 24.4332 6.9302C24.0182 6.81231 23.5981 6.7138 23.1727 6.63467C22.7474 6.55473 22.3186 6.49498 21.8872 6.4546C21.4549 6.41504 21.0226 6.39404 20.5885 6.39404ZM20.5885 29.422C20.2144 29.422 19.8411 29.405 19.4687 29.3703C19.0964 29.3364 18.7266 29.2847 18.3594 29.2169C17.9922 29.149 17.6302 29.0642 17.2717 28.9625C16.9141 28.8616 16.5625 28.7437 16.2161 28.6105C15.8707 28.4764 15.533 28.3278 15.2031 28.1631C14.8733 27.9984 14.5521 27.8191 14.2413 27.6254C13.9306 27.4308 13.6302 27.2232 13.3411 27.002C13.0512 26.7799 12.7743 26.5458 12.5104 26.2995C12.2457 26.0524 11.9948 25.794 11.7569 25.5244C11.52 25.2539 11.2969 24.9737 11.0894 24.6838C10.8811 24.3931 10.6892 24.0943 10.513 23.7867C10.3368 23.4783 10.1771 23.1633 10.0339 22.8404C9.89062 22.5182 9.76476 22.1895 9.65538 21.8553C9.54687 21.5218 9.4566 21.1835 9.38368 20.8403C9.31076 20.4979 9.25521 20.1531 9.21875 19.8059C9.18229 19.4579 9.16406 19.1099 9.16406 18.7611C9.16406 18.4114 9.18229 18.0634 9.21875 17.7162C9.25521 17.3682 9.31076 17.0234 9.38368 16.6811C9.4566 16.3387 9.54687 16.0004 9.65538 15.6661C9.76476 15.3318 9.89062 15.004 10.0339 14.681C10.1771 14.3588 10.3368 14.0431 10.513 13.7355C10.6892 13.427 10.8811 13.1282 11.0894 12.8376C11.2969 12.5477 11.52 12.2675 11.7569 11.9978C11.9948 11.7273 12.2457 11.4689 12.5104 11.2226C12.7743 10.9756 13.0512 10.7414 13.3411 10.5202C13.6302 10.2981 13.9306 10.0906 14.2413 9.8968C14.5521 9.7022 14.8733 9.52294 15.2031 9.35903C15.533 9.19431 15.8707 9.04493 16.2161 8.9117C16.5625 8.77766 16.9141 8.66058 17.2717 8.55884C17.6302 8.45791 17.9922 8.37312 18.3594 8.30449C18.7266 8.23666 19.0964 8.18579 19.4687 8.15107C19.8411 8.11716 20.2144 8.1002 20.5885 8.1002C20.9627 8.1002 21.3359 8.11716 21.7083 8.15107C22.0807 8.18579 22.4505 8.23666 22.8168 8.30449C23.184 8.37312 23.5469 8.45791 23.9045 8.55884C24.263 8.66058 24.6146 8.77766 24.9601 8.9117C25.3064 9.04493 25.6441 9.19431 25.974 9.35903C26.3038 9.52294 26.6241 9.7022 26.9358 9.8968C27.2465 10.0906 27.5469 10.2981 27.8359 10.5202C28.125 10.7414 28.4019 10.9756 28.6667 11.2226C28.9314 11.4689 29.1823 11.7273 29.4201 11.9978C29.6571 12.2675 29.8793 12.5477 30.0877 12.8376C30.2951 13.1282 30.4878 13.427 30.6641 13.7355C30.8403 14.0431 31 14.3588 31.1432 14.681C31.2865 15.004 31.4123 15.3318 31.5208 15.6661C31.6293 16.0004 31.7205 16.3387 31.7934 16.6811C31.8663 17.0234 31.921 17.3682 31.9583 17.7162C31.9948 18.0634 32.013 18.4114 32.013 18.7611C32.0121 19.1099 31.9931 19.4579 31.9566 19.8051C31.9193 20.1523 31.8637 20.4971 31.7899 20.8395C31.717 21.1818 31.6259 21.5194 31.5165 21.8536C31.408 22.1871 31.2812 22.5158 31.138 22.8379C30.9948 23.1601 30.8351 23.475 30.658 23.7827C30.4818 24.0903 30.2899 24.3891 30.0816 24.6797C29.8741 24.9696 29.651 25.2498 29.4141 25.5195C29.1762 25.7892 28.9253 26.0468 28.6615 26.2939C28.3967 26.5409 28.1198 26.7751 27.8307 26.9963C27.5417 27.2176 27.2422 27.4251 26.9314 27.6197C26.6198 27.8135 26.2995 27.9928 25.9705 28.1575C25.6406 28.3222 25.3029 28.4716 24.9575 28.6056C24.612 28.7388 24.2604 28.8567 23.9028 28.9585C23.5451 29.0602 23.1823 29.145 22.816 29.2136C22.4488 29.2823 22.0799 29.3339 21.7075 29.3687C21.3351 29.4034 20.9627 29.4211 20.5885 29.422Z" fill="#E6AE00"/>
</svg>
