<svg width="43" height="46" viewBox="0 0 43 46" fill="none" xmlns="http://www.w3.org/2000/svg">
<rect x="1" y="1" width="40.2609" height="33.2174" rx="3" stroke="#E6AE00" stroke-width="2"/>
<path fill-rule="evenodd" clip-rule="evenodd" d="M20.6328 46C19.8044 46 19.1328 45.3284 19.1328 44.5L19.1328 35.5C19.1328 34.6716 19.8044 34 20.6328 34C21.4612 34 22.1328 34.6716 22.1328 35.5L22.1328 44.5C22.1328 45.3284 21.4612 46 20.6328 46Z" fill="#E6AE00"/>
<g clip-path="url(#clip0_771_11091)">
<path d="M21.9851 3.52173C22.5179 3.59518 23.0551 3.64568 23.5828 3.74578C25.3808 4.06475 27.098 4.73592 28.6357 5.72067C30.1735 6.70542 31.5014 7.98435 32.5433 9.48397C32.5577 9.50508 32.5702 9.52737 32.5807 9.55064L31.3738 10.7588C30.2914 9.11399 28.8252 7.75721 27.1016 6.80548C25.3779 5.85375 23.4486 5.33565 21.48 5.29585C19.8045 5.22076 18.1322 5.50173 16.5732 6.12022C15.0142 6.73872 13.604 7.68068 12.4357 8.88401C11.2555 10.0468 10.3243 11.4376 9.699 12.9718C9.07367 14.506 8.7672 16.1515 8.79829 17.8079C8.82937 19.4644 9.1974 21.0971 9.87984 22.6068C10.5623 24.1165 11.5449 25.4714 12.7678 26.5891C14.0575 27.8286 15.6113 28.7597 17.3124 29.3126C19.0135 29.8655 20.8178 30.0257 22.5897 29.7813C24.3564 29.5847 26.0582 29.0016 27.5744 28.0736C29.0905 27.1455 30.3838 25.8951 31.3624 24.4111L32.5927 25.6397C32.2899 26.0191 31.9736 26.455 31.6175 26.8554C29.2951 29.5485 26.021 31.2387 22.4806 31.5723C20.6202 31.7516 18.7427 31.5588 16.9576 31.0051C15.1725 30.4514 13.5154 29.5479 12.0831 28.3472C10.6508 27.1465 9.47181 25.6727 8.61493 24.0116C7.75806 22.3506 7.24044 20.5356 7.09223 18.6725C7.08205 18.6007 7.06686 18.5297 7.04688 18.46V16.7026C7.06671 16.6329 7.08186 16.562 7.09216 16.4903C7.29177 13.7084 8.33787 11.0543 10.0899 8.88423C12.2192 6.14958 15.2958 4.31197 18.7131 3.73378C19.2145 3.64367 19.7227 3.59153 20.2277 3.5218L21.9851 3.52173Z" fill="#E6AE00"/>
<path d="M17.4699 19.9678C17.5751 21.4503 18.3856 22.4459 19.5172 22.4674V22.1707C19.5172 21.0449 19.5076 19.919 19.5242 18.7935C19.5282 18.5235 19.4451 18.4215 19.1865 18.3464C18.4894 18.1647 17.8049 17.9378 17.1375 17.6669C16.5076 17.4254 15.9681 16.9946 15.5933 16.4338C15.2184 15.873 15.0266 15.2098 15.0442 14.5354C15.0037 13.8219 15.1717 13.112 15.5277 12.4923C15.8837 11.8726 16.4122 11.3698 17.049 11.0452C17.6692 10.7297 18.34 10.5255 19.0309 10.4421C19.1565 10.4202 19.2819 10.3968 19.4288 10.3702V8.81396H20.5633V10.2681C20.973 10.3478 21.357 10.4221 21.7409 10.4974C22.6093 10.6902 23.3914 11.1601 23.9694 11.8362C24.5475 12.5123 24.89 13.358 24.9455 14.2458C24.9483 14.2897 24.9459 14.334 24.9459 14.3917C24.8907 14.4021 24.8349 14.4092 24.7789 14.4128C23.9475 14.4141 23.1162 14.4137 22.2674 14.4137C22.2649 14.1231 22.2003 13.8363 22.0781 13.5726C21.9558 13.309 21.7787 13.0744 21.5585 12.8847C21.3115 12.6823 20.9995 12.5762 20.6803 12.586V15.9566C21.1775 16.1143 21.6827 16.2607 22.1782 16.4347C23.1158 16.7033 23.9598 17.2282 24.6152 17.9504C24.963 18.3795 25.2189 18.8755 25.3671 19.4076C25.5153 19.9397 25.5525 20.4966 25.4765 21.0437C25.4005 21.5908 25.213 22.1164 24.9254 22.588C24.6378 23.0596 24.2564 23.4671 23.8048 23.7851C22.9761 24.3792 22.0045 24.7423 20.9894 24.8374C20.8897 24.8459 20.791 24.8657 20.6693 24.8835V26.3508H19.5263V24.7056C18.7869 24.706 18.0575 24.5354 17.395 24.2072C16.7326 23.879 16.1549 23.402 15.7073 22.8135C15.1346 21.9722 14.8134 20.9851 14.7812 19.9678H17.4699ZM20.7705 22.4668C21.3769 22.3947 21.9408 22.1183 22.3692 21.6831C22.6262 21.3912 22.7683 21.0157 22.7688 20.6268C22.7693 20.2379 22.6283 19.8621 22.3721 19.5695C21.8891 19.2223 21.3461 18.9675 20.7705 18.8179V22.4668ZM19.5022 15.626V12.5337C19.0584 12.5336 18.6313 12.7027 18.3079 13.0066C17.9845 13.3105 17.7892 13.7263 17.7617 14.1692C17.7618 14.9533 18.4493 15.5333 19.5022 15.626Z" fill="#E6AE00"/>
<path d="M27.0047 17.5809L33.9375 10.6481L33.9375 24.5176L27.0047 17.5809Z" fill="#E6AE00"/>
</g>
<defs>
<clipPath id="clip0_771_11091">
<rect width="28.0363" height="28.123" fill="white" transform="translate(7.04688 3.52173)"/>
</clipPath>
</defs>
</svg>
