<svg width="64" height="12" viewBox="0 0 64 12" fill="none" xmlns="http://www.w3.org/2000/svg">
<g opacity="0.5" clip-path="url(#clip0_3008_3569)">
<path d="M0.257812 11.2827L1.2048 11.0002V2.63329C1.2048 2.04695 0.819697 1.53023 0.257812 1.36265V1.29224H7.86061V4.17513H7.79021L7.64858 3.80804C7.041 2.22578 6.00936 1.57942 4.0877 1.57942C4.0877 6.00549 3.97835 5.97602 3.95665 9.54487C3.95186 10.3324 4.45683 11.0335 5.204 11.2827V11.3531H0.257812V11.2827Z" fill="white"/>
<path d="M6.78884 5.39893C6.46041 6.47408 4.78755 6.74738 3.99219 6.74966V6.95224C6.06533 6.87122 6.72045 7.84146 6.78884 8.3367H6.92995V5.39893H6.78884Z" fill="white"/>
<path d="M8.61914 11.2833L9.56558 11.0007V1.65023L8.61914 1.36759V1.29712H13.3937V1.36759L12.4472 1.65023V11.0007L13.3937 11.2833V11.3538H8.61914V11.2833Z" fill="white"/>
<path d="M15.0492 2.57163L15.0401 4.51674C15.1674 9.43217 16.345 10.8022 18.3787 11.2401L18.5765 11.2826V11.3531H13.8164V11.2826L14.7628 10.9999V2.314L13.8164 1.35319V1.29712H17.743L23.6571 7.42341L23.6427 6.14209C23.6147 2.79441 22.6721 1.60779 21.2733 1.39638L21.0899 1.36835V1.29787H24.8892L25.5022 1.65553L23.9428 1.65098V11.7077H23.9003L15.0492 2.57163Z" fill="white"/>
<path d="M24.543 11.4205L25.5023 11.1341V1.65477L24.543 1.36835V1.29712H29.225C32.3037 1.29712 33.263 2.18519 33.263 3.11569C33.263 4.11818 32.1317 4.92212 30.6715 5.13658V5.17975C32.2181 5.35176 34.1655 6.12316 34.1655 8.25616C34.1655 10.0603 32.7909 11.4925 29.9699 11.4925H24.543V11.4213V11.4205ZM29.0826 5.76172C29.9563 5.76172 30.7435 5.27675 30.7435 3.65899C30.7435 2.04122 29.9563 1.58506 29.0538 1.58506H28.3953V5.76172H29.0826ZM29.2682 11.2038C30.5139 11.2038 31.2868 10.49 31.2868 8.80023C31.2868 6.91042 30.2419 6.05115 29.1106 6.05115H28.3946V11.2038H29.2682Z" fill="white"/>
<path d="M35.0938 6.56699C35.0938 3.3163 37.442 1.08325 41.2225 1.08325C44.7873 1.08325 47.15 3.04503 47.15 6.20936C47.15 9.37364 44.8164 11.7075 41.0214 11.7075C37.442 11.7075 35.0938 9.74571 35.0938 6.56699ZM41.4377 11.3907C42.7977 11.3907 43.9578 10.1617 43.9578 6.88223C43.9578 3.07307 42.368 1.39998 40.8077 1.39998C39.4477 1.39998 38.2876 2.64343 38.2876 5.89412C38.2876 9.7313 39.8775 11.3907 41.4377 11.3907Z" fill="white"/>
<path d="M62.6597 11.5091L47.3359 11.4917V11.4205L48.2953 11.1341V1.65477L47.3359 1.36835V1.29712H52.319V1.36835L51.2164 1.65477V10.6298L58.734 10.6419H60.1082L60.0976 11.5107L62.6597 11.5091Z" fill="white"/>
<path d="M53.2871 9.4654L54.2477 9.25109V1.55995L53.2871 1.34564V1.29224H58.707C61.3785 1.29224 63.158 3.11209 63.158 5.41257C63.158 7.71301 61.5639 9.51809 59.2807 9.51809H53.2871V9.46469V9.4654ZM57.6028 9.27919C59.2095 9.27919 60.6084 8.31587 60.6084 5.51937C60.6084 2.72282 59.1379 1.53114 57.1734 1.53114V9.27919H57.6036H57.6028Z" fill="white"/>
<path d="M63.3634 11.5203L59.5098 11.5056L59.5302 10.6439C60.0371 10.6439 61.3668 10.7203 62.4501 9.91215C63.3678 9.22799 63.6121 8.50412 63.7436 8.17353C63.7802 8.08161 63.8978 7.80957 63.8978 7.80957H63.9813L63.3634 11.5218V11.5203Z" fill="white"/>
</g>
<defs>
<clipPath id="clip0_3008_3569">
<rect width="63.3556" height="11.0184" fill="white" transform="translate(0.464844 0.861084)"/>
</clipPath>
</defs>
</svg>
