<svg width="208" height="36" viewBox="0 0 208 36" fill="none" xmlns="http://www.w3.org/2000/svg">
<path d="M30.6402 21.3858C30.0163 21.767 29.2885 21.8364 28.7339 21.5244C28.0407 21.1085 27.6247 20.1726 27.6247 18.8902V14.9735C27.6247 13.1018 26.8969 11.75 25.6491 11.4034C23.5347 10.7795 21.9403 13.3791 21.3511 14.3496L17.6077 20.3459V12.9632C17.5731 11.2648 17.0185 10.2596 15.9787 9.94768C15.2855 9.73972 14.2456 9.8437 13.2405 11.3688L4.88719 24.7479C3.77804 22.6336 3.1888 20.2766 3.1888 17.885C3.1888 9.80904 9.67039 3.25812 17.6077 3.25812C25.5451 3.25812 32.0267 9.80904 32.0267 17.885V17.9197V17.9543C32.096 19.5141 31.6107 20.7619 30.6402 21.3858ZM35.2155 17.885V17.8504V17.8157C35.1808 8.00666 27.2781 0 17.6077 0C7.90268 0 0 8.00667 0 17.885C0 27.7287 7.90268 35.77 17.6077 35.77C22.079 35.77 26.3076 34.0717 29.5657 30.9868C30.2243 30.3629 30.259 29.3578 29.6351 28.6992C29.0458 28.0407 28.0407 28.006 27.3821 28.5952C27.3821 28.5952 27.3821 28.5952 27.3474 28.6299C24.7132 31.1255 21.1778 32.5466 17.5384 32.5466C13.2751 32.5466 9.46242 30.6749 6.8282 27.6941L14.3496 15.6321V21.2125C14.3496 23.8814 15.3894 24.7479 16.256 24.9905C17.1225 25.2331 18.4396 25.0598 19.8607 22.8069L23.9853 16.1173C24.124 15.9094 24.228 15.7014 24.3666 15.5627V18.9595C24.3666 21.4551 25.3718 23.4654 27.1048 24.4359C28.6646 25.3371 30.6402 25.2331 32.2693 24.228C34.2796 22.9108 35.3541 20.6232 35.2155 17.885ZM59.7554 11.7847C60.1713 12.0273 60.5526 12.6166 60.5526 13.1365C60.5526 13.9683 59.8594 14.6616 59.0622 14.6616C58.8542 14.6616 58.6809 14.5922 58.5076 14.5576C57.5717 13.8644 56.3933 13.4138 55.1455 13.4138C52.1993 13.4138 50.189 15.8054 50.189 18.7862C50.189 21.767 52.234 24.124 55.1455 24.124C56.6012 24.124 57.9184 23.5348 58.8889 22.5989C59.1315 22.4256 59.4434 22.3216 59.7554 22.3216C60.5526 22.3216 61.1765 22.9455 61.1765 23.7427C61.1765 24.2626 60.8645 24.7132 60.4833 24.9558C59.0622 26.169 57.1558 26.9662 55.1801 26.9662C50.6742 26.9662 47.0002 23.2575 47.0002 18.6822C47.0002 14.107 50.6742 10.3983 55.1801 10.3983C56.8439 10.3636 58.4383 10.8835 59.7554 11.7847ZM68.0047 15.2508C71.0895 15.2508 73.6544 17.8504 73.6544 21.0738C73.6544 24.2626 71.0548 27.0008 68.0047 27.0008C64.7812 27.0008 62.1123 24.2973 62.1123 21.0738C62.1123 17.8504 64.7812 15.2508 68.0047 15.2508ZM67.97 24.124C69.3218 24.124 70.4656 22.8415 70.4656 21.1085C70.4656 19.3754 69.3218 18.2663 67.97 18.2663C66.5143 18.2663 65.3011 19.3408 65.3011 21.1085C65.3011 22.8069 66.5143 24.124 67.97 24.124ZM75.5954 25.1985V17.0185C75.5954 16.1173 76.2886 15.3894 77.1898 15.3894C78.0563 15.3894 78.7842 16.1173 78.7842 17.0185V25.1985C78.7842 26.0997 78.0563 26.8275 77.1898 26.8275C76.3233 26.8275 75.5954 26.065 75.5954 25.1985ZM75.3528 12.3046C75.3528 11.2301 76.1846 10.3983 77.1898 10.3983C78.2296 10.3983 79.0615 11.2648 79.0615 12.3046C79.0615 13.3444 78.2296 14.1763 77.1898 14.1763C76.15 14.1416 75.3528 13.3098 75.3528 12.3046ZM84.8845 20.7619V25.1985C84.8845 26.0997 84.1566 26.8275 83.2901 26.8275C82.4236 26.8275 81.6957 26.0997 81.6957 25.1985V16.6372C81.6957 15.944 82.2503 15.3894 82.9435 15.3894C83.6367 15.3894 84.1566 15.9787 84.1566 16.6372C85.4391 15.4241 86.5829 15.2508 87.6574 15.2508C90.8462 15.2508 92.2673 17.6424 92.2673 20.3806V25.1985C92.2673 26.0997 91.5394 26.8275 90.6729 26.8275C89.8064 26.8275 89.0785 26.0997 89.0785 25.1985V20.7619C89.0785 19.3754 88.9052 18.197 86.8949 18.197C85.4738 18.197 84.8845 19.3754 84.8845 20.7619ZM102.596 22.4603C102.215 22.4603 101.972 22.287 101.764 22.0443L98.0557 18.0237V25.1985C98.0557 26.0997 97.3278 26.8275 96.4613 26.8275C95.5947 26.8275 94.8669 26.0997 94.8669 25.1985V10.9875C94.9708 10.7449 95.2135 10.5716 95.4561 10.5716C95.7334 10.5716 95.976 10.8142 96.1493 10.9875L102.076 17.6424C102.25 17.8504 102.458 17.9543 102.596 17.9543C102.7 17.9543 102.943 17.8504 103.116 17.6424L109.043 10.9875C109.216 10.8142 109.424 10.5716 109.736 10.5716C110.014 10.5716 110.256 10.7449 110.326 10.9875V25.1985C110.326 26.0997 109.632 26.8275 108.731 26.8275C107.865 26.8275 107.137 26.0997 107.137 25.1985V18.0237L103.428 22.0443C103.151 22.287 102.908 22.4603 102.596 22.4603ZM117.916 24.124C119.337 24.124 120.551 22.8415 120.551 21.1085C120.551 19.3754 119.303 18.2316 117.916 18.2316C116.53 18.2316 115.386 19.4101 115.386 21.1085C115.386 22.7722 116.495 24.124 117.916 24.124ZM121.313 25.5797L121.244 25.1985C120.62 26.4116 118.644 26.9662 117.396 26.9662C114.416 26.9662 112.197 24.2626 112.197 21.0392C112.197 17.8504 114.45 15.2161 117.57 15.2161C118.09 15.2161 119.892 15.3548 121.278 16.9838L121.348 16.6026C121.348 15.9093 121.868 15.3548 122.561 15.3548C123.254 15.3548 123.809 15.944 123.809 16.6026V25.5451C123.809 26.2383 123.254 26.7929 122.561 26.7929C121.833 26.8275 121.313 26.2383 121.313 25.5797ZM132.578 18.197H132.231C130.221 18.301 129.84 19.4448 129.84 20.7619V25.1985C129.84 26.0997 129.112 26.8275 128.245 26.8275C127.379 26.8275 126.651 26.0997 126.651 25.1985V16.6372C126.651 15.944 127.205 15.3894 127.899 15.3894C128.592 15.3894 129.112 15.9787 129.112 16.6372C130.29 15.5281 131.261 15.2855 132.231 15.2508H132.543C133.306 15.2508 133.999 15.9094 133.999 16.7412C134.034 17.5038 133.34 18.197 132.578 18.197ZM144.883 24.4359C145.021 24.6786 145.125 24.9212 145.125 25.1985C145.125 26.0303 144.363 26.7929 143.531 26.7929C142.976 26.7929 142.491 26.3769 142.11 25.8917L138.436 21.6284V25.1638C138.436 26.065 137.708 26.7929 136.841 26.7929C135.975 26.7929 135.247 26.065 135.247 25.1638V12.166C135.247 11.2648 135.94 10.5369 136.841 10.5369C137.742 10.5369 138.436 11.2648 138.436 12.166V20.2766L142.11 16.2213C142.491 15.8054 142.942 15.3548 143.496 15.3548C144.293 15.3548 145.021 16.0827 145.021 16.9145C145.021 17.1571 144.952 17.4344 144.813 17.6424L141.902 20.8312L144.883 24.4359ZM151.121 18.2316C150.255 18.2316 148.834 18.6822 148.834 20.034H153.444C153.409 18.6822 151.953 18.2316 151.121 18.2316ZM155.281 22.079H148.834C148.834 23.9853 150.671 24.2973 151.468 24.2973C152.057 24.2973 152.889 24.1933 153.548 23.8814C153.756 23.7427 154.068 23.6387 154.38 23.6387C155.073 23.6387 155.662 24.228 155.662 24.9558C155.662 25.4411 155.35 25.857 154.969 26.0997C153.998 26.8275 152.716 27.0008 151.503 27.0008C148.279 27.0008 145.61 25.2678 145.61 21.2125C145.61 18.0237 147.239 15.2508 151.052 15.2508C154.137 15.2508 156.459 17.2611 156.529 20.8312C156.529 21.4898 155.974 22.079 155.281 22.079ZM164.154 26.9662H163.287C160.861 26.9662 159.44 25.8917 159.44 22.1137V18.197H158.608C157.846 18.197 157.187 17.5038 157.187 16.7412C157.187 15.9094 157.88 15.2508 158.608 15.2508H159.44V12.2353C159.44 11.3341 160.133 10.6062 161.034 10.6062C161.901 10.6062 162.629 11.3341 162.629 12.2353V15.2508H163.946C164.709 15.2508 165.367 15.9094 165.367 16.7412C165.367 17.5038 164.674 18.197 163.946 18.197H162.629V21.4898C162.629 23.6734 162.733 24.124 163.703 24.124H164.154C164.917 24.124 165.575 24.7479 165.575 25.5451C165.575 26.3076 164.917 26.9662 164.154 26.9662ZM179.578 11.7847C179.994 12.0273 180.375 12.6166 180.375 13.1365C180.375 13.9683 179.682 14.6616 178.885 14.6616C178.677 14.6616 178.504 14.5922 178.33 14.5576C177.394 13.8644 176.216 13.4138 174.968 13.4138C172.022 13.4138 170.012 15.8054 170.012 18.7862C170.012 21.767 172.057 24.124 174.968 24.124C176.424 24.124 177.741 23.5348 178.712 22.5989C178.954 22.4256 179.266 22.3216 179.578 22.3216C180.375 22.3216 180.999 22.9455 180.999 23.7427C180.999 24.2626 180.687 24.7132 180.306 24.9558C178.885 26.169 176.979 26.9662 175.003 26.9662C170.497 26.9662 166.823 23.2575 166.823 18.6822C166.823 14.107 170.497 10.3983 175.003 10.3983C176.667 10.3636 178.296 10.8835 179.578 11.7847ZM187.654 24.124C189.075 24.124 190.288 22.8415 190.288 21.1085C190.288 19.3754 189.04 18.2316 187.654 18.2316C186.233 18.2316 185.124 19.4101 185.124 21.1085C185.124 22.7722 186.268 24.124 187.654 24.124ZM191.051 25.5797L190.982 25.1985C190.358 26.4116 188.382 26.9662 187.134 26.9662C184.153 26.9662 181.935 24.2626 181.935 21.0392C181.935 17.8504 184.188 15.2161 187.307 15.2161C187.827 15.2161 189.63 15.3548 191.016 16.9838L191.085 16.6026C191.085 15.9093 191.605 15.3548 192.299 15.3548C192.992 15.3548 193.546 15.944 193.546 16.6026V25.5451C193.546 26.2383 192.992 26.7929 192.299 26.7929C191.571 26.8275 191.051 26.2383 191.051 25.5797ZM202.246 24.124C203.667 24.124 204.777 22.7722 204.777 21.1085C204.777 19.3754 203.633 18.2316 202.246 18.2316C200.825 18.2316 199.612 19.3754 199.612 21.1085C199.612 22.8415 200.825 24.124 202.246 24.124ZM199.612 26.0303V30.0857C199.612 30.9868 198.884 31.7147 198.018 31.7147C197.151 31.7147 196.423 30.9868 196.423 30.0857V16.6372C196.423 15.944 196.978 15.3894 197.671 15.3894C198.364 15.3894 198.884 15.9787 198.884 16.7759C200.063 15.5627 201.518 15.2508 202.628 15.2508C205.712 15.2508 208 17.8504 208 21.0738C208 24.2626 205.816 27.0008 202.801 27.0008C201.865 26.9662 200.479 26.6889 199.612 26.0303Z" fill="#080808"/>
</svg>
