<svg width="130" height="29" viewBox="0 0 130 29" fill="none" xmlns="http://www.w3.org/2000/svg">
<g clip-path="url(#clip0_405_607)">
<path d="M0 1.42432H9.5199C11.3113 1.42432 12.7114 1.91306 13.6799 2.76731C14.7719 3.75898 15.3881 5.20825 15.3881 6.9465C15.3881 8.95816 14.6315 10.2417 13.0923 11.0052V11.0973C15.1073 11.8297 16.2565 13.7819 16.2565 16.1619C16.2565 18.42 15.4726 20.1895 14.157 21.2576C13.065 22.1119 11.609 22.5397 9.7045 22.5397H0.0169006V1.42432H0ZM8.58 9.69341C9.6161 9.69341 10.3441 9.08425 10.3441 7.83191C10.3441 6.64191 9.5602 6.03272 8.5527 6.03272H5.2767V9.66366H8.5787L8.58 9.69341ZM9.0558 17.8704C10.2037 17.8704 11.0708 17.1082 11.0708 15.7029C11.0708 14.2381 10.1608 13.5354 9.0272 13.5354H5.2754V17.8676L9.0558 17.8704ZM17.2042 1.43707H22.1884V22.5822H17.2042V1.43707Z" fill="#080808"/>
<path d="M23.1875 15.0343C23.1875 10.2743 26.015 7.04004 30.383 7.04004C34.751 7.04004 37.5226 10.2743 37.5226 15.0343C37.5226 19.8226 34.751 23.0286 30.383 23.0286C26.015 23.0286 23.1875 19.8269 23.1875 15.0343ZM32.5956 15.0343C32.5956 12.4106 31.8117 10.7319 30.3271 10.7319C28.8425 10.7319 28.1171 12.3795 28.1171 15.0343C28.1171 17.6891 28.8451 19.3367 30.3271 19.3367C31.8117 19.3679 32.5956 17.7189 32.5956 15.0343Z" fill="#080808"/>
<path d="M38.1328 15.0343C38.1328 10.2743 40.9603 7.04004 45.3283 7.04004C49.6963 7.04004 52.4679 10.2743 52.4679 15.0343C52.4679 19.8226 49.6963 23.0286 45.3283 23.0286C40.9603 23.0286 38.1328 19.8269 38.1328 15.0343ZM47.5409 15.0343C47.5409 12.4106 46.757 10.7319 45.2724 10.7319C43.7878 10.7319 43.0624 12.3795 43.0624 15.0343C43.0624 17.6891 43.7904 19.3367 45.2724 19.3367C46.757 19.3679 47.5409 17.7189 47.5409 15.0343Z" fill="#080808"/>
<path d="M53.4844 7.46731H58.1163V9.72547H58.2008C59.1108 7.95464 60.3848 7.00973 62.3608 7.00973C64.0963 7.00973 65.4132 7.95609 66.0853 9.60226H66.1698C67.2904 7.61892 68.7737 7.00973 70.4533 7.00973C73.6734 7.00973 75.0449 9.60224 75.0449 13.0504V22.5704H70.1725V14.0279C70.1725 12.4724 69.724 11.4779 68.4929 11.4779C67.2891 11.4779 66.6729 12.6991 66.6729 14.3467V22.5846H61.8564V14.0421C61.8564 12.4866 61.4079 11.4921 60.1768 11.4921C58.973 11.4921 58.3568 12.7132 58.3568 14.3608V22.5987H53.4844V7.49706V7.46731ZM81.2043 20.5857H81.1484V22.5378H76.5282V1.39551H81.3863V9.02284H81.4708C82.3808 7.71101 83.6262 7.01116 85.4189 7.01116C88.8899 7.01116 90.9049 10.4282 90.9049 14.9728C90.9049 20.0983 88.7209 23.0592 85.1095 23.0592C83.569 23.0592 82.0285 22.2658 81.19 20.5871L81.2043 20.5857ZM85.9363 14.9416C85.9363 12.5007 85.1238 10.9466 83.6405 10.9466C82.1572 10.9466 81.2043 12.5021 81.2043 14.9416C81.2043 17.35 82.1559 18.9367 83.6405 18.9367C85.1251 18.9367 85.9363 17.3811 85.9363 14.9416ZM91.4509 14.9728C91.4509 10.2737 94.307 6.97856 98.4501 6.97856C100.522 6.97856 102.09 7.67984 103.322 8.93076C104.919 10.6095 105.647 13.2629 105.591 16.3456H96.296C96.491 18.2368 97.3321 19.1832 98.7881 19.1832C99.6279 19.1832 100.384 18.7553 100.693 17.7495H105.369C104.556 21.1976 102.093 22.9345 98.6087 22.9345C94.3252 22.9656 91.4405 19.8221 91.4405 14.9728H91.4509ZM96.2947 13.4173H100.719C100.634 11.587 99.7111 10.6407 98.5632 10.6407C97.219 10.6407 96.491 11.6777 96.2947 13.4173ZM111.107 10.0598H111.191C112.199 7.95467 113.516 7.16131 115.167 7.16131C115.559 7.16131 115.81 7.22223 115.951 7.31431V11.9525H115.839C112.983 11.4028 111.289 12.8676 111.289 16.2846V22.5704H106.416V7.49706H111.037V10.0471L111.107 10.0598Z" fill="#080808"/>
<path d="M116.506 22.5705H121.182C121.351 23.2109 121.966 23.8526 123.143 23.8526C124.71 23.8526 125.242 22.7845 125.242 21.229V20.131H125.13C124.346 21.1227 123.339 21.8395 121.798 21.8395C118.802 21.8395 116.227 19.4312 116.227 14.7307C116.227 10.3985 118.355 7.04102 121.575 7.04102C123.421 7.04102 124.571 7.8655 125.299 9.14617H125.384V7.4986H130V20.5575C130 22.9658 129.216 24.8598 128.068 25.9578C126.864 27.1478 125.13 27.6053 123.167 27.6053C119.527 27.6053 116.953 25.9578 116.503 22.5705H116.506ZM125.437 14.453C125.437 12.5618 124.625 11.053 123.197 11.053C121.826 11.053 120.957 12.396 120.957 14.453C120.957 16.4647 121.826 17.9309 123.197 17.9309C124.625 17.9309 125.437 16.4363 125.437 14.453Z" fill="#080808"/>
</g>
<defs>
<clipPath id="clip0_405_607">
<rect width="130" height="29" fill="white"/>
</clipPath>
</defs>
</svg>
