<svg width="101" height="15" viewBox="0 0 101 15" fill="none" xmlns="http://www.w3.org/2000/svg">
<g opacity="0.5">
<path d="M76.3105 7.46631V3.91602H79.8608H83.4111V7.46631V11.0166H79.8608H76.3105V7.46631ZM81.9855 7.4526V5.3142H79.8608H77.7361V7.4526V9.59101H79.8608H81.9855V7.4526Z" fill="white" stroke="white" stroke-width="0.350917"/>
<path d="M67.7871 7.46678V3.91602H71.3374H74.8877V7.46631V11.0166H74.1749H73.4621V8.16541V5.3142H71.3375H69.213L69.206 8.15855L69.199 11.0029L68.4931 11.0102L67.7871 11.0175V7.46678Z" fill="white" stroke="white" stroke-width="0.350917"/>
<path d="M50.7324 7.46631V3.91602H54.2827H57.833V4.61511V5.3142H54.9955H52.158V6.027V6.7398H53.5699H54.9818V7.4526V8.16541H53.5699H52.158V8.87821V9.59101H54.9955H57.833V10.3038V11.0166H54.2827H50.7324V7.46631Z" fill="white" stroke="white" stroke-width="0.350917"/>
<path d="M16.6035 7.46631V3.91602H17.3163H18.0291V5.32791V6.7398H20.1509C22.0604 6.7398 22.2743 6.73547 22.2893 6.69643C22.2984 6.67258 22.3059 6.03723 22.3059 5.28454V3.91602H23.0187H23.7315V7.46631V11.0166H23.0187H22.3059L22.3055 9.62528C22.3053 8.86003 22.2953 8.21845 22.2832 8.19951C22.2659 8.17226 21.8214 8.16653 20.1521 8.17209L18.0428 8.17911L18.0357 9.59786L18.0286 11.0166H17.3161H16.6035V7.46631Z" fill="white" stroke="white" stroke-width="0.350917"/>
<path d="M42.2051 7.46631V3.91602H42.9039H43.6028L43.6099 5.32106L43.617 6.7261L45.0357 6.7332L46.4545 6.7403V6.02725V5.3142H47.1673H47.8801V4.61511V3.91602H48.5929H49.3057V4.61511V5.3142H48.5929H47.8801V6.02654V6.73887L47.1741 6.74619L46.4682 6.75351L46.4609 7.45946L46.4535 8.16541H47.1668H47.8801V8.87821V9.59101H48.5929H49.3057V10.3038V11.0166H48.5929H47.8801V10.3038V9.59101H47.1673H46.4545V8.87796V8.16491L45.0357 8.17201L43.617 8.17911L43.6099 9.59786L43.6028 11.0166H42.9039H42.2051V7.46631Z" fill="white"/>
<path d="M47.8801 5.3142H47.1673H46.4545V6.02725V6.7403L45.0357 6.7332L43.617 6.7261L43.6099 5.32106L43.6028 3.91602H42.9039H42.2051V7.46631V11.0166H42.9039H43.6028L43.6099 9.59786L43.617 8.17911L45.0357 8.17201L46.4545 8.16491V8.87796V9.59101H47.1673H47.8801M47.8801 5.3142V4.61511V3.91602H48.5929H49.3057V4.61511V5.3142H48.5929H47.8801ZM47.8801 5.3142V6.02654V6.73887L47.1741 6.74619L46.4682 6.75351L46.4609 7.45946L46.4535 8.16541H47.1668H47.8801V8.87821V9.59101M47.8801 9.59101H48.5929H49.3057V10.3038V11.0166H48.5929H47.8801V10.3038V9.59101Z" stroke="white" stroke-width="0.350917"/>
<path d="M84.8379 7.46631V3.91602H88.3882H91.9385V7.46631V11.0166H88.3882H84.8379V7.46631ZM90.5129 7.4526V5.3142H88.3882H86.2635V7.4526V9.59101H88.3882H90.5129V7.4526Z" fill="white" stroke="white" stroke-width="0.350917"/>
<path d="M59.2578 7.46678V3.91602H62.8081H66.3584V6.04071V8.16541H65.6456H64.9328V8.87821V9.59101H65.6456H66.3584V10.3038V11.0166H65.6456H64.9328V10.3038V9.59101H64.22H63.5072V8.87821V8.16541H62.0956H60.6839L60.6768 9.58415L60.6697 11.0029L59.9638 11.0102L59.2578 11.0175V7.46678ZM64.9328 6.027V5.3142H62.8081H60.6834V6.027V6.7398H62.8081H64.9328V6.027Z" fill="white"/>
<path d="M64.9328 9.59101V8.87821V8.16541H65.6456H66.3584V6.04071V3.91602H62.8081H59.2578V7.46678V11.0175L59.9638 11.0102L60.6697 11.0029L60.6768 9.58415L60.6839 8.16541H62.0956H63.5072V8.87821V9.59101H64.22H64.9328ZM64.9328 9.59101H65.6456H66.3584V10.3038V11.0166H65.6456H64.9328V10.3038V9.59101ZM64.9328 6.027V5.3142H62.8081H60.6834V6.027V6.7398H62.8081H64.9328V6.027Z" stroke="white" stroke-width="0.350917"/>
<path d="M25.127 7.46631V3.91602H28.6772H32.2275V7.46631V11.0166H31.5285H30.8294V9.59101V8.16541H28.691H26.5526V9.59101V11.0166H25.8398H25.127V7.46631ZM30.8294 6.02684V5.31387L28.6978 5.32089L26.5663 5.32791L26.5589 6.03386L26.5516 6.7398H28.6905H30.8294V6.02684Z" fill="white" stroke="white" stroke-width="0.350917"/>
<path d="M33.6836 7.46631V3.91602H37.2339H40.7842V4.61497V5.31396L37.9398 5.32092L35.0955 5.32791L35.0885 7.45946L35.0815 9.59101H37.9328H40.7842V10.3038V11.0166H37.2339H33.6836V7.46631Z" fill="white" stroke="white" stroke-width="0.350917"/>
<path d="M93.3633 7.46631V3.91602H96.9136H100.464V7.46631V11.0166H99.7511H99.0383V8.16541V5.3142H96.9136H94.7889V8.16541V11.0166H94.0761H93.3633V7.46631Z" fill="white" stroke="white" stroke-width="0.350917"/>
<path d="M3.03073 12.4284V10.9068H2.52354H2.01636V9.89303V8.87926L1.50232 8.8718L0.988281 8.86434V7.3702V5.87606L1.50232 5.86861L2.01636 5.86115V4.84738V3.83361H2.52354H3.03073V2.31195V0.790283L6.56047 0.797247L10.0902 0.80421L10.0973 2.31891L10.1044 3.83361H10.6113H11.1183V4.84735V5.86112L11.6186 5.86858L12.1189 5.87606L12.1264 6.3764L12.1339 6.87673H12.6268H13.1196V7.3702V7.86368H12.6261H12.1326V8.3275C12.1326 8.5826 12.1252 8.81083 12.116 8.83468C12.1017 8.87199 12.0309 8.87805 11.6088 8.87805H11.1183V9.89242V10.9068H10.6111H10.1039V12.4284V13.9499H6.56732H3.03073V12.4284ZM8.07517 11.414V10.9068H9.07583H10.0765V9.89242V8.87805H10.5837H11.0909V7.3702V5.86236H10.5837H10.0765V4.84799V3.83361H9.07583H8.07517V3.32643V2.81924H7.56798H7.0608V5.34146V7.86368H6.55361H6.04643V5.34146V2.81924H5.53924H5.03206V3.32643V3.83361H4.03139H3.03073V4.84799V5.86236H2.52354H2.01636V7.3702V8.87805H2.52354H3.03073V9.89242V10.9068H4.03139H5.03206V11.414V11.9212H6.55361H8.07517V11.414Z" fill="white"/>
<path d="M3.03073 10.9068V12.4284V13.9499H6.56732H10.1039V12.4284V10.9068H10.6111H11.1183V9.89242V8.87805H11.6088C12.0309 8.87805 12.1017 8.87199 12.116 8.83468C12.1252 8.81083 12.1326 8.5826 12.1326 8.3275V7.86368H12.6261H13.1196V7.3702V6.87673H12.6268H12.1339L12.1264 6.3764L12.1189 5.87606L11.6186 5.86858L11.1183 5.86112V4.84735V3.83361H10.6113H10.1044L10.0973 2.31891L10.0902 0.80421L6.56047 0.797247L3.03073 0.790283V2.31195V3.83361M3.03073 10.9068H2.52354H2.01636V9.89303V8.87926L1.50232 8.8718L0.988281 8.86434V7.3702V5.87606L1.50232 5.86861L2.01636 5.86115V4.84738V3.83361H2.52354H3.03073M3.03073 10.9068V9.89242V8.87805H2.52354H2.01636V7.3702V5.86236H2.52354H3.03073V4.84799V3.83361M3.03073 10.9068H4.03139H5.03206V11.414V11.9212H6.55361H8.07517V11.414V10.9068H9.07583H10.0765V9.89242V8.87805H10.5837H11.0909V7.3702V5.86236H10.5837H10.0765V4.84799V3.83361H9.07583H8.07517V3.32643V2.81924H7.56798H7.0608V5.34146V7.86368H6.55361H6.04643V5.34146V2.81924H5.53924H5.03206V3.32643V3.83361H4.03139H3.03073" stroke="white" stroke-width="0.350917"/>
</g>
</svg>
