<svg width="110" height="21" viewBox="0 0 110 21" fill="none" xmlns="http://www.w3.org/2000/svg">
<g clip-path="url(#clip0_3536_47512)">
<path d="M4.71223 12.77C1.52549 8.47627 6.12642 2.23621 11.3076 4.91853C11.9753 5.26425 13.2141 6.7573 13.624 6.71838C14.3331 6.65065 15.3475 5.28497 16.1683 5.18288C15.5618 3.47856 13.3627 1.94457 11.6877 1.4073C3.32835 -1.27654 -3.37416 8.19171 1.96168 14.9772C6.77086 21.0929 16.4559 18.1644 17.4855 10.6734H13.8004C13.1004 15.1096 7.44106 16.4465 4.71223 12.77Z" fill="#8D8D8D"/>
<path d="M56.0513 1.26923C54.1994 1.00843 51.2118 1.26923 49.2072 1.26923C49.1794 1.26923 48.8125 1.63314 48.8125 1.66094V17.5952C48.8125 18.1022 52.3647 18.1214 52.4991 17.9885C52.6189 17.8697 52.3768 15.4921 52.4961 15.3733C52.6118 15.2586 55.1567 15.431 55.7657 15.3526C63.559 14.3458 63.5827 2.32861 56.0513 1.26923ZM58.0371 8.98919C57.7637 12.0961 55.1263 12.4479 52.4976 12.2402V4.40392C56.0518 4.01473 58.3778 5.12213 58.0371 8.98919Z" fill="#8D8D8D"/>
<path d="M82.7691 7.27709C82.0914 7.19116 81.7335 6.69028 80.9971 6.55483C76.5786 5.7426 73.5961 9.70316 74.4624 13.8225C75.1947 17.3039 79.781 19.7143 82.7666 17.2018C82.4047 18.6675 84.9228 17.7425 85.9281 17.9872V1.26953H82.7691V7.27709ZM81.8528 14.5963C79.0668 16.5685 75.9443 12.6347 78.385 10.2405C81.126 7.55204 84.7312 12.5589 81.8528 14.5963Z" fill="#8D8D8D"/>
<path d="M100.047 6.74984C99.8405 6.87013 99.9376 7.29368 99.7369 7.2861C99.3831 7.27347 98.6427 6.63106 97.8759 6.51784C91.181 5.5272 88.951 15.1077 94.7736 17.693C96.6634 18.532 98.208 18.4865 99.8703 17.2022C99.5085 18.668 102.027 17.743 103.032 17.9876V6.7554C103.032 6.52492 100.693 6.3738 100.048 6.75035L100.047 6.74984ZM98.9565 14.5962C96.1706 16.5684 93.048 12.6346 95.4888 10.2404C98.2297 7.55196 101.835 12.5588 98.9565 14.5962Z" fill="#8D8D8D"/>
<path d="M69.6698 6.55606C60.2223 4.95131 59.7881 18.2705 68.4169 18.2705C69.448 18.2705 73.5965 17.0049 73.2867 15.7762C73.2544 15.6483 71.3211 14.2397 71.1654 14.1871C70.6206 14.0036 68.8061 15.5644 67.7603 15.1126C67.6264 14.5445 68.0818 14.5338 68.3613 14.2746C69.0997 13.5907 73.681 10.7355 73.733 10.2897C73.8937 8.91238 70.9793 6.77845 69.6698 6.55606ZM65.3914 12.7613C65.2706 10.271 67.2352 8.95534 69.6011 9.89242C69.7755 10.128 65.7704 13.1565 65.3914 12.7613Z" fill="#8D8D8D"/>
<path d="M27.6164 7.53925C21.581 3.23045 14.8006 11.4609 19.9459 16.5875C25.6978 22.3181 34.6515 12.5623 27.6164 7.53925ZM23.7387 15.0626C20.8375 14.6492 20.6834 10.2524 23.1974 9.6838C27.8317 8.63604 27.8559 15.6494 23.7387 15.0626Z" fill="#8D8D8D"/>
<path d="M40.5246 6.5077C39.7948 6.62496 39.3773 7.27191 38.9335 7.28455C38.7313 7.29011 38.8344 6.87212 38.6247 6.7498C37.7705 6.25195 36.5499 6.50164 35.6406 6.75486V17.9871H38.7996V11.8486C38.7996 10.9404 40.3371 9.68282 41.304 9.61257C42.4341 9.53119 44.0641 10.4274 44.0641 11.5873V17.9871H47.2231V11.326C47.2231 11.2229 46.6767 9.60954 46.566 9.36592C45.4819 6.97118 43.0644 6.09982 40.5246 6.5077Z" fill="#8D8D8D"/>
<path d="M31.1719 6.75478V17.987H34.3308V6.75478C33.2452 6.39138 32.2555 6.39188 31.1719 6.75478Z" fill="#8D8D8D"/>
<path d="M87.2422 6.75478V17.987H90.4011V6.75478C89.3155 6.39138 88.3258 6.39188 87.2422 6.75478Z" fill="#8D8D8D"/>
<path d="M109.347 14.5908H104.609V19.0315H109.347V14.5908Z" fill="#383838"/>
<path d="M88.4809 1.05396C86.0609 1.56242 86.8924 4.79415 88.9288 4.66274C91.5191 4.49544 90.9879 0.527299 88.4809 1.05396Z" fill="#8D8D8D"/>
<path d="M32.1452 1.05247C30.0613 1.65696 30.7907 5.03426 33.0762 4.62435C35.5761 4.17604 34.5465 0.355479 32.1452 1.05247Z" fill="#8D8D8D"/>
</g>
<defs>
<clipPath id="clip0_3536_47512">
<rect width="110" height="20" fill="white" transform="translate(0 0.0185547)"/>
</clipPath>
</defs>
</svg>
