<svg width="151" height="40" viewBox="0 0 151 40" fill="none" xmlns="http://www.w3.org/2000/svg">
<path d="M27.2682 20L18.5938 28.6897H35.9427L27.2682 20Z" fill="#B9B9B9"/>
<path d="M9.91665 19.9997L1.24219 11.3101V28.6894L9.91665 19.9997Z" fill="#E7E7E7"/>
<path d="M27.2682 19.9997L35.9427 11.3101H18.5938L27.2682 19.9997Z" fill="#B9B9B9"/>
<path d="M18.5885 11.3103L27.263 2.62061H9.91406L18.5885 11.3103Z" fill="#CCCCCC"/>
<path d="M27.2682 37.3791L35.9427 28.6895H18.5938L27.2682 37.3791Z" fill="#C3C3C3"/>
<path d="M9.91665 37.3791L18.5911 28.6895H1.24219L9.91665 37.3791Z" fill="#D3D3D3"/>
<path d="M27.2682 2.62061L18.5938 11.3103H35.9427L27.2682 2.62061Z" fill="#C3C3C3"/>
<path d="M1.24219 11.3103H18.5911L9.91665 2.62061L1.24219 11.3103Z" fill="#D3D3D3"/>
<path d="M18.5885 28.6895L9.91406 37.3791H27.263L18.5885 28.6895Z" fill="#CCCCCC"/>
<path d="M9.91665 20L1.24219 28.6897H18.5911L9.91665 20Z" fill="#DDDDDD"/>
<path d="M18.5911 11.3101H1.24219L9.91665 19.9997L18.5911 11.3101Z" fill="#DDDDDD"/>
<path fill-rule="evenodd" clip-rule="evenodd" d="M46.0109 23.1953C46.4699 23.1953 46.8141 23.0573 47.0436 22.8045C47.2731 22.5516 47.3878 22.1838 47.3878 21.678H50.5547L50.5776 21.747C50.6465 22.8734 50.1645 23.9769 49.3155 24.7125C48.3975 25.4941 47.2272 25.9079 46.0109 25.8619C44.3127 25.8619 43.0276 25.3332 42.1097 24.2987C41.1688 23.1493 40.6639 21.701 40.7328 20.2298V19.9999C40.7328 18.3447 41.1918 16.9884 42.1097 15.9309C43.0047 14.8734 44.3127 14.3677 45.988 14.3677C47.3878 14.3677 48.5123 14.7585 49.3614 15.5401C50.2334 16.3677 50.6694 17.5631 50.6006 18.7585L50.5776 18.8275H47.4108C47.4337 18.3677 47.296 17.9079 47.0665 17.5401C46.837 17.2183 46.4928 17.0573 46.0109 17.0573C45.3454 17.0573 44.8864 17.3332 44.634 17.8619C44.3357 18.5516 44.198 19.2872 44.2439 20.0229V20.2527C44.2439 21.1723 44.3816 21.9079 44.634 22.4367C44.8635 22.9194 45.3454 23.1953 46.0109 23.1953ZM58.2883 17.6091H57.0261C56.636 17.6091 56.3147 17.678 56.0623 17.793C55.8098 17.9309 55.6263 18.1148 55.5115 18.3677V25.655H52.0463V14.5516H55.305L55.4197 16.1838C55.6033 15.655 55.9246 15.1953 56.3606 14.8275C56.7278 14.5056 57.2097 14.3447 57.6916 14.3447C58.0129 14.3447 58.3342 14.3907 58.6554 14.4596L58.2883 17.6091ZM64.8744 20.7585V20.8504H64.9433L66.7791 14.5516H70.4738L66.0448 27.2872C65.7006 28.1148 65.2646 28.7815 64.7138 29.3102C64.163 29.8389 63.3139 30.1148 62.1206 30.1148C61.8223 30.1148 61.5699 30.0918 61.3863 30.0458C61.2027 30.0229 60.9044 29.9539 60.4913 29.8389L60.9044 27.3792L61.1109 27.4252L61.2945 27.4481C61.8453 27.4481 62.2354 27.3562 62.4878 27.1953C62.7402 27.0343 62.9238 26.7815 63.0615 26.4596L63.3369 25.747L59.4816 14.5286H63.1763L64.8744 20.7585ZM78.2074 20.1148C78.2074 19.1953 78.0697 18.4137 77.7943 17.8619C77.519 17.2872 77.0829 17.0114 76.4863 17.0114C76.0962 17.0114 75.7519 17.0803 75.4995 17.2183C75.2241 17.3562 75.0176 17.5631 74.857 17.839V22.4826C75.0176 22.7125 75.2471 22.8964 75.4995 23.0114C75.8208 23.1263 76.165 23.1953 76.5092 23.1723C77.1288 23.1723 77.5419 22.9194 77.8173 22.4137C78.1156 21.747 78.2533 21.0343 78.2074 20.2987V20.1148ZM81.6726 20.3217C81.6726 21.9999 81.2825 23.3332 80.5481 24.3447C79.8138 25.3562 78.6205 25.9079 77.3813 25.8619C76.3945 25.8849 75.4766 25.4481 74.8799 24.6665V29.9079H71.4147V14.5516H74.6504L74.7881 15.77C75.3389 14.8734 76.3256 14.3217 77.3813 14.3447C78.7582 14.3447 79.8138 14.8734 80.5711 15.9309C81.3743 17.1723 81.7644 18.6435 81.6956 20.1148V20.3217H81.6726ZM87.2949 11.793V14.5516H89.1767V16.9424H87.2949V22.0458C87.2949 22.4366 87.3867 22.7125 87.5244 22.8964C87.6851 23.0803 87.9375 23.1723 88.167 23.1723C88.5112 23.1723 88.8554 23.1493 89.1767 23.0803L89.4062 25.655C88.7177 25.816 88.0063 25.9079 87.272 25.9079C86.1246 25.9079 85.2755 25.5861 84.6788 24.9884C84.0822 24.3907 83.7839 23.4252 83.7839 22.1148V16.9884H82.2234V14.5976H83.7839V11.8389H87.2949V11.793ZM93.5139 20.2068C93.5139 21.1263 93.6516 21.8619 93.95 22.3907C94.2483 22.9194 94.7302 23.1723 95.4416 23.1723C96.1301 23.1723 96.612 22.9194 96.8874 22.3677C97.1857 21.8389 97.3234 21.1033 97.3234 20.1838V19.9539C97.3463 19.1953 97.2086 18.4596 96.8874 17.793C96.589 17.2412 96.1071 16.9884 95.3957 16.9884C94.7073 16.9884 94.2253 17.2642 93.95 17.816C93.6516 18.3677 93.5139 19.0803 93.5139 19.9769V20.2068ZM90.0487 19.9999C89.9799 18.5056 90.4848 17.0573 91.4715 15.9309C92.4124 14.8734 93.7434 14.3447 95.4187 14.3447C97.1168 14.3447 98.4249 14.8734 99.3658 15.9309C100.33 17.0573 100.857 18.5056 100.789 19.9999V20.2298C100.789 21.9079 100.307 23.2642 99.3658 24.2987C98.4249 25.3562 97.1168 25.8619 95.4187 25.8619C93.7205 25.8619 92.3895 25.3332 91.4486 24.2987C90.4848 23.1723 89.9799 21.701 90.0487 20.2298V19.9999ZM105.516 14.5516L105.654 16.1148C106.021 15.5631 106.457 15.1263 107.008 14.8275C107.558 14.5056 108.155 14.3447 108.775 14.3677C109.876 14.3677 110.725 14.7125 111.322 15.4252C111.941 16.1378 112.24 17.2642 112.24 18.8045V25.678H108.775V18.7815C108.775 18.1378 108.637 17.701 108.384 17.4252C108.132 17.1723 107.742 17.0344 107.214 17.0344C106.64 17.0114 106.09 17.2642 105.722 17.701V25.678H102.28V14.5746H105.516V14.5516ZM118.964 17.0114C118.459 17.0114 118.092 17.1723 117.839 17.5401C117.587 17.8849 117.449 18.3677 117.38 18.9654L117.403 19.0114H120.386V18.7585C120.386 18.1838 120.272 17.77 120.042 17.4711C119.813 17.1493 119.469 17.0114 118.964 17.0114ZM119.216 25.8619C117.564 25.8619 116.279 25.3562 115.292 24.3217C114.305 23.2872 113.777 21.8849 113.823 20.4596V20.0688C113.823 18.3677 114.259 16.9884 115.154 15.9309C116.049 14.8734 117.311 14.3217 118.964 14.3447C120.478 14.3447 121.649 14.8045 122.498 15.701C123.393 16.7125 123.852 18.0229 123.783 19.3562V21.1723H117.426L117.403 21.2412C117.495 21.816 117.701 22.2757 118.115 22.6435C118.505 23.0114 119.01 23.1953 119.675 23.1953C120.731 23.2183 121.786 22.9884 122.75 22.5056L123.576 24.6206C123.003 25.0114 122.36 25.3102 121.694 25.5171C120.914 25.747 120.088 25.8619 119.216 25.8619ZM134.798 20.9884H134.867L136.06 14.5516H139.25L136.634 25.655H133.696L131.884 19.77H131.815L130.002 25.655H127.064L124.448 14.5516H127.638L128.854 21.0344H128.923L130.736 14.5516H132.916L134.798 20.9884ZM146.272 22.5286C146.272 22.2527 146.112 22.0229 145.813 21.793C145.285 21.4941 144.712 21.3102 144.115 21.2183C143.059 21.0573 142.05 20.6665 141.178 20.0229C140.512 19.4941 140.168 18.6895 140.191 17.839C140.191 16.8734 140.65 15.9539 141.43 15.3562C142.256 14.6895 143.381 14.3447 144.758 14.3447C146.249 14.3447 147.42 14.6665 148.292 15.3332C149.118 15.9079 149.6 16.8734 149.554 17.8849L149.531 17.9539H146.18C146.18 17.5171 146.066 17.1953 145.836 16.9654C145.607 16.7355 145.262 16.6206 144.781 16.6206C144.413 16.6206 144.115 16.7125 143.863 16.9194C143.633 17.1033 143.495 17.3792 143.495 17.678C143.518 17.9769 143.656 18.2527 143.908 18.4137C144.436 18.7125 145.033 18.8964 145.63 18.9654C146.708 19.1263 147.741 19.5401 148.636 20.1608C149.301 20.7125 149.669 21.5401 149.6 22.4137C149.6 23.4022 149.164 24.2298 148.269 24.8734C147.236 25.5631 145.997 25.9079 144.758 25.8389C143.243 25.8389 142.05 25.4481 141.178 24.6895C140.306 23.9309 139.87 23.0573 139.915 22.1148L139.938 22.0458H143.082C143.105 22.5746 143.243 22.9424 143.564 23.1723C143.863 23.4022 144.299 23.5171 144.849 23.5171C145.308 23.5171 145.675 23.4252 145.905 23.2412C146.157 23.1263 146.272 22.8504 146.272 22.5286Z" fill="black"/>
</svg>
