<svg width="140" height="25" viewBox="0 0 140 25" fill="none" xmlns="http://www.w3.org/2000/svg">
<g clip-path="url(#clip0_3536_47471)">
<path d="M13.8012 0.929094C13.884 0.929094 14.0122 0.94957 14.015 1.00107C14.0876 2.47754 14.024 4.04181 13.9439 5.50432L13.7351 5.6309L9.5533 5.73235L9.42237 5.522L9.47511 9.72711C9.63582 9.88161 9.54895 9.94304 9.35101 10.0082L5.2759 10.0076L5.15025 9.79381L5.09813 14.1069C3.69829 14.2441 2.09213 14.3008 0.664683 14.1727C0.664373 10.4538 0.665614 6.73135 0.664062 3.01117C0.812361 1.87038 1.60567 1.07708 2.74676 0.928473C6.43065 0.965082 10.1189 0.881626 13.8012 0.929094Z" fill="#8D8D8D"/>
<path d="M17.645 1.14347C18.0983 1.3594 18.205 1.55517 17.9655 1.73077C18.049 1.74039 18.1749 1.76769 18.1789 1.82602C18.2041 2.17815 18.2661 4.76158 18.1789 4.88723C18.125 4.9651 18.0601 5.02002 17.9655 5.04143C18.1324 4.98093 18.312 5.03646 18.5044 5.20803C19.6833 5.2406 20.866 5.23192 22.053 5.18166L22.2379 5.41559C22.8178 7.18152 22.8072 8.27607 22.1312 10.0082L18.8311 10.0054C18.6003 9.9784 18.3831 9.90767 18.1796 9.79474C16.7279 10.0877 15.2521 10.0923 13.8007 9.79474C12.3689 10.0743 10.9049 10.0616 9.45538 9.93931C9.46251 8.51 9.45135 7.03787 9.42188 5.52262L13.8013 5.41652L13.8007 0.930332C15.114 0.947396 16.3581 0.827641 17.645 1.14347Z" fill="#B3B3B3"/>
<path d="M5.3711 14.1731C5.72851 13.8126 9.55232 13.9172 9.5033 14.301C9.49709 14.3497 9.46669 14.3953 9.42946 14.4399C9.47972 14.4347 9.52843 14.4337 9.57186 14.4483C9.75118 14.5085 9.70155 18.0199 9.64291 18.1998C9.60909 18.3041 9.56938 18.3556 9.42946 18.3919C10.8491 18.3627 12.4029 18.3534 13.8936 18.3457L14.3376 18.5551L21.5785 18.6553C21.844 18.6959 22.1487 18.7592 22.0324 19.0859C21.0594 21.3442 19.2355 22.6035 16.823 23.0081C12.3132 23.0248 7.79755 23.0869 3.28716 23.0394C3.1066 23.0375 2.81217 23.1077 2.70141 22.9308L3.2127 22.7471C5.28516 22.7012 7.34645 22.7112 9.39626 22.7766L9.64353 22.9308C9.56069 22.9308 9.43318 22.9106 9.43008 22.8579C9.3975 22.3441 9.33824 19.3279 9.43008 19.0527L9.64353 18.9258C8.20584 18.8712 6.74085 18.8337 5.24793 18.8129L5.05092 18.552C4.96809 18.5517 4.84182 18.5327 4.83747 18.4794C4.76736 17.6616 4.72144 15.5426 4.83747 14.7806L5.05092 14.6537C3.70134 14.5889 2.3195 14.5709 0.905383 14.6003L0.778802 14.3869C0.708376 14.3556 0.709927 14.3199 0.778802 14.2802C2.23449 14.2308 3.69421 14.1952 5.15765 14.1734C5.21784 13.969 5.31091 13.969 5.3711 14.1731Z" fill="#989898"/>
<path d="M0.770957 14.3865L4.86282 14.3828C4.93325 14.4042 5.04308 14.6241 5.04308 14.6536V18.5519C6.32254 18.8739 7.88898 18.4821 9.16038 18.6533C9.30154 18.6722 9.63568 18.7901 9.63568 18.9257V22.9307C7.3718 22.8075 4.93666 23.0958 2.69356 22.9307C1.73024 22.8597 0.882026 22.2323 0.771267 21.2219C0.659578 18.9502 0.659268 16.6718 0.770957 14.3865Z" fill="#939393"/>
<path d="M9.42297 5.52148L9.52907 9.79422C10.9516 9.7967 12.3793 9.78895 13.8018 9.7936C14.157 11.1637 14.1164 12.7925 13.8018 14.1725C15.2898 13.8858 16.8 13.8802 18.2874 14.1725C18.2821 14.1222 18.2812 14.0735 18.2958 14.0301C18.3559 13.8508 21.8683 13.897 22.0473 13.959L22.2393 14.1725C22.8086 15.8156 22.7686 16.9129 22.2393 18.5513L22.0774 18.7589C19.3131 18.6646 16.545 18.5734 13.7733 18.4849C13.7112 17.1109 13.6597 15.7414 13.6188 14.3763L13.8018 14.1725L13.5434 14.3869C12.1898 14.4675 10.8396 14.4644 9.49215 14.3779C8.45561 13.7198 6.53921 13.8939 5.36461 14.1728C5.29356 14.174 5.22221 14.1716 5.15116 14.1728C5.10586 12.7463 5.10586 11.2866 5.15116 9.79391L9.4239 9.79453L9.42297 5.52148Z" fill="#A0A0A0"/>
<path d="M13.8047 14.1729C13.8078 14.3293 13.9099 14.5381 13.9155 14.7549C13.9291 15.2904 13.8134 18.3991 14.0333 18.5369L22.2419 18.5517C22.1817 18.7379 22.1051 18.9073 22.0284 19.0857L21.5528 18.7599C18.8472 18.7959 16.1257 18.6101 13.4352 18.5474C12.3056 18.521 10.8648 18.683 9.79412 18.5573C9.68646 18.5446 9.42585 18.5086 9.42585 18.3917V14.44C9.42585 14.4214 9.26111 14.2517 9.21054 14.2281C8.88106 14.0742 5.98706 14.1633 5.36719 14.1732C5.44599 13.9973 5.54403 13.8915 5.74352 13.8552C6.24891 13.7631 8.06759 13.7929 8.63131 13.8459C9.07093 13.8872 9.18541 14.1276 9.58315 14.1757C10.7832 14.3209 12.5324 14.1661 13.8047 14.1729Z" fill="#9B9B9B"/>
<path d="M18.1811 9.79374C19.3703 9.79498 20.575 9.75403 21.7639 9.79374C21.9699 9.80057 22.1923 9.68484 22.1327 10.0075C21.8517 10.7276 21.5073 11.4186 20.965 11.9835C21.5296 12.6155 21.9624 13.3722 22.2398 14.1729H18.2881C18.2053 14.1748 18.0775 14.1581 18.0728 14.1062C18.0018 13.2921 17.8414 10.5874 17.9708 9.92497L18.1811 9.79374Z" fill="#AAAAAA"/>
<path d="M22.241 5.4147C21.126 5.26857 19.5 5.61264 18.452 5.41222C18.3124 5.38554 17.9689 5.11097 17.9689 5.04085V1.72988C17.9689 1.62564 17.7201 1.27041 17.6484 1.14258C19.8819 1.69141 21.5331 3.2591 22.241 5.4147Z" fill="#BBBBBB"/>
<path d="M0.776989 14.3864C0.951038 16.5594 0.543682 19.0932 0.776989 21.2218C0.599837 21.1108 0.670573 20.8166 0.668402 20.6361C0.642341 18.5189 0.670573 16.3962 0.670263 14.2797C0.701598 14.2096 0.737277 14.2108 0.776989 14.2797V14.3864Z" fill="#9B9B9B"/>
<path d="M5.15745 14.1728C3.72906 14.1946 2.23305 14.3779 0.7786 14.2796H0.671875V14.1728L5.05134 14.1735L5.15745 9.79395V14.1728Z" fill="#939393"/>
<path d="M18.1769 9.79314L18.2837 14.172C16.7901 14.172 15.2913 14.1801 13.7981 14.172C13.7698 12.7151 13.8189 11.2504 13.7981 9.79314C15.2559 9.79811 16.7191 9.7919 18.1769 9.79314Z" fill="#A6A6A6"/>
<path d="M38.6771 13.1685C38.4832 13.0608 38.02 13.0075 37.9399 12.8374C40.2032 11.9402 39.9047 8.74399 37.7981 7.85265C37.3346 7.65657 36.5643 7.48625 36.0704 7.44436C34.5129 7.31251 32.7864 7.54209 31.2109 7.44436V18.7654H36.6043C36.9577 18.7654 37.8974 18.5321 38.2582 18.39C40.488 17.5129 40.8258 14.3617 38.6771 13.1685ZM33.6672 9.58042C34.2678 9.62634 34.9466 9.51744 35.5361 9.58042C36.6155 9.69583 37.0489 10.0939 36.864 11.2294C36.7849 11.715 36.0728 12.037 35.6428 12.037H33.6669L33.6672 9.58042ZM37.4863 15.6973C37.4106 16.1068 37.1258 16.3262 36.7461 16.4512C36.6533 16.4816 36.0071 16.6296 35.9633 16.6296H33.6672C33.7885 15.9986 33.5034 14.6499 33.6672 14.1197C33.7103 13.9804 33.9107 13.9695 34.0354 13.954C34.4059 13.9087 35.7384 14.0226 36.1758 14.0676C37.1931 14.1718 37.6827 14.635 37.4863 15.6973Z" fill="#8D8D8D"/>
<path d="M54.6898 7.26021C47.5501 8.06995 48.1827 19.2244 55.8343 18.8704C63.6836 18.5071 63.1081 6.30588 54.6898 7.26021ZM55.9407 16.6279C51.2662 17.0818 51.0044 9.67549 55.3345 9.39099C59.6439 9.10774 60.1223 16.2221 55.9407 16.6279Z" fill="#8D8D8D"/>
<path d="M81.2434 7.44434L77.0247 12.037V7.44434H74.6215C74.3838 7.44434 74.5681 7.69409 74.5681 7.71146V18.4985C74.5681 18.5159 74.3838 18.7656 74.6215 18.7656H77.0247V15.508C77.0247 15.423 78.0361 14.4337 78.1974 14.2798L81.4569 18.7656H84.2873L79.9196 12.426L84.2873 7.44434H81.2434Z" fill="#8D8D8D"/>
<path d="M71.4267 11.0733L72.9562 9.312C71.6135 7.6894 69.5844 7.02423 67.5045 7.26002C65.2835 7.51194 63.1958 9.32472 62.6681 11.5018C61.1342 17.8308 68.829 21.4787 72.8597 16.6981L71.32 15.029C69.6868 17.2404 65.8947 16.982 65.191 14.1072C64.1926 10.0284 68.9056 8.05674 71.4267 11.0733Z" fill="#8D8D8D"/>
<path d="M129.365 15.8816L125.074 7.46171L123.703 7.44434V18.7653H124.664V9.15319L129.06 17.4663L129.634 17.4911L134.17 9.15319V18.7653H135.131V7.44434L133.76 7.46171L129.365 15.8816Z" fill="#8D8D8D"/>
<path d="M44.3472 7.44434H41.8906V18.7653H49.1532V16.5226H44.3472V7.44434Z" fill="#8D8D8D"/>
<path d="M106.726 16.9496L99.895 7.60049C99.5699 7.29862 99.026 7.49532 98.6094 7.44413V18.7651H99.6772V9.2597L99.9351 9.48246L106.567 18.6578C106.842 18.888 107.434 18.7155 107.794 18.7651V7.44413H106.726V16.9496Z" fill="#8D8D8D"/>
<path d="M115.459 7.36797C107.308 7.70863 108.65 20.2219 116.894 18.738C123.748 17.5041 122.812 7.06083 115.459 7.36797ZM118.248 17.1008C114.436 19.5372 109.741 15.6104 111.34 11.368C111.872 9.95638 113.417 8.63658 114.92 8.43275C120.15 7.72352 122.6 14.3185 118.248 17.1008Z" fill="#8D8D8D"/>
<path d="M90.3599 7.36842C82.9015 7.68022 83.1848 18.8386 90.6475 18.8722C98.4161 18.9072 98.4481 7.03025 90.3599 7.36842ZM90.1148 17.8034C84.7249 17.2595 84.6395 9.08098 89.9299 8.43567C97.1537 7.55425 97.069 18.5051 90.1148 17.8034Z" fill="#8D8D8D"/>
<path d="M139.404 7.44434H138.336V18.7653H139.404V7.44434Z" fill="#8D8D8D"/>
</g>
<defs>
<clipPath id="clip0_3536_47471">
<rect width="140" height="24" fill="white" transform="translate(0 0.0185547)"/>
</clipPath>
</defs>
</svg>
