<svg width="187" height="34" viewBox="0 0 187 34" fill="none" xmlns="http://www.w3.org/2000/svg">
<g clip-path="url(#clip0_3536_47525)">
<path d="M27.5099 20.0584C26.9497 20.4006 26.2963 20.4629 25.7983 20.1828C25.176 19.8094 24.8025 18.9691 24.8025 17.8177V14.3012C24.8025 12.6207 24.149 11.407 23.0287 11.0958C21.1303 10.5357 19.6988 12.8697 19.1698 13.741L15.8088 19.1247V12.4963C15.7778 10.9714 15.2798 10.0689 14.3463 9.78881C13.7239 9.6021 12.7902 9.69546 11.8878 11.0647L4.3879 23.077C3.39206 21.1787 2.86302 19.0625 2.86302 16.9152C2.86302 9.66434 8.68243 3.78268 15.8088 3.78268C22.9353 3.78268 28.7547 9.66434 28.7547 16.9152V16.9464V16.9774C28.817 18.3779 28.3812 19.4982 27.5099 20.0584ZM31.6178 16.9152V16.8842V16.853C31.5866 8.04609 24.4913 0.857422 15.8088 0.857422C7.09532 0.857422 0 8.0461 0 16.9152C0 25.7533 7.09532 32.973 15.8088 32.973C19.8233 32.973 23.6199 31.4482 26.5452 28.6785C27.1365 28.1183 27.1676 27.2159 26.6075 26.6246C26.0784 26.0334 25.176 26.0022 24.5847 26.5312C24.5847 26.5312 24.5847 26.5312 24.5535 26.5624C22.1884 28.803 19.0142 30.0789 15.7466 30.0789C11.9189 30.0789 8.49571 28.3985 6.13061 25.7222L12.8836 14.8925V19.9028C12.8836 22.299 13.8172 23.077 14.5952 23.2948C15.3732 23.5126 16.5557 23.357 17.8317 21.3343L21.5349 15.3281C21.6594 15.1415 21.7528 14.9547 21.8772 14.8302V17.88C21.8772 20.1206 22.7797 21.9255 24.3357 22.7969C25.7361 23.606 27.5099 23.5126 28.9726 22.6102C30.7775 21.4276 31.7422 19.3737 31.6178 16.9152ZM53.6506 11.4382C54.024 11.656 54.3663 12.1851 54.3663 12.6519C54.3663 13.3987 53.744 14.0211 53.0282 14.0211C52.8414 14.0211 52.6859 13.9588 52.5303 13.9278C51.69 13.3054 50.632 12.9008 49.5116 12.9008C46.8664 12.9008 45.0615 15.0481 45.0615 17.7244C45.0615 20.4006 46.8976 22.5168 49.5116 22.5168C50.8186 22.5168 52.0013 21.9878 52.8726 21.1475C53.0904 20.9919 53.3705 20.8986 53.6506 20.8986C54.3663 20.8986 54.9265 21.4587 54.9265 22.1745C54.9265 22.6413 54.6464 23.0458 54.3041 23.2636C53.0282 24.3529 51.3166 25.0687 49.5427 25.0687C45.4972 25.0687 42.1985 21.7389 42.1985 17.631C42.1985 13.5232 45.4972 10.1934 49.5427 10.1934C51.0365 10.1622 52.468 10.629 53.6506 11.4382ZM61.0571 14.5501C63.8268 14.5501 66.1296 16.8842 66.1296 19.7782C66.1296 22.6413 63.7956 25.0997 61.0571 25.0997C58.1629 25.0997 55.7667 22.6724 55.7667 19.7782C55.7667 16.8842 58.1629 14.5501 61.0571 14.5501ZM61.026 22.5168C62.2396 22.5168 63.2666 21.3654 63.2666 19.8094C63.2666 18.2534 62.2396 17.2576 61.026 17.2576C59.719 17.2576 58.6297 18.2223 58.6297 19.8094C58.6297 21.3343 59.719 22.5168 61.026 22.5168ZM67.8723 23.4816V16.1373C67.8723 15.3281 68.4947 14.6746 69.3038 14.6746C70.0818 14.6746 70.7353 15.3281 70.7353 16.1373V23.4816C70.7353 24.2907 70.0818 24.9441 69.3038 24.9441C68.5258 24.9441 67.8723 24.2595 67.8723 23.4816ZM67.6545 11.9049C67.6545 10.9402 68.4013 10.1934 69.3038 10.1934C70.2374 10.1934 70.9843 10.9714 70.9843 11.9049C70.9843 12.8385 70.2374 13.5854 69.3038 13.5854C68.3703 13.5543 67.6545 12.8074 67.6545 11.9049ZM76.2124 19.4982V23.4816C76.2124 24.2907 75.5589 24.9441 74.7809 24.9441C74.0029 24.9441 73.3494 24.2907 73.3494 23.4816V15.7949C73.3494 15.1725 73.8473 14.6746 74.4697 14.6746C75.0921 14.6746 75.5589 15.2037 75.5589 15.7949C76.7104 14.7057 77.7373 14.5501 78.702 14.5501C81.565 14.5501 82.841 16.6974 82.841 19.1559V23.4816C82.841 24.2907 82.1874 24.9441 81.4094 24.9441C80.6315 24.9441 79.9779 24.2907 79.9779 23.4816V19.4982C79.9779 18.2534 79.8223 17.1954 78.0174 17.1954C76.7415 17.1954 76.2124 18.2534 76.2124 19.4982ZM92.1144 21.0231C91.7724 21.0231 91.5542 20.8675 91.3674 20.6496L88.038 17.0398V23.4816C88.038 24.2907 87.3845 24.9441 86.6065 24.9441C85.8284 24.9441 85.175 24.2907 85.175 23.4816V10.7224C85.2683 10.5046 85.4862 10.349 85.704 10.349C85.9529 10.349 86.1708 10.5668 86.3264 10.7224L91.6476 16.6974C91.8038 16.8842 91.9905 16.9774 92.1144 16.9774C92.2078 16.9774 92.426 16.8842 92.5813 16.6974L97.9028 10.7224C98.0581 10.5668 98.2449 10.349 98.525 10.349C98.7746 10.349 98.9919 10.5046 99.0547 10.7224V23.4816C99.0547 24.2907 98.4316 24.9441 97.6227 24.9441C96.8451 24.9441 96.1915 24.2907 96.1915 23.4816V17.0398L92.8614 20.6496C92.6127 20.8675 92.3946 21.0231 92.1144 21.0231ZM105.869 22.5168C107.145 22.5168 108.235 21.3654 108.235 19.8094C108.235 18.2534 107.115 17.2264 105.869 17.2264C104.625 17.2264 103.598 18.2845 103.598 19.8094C103.598 21.3031 104.593 22.5168 105.869 22.5168ZM108.919 23.8238L108.857 23.4816C108.297 24.5707 106.523 25.0687 105.402 25.0687C102.727 25.0687 100.735 22.6413 100.735 19.7472C100.735 16.8842 102.757 14.519 105.559 14.519C106.026 14.519 107.643 14.6435 108.888 16.1061L108.951 15.7638C108.951 15.1414 109.418 14.6435 110.04 14.6435C110.662 14.6435 111.16 15.1725 111.16 15.7638V23.7927C111.16 24.4151 110.662 24.9131 110.04 24.9131C109.386 24.9441 108.919 24.4151 108.919 23.8238ZM119.033 17.1954H118.722C116.917 17.2887 116.575 18.3157 116.575 19.4982V23.4816C116.575 24.2907 115.921 24.9441 115.143 24.9441C114.366 24.9441 113.712 24.2907 113.712 23.4816V15.7949C113.712 15.1725 114.209 14.6746 114.832 14.6746C115.455 14.6746 115.921 15.2037 115.921 15.7949C116.979 14.7991 117.851 14.5813 118.722 14.5501H119.002C119.687 14.5501 120.309 15.1415 120.309 15.8883C120.341 16.573 119.718 17.1954 119.033 17.1954ZM130.081 22.7969C130.205 23.0148 130.299 23.2326 130.299 23.4816C130.299 24.2284 129.614 24.9131 128.867 24.9131C128.369 24.9131 127.934 24.5396 127.592 24.1039L124.293 20.2762V23.4504C124.293 24.2595 123.639 24.9131 122.861 24.9131C122.083 24.9131 121.43 24.2595 121.43 23.4504V11.7805C121.43 10.9714 122.052 10.3178 122.861 10.3178C123.67 10.3178 124.293 10.9714 124.293 11.7805V19.0625L127.592 15.4215C127.934 15.0481 128.339 14.6435 128.836 14.6435C129.552 14.6435 130.205 15.2971 130.205 16.0439C130.205 16.2617 130.143 16.5107 130.018 16.6974L127.405 19.5604L130.081 22.7969ZM135.682 17.2264C134.904 17.2264 133.629 17.631 133.629 18.8447H137.768C137.736 17.631 136.429 17.2264 135.682 17.2264ZM139.417 20.6808H133.629C133.629 22.3923 135.278 22.6724 135.994 22.6724C136.522 22.6724 137.269 22.579 137.861 22.299C138.048 22.1745 138.328 22.0811 138.608 22.0811C139.23 22.0811 139.759 22.6102 139.759 23.2636C139.759 23.6994 139.479 24.0728 139.137 24.2907C138.265 24.9441 137.114 25.0997 136.025 25.0997C133.13 25.0997 130.734 23.5438 130.734 19.9028C130.734 17.0398 132.197 14.5501 135.62 14.5501C138.39 14.5501 140.475 16.3551 140.537 19.5604C140.537 20.1517 140.039 20.6808 139.417 20.6808ZM147.383 25.0687H146.605C144.427 25.0687 143.151 24.1039 143.151 20.7119V17.1954H142.404C141.72 17.1954 141.128 16.573 141.128 15.8883C141.128 15.1415 141.75 14.5501 142.404 14.5501H143.151V11.8427C143.151 11.0336 143.773 10.3801 144.582 10.3801C145.361 10.3801 146.014 11.0336 146.014 11.8427V14.5501H147.197C147.882 14.5501 148.473 15.1415 148.473 15.8883C148.473 16.573 147.85 17.1954 147.197 17.1954H146.014V20.1517C146.014 22.1123 146.108 22.5168 146.979 22.5168H147.383C148.069 22.5168 148.659 23.077 148.659 23.7927C148.659 24.4773 148.069 25.0687 147.383 25.0687ZM161.232 11.4382C161.605 11.656 161.947 12.1851 161.947 12.6519C161.947 13.3987 161.325 14.0211 160.609 14.0211C160.423 14.0211 160.267 13.9588 160.111 13.9278C159.271 13.3054 158.213 12.9008 157.093 12.9008C154.448 12.9008 152.643 15.0481 152.643 17.7244C152.643 20.4006 154.479 22.5168 157.093 22.5168C158.4 22.5168 159.582 21.9878 160.454 21.1475C160.671 20.9919 160.952 20.8986 161.232 20.8986C161.947 20.8986 162.508 21.4587 162.508 22.1745C162.508 22.6413 162.227 23.0458 161.885 23.2636C160.609 24.3529 158.898 25.0687 157.124 25.0687C153.078 25.0687 149.78 21.7389 149.78 17.631C149.78 13.5232 153.078 10.1934 157.124 10.1934C158.618 10.1622 160.081 10.629 161.232 11.4382ZM168.483 22.5168C169.758 22.5168 170.848 21.3654 170.848 19.8094C170.848 18.2534 169.727 17.2264 168.483 17.2264C167.207 17.2264 166.211 18.2845 166.211 19.8094C166.211 21.3031 167.238 22.5168 168.483 22.5168ZM171.533 23.8238L171.471 23.4816C170.91 24.5707 169.136 25.0687 168.016 25.0687C165.339 25.0687 163.348 22.6413 163.348 19.7472C163.348 16.8842 165.371 14.519 168.171 14.519C168.638 14.519 170.257 14.6435 171.501 16.1061L171.563 15.7638C171.563 15.1414 172.03 14.6435 172.653 14.6435C173.275 14.6435 173.773 15.1725 173.773 15.7638V23.7927C173.773 24.4151 173.275 24.9131 172.653 24.9131C171.999 24.9441 171.533 24.4151 171.533 23.8238ZM181.584 22.5168C182.86 22.5168 183.856 21.3031 183.856 19.8094C183.856 18.2534 182.829 17.2264 181.584 17.2264C180.308 17.2264 179.219 18.2534 179.219 19.8094C179.219 21.3654 180.308 22.5168 181.584 22.5168ZM179.219 24.2284V27.8695C179.219 28.6785 178.565 29.332 177.788 29.332C177.009 29.332 176.356 28.6785 176.356 27.8695V15.7949C176.356 15.1725 176.854 14.6746 177.476 14.6746C178.098 14.6746 178.565 15.2037 178.565 15.9194C179.624 14.8302 180.93 14.5501 181.927 14.5501C184.696 14.5501 186.75 16.8842 186.75 19.7782C186.75 22.6413 184.789 25.0997 182.082 25.0997C181.242 25.0687 179.997 24.8197 179.219 24.2284Z" fill="#8D8D8D"/>
</g>
<defs>
<clipPath id="clip0_3536_47525">
<rect width="186.75" height="32.3221" fill="white" transform="translate(0 0.857422)"/>
</clipPath>
</defs>
</svg>
