<svg width="109" height="16" viewBox="0 0 109 16" fill="none" xmlns="http://www.w3.org/2000/svg">
<path d="M0.434659 15V0.454545H9.75284V2.66335H3.0696V6.61222H9.11364V8.82102H3.0696V15H0.434659ZM15.7485 15.2131C14.6548 15.2131 13.7102 14.9858 12.9147 14.5312C12.124 14.072 11.5156 13.4233 11.0894 12.5852C10.6633 11.7424 10.4502 10.7505 10.4502 9.60938C10.4502 8.48722 10.6633 7.50237 11.0894 6.65483C11.5203 5.80256 12.1216 5.13968 12.8934 4.66619C13.6652 4.18797 14.5719 3.94886 15.6136 3.94886C16.2859 3.94886 16.9204 4.05777 17.517 4.27557C18.1183 4.48864 18.6486 4.82008 19.1079 5.26989C19.5719 5.7197 19.9365 6.29261 20.2017 6.98864C20.4668 7.67992 20.5994 8.50379 20.5994 9.46023V10.2486H11.6576V8.51562H18.1349C18.1302 8.0232 18.0236 7.58523 17.8153 7.2017C17.607 6.81345 17.3158 6.50805 16.9417 6.28551C16.5724 6.06297 16.1415 5.9517 15.6491 5.9517C15.1235 5.9517 14.6619 6.07955 14.2642 6.33523C13.8664 6.58617 13.5563 6.91761 13.3338 7.32955C13.116 7.73674 13.0047 8.18419 13 8.67188V10.1847C13 10.8191 13.116 11.3636 13.348 11.8182C13.58 12.268 13.9043 12.6136 14.321 12.8551C14.7376 13.0919 15.2253 13.2102 15.784 13.2102C16.1581 13.2102 16.4966 13.1581 16.7997 13.054C17.1027 12.9451 17.3655 12.7865 17.588 12.5781C17.8106 12.3698 17.9787 12.1117 18.0923 11.804L20.4929 12.0739C20.3413 12.7083 20.0525 13.2623 19.6264 13.7358C19.205 14.2045 18.6652 14.5691 18.0071 14.8295C17.3489 15.0852 16.5961 15.2131 15.7485 15.2131ZM25.5937 15.2202C24.9024 15.2202 24.2797 15.0971 23.7258 14.8509C23.1765 14.5999 22.7409 14.2306 22.4189 13.7429C22.1017 13.2552 21.9431 12.6539 21.9431 11.9389C21.9431 11.3234 22.0567 10.8144 22.284 10.4119C22.5113 10.0095 22.8214 9.6875 23.2144 9.44602C23.6074 9.20455 24.0501 9.02225 24.5425 8.89915C25.0397 8.77131 25.5534 8.67898 26.0837 8.62216C26.7229 8.55587 27.2414 8.49669 27.6391 8.4446C28.0368 8.38778 28.3257 8.30256 28.5056 8.18892C28.6903 8.07055 28.7826 7.88826 28.7826 7.64205V7.59943C28.7826 7.06439 28.624 6.65009 28.3067 6.35653C27.9895 6.06297 27.5326 5.91619 26.936 5.91619C26.3063 5.91619 25.8067 6.0535 25.4374 6.32812C25.0728 6.60275 24.8266 6.92708 24.6988 7.30114L22.2982 6.96023C22.4876 6.29735 22.8001 5.74337 23.2357 5.2983C23.6713 4.84848 24.204 4.51231 24.8337 4.28977C25.4635 4.0625 26.1595 3.94886 26.9218 3.94886C27.4474 3.94886 27.9706 4.01042 28.4914 4.13352C29.0122 4.25663 29.4881 4.46023 29.9189 4.74432C30.3498 5.02367 30.6955 5.40483 30.9559 5.88778C31.221 6.37074 31.3536 6.97443 31.3536 7.69886V15H28.882V13.5014H28.7968C28.6405 13.8045 28.4204 14.0885 28.1363 14.3537C27.8569 14.6141 27.5042 14.8248 27.078 14.9858C26.6566 15.142 26.1618 15.2202 25.5937 15.2202ZM26.2613 13.331C26.7774 13.331 27.2248 13.2292 27.6036 13.0256C27.9824 12.8172 28.2736 12.5426 28.4772 12.2017C28.6855 11.8608 28.7897 11.4891 28.7897 11.0866V9.80114C28.7092 9.86742 28.5719 9.92898 28.3778 9.9858C28.1884 10.0426 27.9753 10.0923 27.7386 10.1349C27.5018 10.1776 27.2674 10.2154 27.0354 10.2486C26.8034 10.2817 26.6022 10.3101 26.4317 10.3338C26.0482 10.3859 25.7049 10.4711 25.4019 10.5895C25.0989 10.7079 24.8598 10.8736 24.6846 11.0866C24.5094 11.295 24.4218 11.5649 24.4218 11.8963C24.4218 12.3698 24.5946 12.7273 24.9403 12.9688C25.2859 13.2102 25.7262 13.331 26.2613 13.331ZM39.0663 4.09091V6.07955H32.795V4.09091H39.0663ZM34.3433 1.47727H36.9143V11.7188C36.9143 12.0644 36.9664 12.3295 37.0705 12.5142C37.1794 12.6941 37.3215 12.8172 37.4967 12.8835C37.6719 12.9498 37.866 12.983 38.0791 12.983C38.24 12.983 38.3868 12.9711 38.5194 12.9474C38.6567 12.9238 38.7609 12.9025 38.8319 12.8835L39.2651 14.8935C39.1278 14.9408 38.9313 14.9929 38.6757 15.0497C38.4247 15.1065 38.1169 15.1397 37.7524 15.1491C37.1084 15.1681 36.5284 15.071 36.0123 14.858C35.4962 14.6402 35.0866 14.304 34.7836 13.8494C34.4853 13.3949 34.3385 12.8267 34.3433 12.1449V1.47727ZM47.8496 10.4119V4.09091H50.4206V15H47.9277V13.0611H47.8141C47.5679 13.6719 47.1631 14.1714 46.5996 14.5597C46.0409 14.9479 45.352 15.142 44.5329 15.142C43.8179 15.142 43.1858 14.9834 42.6365 14.6662C42.092 14.3442 41.6659 13.8778 41.3581 13.267C41.0504 12.6515 40.8965 11.9081 40.8965 11.0369V4.09091H43.4675V10.6392C43.4675 11.3305 43.6569 11.8797 44.0357 12.2869C44.4145 12.6941 44.9116 12.8977 45.5272 12.8977C45.906 12.8977 46.2729 12.8054 46.628 12.6207C46.9831 12.4361 47.2743 12.1615 47.5016 11.7969C47.7336 11.4276 47.8496 10.9659 47.8496 10.4119ZM52.7445 15V4.09091H55.2374V5.90909H55.351C55.5499 5.27936 55.8908 4.79403 56.3737 4.45312C56.8614 4.10748 57.4178 3.93466 58.0428 3.93466C58.1848 3.93466 58.3434 3.94176 58.5186 3.95597C58.6985 3.96544 58.8477 3.98201 58.9661 4.00568V6.37074C58.8572 6.33286 58.6843 6.29972 58.4476 6.27131C58.2156 6.23816 57.9907 6.22159 57.7729 6.22159C57.3041 6.22159 56.8827 6.32339 56.5087 6.52699C56.1393 6.72585 55.8482 7.00284 55.6351 7.35795C55.422 7.71307 55.3155 8.12263 55.3155 8.58665V15H52.7445ZM64.7345 15.2131C63.6407 15.2131 62.6961 14.9858 61.9007 14.5312C61.1099 14.072 60.5015 13.4233 60.0754 12.5852C59.6492 11.7424 59.4362 10.7505 59.4362 9.60938C59.4362 8.48722 59.6492 7.50237 60.0754 6.65483C60.5063 5.80256 61.1076 5.13968 61.8794 4.66619C62.6511 4.18797 63.5579 3.94886 64.5995 3.94886C65.2719 3.94886 65.9064 4.05777 66.5029 4.27557C67.1043 4.48864 67.6346 4.82008 68.0939 5.26989C68.5579 5.7197 68.9225 6.29261 69.1876 6.98864C69.4528 7.67992 69.5853 8.50379 69.5853 9.46023V10.2486H60.6436V8.51562H67.1208C67.1161 8.0232 67.0096 7.58523 66.8012 7.2017C66.5929 6.81345 66.3017 6.50805 65.9277 6.28551C65.5583 6.06297 65.1275 5.9517 64.635 5.9517C64.1095 5.9517 63.6478 6.07955 63.2501 6.33523C62.8524 6.58617 62.5422 6.91761 62.3197 7.32955C62.1019 7.73674 61.9906 8.18419 61.9859 8.67188V10.1847C61.9859 10.8191 62.1019 11.3636 62.3339 11.8182C62.5659 12.268 62.8903 12.6136 63.3069 12.8551C63.7236 13.0919 64.2113 13.2102 64.77 13.2102C65.144 13.2102 65.4826 13.1581 65.7856 13.054C66.0886 12.9451 66.3514 12.7865 66.574 12.5781C66.7965 12.3698 66.9646 12.1117 67.0782 11.804L69.4788 12.0739C69.3273 12.7083 69.0385 13.2623 68.6123 13.7358C68.1909 14.2045 67.6511 14.5691 66.993 14.8295C66.3349 15.0852 65.582 15.2131 64.7345 15.2131ZM75.4887 15.1918C74.6317 15.1918 73.8646 14.9716 73.1876 14.5312C72.5105 14.0909 71.9754 13.4517 71.5824 12.6136C71.1895 11.7756 70.993 10.7576 70.993 9.55966C70.993 8.34754 71.1918 7.32481 71.5895 6.49148C71.992 5.65341 72.5341 5.02131 73.216 4.59517C73.8978 4.1643 74.6577 3.94886 75.4958 3.94886C76.135 3.94886 76.6606 4.05777 77.0725 4.27557C77.4844 4.48864 77.8111 4.74669 78.0526 5.04972C78.2941 5.34801 78.4811 5.62973 78.6137 5.89489H78.7202V0.454545H81.2984V15H78.7699V13.2812H78.6137C78.4811 13.5464 78.2894 13.8281 78.0384 14.1264C77.7875 14.42 77.456 14.6709 77.0441 14.8793C76.6322 15.0876 76.1137 15.1918 75.4887 15.1918ZM76.206 13.0824C76.7505 13.0824 77.2145 12.9356 77.5981 12.642C77.9816 12.3437 78.2728 11.9295 78.4717 11.3991C78.6705 10.8688 78.7699 10.2509 78.7699 9.54545C78.7699 8.83996 78.6705 8.2268 78.4717 7.70597C78.2775 7.18513 77.9887 6.7803 77.6052 6.49148C77.2264 6.20265 76.76 6.05824 76.206 6.05824C75.6331 6.05824 75.1549 6.20739 74.7714 6.50568C74.3878 6.80398 74.099 7.21591 73.9049 7.74148C73.7108 8.26705 73.6137 8.86837 73.6137 9.54545C73.6137 10.2273 73.7108 10.8357 73.9049 11.3707C74.1038 11.901 74.3949 12.3201 74.7785 12.6278C75.1667 12.9309 75.6426 13.0824 76.206 13.0824ZM91.1076 0.454545V15H88.4726V0.454545H91.1076ZM96.0983 8.60795V15H93.5273V4.09091H95.9847V5.9446H96.1125C96.3635 5.33381 96.7635 4.84848 97.3128 4.48864C97.8668 4.12879 98.551 3.94886 99.3653 3.94886C100.118 3.94886 100.774 4.10985 101.333 4.43182C101.896 4.75379 102.332 5.22017 102.639 5.83097C102.952 6.44176 103.106 7.18276 103.101 8.05398V15H100.53V8.4517C100.53 7.72254 100.341 7.15199 99.9619 6.74006C99.5879 6.32812 99.0694 6.12216 98.4065 6.12216C97.9567 6.12216 97.5566 6.22159 97.2063 6.42045C96.8606 6.61458 96.5884 6.89631 96.3895 7.26562C96.1954 7.63494 96.0983 8.08239 96.0983 8.60795ZM106.979 15.1562C106.548 15.1562 106.178 15.0047 105.871 14.7017C105.563 14.3987 105.411 14.0294 105.416 13.5938C105.411 13.1676 105.563 12.803 105.871 12.5C106.178 12.197 106.548 12.0455 106.979 12.0455C107.395 12.0455 107.757 12.197 108.065 12.5C108.378 12.803 108.536 13.1676 108.541 13.5938C108.536 13.8826 108.461 14.1454 108.314 14.3821C108.172 14.6188 107.982 14.8082 107.746 14.9503C107.514 15.0876 107.258 15.1562 106.979 15.1562ZM106.979 7.37216C106.548 7.37216 106.178 7.22064 105.871 6.91761C105.563 6.60985 105.411 6.24053 105.416 5.80966C105.411 5.38352 105.563 5.01894 105.871 4.71591C106.178 4.40814 106.548 4.25426 106.979 4.25426C107.395 4.25426 107.757 4.40814 108.065 4.71591C108.378 5.01894 108.536 5.38352 108.541 5.80966C108.536 6.09375 108.461 6.35417 108.314 6.59091C108.172 6.82765 107.982 7.01705 107.746 7.15909C107.514 7.30114 107.258 7.37216 106.979 7.37216Z" fill="black"/>
</svg>
