<svg width="52" height="17" viewBox="0 0 52 17" fill="none" xmlns="http://www.w3.org/2000/svg">
<g opacity="0.5">
<path d="M34.4023 16.1487C33.2923 16.0357 32.4472 15.6302 31.9096 14.9525C31.6823 14.6659 31.5002 14.299 31.4254 13.9767C31.3958 13.8491 31.3581 13.557 31.3581 13.4556V13.3744L32.3736 13.3782L33.3891 13.382L33.4074 13.4912C33.4785 13.9157 33.7494 14.2487 34.1487 14.4025C34.5846 14.5703 35.2553 14.555 35.7012 14.3669C36.0579 14.2165 36.3055 13.8935 36.4064 13.4469C36.4343 13.324 36.439 13.2424 36.4473 12.7531C36.4524 12.4481 36.4558 12.1986 36.455 12.1986C36.4541 12.1986 36.3737 12.2774 36.2763 12.3738C35.9429 12.7036 35.545 12.9248 35.0926 13.0319C34.6034 13.1476 34.0014 13.1274 33.4793 12.9779C32.4832 12.6925 31.6225 11.8044 31.2889 10.7175C31.171 10.3333 31.1209 10.0172 31.1097 9.58612C31.0818 8.51977 31.3123 7.69866 31.8378 6.99193C32.2523 6.43463 32.8251 6.04369 33.4781 5.87253C33.8087 5.7859 33.9029 5.77569 34.3651 5.7764C34.7637 5.777 34.8017 5.77947 34.9936 5.8171C35.5876 5.93363 36.0599 6.18401 36.4711 6.60034C36.5364 6.66646 36.5933 6.72056 36.5976 6.72056C36.6019 6.72056 36.6033 6.53636 36.6008 6.3112L36.5962 5.90183H37.5792H38.5621L38.5576 9.61217C38.5527 13.657 38.5578 13.4066 38.4715 13.8053C38.2966 14.6122 37.7745 15.2918 37.0146 15.7014C36.7454 15.8465 36.3231 15.9949 35.9895 16.0616C35.6194 16.1357 35.4903 16.1469 34.9679 16.1509C34.6896 16.153 34.435 16.152 34.4023 16.1487ZM35.2657 11.2465C35.404 11.2085 35.597 11.1214 35.6999 11.0506C35.8154 10.9712 36.0085 10.777 36.0917 10.6568C36.2334 10.4517 36.3451 10.1707 36.3989 9.88384C36.4373 9.679 36.4371 9.20494 36.3985 8.99068C36.2933 8.40637 35.9969 7.96917 35.5559 7.74799C35.2903 7.61473 35.0418 7.56183 34.7372 7.57362C34.4762 7.58371 34.3052 7.62748 34.0782 7.74219C33.6356 7.96589 33.3166 8.48783 33.2474 9.10194C33.2221 9.32564 33.2378 9.79839 33.2763 9.97735C33.3358 10.2541 33.4417 10.5029 33.5853 10.7043C33.7482 10.9326 34.033 11.1452 34.2816 11.2243C34.4631 11.282 34.5289 11.2889 34.8489 11.2839C35.0998 11.28 35.1653 11.2741 35.2657 11.2465Z" fill="#FEFEFF" stroke="#FEFEFF" stroke-width="0.186075"/>
<path d="M28.6837 13.3807C28.3699 13.335 28.0478 13.234 27.8681 13.1252C27.4577 12.8766 27.2091 12.5069 27.0747 11.9451C26.961 11.4696 26.9635 11.5219 26.957 9.50004L26.9512 7.70256H26.2969H25.6427V7.1393C25.6427 6.82953 25.6382 6.42424 25.6328 6.2387L25.623 5.90135H26.2878H26.9526V4.64349V3.38562H27.9785C28.5428 3.38562 29.0151 3.38157 29.028 3.3766C29.0494 3.36838 29.0516 3.4853 29.0516 4.63447V5.90135H29.8182H30.5848V6.80196V7.70256H29.8251H29.0654L29.0699 9.39584C29.0744 11.0813 29.0746 11.0896 29.1068 11.2033C29.152 11.3632 29.1862 11.423 29.2834 11.5118C29.4599 11.6731 29.5374 11.6912 30.0979 11.7025L30.5265 11.7111L30.5222 12.5477L30.5178 13.3843L29.8852 13.394C29.0524 13.4069 28.8482 13.4047 28.6837 13.3807Z" fill="#FEFEFF" stroke="#FEFEFF" stroke-width="0.186075"/>
<path d="M42.678 13.4989C42.6535 13.4953 42.5497 13.4821 42.4473 13.4695C41.7204 13.3803 41.1333 13.1615 40.6423 12.797C39.859 12.2154 39.3913 11.4016 39.2207 10.3233C39.1849 10.0971 39.1817 10.0396 39.1816 9.62289C39.1815 9.11361 39.1997 8.94575 39.2988 8.54365C39.449 7.93434 39.7511 7.37543 40.1682 6.93566C40.7019 6.37276 41.3491 6.0122 42.1152 5.85098C42.4903 5.77203 43.0265 5.74437 43.4372 5.78271C45.0216 5.93074 46.2477 6.95877 46.6325 8.46178C46.7166 8.79034 46.7353 8.93116 46.745 9.31129C46.7533 9.63792 46.7419 9.84266 46.7019 10.0881L46.6854 10.1886H44.0156C42.5472 10.1886 41.3457 10.192 41.3457 10.1961C41.3457 10.2415 41.4005 10.5233 41.4295 10.6277C41.6233 11.3234 42.0486 11.7525 42.6408 11.8498C42.8074 11.8771 43.1633 11.8763 43.3368 11.8482C43.4902 11.8233 43.7283 11.7515 43.8336 11.6984C43.9223 11.6536 44.1192 11.5044 44.1989 11.4216C44.2986 11.3181 44.3766 11.2053 44.4451 11.0655L44.509 10.935L45.5771 10.9339C46.1799 10.9333 46.6452 10.9385 46.6452 10.9459C46.6452 10.9531 46.6147 11.0485 46.5775 11.158C46.4479 11.5395 46.2128 11.9629 45.9658 12.2599C45.5225 12.7928 44.8911 13.1844 44.1809 13.367C43.8242 13.4587 43.5175 13.4966 43.0948 13.5013C42.8902 13.5035 42.7026 13.5025 42.678 13.4989ZM44.4492 8.71856C44.4036 8.32149 44.2744 8.0235 44.0383 7.77071C43.7985 7.51396 43.5033 7.37194 43.1208 7.32928C42.8833 7.30278 42.5456 7.34985 42.3357 7.43875C41.9942 7.58332 41.689 7.90873 41.5424 8.28472C41.4871 8.42644 41.4231 8.63547 41.3981 8.75578L41.388 8.80416H42.9235H44.4591L44.4492 8.71856Z" fill="#FEFEFF" stroke="#FEFEFF" stroke-width="0.186075"/>
<path d="M22.8145 9.6452V5.90137H23.8788H24.9432V9.6452V13.389H23.8788H22.8145V9.6452Z" fill="#FEFEFF" stroke="#FEFEFF" stroke-width="0.186075"/>
<path d="M50.0982 13.3933C49.6315 13.3485 49.3199 13.2568 49.0612 13.0879C48.8402 12.9437 48.6241 12.7017 48.5052 12.4652C48.3906 12.2375 48.2963 11.9198 48.2534 11.6167C48.2065 11.2852 48.2028 11.1508 48.1942 9.44337L48.1853 7.69426L47.5341 7.70025L46.8828 7.70623V6.80337V5.9005H47.5378H48.1928V4.64263V3.38477H49.2497H50.3066V4.64263V5.9005H51.0732H51.8399V6.8011V7.70171H51.0727H50.3056L50.3101 9.3801L50.3145 11.0585L50.348 11.1776C50.4158 11.4185 50.4989 11.533 50.6657 11.6151C50.8105 11.6862 50.9657 11.7055 51.397 11.7058L51.7654 11.706V12.5447V13.3834L51.3523 13.3932C50.9438 13.4029 50.1989 13.4029 50.0982 13.3933Z" fill="#FEFEFF" stroke="#FEFEFF" stroke-width="0.186075"/>
<path d="M4.90213 12.9846C5.86534 12.0364 6.5802 11.3278 7.79549 10.1165C8.50526 9.40909 9.09474 8.82481 9.10546 8.81817C9.11922 8.80957 8.93525 8.6159 8.47495 8.15435C8.11748 7.79592 7.30932 6.9835 6.67904 6.349L5.53312 5.19534L7.11639 5.19153L8.69967 5.18774L9.01647 5.5044C9.19073 5.67857 9.93616 6.42075 10.673 7.15371C12.1413 8.61412 12.0861 8.55258 12.1045 8.74967C12.1156 8.86849 12.0814 9.00633 12.0175 9.10014C11.9914 9.13852 11.3428 9.79958 10.5763 10.5692C9.8099 11.3388 8.86493 12.2883 8.4765 12.6792L7.77025 13.3899L6.13023 13.39L4.49023 13.3901L4.90213 12.9846Z" fill="#FEFEFF" stroke="#FEFEFF" stroke-width="0.186075"/>
<path d="M1.96247 7.14179L0.293006 5.47843L0.252784 5.36997C0.218159 5.27661 0.213395 5.24451 0.218546 5.13924C0.222833 5.05111 0.234325 4.99618 0.259631 4.94254C0.29893 4.85926 0.489293 4.66515 3.05085 2.09588L4.55386 0.588379H6.17816C7.07153 0.588379 7.80663 0.592517 7.81172 0.597608C7.81678 0.602699 7.7124 0.711158 7.57973 0.838672C7.32301 1.08539 6.45289 1.94759 4.4462 3.94377L3.2062 5.17729L3.33719 5.31287C3.40921 5.38745 4.12779 6.11168 4.93404 6.92229C5.74027 7.73286 6.49058 8.48755 6.60137 8.59934L6.8028 8.8026L5.21736 8.80388L3.63191 8.80519L1.96247 7.14179Z" fill="#FEFEFF" stroke="#FEFEFF" stroke-width="0.186075"/>
<path d="M14.3362 13.3657C14.3412 13.3528 14.3452 11.1018 14.3452 8.36348V3.38477L16.5967 3.38995C18.7991 3.39501 18.8528 3.39578 19.0566 3.42657C19.6012 3.5088 20.0164 3.63205 20.3964 3.82438C20.9944 4.12707 21.3701 4.52337 21.593 5.08647C21.7022 5.36222 21.7447 5.59706 21.7542 5.97603C21.7609 6.24115 21.7577 6.30516 21.7307 6.46385C21.6915 6.69258 21.6468 6.82855 21.5361 7.05527C21.4346 7.26322 21.2817 7.47493 21.0982 7.6616C20.9647 7.79739 20.6962 8.0063 20.5479 8.08972C20.5003 8.11652 20.4668 8.14361 20.4735 8.14986C20.4802 8.15615 20.5359 8.18244 20.5973 8.20822C21.2579 8.48599 21.7682 9.00438 21.9662 9.59896C22.0495 9.84895 22.0737 10.013 22.0819 10.3836C22.0912 10.8044 22.0641 11.0357 21.9712 11.3275C21.8423 11.7325 21.6572 12.0416 21.3569 12.3528C20.9095 12.8165 20.2873 13.1312 19.533 13.2753C18.9539 13.3859 18.8647 13.3892 16.4537 13.3892C14.5206 13.3893 14.3279 13.3871 14.3362 13.3657ZM18.6453 11.5504C19.1511 11.4777 19.4871 11.3073 19.6987 11.0164C19.7675 10.9219 19.8425 10.7566 19.8774 10.6224C19.9574 10.3153 19.8811 9.89034 19.7073 9.67458C19.502 9.41967 19.1759 9.24789 18.744 9.16715C18.6074 9.1416 18.5073 9.13931 17.5234 9.13931H16.4516L16.447 10.2632C16.4445 10.8814 16.4467 11.429 16.4519 11.4801L16.4614 11.5732H17.4743C18.3043 11.5732 18.5157 11.5691 18.6453 11.5504ZM18.5654 7.28013C19.101 7.17697 19.4231 6.92388 19.5337 6.51937C19.5471 6.47025 19.5615 6.36307 19.5656 6.28119C19.5897 5.79737 19.3227 5.45154 18.7961 5.2844C18.517 5.1958 18.5447 5.1977 17.4527 5.19127L16.4441 5.18535V6.25169V7.31797L17.4378 7.31196C18.3021 7.30672 18.4489 7.30258 18.5654 7.28013Z" fill="#FEFEFF" stroke="#FEFEFF" stroke-width="0.186075"/>
<path d="M22.7695 4.28372V3.37939L23.8739 3.38341C24.4812 3.38559 24.9786 3.38895 24.9792 3.39086C24.9797 3.39273 24.978 3.7979 24.9753 4.29116L24.9706 5.18804H23.8701H22.7695V4.28372Z" fill="#FEFEFF" stroke="#FEFEFF" stroke-width="0.186075"/>
</g>
</svg>
