<svg width="72" height="11" viewBox="0 0 72 11" fill="none" xmlns="http://www.w3.org/2000/svg">
<g opacity="0.5" clip-path="url(#clip0_3008_3579)">
<path fill-rule="evenodd" clip-rule="evenodd" d="M3.28155 10.1738H12.4712C13.0174 10.1738 13.433 9.52357 13.1185 9.05126L8.52948 1.05505C8.19425 0.47645 7.55848 0.0830078 6.8303 0.0830078C6.06736 0.0830078 5.39689 0.522738 5.07323 1.17077L1.58233 7.23447C0.871452 8.50529 1.84066 10.1738 3.28155 10.1738Z" fill="white"/>
<path fill-rule="evenodd" clip-rule="evenodd" d="M10.5177 3.0342C9.97438 2.09687 10.298 0.893383 11.2343 0.349501C12.1707 -0.194382 13.3728 0.129635 13.9161 1.06696L17.4648 7.22327C18.0081 8.16057 17.6844 9.36407 16.7481 9.90793C15.8118 10.4518 14.6096 10.1278 14.0663 9.19049L10.5177 3.0342Z" fill="white"/>
<path d="M65.0123 2.64546C65.5483 2.14489 66.4885 1.90652 67.8577 1.90652H71.0602V0.0830078H67.2744C66.3694 0.0830078 65.6076 0.178358 65.0123 0.369052C64.429 0.559746 63.9171 0.857702 63.4766 1.27485C63.0125 1.72775 62.6435 2.28791 62.3815 2.95533C62.1195 3.63469 61.9883 4.37363 61.9883 5.14831C61.9883 5.88726 62.1195 6.60238 62.3815 7.25789C62.6435 7.91339 63.0125 8.48545 63.4766 8.93836C63.905 9.35552 64.4169 9.65349 64.9886 9.84419C65.5719 10.0348 66.3457 10.1302 67.2744 10.1302H71.0602V8.33055H67.8577C67.1316 8.33055 66.6313 8.30668 66.3457 8.24711C66.0481 8.18753 65.7745 8.09216 65.5483 7.94914C65.0957 7.66311 64.7503 7.29364 64.5245 6.82879C64.3098 6.37593 64.2027 5.80382 64.2027 5.13643C64.2027 3.99224 64.4767 3.14603 65.0123 2.64546Z" fill="white"/>
<path d="M37.1445 10.1544H46.0735V8.39043H39.3232V5.87563H45.2163V4.20706H39.3232V1.87106H46.0735V0.0952148H37.1445V10.1544Z" fill="white"/>
<path d="M48.2988 0.0952148L52.4776 5.12475L48.2988 10.1544H51.0013L54.2994 6.1736V4.08788L51.0013 0.0952148H48.2988Z" fill="white"/>
<path d="M58.444 0.0952148L55.1465 4.08788V6.1736L58.444 10.1544H61.1467L56.9556 5.12475L61.1467 0.0952148H58.444Z" fill="white"/>
<path d="M28.3922 5.05327L24.3801 0.0952148H22.3086V10.1544H24.4873V3.44429L27.9636 7.61573H28.8089L32.2852 3.40853V10.1544H34.4639V0.0952148H32.4162L28.3922 5.05327Z" fill="white"/>
</g>
<defs>
<clipPath id="clip0_3008_3579">
<rect width="70.3951" height="10.5751" fill="white" transform="translate(0.820312 0.0827637)"/>
</clipPath>
</defs>
</svg>
