<svg width="195" height="25" viewBox="0 0 195 25" fill="none" xmlns="http://www.w3.org/2000/svg">
<g clip-path="url(#clip0_3536_47493)">
<path d="M35.1292 5.91555C35.2282 5.92982 36.7845 6.80323 36.8793 6.88201C37.341 7.2655 37.7777 8.82027 37.6995 9.44396C37.6668 9.70556 37.4168 10.5781 37.3012 10.8037C37.2051 10.991 36.2045 11.6971 36.3448 11.898C36.3802 11.9489 37.1198 12.2693 37.4025 12.5461C38.7028 13.8196 38.685 16.3227 37.1965 17.4072C36.802 17.6947 35.2832 18.2191 34.8055 18.2191H27.8444L27.6016 17.9762V5.91555C29.9218 6.15635 32.8898 5.59182 35.1292 5.91555ZM33.6723 8.34402C32.8991 8.20609 31.3913 8.34402 30.5155 8.34402C30.385 8.34402 30.547 10.9343 30.6775 10.9343H33.7534C33.7671 10.9343 33.727 10.6985 33.8007 10.6658C34.5353 10.3391 35.3263 10.1141 34.7327 9.06344C34.5974 8.82413 33.9357 8.39099 33.6723 8.34402ZM35.3255 13.7316C34.9286 13.1374 31.3877 13.0244 30.781 13.2233C30.4126 13.344 30.242 15.6651 30.9201 15.7909C31.6059 15.9178 34.9122 15.8456 35.2835 15.2986C35.4952 14.9871 35.5321 14.0411 35.3255 13.7316Z" fill="#8D8D8D"/>
<path d="M50.1795 5.91602C50.6396 6.00402 50.8623 6.8028 51.1313 7.1417C52.6121 9.00534 54.0806 10.9291 55.5546 12.8349C55.6598 12.9711 55.5513 13.128 55.9262 13.0392V5.91632H58.8401V17.9767C58.8401 18.6143 56.6224 18.4737 56.2017 18.2279C55.9232 18.0649 55.7219 17.3901 55.5364 17.1517C54.1449 15.363 52.5187 12.9937 51.0567 11.3896C50.8804 11.196 50.7098 10.8675 50.4217 10.9347V17.9767L50.1789 18.2195H47.7507L47.5078 17.9767V5.91602H50.1795Z" fill="#8D8D8D"/>
<path d="M78.351 5.91517C78.8814 6.06381 82.9916 12.337 83.936 13.038V5.91517H86.8499V18.1375C86.8499 18.5005 84.7966 18.4375 84.4247 18.2888L78.9245 11.0534L78.4319 10.7719V18.2187H75.9226L75.6797 17.9758V5.91517C76.3991 6.043 77.7276 5.74066 78.351 5.91517Z" fill="#8D8D8D"/>
<path d="M140.045 6.14351C142.465 7.15158 144.19 10.1928 143.839 12.8035C143.741 13.5312 142.673 15.5688 142.689 15.8491C142.693 15.9216 143.769 16.7246 143.795 16.7927C143.967 17.2523 143.356 17.6613 143.08 17.9631C143.006 18.0439 143.042 18.2684 142.982 18.3299C142.411 18.917 141.553 17.3477 140.994 17.2463C140.923 17.2335 140.944 17.4913 140.79 17.5558C137.828 18.7957 134.497 18.8605 132.345 16.1479C128.14 10.8453 133.716 3.50606 140.045 6.14351ZM139.236 8.08504C133.924 5.5436 130.619 14.0595 136.002 16.0168C136.052 16.0352 136.068 16.2442 136.176 16.2698C136.497 16.3447 137.88 16.3307 138.253 16.284C138.645 16.2347 139.548 15.946 139.264 15.4959C139.083 15.2085 137.508 14.3517 137.356 13.9284C137.332 13.8606 138.353 13.0981 138.447 12.986C138.6 12.8044 138.272 12.2161 139.181 12.7167C139.819 13.0681 140.96 15.1371 141.322 13.5283C141.762 11.5769 141.183 9.01671 139.236 8.08504Z" fill="#8D8D8D"/>
<path d="M112.42 5.91602V8.34419H105.783V10.6107H111.611V13.3626H105.783V15.629H112.34C112.707 15.629 112.707 18.2192 112.34 18.2192H103.274L103.031 17.9764V5.91602H112.42Z" fill="#8D8D8D"/>
<path d="M60.625 18.2193L65.7923 5.98385C66.0572 5.65298 68.3418 5.64733 68.5736 5.8581C70.2054 9.22835 72.001 13.3689 73.3916 16.8994C73.5471 17.3069 73.7394 17.774 73.7377 18.2193H71.0666C70.5898 18.2193 70.0321 15.9781 69.8335 15.4873L64.6698 15.5459L63.5389 18.2193H60.625ZM65.6437 13.0389H68.7196C68.4092 12.332 68.2214 11.318 67.7621 10.8075L67.1818 9.31367L65.6437 13.0389Z" fill="#8D8D8D"/>
<path d="M179.857 5.91535C180.726 6.01404 182.258 6.96474 182.663 7.7995C182.852 8.19072 182.772 8.42378 182.863 8.70768C182.907 8.84592 183.143 8.82868 183.17 8.94343C183.513 10.3704 182.763 11.9683 181.633 12.8714C181.457 13.2852 180.367 13.2469 180.421 13.6066C180.415 14.3186 183.612 17.6317 183.337 18.218C183.248 18.3045 181.157 18.2447 180.86 18.0664C179.934 16.626 178.751 15.3787 177.995 13.848H175.405C175.383 13.848 175.243 14.2309 175.243 14.2526V17.976C175.243 18.427 172.977 18.1734 172.977 18.0568V5.91535C175.161 6.09579 177.719 5.67217 179.857 5.91535ZM179.695 8.02008C178.618 7.74747 176.451 8.22223 175.243 8.02008V11.9053H179.371C179.923 11.9053 180.877 10.7887 180.899 10.184C180.924 9.4598 180.492 8.22193 179.695 8.02008Z" fill="#8D8D8D"/>
<path d="M100.213 6.955C100.306 7.03378 100.747 7.43749 100.757 7.47346C100.877 7.87954 99.1246 9.7515 98.8354 9.62784C98.8199 9.6213 98.8375 9.42747 98.7022 9.32164C97.1171 8.07931 94.5998 7.79155 93.265 9.52111C90.9085 12.5745 93.5272 17.0601 97.6183 15.4748C98.0657 15.3014 98.8931 14.4598 99.2058 14.5211C99.3069 14.541 100.627 15.8297 100.686 15.9549C101.041 16.7147 99.3592 17.655 98.7715 17.9231C95.5294 19.4018 90.9709 17.9327 89.7529 14.4209C87.4606 7.81057 95.3287 2.83829 100.213 6.955Z" fill="#8D8D8D"/>
<path d="M194.831 5.91602C194.902 5.98707 194.905 7.85874 194.588 7.85874H188.113L187.87 8.10161V10.9347H194.022V13.0392H187.87V16.0339L188.113 16.2768H194.993C194.962 16.6223 195.135 18.2195 194.75 18.2195H185.766V5.91602H194.831Z" fill="#8D8D8D"/>
<path d="M148.368 5.91602V13.4438C148.368 14.1545 149.153 15.5794 149.797 15.9364C151.576 16.9213 154.52 16.0571 154.52 13.7675V5.91602H156.786V13.7675C156.786 14.9994 155.61 16.8836 154.569 17.5405C151.031 19.774 146.102 17.7579 146.102 13.282V5.91632L148.368 5.91602Z" fill="#8D8D8D"/>
<path d="M165.915 6.66722C167.668 10.0589 169.382 14.043 170.798 17.564C170.847 17.715 170.933 18.1556 170.872 18.2177C170.812 18.2799 169.386 18.2558 169.165 18.2261C168.041 18.0753 167.887 15.209 167.236 15.1314C166.619 15.058 162.148 15.0229 161.747 15.1335C161.553 15.1867 160.774 17.8122 160.411 18.0682C160.131 18.2647 158.681 18.3099 158.397 18.1425C157.978 17.8961 158.694 17.1725 158.716 17.119C160.209 13.3569 161.907 9.68817 163.465 5.95643C163.686 5.69839 165.077 5.68293 165.417 5.78609C165.9 5.93324 165.747 6.35894 165.915 6.66722ZM162.616 13.362C162.749 13.4975 165.89 13.362 166.42 13.362C166.438 13.362 166.744 13.1265 166.582 13.0439L164.717 8.66702C164.075 8.78771 164.302 9.15634 164.108 9.58917C163.888 10.0788 162.426 13.1696 162.616 13.362Z" fill="#8D8D8D"/>
<path d="M7.76097 14.5899C8.27883 15.0552 11.0843 17.9819 11.3292 18.0158C11.7638 18.0761 15.2607 13.8687 15.5562 13.8399C15.8773 13.8087 18.367 16.1664 18.3628 16.3573C18.3524 16.8492 12.0813 22.5454 11.3307 23.2428L4.28906 16.3567C4.78432 16.2024 6.63904 13.8527 6.81711 13.8408C7.38254 13.803 7.45596 14.3155 7.76097 14.5899Z" fill="#8D8D8D"/>
<path d="M11.7932 1.32611C13.9384 3.37852 16.0425 5.41755 18.1369 7.52704C18.2159 7.64774 18.2347 7.78031 18.2195 7.92153C18.2034 8.07017 16.2381 9.97156 16.1044 10.0394C15.8731 10.1565 15.8059 10.1238 15.5752 10.0968C14.9928 10.0287 11.4683 5.7065 11.254 5.91727C11.2418 5.92916 11.265 6.09267 11.1205 6.2315C9.85706 7.44856 8.61592 8.69028 7.40808 9.95907C7.13339 10.1559 6.89913 10.1238 6.59888 10.015C6.46154 9.96502 4.53904 8.12695 4.49118 7.98872C4.42637 7.80142 4.4234 7.69887 4.52685 7.52675L11.2546 0.737194C11.4169 0.658118 11.6731 1.21136 11.7932 1.32611Z" fill="#8D8D8D"/>
<path d="M128.385 7.63083C128.273 7.81217 127.619 8.83273 127.546 8.84313C127.247 8.88624 125.745 7.81009 125.125 7.70723C123.649 7.46227 121.505 7.93376 122.344 9.84526C122.721 10.7047 125.553 11.0924 126.54 11.4732C128.787 12.3404 129.759 14.4647 128.452 16.6444C126.558 19.4679 121.78 18.3721 119.573 16.5784C119.372 16.2264 120.389 15.1113 120.67 15.0492C121.364 14.8955 121.499 15.4517 121.985 15.6975C123.165 16.2956 125.532 16.8843 126.486 15.6847C127.661 14.2073 125.763 13.4682 124.603 13.0865C123.864 12.8434 123.03 12.8454 122.164 12.4503C120.16 11.5368 119.202 9.66005 120.388 7.64302C122.056 4.91459 126.255 5.40213 128.47 7.12575C128.678 7.38676 128.511 7.4266 128.385 7.63083Z" fill="#8D8D8D"/>
<path d="M44.1092 5.91602V17.9767L43.8664 18.2195H41.4379L41.1953 17.9767V5.91602H44.1092Z" fill="#8D8D8D"/>
<path d="M22.7318 12.2168L20.0792 14.6542C19.6972 14.0135 17.4575 12.4445 17.5496 11.8375L20.0682 9.50407C20.3105 9.48029 22.7999 11.9793 22.7318 12.2168Z" fill="#8D8D8D"/>
<path d="M2.94063 9.70055C3.1401 9.83819 5.11433 11.8166 5.10422 11.9733C5.07955 12.358 2.7798 14.6443 2.59014 14.6125C2.3428 14.5709 0.0433485 12.3131 0.110831 12.0116L2.50333 9.54774C2.66594 9.45975 2.81548 9.61404 2.94063 9.70055Z" fill="#8D8D8D"/>
<path d="M11.6771 9.70035C11.892 10.1151 13.8451 11.7249 13.8421 11.9752C13.8377 12.3483 11.5228 14.6441 11.3254 14.6165C11.1378 14.5903 8.74203 12.2588 8.80594 11.8369C8.82437 11.7148 9.17814 11.6577 9.31399 11.515C9.68589 11.1247 9.86753 11.0587 10.1178 10.8235C10.4755 10.4879 11.2303 9.19319 11.6771 9.70035Z" fill="#8D8D8D"/>
</g>
<defs>
<clipPath id="clip0_3536_47493">
<rect width="195" height="24" fill="white" transform="translate(0 0.0185547)"/>
</clipPath>
</defs>
</svg>
