<svg width="65" height="17" viewBox="0 0 65 17" fill="none" xmlns="http://www.w3.org/2000/svg">
<g opacity="0.5" clip-path="url(#clip0_3008_3601)">
<path d="M11.4175 12.1095L8.50141 13.3786V13.2571C7.9209 13.4056 7.32689 13.4866 6.71938 13.5136C3.97883 13.4866 1.80529 12.0555 1.77829 10.3545V9.71999C2.66931 11.0295 4.51884 11.907 6.71938 11.8665C7.44839 11.8935 8.1639 11.799 8.86592 11.61L9.12242 10.9755C8.33941 11.2185 7.52939 11.3535 6.71938 11.3535C3.97883 11.367 1.80529 9.93599 1.77829 8.19446V7.68145C2.66931 8.89647 4.50534 9.76049 6.71938 9.71999C7.6779 9.77399 8.63641 9.59849 9.50043 9.20698L9.62193 8.57247C8.71741 9.01798 7.7184 9.24748 6.70588 9.20698C3.96533 9.24748 1.79179 7.81646 1.76479 6.04792V5.53491C2.65581 6.77694 4.50534 7.64095 6.70588 7.68145C7.8939 7.64095 9.06842 7.34395 10.1349 6.80394L10.2564 6.04792C9.37893 6.69594 8.0829 7.12794 6.71938 7.18194C3.96533 7.11444 1.79179 5.68342 1.76479 3.88789C1.79179 2.18686 3.96533 0.742328 6.70588 0.728828C8.33941 0.755828 9.85143 1.33634 10.7559 2.25436L10.8505 2.38936H11.485L11.3905 2.24086C10.4859 1.02583 8.69041 0.21582 6.69238 0.21582C3.66832 0.21582 1.23828 1.88985 1.23828 3.88789V10.476C1.34628 12.4335 3.70883 14.0266 6.69238 14.0266C8.69041 14.0131 10.4589 13.2301 11.4175 12.1095Z" fill="white"/>
<path d="M10.226 16.5786L11.252 12.2316L8.30897 13.5141L10.1045 5.96745H6.64844L7.53945 2.25488H18.5421L17.6511 5.96745H14.0736L13.3041 8.01948L17.2731 6.35896L10.226 16.5786ZM12.0215 11.327L11.5085 13.8786L15.7341 7.47947L12.278 9.0185L13.8171 5.44094H17.2731L17.9076 2.75439H7.93096L7.29645 5.44094H10.7525L9.09198 12.5961L12.0215 11.327Z" fill="white"/>
<path d="M25.3743 4.73835C25.3743 4.92735 25.3203 5.10285 25.2528 5.26486C25.1718 5.42686 25.0638 5.57536 24.9288 5.69686C24.6183 5.93987 24.2403 6.07487 23.8488 6.04787C23.6328 6.06137 23.4168 6.02087 23.2143 5.93987C23.0118 5.85887 22.8363 5.72387 22.6878 5.56186C22.4043 5.23786 22.2693 4.77885 22.2693 4.19834V3.96883C22.2558 3.63133 22.3233 3.30732 22.4583 2.99682C22.5798 2.72681 22.7688 2.51081 23.0118 2.3488C23.3088 2.1868 23.6463 2.1058 23.9838 2.1328C24.3213 2.1598 24.6453 2.2813 24.9153 2.48381C25.1988 2.74031 25.3608 3.10482 25.3878 3.48283H24.6048C24.6048 3.28032 24.5373 3.09132 24.4023 2.94282C24.2538 2.82131 24.0513 2.76731 23.8623 2.78081C23.7543 2.76731 23.6328 2.79431 23.5248 2.84832C23.4168 2.90232 23.3358 2.96982 23.2683 3.06432C23.1333 3.25332 23.0658 3.55033 23.0658 3.94183V4.22534C23.0658 4.64385 23.1333 4.94085 23.2548 5.12985C23.3223 5.22436 23.4033 5.30536 23.5113 5.34586C23.6193 5.39986 23.7273 5.41336 23.8488 5.41336C24.0513 5.42686 24.2403 5.37286 24.3888 5.25136C24.5238 5.11635 24.5913 4.92735 24.5913 4.73835H25.3743Z" fill="white"/>
<path d="M29.0343 4.1846C29.0478 4.52211 28.9803 4.85962 28.8318 5.17012C28.7103 5.44013 28.5078 5.66963 28.2648 5.83163C28.0083 5.98014 27.7113 6.06114 27.4143 6.06114C27.1173 6.06114 26.8203 5.98014 26.5638 5.83163C26.3073 5.66963 26.1048 5.45363 25.9833 5.18362C25.8483 4.87312 25.7673 4.54911 25.7808 4.2116V4.0226C25.7673 3.6851 25.8483 3.34759 25.9833 3.02358C26.1048 2.75358 26.3073 2.52407 26.5638 2.36207C26.8203 2.21357 27.1173 2.13257 27.4143 2.13257C27.7113 2.13257 28.0083 2.21357 28.2648 2.36207C28.5213 2.52407 28.7103 2.75358 28.8453 3.02358C28.9803 3.33409 29.0613 3.67159 29.0478 4.0091V4.1846H29.0343ZM28.2378 4.0091C28.2378 3.60409 28.1703 3.30709 28.0218 3.09108C27.9543 2.99658 27.8598 2.91558 27.7518 2.86158C27.6438 2.80758 27.5223 2.78058 27.4143 2.78058C27.2928 2.78058 27.1713 2.80758 27.0768 2.86158C26.9688 2.91558 26.8743 2.99658 26.8068 3.09108C26.6583 3.29359 26.5908 3.60409 26.5908 3.9956V4.1846C26.5773 4.49511 26.6448 4.81912 26.8068 5.08912C26.8743 5.18362 26.9688 5.26462 27.0768 5.31862C27.1848 5.37262 27.3063 5.39963 27.4278 5.39963C27.5493 5.39963 27.6708 5.37262 27.7788 5.31862C27.8868 5.26462 27.9813 5.18362 28.0488 5.08912C28.1838 4.88662 28.2648 4.57611 28.2648 4.1846V4.0091H28.2378Z" fill="white"/>
<path d="M30.4373 5.9944H29.6543V2.17383H30.4373V5.9944Z" fill="white"/>
<path d="M34.2693 5.9944H33.4863L31.9607 3.48335V5.9944H31.1777V2.17383H31.9607L33.4998 4.68487V2.17383H34.2828V5.9944H34.2693Z" fill="white"/>
<path d="M37.7517 2.82201H36.5772V6.00807H35.8077V2.82201H34.6602V2.1875H37.7652V2.82201H37.7517Z" fill="white"/>
<path d="M40.5039 4.34754H38.9918V5.37356H40.7604V6.00807H38.1953V2.1875H40.7469V2.82201H38.9783V3.72653H40.4904V4.34754H40.5039Z" fill="white"/>
<path d="M42.0174 5.35988H43.6914V5.9944H41.2344V2.17383H42.0174V5.35988Z" fill="white"/>
<path d="M46.4355 4.34754H44.9235V5.37356H46.692V6.00807H44.127V2.1875H46.6785V2.82201H44.91V3.72653H46.422V4.34754H46.4355Z" fill="white"/>
<path d="M50.1849 5.52112C50.0229 5.71012 49.8204 5.84513 49.5909 5.91263C49.3209 6.00713 49.0239 6.06113 48.7269 6.04763C48.4163 6.06113 48.1193 5.98013 47.8628 5.83162C47.6063 5.68312 47.4038 5.46712 47.2823 5.19711C47.1338 4.90011 47.0663 4.5626 47.0798 4.2251V3.96859C47.0663 3.63109 47.1338 3.29358 47.2688 2.98308C47.3903 2.71307 47.5793 2.49707 47.8223 2.34856C48.0788 2.20006 48.3758 2.11906 48.6728 2.13256C49.1319 2.13256 49.4829 2.24056 49.7394 2.45656C50.0094 2.69957 50.1714 3.03708 50.1984 3.40158H49.4289C49.4154 3.21258 49.3344 3.05058 49.1994 2.91557C49.0644 2.80757 48.8889 2.75357 48.6998 2.76707C48.5783 2.76707 48.4568 2.78057 48.3488 2.83457C48.2408 2.88857 48.1463 2.96957 48.0788 3.06408C47.9438 3.26658 47.8628 3.56359 47.8628 3.95509V4.1981C47.8628 4.6031 47.9438 4.90011 48.0923 5.10261C48.1733 5.21061 48.2678 5.29162 48.3893 5.34562C48.5108 5.39962 48.6323 5.42662 48.7674 5.41312C49.0644 5.41312 49.2669 5.34562 49.4019 5.22411V4.5626H48.6863V3.98209H50.1849V5.52112Z" fill="white"/>
<path d="M52.2224 4.60404H51.6014V6.00807H50.8184V2.1875H52.2359C52.6814 2.1875 53.0324 2.282 53.2754 2.4845C53.3969 2.59251 53.4914 2.71401 53.5589 2.86251C53.6264 3.01101 53.6534 3.17302 53.6399 3.33502C53.6534 3.56452 53.5859 3.79403 53.4644 3.98303C53.3429 4.17204 53.1539 4.30704 52.9514 4.40154L53.7749 5.96757V6.00807H52.9244L52.2224 4.60404ZM51.6014 3.95603H52.2359C52.3979 3.96953 52.5734 3.91553 52.6949 3.80753C52.7489 3.75353 52.7894 3.68603 52.8164 3.61853C52.8434 3.55102 52.8569 3.47002 52.8569 3.38902C52.8569 3.30802 52.8434 3.24052 52.8299 3.15952C52.8029 3.09202 52.7624 3.02451 52.7084 2.95701C52.6409 2.90301 52.5734 2.86251 52.4924 2.83551C52.4114 2.80851 52.3304 2.79501 52.2359 2.80851H51.6014V3.95603Z" fill="white"/>
<path d="M56.3963 5.21138H55.0193L54.7628 5.9944H53.9258L55.3433 2.17383H56.0723L57.5033 5.9944H56.6663L56.3963 5.21138ZM55.2353 4.57687H56.1938L55.7078 3.14585L55.2353 4.57687Z" fill="white"/>
<path d="M58.6483 4.65804V6.00807H57.8652V2.1875H59.3503C59.6068 2.1875 59.8633 2.2415 60.1063 2.3495C60.3088 2.444 60.4843 2.60601 60.6058 2.79501C60.7273 2.99751 60.7813 3.22702 60.7813 3.45652C60.7948 3.61853 60.7543 3.79403 60.6868 3.94253C60.6193 4.09103 60.5248 4.22604 60.3898 4.33404C60.1333 4.55004 59.7823 4.65804 59.3233 4.65804H58.6483ZM58.6483 4.01003H59.3503C59.5258 4.02353 59.6878 3.96953 59.8228 3.86153C59.8768 3.80753 59.9173 3.74003 59.9578 3.67253C59.9848 3.60503 59.9983 3.52402 59.9983 3.44302C59.9983 3.36202 59.9848 3.28102 59.9578 3.20002C59.9308 3.11902 59.8903 3.05152 59.8363 2.98402C59.7823 2.93001 59.7013 2.87601 59.6203 2.84901C59.5393 2.82201 59.4583 2.80851 59.3773 2.80851H58.6617V4.01003H58.6483Z" fill="white"/>
<path d="M64.4273 5.9944H63.6443V4.36087H62.1053V5.9944H61.3223V2.17383H62.1053V3.72636H63.6443V2.17383H64.4273V5.9944Z" fill="white"/>
<path d="M24.7249 10.0839H23.7528V12.7299H23.0913V10.0839H22.1328V9.55737H24.7249V10.0839Z" fill="white"/>
<path d="M25.6697 10.6242C25.7507 10.5297 25.8452 10.4487 25.9532 10.3947C26.0612 10.3407 26.1827 10.3137 26.3042 10.3137C26.8172 10.3137 27.0737 10.6107 27.0872 11.2048V12.7168H26.4527V11.2183C26.4662 11.1103 26.4257 11.0023 26.3717 10.9213C26.3312 10.8808 26.2907 10.8538 26.2367 10.8403C26.1827 10.8268 26.1287 10.8133 26.0747 10.8268C25.9937 10.8268 25.9127 10.8403 25.8452 10.8808C25.7777 10.9213 25.7102 10.9753 25.6697 11.0428V12.7168H25.0352V9.35522H25.6697V10.6242Z" fill="white"/>
<path d="M28.6392 12.7854C28.4772 12.7854 28.3287 12.7719 28.1802 12.7179C28.0317 12.6639 27.8967 12.5829 27.7887 12.4749C27.6807 12.3669 27.5862 12.2319 27.5322 12.0833C27.4782 11.9348 27.4512 11.7863 27.4512 11.6243V11.5568C27.4512 11.3408 27.4917 11.1248 27.5862 10.9223C27.6672 10.7468 27.8022 10.5983 27.9777 10.4903C28.1532 10.3823 28.3557 10.3283 28.5582 10.3418C28.7067 10.3283 28.8417 10.3553 28.9767 10.4093C29.1117 10.4633 29.2332 10.5443 29.3277 10.6523C29.5167 10.8548 29.6112 11.1518 29.6112 11.5163V11.7728H28.1127C28.1262 11.9213 28.1937 12.0428 28.3017 12.1509C28.4097 12.2454 28.5447 12.2994 28.6932 12.2859C28.8012 12.2859 28.9092 12.2724 29.0172 12.2184C29.1117 12.1779 29.2062 12.0968 29.2737 12.0158L29.5842 12.3669C29.4897 12.5019 29.3547 12.6099 29.2062 12.6774C29.0172 12.7449 28.8282 12.7854 28.6392 12.7854ZM28.5717 10.8413C28.5177 10.8413 28.4637 10.8548 28.4097 10.8683C28.3557 10.8953 28.3152 10.9223 28.2747 10.9628C28.1937 11.0708 28.1397 11.1923 28.1262 11.3273H29.0037V11.2733C29.0037 11.1518 28.9632 11.0438 28.8957 10.9493C28.8552 10.9088 28.8012 10.8818 28.7472 10.8548C28.6797 10.8413 28.6257 10.8413 28.5717 10.8413Z" fill="white"/>
<path d="M31.2553 12.7299V10.8264H30.9043V10.3674H31.2553V10.1649C31.2418 10.0569 31.2688 9.93538 31.3093 9.82738C31.3498 9.71938 31.4038 9.62488 31.4848 9.54388C31.6603 9.39537 31.8898 9.31437 32.1193 9.32787C32.2273 9.32787 32.3353 9.34137 32.4433 9.36837V9.85438C32.3758 9.84088 32.3218 9.82738 32.2543 9.84088C32.0113 9.84088 31.9033 9.94888 31.9033 10.1784V10.3674H32.3758V10.8264H31.8898V12.7299H31.2553Z" fill="white"/>
<path d="M34.1067 12.5011C34.0257 12.5956 33.9312 12.6766 33.8232 12.7171C33.7152 12.7711 33.5937 12.7846 33.4722 12.7846C33.3642 12.7981 33.2562 12.7711 33.1617 12.7441C33.0672 12.7036 32.9727 12.6496 32.8917 12.5686C32.7432 12.3931 32.6757 12.1636 32.6892 11.9341V10.3816H33.3237V11.9071C33.3237 12.1501 33.4317 12.2716 33.6612 12.2716C33.7422 12.2851 33.8367 12.2581 33.9177 12.2311C33.9987 12.1906 34.0662 12.1366 34.1067 12.0556V10.3816H34.7412V12.7441H34.1472L34.1067 12.5011Z" fill="white"/>
<path d="M35.9546 9.7876V10.3681H36.3596V10.8271H35.9546V12.0016C35.9546 12.0691 35.9681 12.1366 36.0086 12.1906C36.0356 12.2176 36.0626 12.2311 36.1031 12.2446C36.1301 12.2581 36.1706 12.2581 36.2111 12.2581C36.2786 12.2581 36.3326 12.2581 36.4001 12.2446V12.7171C36.2786 12.7577 36.1436 12.7712 36.0221 12.7712C35.5766 12.7712 35.3471 12.5416 35.3471 12.0961V10.8271H34.9961V10.3681H35.3471V9.7876H35.9546Z" fill="white"/>
<path d="M38.1302 12.5011C38.0491 12.5956 37.9546 12.6766 37.8466 12.7171C37.7386 12.7711 37.6171 12.7846 37.4956 12.7846C37.3876 12.7981 37.2796 12.7711 37.1851 12.7441C37.0906 12.7036 36.9961 12.6496 36.9151 12.5686C36.7666 12.3931 36.6991 12.1636 36.7126 11.9341V10.3816H37.3471V11.9071C37.3471 12.1501 37.4551 12.2716 37.6846 12.2716C37.7656 12.2851 37.8601 12.2581 37.9411 12.2311C38.0221 12.1906 38.0896 12.1366 38.1302 12.0556V10.3816H38.7647V12.7441H38.1706L38.1302 12.5011Z" fill="white"/>
<path d="M40.5436 10.962C40.4626 10.9485 40.3951 10.9485 40.314 10.9485C40.071 10.9485 39.9225 11.0295 39.8415 11.1915V12.744H39.207V10.3815H39.801L39.8145 10.665C39.8685 10.5705 39.936 10.4895 40.0305 10.422C40.125 10.368 40.233 10.3275 40.3411 10.341C40.4086 10.341 40.4761 10.3545 40.5436 10.368V10.962Z" fill="white"/>
<path d="M41.9009 12.7854C41.7389 12.7854 41.5904 12.7719 41.4419 12.7179C41.2934 12.6639 41.1584 12.5829 41.0504 12.4749C40.9424 12.3669 40.8479 12.2319 40.7939 12.0833C40.7399 11.9348 40.7129 11.7863 40.7129 11.6243V11.5568C40.7129 11.3408 40.7534 11.1248 40.8479 10.9223C40.9289 10.7468 41.0639 10.5983 41.2394 10.4903C41.4149 10.3823 41.6174 10.3283 41.8199 10.3418C41.9684 10.3283 42.1034 10.3553 42.2384 10.4093C42.3734 10.4633 42.4949 10.5443 42.5894 10.6523C42.7784 10.8548 42.8729 11.1518 42.8729 11.5163V11.7728H41.3609C41.3744 11.9213 41.4419 12.0428 41.5499 12.1509C41.6579 12.2454 41.7929 12.2994 41.9414 12.2859C42.0494 12.2859 42.1574 12.2724 42.2654 12.2184C42.3599 12.1779 42.4544 12.0968 42.5219 12.0158L42.8324 12.3669C42.7379 12.5019 42.6029 12.6099 42.4544 12.6774C42.2654 12.7449 42.0899 12.7854 41.9009 12.7854ZM41.8199 10.8413C41.7659 10.8413 41.7119 10.8548 41.6579 10.8683C41.6039 10.8953 41.5634 10.9223 41.5229 10.9628C41.4419 11.0708 41.3879 11.1923 41.3744 11.3273H42.2519V11.2733C42.2519 11.1518 42.2114 11.0438 42.1439 10.9493C42.1034 10.9088 42.0494 10.8818 41.9954 10.8548C41.9414 10.8413 41.8874 10.8413 41.8199 10.8413Z" fill="white"/>
<path d="M44.2461 11.5294C44.2461 11.3134 44.2866 11.0974 44.3811 10.9084C44.4621 10.7329 44.5971 10.5844 44.7726 10.4764C44.9481 10.3684 45.1506 10.3279 45.3666 10.3279C45.5151 10.3279 45.6501 10.3414 45.7851 10.3954C45.9201 10.4494 46.0416 10.5169 46.1496 10.6249C46.3656 10.8409 46.4736 11.1244 46.4871 11.4214V11.5834C46.5006 11.9074 46.3926 12.2179 46.1901 12.4609C45.9741 12.6769 45.6771 12.7849 45.3801 12.7849C45.0696 12.7849 44.7861 12.6634 44.5701 12.4609C44.3541 12.2179 44.2461 11.8939 44.2596 11.5699V11.5294H44.2461ZM44.8671 11.5834C44.8536 11.7589 44.8941 11.9479 44.9886 12.0964C45.0291 12.1504 45.0831 12.1909 45.1506 12.2314C45.2181 12.2584 45.2856 12.2719 45.3531 12.2854C45.4206 12.2854 45.4881 12.2719 45.5556 12.2449C45.6231 12.2179 45.6771 12.1639 45.7176 12.1099C45.8121 11.9344 45.8661 11.7454 45.8526 11.5429C45.8661 11.3674 45.8121 11.1784 45.7176 11.0299C45.6771 10.9759 45.6231 10.9219 45.5556 10.8949C45.4881 10.8679 45.4206 10.8544 45.3531 10.8544C45.2856 10.8544 45.2181 10.8679 45.1506 10.8949C45.0831 10.9219 45.0291 10.9759 44.9886 11.0299C44.9076 11.1919 44.8536 11.3809 44.8671 11.5834Z" fill="white"/>
<path d="M47.0385 12.7299V10.8264H46.6875V10.3674H47.0385V10.1649C47.025 10.0569 47.052 9.93538 47.0925 9.82738C47.133 9.71938 47.187 9.62488 47.268 9.54388C47.4435 9.39537 47.673 9.31437 47.9025 9.32787C48.0105 9.32787 48.1185 9.34137 48.2265 9.36837V9.85438C48.159 9.84088 48.105 9.82738 48.0375 9.84088C47.7945 9.84088 47.6865 9.94888 47.6865 10.1784V10.3674H48.159V10.8264H47.6865V12.7299H47.0385Z" fill="white"/>
<path d="M50.1855 10.3688L50.199 10.6388C50.28 10.5443 50.388 10.4633 50.496 10.4093C50.6175 10.3553 50.739 10.3283 50.874 10.3418C51.009 10.3283 51.1305 10.3553 51.2385 10.4228C51.3465 10.4903 51.441 10.5848 51.495 10.7063C51.576 10.5848 51.684 10.4903 51.8055 10.4363C51.927 10.3688 52.062 10.3418 52.2105 10.3553C52.3185 10.3418 52.4265 10.3688 52.521 10.3958C52.6155 10.4363 52.71 10.4903 52.7775 10.5713C52.9125 10.7738 52.98 11.0033 52.9665 11.2463V12.7584H52.332V11.2463C52.3455 11.1383 52.3185 11.0438 52.251 10.9493C52.2105 10.9088 52.17 10.8818 52.116 10.8683C52.062 10.8548 52.0215 10.8413 51.9675 10.8548C51.8865 10.8548 51.792 10.8683 51.7245 10.9223C51.657 10.9763 51.603 11.0438 51.576 11.1248V12.7449H50.9415V11.2328C50.955 11.1248 50.928 11.0168 50.8605 10.9358C50.82 10.8953 50.7795 10.8818 50.739 10.8548C50.685 10.8413 50.6445 10.8278 50.5905 10.8413C50.5095 10.8413 50.4285 10.8548 50.361 10.8953C50.2935 10.9358 50.2395 10.9898 50.199 11.0708V12.7449H49.5645V10.3823H50.1855V10.3688Z" fill="white"/>
<path d="M53.3574 11.5294C53.3574 11.3134 53.3979 11.0974 53.4924 10.9084C53.5734 10.7329 53.7084 10.5844 53.8839 10.4764C54.0594 10.3684 54.2619 10.3279 54.4779 10.3279C54.6264 10.3279 54.7614 10.3414 54.8964 10.3954C55.0315 10.4494 55.153 10.5169 55.261 10.6249C55.477 10.8409 55.585 11.1244 55.5985 11.4214V11.5834C55.612 11.9074 55.504 12.2179 55.3015 12.4609C55.0855 12.6769 54.7884 12.7849 54.4914 12.7849C54.1944 12.7849 53.8974 12.6634 53.6814 12.4609C53.4654 12.2179 53.3574 11.8939 53.3709 11.5699V11.5294H53.3574ZM53.9919 11.5834C53.9784 11.7589 54.0189 11.9479 54.1134 12.0964C54.1539 12.1504 54.2079 12.1909 54.2754 12.2314C54.3429 12.2584 54.4104 12.2719 54.4779 12.2854C54.5454 12.2989 54.6129 12.2719 54.6804 12.2449C54.7479 12.2179 54.8019 12.1639 54.8424 12.1099C54.9369 11.9344 54.991 11.7454 54.9775 11.5429C54.991 11.3674 54.9369 11.1784 54.8424 11.0299C54.8019 10.9759 54.7479 10.9219 54.6804 10.8949C54.6129 10.8679 54.5454 10.8544 54.4779 10.8544C54.4104 10.8544 54.3429 10.8679 54.2754 10.8949C54.2079 10.9219 54.1539 10.9759 54.1134 11.0299C54.0189 11.1919 53.9784 11.3809 53.9919 11.5834Z" fill="white"/>
<path d="M56.5707 10.3681L56.5842 10.6381C56.6652 10.5301 56.7732 10.4491 56.8813 10.3951C57.0028 10.3411 57.1243 10.3141 57.2593 10.3141C57.3673 10.3006 57.4618 10.3276 57.5698 10.3546C57.6643 10.3951 57.7588 10.4491 57.8263 10.5301C57.9613 10.7191 58.0288 10.9486 58.0153 11.1917V12.7172H57.3808V11.2052C57.3943 11.0972 57.3538 10.9892 57.2998 10.9081C57.2593 10.8811 57.2188 10.8541 57.1648 10.8271C57.1108 10.8136 57.0568 10.8001 57.0163 10.8136C56.9353 10.8136 56.8542 10.8271 56.7867 10.8676C56.7192 10.9081 56.6517 10.9622 56.6247 11.0432V12.7172H55.9902V10.3546H56.5707V10.3681Z" fill="white"/>
<path d="M59.5943 12.7854C59.4323 12.7854 59.2838 12.7719 59.1353 12.7179C58.9868 12.6639 58.8518 12.5829 58.7438 12.4749C58.6358 12.3669 58.5413 12.2319 58.4873 12.0833C58.4333 11.9348 58.4062 11.7863 58.4062 11.6243V11.5568C58.4062 11.3408 58.4468 11.1248 58.5413 10.9223C58.6223 10.7468 58.7573 10.5983 58.9328 10.4903C59.1083 10.3823 59.3108 10.3283 59.5133 10.3418C59.6618 10.3283 59.7968 10.3553 59.9318 10.4093C60.0668 10.4633 60.1883 10.5443 60.2828 10.6523C60.4718 10.8548 60.5663 11.1518 60.5663 11.5163V11.7728H59.0543C59.0678 11.9213 59.1353 12.0428 59.2433 12.1509C59.3513 12.2454 59.4863 12.2994 59.6348 12.2859C59.7428 12.2859 59.8508 12.2724 59.9588 12.2184C60.0533 12.1779 60.1478 12.0968 60.2153 12.0158L60.5258 12.3669C60.4313 12.5019 60.2963 12.6099 60.1478 12.6774C59.9588 12.7449 59.7698 12.7854 59.5943 12.7854ZM59.5133 10.8413C59.4593 10.8413 59.4053 10.8548 59.3513 10.8683C59.2973 10.8953 59.2568 10.9223 59.2163 10.9628C59.1353 11.0708 59.0813 11.1923 59.0678 11.3273H59.9453V11.2733C59.9453 11.1518 59.9048 11.0438 59.8373 10.9493C59.7968 10.9088 59.7428 10.8818 59.6888 10.8548C59.6348 10.8413 59.5673 10.8413 59.5133 10.8413Z" fill="white"/>
<path d="M61.7691 11.8387L62.2011 10.3672H62.8761L61.9311 13.0942L61.8771 13.2157C61.8231 13.3507 61.7286 13.4722 61.6071 13.5532C61.4856 13.6342 61.3371 13.6747 61.1886 13.6747C61.0941 13.6747 60.9996 13.6612 60.9051 13.6342V13.1617H60.9996C61.0941 13.1617 61.1886 13.1482 61.2696 13.1077C61.3371 13.0672 61.3776 12.9997 61.4046 12.9322L61.4856 12.7432L60.6621 10.3672H61.3371L61.7691 11.8387Z" fill="white"/>
</g>
<defs>
<clipPath id="clip0_3008_3601">
<rect width="63.9911" height="16.7403" fill="white" transform="translate(0.839844)"/>
</clipPath>
</defs>
</svg>
