<svg width="43" height="23" viewBox="0 0 43 23" fill="none" xmlns="http://www.w3.org/2000/svg">
<g clip-path="url(#clip0_429_639)">
<path d="M42.0849 11.2752L41.7052 11.3777C41.3446 10.1477 40.739 9.62073 39.8849 9.62073C39.285 9.62073 38.8599 10.0156 38.8599 10.6457C38.8599 11.2456 39.3534 11.5683 40.695 12.11C41.93 12.564 42.4421 13.1198 42.4421 14.0917C42.4421 15.5704 41.2804 16.4978 39.3724 16.4978C38.4548 16.4978 37.4153 16.2928 36.8296 16.0586L36.7563 14.004L37.117 13.9307C37.6587 15.3365 38.3519 15.8684 39.2543 15.8684C40.0352 15.8684 40.4452 15.3266 40.4452 14.7701C40.4452 14.2135 40.1278 13.8916 38.9077 13.4528C37.746 13.072 36.9507 12.5743 36.9507 11.3393C36.9507 10.1245 38.0193 9.09418 39.8359 9.09418C40.695 9.09418 41.4759 9.24072 41.9884 9.47495L42.0849 11.2752ZM34.2264 11.9194C34.2705 10.9532 34.0746 9.55733 33.2796 9.55733C32.4645 9.55733 32.0154 10.8606 32.001 11.9783L34.2264 11.9194ZM33.4747 9.08886C35.4754 9.08886 36.442 10.5531 36.4568 12.476H31.9528C31.9376 14.1794 32.8411 15.4675 34.5297 15.4675C35.2662 15.4675 35.6914 15.2625 36.1402 14.9405L36.3501 15.1748C35.8566 15.8483 34.8316 16.4921 33.4649 16.4921C31.2687 16.4921 29.746 14.9842 29.746 12.856C29.741 10.9331 30.9904 9.0881 33.4747 9.0881M26.9837 12.651C26.9397 11.1324 26.3839 9.92292 25.3145 9.92292C25.0601 9.92292 24.8654 9.96696 24.5628 10.0695L24.6501 15.9211C24.7576 15.9652 25.0108 15.9944 25.1919 15.9944C26.2313 15.9944 26.983 14.5252 26.983 12.6514M29.2133 12.5375C29.2133 14.9436 27.6948 16.4955 25.1186 16.4955C24.201 16.4955 23.2493 16.349 22.4247 16.1588C22.498 15.1926 22.498 9.20883 22.4247 8.08131C22.3514 7.49554 22.1855 7.21726 21.7315 7.1588L21.4289 7.12957V6.86117L24.6065 6.27539C24.5913 6.76892 24.5624 8.08131 24.5624 9.61845C25.119 9.34018 25.6311 9.17922 26.3239 9.17922C27.9784 9.17922 29.2092 10.585 29.2092 12.5371M21.123 11.2304C20.142 10.5861 19.0881 10.8644 18.8778 11.2304C18.7852 12.3579 18.8045 14.0905 18.893 14.9834C18.937 15.5692 19.1029 15.8179 19.5566 15.8619L20.1564 15.9204V16.3012H15.668V15.9204L16.0146 15.8619C16.4489 15.8179 16.6004 15.5696 16.6296 14.9834C16.737 14.0317 16.7663 12.0356 16.6296 10.9373C16.6004 10.3079 16.4489 10.0733 16.0146 10.0148L15.668 9.97075V9.70729L18.8744 9.09228L18.8303 10.7323C19.582 9.03382 21.0755 8.82881 21.8856 9.28286L21.123 11.2304ZM10.6006 12.8021C10.6006 14.5932 11.0839 16.0574 12.0599 16.0574C13.1142 16.0574 13.4167 14.6224 13.4167 12.8021C13.4167 10.9817 12.9483 9.56151 11.9574 9.56151C10.8945 9.56151 10.6006 10.9525 10.6006 12.8021ZM15.6862 12.7728C15.6862 14.8274 14.3294 16.4933 11.9088 16.4933C9.52701 16.4933 8.32661 14.9071 8.32661 12.8279C8.32661 10.7877 9.68342 9.08924 12.104 9.08924C14.4858 9.08924 15.6862 10.6852 15.6862 12.769M9.4526 9.2354L8.95908 9.38194C8.5392 7.94199 7.7974 7.12235 6.51879 7.12235H4.84953C4.7569 8.07903 4.71287 9.55771 4.7569 11.1541L5.86923 11.0956C6.62091 11.0956 6.9379 10.5539 7.12203 9.76689H7.5419V13.0955H7.11481C6.93411 12.2907 6.62129 11.744 5.86202 11.6996L4.74969 11.6844C4.74969 12.8704 4.76488 13.8855 4.84232 14.5006C4.91559 15.379 5.1597 15.7792 5.80394 15.8623L6.40907 15.9208V16.3015H0.960938V15.9208L1.41498 15.8623C2.04441 15.775 2.30333 15.379 2.37659 14.5006C2.49808 13.0655 2.52845 10.0007 2.37659 8.29732C2.30333 7.3862 2.04479 7.02365 1.41498 6.95038L0.960938 6.87711V6.48229H9.44197L9.4526 9.2354Z" fill="#080808"/>
</g>
<defs>
<clipPath id="clip0_429_639">
<rect width="41.4147" height="22.7781" fill="white" transform="translate(0.84375)"/>
</clipPath>
</defs>
</svg>
