<svg width="65" height="62" viewBox="0 0 65 62" fill="none" xmlns="http://www.w3.org/2000/svg">
<path d="M26.5126 13.5335H25.6632C24.915 13.5335 24.2448 13.8186 23.7257 14.3585C23.2066 14.8983 22.9459 15.5807 22.9739 16.3301L23.3979 28.1147C23.4503 29.5745 24.6323 30.7175 26.0873 30.7175C27.5435 30.7175 28.7255 29.5745 28.7779 28.1147L29.2019 16.3301C29.2287 15.5807 28.9692 14.8995 28.4488 14.3597C27.9297 13.8186 27.2595 13.5335 26.5126 13.5335ZM26.7526 28.0416C26.7404 28.4023 26.448 28.685 26.0873 28.685C25.7278 28.685 25.4354 28.4023 25.422 28.0416L24.9979 16.257C24.9906 16.0583 25.0466 15.9121 25.1843 15.7696C25.322 15.6258 25.4646 15.5648 25.6632 15.5648H26.5113C26.71 15.5648 26.8538 15.6258 26.9915 15.7696C27.1292 15.9121 27.184 16.0583 27.1779 16.257L26.7526 28.0416ZM64.1805 55.6613L57.186 48.8557C56.7705 48.4512 56.2221 48.2355 55.6421 48.2416C55.3923 48.2464 55.151 48.294 54.9244 48.3768L52.0778 45.6071C53.311 43.5416 54.0202 41.1264 54.0202 38.5492C54.0202 33.0925 50.8446 28.367 46.2495 26.1333L33.7666 4.45041C32.1642 1.66601 29.2933 0.00390625 26.0873 0.00390625C22.8825 0.00390625 20.0116 1.66601 18.4092 4.45041L1.21052 34.3245C-0.393092 37.1089 -0.393092 40.4331 1.21052 43.2163C2.81292 46.0006 5.68383 47.6628 8.88863 47.6628H29.9647C32.4847 50.5264 36.172 52.3371 40.2713 52.3371C43.392 52.3371 46.2726 51.2879 48.5818 49.5259L51.1992 52.0727C51.0518 52.3761 50.975 52.7124 50.9799 53.0597C50.9884 53.6422 51.2224 54.1857 51.6379 54.589L58.6312 61.3959C59.0528 61.8053 59.5975 62.0088 60.1434 62.0088C60.71 62.0088 61.2755 61.7882 61.7007 61.3495L64.2268 58.7394C65.0591 57.8779 65.0384 56.4973 64.1805 55.6613ZM53.3585 49.6843L52.5323 50.5385L50.1038 48.1758C50.3804 47.8918 50.646 47.5957 50.897 47.2887L53.3585 49.6843ZM8.88863 45.6314C6.41618 45.6314 4.20085 44.3483 2.96402 42.2012C1.72841 40.0529 1.72841 37.4878 2.96402 35.3407L20.1627 5.46668C21.3995 3.31837 23.6148 2.03523 26.0873 2.03523C28.561 2.03523 30.7751 3.31837 32.0119 5.46668L43.3164 25.1012C42.4817 24.9124 41.6202 24.799 40.7367 24.7698L30.2206 6.50367C29.3579 5.00485 27.8128 4.11043 26.0873 4.11043C24.3618 4.11043 22.8167 5.00485 21.954 6.50367L4.75652 36.3777C3.89256 37.8753 3.89256 39.6654 4.75652 41.163C5.61803 42.6618 7.16316 43.5562 8.88863 43.5562H27.4618C27.7445 44.28 28.0857 44.9734 28.4793 45.6314H8.88863ZM26.0873 35.2542C25.4597 35.2542 24.9504 34.7424 24.9504 34.1124C24.9504 33.4837 25.4597 32.9719 26.0873 32.9719C26.7148 32.9719 27.2254 33.4837 27.2254 34.1124C27.2254 34.7424 26.7148 35.2542 26.0873 35.2542ZM28.2734 31.8228C27.7043 31.2769 26.9342 30.9405 26.0873 30.9405C24.3435 30.9405 22.9239 32.3638 22.9239 34.1124C22.9239 35.8623 24.3435 37.2856 26.0873 37.2856C26.2567 37.2856 26.4224 37.2709 26.5845 37.2453C26.5443 37.6743 26.5235 38.1093 26.5235 38.5492C26.5235 39.5703 26.6356 40.5659 26.8465 41.5249H8.88863C7.88089 41.5249 7.01449 41.0229 6.51001 40.1479C6.00675 39.2718 6.00675 38.2689 6.51001 37.3928L23.7087 7.51873C24.2132 6.6438 25.0795 6.14176 26.0873 6.14176C27.095 6.14176 27.9626 6.6438 28.4659 7.51873L38.4629 24.8819C34.0834 25.4619 30.3486 28.1135 28.2734 31.8228ZM28.5488 38.5492C28.5488 32.0665 33.808 26.7914 40.2713 26.7914C46.7357 26.7914 51.995 32.0665 51.995 38.5492C51.995 45.0319 46.7357 50.3058 40.2713 50.3058C33.808 50.3058 28.5488 45.0319 28.5488 38.5492ZM62.7718 57.3247L60.247 59.9348C60.1934 59.9896 60.0971 59.9909 60.0423 59.9372L53.0478 53.1316C53.0137 53.0975 53.0064 53.0573 53.0051 53.0293C53.0051 53.0012 53.0112 52.9598 53.0453 52.9257L55.5702 50.3155C55.6031 50.2814 55.6445 50.2741 55.6726 50.2729C55.6726 50.2729 55.6738 50.2729 55.675 50.2729C55.7018 50.2729 55.742 50.2802 55.7749 50.3131L62.7694 57.1187C62.8242 57.1736 62.8255 57.2698 62.7718 57.3247ZM40.2713 28.4644C34.7268 28.4644 30.217 32.9877 30.217 38.5492C30.217 44.1095 34.7268 48.6327 40.2713 48.6327C45.8169 48.6327 50.328 44.1095 50.328 38.5492C50.328 32.9877 45.8169 28.4644 40.2713 28.4644ZM40.2713 46.6014C35.8442 46.6014 32.2422 42.9884 32.2422 38.5492C32.2422 34.1088 35.8442 30.4958 40.2713 30.4958C44.6995 30.4958 48.3015 34.1088 48.3015 38.5492C48.3015 42.9884 44.6995 46.6014 40.2713 46.6014Z" fill="#E6AE00"/>
</svg>
