<svg width="81" height="81" viewBox="0 0 81 81" fill="none" xmlns="http://www.w3.org/2000/svg">
<rect x="0.539062" y="0.126465" width="79.9158" height="79.9158" rx="39.9579" fill="url(#paint0_linear_3543_25033)"/>
<rect x="0.89583" y="0.483232" width="79.2023" height="79.2023" rx="39.6012" stroke="white" stroke-opacity="0.15" stroke-width="0.713534"/>
<mask id="mask0_3543_25033" style="mask-type:luminance" maskUnits="userSpaceOnUse" x="24" y="19" width="32" height="41">
<path d="M24.2656 19.6235H55.6313V59.6235H24.2656V19.6235Z" fill="white"/>
</mask>
<g mask="url(#mask0_3543_25033)">
<path d="M55.2311 24.5806C54.9916 24.1336 54.6419 23.7014 54.1922 23.2966C53.368 22.5541 52.2098 21.8952 50.7506 21.339C47.8513 20.234 44.0151 19.6265 39.9475 19.6265C35.88 19.6265 32.0437 20.234 29.1454 21.339C27.6852 21.8952 26.5279 22.5541 25.7038 23.2966C25.2541 23.7014 24.9044 24.1336 24.6649 24.5806C24.3996 25.0743 24.2656 25.5883 24.2656 26.1087V53.1397C24.2656 53.6601 24.3996 54.174 24.6649 54.6678C24.9044 55.1147 25.2541 55.5461 25.7038 55.9517C26.5279 56.6942 27.6852 57.3522 29.1454 57.9093C32.0437 59.0134 35.88 59.6219 39.9475 59.6219C44.0151 59.6219 47.8513 59.0134 50.7506 57.9093C52.2098 57.3522 53.368 56.6942 54.1922 55.9517C54.6419 55.5461 54.9916 55.1147 55.2311 54.6678C55.4964 54.174 55.6303 53.6601 55.6303 53.1397V26.1087C55.6303 25.5883 55.4954 25.0743 55.2311 24.5806ZM45.8066 42.0907V41.1545C48.5195 40.7223 50.8497 40.0009 52.5613 39.062C53.1359 38.7463 53.6076 38.4242 53.994 38.1021V44.129C53.994 44.9697 53.2074 45.6975 52.5476 46.1601C51.5903 46.8319 50.2256 47.4266 48.5791 47.8937V44.9101C48.5791 43.3719 47.3392 42.1173 45.8066 42.0907ZM31.3168 44.9101V47.8937C29.6694 47.4266 28.3047 46.8319 27.3475 46.1601C26.6876 45.6975 25.9011 44.9697 25.9011 44.129V38.1021C26.2875 38.4242 26.7592 38.7463 27.3337 39.062C29.0454 40.0009 31.3756 40.7223 34.0885 41.1545V42.0907C32.5558 42.1173 31.3168 43.3719 31.3168 44.9101ZM53.994 35.1193C53.994 35.9517 53.2056 36.8429 51.773 37.6294C50.277 38.4499 48.223 39.0923 45.8066 39.498V38.5793C45.8066 36.4418 44.0665 34.7036 41.9272 34.7036H37.967C35.8286 34.7036 34.0885 36.4418 34.0885 38.5793V39.498C31.6711 39.0923 29.6171 38.4499 28.1221 37.6294C26.6895 36.8429 25.9011 35.9517 25.9011 35.1193V29.0923C26.7087 29.765 27.7981 30.3653 29.1445 30.8783C32.0428 31.9833 35.8791 32.5909 39.9475 32.5909C44.0151 32.5909 47.8513 31.9833 50.7497 30.8783C52.096 30.3653 53.1863 29.765 53.994 29.0923V35.1193ZM44.1702 42.0898H35.7249V38.5784C35.7249 37.3431 36.7308 36.3381 37.9679 36.3381H41.9281C43.1643 36.3381 44.1702 37.3431 44.1702 38.5784V42.0898ZM32.9523 44.9101C32.9523 44.2566 33.4846 43.7252 34.139 43.7252H45.7561C46.4104 43.7252 46.9428 44.2566 46.9428 44.9101V52.4422C46.9428 53.0956 46.4104 53.627 45.7561 53.627H34.139C33.4846 53.627 32.9532 53.0956 32.9532 52.4422V44.9101H32.9523ZM26.7987 24.5108C27.4631 23.9124 28.4754 23.3443 29.7282 22.8662C31.0415 22.366 32.5769 21.9723 34.2913 21.696C36.081 21.4069 37.9844 21.261 39.9475 21.261C41.9106 21.261 43.8132 21.4069 45.6028 21.696C47.3181 21.9723 48.8535 22.366 50.1669 22.8662C51.4187 23.3434 52.4319 23.9124 53.0955 24.5108C53.692 25.0477 53.994 25.5855 53.994 26.1087C53.994 26.6318 53.692 27.1696 53.0955 27.7065C52.4319 28.3049 51.4187 28.873 50.1669 29.3511C48.8535 29.8513 47.3181 30.245 45.6028 30.5213C43.8132 30.8104 41.9106 30.9563 39.9475 30.9563C37.9844 30.9563 36.081 30.8104 34.2913 30.5213C32.5769 30.245 31.0415 29.8513 29.7282 29.3511C28.4754 28.8739 27.4631 28.3049 26.7987 27.7065C26.203 27.1696 25.9011 26.6318 25.9011 26.1087C25.9011 25.5855 26.203 25.0477 26.7987 24.5108ZM53.0964 54.7375C52.4328 55.3359 51.4196 55.904 50.1669 56.3812C48.8535 56.8814 47.3181 57.2761 45.6037 57.5523C43.8141 57.8405 41.9106 57.9873 39.9475 57.9873C37.9844 57.9873 36.0819 57.8405 34.2922 57.5523C32.5769 57.2761 31.0415 56.8814 29.7282 56.3812C28.4763 55.904 27.4631 55.3359 26.7996 54.7375C26.204 54.2006 25.9011 53.6628 25.9011 53.1397V47.1109C27.1043 48.114 28.9417 48.9648 31.3168 49.5879V52.4422C31.3168 53.9969 32.5824 55.2625 34.139 55.2625H45.7561C47.3126 55.2625 48.5791 53.9969 48.5791 52.4422V49.5879C50.9534 48.9648 52.7917 48.114 53.994 47.1109V53.1397C53.994 53.6628 53.692 54.2006 53.0964 54.7375Z" fill="#E6AE00"/>
</g>
<path d="M39.2192 49.1841V51.0866C39.2192 51.2389 39.3422 51.3619 39.4945 51.3619H40.3994C40.5518 51.3619 40.6748 51.2389 40.6748 51.0866V49.1841C41.2383 48.9124 41.6274 48.337 41.6274 47.6697C41.6274 46.7419 40.8748 45.9902 39.947 45.9902C39.0182 45.9902 38.2656 46.7419 38.2656 47.6697C38.2665 48.336 38.6557 48.9124 39.2192 49.1841Z" fill="#E6AE00"/>
<defs>
<linearGradient id="paint0_linear_3543_25033" x1="40.497" y1="0.126465" x2="40.497" y2="80.0423" gradientUnits="userSpaceOnUse">
<stop stop-color="white" stop-opacity="0"/>
<stop offset="1" stop-color="#E5AE00" stop-opacity="0.2"/>
</linearGradient>
</defs>
</svg>
