<svg width="80" height="81" viewBox="0 0 80 81" fill="none" xmlns="http://www.w3.org/2000/svg">
<rect x="0.0390625" y="0.761719" width="79.9158" height="79.9158" rx="39.9579" fill="url(#paint0_linear_3508_58701)"/>
<rect x="0.39583" y="1.11849" width="79.2023" height="79.2023" rx="39.6012" stroke="white" stroke-opacity="0.15" stroke-width="0.713534"/>
<g clip-path="url(#clip0_3508_58701)">
<path d="M55.0087 37.2483C54.4593 36.7699 55.943 38.0619 55.0087 37.2483V37.2483Z" fill="#E6AE00"/>
<path d="M55.0096 37.2484C54.4034 36.7204 53.6118 36.1692 53.6475 35.2832C53.686 34.338 54.0355 33.4264 54.1575 32.4911C54.2701 31.6289 54.2011 30.7037 53.5717 30.0431C53.0128 29.4559 52.1893 29.2444 51.4127 29.1339C50.5433 29.0102 49.5903 29.0656 48.7583 28.7582C47.9842 28.4716 47.6955 27.3965 47.4021 26.7111C47.0923 25.9876 46.7602 25.229 46.191 24.6674C45.5385 24.0231 44.6525 23.8493 43.7804 24.103C42.7852 24.3926 41.9505 25.0475 41.04 25.5174C40.7048 25.6908 40.3107 25.8883 39.9217 25.856C39.4678 25.8183 39.0316 25.5626 38.644 25.3433C37.7661 24.8469 36.8988 24.2026 35.8849 24.0227C35.0074 23.867 34.1951 24.1999 33.626 24.8707C33.1024 25.4878 32.7967 26.2582 32.4822 26.9943C32.1524 27.7675 31.8627 28.6246 30.9678 28.8415C29.4423 29.2118 27.3071 28.8109 26.249 30.2644C25.7111 31.0033 25.7499 31.959 25.8978 32.8172C26.0514 33.7066 26.4394 34.6552 26.3517 35.5667C26.2752 36.3617 25.3126 36.9682 24.7662 37.449C24.1427 37.9974 23.4872 38.5992 23.173 39.3877C22.4485 41.206 24.1597 42.5157 25.3473 43.5775C25.656 43.8539 25.9882 44.1446 26.2055 44.5019C26.4163 44.8491 26.371 45.2782 26.3146 45.662C26.1769 46.6004 25.859 47.5082 25.807 48.4599C25.7597 49.3238 25.9953 50.183 26.7127 50.7229C27.3594 51.2098 28.2009 51.3465 28.9856 51.4328C29.4246 51.4808 29.8656 51.5093 30.3038 51.5631C30.7094 51.6127 31.1977 51.6606 31.539 51.9092C31.8481 52.1343 32.032 52.5368 32.1918 52.8714C32.3941 53.295 32.5658 53.7319 32.7573 54.1596C33.0745 54.8696 33.4532 55.6131 34.0907 56.0888C34.8649 56.6665 35.8173 56.6107 36.6741 56.2547C37.6203 55.8617 38.4257 55.1929 39.3747 54.8084C40.2668 54.4476 41.0403 54.9784 41.7975 55.4278C42.6414 55.9293 43.5587 56.5362 44.578 56.5362C45.4379 56.5362 46.1325 56.033 46.6068 55.349C47.0879 54.655 47.3688 53.8496 47.7139 53.0859C47.8818 52.714 48.0607 52.3056 48.35 52.0102C48.6325 51.7218 49.0858 51.6515 49.4669 51.595C50.9853 51.3679 53.1943 51.5603 53.9699 49.8896C54.35 49.0715 54.2017 48.1172 54.0236 47.2678C53.9277 46.8082 53.8111 46.3536 53.7278 45.8919C53.6577 45.5026 53.5629 45.0211 53.7257 44.642C54.0277 43.9399 54.8396 43.4269 55.3914 42.9328C55.9619 42.4222 56.543 41.8544 56.8313 41.1298C57.4831 39.4951 56.1292 38.2232 55.0096 37.2484ZM55.285 40.3985C55.1255 41.0465 54.3768 41.5671 53.9005 41.9802C54.062 41.8401 54.198 41.7211 53.8934 41.9863C53.2113 42.5806 52.4453 43.212 52.1189 44.0854C51.7554 45.0568 52.0291 46.1407 52.2491 47.1121C52.3746 47.6646 52.8448 48.9675 52.241 49.386C51.9414 49.5938 51.5341 49.6495 51.1822 49.6995C50.6967 49.7679 50.2067 49.7978 49.7192 49.8495C48.8396 49.9436 47.8992 50.1051 47.2287 50.7307C46.5616 51.3529 46.2192 52.2488 45.8694 53.0696C45.647 53.5901 45.2516 54.9012 44.5015 54.8322C44.0861 54.7937 43.6855 54.5557 43.3299 54.3555C42.8553 54.0879 42.3969 53.7931 41.9158 53.5381C41.0203 53.0635 40.0863 52.7969 39.0894 53.107C38.0997 53.415 37.2691 54.0627 36.3551 54.5302C36.0627 54.6795 35.6167 54.9274 35.2746 54.8138C34.9329 54.703 34.7194 54.2878 34.5644 53.9944C34.1285 53.1696 33.8602 52.2631 33.3669 51.4675C32.8769 50.6767 32.1844 50.2078 31.2806 50.0038C30.3681 49.7981 29.4239 49.8246 28.5076 49.6472C28.2142 49.59 27.814 49.5125 27.625 49.2528C27.4101 48.9573 27.4981 48.4718 27.5491 48.141C27.7038 47.1335 28.0625 46.152 28.0608 45.1235C28.0591 44.1249 27.576 43.3592 26.8807 42.6802C26.2214 42.0359 25.3415 41.4943 24.8536 40.6973C24.3848 39.9306 25.3255 39.2248 25.84 38.7702C26.5336 38.1569 27.3241 37.5595 27.7596 36.721C28.2349 35.8051 28.052 34.7426 27.8419 33.7797C27.7399 33.3136 27.6219 32.8495 27.5495 32.3772C27.4985 32.0457 27.4101 31.5605 27.6253 31.2651C27.8143 31.0053 28.2145 30.9278 28.5083 30.8707C28.9836 30.7785 29.4691 30.7462 29.9502 30.7013C30.8346 30.6194 31.8005 30.5225 32.541 29.9839C33.2744 29.4501 33.6596 28.5672 34.0061 27.759C34.1839 27.3438 34.3532 26.9233 34.5647 26.5238C34.7197 26.2303 34.9333 25.8149 35.275 25.704C35.6201 25.5935 36.06 25.837 36.3551 25.9879C36.8386 26.2354 37.2952 26.5316 37.7668 26.8002C38.628 27.2908 39.5688 27.7076 40.579 27.4992C41.5877 27.2908 42.4486 26.6591 43.3299 26.162C43.6855 25.9614 44.0864 25.7237 44.5019 25.6853C44.8755 25.6506 45.1129 25.9692 45.29 26.2548C46.2369 27.7777 46.4426 29.8466 48.4122 30.4321C49.0912 30.6337 49.8062 30.6772 50.5076 30.7425C51.0499 30.7928 51.935 30.7857 52.3426 31.2171C52.7173 31.6136 52.4484 32.4914 52.3515 32.9453C52.1798 33.7522 51.9452 34.562 51.9469 35.3933C51.9496 37.024 53.2542 37.9362 54.3483 38.9324C54.708 39.2595 55.4247 39.8293 55.285 40.3985Z" fill="#E6AE00"/>
<path d="M45.1707 35.8068L38.6376 42.9271C38.5574 43.0148 38.554 43.0733 38.4509 43.0121L37.5319 42.4705L34.9364 40.9408C34.6276 40.7589 34.3325 40.5668 33.9517 40.6865C33.2517 40.9058 33.1616 41.8687 33.7838 42.2352L35.751 43.3946L38.1157 44.7879C38.6182 45.084 39.0612 44.9797 39.4431 44.5638L42.9801 40.7079L45.8123 37.6207L46.4086 36.971C47.158 36.1543 45.9204 34.9888 45.1707 35.8068Z" fill="#E6AE00"/>
</g>
<defs>
<linearGradient id="paint0_linear_3508_58701" x1="39.997" y1="0.761719" x2="39.997" y2="80.6776" gradientUnits="userSpaceOnUse">
<stop stop-color="white" stop-opacity="0"/>
<stop offset="1" stop-color="#E5AE00" stop-opacity="0.2"/>
</linearGradient>
<clipPath id="clip0_3508_58701">
<rect width="34" height="34" fill="white" transform="translate(23 23.2598)"/>
</clipPath>
</defs>
</svg>
