<svg width="63" height="56" viewBox="0 0 63 56" fill="none" xmlns="http://www.w3.org/2000/svg">
<mask id="mask0_405_3988" style="mask-type:luminance" maskUnits="userSpaceOnUse" x="0" y="0" width="63" height="41">
<path d="M0 0H63V40.8236H0V0Z" fill="white"/>
</mask>
<g mask="url(#mask0_405_3988)">
<path d="M50.8938 14.4561C49.7117 9.13019 44.9417 5.23997 39.375 5.23997C38.0682 5.23997 36.7901 5.4549 35.5636 5.87616C32.9945 2.22523 28.769 0 24.2812 0C16.6814 0 10.5 6.1699 10.5 13.754C10.5 14.0592 10.5115 14.3616 10.533 14.6639C4.44187 15.8761 0 21.1805 0 27.5095C0 34.2067 5.01644 39.8006 11.6706 40.5242C11.7194 40.5285 11.7666 40.5313 11.8139 40.5313C12.4745 40.5313 13.0448 40.0355 13.1164 39.3635C13.1952 38.6442 12.6736 37.9966 11.9544 37.9178C6.63414 37.3403 2.625 32.8655 2.625 27.5081C2.625 22.0804 6.70579 17.5955 12.1206 17.0754C12.4859 17.0396 12.8184 16.8547 13.0405 16.5624C13.2626 16.2701 13.35 15.899 13.2869 15.5394C13.1766 14.9304 13.125 14.3472 13.125 13.754C13.125 7.61279 18.1285 2.61784 24.2812 2.61784C28.2202 2.61784 31.9084 4.73847 33.9101 8.15298C34.2511 8.73185 34.9747 8.96397 35.588 8.68313C36.7916 8.13578 38.0654 7.85781 39.375 7.85781C43.9974 7.85781 47.912 11.3067 48.4808 15.879C48.5625 16.5352 49.213 17.0281 49.875 17.0281C55.6638 17.0281 60.375 21.7308 60.375 27.5081C60.375 32.4314 56.8817 36.74 52.0701 37.7544C51.3609 37.9035 50.9081 38.5998 51.0585 39.3062C51.2076 40.0155 51.8982 40.4683 52.6146 40.3178C58.6326 39.0483 63.0014 33.6622 63.0014 27.5081C63.0014 20.6547 57.6999 15.0121 50.8952 14.4547L50.8938 14.4561Z" fill="#E6AE00"/>
</g>
<mask id="mask1_405_3988" style="mask-type:luminance" maskUnits="userSpaceOnUse" x="15" y="28" width="34" height="28">
<path d="M15.5312 28.7188H48.9112V55.0218H15.5312V28.7188Z" fill="white"/>
</mask>
<g mask="url(#mask1_405_3988)">
<path d="M44.625 36.6815V35.3719C44.625 33.2054 42.8583 31.4415 40.6875 31.4415H29.9611C29.6158 31.4415 29.2776 31.3011 29.0326 31.0575L27.9465 29.9729C27.2043 29.2306 26.2142 28.8223 25.1625 28.8223H19.6875C17.5167 28.8223 15.75 30.5847 15.75 32.7512V51.0001L15.7686 50.9872C15.7428 51.8369 15.9764 52.6751 16.4951 53.3901C17.243 54.4275 18.408 55.0221 19.6889 55.0221H41.1231C42.8196 55.0221 44.3212 53.9432 44.8586 52.3341L48.3576 41.8541C48.7631 40.6405 48.5654 39.3509 47.816 38.3135C47.068 37.2761 45.9045 36.6815 44.625 36.6801V36.6815ZM19.6875 31.4415H25.1625C25.5078 31.4415 25.8459 31.582 26.091 31.8255L27.1771 32.9102C27.9207 33.6524 28.9094 34.0622 29.9611 34.0622H40.6875C41.4111 34.0622 42 34.6497 42 35.3719V36.6815H23.1894C21.4915 36.6815 19.9898 37.7619 19.4539 39.3695L18.375 42.6021V32.7512C18.375 32.0304 18.9625 31.4415 19.6875 31.4415ZM45.8673 41.0259L42.3682 51.5059C42.1891 52.0418 41.6876 52.4028 41.1231 52.4028H19.6889C19.2634 52.4028 18.8751 52.2051 18.6243 51.8569C18.375 51.5116 18.3091 51.0818 18.4423 50.6763L21.9414 40.1963C22.1219 39.6604 22.6234 39.3008 23.188 39.3008H44.6207C45.0477 39.3008 45.436 39.4985 45.6867 39.8453C45.9361 40.192 46.002 40.6219 45.8673 41.0259Z" fill="#E6AE00"/>
</g>
</svg>
