<svg width="46" height="59" viewBox="0 0 46 59" fill="none" xmlns="http://www.w3.org/2000/svg">
<mask id="mask0_405_3972" style="mask-type:luminance" maskUnits="userSpaceOnUse" x="0" y="0" width="46" height="59">
<path d="M0 0H46V58.6629H0V0Z" fill="white"/>
</mask>
<g mask="url(#mask0_405_3972)">
<path d="M45.4132 7.26947C45.0619 6.61398 44.549 5.98003 43.8895 5.38646C42.6808 4.29756 40.9822 3.33115 38.8421 2.51549C34.5902 0.894941 28.964 0.00390625 22.9987 0.00390625C17.0333 0.00390625 11.4071 0.894941 7.15654 2.51549C5.0151 3.33115 3.31783 4.29756 2.10914 5.38646C1.44961 5.98003 0.936798 6.61398 0.585499 7.26947C0.196512 7.99361 0 8.74735 0 9.51052V49.1535C0 49.9167 0.196512 50.6704 0.585499 51.3945C0.936798 52.05 1.44961 52.6826 2.10914 53.2775C3.31783 54.3664 5.0151 55.3315 7.15654 56.1485C11.4071 57.7677 17.0333 58.6601 22.9987 58.6601C28.964 58.6601 34.5902 57.7677 38.8421 56.1485C40.9822 55.3315 42.6808 54.3664 43.8895 53.2775C44.549 52.6826 45.0619 52.05 45.4132 51.3945C45.8021 50.6704 45.9987 49.9167 45.9987 49.1535V9.51052C45.9987 8.74735 45.8008 7.99361 45.4132 7.26947ZM31.5914 32.9493V31.5764C35.5701 30.9425 38.9875 29.8845 41.4977 28.5076C42.3403 28.0446 43.0321 27.5721 43.5988 27.0997V35.9387C43.5988 37.1716 42.4453 38.239 41.4775 38.9174C40.0737 39.9026 38.0722 40.7748 35.6575 41.4599V37.0841C35.6575 34.8283 33.8391 32.9883 31.5914 32.9493ZM10.3411 37.0841V41.4599C7.92509 40.7748 5.92363 39.9026 4.51978 38.9174C3.55203 38.239 2.39853 37.1716 2.39853 35.9387V27.0997C2.96518 27.5721 3.65701 28.0446 4.49959 28.5076C7.00983 29.8845 10.4273 30.9425 14.406 31.5764V32.9493C12.1582 32.9883 10.3411 34.8283 10.3411 37.0841ZM43.5988 22.7253C43.5988 23.9461 42.4426 25.253 40.3415 26.4065C38.1476 27.6098 35.1353 28.552 31.5914 29.1469V27.7996C31.5914 24.6648 29.0394 22.1156 25.9019 22.1156H20.094C16.9579 22.1156 14.406 24.6648 14.406 27.7996V29.1469C10.8607 28.552 7.84837 27.6098 5.65578 26.4065C3.55472 25.253 2.39853 23.9461 2.39853 22.7253V13.8863C3.58298 14.8729 5.18065 15.7531 7.1552 16.5055C11.4058 18.1261 17.032 19.0171 22.9987 19.0171C28.964 19.0171 34.5902 18.1261 38.8408 16.5055C40.8153 15.7531 42.4143 14.8729 43.5988 13.8863V22.7253ZM29.1915 32.948H16.8058V27.7983C16.8058 25.9866 18.281 24.5127 20.0954 24.5127H25.9033C27.7163 24.5127 29.1915 25.9866 29.1915 27.7983V32.948ZM12.7396 37.0841C12.7396 36.1258 13.5203 35.3465 14.48 35.3465H31.5173C32.477 35.3465 33.2577 36.1258 33.2577 37.0841V48.1305C33.2577 49.0889 32.477 49.8682 31.5173 49.8682H14.48C13.5203 49.8682 12.741 49.0889 12.741 48.1305V37.0841H12.7396ZM3.71489 7.16718C4.68937 6.2896 6.17398 5.45645 8.01124 4.75519C9.93733 4.02164 12.1891 3.44422 14.7034 3.03908C17.3281 2.6151 20.1196 2.40109 22.9987 2.40109C25.8777 2.40109 28.6679 2.6151 31.2925 3.03908C33.8082 3.44422 36.06 4.02164 37.9861 4.75519C39.822 5.4551 41.3079 6.2896 42.2811 7.16718C43.156 7.95457 43.5988 8.74331 43.5988 9.51052C43.5988 10.2777 43.156 11.0665 42.2811 11.8539C41.3079 12.7314 39.822 13.5646 37.9861 14.2658C36.06 14.9994 33.8082 15.5768 31.2925 15.982C28.6679 16.4059 25.8777 16.62 22.9987 16.62C20.1196 16.62 17.3281 16.4059 14.7034 15.982C12.1891 15.5768 9.93733 14.9994 8.01124 14.2658C6.17398 13.5659 4.68937 12.7314 3.71489 11.8539C2.84135 11.0665 2.39853 10.2777 2.39853 9.51052C2.39853 8.74331 2.84135 7.95457 3.71489 7.16718ZM42.2824 51.4968C41.3093 52.3744 39.8233 53.2076 37.9861 53.9075C36.06 54.641 33.8082 55.2198 31.2939 55.6249C28.6692 56.0476 25.8777 56.2629 22.9987 56.2629C20.1196 56.2629 17.3294 56.0476 14.7048 55.6249C12.1891 55.2198 9.93733 54.641 8.01124 53.9075C6.17533 53.2076 4.68937 52.3744 3.71623 51.4968C2.8427 50.7094 2.39853 49.9207 2.39853 49.1535V40.3118C4.1631 41.7829 6.85774 43.0307 10.3411 43.9446V48.1305C10.3411 50.4106 12.1972 52.2667 14.48 52.2667H31.5173C33.8001 52.2667 35.6575 50.4106 35.6575 48.1305V43.9446C39.1396 43.0307 41.8356 41.7829 43.5988 40.3118V49.1535C43.5988 49.9207 43.156 50.7094 42.2824 51.4968Z" fill="#E6AE00"/>
</g>
<path d="M21.9297 43.352V46.1422C21.9297 46.3656 22.1101 46.546 22.3335 46.546H23.6606C23.8841 46.546 24.0644 46.3656 24.0644 46.1422V43.352C24.8909 42.9535 25.4616 42.1096 25.4616 41.1311C25.4616 39.7703 24.3579 38.668 22.9971 38.668C21.6349 38.668 20.5312 39.7703 20.5312 41.1311C20.5326 42.1083 21.1033 42.9535 21.9297 43.352Z" fill="#E6AE00"/>
</svg>
