<svg width="40" height="60" viewBox="0 0 40 60" fill="none" xmlns="http://www.w3.org/2000/svg">
<mask id="mask0_405_3957" style="mask-type:luminance" maskUnits="userSpaceOnUse" x="2" y="0" width="36" height="31">
<path d="M2.21875 0H37.6183V30.0436H2.21875V0Z" fill="white"/>
</mask>
<g mask="url(#mask0_405_3957)">
<path d="M36.205 29.8359C35.5164 29.8359 34.9564 29.28 34.9564 28.5941V17.4126C34.9564 9.18979 28.2368 2.50446 19.9729 2.50446C11.709 2.50446 4.98943 9.18979 4.98943 17.4126V28.5941C4.98943 29.28 4.42947 29.8359 3.74081 29.8359C3.05215 29.8359 2.49219 29.28 2.49219 28.5941V17.4126C2.49219 7.82069 10.333 0.0195312 19.9729 0.0195312C29.6128 0.0195312 37.4536 7.82069 37.4536 17.4126V28.5941C37.4536 29.28 36.8937 29.8359 36.205 29.8359Z" fill="#E6AE00"/>
</g>
<path d="M31.216 29.8348C30.5274 29.8348 29.9674 29.2789 29.9674 28.593V17.4115C29.9674 11.9296 25.4877 7.47184 19.9784 7.47184C14.4691 7.47184 9.98943 11.9296 9.98943 17.4115V28.593C9.98943 29.2789 9.42947 29.8348 8.74081 29.8348C8.05215 29.8348 7.49219 29.2789 7.49219 28.593V17.4115C7.49219 10.5605 13.0932 4.98828 19.9784 4.98828C26.8636 4.98828 32.4647 10.5605 32.4647 17.4115V28.593C32.4647 29.2789 31.9047 29.8348 31.216 29.8348Z" fill="#E6AE00"/>
<mask id="mask1_405_3957" style="mask-type:luminance" maskUnits="userSpaceOnUse" x="0" y="27" width="40" height="33">
<path d="M0 27.2402H39.9559V59.6716H0V27.2402Z" fill="white"/>
</mask>
<g mask="url(#mask1_405_3957)">
<path d="M33.7128 59.6542H6.24312C2.80119 59.6542 0 56.8667 0 53.4426V31.0796C0 29.0246 1.67989 27.3516 3.74587 27.3516H36.2101C38.2747 27.3516 39.9559 29.0246 39.9559 31.0796V53.4426C39.9559 56.8667 37.1534 59.6542 33.7128 59.6542ZM3.74587 29.8365C3.05721 29.8365 2.49725 30.3937 2.49725 31.0796V53.4426C2.49725 55.4976 4.17714 57.1693 6.24312 57.1693H33.7128C35.7774 57.1693 37.4587 55.4976 37.4587 53.4426V31.0796C37.4587 30.3937 36.8987 29.8365 36.2101 29.8365H3.74587Z" fill="#E6AE00"/>
</g>
<path d="M23.7256 49.7129H16.2339C15.8314 49.7129 15.4549 49.5226 15.2194 49.1967C14.9853 48.8736 14.9209 48.456 15.0496 48.0754L16.609 43.4246C15.5767 42.4949 14.9853 41.1875 14.9853 39.7745C14.9853 37.0336 17.2251 34.8047 19.9798 34.8047C22.7344 34.8047 24.9743 37.0336 24.9743 39.7745C24.9743 41.1875 24.3828 42.4949 23.3505 43.4273L24.9099 48.0782C25.0372 48.456 24.9715 48.8736 24.7388 49.1995C24.5046 49.5226 24.1281 49.7129 23.7256 49.7129ZM17.9672 47.2279H21.9923L20.6958 43.3616C20.5096 42.8085 20.7382 42.1992 21.2434 41.9008C22.0156 41.4435 22.477 40.6494 22.477 39.7745C22.477 38.4054 21.3557 37.2896 19.9798 37.2896C18.6038 37.2896 17.4825 38.4054 17.4825 39.7745C17.4825 40.6494 17.9439 41.4435 18.7161 41.9008C19.2199 42.1992 19.4472 42.8085 19.2623 43.3616L17.9672 47.2279Z" fill="#E6AE00"/>
</svg>
