<svg width="80" height="81" viewBox="0 0 80 81" fill="none" xmlns="http://www.w3.org/2000/svg">
<rect x="0.0390625" y="0.761719" width="79.9158" height="79.9158" rx="39.9579" fill="url(#paint0_linear_3508_58685)"/>
<rect x="0.39583" y="1.11849" width="79.2023" height="79.2023" rx="39.6012" stroke="white" stroke-opacity="0.15" stroke-width="0.713534"/>
<mask id="mask0_3508_58685" style="mask-type:luminance" maskUnits="userSpaceOnUse" x="29" y="22" width="22" height="19">
<path d="M29.3281 22.7617H50.0915V40.3836H29.3281V22.7617Z" fill="white"/>
</mask>
<g mask="url(#mask0_3508_58685)">
<path d="M49.2663 40.2616C48.8623 40.2616 48.5339 39.9355 48.5339 39.5332V32.9748C48.5339 28.1517 44.5926 24.2305 39.7454 24.2305C34.8983 24.2305 30.9569 28.1517 30.9569 32.9748V39.5332C30.9569 39.9355 30.6285 40.2616 30.2246 40.2616C29.8206 40.2616 29.4922 39.9355 29.4922 39.5332V32.9748C29.4922 27.3487 34.0912 22.7729 39.7454 22.7729C45.3996 22.7729 49.9986 27.3487 49.9986 32.9748V39.5332C49.9986 39.9355 49.6702 40.2616 49.2663 40.2616Z" fill="#E6AE00"/>
</g>
<path d="M46.3448 40.2611C45.9408 40.2611 45.6124 39.935 45.6124 39.5327V32.9743C45.6124 29.7589 42.9849 27.1442 39.7534 27.1442C36.522 27.1442 33.8944 29.7589 33.8944 32.9743V39.5327C33.8944 39.935 33.566 40.2611 33.1621 40.2611C32.7581 40.2611 32.4297 39.935 32.4297 39.5327V32.9743C32.4297 28.9559 35.7149 25.6875 39.7534 25.6875C43.7919 25.6875 47.0772 28.9559 47.0772 32.9743V39.5327C47.0772 39.935 46.7487 40.2611 46.3448 40.2611Z" fill="#E6AE00"/>
<mask id="mask1_3508_58685" style="mask-type:luminance" maskUnits="userSpaceOnUse" x="28" y="38" width="24" height="20">
<path d="M28.0391 38.7397H51.475V57.7622H28.0391V38.7397Z" fill="white"/>
</mask>
<g mask="url(#mask1_3508_58685)">
<path d="M47.8131 57.7521H31.7009C29.6821 57.7521 28.0391 56.1171 28.0391 54.1087V40.9919C28.0391 39.7865 29.0244 38.8052 30.2362 38.8052H49.2779C50.4889 38.8052 51.475 39.7865 51.475 40.9919V54.1087C51.475 56.1171 49.8312 57.7521 47.8131 57.7521ZM30.2362 40.2627C29.8323 40.2627 29.5038 40.5895 29.5038 40.9919V54.1087C29.5038 55.3141 30.4891 56.2946 31.7009 56.2946H47.8131C49.0241 56.2946 50.0103 55.3141 50.0103 54.1087V40.9919C50.0103 40.5895 49.6818 40.2627 49.2779 40.2627H30.2362Z" fill="#E6AE00"/>
</g>
<path d="M41.9553 51.9206H37.561C37.3249 51.9206 37.1041 51.809 36.966 51.6178C36.8286 51.4283 36.7909 51.1834 36.8664 50.9601L37.7811 48.2322C37.1756 47.6869 36.8286 46.92 36.8286 46.0913C36.8286 44.4836 38.1424 43.1763 39.7581 43.1763C41.3739 43.1763 42.6876 44.4836 42.6876 46.0913C42.6876 46.92 42.3407 47.6869 41.7352 48.2338L42.6499 50.9617C42.7246 51.1834 42.686 51.4283 42.5495 51.6194C42.4122 51.809 42.1914 51.9206 41.9553 51.9206ZM38.5777 50.4631H40.9386L40.1781 48.1953C40.0689 47.8708 40.203 47.5135 40.4993 47.3384C40.9523 47.0702 41.2229 46.6045 41.2229 46.0913C41.2229 45.2883 40.5652 44.6338 39.7581 44.6338C38.9511 44.6338 38.2934 45.2883 38.2934 46.0913C38.2934 46.6045 38.564 47.0702 39.0169 47.3384C39.3125 47.5135 39.4458 47.8708 39.3373 48.1953L38.5777 50.4631Z" fill="#E6AE00"/>
<defs>
<linearGradient id="paint0_linear_3508_58685" x1="39.997" y1="0.761719" x2="39.997" y2="80.6776" gradientUnits="userSpaceOnUse">
<stop stop-color="white" stop-opacity="0"/>
<stop offset="1" stop-color="#E5AE00" stop-opacity="0.2"/>
</linearGradient>
</defs>
</svg>
