<svg width="80" height="81" viewBox="0 0 80 81" fill="none" xmlns="http://www.w3.org/2000/svg">
<rect x="0.0390625" y="0.943848" width="79.9158" height="79.9158" rx="39.9579" fill="url(#paint0_linear_3508_58726)"/>
<rect x="0.39583" y="1.30061" width="79.2023" height="79.2023" rx="39.6012" stroke="white" stroke-opacity="0.15" stroke-width="0.713534"/>
<mask id="mask0_3508_58726" style="mask-type:luminance" maskUnits="userSpaceOnUse" x="22" y="23" width="35" height="35">
<path d="M22 23.5894H56.8413V57.5894H22V23.5894Z" fill="white"/>
</mask>
<g mask="url(#mask0_3508_58726)">
<path d="M39.3961 35.8951C40.3805 35.8951 40.9364 36.5625 41.0718 37.5693C41.1568 38.1987 41.0826 38.9573 40.9341 39.709C40.665 41.063 40.1361 42.4457 39.8538 42.9622C39.6567 43.3249 39.13 43.3272 38.9336 42.9537C38.3583 41.8665 36.5148 36.8169 38.8014 35.9949C38.9847 35.9307 39.1819 35.8951 39.3961 35.8951ZM39.6381 36.9754C39.5105 36.9306 39.2839 36.9306 39.154 36.9754C38.5114 37.2066 38.762 38.8823 38.8872 39.5072C39.0164 40.1645 39.2074 40.8171 39.3961 41.3576C39.7417 40.3655 40.1748 38.7424 40.0371 37.7062C39.9861 37.3334 39.8647 37.0581 39.6381 36.9754ZM39.3961 43.5963C40.7222 43.5963 41.3911 45.2048 40.4531 46.1428C39.5128 47.08 37.9028 46.4119 37.9028 45.0872C37.9021 44.2637 38.5702 43.5963 39.3961 43.5963ZM39.7108 44.774C39.4324 44.4949 38.9506 44.6936 38.9506 45.088C38.9506 45.4847 39.4324 45.6819 39.7108 45.4019C39.884 45.2272 39.884 44.9472 39.7108 44.774ZM41.5288 33.4747L48.5325 45.5914C48.9825 46.3686 48.9779 47.3035 48.5348 48.0512L48.5371 48.0536C48.3252 48.4201 48.0175 48.734 47.637 48.9521V48.9544C47.279 49.1601 46.8591 49.2815 46.4021 49.2815H32.3901C30.5117 49.2815 29.3008 47.2509 30.2596 45.5945L37.2656 33.4732H37.2633C38.2122 31.8346 40.5761 31.8284 41.5288 33.4747ZM47.6285 46.1134L40.6225 33.9944C40.0789 33.0548 38.721 33.0425 38.1696 33.9959H38.1673L31.1628 46.1141C30.6246 47.0483 31.2757 48.2345 32.3893 48.2345H46.4013C46.6688 48.2345 46.9101 48.1665 47.1127 48.0497V48.052C47.3331 47.9205 47.5032 47.7512 47.6308 47.5316H47.6324C47.8814 47.097 47.8875 46.565 47.6285 46.1157H47.6308L47.6285 46.1134ZM55.4032 40.5356C55.2655 40.7869 54.9469 40.8828 54.694 40.7452C54.442 40.6075 54.3461 40.2905 54.4837 40.0376C56.983 35.4497 55.5826 30.2277 51.123 27.5049C50.8771 27.3549 50.7982 27.0348 50.949 26.7865C51.0998 26.5406 51.4199 26.4641 51.6666 26.6133C56.6033 29.6284 58.1669 35.4474 55.4032 40.5356ZM51.4408 37.5538C51.3032 37.8059 50.9869 37.8995 50.7325 37.7618C50.4804 37.6242 50.3868 37.3079 50.5245 37.0535C51.5212 35.2255 50.966 33.1523 49.1851 32.065C48.9384 31.915 48.8603 31.5949 49.0111 31.3489C49.1619 31.103 49.4821 31.0249 49.7311 31.1757C51.9891 32.553 52.7059 35.2255 51.4408 37.5538ZM53.4506 38.9171C53.3129 39.1685 52.9967 39.262 52.7423 39.1244C52.4894 38.9875 52.3958 38.6712 52.5342 38.4191C54.2355 35.2912 53.2843 31.7395 50.243 29.8805C49.9963 29.7328 49.9198 29.4103 50.0705 29.1644C50.219 28.9185 50.5415 28.8404 50.7874 28.9912C54.3059 31.1394 55.4217 35.2912 53.4506 38.9171ZM24.3084 40.0376C24.446 40.2897 24.3533 40.6075 24.0981 40.7452C23.846 40.8828 23.5266 40.7877 23.389 40.5356C20.6229 35.4543 22.1888 29.6284 27.1255 26.6133C27.3722 26.4649 27.6923 26.5414 27.8431 26.7865C27.9931 27.0348 27.915 27.3549 27.6691 27.5049C23.2088 30.2285 21.8107 35.4435 24.3084 40.0376ZM28.2669 37.0535C28.4053 37.3079 28.3125 37.6234 28.0589 37.7618C27.8068 37.8995 27.4882 37.8067 27.3505 37.5538C26.0862 35.2293 26.803 32.553 29.0626 31.1757C29.3093 31.0257 29.6294 31.1038 29.7802 31.3489C29.9302 31.5949 29.8521 31.915 29.6062 32.065C27.8261 33.1523 27.2724 35.2231 28.2669 37.0535ZM26.2579 38.4191C26.3963 38.6712 26.3035 38.9875 26.0498 39.1244C25.7954 39.262 25.4792 39.1692 25.3415 38.9171C23.3704 35.295 24.4863 31.1394 28.0047 28.9904C28.2506 28.8404 28.5731 28.9185 28.7239 29.1636C28.8724 29.4095 28.7958 29.732 28.5499 29.8805C25.5093 31.7395 24.5559 35.2865 26.2579 38.4191ZM25.821 51.8581C24.1978 51.8558 23.3449 50.2814 23.7903 48.9684C23.9914 48.3768 24.4484 47.8664 25.1884 47.6414C26.4659 47.0947 27.4565 46.0515 28.1633 44.5181C28.8971 42.9158 29.324 40.7877 29.44 38.1307C29.1391 33.3518 31.3368 30.1581 34.3735 28.5481C34.406 25.8037 36.6439 23.5913 39.3961 23.5913C42.1544 23.5913 44.3946 25.8122 44.4186 28.5628C47.4545 30.1797 49.6507 33.3711 49.3522 38.1307C49.4689 40.7877 49.8958 42.9158 50.6312 44.5181C51.3356 46.0515 52.3262 47.0947 53.6037 47.6414C54.3437 47.8656 54.8023 48.3768 55.0018 48.9684C55.4495 50.2814 54.5943 51.8566 52.9712 51.8581V51.8605H46.2621C45.6721 55.1516 42.7893 57.5952 39.3961 57.5952C36.0029 57.5952 33.12 55.1523 32.53 51.8605H25.821V51.8581ZM35.4608 28.054C37.9539 27.092 40.8437 27.0959 43.3336 28.064C43.0692 26.1169 41.3942 24.6376 39.3961 24.6376C37.401 24.6383 35.7322 26.1107 35.4608 28.054ZM45.1973 51.8605H33.5948C34.1702 54.5708 36.572 56.5481 39.3961 56.5481C42.2201 56.5481 44.6219 54.5708 45.1973 51.8605ZM24.9317 50.375C25.1126 50.634 25.4134 50.8157 25.821 50.8157V50.8142H52.9712V50.8157C54.2378 50.8157 54.5092 48.9954 53.2812 48.6351C53.2619 48.6289 53.2426 48.6227 53.2232 48.6142C51.6829 47.9639 50.5036 46.7413 49.68 44.9503C48.889 43.2259 48.4296 40.9664 48.3074 38.1717C48.3051 38.1438 48.3051 38.1183 48.3051 38.0905C48.5936 33.6425 46.4863 30.7249 43.6329 29.3369C41.0084 28.0609 37.7598 28.0571 35.1368 29.3345C32.2918 30.7203 30.1978 33.634 30.4854 38.0905C30.4854 38.1083 30.4854 38.1268 30.4854 38.1462C30.3648 40.9517 29.9062 43.2189 29.1105 44.9503C28.2916 46.7351 27.1162 47.9538 25.5866 48.6065C25.5635 48.6188 25.5379 48.6273 25.5101 48.6358C24.6749 48.8771 24.5303 49.7989 24.9317 50.375Z" fill="#E6AE00"/>
</g>
<defs>
<linearGradient id="paint0_linear_3508_58726" x1="39.997" y1="0.943848" x2="39.997" y2="80.8597" gradientUnits="userSpaceOnUse">
<stop stop-color="white" stop-opacity="0"/>
<stop offset="1" stop-color="#E5AE00" stop-opacity="0.2"/>
</linearGradient>
</defs>
</svg>
