<svg width="61" height="60" viewBox="0 0 61 60" fill="none" xmlns="http://www.w3.org/2000/svg">
<path d="M30.4569 22.0258C32.1804 22.0258 33.1538 23.1942 33.3907 24.9569C33.5396 26.059 33.4097 27.3871 33.1497 28.7031C32.6786 31.0737 31.7525 33.4944 31.2584 34.3988C30.9131 35.0338 29.9912 35.0379 29.6473 34.3839C28.64 32.4804 25.4124 23.6396 29.4158 22.2005C29.7366 22.0881 30.0819 22.0258 30.4569 22.0258ZM30.8806 23.9172C30.6573 23.8386 30.2606 23.8386 30.0331 23.9172C28.9081 24.322 29.3467 27.2558 29.566 28.3497C29.7921 29.5005 30.1265 30.6432 30.4569 31.5896C31.0621 29.8525 31.8202 27.0108 31.5792 25.1966C31.4899 24.544 31.2773 24.062 30.8806 23.9172ZM30.4569 35.509C32.7788 35.509 33.9499 38.3251 32.3076 39.9673C30.6613 41.6082 27.8426 40.4385 27.8426 38.1193C27.8412 36.6774 29.011 35.509 30.4569 35.509ZM31.0079 37.571C30.5205 37.0822 29.6771 37.4302 29.6771 38.1206C29.6771 38.8152 30.5205 39.1604 31.0079 38.6703C31.3112 38.3643 31.3112 37.8742 31.0079 37.571ZM34.1909 17.7882L46.4529 39.002C47.2408 40.3626 47.2327 41.9995 46.4569 43.3087L46.461 43.3127C46.09 43.9545 45.5512 44.5041 44.8851 44.8859V44.89C44.2582 45.2501 43.5231 45.4627 42.723 45.4627H18.1908C14.9023 45.4627 12.7821 41.9074 14.4609 39.0074L26.727 17.7855H26.7229C28.3841 14.9166 32.5229 14.9058 34.1909 17.7882ZM44.8702 39.9159L32.6041 18.698C31.6524 17.053 29.275 17.0314 28.3096 18.7007H28.3056L16.0422 39.9172C15.0999 41.5527 16.2399 43.6295 18.1895 43.6295H42.7216C43.19 43.6295 43.6124 43.5104 43.9672 43.306V43.31C44.353 43.0799 44.6509 42.7834 44.8742 42.3989H44.877C45.3129 41.638 45.3237 40.7065 44.8702 39.9199H44.8742L44.8702 39.9159ZM58.482 30.1504C58.241 30.5904 57.6832 30.7583 57.2405 30.5173C56.7991 30.2763 56.6313 29.7212 56.8723 29.2785C61.248 21.246 58.7961 12.1033 50.9883 7.33631C50.5578 7.07366 50.4197 6.51316 50.6837 6.07857C50.9477 5.64804 51.5082 5.514 51.9401 5.7753C60.5832 11.054 63.3207 21.2419 58.482 30.1504ZM51.5448 24.9299C51.3038 25.3712 50.75 25.535 50.3046 25.2941C49.8633 25.0531 49.6994 24.4993 49.9404 24.0539C51.6856 20.8534 50.7135 17.2236 47.5955 15.3201C47.1636 15.0574 47.0269 14.4969 47.2909 14.0664C47.5549 13.6359 48.1154 13.4991 48.5514 13.7631C52.5047 16.1744 53.7597 20.8534 51.5448 24.9299ZM55.0635 27.3167C54.8225 27.7567 54.2688 27.9206 53.8233 27.6796C53.3806 27.4399 53.2168 26.8862 53.4591 26.4448C56.4377 20.9684 54.7724 14.7501 49.4476 11.4954C49.0157 11.2368 48.8817 10.6723 49.1457 10.2417C49.4057 9.81119 49.9702 9.67445 50.4007 9.93845C56.5609 13.6995 58.5145 20.9684 55.0635 27.3167ZM4.04151 29.2785C4.2825 29.7199 4.12003 30.2763 3.67326 30.5173C3.2319 30.7583 2.67275 30.5918 2.43176 30.1504C-2.41104 21.2541 0.330551 11.054 8.97366 5.7753C9.40555 5.51536 9.96605 5.64939 10.2301 6.07857C10.4927 6.51316 10.356 7.07366 9.92543 7.33631C2.11631 12.1046 -0.331492 21.2352 4.04151 29.2785ZM10.972 24.0539C11.2143 24.4993 11.0519 25.0517 10.6078 25.2941C10.1664 25.535 9.60863 25.3726 9.36764 24.9299C7.15406 20.8601 8.4091 16.1744 12.3651 13.7631C12.797 13.5005 13.3575 13.6372 13.6215 14.0664C13.8842 14.4969 13.7474 15.0574 13.3169 15.3201C10.2003 17.2236 9.2309 20.8493 10.972 24.0539ZM7.45462 26.4448C7.69696 26.8862 7.5345 27.4399 7.09043 27.6796C6.645 27.9206 6.09127 27.7581 5.85028 27.3167C2.39927 20.9752 4.3529 13.6995 10.513 9.9371C10.9435 9.67445 11.5081 9.81119 11.7721 10.2404C12.0321 10.6709 11.898 11.2355 11.4675 11.4954C6.14407 14.7501 4.47475 20.9603 7.45462 26.4448ZM6.68968 49.9738C3.84791 49.9697 2.35459 47.2132 3.13442 44.9144C3.48642 43.8786 4.28656 42.9851 5.58222 42.5911C7.81881 41.6339 9.55312 39.8076 10.7906 37.1228C12.0754 34.3176 12.8227 30.5918 13.0258 25.9399C12.4991 17.5729 16.3468 11.9814 21.6635 9.16269C21.7204 4.3578 25.6385 0.484375 30.4569 0.484375C35.2861 0.484375 39.2083 4.37269 39.2503 9.18841C44.5656 12.0194 48.4106 17.6068 47.888 25.9399C48.0924 30.5918 48.8397 34.3176 50.1273 37.1228C51.3606 39.8076 53.095 41.6339 55.3315 42.5911C56.6272 42.9837 57.43 43.8786 57.7793 44.9144C58.5632 47.2132 57.0659 49.9711 54.2241 49.9738V49.9778H42.4779C41.4449 55.7399 36.3977 60.0181 30.4569 60.0181C24.5161 60.0181 19.4689 55.7413 18.4359 49.9778H6.68968V49.9738ZM23.567 8.29756C27.9319 6.61335 32.9913 6.62012 37.3508 8.31516C36.8878 4.90612 33.9553 2.31616 30.4569 2.31616C26.9639 2.31752 24.0422 4.89529 23.567 8.29756ZM40.6136 49.9778H20.3001C21.3074 54.7231 25.5125 58.185 30.4569 58.185C35.4012 58.185 39.6063 54.7231 40.6136 49.9778ZM5.13273 47.377C5.44954 47.8306 5.97619 48.1487 6.68968 48.1487V48.146H54.2241V48.1487C56.4417 48.1487 56.9169 44.9617 54.767 44.3308C54.7331 44.32 54.6993 44.3092 54.6654 44.2943C51.9685 43.1557 49.9039 41.0152 48.462 37.8796C47.077 34.8605 46.2728 30.9045 46.0589 26.0116C46.0548 25.9629 46.0548 25.9182 46.0548 25.8695C46.5598 18.082 42.8705 12.9738 37.8747 10.5436C33.2797 8.30975 27.5921 8.30298 22.9998 10.5396C18.0189 12.9657 14.3526 18.0671 14.8562 25.8695C14.8562 25.9006 14.8562 25.9331 14.8562 25.9669C14.645 30.8788 13.8422 34.8483 12.449 37.8796C11.0153 41.0044 8.95742 43.1381 6.27946 44.2807C6.23884 44.3024 6.19417 44.3173 6.14543 44.3322C4.68325 44.7546 4.43007 46.3684 5.13273 47.377Z" fill="#E6AE00"/>
</svg>
