<svg width="80" height="81" viewBox="0 0 80 81" fill="none" xmlns="http://www.w3.org/2000/svg">
<rect x="0.0390625" y="0.126465" width="79.9158" height="79.9158" rx="39.9579" fill="url(#paint0_linear_3508_58757)"/>
<rect x="0.39583" y="0.483232" width="79.2023" height="79.2023" rx="39.6012" stroke="white" stroke-opacity="0.15" stroke-width="0.713534"/>
<mask id="mask0_3508_58757" style="mask-type:luminance" maskUnits="userSpaceOnUse" x="26" y="24" width="29" height="33">
<path d="M26.5156 24.4712H54.6246V56.4722H26.5156V24.4712Z" fill="white"/>
</mask>
<g mask="url(#mask0_3508_58757)">
<path d="M50.7911 24.4712H30.3483C28.2349 24.4712 26.5156 26.1935 26.5156 28.3114V39.1916C26.5156 39.5452 26.8017 39.8313 27.1545 39.8313H32.904V42.0813L32.211 42.6271C30.9287 43.6392 29.4301 43.9365 27.9924 43.4635C27.5847 43.3306 27.1545 43.6429 27.1545 44.0716V48.2715C27.1545 54.2018 33.4918 56.4722 33.5429 56.4722H41.8472C42.2 56.4722 42.4861 56.1854 42.4861 55.8318C42.4861 55.4781 42.2 55.1921 41.8472 55.1921H36.0459C37.8043 53.9676 39.9312 51.7708 39.9312 48.2715C39.9312 48.2715 39.9312 44.0829 39.9312 44.0716C39.9312 43.6452 39.4965 43.3329 39.0933 43.4635C37.6541 43.9365 36.1556 43.6392 34.8732 42.6271L34.1818 42.0813V28.3114C34.1818 27.3286 33.8109 26.4307 33.2035 25.7513H50.7911C52.2003 25.7513 53.346 26.8992 53.346 28.3114V54.5517C53.346 54.9046 53.06 55.1921 52.7071 55.1921H46.9577C46.6048 55.1921 46.3188 55.4781 46.3188 55.8318C46.3188 56.1854 46.6048 56.4722 46.9577 56.4722H52.7071C53.7642 56.4722 54.6238 55.611 54.6238 54.5517V28.3114C54.6238 26.1935 52.9046 24.4712 50.7911 24.4712ZM27.7934 38.5512V28.3114C27.7934 26.8992 28.9391 25.7513 30.3483 25.7513C31.7575 25.7513 32.904 26.8992 32.904 28.3114V38.5512H27.7934ZM33.5429 43.206L34.0827 43.6324C35.4468 44.7083 37.073 45.1475 38.6534 44.8855V48.2715C38.6534 52.7679 34.5467 54.7326 33.5429 55.1463C32.5391 54.7326 28.4324 52.7679 28.4324 48.2715V44.8855C30.012 45.146 31.6389 44.7083 33.0016 43.6324L33.5429 43.206Z" fill="#E6AE00"/>
</g>
<path d="M31.4501 48.6587C31.2001 48.4087 30.7961 48.4087 30.5469 48.6587C30.2969 48.9087 30.2969 49.3134 30.5469 49.5634C30.5469 49.5634 32.4606 51.4809 32.4629 51.4831C32.7256 51.7467 33.1678 51.7256 33.4058 51.4403L36.5996 47.6001C36.8256 47.3291 36.7888 46.9252 36.5178 46.6992C36.2453 46.4725 35.8436 46.51 35.6176 46.781L32.8713 50.0829L31.4501 48.6587Z" fill="#E6AE00"/>
<path d="M41.8122 33.7136L41.563 35.2474C41.5232 35.4892 41.626 35.7324 41.825 35.8736C42.0254 36.0147 42.2882 36.0282 42.5029 35.9103L43.7725 35.2069C43.7725 35.2069 45.0413 35.9096 45.042 35.9103C45.2478 36.0245 45.518 36.0155 45.7192 35.8736C45.919 35.7324 46.0211 35.4892 45.982 35.2474L45.7328 33.7136L46.7846 32.6325C46.952 32.4613 47.0098 32.2098 46.9332 31.9823C46.8574 31.7548 46.6607 31.5889 46.4242 31.5529L44.9955 31.3344L44.3506 29.9582C44.2455 29.7337 44.0202 29.5903 43.7725 29.5903C43.5247 29.5903 43.2995 29.7337 43.1944 29.9582L42.5487 31.3344L41.12 31.5529C40.8843 31.5889 40.6876 31.7548 40.611 31.9823C40.5352 32.2098 40.593 32.4613 40.7596 32.6325L41.8122 33.7136ZM43.0795 32.5476C43.2897 32.5161 43.4707 32.381 43.5608 32.1873L43.7725 31.736L43.9842 32.1873C44.0743 32.381 44.2552 32.5161 44.4655 32.5476L45.0023 32.6302L44.5931 33.0506C44.4512 33.1963 44.3866 33.4005 44.4197 33.6002L44.509 34.152L44.0818 33.9155C43.8904 33.8097 43.6546 33.8097 43.4632 33.9155L43.0352 34.152L43.1253 33.6002C43.1576 33.4005 43.0938 33.1963 42.9519 33.0506L42.5427 32.6302L43.0795 32.5476Z" fill="#E6AE00"/>
<path d="M40.6959 42.3798C40.7041 42.3776 43.765 41.7649 43.765 41.7649C43.765 41.7649 46.8327 42.3791 46.8335 42.3798C47.2164 42.4564 47.5977 42.1411 47.5977 41.7522C47.5977 41.7447 47.5977 38.1192 47.5977 37.0726C48.7712 36.0177 49.5145 34.4914 49.5145 32.7917C49.5145 29.6159 46.9356 27.0317 43.765 27.0317C40.5945 27.0317 38.0156 29.6159 38.0156 32.7917C38.0156 34.4914 38.7589 36.0177 39.9324 37.0726V41.7522C39.9324 42.1463 40.3092 42.4571 40.6959 42.3798ZM46.3199 40.9714L43.8904 40.4841C43.8078 40.4676 43.7215 40.4676 43.6397 40.4841L41.2094 40.9714V37.9442C41.9805 38.3294 42.8461 38.5516 43.765 38.5516C44.6832 38.5516 45.5496 38.3294 46.3199 37.9442V40.9714ZM39.2934 32.7917C39.2934 30.3216 41.2995 28.3118 43.765 28.3118C46.2306 28.3118 48.2367 30.3216 48.2367 32.7917C48.2367 35.2617 46.2306 37.2715 43.765 37.2715C41.2995 37.2715 39.2934 35.2617 39.2934 32.7917Z" fill="#E6AE00"/>
<path d="M51.4398 44.3105H41.8577C41.5048 44.3105 41.2188 44.5966 41.2188 44.9502C41.2188 45.3038 41.5048 45.5906 41.8577 45.5906H51.4398C51.7934 45.5906 52.0787 45.3038 52.0787 44.9502C52.0787 44.5966 51.7934 44.3105 51.4398 44.3105Z" fill="#E6AE00"/>
<path d="M51.4398 46.8711H41.8577C41.5048 46.8711 41.2188 47.1571 41.2188 47.5108C41.2188 47.8644 41.5048 48.1512 41.8577 48.1512H51.4398C51.7934 48.1512 52.0787 47.8644 52.0787 47.5108C52.0787 47.1571 51.7934 46.8711 51.4398 46.8711Z" fill="#E6AE00"/>
<path d="M51.4398 49.4316H41.8577C41.5048 49.4316 41.2188 49.7184 41.2188 50.0721C41.2188 50.4257 41.5048 50.7117 41.8577 50.7117H51.4398C51.7934 50.7117 52.0787 50.4257 52.0787 50.0721C52.0787 49.7184 51.7934 49.4316 51.4398 49.4316Z" fill="#E6AE00"/>
<path d="M41.217 53.2703H51.4381C51.7917 53.2703 52.077 52.9843 52.077 52.6306C52.077 52.277 51.7917 51.9902 51.4381 51.9902H41.217C40.8642 51.9902 40.5781 52.277 40.5781 52.6306C40.5781 52.9843 40.8642 53.2703 41.217 53.2703Z" fill="#E6AE00"/>
<mask id="mask1_3508_58757" style="mask-type:luminance" maskUnits="userSpaceOnUse" x="43" y="55" width="3" height="2">
<path d="M43.6094 55.1035H45.147V56.4722H43.6094V55.1035Z" fill="white"/>
</mask>
<g mask="url(#mask1_3508_58757)">
<path d="M45.0513 55.832C45.0513 55.9169 45.0347 55.9987 45.0025 56.0768C44.9702 56.1556 44.9236 56.2247 44.8636 56.2848C44.8042 56.3448 44.7352 56.3914 44.6563 56.4237C44.5783 56.4559 44.4972 56.4725 44.4123 56.4725C44.3275 56.4725 44.2457 56.4559 44.1676 56.4237C44.0895 56.3914 44.0204 56.3448 43.9604 56.2848C43.9003 56.2247 43.8545 56.1556 43.8222 56.0768C43.7892 55.9987 43.7734 55.9169 43.7734 55.832C43.7734 55.7472 43.7892 55.6654 43.8222 55.5873C43.8545 55.5092 43.9003 55.4394 43.9604 55.3793C44.0204 55.32 44.0895 55.2735 44.1676 55.2412C44.2457 55.2081 44.3275 55.1924 44.4123 55.1924C44.4972 55.1924 44.5783 55.2081 44.6563 55.2412C44.7352 55.2735 44.8042 55.32 44.8636 55.3793C44.9236 55.4394 44.9702 55.5092 45.0025 55.5873C45.0347 55.6654 45.0513 55.7472 45.0513 55.832Z" fill="#E6AE00"/>
</g>
<defs>
<linearGradient id="paint0_linear_3508_58757" x1="39.997" y1="0.126465" x2="39.997" y2="80.0423" gradientUnits="userSpaceOnUse">
<stop stop-color="white" stop-opacity="0"/>
<stop offset="1" stop-color="#E5AE00" stop-opacity="0.2"/>
</linearGradient>
</defs>
</svg>
