<svg width="47" height="53" viewBox="0 0 47 53" fill="none" xmlns="http://www.w3.org/2000/svg">
<mask id="mask0_405_4001" style="mask-type:luminance" maskUnits="userSpaceOnUse" x="0" y="0" width="47" height="53">
<path d="M0 0.000976562H46.3104V52.7236H0V0.000976562Z" fill="white"/>
</mask>
<g mask="url(#mask0_405_4001)">
<path d="M39.9947 0.000976562H6.3145C2.83256 0.000976562 0 2.83848 0 6.32784V24.2533C0 24.8359 0.471268 25.3072 1.05262 25.3072H10.525V29.0143L9.38331 29.9135C7.27064 31.5809 4.80174 32.0707 2.43303 31.2914C1.76138 31.0725 1.05262 31.5871 1.05262 32.2934V39.2127C1.05262 48.9832 11.4935 52.7236 11.5776 52.7236H25.2592C25.8406 52.7236 26.3119 52.2511 26.3119 51.6685C26.3119 51.0859 25.8406 50.6147 25.2592 50.6147H15.7015C18.5984 48.5973 22.1026 44.978 22.1026 39.2127C22.1026 39.2127 22.1026 32.3119 22.1026 32.2934C22.1026 31.5908 21.3864 31.0762 20.7222 31.2914C18.351 32.0707 15.8821 31.5809 13.7694 29.9135L12.6302 29.0143V6.32784C12.6302 4.70871 12.0192 3.22935 11.0185 2.10993H39.9947C42.3164 2.10993 44.204 4.00119 44.204 6.32784V49.5596C44.204 50.1409 43.7327 50.6147 43.1513 50.6147H33.679C33.0976 50.6147 32.6264 51.0859 32.6264 51.6685C32.6264 52.2511 33.0976 52.7236 33.679 52.7236H43.1513C44.8929 52.7236 46.3092 51.3049 46.3092 49.5596V6.32784C46.3092 2.83848 43.4767 0.000976562 39.9947 0.000976562ZM2.10524 23.1983V6.32784C2.10524 4.00119 3.99279 2.10993 6.3145 2.10993C8.6362 2.10993 10.525 4.00119 10.525 6.32784V23.1983H2.10524ZM11.5776 30.8672L12.467 31.5698C14.7144 33.3423 17.3936 34.0659 19.9974 33.6342V39.2127C19.9974 46.6207 13.2314 49.8577 11.5776 50.5392C9.92384 49.8577 3.15787 46.6207 3.15787 39.2127V33.6342C5.76036 34.0634 8.44077 33.3423 10.6858 31.5698L11.5776 30.8672Z" fill="#E6AE00"/>
</g>
<path d="M8.11725 39.8518C7.70536 39.4399 7.03989 39.4399 6.62923 39.8518C6.21734 40.2637 6.21734 40.9304 6.62923 41.3423C6.62923 41.3423 9.78215 44.5014 9.78586 44.5051C10.2188 44.9393 10.9473 44.9046 11.3394 44.4346L16.6013 38.1077C16.9736 37.6612 16.913 36.9957 16.4665 36.6234C16.0175 36.2499 15.3557 36.3117 14.9834 36.7583L10.4588 42.1983L8.11725 39.8518Z" fill="#E6AE00"/>
<path d="M25.1895 15.2287L24.7788 17.7558C24.7132 18.1541 24.8827 18.5548 25.2105 18.7874C25.5408 19.0199 25.9737 19.0422 26.3274 18.848L28.4191 17.689C28.4191 17.689 30.5095 18.8467 30.5107 18.848C30.8496 19.036 31.2949 19.0211 31.6264 18.7874C31.9554 18.5548 32.1237 18.1541 32.0593 17.7558L31.6487 15.2287L33.3816 13.4476C33.6574 13.1655 33.7527 12.7512 33.6265 12.3764C33.5016 12.0016 33.1775 11.7282 32.7879 11.6689L30.434 11.3089L29.3715 9.04164C29.1983 8.6718 28.8273 8.43555 28.4191 8.43555C28.0109 8.43555 27.6398 8.6718 27.4666 9.04164L26.4029 11.3089L24.049 11.6689C23.6606 11.7282 23.3366 12.0016 23.2104 12.3764C23.0855 12.7512 23.1807 13.1655 23.4553 13.4476L25.1895 15.2287ZM27.2774 13.3078C27.6237 13.2558 27.9218 13.0332 28.0703 12.7141L28.4191 11.9707L28.7679 12.7141C28.9163 13.0332 29.2144 13.2558 29.5608 13.3078L30.4452 13.4439L29.771 14.1365C29.5373 14.3765 29.4309 14.7129 29.4853 15.042L29.6325 15.9511L28.9287 15.5615C28.6133 15.3871 28.2249 15.3871 27.9095 15.5615L27.2044 15.9511L27.3528 15.042C27.406 14.7129 27.3009 14.3765 27.0671 14.1365L26.393 13.4439L27.2774 13.3078Z" fill="#E6AE00"/>
<path d="M23.3689 29.5052C23.3826 29.5015 28.4255 28.4922 28.4255 28.4922C28.4255 28.4922 33.4796 29.504 33.4808 29.5052C34.1116 29.6314 34.74 29.1118 34.74 28.4711C34.74 28.4588 34.74 22.4856 34.74 20.7614C36.6733 19.0235 37.8979 16.5088 37.8979 13.7084C37.8979 8.47624 33.649 4.21875 28.4255 4.21875C23.202 4.21875 18.9531 8.47624 18.9531 13.7084C18.9531 16.5088 20.1777 19.0235 22.111 20.7614V28.4711C22.111 29.1205 22.7319 29.6326 23.3689 29.5052ZM32.6347 27.1847L28.6321 26.382C28.496 26.3547 28.3538 26.3547 28.2189 26.382L24.215 27.1847V22.1974C25.4853 22.832 26.9115 23.1981 28.4255 23.1981C29.9382 23.1981 31.3657 22.832 32.6347 22.1974V27.1847ZM21.0584 13.7084C21.0584 9.63895 24.3634 6.32771 28.4255 6.32771C32.4876 6.32771 35.7926 9.63895 35.7926 13.7084C35.7926 17.7779 32.4876 21.0892 28.4255 21.0892C24.3634 21.0892 21.0584 17.7779 21.0584 13.7084Z" fill="#E6AE00"/>
<path d="M41.0504 32.6875H25.2636C24.6822 32.6875 24.2109 33.1588 24.2109 33.7414C24.2109 34.324 24.6822 34.7965 25.2636 34.7965H41.0504C41.633 34.7965 42.103 34.324 42.103 33.7414C42.103 33.1588 41.633 32.6875 41.0504 32.6875Z" fill="#E6AE00"/>
<path d="M41.0504 36.9062H25.2636C24.6822 36.9062 24.2109 37.3775 24.2109 37.9601C24.2109 38.5427 24.6822 39.0152 25.2636 39.0152H41.0504C41.633 39.0152 42.103 38.5427 42.103 37.9601C42.103 37.3775 41.633 36.9062 41.0504 36.9062Z" fill="#E6AE00"/>
<path d="M41.0504 41.123H25.2636C24.6822 41.123 24.2109 41.5956 24.2109 42.1781C24.2109 42.7607 24.6822 43.232 25.2636 43.232H41.0504C41.633 43.232 42.103 42.7607 42.103 42.1781C42.103 41.5956 41.633 41.123 41.0504 41.123Z" fill="#E6AE00"/>
<path d="M24.2089 47.4488H41.0484C41.631 47.4488 42.101 46.9775 42.101 46.3949C42.101 45.8123 41.631 45.3398 41.0484 45.3398H24.2089C23.6275 45.3398 23.1562 45.8123 23.1562 46.3949C23.1562 46.9775 23.6275 47.4488 24.2089 47.4488Z" fill="#E6AE00"/>
<mask id="mask1_405_4001" style="mask-type:luminance" maskUnits="userSpaceOnUse" x="28" y="50" width="3" height="3">
<path d="M28.1484 50.4678H30.6817V52.7227H28.1484V50.4678Z" fill="white"/>
</mask>
<g mask="url(#mask1_405_4001)">
<path d="M30.5271 51.6681C30.5271 51.8079 30.4999 51.9427 30.4467 52.0714C30.3935 52.2012 30.3168 52.315 30.2179 52.414C30.1202 52.5129 30.0064 52.5896 29.8765 52.6428C29.7479 52.696 29.6143 52.7232 29.4745 52.7232C29.3347 52.7232 29.1999 52.696 29.0713 52.6428C28.9426 52.5896 28.8288 52.5129 28.7299 52.414C28.6309 52.315 28.5555 52.2012 28.5023 52.0714C28.4479 51.9427 28.4219 51.8079 28.4219 51.6681C28.4219 51.5283 28.4479 51.3935 28.5023 51.2649C28.5555 51.1362 28.6309 51.0212 28.7299 50.9223C28.8288 50.8245 28.9426 50.7478 29.0713 50.6947C29.1999 50.6402 29.3347 50.6143 29.4745 50.6143C29.6143 50.6143 29.7479 50.6402 29.8765 50.6947C30.0064 50.7478 30.1202 50.8245 30.2179 50.9223C30.3168 51.0212 30.3935 51.1362 30.4467 51.2649C30.4999 51.3935 30.5271 51.5283 30.5271 51.6681Z" fill="#E6AE00"/>
</g>
</svg>
