<svg width="162" height="28" viewBox="0 0 162 28" fill="none" xmlns="http://www.w3.org/2000/svg">
<g clip-path="url(#clip0_742_10542)">
<path d="M-0.015625 26.4816L2.39088 25.7638V4.50165C2.39088 3.01163 1.41224 1.69853 -0.015625 1.27268V1.09375H19.3047V8.41979H19.1258L18.7659 7.48695C17.2219 3.46607 14.6003 1.82354 9.71692 1.82354C9.71692 13.0711 9.43904 12.9962 9.38391 22.0654C9.37174 24.0668 10.655 25.8484 12.5537 26.4816V26.6605H-0.015625V26.4816Z" fill="black"/>
<path d="M16.5678 11.5293C15.7332 14.2615 11.4821 14.956 9.46094 14.9618V15.4766C14.7292 15.2707 16.394 17.7363 16.5678 18.9948H16.9264V11.5293H16.5678Z" fill="black"/>
<path d="M21.2188 26.4865L23.6238 25.7683V2.0067L21.2188 1.28846V1.10938H33.3519V1.28846L30.9468 2.0067V25.7683L33.3519 26.4865V26.6656H21.2188V26.4865Z" fill="black"/>
<path d="M37.5626 4.34818L37.5394 9.29112C37.8629 21.7823 40.8553 25.2638 46.0235 26.3767L46.5261 26.4846V26.6637H34.4297V26.4846L36.8347 25.7663V3.69349L34.4297 1.25186V1.10938H44.408L59.437 16.6776L59.4005 13.4215C59.3292 4.9143 56.9338 1.89885 53.3792 1.36162L52.9132 1.29037V1.11129H62.568L64.1258 2.02016L60.163 2.00862V27.5648H60.0551L37.5626 4.34818Z" fill="black"/>
<path d="M61.6875 26.835L64.1253 26.1072V2.01824L61.6875 1.29037V1.10938H73.5856C81.4092 1.10938 83.847 3.36615 83.847 5.73075C83.847 8.27828 80.9721 10.3213 77.2615 10.8663V10.976C81.1916 11.4131 86.1403 13.3734 86.1403 18.7938C86.1403 23.3786 82.6473 27.018 75.4784 27.018H61.6875V26.837V26.835ZM73.2236 12.4549C75.4438 12.4549 77.4444 11.2225 77.4444 7.11137C77.4444 3.00028 75.4438 1.84108 73.1504 1.84108H71.4771V12.4549H73.2236ZM73.6954 26.2843C76.861 26.2843 78.8251 24.4704 78.8251 20.1764C78.8251 15.374 76.1697 13.1904 73.2948 13.1904H71.4752V26.2843H73.6954Z" fill="black"/>
<path d="M88.5078 14.4998C88.5078 6.23911 94.4752 0.564453 104.082 0.564453C113.141 0.564453 119.145 5.54976 119.145 13.591C119.145 21.6321 113.215 27.5629 103.571 27.5629C94.4752 27.5629 88.5078 22.5776 88.5078 14.4998ZM104.629 26.758C108.085 26.758 111.033 23.6347 111.033 15.3009C111.033 5.621 106.993 1.36934 103.028 1.36934C99.5722 1.36934 96.6241 4.52921 96.6241 12.7899C96.6241 22.541 100.664 26.758 104.629 26.758Z" fill="black"/>
<path d="M158.558 27.0603L119.617 27.016V26.835L122.055 26.1072V2.01824L119.617 1.29037V1.10938H132.28V1.29037L129.478 2.01824V24.8256L148.582 24.8564H152.074L152.047 27.0642L158.558 27.0603Z" fill="black"/>
<path d="M134.734 21.8615L137.175 21.3169V1.77211L134.734 1.22751V1.0918H148.507C155.296 1.0918 159.818 5.71643 159.818 11.5624C159.818 17.4083 155.767 21.9954 149.965 21.9954H134.734V21.8597V21.8615ZM145.701 21.3883C149.784 21.3883 153.339 18.9403 153.339 11.8338C153.339 4.72722 149.602 1.6989 144.61 1.6989V21.3883H145.703H145.701Z" fill="black"/>
<path d="M160.34 27.084L150.547 27.0467L150.599 24.857C151.887 24.857 155.266 25.051 158.019 22.9974C160.351 21.2588 160.972 19.4193 161.306 18.5792C161.399 18.3456 161.698 17.6543 161.698 17.6543H161.91L160.34 27.0878V27.084Z" fill="black"/>
</g>
<defs>
<clipPath id="clip0_742_10542">
<rect width="161" height="28" fill="white" transform="translate(0.5)"/>
</clipPath>
</defs>
</svg>
