<svg width="256" height="30" viewBox="0 0 256 30" fill="none" xmlns="http://www.w3.org/2000/svg">
<path d="M45.8464 7.14076C45.976 7.15944 48.0132 8.30277 48.1373 8.4059C48.7417 8.90791 49.3134 10.9432 49.211 11.7596C49.1682 12.1021 48.8409 13.2443 48.6895 13.5396C48.5638 13.7848 47.2539 14.709 47.4376 14.9721C47.4839 15.0387 48.4522 15.4582 48.8222 15.8205C50.5244 17.4876 50.5011 20.7643 48.5526 22.1839C48.0361 22.5602 46.048 23.2467 45.4226 23.2467H36.3101L35.9922 22.9288V7.14076C39.0295 7.45597 42.9149 6.71697 45.8464 7.14076ZM43.9391 10.3198C42.9269 10.1392 40.9531 10.3198 39.8067 10.3198C39.6358 10.3198 39.8479 13.7105 40.0188 13.7105H44.0454C44.0633 13.7105 44.0107 13.4019 44.1072 13.3591C45.0688 12.9314 46.1044 12.6368 45.3272 11.2615C45.1502 10.9483 44.2843 10.3813 43.9395 10.3198H43.9391ZM46.1032 17.3724C45.5837 16.5945 40.9485 16.4466 40.1542 16.707C39.672 16.865 39.4487 19.9035 40.3363 20.0681C41.2341 20.2343 45.5623 20.1397 46.0483 19.4237C46.3254 19.0158 46.3737 17.7775 46.1032 17.3724Z" fill="#F0B90B"/>
<path d="M65.5481 7.14062C66.1505 7.25581 66.442 8.30147 66.7942 8.74511C68.7326 11.1847 70.655 13.7029 72.5844 16.1978C72.7222 16.376 72.5802 16.5815 73.0709 16.4652V7.14101H76.8854V22.9286C76.8854 23.7634 73.9823 23.5793 73.4316 23.2575C73.067 23.0442 72.8035 22.1608 72.5607 21.8487C70.7391 19.5072 68.6104 16.4056 66.6965 14.3057C66.4657 14.0524 66.2424 13.6224 65.8653 13.7103V22.9286L65.5473 23.2466H62.3687L62.0508 22.9286V7.14062H65.5481Z" fill="#F0B90B"/>
<path d="M102.423 7.14042C103.117 7.335 108.497 15.5469 109.734 16.4646V7.14042H113.548V23.1401C113.548 23.6153 110.86 23.5328 110.374 23.3382L103.173 13.8666L102.529 13.498V23.2464H99.2437L98.9258 22.9284V7.14042C99.8675 7.30776 101.606 6.91199 102.422 7.14042H102.423Z" fill="#F0B90B"/>
<path d="M183.189 7.43895C186.356 8.75857 188.615 12.7396 188.155 16.1572C188.027 17.1098 186.63 19.7771 186.651 20.1441C186.656 20.239 188.064 21.2901 188.098 21.3793C188.323 21.9809 187.524 22.5164 187.163 22.9114C187.066 23.0172 187.113 23.311 187.034 23.3916C186.286 24.1602 185.163 22.1058 184.432 21.9731C184.339 21.9564 184.366 22.2938 184.164 22.3782C180.287 24.0014 175.927 24.0862 173.11 20.5352C167.605 13.5938 174.904 3.98636 183.189 7.43895H183.189ZM182.13 9.98052C175.177 6.65363 170.85 17.8014 177.896 20.3636C177.963 20.3877 177.983 20.6613 178.125 20.6947C178.545 20.7928 180.354 20.7745 180.843 20.7134C181.357 20.6488 182.538 20.2709 182.167 19.6818C181.929 19.3054 179.868 18.1839 179.669 17.6297C179.637 17.541 180.974 16.5428 181.097 16.3961C181.297 16.1584 180.868 15.3882 182.059 16.0436C182.894 16.5035 184.387 19.2121 184.861 17.1059C185.436 14.5515 184.679 11.2005 182.13 9.98091L182.13 9.98052Z" fill="black"/>
<path d="M147.033 7.14062V10.3192H138.345V13.2862H145.974V16.8886H138.345V19.8555H146.927C147.408 19.8555 147.408 23.2462 146.927 23.2462H135.06L134.742 22.9283V7.14062H147.033Z" fill="#F0B90B"/>
<path d="M79.2188 23.2469L85.983 7.23007C86.3298 6.79694 89.3204 6.78955 89.624 7.06546C91.7601 11.4773 94.1105 16.8975 95.931 21.5191C96.1345 22.0526 96.3863 22.664 96.384 23.2469H92.8874C92.2632 23.2469 91.5332 20.3131 91.2732 19.6706L84.5136 19.7472L83.0332 23.2469H79.2188ZM85.7885 16.4655H89.8151C89.4088 15.5401 89.1628 14.2127 88.5616 13.5445L87.802 11.589L85.7889 16.4655H85.7885Z" fill="#F0B90B"/>
<path d="M235.3 7.14046C236.437 7.26966 238.443 8.51418 238.972 9.60693C239.221 10.1191 239.116 10.4242 239.235 10.7958C239.293 10.9768 239.601 10.9542 239.637 11.1044C240.085 12.9723 239.104 15.064 237.624 16.2463C237.394 16.788 235.967 16.7378 236.038 17.2087C236.031 18.1407 240.215 22.4778 239.855 23.2452C239.738 23.3585 237.002 23.2803 236.613 23.0468C235.401 21.1613 233.852 19.5284 232.863 17.5247H229.472C229.444 17.5247 229.26 18.0259 229.26 18.0543V22.9285C229.26 23.5188 226.293 23.1869 226.293 23.0343V7.14046C229.152 7.37668 232.501 6.82213 235.3 7.14046ZM235.088 9.89568C233.678 9.53882 230.841 10.1603 229.26 9.89568V14.9815H234.664C235.386 14.9815 236.636 13.5199 236.663 12.7283C236.696 11.7804 236.131 10.1595 235.088 9.89529V9.89568Z" fill="black"/>
<path d="M131.053 8.50059C131.175 8.60372 131.751 9.13219 131.765 9.17928C131.922 9.71086 129.628 12.1614 129.249 11.9995C129.229 11.9909 129.252 11.7372 129.075 11.5987C127 9.97238 123.705 9.59567 121.957 11.8598C118.873 15.8568 122.301 21.7287 127.656 19.6534C128.242 19.4265 129.325 18.3248 129.734 18.405C129.867 18.431 131.595 20.118 131.671 20.2819C132.137 21.2766 129.935 22.5074 129.166 22.8585C124.922 24.7941 118.954 22.8709 117.36 18.2738C114.359 9.62058 124.659 3.11157 131.053 8.50059Z" fill="#F0B90B"/>
<path d="M254.902 7.14062C254.995 7.23363 254.999 9.68375 254.585 9.68375H246.108L245.79 10.0017V13.7103H253.843V16.4652H245.79V20.3855L246.108 20.7035H255.115C255.073 21.1557 255.3 23.2466 254.797 23.2466H243.035V7.14062H254.902Z" fill="black"/>
<path d="M194.08 7.14062V16.9948C194.08 17.9253 195.107 19.7905 195.951 20.2579C198.28 21.5471 202.133 20.4159 202.133 17.4186V7.14062H205.1V17.4186C205.1 19.0313 203.56 21.4977 202.198 22.3578C197.567 25.2815 191.113 22.6422 191.113 16.7831V7.14101H194.08V7.14062Z" fill="black"/>
<path d="M217.048 8.12493C219.343 12.5648 221.588 17.7803 223.44 22.3894C223.504 22.5871 223.617 23.1638 223.538 23.2452C223.458 23.3265 221.592 23.295 221.302 23.2561C219.832 23.0588 219.63 19.3065 218.778 19.2049C217.97 19.1088 212.117 19.0629 211.592 19.2077C211.339 19.2773 210.319 22.7143 209.843 23.0494C209.478 23.3066 207.579 23.3658 207.207 23.1467C206.658 22.8241 207.596 21.8769 207.624 21.8068C209.579 16.8821 211.801 12.0795 213.841 7.19446C214.13 6.85667 215.952 6.83643 216.396 6.97147C217.028 7.1641 216.829 7.72176 217.049 8.12531L217.048 8.12493ZM212.729 16.8887C212.904 17.0662 217.016 16.8887 217.709 16.8887C217.733 16.8887 218.133 16.5805 217.921 16.4723L215.48 10.7428C214.64 10.9008 214.937 11.3833 214.683 11.9499C214.395 12.5909 212.482 16.6369 212.729 16.8887Z" fill="black"/>
<path d="M10.0176 18.496C10.6955 19.105 14.368 22.9362 14.6886 22.9806C15.2576 23.0596 19.8352 17.5519 20.222 17.5141C20.6423 17.4733 23.9015 20.5596 23.896 20.8095C23.8824 21.4535 15.6732 28.9101 14.6906 29.8231L5.47266 20.8087C6.12099 20.6067 8.54893 17.5308 8.78203 17.5153C9.5222 17.4659 9.61794 18.1371 10.0172 18.4963L10.0176 18.496Z" fill="#F0B90B"/>
<path d="M15.2946 1.13256C18.1028 3.81929 20.8572 6.4885 23.5988 9.24995C23.7023 9.40794 23.7268 9.5815 23.707 9.76635C23.686 9.96093 21.1133 12.45 20.9382 12.5387C20.6354 12.692 20.5474 12.6492 20.2455 12.6138C19.4831 12.5247 14.8693 6.86676 14.5887 7.14267C14.5727 7.15824 14.6031 7.37227 14.414 7.55401C12.7601 9.14721 11.1353 10.7727 9.55421 12.4336C9.19463 12.6912 8.88797 12.6492 8.49493 12.5068C8.31514 12.4414 5.79847 10.0353 5.73582 9.8543C5.65098 9.60914 5.64709 9.47488 5.78252 9.24956L14.5895 0.361645C14.802 0.25813 15.1374 0.982347 15.2946 1.13256Z" fill="#F0B90B"/>
<path d="M167.925 9.38606C167.778 9.62344 166.923 10.9594 166.827 10.973C166.435 11.0295 164.469 9.62072 163.658 9.48607C161.726 9.16541 158.919 9.78261 160.017 12.2849C160.51 13.4099 164.218 13.9174 165.509 14.4159C168.451 15.5511 169.724 18.332 168.013 21.1852C165.533 24.8814 159.279 23.447 156.389 21.0988C156.127 20.6381 157.458 19.1784 157.826 19.097C158.734 18.8958 158.911 19.6239 159.547 19.9458C161.092 20.7288 164.19 21.4993 165.44 19.929C166.978 17.9949 164.493 17.0275 162.974 16.5278C162.007 16.2095 160.916 16.2122 159.781 15.695C157.158 14.4992 155.905 12.0424 157.456 9.40201C159.64 5.83035 165.137 6.46856 168.037 8.72488C168.308 9.06656 168.09 9.11871 167.925 9.38606H167.925Z" fill="black"/>
<path d="M57.6036 7.14062V22.9286L57.2856 23.2466H54.1066L53.7891 22.9286V7.14062H57.6036Z" fill="#F0B90B"/>
<path d="M29.6194 15.3882L26.147 18.5789C25.6469 17.7402 22.715 15.6863 22.8357 14.8916L26.1326 11.8371C26.4497 11.806 29.7089 15.0772 29.6198 15.3882H29.6194Z" fill="#F0B90B"/>
<path d="M3.70627 12.0957C3.9674 12.2759 6.55177 14.8657 6.53854 15.0708C6.50624 15.5744 3.49574 18.5674 3.24746 18.5257C2.92368 18.4712 -0.0864322 15.5156 0.00190602 15.121L3.13383 11.8957C3.34669 11.7805 3.54244 11.9825 3.70627 12.0957Z" fill="#F0B90B"/>
<path d="M15.1468 12.0947C15.4282 12.6376 17.9849 14.7449 17.981 15.0725C17.9752 15.5609 14.9449 18.5664 14.6865 18.5302C14.4409 18.4959 11.3047 15.4438 11.3884 14.8916C11.4125 14.7316 11.8756 14.6569 12.0534 14.4701C12.5403 13.9592 12.778 13.8728 13.1057 13.5649C13.5739 13.1256 14.5615 11.4308 15.1464 12.0947H15.1468Z" fill="#F0B90B"/>
</svg>
