<svg width="121" height="36" viewBox="0 0 121 36" fill="none" xmlns="http://www.w3.org/2000/svg">
<g clip-path="url(#clip0_3339_20747)">
<path d="M25.6543 9.21764C25.6543 9.38402 25.6694 9.44452 25.6846 9.3462C25.6997 9.25545 25.6997 9.11933 25.6846 9.0437C25.6619 8.97564 25.6467 9.05127 25.6543 9.21764Z" fill="#151515"/>
<path d="M66.9219 17.9909V24.1543H68.0487H69.1831L69.2057 22.0519C69.2284 20.01 69.236 19.9495 69.4024 19.6546C69.6973 19.163 69.9393 18.9513 70.4233 18.7849C70.9981 18.5959 71.1266 18.5959 71.6333 18.7849C72.019 18.9286 72.4425 19.2992 72.6467 19.6622C72.8433 20.0176 72.9038 20.7436 72.8811 22.4376L72.8584 24.1543H73.9777H75.0894V22.1956C75.0894 21.1217 75.0516 20.0554 75.0137 19.8361C74.923 19.3445 74.5071 18.4673 74.2121 18.1119C73.955 17.8094 73.2517 17.2724 72.9341 17.1287C72.019 16.7204 71.0888 16.6523 70.1964 16.9321C69.8939 17.0304 69.5763 17.159 69.478 17.227C69.3872 17.2951 69.2814 17.348 69.2511 17.348C69.2133 17.348 69.1906 16.1078 69.1906 14.5877V11.8274H68.0562H66.9219V17.9909Z" fill="#151515"/>
<path d="M94.1484 17.9909V24.1543H95.245H96.3416V17.9909V11.8274H95.245H94.1484V17.9909Z" fill="#151515"/>
<path d="M97.5547 17.9909V24.1543H98.6891H99.8234V17.9909V11.8274H98.6891H97.5547V17.9909Z" fill="#151515"/>
<path d="M41.3633 13.68V14.8521H42.9892H44.6152L44.6303 19.4804L44.653 24.1162H45.8252H46.9973L47.02 19.4804L47.0352 14.8521H48.6611H50.287V13.68V12.5078H45.8252H41.3633V13.68Z" fill="#151515"/>
<path d="M76.5425 15.9259L76.5652 19.3517L78.7356 19.3895L80.8985 19.4273L81.1934 19.6618C81.5564 19.9491 81.7455 20.3197 81.7455 20.7281C81.7455 21.1365 81.6245 21.4087 81.3068 21.7112C81.0119 22.0061 80.664 22.112 80.0212 22.112H79.5448L79.5675 23.1103L79.5902 24.1161H80.1952C81.3522 24.1236 82.1765 23.806 82.8798 23.0876C83.8025 22.1423 84.1428 20.7432 83.7344 19.5332C83.5378 18.9358 83.3563 18.6408 82.8874 18.1417L82.5773 17.809L82.774 17.446C83.0992 16.8334 83.2202 15.9259 83.0765 15.1848C83.0235 14.9125 82.7588 14.3226 82.5395 13.9823C82.3883 13.7479 81.7455 13.1202 81.6547 13.1126C81.6245 13.1126 81.5564 13.0673 81.5035 13.0143C81.0875 12.6211 80.3767 12.5076 78.3272 12.5076H76.5273L76.5425 15.9259ZM80.1876 14.6403C80.7018 14.905 80.9136 15.2075 80.9136 15.699C80.9136 16.1679 80.8153 16.4023 80.4977 16.7124C80.3464 16.8561 80.2254 16.9695 80.2103 16.9771C80.2027 16.9846 79.8473 17.0073 79.4162 17.0376L78.6448 17.083V15.7746V14.4663L79.2725 14.4815C79.7187 14.489 79.9758 14.5344 80.1876 14.6403Z" fill="#151515"/>
<path d="M101.027 13.6804V14.8525H102.162H103.296V13.6804V12.5082H102.162H101.027V13.6804Z" fill="#151515"/>
<path d="M54.0517 16.7054C54.0366 16.7205 53.84 16.7507 53.6131 16.7734C52.9476 16.849 52.0477 17.3406 51.5107 17.9154C51.0343 18.4145 50.6032 19.1783 50.5276 19.6699C50.4595 20.0555 50.4595 21.1824 50.5276 21.4697C50.5957 21.742 51.0192 22.6117 51.1855 22.8159C52.025 23.8368 53.0081 24.3057 54.3013 24.3057C55.118 24.3057 55.7533 24.1166 56.3734 23.678C56.7818 23.3982 57.1675 23.0654 57.1675 23.0049C57.1675 22.9898 57.0465 22.9142 56.9028 22.8385C56.7591 22.7554 56.6381 22.6646 56.6381 22.6268C56.6381 22.5965 56.5927 22.5663 56.5398 22.5663C56.4793 22.5663 56.3734 22.4982 56.2978 22.415C56.2222 22.3319 56.1314 22.2638 56.0936 22.2638C56.0558 22.2638 55.9272 22.1882 55.8062 22.0974L55.5869 21.9386L55.2844 22.1352C54.4072 22.7175 53.424 22.4755 52.8493 21.5454C52.7661 21.4168 52.7056 21.2958 52.7056 21.2731C52.7056 21.2504 53.8854 21.2353 55.3222 21.2353C57.5759 21.2429 57.9464 21.2277 57.9994 21.1294C58.0901 20.9479 58.0674 20.1236 57.9464 19.6169C57.659 18.3615 56.6381 17.2877 55.3222 16.8642C55.0651 16.781 54.1047 16.66 54.0517 16.7054ZM55.2088 18.8985C55.481 19.0724 55.6625 19.2615 55.8138 19.5337L56.0255 19.9194H54.324H52.6224L52.8342 19.5564C53.235 18.8682 53.598 18.6489 54.3315 18.6489C54.7475 18.6489 54.876 18.6867 55.2088 18.8985Z" fill="#151515"/>
<path d="M62.0073 16.9251C61.735 17.0159 61.4325 17.1369 61.3266 17.1974C60.9561 17.394 60.3738 17.8629 60.1923 18.1049C60.0864 18.2334 59.9654 18.3847 59.92 18.43C59.8141 18.551 59.4436 19.3149 59.3831 19.5417C59.315 19.8064 59.315 21.2735 59.3831 21.5458C59.5495 22.1735 60.1998 23.1112 60.699 23.4515C60.8729 23.565 61.0241 23.686 61.0241 23.7087C61.0241 23.7767 61.6594 24.0414 62.1812 24.1927C62.514 24.291 62.8165 24.3137 63.3912 24.2834C64.3214 24.2456 64.4121 24.2229 65.0323 23.9204C65.5238 23.686 65.6826 23.5499 65.5692 23.4742C65.5087 23.4364 65.3575 23.149 65.0474 22.5062C64.9793 22.3777 64.8961 22.2642 64.8659 22.2642C64.8356 22.2642 64.8054 22.2189 64.8054 22.1584C64.8054 22.1054 64.7525 22.0147 64.692 21.9617C64.6012 21.8861 64.571 21.8937 64.5331 21.9844C64.5105 22.0525 64.3365 22.181 64.1475 22.2718C63.3836 22.6424 62.3022 22.3852 61.7275 21.6895C61.4174 21.3038 61.3191 20.9937 61.3342 20.4492C61.372 19.6098 61.9846 18.9367 62.9223 18.7099C63.3836 18.5964 63.9962 18.7174 64.3592 18.9745C64.4953 19.0804 64.6315 19.1636 64.6617 19.1636C64.7146 19.1636 64.9793 18.7174 65.418 17.9082L65.6297 17.515L65.3499 17.3259C64.5407 16.7663 63.0206 16.5848 62.0073 16.9251Z" fill="#151515"/>
<path d="M107.458 16.8339C107.314 16.8717 107.163 16.9095 107.117 16.9171C106.618 17.0532 105.416 17.817 105.265 18.0969C105.227 18.18 105.144 18.2935 105.098 18.3464C104.962 18.4977 104.834 18.7019 104.652 19.08C104.304 19.806 104.274 21.2277 104.592 21.8252C104.645 21.9235 104.682 22.0142 104.682 22.0369C104.652 22.2487 105.476 23.2469 105.983 23.625C106.581 24.0712 107.397 24.3057 108.327 24.3057C109.28 24.3057 110.105 24.0712 110.657 23.6402C111.239 23.1789 111.995 22.2638 111.995 22.0142C111.995 21.9537 112.018 21.8857 112.048 21.8554C112.237 21.6739 112.343 20.1841 112.215 19.6925C112.109 19.322 111.814 18.6338 111.761 18.6338C111.723 18.6338 111.693 18.596 111.693 18.5582C111.693 18.4674 111.67 18.4447 111.292 18.0288C111.035 17.7414 110.415 17.2877 110.105 17.144C109.953 17.0759 109.613 16.9474 109.613 16.9625C109.613 16.9625 109.462 16.9171 109.265 16.8642C108.887 16.7507 107.866 16.728 107.458 16.8339ZM109.069 18.7699C109.326 18.8758 109.832 19.39 110.006 19.7152C110.173 20.0329 110.173 20.9857 110.006 21.3639C109.477 22.5739 107.912 22.8234 107.019 21.8554C106.671 21.4773 106.52 21.0538 106.52 20.479C106.528 19.8135 107.027 19.0649 107.647 18.7775C107.98 18.6262 108.698 18.6262 109.069 18.7699Z" fill="#151515"/>
<path d="M116.636 16.917C116.394 17.0002 116.031 17.1817 115.842 17.3178C115.645 17.4615 115.472 17.5749 115.456 17.5749C115.434 17.5749 115.358 17.4388 115.283 17.2724L115.146 16.9699H114.284H113.43V20.5621V24.1543H114.488H115.547L115.562 22.3166C115.562 21.3108 115.57 20.4335 115.562 20.373C115.547 20.0705 115.819 19.5034 116.152 19.163C116.576 18.7244 117.022 18.5959 117.619 18.7244C118.232 18.853 118.852 19.5941 118.912 20.2596C118.928 20.3806 118.935 21.3108 118.943 22.3166L118.95 24.1543H119.979H121L120.97 21.9385C120.954 20.7285 120.917 19.6319 120.886 19.5109C120.765 19.0118 120.349 18.3009 119.941 17.8925C119.366 17.3102 119.275 17.2497 118.686 17.0077C118.005 16.7355 117.256 16.7052 116.636 16.917Z" fill="#151515"/>
<path d="M85.3228 17.0835C85.3001 17.1515 85.3001 18.1271 85.3152 19.2615C85.353 21.3109 85.353 21.3185 85.5648 21.8479C85.6858 22.1352 85.8068 22.3848 85.8446 22.3999C85.8749 22.415 85.9051 22.468 85.9051 22.5209C85.9051 22.7554 86.8731 23.6175 87.5613 23.9956C88.1058 24.2981 89.3158 24.3964 90.0267 24.1998C90.7149 24.0107 91.0325 23.8141 91.7812 23.141C92.0912 22.8612 92.6433 21.9084 92.7643 21.4319C92.7945 21.326 92.8248 20.2824 92.8399 19.1027L92.8702 16.97H91.7736H90.6695V18.8985C90.6695 20.6303 90.6544 20.8572 90.5182 21.1975C90.3367 21.6664 90.1099 21.931 89.7469 22.1201C89.0662 22.468 88.1663 22.1806 87.7579 21.4773C87.5159 21.0538 87.5084 20.9857 87.5008 18.838L87.4932 16.97H86.4345C85.5497 16.97 85.3606 16.9927 85.3228 17.0835Z" fill="#151515"/>
<path d="M101.065 17.0609C101.042 17.1139 101.034 18.7247 101.042 20.638L101.065 24.1167L102.184 24.1394L103.296 24.1621V20.5624V16.9702H102.199C101.39 16.9702 101.087 16.9929 101.065 17.0609Z" fill="#151515"/>
<path d="M16.4806 0.642979C15.5428 0.70348 13.7354 0.975727 13.5766 1.07404C13.5312 1.09673 13.4329 1.11185 13.3648 1.10429C13.2892 1.08917 13.2287 1.10429 13.2287 1.14211C13.2287 1.17236 13.1531 1.21017 13.0548 1.21017C12.8203 1.22529 11.5725 1.6261 10.9599 1.88323C8.68363 2.83611 6.86106 4.0461 5.17463 5.7401C3.56381 7.35092 2.48238 8.92392 1.52194 11.049C-0.429188 15.3747 -0.429188 20.7592 1.52194 25.085C2.48238 27.21 3.56381 28.783 5.17463 30.3939C6.86106 32.0879 8.68363 33.2979 10.9599 34.2507C13.1682 35.1734 15.9739 35.6347 18.5224 35.4834C20.1181 35.3927 21.2222 35.196 22.7196 34.7347C24.2094 34.2734 26.0471 33.3962 27.3328 32.5265C30.2821 30.53 32.6114 27.5806 33.8668 24.2531C34.6911 22.0751 35.0238 20.1089 34.9633 17.7645C34.9482 17.0536 34.9331 16.3881 34.9331 16.2747C34.9331 16.1612 34.9028 16.0554 34.865 16.0251C34.8196 16.0024 34.8045 15.9344 34.8348 15.8739C34.8801 15.7453 34.7667 15.0874 34.5096 13.9605C33.5869 9.9751 31.114 6.32242 27.6731 3.84192C26.1606 2.76048 23.8313 1.67148 21.9256 1.17236C21.1466 0.960606 19.7703 0.71104 19.4678 0.718605C19.2863 0.726166 17.9779 0.642979 17.6528 0.605167C17.5318 0.590042 17.0024 0.612728 16.4806 0.642979ZM25.5858 7.22992C25.79 8.93148 25.7824 9.33229 25.5858 11.238L25.5404 11.6767H22.9389H20.3374V20.366V29.0553L19.9442 29.1082C19.7249 29.1309 19.3543 29.1914 19.1199 29.2368C18.3712 29.3729 15.1269 29.2217 14.8244 29.0402C14.7639 29.0024 14.7412 26.5445 14.7412 20.3282V11.6767H12.1321C10.0146 11.6767 9.52306 11.654 9.52306 11.5784C9.52306 11.5179 9.47013 11.1397 9.40963 10.7238C9.28863 9.89948 9.25081 8.83317 9.31888 8.42479C9.34913 8.28111 9.38694 8.00885 9.40963 7.81979C9.46256 7.3736 9.53819 6.96523 9.576 6.8896C9.59113 6.85936 13.1909 6.83667 17.5696 6.83667H25.5329L25.5858 7.22992Z" fill="#15406B"/>
</g>
<defs>
<clipPath id="clip0_3339_20747">
<rect width="121" height="35.0144" fill="white" transform="translate(0 0.558594)"/>
</clipPath>
</defs>
</svg>
