<svg width="125" height="41" viewBox="0 0 125 41" fill="none" xmlns="http://www.w3.org/2000/svg">
<path d="M20.3214 0C11.3745 0 3.77751 5.78276 1.06641 13.8152H21.3764C24.1578 13.8152 26.412 16.0695 26.412 18.8509C26.412 20.2412 25.8483 21.5001 24.9369 22.4115C24.0256 23.322 22.7667 23.8858 21.3764 23.8858H20.3367L30.4791 37.9188C36.5529 34.4071 40.6398 27.8398 40.6398 20.3184C40.6398 9.09659 31.5432 0 20.3214 0ZM22.6085 7.10968C14.7098 5.4711 9.91167 12.1996 9.91167 12.1996L7.45418 11.849C7.45418 11.849 12.4081 2.99375 22.7843 4.82713C33.1604 6.6605 35.501 16.2827 35.501 16.2827H33.3682C33.3682 16.2827 30.5073 8.74749 22.6085 7.10968ZM29.1422 33.537L28.0307 31.6456C31.9313 29.7534 33.1604 25.1508 33.1604 25.1508H35.4032C33.9403 30.5723 29.1422 33.537 29.1422 33.537Z" fill="url(#paint0_linear_3129_18859)"/>
<g style="mix-blend-mode:luminosity">
<path d="M17.6195 23.885L16.3346 22.1074H21.0838C21.9829 22.1074 22.7972 21.743 23.387 21.1532C23.9767 20.5635 24.3411 19.7492 24.3411 18.8501C24.3411 17.0511 22.8828 15.5928 21.0838 15.5928H0.552302C0.190976 17.1091 0 18.6912 0 20.3175C0 20.9203 0.0259797 21.5176 0.0779199 22.1074C0.12986 22.7078 0.208545 23.3006 0.312444 23.885C1.99837 33.4055 10.3143 40.6359 20.3184 40.6359C23.225 40.6359 25.9896 40.0255 28.4899 38.9255L17.6195 23.885ZM7.56802 29.7915C7.56802 29.7915 6.20826 27.9413 5.47185 23.885C5.37101 23.3334 5.2824 22.7414 5.20983 22.1074C5.04407 20.6559 4.96539 18.9868 5.0326 17.0877H7.34648C7.34648 17.0877 7.03709 19.2901 7.40759 22.1074C7.48245 22.6788 7.58559 23.2761 7.72461 23.885C8.88344 28.9512 12.551 34.8539 23.4832 33.9655L24.3411 36.1113C24.3411 36.1113 12.5999 38.2563 7.56802 29.7915Z" fill="#434343"/>
</g>
<path d="M51.2401 3.24118V12.0005H48.8173V3.24118H45.7422V1.14453H54.3151V3.24118H51.2401Z" fill="#434343"/>
<path d="M62.6768 1.14453H65.0996V12.0005H62.6768V7.72955H58.3593V12.0005H55.9365V1.14453H58.3593V5.6795H62.6768V1.14453Z" fill="#434343"/>
<path d="M75.4387 1.14453V3.3033H70.034V5.53972H74.8951V7.6053H70.034V9.85726H75.6096V12.0005H67.6112V1.14453H75.4387Z" fill="#434343"/>
<path d="M51.6283 23.8573C52.819 23.8573 53.7923 23.3862 54.5481 22.444L56.1012 24.0436C54.8691 25.431 53.4144 26.1247 51.737 26.1247C50.0701 26.1247 48.693 25.5967 47.6059 24.5406C46.5291 23.4845 45.9907 22.1541 45.9907 20.5492C45.9907 18.934 46.5394 17.588 47.6369 16.5112C48.7448 15.4344 50.096 14.896 51.6904 14.896C53.4713 14.896 54.9622 15.5742 56.1633 16.9306L54.6568 18.6389C53.8906 17.6864 52.9381 17.2101 51.7992 17.2101C50.888 17.2101 50.1063 17.5104 49.454 18.1109C48.8121 18.7011 48.4911 19.5035 48.4911 20.5182C48.4911 21.5225 48.7966 22.3301 49.4074 22.9409C50.0183 23.5518 50.7586 23.8573 51.6283 23.8573Z" fill="#F15928"/>
<path d="M65.9441 20.5182C65.9441 19.5449 65.6335 18.7166 65.0123 18.0332C64.391 17.3499 63.6249 17.0082 62.7137 17.0082C61.8129 17.0082 61.0519 17.3499 60.4307 18.0332C59.8095 18.7166 59.4989 19.5449 59.4989 20.5182C59.4989 21.4811 59.8095 22.3042 60.4307 22.9875C61.0519 23.6605 61.8129 23.997 62.7137 23.997C63.6249 23.997 64.391 23.6605 65.0123 22.9875C65.6335 22.3042 65.9441 21.4811 65.9441 20.5182ZM66.7672 24.5095C65.6697 25.576 64.3186 26.1092 62.7137 26.1092C61.1089 26.1092 59.7577 25.576 58.6602 24.5095C57.5627 23.4328 57.014 22.0971 57.014 20.5026C57.014 18.9081 57.5627 17.5777 58.6602 16.5112C59.7577 15.4344 61.1089 14.896 62.7137 14.896C64.3186 14.896 65.6697 15.4344 66.7672 16.5112C67.8647 17.5777 68.4135 18.9081 68.4135 20.5026C68.4135 22.0971 67.8647 23.4328 66.7672 24.5095Z" fill="#F15928"/>
<path d="M70.3109 15.1445H72.7337V26.0005H70.3109V15.1445Z" fill="#F15928"/>
<path d="M82.8461 15.1445H85.2689V26.0005H82.8461L77.6744 19.198V26.0005H75.2516V15.1445H77.5191L82.8461 22.1333V15.1445Z" fill="#F15928"/>
<path d="M55.4489 31.7477C55.4489 33.4871 54.7603 34.6105 53.3833 35.1178L56.1322 39.0005H53.1503L50.7431 35.5371H49.0658V39.0005H46.643V28.1445H50.7586C52.4463 28.1445 53.6473 28.4293 54.3617 28.9987C55.0865 29.5682 55.4489 30.4845 55.4489 31.7477ZM50.8363 33.4405C51.6646 33.4405 52.2288 33.3059 52.5291 33.0367C52.8294 32.7675 52.9795 32.343 52.9795 31.7632C52.9795 31.173 52.8242 30.7692 52.5136 30.5518C52.203 30.3344 51.6594 30.2256 50.8829 30.2256H49.0658V33.4405H50.8363Z" fill="#434343"/>
<path d="M65.5992 28.1445V30.3033H60.1945V32.5397H65.0556V34.6053H60.1945V36.8573H65.77V39.0005H57.7717V28.1445H65.5992Z" fill="#434343"/>
<path d="M71.6142 28.1445C73.2811 28.1445 74.4925 28.4707 75.2483 29.123C76.0145 29.7649 76.3976 30.7589 76.3976 32.1049C76.3976 33.4405 76.0042 34.4189 75.2173 35.0402C74.4407 35.6614 73.2501 35.972 71.6452 35.972H70.2009V39.0005H67.7781V28.1445H71.6142ZM71.8316 33.8754C72.6392 33.8754 73.1879 33.7149 73.4778 33.3939C73.7677 33.0626 73.9127 32.5863 73.9127 31.9651C73.9127 31.3335 73.7212 30.8883 73.3381 30.6294C72.9653 30.3602 72.3803 30.2256 71.5831 30.2256H70.2009V33.8754H71.8316Z" fill="#434343"/>
<path d="M81.0065 36.205C81.4103 36.702 81.9538 36.9504 82.6372 36.9504C83.3205 36.9504 83.8589 36.702 84.2524 36.205C84.6562 35.6976 84.8581 35.0091 84.8581 34.1394V28.1445H87.2809V34.217C87.2809 35.7908 86.846 37.0022 85.9763 37.8512C85.1066 38.6899 83.9935 39.1092 82.6372 39.1092C81.2808 39.1092 80.1626 38.6847 79.2826 37.8357C78.4128 36.9867 77.978 35.7805 77.978 34.217V28.1445H80.4008V34.1394C80.4008 35.0091 80.6027 35.6976 81.0065 36.205Z" fill="#434343"/>
<path d="M94.3936 39.0005H89.6412V28.1445H93.8655C94.6006 28.1445 95.2322 28.2325 95.7603 28.4086C96.2987 28.5846 96.7025 28.8227 96.9717 29.123C97.4583 29.6821 97.7016 30.3137 97.7016 31.0177C97.7016 31.8667 97.4272 32.4983 96.8785 32.9125C96.6921 33.0574 96.5627 33.1506 96.4902 33.192C96.4177 33.2231 96.2883 33.28 96.1019 33.3628C96.7749 33.5078 97.3082 33.8132 97.7016 34.2792C98.1054 34.7347 98.3073 35.3042 98.3073 35.9875C98.3073 36.7434 98.0485 37.4112 97.5308 37.991C96.9303 38.664 95.8845 39.0005 94.3936 39.0005ZM92.064 32.5397H93.2132C93.8862 32.5397 94.3832 32.4672 94.7042 32.3223C95.0355 32.1773 95.2012 31.8667 95.2012 31.3904C95.2012 30.9038 95.051 30.5829 94.7508 30.4275C94.4505 30.2722 93.9432 30.1946 93.2288 30.1946H92.064V32.5397ZM92.064 36.9504H93.7257C94.4195 36.9504 94.9371 36.8676 95.2788 36.702C95.6308 36.5259 95.8069 36.1894 95.8069 35.6925C95.8069 35.1851 95.6205 34.8538 95.2478 34.6985C94.8854 34.5328 94.3004 34.45 93.4928 34.45H92.064V36.9504Z" fill="#434343"/>
<path d="M100.194 39.0005V28.1445H102.616V36.8417H107.244V39.0005H100.194Z" fill="#434343"/>
<path d="M108.865 28.1445H111.288V39.0005H108.865V28.1445Z" fill="#434343"/>
<path d="M118.791 36.8573C119.982 36.8573 120.955 36.3862 121.711 35.444L123.264 37.0436C122.032 38.431 120.577 39.1247 118.9 39.1247C117.233 39.1247 115.856 38.5967 114.769 37.5406C113.692 36.4845 113.154 35.1541 113.154 33.5492C113.154 31.934 113.702 30.588 114.8 29.5112C115.908 28.4344 117.259 27.896 118.853 27.896C120.634 27.896 122.125 28.5742 123.326 29.9306L121.82 31.6389C121.054 30.6864 120.101 30.2101 118.962 30.2101C118.051 30.2101 117.269 30.5104 116.617 31.1109C115.975 31.7011 115.654 32.5035 115.654 33.5182C115.654 34.5225 115.96 35.3301 116.57 35.9409C117.181 36.5518 117.922 36.8573 118.791 36.8573Z" fill="#434343"/>
<defs>
<linearGradient id="paint0_linear_3129_18859" x1="2.41828" y1="4.96631e-07" x2="39.2879" y2="37.9188" gradientUnits="userSpaceOnUse">
<stop stop-color="#F3570D"/>
<stop offset="1" stop-color="#99391B"/>
</linearGradient>
</defs>
</svg>
