<svg width="377" height="18" viewBox="0 0 377 18" fill="none" xmlns="http://www.w3.org/2000/svg">
<g clip-path="url(#clip0_3508_55539)">
<path d="M7.51904 2.82265C7.56417 2.82265 7.63404 2.8338 7.63556 2.86187C7.67513 3.66654 7.64047 4.51906 7.59682 5.31612L7.48302 5.38511L5.20396 5.4404L5.13261 5.32576L5.16135 7.61752C5.24893 7.70172 5.20159 7.7352 5.09372 7.77071L2.8728 7.77037L2.80432 7.65387L2.77592 10.0045C2.01301 10.0792 1.13766 10.1101 0.359713 10.0403C0.359544 8.01353 0.360221 5.98485 0.359375 3.95737C0.440197 3.33564 0.872546 2.9033 1.49443 2.82231C3.50213 2.84226 5.51221 2.79678 7.51904 2.82265Z" fill="#8D8D8D"/>
<path d="M9.61437 2.93913C9.86141 3.05681 9.91957 3.1635 9.78904 3.25921C9.83455 3.26445 9.90316 3.27933 9.90534 3.31112C9.91908 3.50302 9.95286 4.91098 9.90534 4.97946C9.87597 5.0219 9.8406 5.05183 9.78904 5.0635C9.88 5.03052 9.97788 5.06079 10.0827 5.15429C10.7252 5.17204 11.3698 5.16731 12.0167 5.13992L12.1175 5.26741C12.4335 6.22983 12.4277 6.82636 12.0593 7.77035L10.2608 7.76883C10.135 7.75412 10.0166 7.71557 9.90572 7.65403C9.11455 7.81366 8.31025 7.81617 7.51925 7.65403C6.73892 7.80636 5.94105 7.79944 5.15107 7.73282C5.15496 6.95385 5.14887 6.15155 5.13281 5.32574L7.51957 5.26792L7.51925 2.82297C8.23499 2.83227 8.91301 2.767 9.61437 2.93913Z" fill="#B3B3B3"/>
<path d="M2.92968 10.0408C3.12447 9.84438 5.20843 9.90138 5.18171 10.1106C5.17832 10.1371 5.16176 10.1619 5.14147 10.1863C5.16886 10.1834 5.19541 10.1829 5.21907 10.1908C5.3168 10.2236 5.28975 12.1373 5.2578 12.2354C5.23936 12.2922 5.21772 12.3203 5.14147 12.3401C5.91517 12.3242 6.76198 12.3191 7.5744 12.3149L7.81638 12.429L11.7626 12.4836C11.9073 12.5057 12.0734 12.5402 12.01 12.7183C11.4797 13.9491 10.4857 14.6354 9.17091 14.8559C6.71309 14.865 4.25208 14.8988 1.79395 14.8729C1.69554 14.8719 1.53508 14.9102 1.47472 14.8137L1.75337 14.7136C2.88285 14.6886 4.00624 14.6941 5.12337 14.7297L5.25813 14.8137C5.21299 14.8137 5.14349 14.8027 5.14181 14.774C5.12405 14.494 5.09175 12.8502 5.14181 12.7002L5.25813 12.631C4.4746 12.6013 3.67619 12.5808 2.86256 12.5695L2.75519 12.4273C2.71004 12.4272 2.64123 12.4168 2.63886 12.3878C2.60065 11.9421 2.57562 10.7872 2.63886 10.3719L2.75519 10.3028C2.01967 10.2675 1.26658 10.2576 0.495894 10.2737L0.426908 10.1574C0.388526 10.1403 0.389371 10.1209 0.426908 10.0992C1.22025 10.0723 2.01579 10.0529 2.81335 10.041C2.84616 9.92961 2.89688 9.92961 2.92968 10.0408Z" fill="#989898"/>
<path d="M0.420483 10.1563L2.65053 10.1543C2.68891 10.166 2.74877 10.2858 2.74877 10.3019V12.4264C3.44607 12.6019 4.29977 12.3884 4.99267 12.4817C5.06961 12.492 5.25171 12.5563 5.25171 12.6302V14.8129C4.01791 14.7457 2.69077 14.9028 1.46829 14.8129C0.943287 14.7742 0.481015 14.4322 0.420652 13.8816C0.359783 12.6435 0.359614 11.4018 0.420483 10.1563Z" fill="#939393"/>
<path d="M5.13569 5.3252L5.19352 7.65382C5.96879 7.65517 6.74688 7.65094 7.52213 7.65348C7.71571 8.40015 7.69359 9.28783 7.52213 10.0399C8.33308 9.88368 9.15613 9.88063 9.96676 10.0399C9.96387 10.0125 9.96338 9.98597 9.97134 9.96232C10.0041 9.8646 11.9183 9.88978 12.0159 9.92357L12.1205 10.0399C12.4308 10.9354 12.409 11.5334 12.1205 12.4263L12.0323 12.5395C10.5258 12.4881 9.01716 12.4384 7.5066 12.3902C7.47275 11.6413 7.44469 10.895 7.4224 10.151L7.52213 10.0399L7.3813 10.1568C6.6436 10.2007 5.90775 10.199 5.1734 10.1519C4.60849 9.79321 3.56406 9.88809 2.92391 10.0401C2.88519 10.0407 2.8463 10.0394 2.80758 10.0401C2.78289 9.26266 2.78289 8.46713 2.80758 7.65365L5.1362 7.65398L5.13569 5.3252Z" fill="#A0A0A0"/>
<path d="M7.52027 10.0404C7.52196 10.1257 7.57761 10.2395 7.58066 10.3576C7.58807 10.6495 7.52501 12.3437 7.64486 12.4188L12.1185 12.4269C12.0857 12.5283 12.0439 12.6207 12.0021 12.7179L11.7429 12.5403C10.2684 12.5599 8.7852 12.4587 7.3189 12.4245C6.70327 12.4101 5.91804 12.4984 5.33453 12.4299C5.27585 12.423 5.13382 12.4034 5.13382 12.3397V10.186C5.13382 10.1759 5.04404 10.0834 5.01648 10.0705C4.83692 9.98665 3.2597 10.0352 2.92188 10.0406C2.96482 9.94474 3.01825 9.88708 3.12697 9.8673C3.40241 9.8171 4.39358 9.83334 4.7008 9.86223C4.94039 9.88474 5.00278 10.0158 5.21955 10.042C5.87357 10.1211 6.82688 10.0367 7.52027 10.0404Z" fill="#9B9B9B"/>
<path d="M9.90689 7.654C10.555 7.65468 11.2116 7.63236 11.8595 7.654C11.9718 7.65772 12.093 7.59465 12.0605 7.7705C11.9073 8.16292 11.7196 8.53951 11.4241 8.84738C11.7318 9.19182 11.9677 9.60422 12.1189 10.0406H9.9652C9.92008 10.0416 9.85043 10.0325 9.84786 10.0042C9.80917 9.56056 9.72175 8.08651 9.79228 7.72552L9.90689 7.654Z" fill="#AAAAAA"/>
<path d="M12.1201 5.26676C11.5125 5.18712 10.6263 5.37463 10.0551 5.26541C9.97906 5.25087 9.79186 5.10123 9.79186 5.06301V3.25855C9.79186 3.20174 9.65626 3.00814 9.61719 2.93848C10.8344 3.23759 11.7343 4.09197 12.1201 5.26676Z" fill="#BBBBBB"/>
<path d="M0.425177 10.1569C0.520033 11.3411 0.298026 12.7221 0.425177 13.8821C0.32863 13.8216 0.367181 13.6613 0.365998 13.5629C0.351795 12.4091 0.367181 11.2522 0.367012 10.0987C0.38409 10.0605 0.403534 10.0612 0.425177 10.0987V10.1569Z" fill="#9B9B9B"/>
<path d="M2.8118 10.0397C2.03333 10.0516 1.21802 10.1515 0.425352 10.098H0.367188V10.0397L2.75397 10.0401L2.8118 7.65332V10.0397Z" fill="#939393"/>
<path d="M9.90697 7.65341L9.96518 10.0398C9.15118 10.0398 8.33434 10.0443 7.52055 10.0398C7.50513 9.24584 7.53189 8.44759 7.52055 7.65341C8.31504 7.65612 9.11248 7.65274 9.90697 7.65341Z" fill="#A6A6A6"/>
<path d="M21.0769 9.49309C20.9712 9.43439 20.7187 9.40534 20.6751 9.31264C21.9086 8.82367 21.7459 7.08177 20.5978 6.596C20.3452 6.48914 19.9254 6.39631 19.6562 6.37348C18.8074 6.30163 17.8665 6.42674 17.0078 6.37348V12.5434H19.9472C20.1398 12.5434 20.6519 12.4162 20.8486 12.3388C22.0638 11.8608 22.2479 10.1434 21.0769 9.49309ZM18.3465 7.53762C18.6738 7.56265 19.0437 7.5033 19.365 7.53762C19.9533 7.60052 20.1895 7.81745 20.0887 8.43629C20.0456 8.70094 19.6575 8.87643 19.4232 8.87643H18.3463L18.3465 7.53762ZM20.4279 10.8713C20.3866 11.0944 20.2314 11.214 20.0245 11.2821C19.9739 11.2987 19.6217 11.3794 19.5978 11.3794H18.3465C18.4126 11.0355 18.2572 10.3004 18.3465 10.0115C18.37 9.93557 18.4792 9.92963 18.5472 9.92118C18.7491 9.89649 19.4753 9.95857 19.7137 9.98309C20.2681 10.0399 20.5349 10.2923 20.4279 10.8713Z" fill="#8D8D8D"/>
<path d="M29.8079 6.27312C25.9168 6.71443 26.2616 12.7935 30.4316 12.6006C34.7095 12.4026 34.3958 5.75302 29.8079 6.27312ZM30.4896 11.3784C27.9421 11.6258 27.7994 7.58944 30.1593 7.43439C32.5079 7.28002 32.7686 11.1573 30.4896 11.3784Z" fill="#8D8D8D"/>
<path d="M44.2767 6.37305L41.9775 8.876V6.37305H40.6678C40.5382 6.37305 40.6387 6.50916 40.6387 6.51863V12.3975C40.6387 12.407 40.5382 12.5431 40.6678 12.5431H41.9775V10.7677C41.9775 10.7214 42.5287 10.1822 42.6166 10.0983L44.393 12.5431H45.9356L43.5552 9.088L45.9356 6.37305H44.2767Z" fill="#8D8D8D"/>
<path d="M38.9289 8.35139L39.7625 7.39152C39.0307 6.50721 37.9249 6.1447 36.7913 6.2732C35.5809 6.4105 34.4431 7.39845 34.1555 8.58492C33.3195 12.0342 37.5132 14.0223 39.7099 11.4169L38.8708 10.5072C37.9807 11.7124 35.914 11.5716 35.5305 10.0049C34.9864 7.78193 37.5549 6.70741 38.9289 8.35139Z" fill="#8D8D8D"/>
<path d="M70.4998 10.9713L68.1612 6.38251L67.4141 6.37305V12.5429H67.9378V7.30436L70.3336 11.8349L70.6464 11.8485L73.1185 7.30436V12.5429H73.6423V6.37305L72.8951 6.38251L70.4998 10.9713Z" fill="#8D8D8D"/>
<path d="M24.167 6.37305H22.8281V12.5429H26.7862V11.3206H24.167V6.37305Z" fill="#8D8D8D"/>
<path d="M58.1656 11.5536L54.4428 6.45841C54.2657 6.29389 53.9692 6.40109 53.7422 6.37319V12.543H54.3241V7.36267L54.4647 7.48407L58.079 12.4846C58.2289 12.61 58.5515 12.516 58.7477 12.543V6.37319H58.1656V11.5536Z" fill="#8D8D8D"/>
<path d="M62.9211 6.33174C58.4788 6.5174 59.2102 13.337 63.7032 12.5283C67.4385 11.8559 66.9284 6.16435 62.9211 6.33174ZM64.4411 11.6361C62.3636 12.9639 59.8048 10.8238 60.6763 8.51172C60.9662 7.74241 61.8082 7.02313 62.6273 6.91204C65.4777 6.52552 66.8129 10.1197 64.4411 11.6361Z" fill="#8D8D8D"/>
<path d="M49.2457 6.33199C45.1809 6.50192 45.3353 12.5832 49.4024 12.6015C53.6362 12.6205 53.6537 6.14769 49.2457 6.33199ZM49.1121 12.019C46.1746 11.7226 46.1281 7.26533 49.0113 6.91364C52.9482 6.43327 52.9021 12.4014 49.1121 12.019Z" fill="#8D8D8D"/>
<path d="M75.9727 6.37305H75.3906V12.5429H75.9727V6.37305Z" fill="#8D8D8D"/>
</g>
<g clip-path="url(#clip1_3508_55539)">
<path d="M106.345 5.54053C106.399 5.54831 107.247 6.02432 107.298 6.06725C107.55 6.27625 107.788 7.12359 107.745 7.4635C107.728 7.60607 107.591 8.08158 107.528 8.20453C107.476 8.30661 106.931 8.69143 107.007 8.80092C107.026 8.82866 107.43 9.00327 107.584 9.15413C108.292 9.84818 108.283 11.2124 107.471 11.8034C107.256 11.9601 106.429 12.2459 106.168 12.2459H102.375L102.242 12.1135V5.54053C103.507 5.67177 105.124 5.3641 106.345 5.54053ZM105.551 6.86404C105.129 6.78887 104.308 6.86404 103.83 6.86404C103.759 6.86404 103.847 8.2757 103.919 8.2757H105.595C105.602 8.2757 105.58 8.14719 105.621 8.12937C106.021 7.95132 106.452 7.8287 106.129 7.25612C106.055 7.1257 105.694 6.88964 105.551 6.86404ZM106.452 9.80022C106.235 9.47638 104.306 9.4148 103.975 9.5232C103.774 9.58898 103.681 10.854 104.051 10.9225C104.425 10.9917 106.226 10.9523 106.429 10.6542C106.544 10.4845 106.564 9.96889 106.452 9.80022Z" fill="#8D8D8D"/>
<path d="M114.55 5.54004C114.801 5.588 114.922 6.02333 115.069 6.20803C115.876 7.2237 116.676 8.27212 117.479 9.31077C117.537 9.385 117.477 9.47051 117.682 9.42211V5.5402H119.27V12.113C119.27 12.4605 118.061 12.3839 117.832 12.2499C117.68 12.1611 117.57 11.7933 117.469 11.6634C116.711 10.6886 115.825 9.39731 115.028 8.52309C114.932 8.41758 114.839 8.23855 114.682 8.27517V12.113L114.549 12.2453H113.226L113.094 12.113V5.54004H114.55Z" fill="#8D8D8D"/>
<path d="M129.901 5.54018C130.19 5.62118 132.43 9.04001 132.945 9.42205V5.54018H134.533V12.2013C134.533 12.3991 133.414 12.3648 133.211 12.2837L130.214 8.34046L129.945 8.18704V12.2455H128.578L128.445 12.1131V5.54018C128.837 5.60984 129.561 5.44507 129.901 5.54018Z" fill="#8D8D8D"/>
<path d="M163.525 5.66458C164.844 6.21397 165.784 7.8714 165.592 9.29422C165.539 9.69081 164.957 10.8013 164.966 10.9541C164.968 10.9936 165.554 11.4312 165.568 11.4683C165.662 11.7188 165.329 11.9417 165.179 12.1062C165.138 12.1502 165.158 12.2726 165.125 12.3061C164.814 12.626 164.347 11.7708 164.042 11.7155C164.003 11.7085 164.015 11.849 163.931 11.8842C162.316 12.5599 160.501 12.5952 159.328 11.1169C157.037 8.22701 160.075 4.22718 163.525 5.66458ZM163.084 6.7227C160.189 5.33763 158.388 9.97873 161.321 11.0454C161.349 11.0555 161.357 11.1694 161.416 11.1833C161.591 11.2242 162.345 11.2165 162.548 11.1911C162.762 11.1642 163.254 11.0069 163.099 10.7616C163 10.6049 162.142 10.138 162.059 9.90728C162.046 9.87033 162.603 9.45477 162.654 9.39368C162.737 9.29471 162.558 8.97409 163.054 9.24691C163.402 9.43842 164.023 10.566 164.221 9.68923C164.46 8.62573 164.145 7.23046 163.084 6.7227Z" fill="#8D8D8D"/>
<path d="M148.469 5.54004V6.86338H144.851V8.09859H148.028V9.59836H144.851V10.8335H148.425C148.625 10.8335 148.625 12.2452 148.425 12.2452H143.484L143.352 12.1129V5.54004H148.469Z" fill="#8D8D8D"/>
<path d="M120.242 12.2455L123.058 5.57727C123.203 5.39695 124.448 5.39387 124.574 5.50874C125.463 7.3455 126.442 9.60206 127.2 11.5262C127.285 11.7482 127.389 12.0028 127.389 12.2455H125.933C125.673 12.2455 125.369 11.0241 125.261 10.7566L122.447 10.7885L121.83 12.2455H120.242ZM122.977 9.42221H124.654C124.485 9.03695 124.382 8.48433 124.132 8.20611L123.816 7.392L122.977 9.42221Z" fill="#8D8D8D"/>
<path d="M185.218 5.54026C185.692 5.59405 186.527 6.11218 186.748 6.56712C186.851 6.78033 186.807 6.90734 186.857 7.06207C186.881 7.13741 187.009 7.12801 187.024 7.19055C187.211 7.96821 186.802 8.83906 186.186 9.33125C186.09 9.55677 185.496 9.53589 185.526 9.73193C185.522 10.12 187.265 11.9256 187.115 12.2451C187.066 12.2923 185.927 12.2597 185.765 12.1625C185.26 11.3775 184.616 10.6977 184.204 9.86349H182.792C182.78 9.86349 182.704 10.0722 182.704 10.084V12.1132C182.704 12.359 181.469 12.2208 181.469 12.1573V5.54026C182.659 5.6386 184.053 5.40773 185.218 5.54026ZM185.13 6.68733C184.543 6.53876 183.362 6.7975 182.704 6.68733V8.80473H184.953C185.254 8.80473 185.774 8.19619 185.786 7.86663C185.8 7.47197 185.564 6.79734 185.13 6.68733Z" fill="#8D8D8D"/>
<path d="M141.814 6.10651C141.865 6.14944 142.105 6.36946 142.111 6.38907C142.176 6.61038 141.221 7.63059 141.064 7.56319C141.055 7.55963 141.065 7.45399 140.991 7.39632C140.127 6.71925 138.755 6.56243 138.028 7.50503C136.743 9.16909 138.171 11.6137 140.4 10.7497C140.644 10.6552 141.095 10.1966 141.265 10.23C141.321 10.2408 142.04 10.9432 142.072 11.0114C142.266 11.4255 141.349 11.9379 141.029 12.084C139.262 12.8899 136.777 12.0893 136.114 10.1754C134.864 6.57279 139.152 3.86292 141.814 6.10651Z" fill="#8D8D8D"/>
<path d="M193.378 5.54004C193.417 5.57876 193.418 6.59881 193.245 6.59881H189.717L189.584 6.73117V8.27517H192.937V9.42211H189.584V11.0542L189.717 11.1866H193.466C193.449 11.3749 193.544 12.2453 193.334 12.2453H188.438V5.54004H193.378Z" fill="#8D8D8D"/>
<path d="M168.055 5.54004V9.64262C168.055 10.0299 168.483 10.8065 168.834 11.0011C169.804 11.5378 171.408 11.0669 171.408 9.81903V5.54004H172.643V9.81903C172.643 10.4904 172.002 11.5173 171.435 11.8753C169.507 13.0925 166.82 11.9938 166.82 9.55444V5.5402L168.055 5.54004Z" fill="#8D8D8D"/>
<path d="M177.622 5.95015C178.577 7.79858 179.511 9.96989 180.283 11.8888C180.31 11.9711 180.357 12.2112 180.323 12.2451C180.291 12.279 179.514 12.2658 179.393 12.2497C178.781 12.1675 178.697 10.6054 178.342 10.5631C178.006 10.5231 175.569 10.5039 175.35 10.5642C175.245 10.5932 174.82 12.0241 174.622 12.1636C174.47 12.2707 173.679 12.2953 173.525 12.2041C173.296 12.0698 173.687 11.6755 173.699 11.6463C174.512 9.59597 175.438 7.59655 176.287 5.56277C176.407 5.42214 177.165 5.41372 177.351 5.46994C177.614 5.55014 177.53 5.78214 177.622 5.95015ZM175.824 9.59875C175.896 9.67259 177.608 9.59875 177.897 9.59875C177.907 9.59875 178.074 9.4704 177.985 9.42539L176.969 7.04003C176.619 7.10581 176.743 7.30671 176.637 7.5426C176.517 7.80942 175.72 9.49389 175.824 9.59875Z" fill="#8D8D8D"/>
<path d="M91.4312 10.2677C91.7135 10.5213 93.2424 12.1164 93.3759 12.1348C93.6128 12.1677 95.5185 9.87468 95.6796 9.85899C95.8546 9.84198 97.2115 11.1269 97.2092 11.231C97.2035 11.499 93.7858 14.6034 93.3767 14.9835L89.5391 11.2306C89.809 11.1465 90.8198 9.86596 90.9168 9.85948C91.225 9.83888 91.265 10.1182 91.4312 10.2677Z" fill="#8D8D8D"/>
<path d="M93.6296 3.03902C94.7987 4.15757 95.9454 5.26883 97.0868 6.41849C97.1299 6.48427 97.1401 6.55653 97.1319 6.63349C97.1231 6.71449 96.052 7.75075 95.9791 7.78769C95.8531 7.85151 95.8165 7.83369 95.6907 7.81897C95.3733 7.78186 93.4525 5.42631 93.3357 5.54118C93.3291 5.54766 93.3417 5.63677 93.2629 5.71243C92.5744 6.37572 91.898 7.05246 91.2397 7.74394C91.09 7.85118 90.9623 7.83369 90.7987 7.7744C90.7238 7.74718 89.6761 6.74544 89.65 6.6701C89.6147 6.56803 89.6131 6.51214 89.6694 6.41833L93.336 2.71806C93.4245 2.67497 93.5641 2.97648 93.6296 3.03902Z" fill="#8D8D8D"/>
<path d="M157.168 6.47486C157.107 6.57369 156.751 7.12989 156.711 7.13556C156.548 7.15906 155.729 6.57256 155.392 6.5165C154.587 6.383 153.419 6.63996 153.876 7.68172C154.081 8.15008 155.625 8.36138 156.163 8.56891C157.387 9.04153 157.917 10.1993 157.205 11.3872C156.173 12.926 153.569 12.3288 152.366 11.3512C152.256 11.1594 152.811 10.5517 152.964 10.5178C153.342 10.434 153.415 10.7372 153.68 10.8711C154.323 11.1971 155.613 11.5179 156.133 10.8642C156.774 10.059 155.739 9.65618 155.107 9.44815C154.704 9.31566 154.25 9.31675 153.778 9.10143C152.686 8.60357 152.164 7.58078 152.81 6.48151C153.719 4.99453 156.007 5.26023 157.215 6.1996C157.328 6.34185 157.237 6.36356 157.168 6.47486Z" fill="#8D8D8D"/>
<path d="M111.236 5.54004V12.113L111.104 12.2453H109.781L109.648 12.113V5.54004H111.236Z" fill="#8D8D8D"/>
<path d="M99.5914 8.97458L98.1457 10.303C97.9376 9.95377 96.7169 9.09868 96.7671 8.76786L98.1398 7.49619C98.2718 7.48323 99.6285 8.84515 99.5914 8.97458Z" fill="#8D8D8D"/>
<path d="M88.8008 7.60247C88.9095 7.67748 89.9855 8.75568 89.98 8.84109C89.9665 9.05075 88.7132 10.2968 88.6098 10.2794C88.475 10.2568 87.2218 9.02627 87.2586 8.86196L88.5625 7.51919C88.6511 7.47124 88.7326 7.55532 88.8008 7.60247Z" fill="#8D8D8D"/>
<path d="M93.5655 7.60248C93.6826 7.82849 94.747 8.70582 94.7454 8.84224C94.743 9.04557 93.4814 10.2968 93.3738 10.2817C93.2715 10.2675 91.9659 8.9968 92.0007 8.76686C92.0107 8.70032 92.2035 8.6692 92.2776 8.59143C92.4803 8.37872 92.5792 8.34275 92.7156 8.21457C92.9106 8.03166 93.3219 7.32608 93.5655 7.60248Z" fill="#8D8D8D"/>
</g>
<g clip-path="url(#clip2_3508_55539)">
<path d="M206.945 10.366C205.208 8.02594 207.715 4.62514 210.539 6.08699C210.903 6.27541 211.578 7.08911 211.801 7.0679C212.188 7.03099 212.741 6.2867 213.188 6.23106C212.858 5.30221 211.659 4.4662 210.746 4.17339C206.19 2.71071 202.538 7.87086 205.446 11.5689C208.067 14.9019 213.345 13.3059 213.906 9.22334H211.898C211.516 11.641 208.432 12.3696 206.945 10.366Z" fill="#8D8D8D"/>
<path d="M234.922 4.09833C233.912 3.95619 232.284 4.09833 231.192 4.09833C231.177 4.09833 230.977 4.29666 230.977 4.31181V12.9959C230.977 13.2722 232.912 13.2826 232.986 13.2102C233.051 13.1455 232.919 11.8497 232.984 11.7849C233.047 11.7224 234.434 11.8164 234.766 11.7737C239.013 11.225 239.026 4.67568 234.922 4.09833ZM236.004 8.30567C235.855 9.99889 234.418 10.1906 232.985 10.0774V5.80672C234.922 5.59461 236.19 6.19814 236.004 8.30567Z" fill="#8D8D8D"/>
<path d="M249.484 7.37174C249.114 7.32491 248.919 7.05194 248.518 6.97812C246.11 6.53546 244.485 8.69394 244.957 10.9389C245.356 12.8363 247.855 14.1499 249.482 12.7806C249.285 13.5794 250.658 13.0754 251.205 13.2087V4.09766H249.484V7.37174ZM248.984 11.3606C247.466 12.4355 245.764 10.2916 247.094 8.98676C248.588 7.52159 250.553 10.2503 248.984 11.3606Z" fill="#8D8D8D"/>
<path d="M258.896 7.08438C258.783 7.14993 258.836 7.38077 258.727 7.37664C258.534 7.36975 258.131 7.01964 257.713 6.95794C254.064 6.41805 252.849 11.6393 256.022 13.0483C257.052 13.5056 257.894 13.4808 258.8 12.7808C258.602 13.5797 259.975 13.0756 260.523 13.2089V7.08741C260.523 6.9618 259.248 6.87944 258.896 7.08466L258.896 7.08438ZM258.302 11.3606C256.783 12.4354 255.082 10.2915 256.412 8.98669C257.906 7.52153 259.87 10.2502 258.302 11.3606Z" fill="#8D8D8D"/>
<path d="M242.341 6.97938C237.192 6.1048 236.955 13.3637 241.658 13.3637C242.22 13.3637 244.481 12.6739 244.312 12.0043C244.294 11.9346 243.241 11.1669 243.156 11.1382C242.859 11.0382 241.87 11.8889 241.3 11.6426C241.227 11.333 241.475 11.3272 241.628 11.1859C242.03 10.8132 244.527 9.25713 244.555 9.01417C244.643 8.26356 243.054 7.10058 242.341 6.97938ZM240.009 10.3612C239.943 9.00398 241.014 8.28697 242.303 8.79768C242.398 8.92604 240.215 10.5766 240.009 10.3612Z" fill="#8D8D8D"/>
<path d="M219.423 7.51482C216.134 5.16654 212.438 9.65207 215.242 12.446C218.377 15.5692 223.257 10.2523 219.423 7.51482ZM217.309 11.615C215.728 11.3897 215.644 8.99345 217.014 8.68359C219.54 8.11256 219.553 11.9348 217.309 11.615Z" fill="#8D8D8D"/>
<path d="M226.459 6.95302C226.061 7.01693 225.833 7.36951 225.591 7.3764C225.481 7.37943 225.537 7.15163 225.423 7.08496C224.958 6.81364 224.292 6.94972 223.797 7.08772V13.2092H225.519V9.86376C225.519 9.36879 226.356 8.68344 226.883 8.64516C227.499 8.60081 228.388 9.08921 228.388 9.72135V13.2092H230.109V9.57894C230.109 9.52275 229.811 8.64351 229.751 8.51074C229.16 7.20562 227.843 6.73073 226.459 6.95302Z" fill="#8D8D8D"/>
<path d="M221.359 7.08789V13.2094H223.081V7.08789C222.489 6.88984 221.95 6.89011 221.359 7.08789Z" fill="#8D8D8D"/>
<path d="M251.922 7.08789V13.2094H253.643V7.08789C253.052 6.88984 252.512 6.89011 251.922 7.08789Z" fill="#8D8D8D"/>
<path d="M263.965 11.3584H261.383V13.7786H263.965V11.3584Z" fill="#383838"/>
<path d="M252.596 3.98032C251.277 4.25743 251.73 6.0187 252.84 5.94708C254.252 5.85591 253.962 3.69329 252.596 3.98032Z" fill="#8D8D8D"/>
<path d="M221.89 3.97975C220.754 4.3092 221.152 6.14981 222.397 5.92641C223.76 5.68208 223.198 3.5999 221.89 3.97975Z" fill="#8D8D8D"/>
</g>
<g clip-path="url(#clip3_3508_55539)">
<path d="M290.211 10.523C289.906 10.7095 289.55 10.7435 289.279 10.5908C288.94 10.3873 288.736 9.92937 288.736 9.30187V7.38537C288.736 6.46951 288.38 5.80806 287.769 5.63846C286.735 5.33318 285.954 6.6052 285.666 7.08008L283.834 10.0142V6.40169C283.818 5.57064 283.546 5.07878 283.037 4.92615C282.698 4.8244 282.189 4.87527 281.698 5.62153L277.61 12.1681C277.067 11.1336 276.779 9.98026 276.779 8.81001C276.779 4.85831 279.951 1.65284 283.834 1.65284C287.718 1.65284 290.89 4.85831 290.89 8.81001V8.82699V8.84392C290.924 9.60716 290.686 10.2177 290.211 10.523ZM292.45 8.81001V8.79308V8.7761C292.433 3.97638 288.566 0.0585938 283.834 0.0585938C279.086 0.0585938 275.219 3.97639 275.219 8.81001C275.219 13.6267 279.086 17.5614 283.834 17.5614C286.022 17.5614 288.091 16.7304 289.686 15.2209C290.008 14.9156 290.025 14.4238 289.72 14.1016C289.431 13.7794 288.94 13.7624 288.617 14.0507C288.617 14.0507 288.617 14.0507 288.6 14.0677C287.311 15.2888 285.581 15.9842 283.801 15.9842C281.714 15.9842 279.849 15.0683 278.56 13.6098L282.24 7.70763V10.4382C282.24 11.7441 282.749 12.1681 283.173 12.2868C283.597 12.4056 284.242 12.3208 284.937 11.2184L286.955 7.94505C287.023 7.84332 287.074 7.74154 287.142 7.67367V9.33578C287.142 10.5569 287.634 11.5406 288.482 12.0155C289.245 12.4564 290.211 12.4056 291.009 11.9137C291.992 11.2692 292.518 10.1499 292.45 8.81001ZM304.458 5.82504C304.662 5.94374 304.848 6.2321 304.848 6.48649C304.848 6.89351 304.509 7.23275 304.119 7.23275C304.017 7.23275 303.932 7.19879 303.847 7.18186C303.39 6.84267 302.813 6.62218 302.202 6.62218C300.761 6.62218 299.777 7.79243 299.777 9.25098C299.777 10.7095 300.778 11.8629 302.202 11.8629C302.915 11.8629 303.559 11.5745 304.034 11.1166C304.153 11.0318 304.305 10.9809 304.458 10.9809C304.848 10.9809 305.153 11.2862 305.153 11.6763C305.153 11.9307 305.001 12.1512 304.814 12.2699C304.119 12.8635 303.186 13.2536 302.219 13.2536C300.014 13.2536 298.217 11.4389 298.217 9.20009C298.217 6.96137 300.014 5.14665 302.219 5.14665C303.033 5.12967 303.814 5.38406 304.458 5.82504ZM308.495 7.52105C310.004 7.52105 311.259 8.79308 311.259 10.3703C311.259 11.9307 309.987 13.2705 308.495 13.2705C306.917 13.2705 305.611 11.9477 305.611 10.3703C305.611 8.79308 306.917 7.52105 308.495 7.52105ZM308.478 11.8629C309.139 11.8629 309.699 11.2353 309.699 10.3873C309.699 9.53929 309.139 8.99659 308.478 8.99659C307.765 8.99659 307.172 9.52236 307.172 10.3873C307.172 11.2184 307.765 11.8629 308.478 11.8629ZM312.209 12.3886V8.38602C312.209 7.94505 312.548 7.58887 312.989 7.58887C313.413 7.58887 313.769 7.94505 313.769 8.38602V12.3886C313.769 12.8296 313.413 13.1857 312.989 13.1857C312.565 13.1857 312.209 12.8126 312.209 12.3886ZM312.09 6.07943C312.09 5.55366 312.497 5.14665 312.989 5.14665C313.498 5.14665 313.905 5.57064 313.905 6.07943C313.905 6.58822 313.498 6.99528 312.989 6.99528C312.48 6.97831 312.09 6.57129 312.09 6.07943ZM316.754 10.2177V12.3886C316.754 12.8296 316.398 13.1857 315.974 13.1857C315.55 13.1857 315.194 12.8296 315.194 12.3886V8.19944C315.194 7.86025 315.465 7.58887 315.804 7.58887C316.144 7.58887 316.398 7.87723 316.398 8.19944C317.025 7.60585 317.585 7.52105 318.111 7.52105C319.671 7.52105 320.367 8.6913 320.367 10.0311V12.3886C320.367 12.8296 320.01 13.1857 319.586 13.1857C319.162 13.1857 318.806 12.8296 318.806 12.3886V10.2177C318.806 9.53929 318.721 8.96268 317.738 8.96268C317.042 8.96268 316.754 9.53929 316.754 10.2177ZM325.421 11.0488C325.234 11.0488 325.115 10.964 325.014 10.8452L323.199 8.87788V12.3886C323.199 12.8296 322.843 13.1857 322.419 13.1857C321.995 13.1857 321.639 12.8296 321.639 12.3886V5.43495C321.689 5.31625 321.808 5.23145 321.927 5.23145C322.063 5.23145 322.181 5.35015 322.266 5.43495L325.166 8.6913C325.251 8.79308 325.353 8.84392 325.421 8.84392C325.472 8.84392 325.59 8.79308 325.675 8.6913L328.575 5.43495C328.66 5.35015 328.762 5.23145 328.914 5.23145C329.05 5.23145 329.169 5.31625 329.203 5.43495V12.3886C329.203 12.8296 328.863 13.1857 328.423 13.1857C327.999 13.1857 327.643 12.8296 327.643 12.3886V8.87788L325.828 10.8452C325.692 10.964 325.573 11.0488 325.421 11.0488ZM332.917 11.8629C333.612 11.8629 334.206 11.2353 334.206 10.3873C334.206 9.53929 333.596 8.97961 332.917 8.97961C332.239 8.97961 331.679 9.55627 331.679 10.3873C331.679 11.2014 332.222 11.8629 332.917 11.8629ZM334.579 12.5752L334.545 12.3886C334.24 12.9822 333.273 13.2536 332.662 13.2536C331.204 13.2536 330.119 11.9307 330.119 10.3534C330.119 8.79308 331.221 7.50408 332.748 7.50408C333.002 7.50408 333.884 7.57194 334.562 8.36904L334.596 8.18251C334.596 7.84327 334.851 7.57194 335.19 7.57194C335.529 7.57194 335.8 7.86025 335.8 8.18251V12.5582C335.8 12.8974 335.529 13.1688 335.19 13.1688C334.834 13.1857 334.579 12.8974 334.579 12.5752ZM340.091 8.96268H339.922C338.938 9.01357 338.752 9.57325 338.752 10.2177V12.3886C338.752 12.8296 338.395 13.1857 337.971 13.1857C337.547 13.1857 337.191 12.8296 337.191 12.3886V8.19944C337.191 7.86025 337.462 7.58887 337.802 7.58887C338.141 7.58887 338.395 7.87723 338.395 8.19944C338.972 7.65674 339.447 7.53803 339.922 7.52105H340.074C340.448 7.52105 340.787 7.84332 340.787 8.25033C340.804 8.62348 340.464 8.96268 340.091 8.96268ZM346.112 12.0155C346.18 12.1342 346.231 12.2529 346.231 12.3886C346.231 12.7956 345.858 13.1688 345.451 13.1688C345.179 13.1688 344.942 12.9652 344.755 12.7278L342.958 10.6417V12.3716C342.958 12.8126 342.601 13.1688 342.177 13.1688C341.754 13.1688 341.397 12.8126 341.397 12.3716V6.01161C341.397 5.57064 341.736 5.21447 342.177 5.21447C342.618 5.21447 342.958 5.57064 342.958 6.01161V9.98026L344.755 7.99594C344.942 7.79243 345.163 7.57194 345.434 7.57194C345.824 7.57194 346.18 7.92812 346.18 8.33513C346.18 8.45384 346.146 8.58953 346.078 8.6913L344.654 10.2516L346.112 12.0155ZM349.165 8.97961C348.741 8.97961 348.046 9.20009 348.046 9.86155H350.301C350.284 9.20009 349.572 8.97961 349.165 8.97961ZM351.2 10.8622H348.046C348.046 11.795 348.944 11.9477 349.334 11.9477C349.623 11.9477 350.03 11.8968 350.352 11.7441C350.454 11.6763 350.607 11.6254 350.759 11.6254C351.098 11.6254 351.387 11.9137 351.387 12.2699C351.387 12.5073 351.234 12.7108 351.048 12.8296C350.572 13.1857 349.945 13.2705 349.352 13.2705C347.774 13.2705 346.468 12.4225 346.468 10.4382C346.468 8.87788 347.265 7.52105 349.131 7.52105C350.64 7.52105 351.777 8.50473 351.811 10.2516C351.811 10.5739 351.539 10.8622 351.2 10.8622ZM355.542 13.2536H355.118C353.931 13.2536 353.235 12.7278 353.235 10.8792V8.96268H352.828C352.455 8.96268 352.133 8.62348 352.133 8.25033C352.133 7.84332 352.472 7.52105 352.828 7.52105H353.235V6.04552C353.235 5.60455 353.574 5.24838 354.015 5.24838C354.44 5.24838 354.796 5.60455 354.796 6.04552V7.52105H355.44C355.814 7.52105 356.135 7.84332 356.135 8.25033C356.135 8.62348 355.796 8.96268 355.44 8.96268H354.796V10.5739C354.796 11.6424 354.847 11.8629 355.321 11.8629H355.542C355.915 11.8629 356.237 12.1681 356.237 12.5582C356.237 12.9313 355.915 13.2536 355.542 13.2536ZM363.089 5.82504C363.293 5.94374 363.479 6.2321 363.479 6.48649C363.479 6.89351 363.14 7.23275 362.75 7.23275C362.648 7.23275 362.564 7.19879 362.478 7.18186C362.02 6.84267 361.444 6.62218 360.833 6.62218C359.392 6.62218 358.408 7.79243 358.408 9.25098C358.408 10.7095 359.409 11.8629 360.833 11.8629C361.546 11.8629 362.19 11.5745 362.665 11.1166C362.784 11.0318 362.936 10.9809 363.089 10.9809C363.479 10.9809 363.784 11.2862 363.784 11.6763C363.784 11.9307 363.632 12.1512 363.445 12.2699C362.75 12.8635 361.817 13.2536 360.851 13.2536C358.646 13.2536 356.848 11.4389 356.848 9.20009C356.848 6.96137 358.646 5.14665 360.851 5.14665C361.665 5.12967 362.462 5.38406 363.089 5.82504ZM367.041 11.8629C367.736 11.8629 368.33 11.2353 368.33 10.3873C368.33 9.53929 367.719 8.97961 367.041 8.97961C366.346 8.97961 365.803 9.55627 365.803 10.3873C365.803 11.2014 366.363 11.8629 367.041 11.8629ZM368.703 12.5752L368.669 12.3886C368.364 12.9822 367.397 13.2536 366.786 13.2536C365.328 13.2536 364.242 11.9307 364.242 10.3534C364.242 8.79308 365.345 7.50408 366.871 7.50408C367.126 7.50408 368.008 7.57194 368.686 8.36904L368.72 8.18251C368.72 7.84327 368.974 7.57194 369.314 7.57194C369.653 7.57194 369.924 7.86025 369.924 8.18251V12.5582C369.924 12.8974 369.653 13.1688 369.314 13.1688C368.958 13.1857 368.703 12.8974 368.703 12.5752ZM374.181 11.8629C374.876 11.8629 375.419 11.2014 375.419 10.3873C375.419 9.53929 374.86 8.97961 374.181 8.97961C373.486 8.97961 372.892 9.53929 372.892 10.3873C372.892 11.2353 373.486 11.8629 374.181 11.8629ZM372.892 12.7956V14.78C372.892 15.2209 372.536 15.5771 372.112 15.5771C371.688 15.5771 371.332 15.2209 371.332 14.78V8.19944C371.332 7.86025 371.603 7.58887 371.942 7.58887C372.281 7.58887 372.536 7.87723 372.536 8.26731C373.113 7.67367 373.825 7.52105 374.368 7.52105C375.877 7.52105 376.996 8.79308 376.996 10.3703C376.996 11.9307 375.928 13.2705 374.453 13.2705C373.995 13.2536 373.316 13.1179 372.892 12.7956Z" fill="#8D8D8D"/>
</g>
<defs>
<clipPath id="clip0_3508_55539">
<rect width="76.2992" height="13.0799" fill="white" transform="translate(0 2.32617)"/>
</clipPath>
<clipPath id="clip1_3508_55539">
<rect width="106.274" height="13.0799" fill="white" transform="translate(87.1953 2.32617)"/>
</clipPath>
<clipPath id="clip2_3508_55539">
<rect width="59.9494" height="10.8999" fill="white" transform="translate(204.375 3.41602)"/>
</clipPath>
<clipPath id="clip3_3508_55539">
<rect width="101.778" height="17.6154" fill="white" transform="translate(275.219 0.0585938)"/>
</clipPath>
</defs>
</svg>
