<svg width="20" height="20" viewBox="0 0 20 20" fill="none" xmlns="http://www.w3.org/2000/svg">
<g clip-path="url(#clip0_4981_1176)">
<path d="M9.6379 19.4997C14.9457 19.4997 19.2485 15.1969 19.2485 9.88912C19.2485 4.58136 14.9457 0.278564 9.6379 0.278564C4.33014 0.278564 0.0273438 4.58136 0.0273438 9.88912C0.0273438 15.1969 4.33014 19.4997 9.6379 19.4997Z" fill="#F79621"/>
<path d="M13.2022 9.00621C13.3646 7.95866 12.5736 7.39068 11.4896 7.00625L11.8471 5.60503L10.9821 5.38399L10.6285 6.76119L9.94034 6.58435L10.294 5.20716L9.44924 4.98804L9.08788 6.39983L7.34933 5.9539L7.11387 6.86978L7.73568 7.02932C7.85293 7.04742 7.95884 7.10964 8.03173 7.20326C8.10462 7.29687 8.13898 7.4148 8.12779 7.53291L7.13021 11.4204C7.11736 11.4603 7.09661 11.4972 7.0692 11.5289C7.04179 11.5606 7.00829 11.5864 6.97068 11.6049C6.93385 11.6247 6.89335 11.6367 6.85168 11.6402C6.81002 11.6437 6.76808 11.6385 6.72849 11.6251L6.10573 11.4656L5.68286 12.4468L7.40411 12.8879L7.03507 14.3295L7.90002 14.5525L8.26906 13.1109L8.96391 13.2877L8.59774 14.6947L9.45308 14.9138L9.81829 13.4915C11.2964 13.7798 12.3978 13.6837 12.8754 12.3526C13.0584 11.9953 13.0921 11.58 12.9692 11.1979C12.8464 10.8157 12.5769 10.4979 12.22 10.3142C12.1796 10.294 12.1392 10.2758 12.0979 10.2585C12.3942 10.2005 12.6631 10.0463 12.8627 9.81991C13.0624 9.59346 13.1817 9.30743 13.2022 9.00621ZM11.2128 11.7519C10.9389 12.8187 9.14266 12.2325 8.5593 12.0777L9.0456 10.1835C9.62896 10.3334 11.4992 10.6362 11.2128 11.7519ZM11.5011 8.98315C11.2512 9.95574 9.75966 9.4483 9.27048 9.3224L9.71257 7.60115C10.1969 7.72609 11.7596 7.96154 11.4973 8.98315H11.5011Z" fill="white"/>
</g>
<defs>
<clipPath id="clip0_4981_1176">
<rect width="19.2211" height="19.2211" fill="white" transform="translate(0.0065918 0.273682)"/>
</clipPath>
</defs>
</svg>
