<svg width="20" height="20" viewBox="0 0 20 20" fill="none" xmlns="http://www.w3.org/2000/svg">
<g clip-path="url(#clip0_4981_1189)">
<path d="M9.73312 19.5009C15.0409 19.5009 19.3437 15.1981 19.3437 9.89035C19.3437 4.58258 15.0409 0.279785 9.73312 0.279785C4.42535 0.279785 0.122559 4.58258 0.122559 9.89035C0.122559 15.1981 4.42535 19.5009 9.73312 19.5009Z" fill="url(#paint0_linear_4981_1189)"/>
<path d="M6.78351 11.7035C6.8096 11.6764 6.84096 11.6549 6.87567 11.6403C6.91038 11.6258 6.9477 11.6185 6.98533 11.6189H14.001C14.0206 11.6199 14.0397 11.6247 14.0574 11.6332C14.075 11.6416 14.0908 11.6534 14.1039 11.668C14.1169 11.6825 14.1269 11.6996 14.1334 11.718C14.1398 11.7365 14.1425 11.756 14.1414 11.7756C14.1398 11.8112 14.1258 11.8452 14.1019 11.8717L12.7161 13.2546C12.6626 13.3082 12.5901 13.3386 12.5143 13.3392H5.49858C5.46799 13.3417 5.43741 13.3343 5.41135 13.3181C5.38529 13.3019 5.36512 13.2778 5.35382 13.2492C5.34252 13.2207 5.34068 13.1893 5.34857 13.1596C5.35646 13.13 5.37367 13.1037 5.39766 13.0845L6.78351 11.7035Z" fill="url(#paint1_linear_4981_1189)"/>
<path d="M6.76921 6.52596C6.8226 6.47199 6.89512 6.44126 6.97103 6.44043H13.9867C14.015 6.44083 14.0424 6.44949 14.0658 6.46536C14.0891 6.48123 14.1073 6.50359 14.118 6.52969C14.1288 6.55578 14.1316 6.58445 14.1262 6.61215C14.1208 6.63985 14.1074 6.66535 14.0877 6.6855L12.7018 8.07711C12.6483 8.13073 12.5758 8.16111 12.5 8.16168H5.48428C5.44492 8.15945 5.40805 8.14171 5.38175 8.11234C5.35545 8.08298 5.34186 8.04439 5.34396 8.00503C5.34555 7.96939 5.35948 7.93542 5.38336 7.90892L6.76921 6.52596Z" fill="url(#paint2_linear_4981_1189)"/>
<path d="M12.7018 9.09774C12.6756 9.07067 12.6443 9.04915 12.6096 9.03445C12.5749 9.01976 12.5376 9.01219 12.5 9.01221H5.48428C5.44492 9.01444 5.40805 9.03218 5.38175 9.06154C5.35545 9.09091 5.34186 9.1295 5.34396 9.16886C5.34539 9.20453 5.35934 9.23856 5.38336 9.26496L6.76921 10.6441C6.79539 10.6711 6.82675 10.6927 6.86142 10.7074C6.89609 10.7221 6.93337 10.7296 6.97103 10.7296H13.9867C14.015 10.7292 14.0424 10.7205 14.0658 10.7047C14.0891 10.6888 14.1073 10.6665 14.118 10.6404C14.1288 10.6143 14.1316 10.5856 14.1262 10.5579C14.1208 10.5302 14.1074 10.5047 14.0877 10.4845L12.7018 9.09774Z" fill="url(#paint3_linear_4981_1189)"/>
</g>
<defs>
<linearGradient id="paint0_linear_4981_1189" x1="9.73312" y1="19.5009" x2="9.73312" y2="0.279785" gradientUnits="userSpaceOnUse">
<stop stop-color="#170E2B"/>
<stop offset="1" stop-color="#210066"/>
</linearGradient>
<linearGradient id="paint1_linear_4981_1189" x1="13.3283" y1="5.61423" x2="8.47016" y2="14.9173" gradientUnits="userSpaceOnUse">
<stop stop-color="#00FFA3"/>
<stop offset="1" stop-color="#DC1FFF"/>
</linearGradient>
<linearGradient id="paint2_linear_4981_1189" x1="11.1939" y1="4.50486" x2="6.34058" y2="13.8088" gradientUnits="userSpaceOnUse">
<stop stop-color="#00FFA3"/>
<stop offset="1" stop-color="#DC1FFF"/>
</linearGradient>
<linearGradient id="paint3_linear_4981_1189" x1="12.2511" y1="5.05746" x2="7.39198" y2="14.3605" gradientUnits="userSpaceOnUse">
<stop stop-color="#00FFA3"/>
<stop offset="1" stop-color="#DC1FFF"/>
</linearGradient>
<clipPath id="clip0_4981_1189">
<rect width="19.2211" height="19.2211" fill="white" transform="translate(0.143066 0.273682)"/>
</clipPath>
</defs>
</svg>
