<svg width="20" height="20" viewBox="0 0 20 20" fill="none" xmlns="http://www.w3.org/2000/svg">
<rect x="0.143066" y="0.630127" width="19.2211" height="19.2211" rx="9.61056" fill="#F3BA2F"/>
<path d="M7.15263 8.90439L8.41496 7.64366L8.68239 7.37836L9.31472 6.74573L11.4632 8.90439L12.7165 7.64366L9.31472 4.2356L5.90161 7.64366L7.15263 8.90439Z" fill="white"/>
<path d="M9.32086 8.54321L8.06445 9.80024L9.32086 11.0573L10.5772 9.80024L9.32086 8.54321Z" fill="white"/>
<path d="M11.4632 10.7002L9.31245 12.8521L8.55776 12.097L8.41951 11.9586L7.15263 10.7002L5.90161 11.9541L9.31472 15.3622L12.7165 11.9541L11.4632 10.7002Z" fill="white"/>
<path d="M5.00882 8.54541L3.75244 9.80244L5.00882 11.0595L6.26519 9.80244L5.00882 8.54541Z" fill="white"/>
<path d="M13.6263 8.54541L12.3699 9.80244L13.6263 11.0595L14.8826 9.80244L13.6263 8.54541Z" fill="white"/>
</svg>
