<svg width="234" height="50" viewBox="0 0 234 50" fill="none" xmlns="http://www.w3.org/2000/svg">
<path d="M38.9764 27.9222C38.3304 28.3453 37.5767 28.4222 37.0025 28.076C36.2847 27.6145 35.854 26.576 35.854 25.1529V20.8068C35.854 18.7299 35.1003 17.2299 33.8083 16.8452C31.619 16.1529 29.9681 19.0376 29.358 20.1145L25.4819 26.7683V18.576C25.446 16.6914 24.8718 15.576 23.7951 15.2299C23.0773 14.9991 22.0006 15.1145 20.9598 16.8068L12.3104 31.6529C11.162 29.3068 10.5518 26.6914 10.5518 24.0376C10.5518 15.076 17.2632 7.80679 25.4819 7.80679C33.7006 7.80679 40.412 15.076 40.412 24.0376V24.076V24.1145C40.4837 25.8453 39.9813 27.2299 38.9764 27.9222ZM43.7138 24.0376V23.9991V23.9606C43.6779 13.076 35.4951 4.19141 25.4819 4.19141C15.4328 4.19141 7.25 13.076 7.25 24.0376C7.25 34.9606 15.4328 43.8837 25.4819 43.8837C30.1117 43.8837 34.4902 41.9991 37.8638 38.576C38.5457 37.8837 38.5816 36.7683 37.9356 36.0376C37.3255 35.3068 36.2847 35.2683 35.6028 35.9222C35.6028 35.9222 35.6028 35.9222 35.5669 35.9606C32.8393 38.7299 29.1785 40.3068 25.4101 40.3068C20.9957 40.3068 17.0479 38.2299 14.3202 34.9222L22.1083 21.5376V27.7299C22.1083 30.6914 23.185 31.6529 24.0822 31.9222C24.9794 32.1914 26.3433 31.9991 27.8147 29.4991L32.0856 22.076C32.2291 21.8453 32.3368 21.6145 32.4804 21.4606V25.2299C32.4804 27.9991 33.5212 30.2299 35.3156 31.3068C36.9307 32.3068 38.9764 32.1914 40.6632 31.076C42.7448 29.6145 43.8574 27.076 43.7138 24.0376ZM69.1236 17.2683C69.5543 17.5376 69.9491 18.1914 69.9491 18.7683C69.9491 19.6914 69.2313 20.4606 68.4058 20.4606C68.1905 20.4606 68.0111 20.3837 67.8316 20.3453C66.8626 19.576 65.6423 19.076 64.3503 19.076C61.2997 19.076 59.2181 21.7299 59.2181 25.0376C59.2181 28.3453 61.3356 30.9606 64.3503 30.9606C65.8577 30.9606 67.2215 30.3068 68.2264 29.2683C68.4776 29.076 68.8006 28.9606 69.1236 28.9606C69.9491 28.9606 70.5951 29.6529 70.5951 30.5376C70.5951 31.1145 70.2721 31.6145 69.8773 31.8837C68.4058 33.2299 66.4319 34.1145 64.3862 34.1145C59.7206 34.1145 55.9163 29.9991 55.9163 24.9222C55.9163 19.8452 59.7206 15.7299 64.3862 15.7299C66.1089 15.6914 67.7598 16.2683 69.1236 17.2683ZM77.6653 21.1145C80.8595 21.1145 83.5154 23.9991 83.5154 27.576C83.5154 31.1145 80.8236 34.1529 77.6653 34.1529C74.3276 34.1529 71.5641 31.153 71.5641 27.576C71.5641 23.9991 74.3276 21.1145 77.6653 21.1145ZM77.6295 30.9606C79.0292 30.9606 80.2135 29.5376 80.2135 27.6145C80.2135 25.6914 79.0292 24.4606 77.6295 24.4606C76.1221 24.4606 74.866 25.6529 74.866 27.6145C74.866 29.4991 76.1221 30.9606 77.6295 30.9606ZM85.5252 32.1529V23.076C85.5252 22.076 86.243 21.2683 87.1761 21.2683C88.0733 21.2683 88.827 22.076 88.827 23.076V32.1529C88.827 33.1529 88.0733 33.9606 87.1761 33.9606C86.2788 33.9606 85.5252 33.1145 85.5252 32.1529ZM85.2739 17.8453C85.2739 16.6529 86.1353 15.7299 87.1761 15.7299C88.2528 15.7299 89.1141 16.6914 89.1141 17.8453C89.1141 18.9991 88.2528 19.9222 87.1761 19.9222C86.0994 19.8837 85.2739 18.9606 85.2739 17.8453ZM95.1436 27.2299V32.1529C95.1436 33.1529 94.3899 33.9606 93.4927 33.9606C92.5954 33.9606 91.8417 33.1529 91.8417 32.1529V22.6529C91.8417 21.8837 92.416 21.2683 93.1338 21.2683C93.8515 21.2683 94.3899 21.9222 94.3899 22.6529C95.7178 21.3068 96.9022 21.1145 98.0147 21.1145C101.317 21.1145 102.788 23.7683 102.788 26.8068V32.1529C102.788 33.1529 102.034 33.9606 101.137 33.9606C100.24 33.9606 99.4862 33.1529 99.4862 32.1529V27.2299C99.4862 25.6914 99.3068 24.3837 97.2252 24.3837C95.7537 24.3837 95.1436 25.6914 95.1436 27.2299ZM113.483 29.1145C113.088 29.1145 112.837 28.9222 112.622 28.6529L108.782 24.1914V32.1529C108.782 33.1529 108.028 33.9606 107.131 33.9606C106.233 33.9606 105.48 33.1529 105.48 32.1529V16.3837C105.587 16.1145 105.839 15.9222 106.09 15.9222C106.377 15.9222 106.628 16.1914 106.808 16.3837L112.945 23.7683C113.124 23.9991 113.34 24.1145 113.483 24.1145C113.591 24.1145 113.842 23.9991 114.021 23.7683L120.159 16.3837C120.338 16.1914 120.553 15.9222 120.876 15.9222C121.164 15.9222 121.415 16.1145 121.487 16.3837V32.1529C121.487 33.1529 120.769 33.9606 119.836 33.9606C118.938 33.9606 118.185 33.1529 118.185 32.1529V24.1914L114.344 28.6529C114.057 28.9222 113.806 29.1145 113.483 29.1145ZM129.346 30.9606C130.818 30.9606 132.074 29.5376 132.074 27.6145C132.074 25.6914 130.782 24.4222 129.346 24.4222C127.911 24.4222 126.726 25.7299 126.726 27.6145C126.726 29.4606 127.875 30.9606 129.346 30.9606ZM132.864 32.576L132.792 32.1529C132.146 33.4991 130.1 34.1145 128.808 34.1145C125.721 34.1145 123.425 31.1145 123.425 27.5376C123.425 23.9991 125.757 21.076 128.987 21.076C129.526 21.076 131.392 21.2299 132.828 23.0376L132.899 22.6145C132.899 21.8452 133.438 21.2299 134.156 21.2299C134.873 21.2299 135.448 21.8837 135.448 22.6145V32.5376C135.448 33.3068 134.873 33.9222 134.156 33.9222C133.402 33.9606 132.864 33.3068 132.864 32.576ZM144.528 24.3837H144.169C142.087 24.4991 141.692 25.7683 141.692 27.2299V32.1529C141.692 33.1529 140.939 33.9606 140.041 33.9606C139.144 33.9606 138.391 33.1529 138.391 32.1529V22.6529C138.391 21.8837 138.965 21.2683 139.683 21.2683C140.4 21.2683 140.939 21.9222 140.939 22.6529C142.159 21.4222 143.164 21.1529 144.169 21.1145H144.492C145.281 21.1145 145.999 21.8453 145.999 22.7683C146.035 23.6145 145.317 24.3837 144.528 24.3837ZM157.268 31.3068C157.412 31.576 157.52 31.8453 157.52 32.1529C157.52 33.076 156.73 33.9222 155.869 33.9222C155.294 33.9222 154.792 33.4606 154.397 32.9222L150.593 28.1914V32.1145C150.593 33.1145 149.839 33.9222 148.942 33.9222C148.045 33.9222 147.291 33.1145 147.291 32.1145V17.6914C147.291 16.6914 148.009 15.8837 148.942 15.8837C149.875 15.8837 150.593 16.6914 150.593 17.6914V26.6914L154.397 22.1914C154.792 21.7299 155.259 21.2299 155.833 21.2299C156.658 21.2299 157.412 22.0376 157.412 22.9606C157.412 23.2299 157.34 23.5376 157.197 23.7683L154.182 27.3068L157.268 31.3068ZM163.729 24.4222C162.831 24.4222 161.36 24.9222 161.36 26.4222H166.133C166.097 24.9222 164.59 24.4222 163.729 24.4222ZM168.035 28.6914H161.36C161.36 30.8068 163.262 31.1529 164.087 31.1529C164.698 31.1529 165.559 31.0376 166.241 30.6914C166.456 30.5376 166.779 30.4222 167.102 30.4222C167.82 30.4222 168.43 31.076 168.43 31.8837C168.43 32.4222 168.107 32.8837 167.712 33.153C166.707 33.9606 165.379 34.1529 164.123 34.1529C160.786 34.1529 158.022 32.2299 158.022 27.7299C158.022 24.1914 159.709 21.1145 163.657 21.1145C166.851 21.1145 169.256 23.3453 169.327 27.3068C169.327 28.0376 168.753 28.6914 168.035 28.6914ZM177.223 34.1145H176.326C173.814 34.1145 172.342 32.9222 172.342 28.7299V24.3837H171.481C170.691 24.3837 170.009 23.6145 170.009 22.7683C170.009 21.8453 170.727 21.1145 171.481 21.1145H172.342V17.7683C172.342 16.7683 173.06 15.9606 173.993 15.9606C174.89 15.9606 175.644 16.7683 175.644 17.7683V21.1145H177.008C177.797 21.1145 178.479 21.8453 178.479 22.7683C178.479 23.6145 177.761 24.3837 177.008 24.3837H175.644V28.0376C175.644 30.4606 175.752 30.9606 176.756 30.9606H177.223C178.013 30.9606 178.694 31.6529 178.694 32.5376C178.694 33.3837 178.013 34.1145 177.223 34.1145ZM193.194 17.2683C193.625 17.5376 194.019 18.1914 194.019 18.7683C194.019 19.6914 193.302 20.4606 192.476 20.4606C192.261 20.4606 192.081 20.3837 191.902 20.3453C190.933 19.576 189.713 19.076 188.421 19.076C185.37 19.076 183.288 21.7299 183.288 25.0376C183.288 28.3453 185.406 30.9606 188.421 30.9606C189.928 30.9606 191.292 30.3068 192.297 29.2683C192.548 29.076 192.871 28.9606 193.194 28.9606C194.019 28.9606 194.665 29.6529 194.665 30.5376C194.665 31.1145 194.342 31.6145 193.948 31.8837C192.476 33.2299 190.502 34.1145 188.456 34.1145C183.791 34.1145 179.987 29.9991 179.987 24.9222C179.987 19.8452 183.791 15.7299 188.456 15.7299C190.179 15.6914 191.866 16.2683 193.194 17.2683ZM201.556 30.9606C203.028 30.9606 204.284 29.5376 204.284 27.6145C204.284 25.6914 202.992 24.4222 201.556 24.4222C200.085 24.4222 198.936 25.7299 198.936 27.6145C198.936 29.4606 200.121 30.9606 201.556 30.9606ZM205.073 32.576L205.002 32.1529C204.356 33.4991 202.31 34.1145 201.018 34.1145C197.931 34.1145 195.634 31.1145 195.634 27.5376C195.634 23.9991 197.967 21.076 201.197 21.076C201.736 21.076 203.602 21.2299 205.037 23.0376L205.109 22.6145C205.109 21.8452 205.648 21.2299 206.365 21.2299C207.083 21.2299 207.657 21.8837 207.657 22.6145V32.5376C207.657 33.3068 207.083 33.9222 206.365 33.9222C205.612 33.9606 205.073 33.3068 205.073 32.576ZM216.666 30.9606C218.137 30.9606 219.286 29.4606 219.286 27.6145C219.286 25.6914 218.101 24.4222 216.666 24.4222C215.194 24.4222 213.938 25.6914 213.938 27.6145C213.938 29.5376 215.194 30.9606 216.666 30.9606ZM213.938 33.076V37.576C213.938 38.576 213.184 39.3837 212.287 39.3837C211.39 39.3837 210.636 38.576 210.636 37.576V22.6529C210.636 21.8837 211.21 21.2683 211.928 21.2683C212.646 21.2683 213.184 21.9222 213.184 22.8068C214.405 21.4606 215.912 21.1145 217.06 21.1145C220.255 21.1145 222.623 23.9991 222.623 27.576C222.623 31.1145 220.362 34.1529 217.24 34.1529C216.271 34.1145 214.835 33.8068 213.938 33.076Z" fill="#17181B"/>
</svg>
