<svg width="42" height="40" viewBox="0 0 42 40" fill="none" xmlns="http://www.w3.org/2000/svg">
<path fill-rule="evenodd" clip-rule="evenodd" d="M33.0246 22.4078C32.2983 22.4078 31.7067 21.8166 31.7067 21.0903C31.7067 20.3629 32.2983 19.7718 33.0246 19.7718C33.7514 19.7718 34.343 20.3629 34.343 21.0903C34.343 21.8166 33.7514 22.4078 33.0246 22.4078ZM7.26694 27.989C7.26694 28.7153 6.67535 29.307 5.94904 29.307C5.22223 29.307 4.63064 28.7153 4.63064 27.989C4.63064 27.2622 5.22223 26.6705 5.94904 26.6705C6.67535 26.6705 7.26694 27.2622 7.26694 27.989ZM10.6721 21.8459C10.6721 21.1191 11.2627 20.5279 11.9905 20.5279C12.7173 20.5279 13.3084 21.1191 13.3084 21.8459C13.3084 22.5728 12.7173 23.1639 11.9905 23.1639C11.2627 23.1639 10.6721 22.5728 10.6721 21.8459ZM21.7628 26.8967C21.7628 27.6235 21.1717 28.2147 20.4443 28.2147C19.718 28.2147 19.1275 27.6235 19.1275 26.8967C19.1275 26.1694 19.7185 25.5782 20.4443 25.5782C21.1717 25.5782 21.7628 26.1694 21.7628 26.8967ZM23.4641 18.3333C23.4641 17.606 24.0551 17.0143 24.782 17.0143C25.5093 17.0143 26.1004 17.606 26.1004 18.3333C26.1004 19.0596 25.5093 19.6513 24.782 19.6513C24.0546 19.6513 23.4641 19.0596 23.4641 18.3333ZM30.4886 31.7425C31.536 31.7425 32.3879 30.8892 32.3879 29.842V23.6017C31.066 23.2672 30.2095 21.9467 30.4861 20.5735L27.0308 19.6164C26.4772 20.5836 25.3629 21.1055 24.236 20.8666L22.1917 24.985C22.7099 25.4593 23.0356 26.1405 23.0356 26.8967C23.0356 28.325 21.8732 29.4877 20.4443 29.4877C18.7056 29.4877 17.4692 27.8047 17.963 26.1552L13.8179 23.6797C12.9878 24.5093 11.7018 24.6788 10.6837 24.0826L8.16292 26.6447C9.20376 28.3569 7.97299 30.5794 5.94955 30.5794C4.52074 30.5794 3.35834 29.4183 3.35834 27.989C3.35834 25.9836 5.54436 24.7476 7.25529 25.7528L9.7761 23.1897C8.73425 21.4785 9.96604 19.255 11.9905 19.255C13.7156 19.255 14.9651 20.9162 14.4723 22.5874L18.6164 25.063C19.2511 24.4283 20.1749 24.16 21.0709 24.3822L23.0958 20.2987C22.5427 19.8224 22.1912 19.1183 22.1912 18.3333C22.1912 16.9045 23.3531 15.7419 24.782 15.7419C26.2103 15.7419 27.3732 16.9045 27.3732 18.3333C27.3732 18.352 27.3711 18.3708 27.3711 18.39L31.0544 19.4104C31.3972 19.0075 31.8602 18.7119 32.3879 18.5778V13.4774C32.3879 12.4297 31.536 11.5779 30.4886 11.5779H24.8767C23.7107 14.9012 20.5421 17.2907 16.8265 17.2907C13.1108 17.2907 9.94223 14.9012 8.77578 11.5779H3.16435C2.11642 11.5779 1.2645 12.4297 1.2645 13.4774V29.842C1.2645 30.8892 2.11642 31.742 3.16435 31.742H30.4886V31.7425ZM20.2337 35.3629H13.4188C13.8422 34.668 14.1735 33.8764 14.4024 33.0149H19.2516C19.479 33.8764 19.8107 34.668 20.2337 35.3629ZM26.1682 38.5025H7.48574C7.62199 37.347 8.16495 36.6359 8.55545 36.6359H25.0975C25.488 36.6359 26.031 37.347 26.1682 38.5025ZM14.5437 1.86805C13.6477 3.39558 13.1453 5.78811 13.0739 8.16849L9.59478 8.16596C9.83384 5.22073 11.8365 2.76746 14.5437 1.86805ZM24.0592 8.1771L20.5786 8.17456C20.5082 5.79267 20.0062 3.3971 19.1092 1.86805C21.82 2.76847 23.8242 5.2268 24.0592 8.1771ZM20.5776 9.36248L24.0572 9.36501C23.8125 12.3037 21.8114 14.7488 19.1092 15.6472C20.0032 14.1227 20.5046 11.7373 20.5776 9.36248ZM14.3477 9.35843L19.3052 9.36147C19.1822 13.5007 17.8182 16.0177 16.8265 16.0177C15.8348 16.0177 14.4698 13.4992 14.3477 9.35843ZM16.8265 1.49755C15.8337 1.49755 14.4672 4.02067 14.3477 8.17001L19.3052 8.17355C19.1867 4.02269 17.8202 1.49755 16.8265 1.49755ZM13.0749 9.35691C13.1473 11.7332 13.6487 14.1212 14.5437 15.6472C11.838 14.7483 9.83587 12.2976 9.59528 9.35387L13.0749 9.35691ZM41.9834 12.0283L41.7758 8.10219C41.7525 7.64868 41.2708 7.36575 40.8631 7.56365L37.3399 9.27188C37.0239 9.42575 36.8912 9.80535 37.0446 10.1217C37.1981 10.4385 37.5785 10.5706 37.895 10.4168L39.4257 9.67477L33.8183 18.6238C33.7666 18.6071 33.7139 18.5909 33.6608 18.5778V13.4774C33.6608 11.7277 32.238 10.3054 30.4886 10.3054H25.2155C26.1784 5.06686 22.1507 0.224609 16.8265 0.224609C11.5022 0.224609 7.4746 5.06686 8.43744 10.3054H3.16435C1.41492 10.3054 -0.0078125 11.7277 -0.0078125 13.4779V29.842C-0.0078125 31.5917 1.41543 33.0149 3.16435 33.0149H13.0779C12.7983 33.9154 12.381 34.7237 11.8644 35.3629H8.55545C7.22338 35.3629 6.18001 36.9887 6.18001 39.0643V39.1393C6.18001 39.4905 6.46516 39.7755 6.81616 39.7755H26.8363C27.1878 39.7755 27.4729 39.4905 27.4729 39.1393V39.0643C27.4729 36.9887 26.4296 35.3629 25.0975 35.3629H21.7881C21.2715 34.7237 20.8541 33.9154 20.575 33.0149H30.4886C32.238 33.0149 33.6608 31.5917 33.6608 29.842V23.6017C35.5773 23.1148 36.2667 20.7334 34.8961 19.3016L40.6119 10.1789L40.7127 12.0956C40.7309 12.4469 41.0191 12.7076 41.3807 12.6979C41.7322 12.6792 42.0027 12.3801 41.9834 12.0283Z" fill="#E6AE00"/>
</svg>
