<svg width="105" height="104" viewBox="0 0 105 104" fill="none" xmlns="http://www.w3.org/2000/svg">
<mask id="mask0_734_10366" style="mask-type:luminance" maskUnits="userSpaceOnUse" x="0" y="0" width="105" height="60">
<path d="M0.476562 0H104.53V59.3533H0.476562V0Z" fill="white"/>
</mask>
<g mask="url(#mask0_734_10366)">
<path d="M90.9532 59.2921H75.0461C74.1479 59.2921 73.4203 58.565 73.4203 57.6674C73.4203 56.7698 74.1479 56.0427 75.0461 56.0427H90.9532C93.7056 56.0427 96.2924 54.9721 98.2394 53.0265C100.185 51.0808 101.258 48.4946 101.258 45.7441C101.258 40.0739 96.6349 35.4605 90.9532 35.4605C90.3272 35.4605 89.7276 35.5157 89.1216 35.6285C88.6725 35.7113 88.2096 35.6022 87.8445 35.3277C87.4807 35.0531 87.2487 34.6382 87.206 34.1831C86.3931 25.5305 79.2211 19.0054 70.5236 19.0054C69.318 19.0054 68.0936 19.1445 66.8868 19.4191C66.0488 19.6096 65.207 19.1157 64.9662 18.292C62.3706 9.43387 54.1097 3.24719 44.8778 3.24719C33.3263 3.24719 23.9276 12.6407 23.9276 24.1866C23.9276 24.2393 23.9313 24.3007 23.9351 24.3722C23.9389 24.4649 23.9439 24.5715 23.9439 24.6906C23.9439 25.1808 23.7231 25.6459 23.3405 25.9542C22.9591 26.2626 22.4585 26.3817 21.9781 26.2789C20.918 26.052 19.8755 25.9417 18.7929 25.9417C10.4943 25.9417 3.74261 32.69 3.74261 40.9841C3.74261 49.2881 10.4943 56.0427 18.7929 56.0427H29.9542C30.8512 56.0427 31.5788 56.7698 31.5788 57.6674C31.5788 58.565 30.8512 59.2921 29.9542 59.2921H18.7929C16.3215 59.2921 13.9229 58.807 11.6661 57.8517C9.48573 56.929 7.5287 55.6089 5.84892 53.9278C4.16914 52.2467 2.85065 50.2885 1.92985 48.1085C0.975172 45.8507 0.492188 43.4537 0.492188 40.9841C0.492188 38.5144 0.976426 36.1175 1.92985 33.8622C2.85065 31.6833 4.17039 29.7264 5.85017 28.0478C7.52995 26.3692 9.48698 25.0504 11.6661 24.1302C13.9242 23.1762 16.3215 22.6923 18.7929 22.6923C19.4339 22.6923 20.0775 22.7261 20.7173 22.7938C20.8729 20.0208 21.4976 17.3292 22.5777 14.7731C23.7959 11.8922 25.5396 9.30474 27.7601 7.08456C29.9818 4.86312 32.5686 3.11932 35.4514 1.90078C38.4372 0.638376 41.6086 -0.000976562 44.8778 -0.000976562C47.5662 -0.000976562 50.2082 0.437795 52.7272 1.30155C55.1647 2.13772 57.4442 3.35625 59.5015 4.92204C61.5363 6.47028 63.3064 8.32064 64.7629 10.423C65.9585 12.1492 66.9182 14.0121 67.627 15.9753C68.5929 15.8299 69.5627 15.7559 70.5236 15.7559C75.5404 15.7559 80.3376 17.6201 84.0334 21.0062C87.2901 23.9898 89.4491 27.9287 90.2181 32.2312C90.4602 32.2187 90.7048 32.2124 90.9532 32.2124C92.781 32.2124 94.5549 32.5697 96.2259 33.2755C97.8404 33.9562 99.2894 34.9315 100.534 36.1726C101.78 37.415 102.757 38.8629 103.441 40.4738C104.148 42.1437 104.508 43.9163 104.508 45.7441C104.508 49.3621 103.098 52.7644 100.538 55.3231C97.9772 57.883 94.5737 59.2921 90.9532 59.2921Z" fill="#E6AE00"/>
</g>
<path d="M75.0477 87.7712C74.1495 87.7712 73.4219 87.0441 73.4219 86.1465V57.6677C73.4219 56.7701 74.1495 56.043 75.0477 56.043C75.9447 56.043 76.6723 56.7701 76.6723 57.6677V86.1465C76.6723 87.0441 75.9447 87.7712 75.0477 87.7712Z" fill="#E6AE00"/>
<path d="M29.9461 80.4452C29.0479 80.4452 28.3203 79.7169 28.3203 78.8205V57.6667C28.3203 56.7691 29.0479 56.042 29.9461 56.042C30.8431 56.042 31.5707 56.7691 31.5707 57.6667V78.8205C31.5707 79.7169 30.8431 80.4452 29.9461 80.4452Z" fill="#E6AE00"/>
<path d="M29.9544 86.9433C27.266 86.9433 25.0781 84.757 25.0781 82.0692C25.0781 79.3826 27.266 77.1963 29.9544 77.1963C32.6428 77.1963 34.8294 79.3826 34.8294 82.0692C34.8294 84.757 32.6428 86.9433 29.9544 86.9433ZM29.9544 80.4457C29.0587 80.4457 28.3285 81.1741 28.3285 82.0692C28.3285 82.9655 29.0587 83.6939 29.9544 83.6939C30.8501 83.6939 31.579 82.9655 31.579 82.0692C31.579 81.1741 30.8501 80.4457 29.9544 80.4457Z" fill="#E6AE00"/>
<path d="M75.0559 94.2682C72.3675 94.2682 70.1797 92.0831 70.1797 89.3953C70.1797 86.7075 72.3675 84.5225 75.0559 84.5225C77.7443 84.5225 79.9309 86.7075 79.9309 89.3953C79.9309 92.0831 77.7443 94.2682 75.0559 94.2682ZM75.0559 87.7706C74.159 87.7706 73.4301 88.5002 73.4301 89.3953C73.4301 90.2917 74.159 91.02 75.0559 91.02C75.9517 91.02 76.6805 90.2917 76.6805 89.3953C76.6805 88.5002 75.9517 87.7706 75.0559 87.7706Z" fill="#E6AE00"/>
<path d="M44.5621 97.2457C43.6639 97.2457 42.9363 96.5186 42.9363 95.621V52.6176L36.172 45.8555C35.8672 45.5509 35.6953 45.1372 35.6953 44.7072V34.1491C35.6953 33.2528 36.4229 32.5244 37.3211 32.5244C38.2181 32.5244 38.9457 33.2528 38.9457 34.1491V44.034L45.7113 50.7961C46.0161 51.1007 46.1867 51.5132 46.1867 51.9444V95.621C46.1867 96.5186 45.4591 97.2457 44.5621 97.2457Z" fill="#E6AE00"/>
<mask id="mask1_734_10366" style="mask-type:luminance" maskUnits="userSpaceOnUse" x="39" y="93" width="11" height="11">
<path d="M39.4219 93.6934H49.6988V103.741H39.4219V93.6934Z" fill="white"/>
</mask>
<g mask="url(#mask1_734_10366)">
<path d="M44.5638 103.743C41.8754 103.743 39.6875 101.557 39.6875 98.8702C39.6875 96.1824 41.8754 93.9961 44.5638 93.9961C47.2522 93.9961 49.4388 96.1824 49.4388 98.8702C49.4388 101.557 47.2522 103.743 44.5638 103.743ZM44.5638 97.2455C43.6668 97.2455 42.9379 97.9739 42.9379 98.8702C42.9379 99.7653 43.6668 100.495 44.5638 100.495C45.4595 100.495 46.1883 99.7653 46.1883 98.8702C46.1883 97.9739 45.4595 97.2455 44.5638 97.2455Z" fill="#E6AE00"/>
</g>
<path d="M37.3294 35.7734C34.641 35.7734 32.4531 33.587 32.4531 30.9005C32.4531 28.2127 34.641 26.0264 37.3294 26.0264C40.0178 26.0264 42.2044 28.2127 42.2044 30.9005C42.2044 33.587 40.0178 35.7734 37.3294 35.7734ZM37.3294 29.2758C36.4324 29.2758 35.7035 30.0041 35.7035 30.9005C35.7035 31.7956 36.4324 32.5239 37.3294 32.5239C38.2251 32.5239 38.954 31.7956 38.954 30.9005C38.954 30.0041 38.2251 29.2758 37.3294 29.2758Z" fill="#E6AE00"/>
<path d="M60.4215 71.195C59.5245 71.195 58.7969 70.4679 58.7969 69.5703V37.2642C58.7969 36.8342 58.9675 36.4205 59.2723 36.1158L65.6402 29.7511C66.275 29.1168 67.3037 29.1168 67.9384 29.7511C68.5732 30.3855 68.5732 31.4147 67.9384 32.0491L62.0473 37.9374V69.5703C62.0473 70.4679 61.3197 71.195 60.4215 71.195Z" fill="#E6AE00"/>
<path d="M60.4231 77.6923C57.7347 77.6923 55.5469 75.506 55.5469 72.8194C55.5469 70.1316 57.7347 67.9453 60.4231 67.9453C63.1115 67.9453 65.2994 70.1316 65.2994 72.8194C65.2994 75.506 63.1115 77.6923 60.4231 77.6923ZM60.4231 71.1947C59.5274 71.1947 58.7985 71.9231 58.7985 72.8194C58.7985 73.7145 59.5274 74.4429 60.4231 74.4429C61.3188 74.4429 62.049 73.7145 62.049 72.8194C62.049 71.9231 61.3188 71.1947 60.4231 71.1947Z" fill="#E6AE00"/>
<path d="M70.0559 35.7734C67.3675 35.7734 65.1797 33.587 65.1797 30.9005C65.1797 28.2127 67.3675 26.0264 70.0559 26.0264C72.7443 26.0264 74.9309 28.2127 74.9309 30.9005C74.9309 33.587 72.7443 35.7734 70.0559 35.7734ZM70.0559 29.2758C69.1602 29.2758 68.4301 30.0041 68.4301 30.9005C68.4301 31.7956 69.1602 32.5239 70.0559 32.5239C70.9517 32.5239 71.6805 31.7956 71.6805 30.9005C71.6805 30.0041 70.9517 29.2758 70.0559 29.2758Z" fill="#E6AE00"/>
</svg>
