<svg width="100" height="100" viewBox="0 0 100 100" fill="none" xmlns="http://www.w3.org/2000/svg">
<rect width="100" height="100" rx="50" fill="#E6AE00"/>
<g clip-path="url(#clip0_405_2008)">
<path d="M50.5131 38.3794H51.0947C57.209 38.3794 63.3232 38.3795 69.4375 38.3796C70.7305 38.3797 71.2497 38.8989 71.2497 40.1895C71.2499 46.3022 71.25 52.415 71.2498 58.5278V59.1568C71.5656 59.1568 71.856 59.1519 72.1461 59.1577C72.3654 59.1434 72.5851 59.179 72.7887 59.2618C72.9923 59.3447 73.1745 59.4726 73.3215 59.636C73.4685 59.7994 73.5766 59.994 73.6375 60.2052C73.6985 60.4164 73.7107 60.6387 73.6734 60.8553C73.6109 61.5444 73.3158 62.1917 72.8365 62.6908C72.3572 63.1899 71.7224 63.5111 71.0363 63.6015C70.82 63.6302 70.6021 63.6454 70.3839 63.6467C57.1415 63.6514 43.8992 63.6541 30.6568 63.6549C30.0509 63.7 29.4496 63.5199 28.9682 63.1491C28.4868 62.7784 28.1592 62.243 28.0481 61.6456C28.0119 61.4306 27.9966 61.2126 28.0027 60.9947C28.0005 53.5565 28.0001 46.1182 28.0014 38.6799C27.9702 38.3199 28.0183 37.9574 28.1422 37.618C28.2661 37.2785 28.4628 36.9703 28.7186 36.715C28.9744 36.4598 29.283 36.2636 29.6228 36.1404C29.9625 36.0172 30.3251 35.9699 30.685 36.0019C36.269 35.9986 41.8529 35.9982 47.4369 36.0006C49.3221 36.0006 50.025 36.5349 50.5131 38.3794ZM31.6751 62.1479C31.6751 61.687 31.6742 61.2834 31.6754 60.8797C31.6789 59.7048 32.2191 59.1579 33.386 59.157C35.8965 59.155 38.407 59.1548 40.9176 59.1563H41.4906V58.5286C41.4906 55.1301 41.4832 51.7315 41.4937 48.333C41.4668 47.4341 41.7746 46.5571 42.3576 45.8723C42.9406 45.1876 43.7572 44.7437 44.6489 44.6269C45.2077 44.5753 45.7693 44.5615 46.3299 44.5855C47.1977 44.5802 48.0655 44.5841 48.9701 44.5841V44.0237C48.9701 42.2933 48.97 40.5628 48.9699 38.8323C48.9698 37.7951 48.6739 37.4983 47.6353 37.4982C42.0373 37.4978 36.4392 37.4978 30.8412 37.4982C29.795 37.4983 29.4988 37.7913 29.4987 38.8237C29.4986 46.1665 29.4986 53.5092 29.4987 60.852C29.4987 60.9611 29.495 61.0704 29.5007 61.1793C29.4927 61.425 29.5819 61.6639 29.7492 61.8441C29.9165 62.0242 30.1483 62.131 30.3939 62.1411C30.7934 62.1756 31.1983 62.1479 31.6751 62.1479ZM69.7256 59.1329V39.8883H50.4679V44.5841C50.7584 44.5841 50.9896 44.584 51.2208 44.5841C51.7606 44.5338 52.305 44.6032 52.8149 44.7874C53.3248 44.9716 53.7879 45.266 54.171 45.6496C54.5541 46.0333 54.8479 46.4967 55.0313 47.0069C55.2148 47.5171 55.2836 48.0615 55.2325 48.6013C55.2332 51.923 55.2332 55.2447 55.2326 58.5664V59.1329L69.7256 59.1329ZM47.2197 62.1222C47.342 62.1321 47.4604 62.1497 47.5789 62.1499C48.8571 62.1518 50.1355 62.1605 51.4135 62.1485C51.7269 62.1703 52.0412 62.124 52.335 62.0128C52.6289 61.9016 52.8951 61.7282 53.1156 61.5043C53.336 61.2805 53.5053 61.0116 53.612 60.7162C53.7187 60.4207 53.7602 60.1056 53.7336 59.7926C53.737 56.0057 53.737 52.2188 53.7336 48.4319C53.7607 48.1151 53.7179 47.7962 53.6084 47.4978C53.4988 47.1993 53.3252 46.9285 53.0996 46.7045C52.874 46.4804 52.602 46.3086 52.3028 46.2011C52.0036 46.0936 51.6843 46.0531 51.3678 46.0824C49.3725 46.0791 47.3774 46.079 45.3822 46.0822C45.0576 46.0484 44.7295 46.0878 44.4222 46.1976C44.1149 46.3074 43.8362 46.4847 43.6065 46.7165C43.3769 46.9483 43.2022 47.2287 43.0953 47.5371C42.9884 47.8454 42.952 48.1737 42.9889 48.498C42.9872 51.8797 42.9871 55.2614 42.9884 58.6432V59.1563C43.2649 59.17 43.5421 59.1685 43.8184 59.1518C44.2744 59.1002 44.736 59.143 45.1746 59.2777C45.6133 59.4123 46.0195 59.6358 46.368 59.9342C47.3072 60.6663 47.4735 60.9601 47.2197 62.1222ZM54.6081 62.1253C54.7628 62.1342 54.9119 62.1501 55.061 62.1501C60.1447 62.1514 65.2283 62.1509 70.312 62.1486C70.5456 62.1532 70.779 62.1322 71.008 62.086C71.3309 62.0132 71.6185 61.8307 71.8217 61.5695C72.025 61.3083 72.1314 60.9846 72.1226 60.6538H71.6635C66.3304 60.6538 60.9972 60.6538 55.664 60.6539C55.5715 60.6407 55.4774 60.6433 55.3857 60.6617C55.2789 60.6925 55.1861 60.7595 55.1234 60.8513C54.9423 61.2576 54.787 61.6753 54.6081 62.1253ZM45.8502 61.3219C45.3432 61.0778 44.8855 60.6743 44.4183 60.6631C41.912 60.6029 39.4034 60.6395 36.8956 60.6457C36.669 60.6463 36.4424 60.6687 36.1768 60.6831C36.1768 61.0226 36.2012 61.3185 36.171 61.6087C36.1273 62.0277 36.2619 62.166 36.7049 62.1618C39.088 62.1393 41.4723 62.1147 43.8542 62.1717C44.2273 62.174 44.597 62.0998 44.9403 61.9536C45.2836 61.8074 45.5932 61.5925 45.8502 61.3219ZM33.208 60.6764V62.1086H34.6457V60.6764H33.208Z" fill="white"/>
<path d="M62.9713 42.306C62.7539 42.3177 62.536 42.3145 62.319 42.2966C62.2262 42.2838 62.1476 42.1686 62.0625 42.0999C62.1431 42.0464 62.2223 41.9494 62.3046 41.9467C62.7554 41.9322 63.2071 41.9345 63.6581 41.9479C63.7293 41.95 63.798 42.0382 63.8679 42.0866C63.8024 42.1578 63.7429 42.2819 63.6702 42.2903C63.4376 42.3068 63.2042 42.3101 62.9713 42.3001V42.306Z" fill="white"/>
<path d="M66.7482 41.9414C66.9661 41.9414 67.185 41.9293 67.4012 41.9481C67.4745 41.9544 67.541 42.0387 67.6106 42.0873C67.5448 42.1583 67.4814 42.2879 67.4128 42.2907C66.9468 42.3097 66.4793 42.3106 66.0132 42.2937C65.9414 42.2911 65.8741 42.167 65.8047 42.0991C65.8857 42.0458 65.9632 41.9545 66.0483 41.9466C66.2799 41.9253 66.5147 41.9393 66.7482 41.9393V41.9414Z" fill="white"/>
<path d="M48.3241 49.0758C47.9654 49.0754 47.6062 49.0857 47.2479 49.0729C47.1463 49.0776 47.0448 49.0619 46.9493 49.0267C46.8539 48.9914 46.7665 48.9374 46.6924 48.8677C46.6182 48.798 46.5588 48.7141 46.5177 48.6211C46.4766 48.528 46.4547 48.4276 46.4531 48.3259C46.4537 48.2239 46.4752 48.1232 46.5161 48.0299C46.557 47.9365 46.6165 47.8525 46.691 47.783C46.7656 47.7135 46.8536 47.6599 46.9496 47.6256C47.0456 47.5913 47.1475 47.577 47.2493 47.5835C47.9977 47.5711 48.7468 47.5701 49.4951 47.5847C49.5931 47.581 49.6907 47.5968 49.7826 47.6309C49.8745 47.6651 49.9587 47.7171 50.0304 47.7839C50.1021 47.8507 50.1599 47.931 50.2006 48.0202C50.2412 48.1094 50.2638 48.2058 50.2671 48.3037C50.2674 48.4052 50.2476 48.5058 50.2089 48.5997C50.1701 48.6935 50.113 48.7787 50.0411 48.8504C49.9692 48.9221 49.8839 48.9788 49.7899 49.0173C49.696 49.0559 49.5953 49.0754 49.4938 49.0748C49.4627 49.0769 49.4315 49.0761 49.4003 49.0761C49.0415 49.0762 48.6828 49.0761 48.3241 49.0758Z" fill="white"/>
</g>
<defs>
<clipPath id="clip0_405_2008">
<rect width="45.6815" height="27.6549" fill="white" transform="translate(28 36)"/>
</clipPath>
</defs>
</svg>
