<svg width="100" height="100" viewBox="0 0 100 100" fill="none" xmlns="http://www.w3.org/2000/svg">
<rect width="100" height="100" rx="50" fill="#E6AE00"/>
<mask id="mask0_405_2070" style="mask-type:luminance" maskUnits="userSpaceOnUse" x="36" y="30" width="28" height="24">
<path d="M36.8203 30H63.6778V53.1023H36.8203V30Z" fill="white"/>
</mask>
<g mask="url(#mask0_405_2070)">
<path d="M50.2208 52.968C42.8887 52.968 36.9219 47.8184 36.9219 41.4838C36.9219 35.15 42.8887 30.0044 50.2208 30.0044C57.5522 30.0044 63.5189 35.1548 63.5189 41.4838C63.5189 47.8136 57.5522 52.968 50.2208 52.968ZM50.2208 31.0967C43.4367 31.0967 37.9138 35.7578 37.9138 41.4838C37.9138 47.2106 43.4323 51.8757 50.2208 51.8757C57.0085 51.8757 62.527 47.2154 62.527 41.4838C62.527 35.753 57.0049 31.0967 50.2208 31.0967Z" fill="#FAFAFA"/>
</g>
<path d="M50.214 57.1129C42.6919 57.1129 36.5703 50.8887 36.5703 43.24C36.5703 41.7285 36.808 40.2436 37.2761 38.824C37.3715 38.5395 37.6532 38.3952 37.9107 38.4959C38.1689 38.6007 38.2995 38.9111 38.2086 39.1948C37.7801 40.4919 37.5622 41.8511 37.5622 43.2352C37.5622 50.2816 43.2392 56.0165 50.214 56.0165C57.1881 56.0165 62.8695 50.2816 62.8695 43.2352C62.8695 41.9252 62.6751 40.6273 62.2863 39.3875C62.199 39.1029 62.334 38.7934 62.5959 38.6926C62.8541 38.5967 63.1351 38.745 63.2268 39.0336C63.6509 40.3871 63.8651 41.8027 63.8651 43.2352C63.8651 50.8838 57.7435 57.1088 50.2177 57.1088L50.214 57.1129Z" fill="#FAFAFA"/>
<path d="M42.5822 54.6366C42.3084 54.6366 42.0859 54.3924 42.0859 54.0909V50.2682C42.0859 49.9675 42.3084 49.7224 42.5822 49.7224C42.8561 49.7224 43.0785 49.9675 43.0785 50.2682V54.0909C43.0785 54.3924 42.8561 54.6366 42.5822 54.6366Z" fill="#FAFAFA"/>
<path d="M50.2932 57.113C50.0193 57.113 49.7969 56.8687 49.7969 56.5672V52.422C49.7969 52.1206 50.0193 51.8755 50.2932 51.8755C50.567 51.8755 50.7895 52.1206 50.7895 52.422V56.5672C50.7895 56.8687 50.567 57.113 50.2932 57.113Z" fill="#FAFAFA"/>
<path d="M46.2619 56.497C45.9873 56.497 45.7656 56.2527 45.7656 55.9512V51.8891C45.7656 51.5876 45.9873 51.3425 46.2619 51.3425C46.5358 51.3425 46.7582 51.5876 46.7582 51.8891V55.9512C46.7582 56.2527 46.5358 56.497 46.2619 56.497Z" fill="#FAFAFA"/>
<path d="M56.9182 55.2574C56.6443 55.2574 56.4219 55.0123 56.4219 54.7108V50.8099C56.4219 50.5084 56.6443 50.2642 56.9182 50.2642C57.192 50.2642 57.4145 50.5084 57.4145 50.8099V54.7108C57.4145 55.0123 57.192 55.2574 56.9182 55.2574Z" fill="#FAFAFA"/>
<path d="M59.2854 53.4352C59.0108 53.4352 58.7891 53.1909 58.7891 52.8894V49.207C58.7891 48.9055 59.0108 48.6604 59.2854 48.6604C59.5592 48.6604 59.7816 48.9055 59.7816 49.207V52.8894C59.7816 53.1909 59.5592 53.4352 59.2854 53.4352Z" fill="#FAFAFA"/>
<path d="M52.0317 60.9577C45.2124 60.9577 39.5266 56.5497 38.8091 50.7052C38.7731 50.4086 38.9631 50.1329 39.2331 50.0893C39.5031 50.0498 39.7533 50.2602 39.7929 50.5569C40.4436 55.8645 45.7083 59.8613 52.0317 59.8613C58.8201 59.8613 64.3387 55.2002 64.3387 49.4694C64.3387 47.7789 63.8427 46.1014 62.9102 44.6116C62.7554 44.3625 62.8112 44.0223 63.0372 43.8514C63.2639 43.6813 63.5727 43.7426 63.7275 43.9917C64.7788 45.6604 65.3342 47.5556 65.3342 49.4694C65.3342 55.7984 59.3674 60.9528 52.0361 60.9528L52.0317 60.9577Z" fill="#FAFAFA"/>
<mask id="mask1_405_2070" style="mask-type:luminance" maskUnits="userSpaceOnUse" x="38" y="46" width="28" height="20">
<path d="M38.3281 46.498H65.7161V65.2778H38.3281V46.498Z" fill="white"/>
</mask>
<g mask="url(#mask1_405_2070)">
<path d="M52.0422 65.0979C44.52 65.0979 38.3984 58.8729 38.3984 51.2242C38.3984 50.9099 38.4109 50.5906 38.4307 50.2811C38.4505 49.9796 38.6882 49.7522 38.9619 49.774C39.2355 49.7958 39.4424 50.0578 39.4226 50.3593C39.4021 50.643 39.3947 50.9357 39.3947 51.2242C39.3947 58.2699 45.0717 64.0056 52.0466 64.0056C59.0206 64.0056 64.702 58.2699 64.702 51.2242C64.702 49.9094 64.5076 48.6164 64.1188 47.3757C64.0315 47.092 64.1665 46.7816 64.4284 46.6817C64.6866 46.5809 64.9684 46.7341 65.0593 47.0178C65.4841 48.3721 65.6983 49.7829 65.6983 51.2202C65.6983 58.8689 59.5767 65.093 52.0502 65.093L52.0422 65.0979Z" fill="#FAFAFA"/>
</g>
<path d="M44.4025 62.6261C44.1287 62.6261 43.9062 62.3811 43.9062 62.0804V58.2577C43.9062 57.9562 44.1287 57.7119 44.4025 57.7119C44.6764 57.7119 44.8988 57.9562 44.8988 58.2577V62.0804C44.8988 62.3811 44.6764 62.6261 44.4025 62.6261Z" fill="#FAFAFA"/>
<path d="M52.1213 65.0986C51.8475 65.0986 51.625 64.8535 51.625 64.552V60.4068C51.625 60.1053 51.8475 59.8611 52.1213 59.8611C52.3951 59.8611 52.6176 60.1053 52.6176 60.4068V64.552C52.6176 64.8535 52.3951 65.0986 52.1213 65.0986Z" fill="#FAFAFA"/>
<path d="M48.09 64.4867C47.8162 64.4867 47.5938 64.2425 47.5938 63.941V59.878C47.5938 59.5773 47.8162 59.3323 48.09 59.3323C48.3639 59.3323 48.5863 59.5773 48.5863 59.878V63.941C48.5863 64.2425 48.3639 64.4867 48.09 64.4867Z" fill="#FAFAFA"/>
<path d="M58.7307 63.2461C58.4561 63.2461 58.2344 63.0018 58.2344 62.7003V58.7994C58.2344 58.4979 58.4561 58.2537 58.7307 58.2537C59.0045 58.2537 59.2262 58.4979 59.2262 58.7994V62.7003C59.2262 63.0018 59.0045 63.2461 58.7307 63.2461Z" fill="#FAFAFA"/>
<path d="M61.1057 61.4251C60.8318 61.4251 60.6094 61.1801 60.6094 60.8786V57.1961C60.6094 56.8955 60.8318 56.6504 61.1057 56.6504C61.3795 56.6504 61.602 56.8955 61.602 57.1961V60.8786C61.602 61.1801 61.3795 61.4251 61.1057 61.4251Z" fill="#FAFAFA"/>
<path d="M48.6427 65.1855C41.3105 65.1855 35.3438 60.0359 35.3438 53.7021C35.3438 51.4739 36.0818 49.3119 37.4787 47.4553C37.6533 47.224 37.9666 47.1885 38.1764 47.3812C38.3869 47.573 38.4185 47.9181 38.2439 48.1494C36.9945 49.8093 36.3356 51.7319 36.3356 53.7021C36.3356 59.4329 41.8586 64.094 48.6427 64.094C48.9163 64.094 49.1386 64.3383 49.1386 64.6398C49.1386 64.9413 48.9163 65.1855 48.6427 65.1855Z" fill="#FAFAFA"/>
<mask id="mask2_405_2070" style="mask-type:luminance" maskUnits="userSpaceOnUse" x="35" y="50" width="27" height="20">
<path d="M35 50.6252H61.0454V69.3131H35V50.6252Z" fill="white"/>
</mask>
<g mask="url(#mask2_405_2070)">
<path d="M48.6437 69.3303C41.1216 69.3303 35 63.1061 35 55.4575C35 53.946 35.2377 52.4611 35.7058 51.0414C35.8011 50.7569 36.0829 50.6085 36.3411 50.7133C36.5986 50.8181 36.73 51.1285 36.6382 51.4123C36.2098 52.7093 35.9919 54.0725 35.9919 55.4526C35.9919 62.4991 41.6689 68.2339 48.6437 68.2339C53.083 68.2339 57.2524 65.8365 59.526 61.9791C59.6888 61.7034 59.8392 61.4197 59.9786 61.1399C60.1092 60.8739 60.4108 60.778 60.6485 60.9223C60.8906 61.0658 60.9779 61.3979 60.8473 61.6647C60.6961 61.9703 60.5296 62.2806 60.355 62.5773C57.8995 66.7402 53.4125 69.3303 48.6437 69.3303Z" fill="#FAFAFA"/>
</g>
<path d="M41.0119 66.8539C40.7381 66.8539 40.5156 66.6097 40.5156 66.3082V62.4855C40.5156 62.1848 40.7381 61.9397 41.0119 61.9397C41.2865 61.9397 41.5082 62.1848 41.5082 62.4855V66.3082C41.5082 66.6097 41.2865 66.8539 41.0119 66.8539Z" fill="#FAFAFA"/>
<mask id="mask3_405_2070" style="mask-type:luminance" maskUnits="userSpaceOnUse" x="48" y="64" width="2" height="6">
<path d="M48.0938 64.04H49.4085V69.3138H48.0938V64.04Z" fill="white"/>
</mask>
<g mask="url(#mask3_405_2070)">
<path d="M48.7229 69.3309C48.449 69.3309 48.2266 69.0866 48.2266 68.7852V64.64C48.2266 64.3385 48.449 64.0942 48.7229 64.0942C48.9967 64.0942 49.2191 64.3385 49.2191 64.64V68.7852C49.2191 69.0866 48.9967 69.3309 48.7229 69.3309Z" fill="#FAFAFA"/>
</g>
<path d="M44.6916 68.7196C44.4178 68.7196 44.1953 68.4746 44.1953 68.1739V64.1109C44.1953 63.8094 44.4178 63.5652 44.6916 63.5652C44.9654 63.5652 45.1879 63.8094 45.1879 64.1109V68.1739C45.1879 68.4746 44.9654 68.7196 44.6916 68.7196Z" fill="#FAFAFA"/>
<path d="M55.34 67.4752C55.0662 67.4752 54.8438 67.2301 54.8438 66.9286V64.1329C54.8438 63.8314 55.0662 63.5872 55.34 63.5872C55.6139 63.5872 55.8363 63.8314 55.8363 64.1329V66.9286C55.8363 67.2301 55.6139 67.4752 55.34 67.4752Z" fill="#FAFAFA"/>
<path d="M50.974 46.5506C48.2837 46.5506 46.0938 44.0306 46.0938 40.9375C46.0938 37.8451 48.2837 35.3203 50.974 35.3203C51.7194 35.3203 52.434 35.5081 53.1001 35.879C53.3459 36.0144 53.4413 36.3425 53.318 36.6134C53.1955 36.8842 52.8976 36.989 52.6519 36.8536C52.1244 36.561 51.5609 36.4118 50.9696 36.4118C48.8273 36.4118 47.082 38.4433 47.082 40.9375C47.082 43.4317 48.8273 45.4583 50.9696 45.4583C51.5411 45.4583 52.0965 45.3148 52.6159 45.0351C52.8624 44.8996 53.1595 45.0133 53.2784 45.2842C53.4017 45.555 53.2982 45.8823 53.0524 46.0137C52.3936 46.3717 51.6915 46.5506 50.9659 46.5506H50.974Z" fill="#FAFAFA"/>
<path d="M52.0562 40.0727H45.0741C44.8004 40.0727 44.5781 39.8285 44.5781 39.527C44.5781 39.2255 44.8004 38.9812 45.0741 38.9812H52.0562C52.3306 38.9812 52.5522 39.2255 52.5522 39.527C52.5522 39.8285 52.3306 40.0727 52.0562 40.0727Z" fill="#FAFAFA"/>
<path d="M52.0562 42.8815H45.0741C44.8004 42.8815 44.5781 42.6373 44.5781 42.3358C44.5781 42.0343 44.8004 41.79 45.0741 41.79H52.0562C52.3306 41.79 52.5522 42.0343 52.5522 42.3358C52.5522 42.6373 52.3306 42.8815 52.0562 42.8815Z" fill="#FAFAFA"/>
</svg>
