<svg width="100" height="100" viewBox="0 0 100 100" fill="none" xmlns="http://www.w3.org/2000/svg">
<rect width="100" height="100" rx="50" fill="#E6AE00"/>
<path d="M66.3584 59.4422H65.0736V42.8557C65.0736 42.571 64.8436 42.3415 64.5605 42.3415H61.1792C60.895 42.3415 60.666 42.572 60.666 42.8557V59.4422H58.8568V45.639C58.8568 45.3548 58.6268 45.1248 58.3437 45.1248H54.9619C54.6782 45.1248 54.4493 45.3553 54.4493 45.639V59.4427H52.6401V48.4218C52.6401 48.1377 52.4101 47.9077 52.1269 47.9077H48.7451C48.4615 47.9077 48.232 48.1382 48.232 48.4218V59.4422H46.4218V45.639C46.4218 45.3548 46.1918 45.1248 45.9086 45.1248H42.5289C42.2457 45.1248 42.0158 45.3553 42.0158 45.639V59.4427H40.204V51.2051C40.204 50.921 39.974 50.6915 39.6909 50.6915H36.3106C36.0274 50.6915 35.798 50.9215 35.798 51.2051V59.4422H34.5131C34.2295 59.4422 34 59.6722 34 59.9558V61.7615C34 62.0462 34.23 62.2756 34.5131 62.2756H66.3584C66.6421 62.2756 66.8716 62.0451 66.8716 61.7615V59.9558C66.8721 59.6722 66.6421 59.4422 66.3584 59.4422ZM61.6918 43.3698H64.0468V59.4422H61.6918V43.3698ZM55.475 46.1531H57.8301V59.4422H55.475V46.1531ZM49.2583 48.9365H51.6133V59.4422H49.2583V48.9365ZM43.0415 46.1531H45.3945V59.4422H43.0415V46.1531ZM36.8242 51.7193H39.1772V59.4422H36.8242V51.7193ZM65.8453 61.2473H35.0262V60.47H65.8453V61.2473ZM44.2241 41.4205L50.2314 44.1104L63.2036 38.304L62.3792 37.9968C62.1129 37.8977 61.9775 37.6018 62.0766 37.3355C62.1753 37.0692 62.4707 36.9333 62.7364 37.0324L64.7383 37.7781C65.0041 37.8772 65.1395 38.1731 65.0409 38.4394L64.2968 40.4459C64.2196 40.6529 64.0238 40.7812 63.8158 40.7812C63.756 40.7812 63.6957 40.771 63.637 40.749C63.3707 40.6498 63.2352 40.3539 63.3344 40.0877L63.6528 39.229L50.4404 45.1427C50.3075 45.203 50.1547 45.203 50.0218 45.1427L44.1076 42.4953L36.653 49.1721C36.5554 49.2595 36.4327 49.3029 36.3116 49.3029C36.17 49.3029 36.03 49.2446 35.9288 49.1312C35.7402 48.9191 35.7581 48.5935 35.9697 48.4044L43.6737 41.5064C43.824 41.3725 44.0396 41.3383 44.2241 41.4205Z" fill="#FAFAFA"/>
</svg>
