<svg width="84" height="67" viewBox="0 0 84 67" fill="none" xmlns="http://www.w3.org/2000/svg">
<g clip-path="url(#clip0_432_370)">
<path d="M33.6406 2.16016H80.9978V49.5173H33.6406V2.16016Z" fill="#1565C0"/>
<path d="M57.1914 7.42188L58.1648 10.4212H61.322L58.7699 12.2628L59.7434 15.2621L57.1914 13.4204L54.6657 15.2621L55.6128 12.2891L53.0871 10.4475H56.2442L57.1651 7.42188H57.1914ZM44.2734 12.789L47.0885 14.2097L49.2985 11.9997L48.8249 15.1043L51.6137 16.525L48.5092 17.0249L48.0093 20.1294L46.5886 17.3406L43.4841 17.8141L45.6941 15.6041L44.2734 12.789ZM38.9062 25.707L41.9055 24.7335V21.5764L43.7472 24.1284L46.7728 23.2076L44.9311 25.7333L46.7728 28.2853L43.7998 27.3119L41.9582 29.8639V26.7068L38.9062 25.707ZM44.2734 38.625L45.6941 35.8362L43.4841 33.5998L46.5886 34.0997L48.0093 31.2846L48.5092 34.4154L51.6137 34.889L48.8249 36.336L49.2985 39.4406L47.0885 37.2043L44.2734 38.625ZM57.1914 43.9921L56.2179 40.9928H53.0608L55.6128 39.1512L54.692 36.1519L57.2177 37.9935L59.7697 36.1519L58.7963 39.1512L61.3483 40.9928H58.1911L57.2177 43.9921H57.1914ZM70.1093 38.625L67.3205 37.2043L65.0842 39.4406L65.5841 36.336L62.769 34.889L65.8998 34.4154L66.3734 31.2846L67.8204 34.0997L70.9249 33.5998L68.6886 35.8362L70.1093 38.625ZM75.4765 25.707L72.4772 26.6804V29.8376L70.6355 27.2856L67.6362 28.259L69.4779 25.707L67.6362 23.1813L70.6355 24.1284L72.4772 21.6027V24.7599L75.4765 25.707ZM70.1093 12.789L68.6886 15.6041L70.9249 17.8141L67.8204 17.3406L66.3734 20.1294L65.8998 17.0249L62.769 16.525L65.5841 15.1043L65.0842 11.9997L67.3205 14.2097L70.1093 12.789Z" fill="#FDD835"/>
</g>
<rect x="32.596" y="1.11551" width="49.4464" height="49.4464" rx="24.7232" stroke="white" stroke-width="2.08929"/>
<g clip-path="url(#clip1_432_370)">
<path d="M3 17.4814H50.3571V64.8386H3V17.4814Z" fill="#F8F9FD"/>
<path d="M31.9405 28.0053H50.3571V17.4814H31.9405V28.0053ZM3 64.8386H50.3571V54.3148H3V64.8386ZM31.9405 46.4219H50.3571V35.8981H31.9405V46.4219Z" fill="#EF5350"/>
<path d="M3 17.4814H31.9405V46.4219H3V17.4814Z" fill="#1E88E9"/>
<path d="M9.35933 20.6908C9.37925 20.6522 9.40943 20.6197 9.44656 20.5971C9.48368 20.5745 9.52633 20.5625 9.56981 20.5625C9.61329 20.5625 9.65593 20.5745 9.69306 20.5971C9.73019 20.6197 9.76036 20.6522 9.78028 20.6908L10.4906 22.5588C10.517 22.664 10.6222 22.7166 10.7011 22.7166L12.7006 22.8219C12.9111 22.8219 12.99 23.085 12.8322 23.2428L11.2536 24.4794C11.2193 24.5128 11.1958 24.5558 11.1864 24.6028C11.1771 24.6497 11.1821 24.6984 11.201 24.7425L11.7272 26.6368C11.7432 26.6848 11.7434 26.7367 11.7277 26.7849C11.7121 26.833 11.6814 26.8749 11.6402 26.9043C11.599 26.9338 11.5494 26.9492 11.4988 26.9484C11.4481 26.9476 11.3991 26.9306 11.3589 26.8999L9.70136 25.8212C9.66242 25.7951 9.61664 25.7813 9.56981 25.7813C9.52298 25.7813 9.4772 25.7951 9.43826 25.8212L7.78076 26.8999C7.74051 26.9306 7.69147 26.9476 7.64083 26.9484C7.59019 26.9492 7.54063 26.9338 7.49942 26.9043C7.45821 26.8749 7.42753 26.833 7.41187 26.7849C7.39621 26.7367 7.39641 26.6848 7.41243 26.6368L7.93862 24.7162C7.95444 24.6695 7.95535 24.6192 7.9412 24.572C7.92705 24.5248 7.89856 24.4833 7.85969 24.4531L6.30743 23.2428C6.27026 23.213 6.24295 23.1727 6.22905 23.1272C6.21516 23.0816 6.21532 23.0329 6.22953 22.9875C6.24374 22.942 6.27132 22.9019 6.30869 22.8723C6.34605 22.8428 6.39146 22.8252 6.43897 22.8219L8.4385 22.7166C8.51743 22.7166 8.62267 22.664 8.64897 22.5588L9.35933 20.7171V20.6908ZM9.35933 28.5837C9.37925 28.545 9.40943 28.5126 9.44656 28.49C9.48368 28.4673 9.52633 28.4554 9.56981 28.4554C9.61329 28.4554 9.65593 28.4673 9.69306 28.49C9.73019 28.5126 9.76036 28.545 9.78028 28.5837L10.4906 30.4516C10.517 30.5569 10.6222 30.6095 10.7011 30.6095L12.7006 30.7147C12.9111 30.7147 12.99 30.9778 12.8322 31.1357L11.2536 32.3722C11.2193 32.4056 11.1958 32.4486 11.1864 32.4956C11.1771 32.5426 11.1821 32.5913 11.201 32.6353L11.7272 34.5296C11.7432 34.5777 11.7434 34.6296 11.7277 34.6777C11.7121 34.7259 11.6814 34.7678 11.6402 34.7972C11.599 34.8266 11.5494 34.8421 11.4988 34.8413C11.4481 34.8405 11.3991 34.8234 11.3589 34.7927L9.70136 33.714C9.66242 33.688 9.61664 33.6741 9.56981 33.6741C9.52298 33.6741 9.4772 33.688 9.43826 33.714L7.78076 34.7927C7.74051 34.8234 7.69147 34.8405 7.64083 34.8413C7.59019 34.8421 7.54063 34.8266 7.49942 34.7972C7.45821 34.7678 7.42753 34.7259 7.41187 34.6777C7.39621 34.6296 7.39641 34.5777 7.41243 34.5296L7.93862 32.609C7.95444 32.5624 7.95535 32.512 7.9412 32.4649C7.92705 32.4177 7.89856 32.3761 7.85969 32.3459L6.30743 31.1357C6.27026 31.1059 6.24295 31.0656 6.22905 31.02C6.21516 30.9745 6.21532 30.9258 6.22953 30.8803C6.24374 30.8349 6.27132 30.7947 6.30869 30.7652C6.34605 30.7357 6.39146 30.7181 6.43897 30.7147L8.4385 30.6095C8.51743 30.6095 8.62267 30.5569 8.64897 30.4516L9.35933 28.61V28.5837ZM9.35933 36.4765C9.37925 36.4379 9.40943 36.4055 9.44656 36.3828C9.48368 36.3602 9.52633 36.3482 9.56981 36.3482C9.61329 36.3482 9.65593 36.3602 9.69306 36.3828C9.73019 36.4055 9.76036 36.4379 9.78028 36.4765L10.4906 38.3445C10.517 38.4497 10.6222 38.5024 10.7011 38.5024L12.7006 38.6076C12.9111 38.6076 12.99 38.8707 12.8322 39.0285L11.2536 40.2651C11.2193 40.2985 11.1958 40.3415 11.1864 40.3885C11.1771 40.4354 11.1821 40.4842 11.201 40.5282L11.7272 42.4225C11.7432 42.4705 11.7434 42.5224 11.7277 42.5706C11.7121 42.6188 11.6814 42.6606 11.6402 42.6901C11.599 42.7195 11.5494 42.7349 11.4988 42.7341C11.4481 42.7333 11.3991 42.7163 11.3589 42.6856L9.70136 41.6069C9.66242 41.5809 9.61664 41.567 9.56981 41.567C9.52298 41.567 9.4772 41.5809 9.43826 41.6069L7.78076 42.6856C7.74051 42.7163 7.69147 42.7333 7.64083 42.7341C7.59019 42.7349 7.54063 42.7195 7.49942 42.6901C7.45821 42.6606 7.42753 42.6188 7.41187 42.5706C7.39621 42.5224 7.39641 42.4705 7.41243 42.4225L7.93862 40.5019C7.95444 40.4553 7.95535 40.4049 7.9412 40.3577C7.92705 40.3106 7.89856 40.269 7.85969 40.2388L6.30743 39.0285C6.27026 38.9988 6.24295 38.9584 6.22905 38.9129C6.21516 38.8673 6.21532 38.8186 6.22953 38.7732C6.24374 38.7277 6.27132 38.6876 6.30869 38.658C6.34605 38.6285 6.39146 38.6109 6.43897 38.6076L8.4385 38.5024C8.51743 38.5024 8.62267 38.4497 8.64897 38.3445L9.35933 36.5028V36.4765ZM17.2522 20.6908C17.2721 20.6522 17.3023 20.6197 17.3394 20.5971C17.3765 20.5745 17.4192 20.5625 17.4627 20.5625C17.5061 20.5625 17.5488 20.5745 17.5859 20.5971C17.623 20.6197 17.6532 20.6522 17.6731 20.6908L18.3835 22.5588C18.4098 22.664 18.515 22.7166 18.594 22.7166L20.5935 22.8219C20.804 22.8219 20.8829 23.085 20.725 23.2428L19.1465 24.4794C19.1121 24.5128 19.0887 24.5558 19.0793 24.6028C19.0699 24.6497 19.075 24.6984 19.0939 24.7425L19.62 26.6368C19.6361 26.6848 19.6363 26.7367 19.6206 26.7849C19.6049 26.833 19.5743 26.8749 19.533 26.9043C19.4918 26.9338 19.4423 26.9492 19.3916 26.9484C19.341 26.9476 19.292 26.9306 19.2517 26.8999L17.5942 25.8212C17.5553 25.7951 17.5095 25.7813 17.4627 25.7813C17.4158 25.7813 17.3701 25.7951 17.3311 25.8212L15.6736 26.8999C15.6334 26.9306 15.5843 26.9476 15.5337 26.9484C15.4831 26.9492 15.4335 26.9338 15.3923 26.9043C15.3511 26.8749 15.3204 26.833 15.3047 26.7849C15.2891 26.7367 15.2893 26.6848 15.3053 26.6368L15.8315 24.7162C15.8473 24.6695 15.8482 24.6192 15.8341 24.572C15.8199 24.5248 15.7914 24.4833 15.7525 24.4531L14.2003 23.2428C14.1631 23.213 14.1358 23.1727 14.1219 23.1272C14.108 23.0816 14.1082 23.0329 14.1224 22.9875C14.1366 22.942 14.1642 22.9019 14.2015 22.8723C14.2389 22.8428 14.2843 22.8252 14.3318 22.8219L16.3314 22.7166C16.4103 22.7166 16.5155 22.664 16.5418 22.5588L17.2522 20.7171V20.6908ZM17.2522 28.5837C17.2721 28.545 17.3023 28.5126 17.3394 28.49C17.3765 28.4673 17.4192 28.4554 17.4627 28.4554C17.5061 28.4554 17.5488 28.4673 17.5859 28.49C17.623 28.5126 17.6532 28.545 17.6731 28.5837L18.3835 30.4516C18.4098 30.5569 18.515 30.6095 18.594 30.6095L20.5935 30.7147C20.804 30.7147 20.8829 30.9778 20.725 31.1357L19.1465 32.3722C19.1121 32.4056 19.0887 32.4486 19.0793 32.4956C19.0699 32.5426 19.075 32.5913 19.0939 32.6353L19.62 34.5296C19.6361 34.5777 19.6363 34.6296 19.6206 34.6777C19.6049 34.7259 19.5743 34.7678 19.533 34.7972C19.4918 34.8266 19.4423 34.8421 19.3916 34.8413C19.341 34.8405 19.292 34.8234 19.2517 34.7927L17.5942 33.714C17.5553 33.688 17.5095 33.6741 17.4627 33.6741C17.4158 33.6741 17.3701 33.688 17.3311 33.714L15.6736 34.7927C15.6334 34.8234 15.5843 34.8405 15.5337 34.8413C15.4831 34.8421 15.4335 34.8266 15.3923 34.7972C15.3511 34.7678 15.3204 34.7259 15.3047 34.6777C15.2891 34.6296 15.2893 34.5777 15.3053 34.5296L15.8315 32.609C15.8473 32.5624 15.8482 32.512 15.8341 32.4649C15.8199 32.4177 15.7914 32.3761 15.7525 32.3459L14.2003 31.1357C14.1631 31.1059 14.1358 31.0656 14.1219 31.02C14.108 30.9745 14.1082 30.9258 14.1224 30.8803C14.1366 30.8349 14.1642 30.7947 14.2015 30.7652C14.2389 30.7357 14.2843 30.7181 14.3318 30.7147L16.3314 30.6095C16.4103 30.6095 16.5155 30.5569 16.5418 30.4516L17.2522 28.61V28.5837ZM17.2522 36.4765C17.2721 36.4379 17.3023 36.4055 17.3394 36.3828C17.3765 36.3602 17.4192 36.3482 17.4627 36.3482C17.5061 36.3482 17.5488 36.3602 17.5859 36.3828C17.623 36.4055 17.6532 36.4379 17.6731 36.4765L18.3835 38.3445C18.4098 38.4497 18.515 38.5024 18.594 38.5024L20.5935 38.6076C20.804 38.6076 20.8829 38.8707 20.725 39.0285L19.1465 40.2651C19.1121 40.2985 19.0887 40.3415 19.0793 40.3885C19.0699 40.4354 19.075 40.4842 19.0939 40.5282L19.62 42.4225C19.6361 42.4705 19.6363 42.5224 19.6206 42.5706C19.6049 42.6188 19.5743 42.6606 19.533 42.6901C19.4918 42.7195 19.4423 42.7349 19.3916 42.7341C19.341 42.7333 19.292 42.7163 19.2517 42.6856L17.5942 41.6069C17.5553 41.5809 17.5095 41.567 17.4627 41.567C17.4158 41.567 17.3701 41.5809 17.3311 41.6069L15.6736 42.6856C15.6334 42.7163 15.5843 42.7333 15.5337 42.7341C15.4831 42.7349 15.4335 42.7195 15.3923 42.6901C15.3511 42.6606 15.3204 42.6188 15.3047 42.5706C15.2891 42.5224 15.2893 42.4705 15.3053 42.4225L15.8315 40.5019C15.8473 40.4553 15.8482 40.4049 15.8341 40.3577C15.8199 40.3106 15.7914 40.269 15.7525 40.2388L14.2003 39.0285C14.1631 38.9988 14.1358 38.9584 14.1219 38.9129C14.108 38.8673 14.1082 38.8186 14.1224 38.7732C14.1366 38.7277 14.1642 38.6876 14.2015 38.658C14.2389 38.6285 14.2843 38.6109 14.3318 38.6076L16.3314 38.5024C16.4103 38.5024 16.5155 38.4497 16.5418 38.3445L17.2522 36.5028V36.4765ZM25.145 20.6908C25.165 20.6522 25.1951 20.6197 25.2323 20.5971C25.2694 20.5745 25.312 20.5625 25.3555 20.5625C25.399 20.5625 25.4416 20.5745 25.4788 20.5971C25.5159 20.6197 25.5461 20.6522 25.566 20.6908L26.2764 22.5588C26.3027 22.664 26.4079 22.7166 26.4868 22.7166L28.4864 22.8219C28.6968 22.8219 28.7758 23.085 28.6179 23.2428L27.0393 24.4794C27.005 24.5128 26.9816 24.5558 26.9722 24.6028C26.9628 24.6497 26.9678 24.6984 26.9867 24.7425L27.5129 26.6368C27.5289 26.6848 27.5291 26.7367 27.5135 26.7849C27.4978 26.833 27.4671 26.8749 27.4259 26.9043C27.3847 26.9338 27.3351 26.9492 27.2845 26.9484C27.2339 26.9476 27.1848 26.9306 27.1446 26.8999L25.4871 25.8212C25.4481 25.7951 25.4024 25.7813 25.3555 25.7813C25.3087 25.7813 25.2629 25.7951 25.224 25.8212L23.5665 26.8999C23.5262 26.9306 23.4772 26.9476 23.4265 26.9484C23.3759 26.9492 23.3263 26.9338 23.2851 26.9043C23.2439 26.8749 23.2132 26.833 23.1976 26.7849C23.1819 26.7367 23.1821 26.6848 23.1981 26.6368L23.7243 24.7162C23.7402 24.6695 23.7411 24.6192 23.7269 24.572C23.7128 24.5248 23.6843 24.4833 23.6454 24.4531L22.0931 23.2428C22.056 23.213 22.0287 23.1727 22.0148 23.1272C22.0009 23.0816 22.001 23.0329 22.0152 22.9875C22.0295 22.942 22.057 22.9019 22.0944 22.8723C22.1318 22.8428 22.1772 22.8252 22.2247 22.8219L24.2242 22.7166C24.3031 22.7166 24.4084 22.664 24.4347 22.5588L25.145 20.7171V20.6908ZM25.145 28.5837C25.165 28.545 25.1951 28.5126 25.2323 28.49C25.2694 28.4673 25.312 28.4554 25.3555 28.4554C25.399 28.4554 25.4416 28.4673 25.4788 28.49C25.5159 28.5126 25.5461 28.545 25.566 28.5837L26.2764 30.4516C26.3027 30.5569 26.4079 30.6095 26.4868 30.6095L28.4864 30.7147C28.6968 30.7147 28.7758 30.9778 28.6179 31.1357L27.0393 32.3722C27.005 32.4056 26.9816 32.4486 26.9722 32.4956C26.9628 32.5426 26.9678 32.5913 26.9867 32.6353L27.5129 34.5296C27.5289 34.5777 27.5291 34.6296 27.5135 34.6777C27.4978 34.7259 27.4671 34.7678 27.4259 34.7972C27.3847 34.8266 27.3351 34.8421 27.2845 34.8413C27.2339 34.8405 27.1848 34.8234 27.1446 34.7927L25.4871 33.714C25.4481 33.688 25.4024 33.6741 25.3555 33.6741C25.3087 33.6741 25.2629 33.688 25.224 33.714L23.5665 34.7927C23.5262 34.8234 23.4772 34.8405 23.4265 34.8413C23.3759 34.8421 23.3263 34.8266 23.2851 34.7972C23.2439 34.7678 23.2132 34.7259 23.1976 34.6777C23.1819 34.6296 23.1821 34.5777 23.1981 34.5296L23.7243 32.609C23.7402 32.5624 23.7411 32.512 23.7269 32.4649C23.7128 32.4177 23.6843 32.3761 23.6454 32.3459L22.0931 31.1357C22.056 31.1059 22.0287 31.0656 22.0148 31.02C22.0009 30.9745 22.001 30.9258 22.0152 30.8803C22.0295 30.8349 22.057 30.7947 22.0944 30.7652C22.1318 30.7357 22.1772 30.7181 22.2247 30.7147L24.2242 30.6095C24.3031 30.6095 24.4084 30.5569 24.4347 30.4516L25.145 28.61V28.5837ZM25.145 36.4765C25.165 36.4379 25.1951 36.4055 25.2323 36.3828C25.2694 36.3602 25.312 36.3482 25.3555 36.3482C25.399 36.3482 25.4416 36.3602 25.4788 36.3828C25.5159 36.4055 25.5461 36.4379 25.566 36.4765L26.2764 38.3445C26.3027 38.4497 26.4079 38.5024 26.4868 38.5024L28.4864 38.6076C28.6968 38.6076 28.7758 38.8707 28.6179 39.0285L27.0393 40.2651C27.005 40.2985 26.9816 40.3415 26.9722 40.3885C26.9628 40.4354 26.9678 40.4842 26.9867 40.5282L27.5129 42.4225C27.5289 42.4705 27.5291 42.5224 27.5135 42.5706C27.4978 42.6188 27.4671 42.6606 27.4259 42.6901C27.3847 42.7195 27.3351 42.7349 27.2845 42.7341C27.2339 42.7333 27.1848 42.7163 27.1446 42.6856L25.4871 41.6069C25.4481 41.5809 25.4024 41.567 25.3555 41.567C25.3087 41.567 25.2629 41.5809 25.224 41.6069L23.5665 42.6856C23.5262 42.7163 23.4772 42.7333 23.4265 42.7341C23.3759 42.7349 23.3263 42.7195 23.2851 42.6901C23.2439 42.6606 23.2132 42.6188 23.1976 42.5706C23.1819 42.5224 23.1821 42.4705 23.1981 42.4225L23.7243 40.5019C23.7402 40.4553 23.7411 40.4049 23.7269 40.3577C23.7128 40.3106 23.6843 40.269 23.6454 40.2388L22.0931 39.0285C22.056 38.9988 22.0287 38.9584 22.0148 38.9129C22.0009 38.8673 22.001 38.8186 22.0152 38.7732C22.0295 38.7277 22.057 38.6876 22.0944 38.658C22.1318 38.6285 22.1772 38.6109 22.2247 38.6076L24.2242 38.5024C24.3031 38.5024 24.4084 38.4497 24.4347 38.3445L25.145 36.5028V36.4765Z" fill="#F8F9FD"/>
</g>
<rect x="1.95536" y="16.4368" width="49.4464" height="49.4464" rx="24.7232" stroke="white" stroke-width="2.08929"/>
<defs>
<clipPath id="clip0_432_370">
<rect x="33.6406" y="2.16016" width="47.3571" height="47.3571" rx="23.6786" fill="white"/>
</clipPath>
<clipPath id="clip1_432_370">
<rect x="3" y="17.4814" width="47.3571" height="47.3571" rx="23.6786" fill="white"/>
</clipPath>
</defs>
</svg>
