<svg width="61" height="62" viewBox="0 0 61 62" fill="none" xmlns="http://www.w3.org/2000/svg">
<g clip-path="url(#clip0_405_3898)">
<path d="M60.9823 30.8271C60.9823 14.1081 47.4289 0.554688 30.7099 0.554688C13.9909 0.554688 0.4375 14.1081 0.4375 30.8271C0.4375 47.5461 13.9909 61.0995 30.7099 61.0995C47.4289 61.0995 60.9823 47.5461 60.9823 30.8271Z" fill="white"/>
<mask id="mask0_405_3898" style="mask-type:luminance" maskUnits="userSpaceOnUse" x="0" y="0" width="61" height="62">
<path d="M60.9745 30.8271C60.9745 14.1081 47.4211 0.554688 30.7021 0.554688C13.9831 0.554688 0.429688 14.1081 0.429688 30.8271C0.429688 47.5461 13.9831 61.0995 30.7021 61.0995C47.4211 61.0995 60.9745 47.5461 60.9745 30.8271Z" fill="white"/>
</mask>
<g mask="url(#mask0_405_3898)">
<path fill-rule="evenodd" clip-rule="evenodd" d="M0.429688 0.554688H69.6237V69.7487H0.429688V0.554688Z" fill="#FFAD00"/>
</g>
<mask id="mask1_405_3898" style="mask-type:luminance" maskUnits="userSpaceOnUse" x="0" y="0" width="61" height="62">
<path d="M60.9745 30.8271C60.9745 14.1081 47.4211 0.554688 30.7021 0.554688C13.9831 0.554688 0.429688 14.1081 0.429688 30.8271C0.429688 47.5461 13.9831 61.0995 30.7021 61.0995C47.4211 61.0995 60.9745 47.5461 60.9745 30.8271Z" fill="white"/>
</mask>
<g mask="url(#mask1_405_3898)">
<path fill-rule="evenodd" clip-rule="evenodd" d="M21.2913 28.3493H40.1208L35.4177 18.9346H26.0008L21.2913 28.3493ZM32.4175 41.188H51.248L46.545 31.7733H37.127L32.4175 41.188ZM10.1641 41.188H28.9946L24.2915 31.7733H14.8725L10.1641 41.188Z" fill="white"/>
</g>
</g>
<defs>
<clipPath id="clip0_405_3898">
<rect width="60.5448" height="60.5448" fill="white" transform="translate(0.4375 0.554688)"/>
</clipPath>
</defs>
</svg>
