<svg width="61" height="62" viewBox="0 0 61 62" fill="none" xmlns="http://www.w3.org/2000/svg">
<g clip-path="url(#clip0_405_3881)">
<path d="M60.9823 30.8271C60.9823 14.1081 47.4289 0.554688 30.7099 0.554688C13.9909 0.554688 0.4375 14.1081 0.4375 30.8271C0.4375 47.5461 13.9909 61.0995 30.7099 61.0995C47.4289 61.0995 60.9823 47.5461 60.9823 30.8271Z" fill="#3F444E"/>
<path fill-rule="evenodd" clip-rule="evenodd" d="M43.6446 22.8755C41.4791 19.7186 38.1232 19.2861 36.9436 19.2526C34.124 18.9553 31.3897 20.9392 29.954 20.9392C28.4901 20.9392 26.278 19.2807 23.8952 19.3293C20.829 19.3769 17.9596 21.1522 16.3854 23.9102C13.1387 29.5322 15.5605 37.7933 18.6721 42.3374C20.229 44.5635 22.0464 47.048 24.4271 46.9594C26.7559 46.8643 27.6251 45.476 30.4362 45.476C33.2201 45.476 34.0364 46.9594 36.4647 46.9032C38.9643 46.8642 40.5374 44.6695 42.0391 42.4218C43.8382 39.8724 44.5604 37.3587 44.5885 37.2301C44.5312 37.2117 39.7363 35.3802 39.6876 29.8458C39.6465 25.2271 43.4695 22.9804 43.6446 22.8755ZM33.5056 16.2632C34.7575 14.6966 35.6149 12.5656 35.377 10.4033C33.5639 10.4833 31.2968 11.6575 29.9918 13.1895C28.836 14.5387 27.8046 16.7519 28.0717 18.8331C30.1075 18.9845 32.1984 17.806 33.5056 16.2632Z" fill="white"/>
</g>
<defs>
<clipPath id="clip0_405_3881">
<rect width="60.5448" height="60.5448" fill="white" transform="translate(0.4375 0.554688)"/>
</clipPath>
</defs>
</svg>
