<svg width="40" height="41" viewBox="0 0 40 41" fill="none" xmlns="http://www.w3.org/2000/svg">
<rect x="-0.714286" y="0.714286" width="38.5714" height="38.5714" rx="5" transform="matrix(-1 0 0 1 38.5714 0.375)" fill="#E5AE00"/>
<rect x="-0.714286" y="0.714286" width="38.5714" height="38.5714" rx="5" transform="matrix(-1 0 0 1 38.5714 0.375)" stroke="white" stroke-width="1.42857"/>
<path d="M15.0133 21.45C14.7179 21.1545 14.7179 20.6755 15.0133 20.3801L19.8275 15.5659C20.123 15.2704 20.6019 15.2704 20.8974 15.5659C21.1928 15.8613 21.1928 16.3403 20.8974 16.6357L16.618 20.915L20.8974 25.1944C21.1928 25.4898 21.1928 25.9688 20.8974 26.2642C20.6019 26.5596 20.123 26.5596 19.8275 26.2642L15.0133 21.45ZM16.3047 21.6715H15.5482V20.1586H16.3047V21.6715Z" fill="white"/>
</svg>
