<svg width="28" height="28" viewBox="0 0 28 28" fill="none" xmlns="http://www.w3.org/2000/svg">
<circle cx="14.3933" cy="13.9756" r="13.5183" fill="#EBEBEB"/>
<path fill-rule="evenodd" clip-rule="evenodd" d="M14.6998 19.0329L20.2317 22.1497L20.524 22.1584L20.6059 21.8777L19.3545 15.6529L24.0268 11.352L24.1233 11.0772L23.8835 10.9134L17.5768 10.1796L14.9279 4.40797L14.6998 4.22961L14.4688 4.40797L11.8228 10.1796L5.51319 10.9134L5.27344 11.0772L5.37285 11.352L10.0451 15.6529L8.79078 21.8777L8.87265 22.1584L9.16503 22.1497L14.6998 19.0329Z" fill="url(#paint0_radial_504_6635)"/>
<path fill-rule="evenodd" clip-rule="evenodd" d="M14.6919 4.22961V4.67111L14.4609 4.40797L14.6919 4.22961Z" fill="white"/>
<path style="mix-blend-mode:screen" fill-rule="evenodd" clip-rule="evenodd" d="M14.4664 4.40796L11.8203 10.1796L12.0338 10.4778L14.6973 4.6711L14.4664 4.40796Z" fill="url(#paint1_radial_504_6635)"/>
<path fill-rule="evenodd" clip-rule="evenodd" d="M5.69447 11.2147L5.27344 11.0773L5.51319 10.9136L5.69447 11.2147Z" fill="white"/>
<path style="mix-blend-mode:screen" fill-rule="evenodd" clip-rule="evenodd" d="M5.50781 10.9133L5.68909 11.2145L12.0308 10.4777L11.8174 10.1794L5.50781 10.9133Z" fill="url(#paint2_radial_504_6635)"/>
<path fill-rule="evenodd" clip-rule="evenodd" d="M5.27344 11.0771L5.37285 11.352L5.69447 11.2146L5.27344 11.0771Z" fill="#FFF873"/>
<path style="mix-blend-mode:multiply" fill-rule="evenodd" clip-rule="evenodd" d="M10.0473 15.6529L10.3952 15.5389L5.69662 11.2146L5.375 11.352L10.0473 15.6529Z" fill="url(#paint3_radial_504_6635)"/>
<path style="mix-blend-mode:screen" fill-rule="evenodd" clip-rule="evenodd" d="M10.3913 15.5389L9.13115 21.7988L8.78906 21.8778L10.0434 15.653L10.3913 15.5389Z" fill="url(#paint4_radial_504_6635)"/>
<path fill-rule="evenodd" clip-rule="evenodd" d="M9.13115 21.7988L8.87093 22.1585L8.78906 21.8778L9.13115 21.7988Z" fill="#FFECBD"/>
<path style="mix-blend-mode:multiply" fill-rule="evenodd" clip-rule="evenodd" d="M14.7076 18.6674V19.0328L9.17279 22.1496L9.14062 21.7988L14.7076 18.6674Z" fill="url(#paint5_radial_504_6635)"/>
<path fill-rule="evenodd" clip-rule="evenodd" d="M9.15957 22.1497L9.12741 21.7988L8.86719 22.1585L9.15957 22.1497Z" fill="#FFB717"/>
<path fill-rule="evenodd" clip-rule="evenodd" d="M14.7031 4.22961V4.67111L14.9312 4.40797L14.7031 4.22961Z" fill="#FFFDA9"/>
<path style="mix-blend-mode:multiply" fill-rule="evenodd" clip-rule="evenodd" d="M14.9312 4.40796L17.5802 10.1796L17.3638 10.4778L14.7031 4.6711L14.9312 4.40796Z" fill="url(#paint6_radial_504_6635)"/>
<path fill-rule="evenodd" clip-rule="evenodd" d="M23.7031 11.2147L24.1212 11.0773L23.8815 10.9136L23.7031 11.2147Z" fill="#FFFAB8"/>
<path style="mix-blend-mode:screen" fill-rule="evenodd" clip-rule="evenodd" d="M23.898 10.9133L23.7197 11.2145L17.375 10.4777L17.5914 10.1794L23.898 10.9133Z" fill="url(#paint7_radial_504_6635)"/>
<path fill-rule="evenodd" clip-rule="evenodd" d="M24.1212 11.0771L24.0247 11.352L23.7031 11.2146L24.1212 11.0771Z" fill="#EDB400"/>
<path style="mix-blend-mode:multiply" fill-rule="evenodd" clip-rule="evenodd" d="M19.343 15.6529L18.9922 15.5389L23.6937 11.2146L24.0153 11.352L19.343 15.6529Z" fill="url(#paint8_radial_504_6635)"/>
<path style="mix-blend-mode:screen" fill-rule="evenodd" clip-rule="evenodd" d="M18.9922 15.5389L20.2524 21.7988L20.5944 21.8778L19.343 15.653L18.9922 15.5389Z" fill="url(#paint9_radial_504_6635)"/>
<path fill-rule="evenodd" clip-rule="evenodd" d="M20.2734 21.7988L20.5337 22.1585L20.6155 21.8778L20.2734 21.7988Z" fill="#FFC552"/>
<path style="mix-blend-mode:multiply" fill-rule="evenodd" clip-rule="evenodd" d="M14.7031 18.6674V19.0328L20.235 22.1496L20.2671 21.7988L14.7031 18.6674Z" fill="url(#paint10_radial_504_6635)"/>
<path fill-rule="evenodd" clip-rule="evenodd" d="M20.2344 22.1497L20.2665 21.7988L20.5268 22.1585L20.2344 22.1497Z" fill="#894E00"/>
<path style="mix-blend-mode:screen" fill-rule="evenodd" clip-rule="evenodd" d="M5.70312 11.2148L7.15918 11.6885L12.4776 11.0686L12.0449 10.478L5.70312 11.2148Z" fill="url(#paint11_radial_504_6635)"/>
<path style="mix-blend-mode:screen" fill-rule="evenodd" clip-rule="evenodd" d="M12.0391 10.4777L14.7027 4.67102V6.2031L12.4718 11.0683L12.0391 10.4777Z" fill="url(#paint12_radial_504_6635)"/>
<path style="mix-blend-mode:multiply" opacity="0.5" fill-rule="evenodd" clip-rule="evenodd" d="M7.15918 11.6883L5.70312 11.2146L10.4017 15.5389L11.0976 15.3138L7.15918 11.6883Z" fill="url(#paint13_radial_504_6635)"/>
<path style="mix-blend-mode:screen" fill-rule="evenodd" clip-rule="evenodd" d="M10.4008 15.539L9.14062 21.7989L10.0412 20.5621L11.0967 15.3138L10.4008 15.539Z" fill="url(#paint14_radial_504_6635)"/>
<path style="mix-blend-mode:multiply" fill-rule="evenodd" clip-rule="evenodd" d="M14.7076 17.9364V18.6674L9.14062 21.7988L10.0412 20.562L14.7076 17.9364Z" fill="url(#paint15_radial_504_6635)"/>
<path style="mix-blend-mode:screen" fill-rule="evenodd" clip-rule="evenodd" d="M23.7042 11.2148L22.2452 11.6885L16.9297 11.0686L17.3595 10.478L23.7042 11.2148Z" fill="url(#paint16_radial_504_6635)"/>
<path style="mix-blend-mode:multiply" fill-rule="evenodd" clip-rule="evenodd" d="M17.3638 10.4777L14.7031 4.67102V6.2031L16.934 11.0683L17.3638 10.4777Z" fill="url(#paint17_radial_504_6635)"/>
<path style="mix-blend-mode:multiply" opacity="0.5" fill-rule="evenodd" clip-rule="evenodd" d="M22.2352 11.6883L23.6942 11.2146L18.9927 15.5389L18.2969 15.3138L22.2352 11.6883Z" fill="url(#paint18_radial_504_6635)"/>
<path style="mix-blend-mode:screen" opacity="0.5" fill-rule="evenodd" clip-rule="evenodd" d="M18.9927 15.539L20.2529 21.7989L19.3524 20.5621L18.2969 15.3138L18.9927 15.539Z" fill="url(#paint19_radial_504_6635)"/>
<path style="mix-blend-mode:multiply" fill-rule="evenodd" clip-rule="evenodd" d="M14.7031 17.9364V18.6674L20.2671 21.7988L19.3666 20.562L14.7031 17.9364Z" fill="url(#paint20_radial_504_6635)"/>
<path style="mix-blend-mode:screen" fill-rule="evenodd" clip-rule="evenodd" d="M14.6977 14.1413L12.4669 11.0684L7.14844 11.6882L14.6977 14.1413Z" fill="url(#paint21_radial_504_6635)"/>
<path style="mix-blend-mode:multiply" fill-rule="evenodd" clip-rule="evenodd" d="M14.6977 14.1413L7.14844 11.6882L11.0868 15.3138L14.6977 14.1413Z" fill="url(#paint22_radial_504_6635)"/>
<path style="mix-blend-mode:multiply" fill-rule="evenodd" clip-rule="evenodd" d="M14.6977 14.1412L11.0867 15.3137L10.0312 20.5619L14.6977 14.1412Z" fill="url(#paint23_radial_504_6635)"/>
<path style="mix-blend-mode:screen" fill-rule="evenodd" clip-rule="evenodd" d="M14.6977 14.1412L10.0312 20.5619L14.6977 17.9363V14.1412Z" fill="url(#paint24_radial_504_6635)"/>
<path style="mix-blend-mode:screen" opacity="0.5" fill-rule="evenodd" clip-rule="evenodd" d="M14.7031 14.1412V17.9363L19.3666 20.5619L14.7031 14.1412Z" fill="url(#paint25_radial_504_6635)"/>
<path style="mix-blend-mode:multiply" fill-rule="evenodd" clip-rule="evenodd" d="M14.7031 14.1412L19.3666 20.5619L18.3111 15.3137L14.7031 14.1412Z" fill="url(#paint26_radial_504_6635)"/>
<path style="mix-blend-mode:screen" fill-rule="evenodd" clip-rule="evenodd" d="M14.7031 14.1413L18.3111 15.3138L22.2495 11.6882L14.7031 14.1413Z" fill="url(#paint27_radial_504_6635)"/>
<path style="mix-blend-mode:multiply" fill-rule="evenodd" clip-rule="evenodd" d="M14.7031 14.1413L22.2495 11.6882L16.934 11.0684L14.7031 14.1413Z" fill="url(#paint28_radial_504_6635)"/>
<path style="mix-blend-mode:screen" fill-rule="evenodd" clip-rule="evenodd" d="M14.7031 14.1413L16.934 11.0683L14.7031 6.20312V14.1413Z" fill="url(#paint29_radial_504_6635)"/>
<path style="mix-blend-mode:multiply" fill-rule="evenodd" clip-rule="evenodd" d="M14.7074 14.1413V6.20312L12.4766 11.0683L14.7074 14.1413Z" fill="url(#paint30_radial_504_6635)"/>
<path style="mix-blend-mode:screen" fill-rule="evenodd" clip-rule="evenodd" d="M16.8594 14.8401L18.3096 15.3138L22.248 11.6882L16.8594 14.8401Z" fill="url(#paint31_radial_504_6635)"/>
<path style="mix-blend-mode:screen" opacity="0.45" fill-rule="evenodd" clip-rule="evenodd" d="M14.7031 15.6588V17.9365L19.3666 20.562L14.7031 15.6588Z" fill="url(#paint32_radial_504_6635)"/>
<path style="mix-blend-mode:screen" fill-rule="evenodd" clip-rule="evenodd" d="M14.6977 14.1412L13.3147 14.5886L10.0312 20.5619L14.6977 14.1412Z" fill="url(#paint33_radial_504_6635)"/>
<path style="mix-blend-mode:screen" fill-rule="evenodd" clip-rule="evenodd" d="M14.7031 14.1413L15.9574 12.4133L14.7031 6.20312V14.1413Z" fill="url(#paint34_radial_504_6635)"/>
<path style="mix-blend-mode:screen" fill-rule="evenodd" clip-rule="evenodd" d="M18.3057 15.3137L22.2441 11.6882L16.9286 11.0683L14.6977 6.20312L12.4669 11.0683L7.14844 11.6882L11.0868 15.3137L10.0313 20.562L14.6977 17.9364L19.3612 20.562L18.3057 15.3137Z" fill="url(#paint35_radial_504_6635)"/>
<path style="mix-blend-mode:screen" fill-rule="evenodd" clip-rule="evenodd" d="M10.7126 17.1674L20.5483 11.4894L16.9286 11.0683L14.6977 6.20312L12.4669 11.0683L7.14844 11.6882L11.0868 15.3137L10.7126 17.1674Z" fill="url(#paint36_radial_504_6635)"/>
<path style="mix-blend-mode:screen" fill-rule="evenodd" clip-rule="evenodd" d="M5.875 11.194L11.9945 10.4134L14.6172 4.85229L12.0676 10.5186L5.875 11.194Z" fill="url(#paint37_radial_504_6635)"/>
<path style="mix-blend-mode:screen" fill-rule="evenodd" clip-rule="evenodd" d="M9.45312 13.8022L11.0115 15.3402L10.6548 17.4979L11.1723 15.2875L9.45312 13.8022Z" fill="url(#paint38_radial_504_6635)"/>
<path style="mix-blend-mode:screen" fill-rule="evenodd" clip-rule="evenodd" d="M9.52402 14.7406L10.3456 15.5534L9.32812 20.8251L10.4333 15.5271L9.52402 14.7406Z" fill="url(#paint39_radial_504_6635)"/>
<path style="mix-blend-mode:screen" fill-rule="evenodd" clip-rule="evenodd" d="M15.5547 18.4189L19.3586 20.6176L19.9813 21.4129L19.4112 20.565L18.5604 16.5681L19.2825 20.4509L15.5547 18.4189Z" fill="url(#paint40_radial_504_6635)"/>
<path style="mix-blend-mode:screen" fill-rule="evenodd" clip-rule="evenodd" d="M10.6165 17.6294L9.97913 20.5561L9.3125 21.5415L10.0668 20.6029L12.6339 19.0913L10.0961 20.4655L10.6165 17.6294Z" fill="url(#paint41_radial_504_6635)"/>
<path style="mix-blend-mode:screen" fill-rule="evenodd" clip-rule="evenodd" d="M8.62818 13.0361L7.10487 11.6999L5.83594 11.2584L7.13703 11.6444L9.1837 11.4514L7.2189 11.7058L8.62818 13.0361Z" fill="url(#paint42_radial_504_6635)"/>
<path style="mix-blend-mode:screen" fill-rule="evenodd" clip-rule="evenodd" d="M9.17188 11.4513L12.4232 11.0098L14.5634 6.49255L12.4992 11.1151L9.17188 11.4513Z" fill="url(#paint43_radial_504_6635)"/>
<path style="mix-blend-mode:screen" fill-rule="evenodd" clip-rule="evenodd" d="M15.8281 7.14465L17.3163 10.5304L23.2458 11.162L17.3894 10.4281L15.8281 7.14465Z" fill="url(#paint44_radial_504_6635)"/>
<g style="mix-blend-mode:screen">
<path fill-rule="evenodd" clip-rule="evenodd" d="M12.1108 18.9656C12.1108 18.9101 12.1605 18.8984 12.2073 18.9072C12.2326 18.9134 12.2547 18.9289 12.2693 18.9505C12.2838 18.9721 12.2899 18.9983 12.2862 19.0241C12.2862 19.0651 12.219 19.0826 12.1839 19.0709C12.1603 19.0666 12.1393 19.0531 12.1256 19.0334C12.1119 19.0137 12.1066 18.9893 12.1108 18.9656Z" fill="#FFE682"/>
</g>
<g style="mix-blend-mode:screen">
<path fill-rule="evenodd" clip-rule="evenodd" d="M13.0085 16.1119C13.0085 16.0564 13.0582 16.0476 13.1079 16.0534C13.133 16.0597 13.1548 16.0753 13.1689 16.097C13.183 16.1187 13.1884 16.1449 13.1839 16.1704C13.1839 16.2113 13.1196 16.2318 13.0845 16.2201C13.0608 16.2145 13.0399 16.2004 13.0259 16.1805C13.0119 16.1605 13.0057 16.1361 13.0085 16.1119Z" fill="#FFE682"/>
</g>
<g style="mix-blend-mode:screen">
<path fill-rule="evenodd" clip-rule="evenodd" d="M17.2426 11.5274C17.2426 11.4719 17.2923 11.4631 17.3391 11.469C17.3647 11.4746 17.3872 11.4899 17.4019 11.5117C17.4166 11.5334 17.4224 11.56 17.418 11.5859C17.418 11.6269 17.3537 11.6473 17.3186 11.6356C17.2952 11.6295 17.2747 11.6153 17.2608 11.5955C17.2469 11.5757 17.2404 11.5516 17.2426 11.5274Z" fill="#FFE682"/>
</g>
<g style="mix-blend-mode:screen" opacity="0.6">
<path fill-rule="evenodd" clip-rule="evenodd" d="M15.431 13.9951C15.4807 13.9659 15.5158 13.9951 15.5391 14.0419C15.5486 14.0673 15.5485 14.0952 15.5388 14.1206C15.5291 14.1459 15.5105 14.1668 15.4865 14.1793C15.4485 14.2027 15.393 14.1618 15.3842 14.1237C15.3788 14.1122 15.3757 14.0998 15.3751 14.0871C15.3745 14.0743 15.3765 14.0617 15.3808 14.0497C15.3852 14.0377 15.3918 14.0268 15.4004 14.0174C15.409 14.008 15.4194 14.0004 15.431 13.9951Z" fill="#FFE682"/>
</g>
<g style="mix-blend-mode:screen" opacity="0.6">
<path fill-rule="evenodd" clip-rule="evenodd" d="M18.0396 17.533C18.0893 17.5066 18.1244 17.533 18.1478 17.5827C18.1573 17.6081 18.1572 17.636 18.1475 17.6613C18.1378 17.6866 18.1192 17.7075 18.0952 17.7201C18.0572 17.7406 18.0016 17.7025 17.9928 17.6645C17.9825 17.6408 17.9816 17.614 17.9903 17.5895C17.999 17.5651 18.0166 17.5449 18.0396 17.533Z" fill="#FFE682"/>
</g>
<g style="mix-blend-mode:screen" opacity="0.6">
<path fill-rule="evenodd" clip-rule="evenodd" d="M16.8615 19.7023C16.9112 19.6731 16.9463 19.7023 16.9697 19.752C16.9792 19.7774 16.9791 19.8054 16.9694 19.8307C16.9597 19.856 16.9411 19.8769 16.9171 19.8894C16.8791 19.9099 16.8235 19.869 16.8118 19.8339C16.8024 19.8097 16.8023 19.7829 16.8115 19.7586C16.8207 19.7343 16.8385 19.7143 16.8615 19.7023Z" fill="#FFE682"/>
</g>
<g style="mix-blend-mode:screen" opacity="0.6">
<path fill-rule="evenodd" clip-rule="evenodd" d="M13.501 16.805C13.501 16.7494 13.5536 16.7377 13.6033 16.7465C13.6305 16.7522 13.6545 16.7681 13.6703 16.791C13.6861 16.8138 13.6924 16.8419 13.6881 16.8693C13.6881 16.9103 13.6179 16.9336 13.5799 16.919C13.5549 16.9134 13.5328 16.8986 13.5182 16.8774C13.5036 16.8563 13.4974 16.8304 13.501 16.805Z" fill="#FFE682"/>
</g>
<g style="mix-blend-mode:screen" opacity="0.5">
<path fill-rule="evenodd" clip-rule="evenodd" d="M13.7041 15.5535C13.7041 15.4951 13.7538 15.4863 13.8064 15.4921C13.8331 15.4984 13.8564 15.5146 13.8716 15.5374C13.8868 15.5602 13.8927 15.5879 13.8883 15.6149C13.8883 15.6588 13.8181 15.6793 13.7831 15.6676C13.758 15.6619 13.7359 15.6471 13.7213 15.626C13.7067 15.6048 13.7006 15.579 13.7041 15.5535Z" fill="#FFE682"/>
</g>
<g style="mix-blend-mode:screen" opacity="0.5">
<path fill-rule="evenodd" clip-rule="evenodd" d="M16.5322 16.5855C16.5322 16.527 16.5819 16.5183 16.6346 16.5241C16.6612 16.5304 16.6845 16.5466 16.6997 16.5694C16.7149 16.5922 16.7209 16.6199 16.7164 16.6469C16.7164 16.6908 16.6463 16.7113 16.6112 16.6996C16.5861 16.6939 16.5641 16.6791 16.5494 16.658C16.5348 16.6368 16.5287 16.611 16.5322 16.5855Z" fill="#FFE682"/>
</g>
<g style="mix-blend-mode:screen" opacity="0.5">
<path fill-rule="evenodd" clip-rule="evenodd" d="M15.9694 18.8898C15.9694 18.8632 15.99 18.8603 16.0137 18.8632C16.0257 18.8654 16.0364 18.8721 16.0436 18.8821C16.0507 18.892 16.0538 18.9043 16.052 18.9164C16.052 18.937 16.0196 18.9459 16.0018 18.94C15.9911 18.9372 15.9819 18.9305 15.9759 18.9212C15.9698 18.9119 15.9675 18.9007 15.9694 18.8898Z" fill="#FFE682"/>
</g>
<g style="mix-blend-mode:screen" opacity="0.5">
<path fill-rule="evenodd" clip-rule="evenodd" d="M17.3373 16.9951C17.3373 16.9395 17.3899 16.9278 17.4396 16.9366C17.4657 16.9429 17.4885 16.9586 17.5037 16.9808C17.5188 17.0029 17.5252 17.0299 17.5215 17.0565C17.5215 17.1003 17.4543 17.1208 17.4163 17.1091C17.3908 17.1041 17.3684 17.0894 17.3536 17.0681C17.3389 17.0468 17.333 17.0206 17.3373 16.9951Z" fill="#FFE682"/>
</g>
<g style="mix-blend-mode:screen">
<path fill-rule="evenodd" clip-rule="evenodd" d="M11.0015 17.2933C11.0015 17.2407 11.0512 17.229 11.098 17.2378C11.1237 17.2434 11.1462 17.2587 11.1609 17.2804C11.1756 17.3022 11.1813 17.3288 11.177 17.3547C11.177 17.3956 11.1126 17.4161 11.0746 17.4044C11.0505 17.3988 11.0295 17.3841 11.0159 17.3635C11.0023 17.3428 10.9971 17.3177 11.0015 17.2933Z" fill="#FFE682"/>
</g>
<g style="mix-blend-mode:screen" opacity="0.35">
<path fill-rule="evenodd" clip-rule="evenodd" d="M12.0715 15.1471C12.0715 15.0681 12.1446 15.0535 12.2119 15.0652C12.2487 15.073 12.2811 15.0946 12.3023 15.1257C12.3235 15.1567 12.332 15.1947 12.3259 15.2319C12.3259 15.2903 12.2323 15.3196 12.1797 15.305C12.1454 15.2966 12.1154 15.2759 12.0954 15.2467C12.0754 15.2176 12.0669 15.1821 12.0715 15.1471Z" fill="#FFE682"/>
</g>
<g style="mix-blend-mode:screen" opacity="0.35">
<path fill-rule="evenodd" clip-rule="evenodd" d="M13.3687 19.0388C13.3687 18.9599 13.4389 18.9453 13.509 18.954C13.5457 18.9631 13.5777 18.9855 13.5988 19.0168C13.6199 19.0482 13.6285 19.0862 13.6231 19.1236C13.6231 19.1821 13.5266 19.2113 13.4769 19.1938C13.4425 19.1867 13.4121 19.1667 13.3919 19.1379C13.3718 19.109 13.3635 19.0736 13.3687 19.0388Z" fill="#FFE682"/>
</g>
<g style="mix-blend-mode:screen" opacity="0.35">
<path fill-rule="evenodd" clip-rule="evenodd" d="M19.3291 17.5272C19.3291 17.4746 19.3759 17.4658 19.4227 17.4717C19.447 17.4773 19.4683 17.4918 19.4823 17.5124C19.4964 17.533 19.5022 17.5581 19.4987 17.5828C19.4987 17.6237 19.4344 17.6412 19.4022 17.6295C19.3791 17.6253 19.3586 17.6122 19.345 17.5931C19.3314 17.574 19.3257 17.5504 19.3291 17.5272Z" fill="#FFE682"/>
</g>
<g style="mix-blend-mode:screen">
<path fill-rule="evenodd" clip-rule="evenodd" d="M16.6578 12.9922C16.6578 12.9132 16.7309 12.8986 16.7982 12.9103C16.835 12.9181 16.8673 12.9397 16.8886 12.9708C16.9098 13.0018 16.9183 13.0398 16.9122 13.077C16.9122 13.1384 16.8186 13.1676 16.766 13.15C16.7313 13.1423 16.7009 13.1217 16.6808 13.0924C16.6607 13.0631 16.6525 13.0273 16.6578 12.9922Z" fill="#FFE682"/>
</g>
<g style="mix-blend-mode:screen">
<path fill-rule="evenodd" clip-rule="evenodd" d="M15.4309 15.9247C15.4309 15.8458 15.504 15.8283 15.5712 15.84C15.6082 15.8484 15.6406 15.8706 15.6618 15.9021C15.683 15.9337 15.6914 15.9721 15.6852 16.0095C15.6852 16.068 15.5917 16.0972 15.539 16.0797C15.5049 16.072 15.475 16.0518 15.455 16.0232C15.4349 15.9945 15.4264 15.9594 15.4309 15.9247Z" fill="#FFE682"/>
</g>
<g style="mix-blend-mode:screen">
<path fill-rule="evenodd" clip-rule="evenodd" d="M14.0637 11.7732C14.0637 11.6942 14.1339 11.6796 14.2041 11.6913C14.2409 11.6991 14.2732 11.7207 14.2945 11.7518C14.3157 11.7828 14.3242 11.8208 14.3181 11.858C14.3181 11.9164 14.2216 11.9486 14.1719 11.9311C14.1376 11.9227 14.1075 11.902 14.0876 11.8728C14.0676 11.8437 14.0591 11.8082 14.0637 11.7732Z" fill="#FFE682"/>
</g>
<g style="mix-blend-mode:screen">
<path fill-rule="evenodd" clip-rule="evenodd" d="M8.72053 13.6588C8.72053 13.6179 8.75561 13.612 8.79362 13.6179C8.81223 13.6221 8.82858 13.6332 8.83941 13.6489C8.85024 13.6646 8.85477 13.6838 8.8521 13.7027C8.8521 13.7348 8.80239 13.7495 8.77608 13.7407C8.76688 13.7393 8.75807 13.7361 8.7502 13.7311C8.74233 13.7262 8.73557 13.7196 8.73035 13.7119C8.72513 13.7042 8.72156 13.6956 8.71987 13.6864C8.71818 13.6773 8.7184 13.6679 8.72053 13.6588Z" fill="#FFBC00"/>
</g>
<g style="mix-blend-mode:screen">
<path fill-rule="evenodd" clip-rule="evenodd" d="M14.8759 13.0655C14.8759 13.0334 14.9022 13.0275 14.9314 13.0334C14.9465 13.0362 14.9598 13.0449 14.9686 13.0574C14.9773 13.07 14.9808 13.0855 14.9782 13.1006C14.9782 13.124 14.9402 13.1357 14.9197 13.1299C14.9055 13.127 14.8929 13.1187 14.8847 13.1067C14.8765 13.0946 14.8733 13.0799 14.8759 13.0655Z" fill="#FFE682"/>
</g>
<g style="mix-blend-mode:screen">
<path fill-rule="evenodd" clip-rule="evenodd" d="M17.8989 13.5654C17.8989 13.5333 17.9282 13.5274 17.9574 13.5333C17.9725 13.5361 17.9858 13.5447 17.9945 13.5573C18.0033 13.5699 18.0068 13.5854 18.0042 13.6005C18.0042 13.6239 17.9662 13.6356 17.9428 13.6297C17.9289 13.6263 17.9167 13.6178 17.9086 13.6059C17.9005 13.5941 17.8971 13.5797 17.8989 13.5654Z" fill="#FFE682"/>
</g>
<g style="mix-blend-mode:screen">
<path fill-rule="evenodd" clip-rule="evenodd" d="M15.6955 17.5829C15.6955 17.5507 15.7248 17.5449 15.754 17.5507C15.7687 17.5542 15.7816 17.563 15.7902 17.5754C15.7989 17.5878 15.8026 17.603 15.8008 17.618C15.8008 17.6414 15.7628 17.653 15.7423 17.6472C15.7218 17.6414 15.6926 17.618 15.6955 17.5829Z" fill="#FFE682"/>
</g>
<g style="mix-blend-mode:screen">
<path fill-rule="evenodd" clip-rule="evenodd" d="M18.1486 16.2611C18.1486 16.2289 18.1778 16.2231 18.2071 16.226C18.2218 16.2295 18.2347 16.2383 18.2433 16.2507C18.2519 16.2631 18.2557 16.2783 18.2538 16.2933C18.2522 16.2992 18.2494 16.3048 18.2454 16.3095C18.2415 16.3143 18.2367 16.3182 18.2311 16.3209C18.2256 16.3237 18.2196 16.3253 18.2134 16.3255C18.2073 16.3258 18.2011 16.3248 18.1954 16.3225C18.1814 16.3197 18.169 16.3119 18.1604 16.3006C18.1518 16.2893 18.1476 16.2753 18.1486 16.2611Z" fill="#FFE682"/>
</g>
<g style="mix-blend-mode:screen">
<path fill-rule="evenodd" clip-rule="evenodd" d="M19.3049 18.9364C19.3049 18.9042 19.3341 18.8984 19.3633 18.9042C19.3784 18.9071 19.3917 18.9157 19.4005 18.9283C19.4092 18.9409 19.4127 18.9564 19.4101 18.9715C19.4101 18.9949 19.3721 19.0066 19.3516 19.0007C19.3375 18.9973 19.325 18.9889 19.3164 18.9771C19.3079 18.9654 19.3038 18.9509 19.3049 18.9364Z" fill="#FFE682"/>
</g>
<g style="mix-blend-mode:screen">
<path fill-rule="evenodd" clip-rule="evenodd" d="M11.3052 20.2434C11.3052 20.2112 11.3344 20.2054 11.3607 20.2083C11.376 20.2118 11.3894 20.221 11.3981 20.2341C11.4068 20.2471 11.4102 20.263 11.4075 20.2785C11.4075 20.3019 11.3695 20.3136 11.349 20.3077C11.3351 20.3042 11.3229 20.2958 11.3148 20.2839C11.3068 20.2721 11.3033 20.2576 11.3052 20.2434Z" fill="#FFE682"/>
</g>
<g style="mix-blend-mode:screen">
<path fill-rule="evenodd" clip-rule="evenodd" d="M11.529 16.5447C11.499 16.5508 11.4682 16.5508 11.4383 16.5447C11.4084 16.5396 11.3808 16.5253 11.3594 16.5038C11.3745 16.4861 11.3935 16.472 11.4149 16.4628C11.4149 16.4628 11.4705 16.4365 11.4851 16.4424C11.4997 16.4482 11.5377 16.5155 11.5319 16.5447H11.529Z" fill="#FFC785"/>
</g>
<g style="mix-blend-mode:screen">
<path fill-rule="evenodd" clip-rule="evenodd" d="M15.2526 18.612C15.2227 18.6177 15.1919 18.6177 15.162 18.612C15.1444 18.612 15.0947 18.5915 15.0859 18.571C15.1 18.5534 15.118 18.5394 15.1386 18.5301C15.1386 18.5301 15.1941 18.5038 15.2087 18.5096C15.2247 18.5212 15.2374 18.5367 15.2456 18.5546C15.2538 18.5726 15.2572 18.5923 15.2555 18.612H15.2526Z" fill="#FFC785"/>
</g>
<g style="mix-blend-mode:screen" opacity="0.4">
<path fill-rule="evenodd" clip-rule="evenodd" d="M11.3594 15.9687C11.4097 15.96 11.4611 15.96 11.5114 15.9687C11.5377 15.9687 11.6225 15.9921 11.6401 16.0243C11.6198 16.0552 11.5928 16.0812 11.5611 16.1003C11.5288 16.1253 11.4905 16.1414 11.45 16.1471C11.4221 16.1306 11.399 16.1071 11.3831 16.0788C11.3672 16.0506 11.359 16.0187 11.3594 15.9863V15.9687Z" fill="#FFC785"/>
</g>
<g style="mix-blend-mode:screen" opacity="0.4">
<path fill-rule="evenodd" clip-rule="evenodd" d="M16.8984 18.3837C16.9487 18.375 17.0002 18.375 17.0505 18.3837C17.0768 18.3837 17.1616 18.4071 17.1791 18.4364C17.1581 18.4675 17.1313 18.4943 17.1002 18.5153C17.0677 18.5395 17.0294 18.5547 16.9891 18.5592C16.9614 18.5432 16.9384 18.5202 16.9225 18.4924C16.9066 18.4647 16.8983 18.4333 16.8984 18.4013V18.3837Z" fill="#FFC785"/>
</g>
<g style="mix-blend-mode:screen" opacity="0.4">
<path fill-rule="evenodd" clip-rule="evenodd" d="M14.3673 15.0683C14.3487 15.1045 14.3228 15.1363 14.2913 15.1619C14.2913 15.1765 14.2211 15.2174 14.1919 15.2145C14.186 15.1846 14.186 15.1538 14.1919 15.1239C14.194 15.0917 14.2041 15.0606 14.2211 15.0332C14.2457 15.0245 14.2721 15.0223 14.2977 15.0269C14.3234 15.0315 14.3474 15.0428 14.3673 15.0596V15.0683Z" fill="#FFC785"/>
</g>
<g style="mix-blend-mode:screen" opacity="0.4">
<path fill-rule="evenodd" clip-rule="evenodd" d="M19.0079 16.4395C19.0079 16.4658 18.9494 16.5156 18.9319 16.5331C18.9144 16.5506 18.8617 16.5887 18.8325 16.5828C18.8267 16.5539 18.8267 16.524 18.8325 16.4951C18.8346 16.4629 18.8447 16.4318 18.8617 16.4045C18.8863 16.3957 18.9127 16.3935 18.9383 16.3981C18.964 16.4027 18.988 16.414 19.0079 16.4308V16.4395Z" fill="#FFC785"/>
</g>
<g style="mix-blend-mode:screen">
<path fill-rule="evenodd" clip-rule="evenodd" d="M15.0625 15.3723C15.1141 15.3306 15.1724 15.298 15.235 15.2758C15.2934 15.2522 15.3574 15.2461 15.4192 15.2583C15.4122 15.3062 15.3974 15.3526 15.3753 15.3957C15.3578 15.4279 15.3081 15.5068 15.273 15.5185C15.2308 15.516 15.19 15.5029 15.1542 15.4804C15.1184 15.4579 15.0889 15.4268 15.0683 15.3899L15.0625 15.3723Z" fill="#FFE682"/>
</g>
<g style="mix-blend-mode:screen">
<path fill-rule="evenodd" clip-rule="evenodd" d="M16.7578 16.0417C16.8074 15.9987 16.865 15.9659 16.9274 15.9452C16.9625 15.9306 17.0736 15.9014 17.1116 15.9248C17.1069 15.9737 17.0931 16.0213 17.0707 16.0651C17.0531 16.0944 17.0034 16.1762 16.9683 16.185C16.9264 16.183 16.8856 16.1705 16.8498 16.1485C16.814 16.1265 16.7844 16.0958 16.7637 16.0593L16.7578 16.0417Z" fill="#FFE682"/>
</g>
<g style="mix-blend-mode:screen">
<path fill-rule="evenodd" clip-rule="evenodd" d="M10.7969 14.3751C10.8307 14.3384 10.8715 14.3086 10.9168 14.2874C10.9401 14.2874 11.0191 14.2407 11.0512 14.2553C11.0514 14.2911 11.0454 14.3267 11.0337 14.3605C11.0211 14.3995 10.999 14.4346 10.9694 14.4629C10.9374 14.4655 10.9053 14.4599 10.8761 14.4466C10.8469 14.4333 10.8217 14.4127 10.8027 14.3868L10.7969 14.3751Z" fill="#FFE682"/>
</g>
<g style="mix-blend-mode:screen">
<path fill-rule="evenodd" clip-rule="evenodd" d="M13.2918 13.1939C13.2538 13.2144 13.2216 13.2173 13.2011 13.1735C13.1945 13.1648 13.1902 13.1546 13.1884 13.1438C13.1866 13.133 13.1875 13.122 13.191 13.1116C13.1944 13.1012 13.2003 13.0919 13.2082 13.0843C13.2161 13.0768 13.2257 13.0712 13.2362 13.0682C13.2801 13.0448 13.3093 13.0478 13.3269 13.0975C13.3444 13.1472 13.3269 13.1676 13.2918 13.1939Z" fill="#FFC785"/>
</g>
<g style="mix-blend-mode:screen">
<path fill-rule="evenodd" clip-rule="evenodd" d="M17.7377 17.3049C17.6967 17.3283 17.6675 17.3283 17.647 17.2874C17.6404 17.2789 17.6359 17.2689 17.6339 17.2583C17.632 17.2476 17.6326 17.2367 17.6357 17.2264C17.6389 17.2161 17.6445 17.2066 17.6521 17.1989C17.6596 17.1912 17.6689 17.1855 17.6792 17.1821C17.726 17.1587 17.7523 17.1617 17.7698 17.2114C17.7874 17.2611 17.7698 17.2815 17.7377 17.3049Z" fill="#FFC785"/>
</g>
<g style="mix-blend-mode:screen">
<path fill-rule="evenodd" clip-rule="evenodd" d="M16.6422 14.1882C16.6012 14.2116 16.572 14.2116 16.5515 14.1678C16.5455 14.1593 16.5415 14.1495 16.5399 14.1393C16.5383 14.129 16.539 14.1185 16.5422 14.1086C16.5453 14.0987 16.5506 14.0896 16.5579 14.0821C16.5651 14.0746 16.5739 14.0689 16.5837 14.0654C16.6305 14.042 16.6568 14.045 16.6743 14.0947C16.6919 14.1444 16.6743 14.1648 16.6422 14.1882Z" fill="#FFC785"/>
</g>
<g style="mix-blend-mode:screen">
<path fill-rule="evenodd" clip-rule="evenodd" d="M19.7918 14.4542C19.7508 14.4747 19.7216 14.4776 19.7011 14.4337C19.6945 14.425 19.6902 14.4148 19.6884 14.4041C19.6866 14.3933 19.6875 14.3822 19.691 14.3719C19.6944 14.3615 19.7003 14.3521 19.7082 14.3446C19.7161 14.337 19.7257 14.3315 19.7362 14.3285C19.7801 14.3051 19.8064 14.308 19.8239 14.3577C19.8415 14.4074 19.8239 14.4279 19.7918 14.4542Z" fill="#FFC785"/>
</g>
<g style="mix-blend-mode:screen">
<path fill-rule="evenodd" clip-rule="evenodd" d="M10.6912 19.0943C10.7243 19.0827 10.7604 19.0827 10.7935 19.0943C10.8286 19.0943 10.8754 19.141 10.8637 19.1849C10.8533 19.2043 10.8367 19.2197 10.8166 19.2287C10.7965 19.2377 10.774 19.2398 10.7526 19.2346C10.7283 19.2212 10.7091 19.2002 10.698 19.1749C10.6869 19.1495 10.6845 19.1212 10.6912 19.0943Z" fill="#FFE682"/>
</g>
<g style="mix-blend-mode:screen">
<path fill-rule="evenodd" clip-rule="evenodd" d="M15.8529 13.4456C15.8539 13.4684 15.8478 13.4909 15.8353 13.5099C15.8353 13.5275 15.7944 13.548 15.771 13.5363C15.7625 13.5254 15.7578 13.512 15.7578 13.4983C15.7578 13.4845 15.7625 13.4711 15.771 13.4602C15.7829 13.448 15.7985 13.44 15.8153 13.4373C15.8322 13.4347 15.8495 13.4376 15.8646 13.4456H15.8529Z" fill="#FFE682"/>
</g>
<g style="mix-blend-mode:screen">
<path fill-rule="evenodd" clip-rule="evenodd" d="M15.6519 16.9045C15.6552 16.9122 15.6569 16.9204 15.6569 16.9287C15.6569 16.9371 15.6552 16.9453 15.6519 16.953C15.6486 16.9606 15.6438 16.9676 15.6378 16.9733C15.6317 16.979 15.6246 16.9835 15.6168 16.9864C15.6087 16.9896 15.6001 16.991 15.5915 16.9906C15.5829 16.9903 15.5744 16.9881 15.5667 16.9842C15.559 16.9804 15.5521 16.9749 15.5467 16.9682C15.5412 16.9615 15.5372 16.9538 15.5349 16.9454C15.5292 16.9284 15.5302 16.9097 15.5378 16.8934C15.5455 16.8771 15.5591 16.8643 15.5758 16.8577C15.6109 16.8431 15.6402 16.8577 15.6519 16.9045Z" fill="#FFE682"/>
</g>
<path style="mix-blend-mode:screen" fill-rule="evenodd" clip-rule="evenodd" d="M15.8077 16.9219C15.8077 16.9647 15.795 17.0066 15.7713 17.0421C15.7475 17.0777 15.7137 17.1054 15.6742 17.1218C15.6346 17.1382 15.5911 17.1425 15.5492 17.1341C15.5072 17.1258 15.4686 17.1052 15.4384 17.0749C15.4081 17.0447 15.3875 17.0061 15.3792 16.9641C15.3708 16.9222 15.3751 16.8787 15.3915 16.8391C15.4078 16.7996 15.4356 16.7658 15.4712 16.742C15.5067 16.7183 15.5486 16.7056 15.5914 16.7056C15.6485 16.7063 15.7031 16.7294 15.7435 16.7698C15.7839 16.8102 15.807 16.8648 15.8077 16.9219Z" fill="url(#paint45_radial_504_6635)"/>
<g style="mix-blend-mode:screen">
<path fill-rule="evenodd" clip-rule="evenodd" d="M16.5917 12.2702C16.5959 12.2785 16.5983 12.2877 16.5987 12.297C16.599 12.3064 16.5973 12.3157 16.5937 12.3243C16.5901 12.333 16.5846 12.3407 16.5777 12.347C16.5708 12.3533 16.5626 12.358 16.5537 12.3608C16.5449 12.364 16.5355 12.3652 16.5262 12.3645C16.5168 12.3638 16.5077 12.3612 16.4995 12.3568C16.4912 12.3524 16.484 12.3463 16.4782 12.339C16.4724 12.3316 16.4683 12.3231 16.466 12.3141C16.459 12.2954 16.4593 12.2747 16.4669 12.2563C16.4745 12.2379 16.4888 12.223 16.5069 12.2146C16.5255 12.2111 16.5447 12.215 16.5605 12.2253C16.5763 12.2357 16.5875 12.2518 16.5917 12.2702Z" fill="#FFE682"/>
</g>
<path style="mix-blend-mode:screen" fill-rule="evenodd" clip-rule="evenodd" d="M16.7798 12.2935C16.7865 12.3282 16.7855 12.3639 16.7768 12.3982C16.7681 12.4325 16.7519 12.4644 16.7294 12.4917C16.7069 12.5189 16.6787 12.5409 16.6467 12.556C16.6147 12.571 16.5798 12.5789 16.5444 12.5789C16.5091 12.5789 16.4742 12.571 16.4422 12.556C16.4102 12.5409 16.382 12.5189 16.3595 12.4917C16.337 12.4644 16.3208 12.4325 16.3121 12.3982C16.3034 12.3639 16.3023 12.3282 16.3091 12.2935C16.3091 12.2299 16.3343 12.1689 16.3793 12.1239C16.4243 12.079 16.4852 12.0537 16.5488 12.0537C16.6124 12.0537 16.6734 12.079 16.7184 12.1239C16.7633 12.1689 16.7886 12.2299 16.7886 12.2935H16.7798Z" fill="url(#paint46_radial_504_6635)"/>
<g style="mix-blend-mode:screen">
<path fill-rule="evenodd" clip-rule="evenodd" d="M9.96742 14.6587C9.97069 14.6656 9.97245 14.673 9.97258 14.6806C9.9727 14.6882 9.97118 14.6957 9.96813 14.7027C9.96507 14.7096 9.96055 14.7158 9.95488 14.7208C9.94921 14.7259 9.94251 14.7296 9.93526 14.7318C9.9209 14.7366 9.90527 14.7355 9.89164 14.729C9.87801 14.7225 9.86745 14.7109 9.86216 14.6967C9.85763 14.6811 9.85865 14.6644 9.86505 14.6495C9.87145 14.6346 9.88283 14.6223 9.89725 14.6149C9.92941 14.6149 9.95572 14.6295 9.96742 14.6587Z" fill="#FFE682"/>
</g>
<path style="mix-blend-mode:screen" fill-rule="evenodd" clip-rule="evenodd" d="M10.1105 14.6764C10.1105 14.7151 10.0991 14.753 10.0775 14.7852C10.056 14.8174 10.0254 14.8425 9.98961 14.8573C9.95382 14.8722 9.91443 14.8761 9.87643 14.8685C9.83843 14.8609 9.80352 14.8423 9.77613 14.8149C9.74873 14.7875 9.73007 14.7526 9.72251 14.7146C9.71496 14.6766 9.71884 14.6372 9.73366 14.6014C9.74849 14.5656 9.7736 14.535 9.80581 14.5135C9.83803 14.492 9.8759 14.4805 9.91464 14.4805C9.9666 14.4805 10.0164 14.5011 10.0532 14.5378C10.0899 14.5746 10.1105 14.6244 10.1105 14.6764Z" fill="url(#paint47_radial_504_6635)"/>
<g style="mix-blend-mode:screen">
<path fill-rule="evenodd" clip-rule="evenodd" d="M17.9953 14.609C18.0105 14.6002 18.0272 14.5945 18.0445 14.5922C18.0619 14.5899 18.0795 14.5911 18.0964 14.5957C18.1133 14.6004 18.1291 14.6083 18.1429 14.6191C18.1566 14.6299 18.1681 14.6434 18.1766 14.6587C18.2117 14.7025 18.2176 14.8049 18.1766 14.8312C18.144 14.8505 18.1051 14.8561 18.0684 14.8468C18.0317 14.8375 18.0002 14.814 17.9807 14.7815C17.9456 14.7201 17.9339 14.6441 18.007 14.609H17.9953Z" fill="#FFE682"/>
</g>
<path style="mix-blend-mode:screen" opacity="0.5" fill-rule="evenodd" clip-rule="evenodd" d="M18.436 14.7203C18.436 14.7915 18.415 14.8611 18.3757 14.9204C18.3363 14.9798 18.2804 15.0262 18.2148 15.054C18.1492 15.0817 18.0769 15.0896 18.007 15.0765C17.937 15.0634 17.8724 15.03 17.8212 14.9805C17.7701 14.931 17.7347 14.8675 17.7194 14.7979C17.7041 14.7284 17.7096 14.6559 17.7353 14.5895C17.7609 14.523 17.8056 14.4656 17.8637 14.4244C17.9217 14.3832 17.9906 14.36 18.0618 14.3577C18.1104 14.3562 18.1588 14.3644 18.2041 14.3819C18.2495 14.3994 18.2908 14.4259 18.3258 14.4597C18.3607 14.4935 18.3884 14.534 18.4074 14.5788C18.4263 14.6236 18.4361 14.6717 18.436 14.7203Z" fill="url(#paint48_radial_504_6635)"/>
<g style="mix-blend-mode:screen">
<path fill-rule="evenodd" clip-rule="evenodd" d="M12.1292 16.9981C12.1607 16.9811 12.1976 16.9771 12.232 16.987C12.2664 16.9968 12.2956 17.0197 12.3134 17.0507C12.3485 17.0945 12.3572 17.1969 12.3134 17.2261C12.28 17.2453 12.2404 17.2505 12.2032 17.2407C12.1659 17.2308 12.1341 17.2067 12.1146 17.1735C12.0795 17.1121 12.0649 17.0361 12.1409 16.9981H12.1292Z" fill="#FFE682"/>
</g>
<path style="mix-blend-mode:screen" d="M12.2122 17.4803C12.4156 17.4803 12.5806 17.3154 12.5806 17.1119C12.5806 16.9085 12.4156 16.7435 12.2122 16.7435C12.0087 16.7435 11.8438 16.9085 11.8438 17.1119C11.8438 17.3154 12.0087 17.4803 12.2122 17.4803Z" fill="url(#paint49_radial_504_6635)"/>
<g style="mix-blend-mode:screen">
<path fill-rule="evenodd" clip-rule="evenodd" d="M11.0825 18.5007C11.0892 18.5124 11.0936 18.5253 11.0954 18.5387C11.0972 18.5521 11.0962 18.5658 11.0927 18.5788C11.0892 18.5919 11.0831 18.6041 11.0748 18.6148C11.0665 18.6254 11.0562 18.6344 11.0444 18.6411C11.0123 18.6674 10.9333 18.6732 10.9129 18.6411C10.8987 18.6161 10.8948 18.5866 10.9019 18.5589C10.909 18.5311 10.9265 18.5071 10.9509 18.4919C11.0006 18.4656 11.0561 18.4539 11.0825 18.5095V18.5007Z" fill="#FFE682"/>
</g>
<path style="mix-blend-mode:screen" fill-rule="evenodd" clip-rule="evenodd" d="M10.9965 18.8398C10.9414 18.8398 10.8876 18.8235 10.8419 18.7928C10.7961 18.7622 10.7605 18.7186 10.7396 18.6677C10.7187 18.6168 10.7133 18.5608 10.7243 18.5068C10.7353 18.4528 10.762 18.4033 10.8011 18.3646C10.8403 18.3259 10.8901 18.2997 10.9441 18.2893C10.9982 18.2789 11.0541 18.2848 11.1048 18.3063C11.1555 18.3278 11.1987 18.3638 11.2289 18.4099C11.259 18.4559 11.2748 18.5099 11.2743 18.565C11.2735 18.6381 11.2439 18.708 11.1919 18.7595C11.1399 18.811 11.0697 18.8398 10.9965 18.8398Z" fill="url(#paint50_radial_504_6635)"/>
<g style="mix-blend-mode:screen">
<path fill-rule="evenodd" clip-rule="evenodd" d="M18.0451 19.3514C18.0498 19.3595 18.0529 19.3684 18.0541 19.3776C18.0553 19.3868 18.0546 19.3962 18.0522 19.4052C18.0497 19.4142 18.0455 19.4226 18.0398 19.4299C18.0341 19.4372 18.0269 19.4434 18.0188 19.4479C17.9954 19.4684 17.9399 19.4713 17.9253 19.4479C17.92 19.4393 17.9165 19.4297 17.9149 19.4197C17.9134 19.4098 17.9139 19.3996 17.9163 19.3898C17.9188 19.38 17.9232 19.3708 17.9292 19.3627C17.9353 19.3546 17.9429 19.3478 17.9516 19.3427C17.9867 19.3251 18.0247 19.3163 18.0451 19.3427V19.3514Z" fill="#FFE682"/>
</g>
<path style="mix-blend-mode:screen" fill-rule="evenodd" clip-rule="evenodd" d="M17.985 19.603C17.9462 19.603 17.9083 19.5915 17.8761 19.57C17.8439 19.5484 17.8188 19.5178 17.804 19.482C17.7891 19.4462 17.7853 19.4069 17.7928 19.3689C17.8004 19.3309 17.819 19.296 17.8464 19.2686C17.8738 19.2412 17.9087 19.2225 17.9467 19.2149C17.9847 19.2074 18.0241 19.2113 18.0599 19.2261C18.0957 19.2409 18.1263 19.266 18.1478 19.2982C18.1694 19.3305 18.1809 19.3683 18.1809 19.4071C18.1809 19.459 18.1602 19.5089 18.1235 19.5456C18.0867 19.5823 18.0369 19.603 17.985 19.603Z" fill="url(#paint51_radial_504_6635)"/>
<g style="mix-blend-mode:screen">
<path fill-rule="evenodd" clip-rule="evenodd" d="M13.9751 17.723C13.9873 17.7469 13.9902 17.7746 13.9831 17.8005C13.9761 17.8265 13.9597 17.8489 13.937 17.8633C13.902 17.8897 13.8259 17.8955 13.8026 17.8633C13.7888 17.8385 13.7854 17.8092 13.7931 17.7819C13.8007 17.7545 13.8188 17.7313 13.8435 17.7172C13.8903 17.6908 13.9458 17.6791 13.9751 17.7347V17.723Z" fill="#FFE682"/>
</g>
<path style="mix-blend-mode:screen" fill-rule="evenodd" clip-rule="evenodd" d="M13.8803 18.0622C13.8261 18.0594 13.7739 18.0407 13.7302 18.0085C13.6865 17.9763 13.6532 17.932 13.6344 17.881C13.6156 17.8301 13.6121 17.7747 13.6244 17.7219C13.6367 17.669 13.6643 17.6209 13.7036 17.5835C13.743 17.5461 13.7925 17.521 13.8459 17.5114C13.8994 17.5019 13.9544 17.5081 14.0043 17.5295C14.0543 17.5509 14.0968 17.5865 14.1267 17.6318C14.1566 17.6771 14.1726 17.7302 14.1727 17.7845C14.1728 17.8222 14.1651 17.8596 14.1503 17.8942C14.1354 17.9289 14.1136 17.9602 14.0863 17.9862C14.0589 18.0122 14.0265 18.0324 13.9911 18.0454C13.9557 18.0585 13.918 18.0642 13.8803 18.0622Z" fill="url(#paint52_radial_504_6635)"/>
<path style="mix-blend-mode:screen" fill-rule="evenodd" clip-rule="evenodd" d="M18.3057 15.3137L22.2441 11.6882L16.9286 11.0683L14.6977 6.20312L12.4669 11.0683L7.14844 11.6882L11.0868 15.3137L10.0313 20.562L14.6977 17.9364L19.3612 20.562L18.3057 15.3137Z" fill="url(#paint53_radial_504_6635)"/>
<g style="mix-blend-mode:screen">
<path fill-rule="evenodd" clip-rule="evenodd" d="M21.2307 12.8605C21.2307 12.8752 21.2307 12.9161 21.2131 12.9307C21.1956 12.9453 21.1664 12.9746 21.14 12.96C21.1303 12.948 21.125 12.933 21.125 12.9176C21.125 12.9021 21.1303 12.8871 21.14 12.8752C21.1533 12.8611 21.171 12.852 21.1901 12.8493C21.2092 12.8467 21.2287 12.8506 21.2453 12.8605H21.2307Z" fill="#FFE682"/>
</g>
<defs>
<radialGradient id="paint0_radial_504_6635" cx="0" cy="0" r="1" gradientUnits="userSpaceOnUse" gradientTransform="translate(13.7233 4.19745) scale(19.8147)">
<stop stop-color="#FFD80F"/>
<stop offset="1" stop-color="#FF8C00"/>
</radialGradient>
<radialGradient id="paint1_radial_504_6635" cx="0" cy="0" r="1" gradientUnits="userSpaceOnUse" gradientTransform="translate(13.3933 4.78805) scale(10.6661)">
<stop stop-color="#FFD200"/>
<stop offset="1" stop-color="#000800"/>
</radialGradient>
<radialGradient id="paint2_radial_504_6635" cx="0" cy="0" r="1" gradientUnits="userSpaceOnUse" gradientTransform="translate(5.654 8.96314) scale(7.7598 7.75979)">
<stop stop-color="#FFD200"/>
<stop offset="1" stop-color="#000800"/>
</radialGradient>
<radialGradient id="paint3_radial_504_6635" cx="0" cy="0" r="1" gradientUnits="userSpaceOnUse" gradientTransform="translate(9.75487 15.7641) scale(9.59595 9.59595)">
<stop stop-color="#FFC830"/>
<stop offset="1" stop-color="white"/>
</radialGradient>
<radialGradient id="paint4_radial_504_6635" cx="0" cy="0" r="1" gradientUnits="userSpaceOnUse" gradientTransform="translate(8.07273 22.0152) scale(10.3357)">
<stop stop-color="white"/>
<stop offset="1" stop-color="#000800"/>
</radialGradient>
<radialGradient id="paint5_radial_504_6635" cx="0" cy="0" r="1" gradientUnits="userSpaceOnUse" gradientTransform="translate(14.6345 19.3778) scale(13.8238)">
<stop stop-color="#E8AA00"/>
<stop offset="1" stop-color="white"/>
</radialGradient>
<radialGradient id="paint6_radial_504_6635" cx="0" cy="0" r="1" gradientUnits="userSpaceOnUse" gradientTransform="translate(15.0832 4.43427) scale(7.67793 7.67793)">
<stop stop-color="#FFC830"/>
<stop offset="1" stop-color="white"/>
</radialGradient>
<radialGradient id="paint7_radial_504_6635" cx="0" cy="0" r="1" gradientUnits="userSpaceOnUse" gradientTransform="translate(23.4273 9.72041) scale(12.3268 12.3268)">
<stop stop-color="#FFD200"/>
<stop offset="1" stop-color="#000800"/>
</radialGradient>
<radialGradient id="paint8_radial_504_6635" cx="0" cy="0" r="1" gradientUnits="userSpaceOnUse" gradientTransform="translate(24.2667 11.4836) scale(7.93815 7.93815)">
<stop stop-color="#FFC830"/>
<stop offset="1" stop-color="white"/>
</radialGradient>
<radialGradient id="paint9_radial_504_6635" cx="0" cy="0" r="1" gradientUnits="userSpaceOnUse" gradientTransform="translate(22.34 24.4536) scale(12.2128 12.2128)">
<stop stop-color="white"/>
<stop offset="1" stop-color="#000800"/>
</radialGradient>
<radialGradient id="paint10_radial_504_6635" cx="0" cy="0" r="1" gradientUnits="userSpaceOnUse" gradientTransform="translate(21.0332 20.6789) scale(8.20129 8.20129)">
<stop stop-color="#BA7B00"/>
<stop offset="1" stop-color="white"/>
</radialGradient>
<radialGradient id="paint11_radial_504_6635" cx="0" cy="0" r="1" gradientUnits="userSpaceOnUse" gradientTransform="translate(13.615 11.975) scale(9.2217 9.2217)">
<stop stop-color="white"/>
<stop offset="1" stop-color="#000800"/>
</radialGradient>
<radialGradient id="paint12_radial_504_6635" cx="0" cy="0" r="1" gradientUnits="userSpaceOnUse" gradientTransform="translate(14.7524 6.81417) scale(10.6134 10.6134)">
<stop stop-color="white"/>
<stop offset="1" stop-color="#000800"/>
</radialGradient>
<radialGradient id="paint13_radial_504_6635" cx="0" cy="0" r="1" gradientUnits="userSpaceOnUse" gradientTransform="translate(7.42525 11.6415) scale(9.0989)">
<stop stop-color="#BA7B00"/>
<stop offset="1" stop-color="white"/>
</radialGradient>
<radialGradient id="paint14_radial_504_6635" cx="0" cy="0" r="1" gradientUnits="userSpaceOnUse" gradientTransform="translate(9.38623 22.1322) scale(10.0462 10.0462)">
<stop stop-color="#FFD200"/>
<stop offset="1" stop-color="#000800"/>
</radialGradient>
<radialGradient id="paint15_radial_504_6635" cx="0" cy="0" r="1" gradientUnits="userSpaceOnUse" gradientTransform="translate(9.59382 21.7929) scale(9.67197 9.67197)">
<stop stop-color="#BA7B00"/>
<stop offset="1" stop-color="white"/>
</radialGradient>
<radialGradient id="paint16_radial_504_6635" cx="0" cy="0" r="1" gradientUnits="userSpaceOnUse" gradientTransform="translate(22.3212 9.75585) scale(12.0081 12.0081)">
<stop stop-color="white"/>
<stop offset="1" stop-color="#000800"/>
</radialGradient>
<radialGradient id="paint17_radial_504_6635" cx="0" cy="0" r="1" gradientUnits="userSpaceOnUse" gradientTransform="translate(14.9224 4.37572) scale(7.82997 7.82997)">
<stop stop-color="#EDA200"/>
<stop offset="1" stop-color="white"/>
</radialGradient>
<radialGradient id="paint18_radial_504_6635" cx="0" cy="0" r="1" gradientUnits="userSpaceOnUse" gradientTransform="translate(18.9898 15.5711) scale(10.9204)">
<stop stop-color="#BA7B00"/>
<stop offset="1" stop-color="white"/>
</radialGradient>
<radialGradient id="paint19_radial_504_6635" cx="0" cy="0" r="1" gradientUnits="userSpaceOnUse" gradientTransform="translate(21.9575 20.644) scale(11.1105 11.1105)">
<stop stop-color="#FFD200"/>
<stop offset="1" stop-color="#000800"/>
</radialGradient>
<radialGradient id="paint20_radial_504_6635" cx="0" cy="0" r="1" gradientUnits="userSpaceOnUse" gradientTransform="translate(14.9107 18.2434) scale(6.65752)">
<stop stop-color="#BA7B00"/>
<stop offset="1" stop-color="white"/>
</radialGradient>
<radialGradient id="paint21_radial_504_6635" cx="0" cy="0" r="1" gradientUnits="userSpaceOnUse" gradientTransform="translate(9.87343 9.35208) scale(7.48788 7.48788)">
<stop stop-color="#FFD200"/>
<stop offset="1" stop-color="#000800"/>
</radialGradient>
<radialGradient id="paint22_radial_504_6635" cx="0" cy="0" r="1" gradientUnits="userSpaceOnUse" gradientTransform="translate(15.1509 19.1732) scale(10.1632)">
<stop stop-color="#FFC830"/>
<stop offset="1" stop-color="white"/>
</radialGradient>
<radialGradient id="paint23_radial_504_6635" cx="0" cy="0" r="1" gradientUnits="userSpaceOnUse" gradientTransform="translate(10.847 14.3167) scale(9.53455)">
<stop stop-color="#BA7B00"/>
<stop offset="1" stop-color="white"/>
</radialGradient>
<radialGradient id="paint24_radial_504_6635" cx="0" cy="0" r="1" gradientUnits="userSpaceOnUse" gradientTransform="translate(15.1099 14.1705) scale(8.28316)">
<stop stop-color="#FFD200"/>
<stop offset="1" stop-color="#000800"/>
</radialGradient>
<radialGradient id="paint25_radial_504_6635" cx="0" cy="0" r="1" gradientUnits="userSpaceOnUse" gradientTransform="translate(21.1881 18.869) scale(9.30357 9.30357)">
<stop stop-color="#FFD200"/>
<stop offset="1" stop-color="#000800"/>
</radialGradient>
<radialGradient id="paint26_radial_504_6635" cx="0" cy="0" r="1" gradientUnits="userSpaceOnUse" gradientTransform="translate(12.9518 16.4101) scale(7.44987 7.44987)">
<stop stop-color="#FFC830"/>
<stop offset="1" stop-color="white"/>
</radialGradient>
<radialGradient id="paint27_radial_504_6635" cx="0" cy="0" r="1" gradientUnits="userSpaceOnUse" gradientTransform="translate(20.5712 17.2201) scale(8.41765 8.41765)">
<stop stop-color="#FFD200"/>
<stop offset="1" stop-color="#000800"/>
</radialGradient>
<radialGradient id="paint28_radial_504_6635" cx="0" cy="0" r="1" gradientUnits="userSpaceOnUse" gradientTransform="translate(14.899 14.1208) scale(8.32994 8.32994)">
<stop stop-color="#BA7B00"/>
<stop offset="1" stop-color="white"/>
</radialGradient>
<radialGradient id="paint29_radial_504_6635" cx="0" cy="0" r="1" gradientUnits="userSpaceOnUse" gradientTransform="translate(20.3695 6.64754) scale(13.4612 13.4612)">
<stop stop-color="#FFD200"/>
<stop offset="1" stop-color="#000800"/>
</radialGradient>
<radialGradient id="paint30_radial_504_6635" cx="0" cy="0" r="1" gradientUnits="userSpaceOnUse" gradientTransform="translate(14.9267 14.1822) scale(8.44105 8.44105)">
<stop stop-color="#BA7B00"/>
<stop offset="1" stop-color="white"/>
</radialGradient>
<radialGradient id="paint31_radial_504_6635" cx="0" cy="0" r="1" gradientUnits="userSpaceOnUse" gradientTransform="translate(24.0695 13.5712) scale(8.04048)">
<stop stop-color="#FFFF8F"/>
<stop offset="1" stop-color="#000800"/>
</radialGradient>
<radialGradient id="paint32_radial_504_6635" cx="0" cy="0" r="1" gradientUnits="userSpaceOnUse" gradientTransform="translate(14.5043 19.5563) scale(7.58437 7.58437)">
<stop stop-color="#FFFF8F"/>
<stop offset="1" stop-color="#000800"/>
</radialGradient>
<radialGradient id="paint33_radial_504_6635" cx="0" cy="0" r="1" gradientUnits="userSpaceOnUse" gradientTransform="translate(10.6306 20.4567) scale(8.01709)">
<stop stop-color="#FFD000"/>
<stop offset="1" stop-color="#000800"/>
</radialGradient>
<radialGradient id="paint34_radial_504_6635" cx="0" cy="0" r="1" gradientUnits="userSpaceOnUse" gradientTransform="translate(14.6797 14.6149) scale(8.04632 8.04633)">
<stop stop-color="#FFFF8F"/>
<stop offset="1" stop-color="#000800"/>
</radialGradient>
<radialGradient id="paint35_radial_504_6635" cx="0" cy="0" r="1" gradientUnits="userSpaceOnUse" gradientTransform="translate(10.4699 7.20307) scale(25.9079 25.9079)">
<stop stop-color="#FFD200"/>
<stop offset="1" stop-color="#000800"/>
</radialGradient>
<radialGradient id="paint36_radial_504_6635" cx="0" cy="0" r="1" gradientUnits="userSpaceOnUse" gradientTransform="translate(14.4814 6.06863) scale(18.8147 18.8147)">
<stop stop-color="#FFFFCF"/>
<stop offset="1" stop-color="#000800"/>
</radialGradient>
<radialGradient id="paint37_radial_504_6635" cx="0" cy="0" r="1" gradientUnits="userSpaceOnUse" gradientTransform="translate(12.3746 9.29649) scale(6.8885 6.8885)">
<stop stop-color="#FFFFCF"/>
<stop offset="1" stop-color="#000800"/>
</radialGradient>
<radialGradient id="paint38_radial_504_6635" cx="0" cy="0" r="1" gradientUnits="userSpaceOnUse" gradientTransform="translate(11.0349 17.419) scale(6.66629)">
<stop stop-color="#FFFFCF"/>
<stop offset="1" stop-color="#000800"/>
</radialGradient>
<radialGradient id="paint39_radial_504_6635" cx="0" cy="0" r="1" gradientUnits="userSpaceOnUse" gradientTransform="translate(9.35736 19.4801) scale(6.9499 6.9499)">
<stop stop-color="#FFFFCF"/>
<stop offset="1" stop-color="#000800"/>
</radialGradient>
<radialGradient id="paint40_radial_504_6635" cx="0" cy="0" r="1" gradientUnits="userSpaceOnUse" gradientTransform="translate(19.8995 20.7229) scale(7.86213 7.86213)">
<stop stop-color="#FFFFCF"/>
<stop offset="1" stop-color="#000800"/>
</radialGradient>
<radialGradient id="paint41_radial_504_6635" cx="0" cy="0" r="1" gradientUnits="userSpaceOnUse" gradientTransform="translate(10.0171 21.1584) scale(6.85926 6.85926)">
<stop stop-color="#FFFFCF"/>
<stop offset="1" stop-color="#000800"/>
</radialGradient>
<radialGradient id="paint42_radial_504_6635" cx="0" cy="0" r="1" gradientUnits="userSpaceOnUse" gradientTransform="translate(7.16627 11.5157) scale(3.69862)">
<stop stop-color="#FFFFCF"/>
<stop offset="1" stop-color="#000800"/>
</radialGradient>
<radialGradient id="paint43_radial_504_6635" cx="0" cy="0" r="1" gradientUnits="userSpaceOnUse" gradientTransform="translate(12.7886 9.80231) scale(7.73641 7.73641)">
<stop stop-color="#FFFFCF"/>
<stop offset="1" stop-color="#000800"/>
</radialGradient>
<radialGradient id="paint44_radial_504_6635" cx="0" cy="0" r="1" gradientUnits="userSpaceOnUse" gradientTransform="translate(21.2167 10.1299) scale(9.93219 9.93219)">
<stop stop-color="#FFFFCF"/>
<stop offset="1" stop-color="#000800"/>
</radialGradient>
<radialGradient id="paint45_radial_504_6635" cx="0" cy="0" r="1" gradientUnits="userSpaceOnUse" gradientTransform="translate(15.5914 16.9219) scale(0.216362)">
<stop offset="0.29" stop-color="#FFAA00"/>
<stop offset="0.32" stop-color="#F5A100"/>
<stop offset="0.66" stop-color="#954B00"/>
<stop offset="0.89" stop-color="#581500"/>
<stop offset="1" stop-color="#400000"/>
</radialGradient>
<radialGradient id="paint46_radial_504_6635" cx="0" cy="0" r="1" gradientUnits="userSpaceOnUse" gradientTransform="translate(16.5401 12.2876) scale(0.239753)">
<stop offset="0.29" stop-color="#FFAA00"/>
<stop offset="0.32" stop-color="#F5A100"/>
<stop offset="0.66" stop-color="#954B00"/>
<stop offset="0.89" stop-color="#581500"/>
<stop offset="1" stop-color="#400000"/>
</radialGradient>
<radialGradient id="paint47_radial_504_6635" cx="0" cy="0" r="1" gradientUnits="userSpaceOnUse" gradientTransform="translate(9.91465 14.6764) scale(0.195895)">
<stop offset="0.29" stop-color="#FFAA00"/>
<stop offset="0.32" stop-color="#F5A100"/>
<stop offset="0.66" stop-color="#954B00"/>
<stop offset="0.89" stop-color="#581500"/>
<stop offset="1" stop-color="#400000"/>
</radialGradient>
<radialGradient id="paint48_radial_504_6635" cx="0" cy="0" r="1" gradientUnits="userSpaceOnUse" gradientTransform="translate(18.0735 14.7203) scale(0.362552 0.362553)">
<stop offset="0.29" stop-color="#FFAA00"/>
<stop offset="0.32" stop-color="#F5A100"/>
<stop offset="0.66" stop-color="#954B00"/>
<stop offset="0.89" stop-color="#581500"/>
<stop offset="1" stop-color="#400000"/>
</radialGradient>
<radialGradient id="paint49_radial_504_6635" cx="0" cy="0" r="1" gradientUnits="userSpaceOnUse" gradientTransform="translate(12.2122 17.1119) scale(0.3684)">
<stop offset="0.29" stop-color="#FFAA00"/>
<stop offset="0.32" stop-color="#F5A100"/>
<stop offset="0.66" stop-color="#954B00"/>
<stop offset="0.89" stop-color="#581500"/>
<stop offset="1" stop-color="#400000"/>
</radialGradient>
<radialGradient id="paint50_radial_504_6635" cx="0" cy="0" r="1" gradientUnits="userSpaceOnUse" gradientTransform="translate(10.9965 18.5621) rotate(90) scale(0.277762)">
<stop offset="0.29" stop-color="#FFAA00"/>
<stop offset="0.32" stop-color="#F5A100"/>
<stop offset="0.66" stop-color="#954B00"/>
<stop offset="0.89" stop-color="#581500"/>
<stop offset="1" stop-color="#400000"/>
</radialGradient>
<radialGradient id="paint51_radial_504_6635" cx="0" cy="0" r="1" gradientUnits="userSpaceOnUse" gradientTransform="translate(17.985 19.3925) rotate(90) scale(0.195896)">
<stop offset="0.29" stop-color="#FFAA00"/>
<stop offset="0.32" stop-color="#F5A100"/>
<stop offset="0.66" stop-color="#954B00"/>
<stop offset="0.89" stop-color="#581500"/>
<stop offset="1" stop-color="#400000"/>
</radialGradient>
<radialGradient id="paint52_radial_504_6635" cx="0" cy="0" r="1" gradientUnits="userSpaceOnUse" gradientTransform="translate(13.8803 17.7845) rotate(90) scale(0.277762)">
<stop offset="0.29" stop-color="#FFAA00"/>
<stop offset="0.32" stop-color="#F5A100"/>
<stop offset="0.66" stop-color="#954B00"/>
<stop offset="0.89" stop-color="#581500"/>
<stop offset="1" stop-color="#400000"/>
</radialGradient>
<radialGradient id="paint53_radial_504_6635" cx="0" cy="0" r="1" gradientUnits="userSpaceOnUse" gradientTransform="translate(13.1423 10.8169) scale(11.6602 11.6602)">
<stop offset="0.34" stop-color="#000800"/>
<stop offset="0.4" stop-color="#060E04"/>
<stop offset="0.48" stop-color="#171E0E"/>
<stop offset="0.58" stop-color="#343920"/>
<stop offset="0.68" stop-color="#5B5E38"/>
<stop offset="0.79" stop-color="#8E8E57"/>
<stop offset="0.91" stop-color="#CBC77C"/>
<stop offset="1" stop-color="#FFF89C"/>
</radialGradient>
</defs>
</svg>
