<svg width="35" height="34" viewBox="0 0 35 34" fill="none" xmlns="http://www.w3.org/2000/svg">
<circle cx="17.7362" cy="16.8846" r="15.8846" stroke="#ECB300" stroke-width="2"/>
<path d="M20.1229 9.0096C20.8374 9.22508 21.3277 9.54387 21.6148 9.73574C21.9705 9.97188 22.2426 10.2051 22.425 10.3792C22.996 11.0434 23.1844 11.7489 23.289 12.1385C23.5043 12.9384 23.4804 13.6291 23.4295 14.0572C23.1605 13.8003 22.697 13.4284 22.0303 13.1628C21.5011 12.9532 21.0258 12.8823 20.6909 12.8587C20.6999 12.717 20.7148 12.2684 20.4159 11.8374C20.0182 11.2648 19.3874 11.1674 19.2798 11.1526H14.6457V13.514H20.5713C20.8703 13.5347 21.3158 13.5967 21.8121 13.7944C22.6612 14.1309 23.1664 14.6623 23.4684 14.9899C24.0723 15.6423 25.4267 17.1004 25.3579 19.3202C25.3489 19.6508 25.2264 22.148 23.0857 23.5796C21.7702 24.4622 20.3949 24.4651 19.8777 24.4386H12.5529V17.3543H19.5787C19.8 17.0798 20.0212 16.8053 20.2425 16.5307C20.4876 16.5927 20.9421 16.7433 21.3875 17.1152C21.836 17.4901 22.0632 17.9122 22.1649 18.1395C22.0513 18.352 21.8898 18.594 21.6536 18.8302C20.8972 19.5829 19.9256 19.6921 19.5758 19.7157H14.6427V22.0772H20.4727C20.7986 22.0299 21.6895 21.8558 22.3323 21.1119C23.295 20.002 23.0857 18.3225 22.3951 17.2864C22.3383 17.2008 21.549 16.0555 20.2604 15.8784C19.9256 15.8312 19.6654 15.8784 19.5758 15.8784C17.7072 15.8784 12.6605 15.8784 12.5469 15.8784V8.79412C12.5469 8.79412 13.2166 8.79117 14.5291 8.79412C15.7549 8.77936 16.9986 8.78231 18.2573 8.80002C18.5084 8.80297 18.7596 8.80888 19.0077 8.81183C19.4741 8.8443 19.8508 8.93285 20.1139 9.01255L20.1229 9.0096Z" fill="#ECB300"/>
</svg>
