<svg width="64" height="64" viewBox="0 0 64 64" fill="none" xmlns="http://www.w3.org/2000/svg">
	<g transform="translate(-0.296, -0.3429)">
		<circle cx="32.296" cy="32.3429" r="30.3429" stroke="#ECB300" stroke-width="2.05714" />
		<path
			d="M36.8467 17.3008C38.2116 17.7124 39.1482 18.3213 39.6965 18.6878C40.3761 19.1389 40.8958 19.5844 41.2442 19.917C42.335 21.1857 42.6948 22.5333 42.8947 23.2776C43.3059 24.8056 43.2602 26.125 43.1631 26.9426C42.6491 26.4521 41.7639 25.7416 40.4903 25.2341C39.4795 24.8338 38.5714 24.6985 37.9318 24.6534C37.9489 24.3827 37.9775 23.5257 37.4064 22.7025C36.6468 21.6086 35.4418 21.4225 35.2362 21.3943H26.3841V25.9051H37.7034C38.2745 25.9446 39.1254 26.063 40.0734 26.4408C41.6954 27.0836 42.6605 28.0985 43.2373 28.7244C44.391 29.9705 46.978 32.7559 46.8467 36.9961C46.8296 37.6276 46.5954 42.3978 42.5063 45.1325C39.9935 46.8184 37.3664 46.824 36.3784 46.7733H22.3864V33.2408H35.8073C36.2299 32.7164 36.6525 32.1921 37.0751 31.6677C37.5435 31.7861 38.4115 32.0737 39.2625 32.7841C40.1191 33.5002 40.5532 34.3065 40.7473 34.7407C40.5303 35.1466 40.2219 35.609 39.7707 36.0601C38.3259 37.4979 36.4698 37.7065 35.8016 37.7516H26.3784V42.2625H37.5149C38.1374 42.1722 39.8393 41.8396 41.0672 40.4187C42.9061 38.2986 42.5063 35.0903 41.1871 33.1111C41.0786 32.9476 39.5709 30.7599 37.1094 30.4216C36.4698 30.3314 35.9729 30.4216 35.8016 30.4216C32.2322 30.4216 22.592 30.4216 22.375 30.4216V16.8891C22.375 16.8891 23.6543 16.8835 26.1614 16.8891C28.5029 16.861 30.8787 16.8666 33.283 16.9004C33.7628 16.9061 34.2425 16.9173 34.7165 16.923C35.6074 16.985 36.327 17.1542 36.8296 17.3064L36.8467 17.3008Z"
			fill="#ECB300" />
	</g>
</svg>