<svg width="17" height="17" viewBox="0 0 17 17" fill="none" xmlns="http://www.w3.org/2000/svg">
<g clip-path="url(#clip0_3536_47737)">
<path d="M8.82812 16.4844C13.2464 16.4844 16.8281 12.9027 16.8281 8.48438C16.8281 4.0661 13.2464 0.484375 8.82812 0.484375C4.40985 0.484375 0.828125 4.0661 0.828125 8.48438C0.828125 12.9027 4.40985 16.4844 8.82812 16.4844Z" fill="url(#paint0_linear_3536_47737)"/>
<path d="M6.37817 9.99327C6.39989 9.97069 6.42599 9.9528 6.45489 9.94069C6.48378 9.92859 6.51484 9.92252 6.54617 9.92287H12.3862C12.4024 9.92368 12.4184 9.92771 12.433 9.93472C12.4477 9.94173 12.4609 9.95159 12.4718 9.96371C12.4826 9.97584 12.491 9.98999 12.4963 10.0054C12.5017 10.0207 12.5039 10.037 12.503 10.0533C12.5016 10.0829 12.49 10.1112 12.4702 10.1333L11.3166 11.2845C11.272 11.3291 11.2116 11.3544 11.1486 11.3549H5.30857C5.28311 11.3569 5.25766 11.3508 5.23596 11.3373C5.21427 11.3238 5.19748 11.3037 5.18807 11.28C5.17866 11.2562 5.17713 11.2301 5.1837 11.2054C5.19027 11.1807 5.2046 11.1588 5.22457 11.1429L6.37817 9.99327Z" fill="url(#paint1_linear_3536_47737)"/>
<path d="M6.36626 5.68448C6.41071 5.63956 6.47107 5.61397 6.53426 5.61328H12.3743C12.3978 5.61361 12.4206 5.62083 12.44 5.63403C12.4595 5.64724 12.4746 5.66586 12.4835 5.68758C12.4925 5.7093 12.4949 5.73317 12.4904 5.75622C12.4859 5.77928 12.4747 5.80051 12.4583 5.81728L11.3047 6.97568C11.2601 7.02031 11.1997 7.0456 11.1367 7.04608H5.29666C5.2639 7.04422 5.23322 7.02945 5.21132 7.00501C5.18943 6.98057 5.17812 6.94845 5.17986 6.91568C5.18119 6.88602 5.19278 6.85774 5.21266 6.83568L6.36626 5.68448Z" fill="url(#paint2_linear_3536_47737)"/>
<path d="M11.3047 7.82511C11.2829 7.80257 11.2568 7.78466 11.2279 7.77242C11.199 7.76019 11.168 7.75389 11.1367 7.75391H5.29666C5.2639 7.75577 5.23322 7.77053 5.21132 7.79497C5.18943 7.81942 5.17812 7.85154 5.17986 7.88431C5.18105 7.914 5.19267 7.94232 5.21266 7.96431L6.36626 9.11231C6.38806 9.13484 6.41416 9.15275 6.44302 9.16499C6.47189 9.17722 6.50292 9.18352 6.53426 9.18351H12.3743C12.3978 9.18318 12.4206 9.17596 12.44 9.16275C12.4595 9.14955 12.4746 9.13093 12.4835 9.10921C12.4925 9.08749 12.4949 9.06362 12.4904 9.04056C12.4859 9.01751 12.4747 8.99628 12.4583 8.97951L11.3047 7.82511Z" fill="url(#paint3_linear_3536_47737)"/>
</g>
<defs>
<linearGradient id="paint0_linear_3536_47737" x1="8.82812" y1="16.4844" x2="8.82812" y2="0.484375" gradientUnits="userSpaceOnUse">
<stop stop-color="#170E2B"/>
<stop offset="1" stop-color="#210066"/>
</linearGradient>
<linearGradient id="paint1_linear_3536_47737" x1="11.8262" y1="4.92447" x2="7.78217" y2="12.6685" gradientUnits="userSpaceOnUse">
<stop stop-color="#00FFA3"/>
<stop offset="1" stop-color="#DC1FFF"/>
</linearGradient>
<linearGradient id="paint2_linear_3536_47737" x1="10.0495" y1="4.00208" x2="6.00947" y2="11.7469" gradientUnits="userSpaceOnUse">
<stop stop-color="#00FFA3"/>
<stop offset="1" stop-color="#DC1FFF"/>
</linearGradient>
<linearGradient id="paint3_linear_3536_47737" x1="10.9295" y1="4.46191" x2="6.88467" y2="12.2059" gradientUnits="userSpaceOnUse">
<stop stop-color="#00FFA3"/>
<stop offset="1" stop-color="#DC1FFF"/>
</linearGradient>
<clipPath id="clip0_3536_47737">
<rect width="16" height="16" fill="white" transform="translate(0.835938 0.479492)"/>
</clipPath>
</defs>
</svg>
