<svg width="28" height="22" viewBox="0 0 28 22" fill="none" xmlns="http://www.w3.org/2000/svg">
<path d="M12.9071 1.95411L11.0829 0.44043C4.21508 4.33275 0.99582 8.76568 0.137349 13.7392C-0.506504 17.8478 1.10313 21.0914 5.18087 21.0914C8.07821 21.0914 10.8682 19.1452 11.5121 15.9016C12.0486 12.1174 9.90246 9.84688 7.21973 9.30628C8.29282 5.6302 12.7998 1.95411 12.9071 1.95411ZM22.1357 9.09004C23.3161 5.52208 27.6084 1.95411 27.7157 1.95411L25.8915 0.44043C19.0237 4.33275 15.8044 8.76568 14.946 13.7392C14.3021 17.8478 15.9118 21.0914 19.9895 21.0914C22.8868 21.0914 25.6769 19.1452 26.2134 15.9016C26.8573 12.1174 24.8184 9.63064 22.1357 9.09004Z" fill="url(#paint0_radial_78_8425)"/>
<defs>
<radialGradient id="paint0_radial_78_8425" cx="0" cy="0" r="1" gradientUnits="userSpaceOnUse" gradientTransform="translate(7.91878 3.98059) rotate(60.9542) scale(19.5723 23.5138)">
<stop stop-color="#F9C333"/>
<stop offset="1" stop-color="#F9C639"/>
</radialGradient>
</defs>
</svg>
