<svg width="26" height="26" viewBox="0 0 26 26" fill="none" xmlns="http://www.w3.org/2000/svg">
<path d="M25.6153 12.7223C25.6153 5.71952 19.9384 0.0426797 12.9357 0.0426808C5.93295 0.0426818 0.256103 5.71952 0.256103 12.7223C0.256103 19.725 5.93295 25.4019 12.9357 25.4019C19.9384 25.4019 25.6153 19.725 25.6153 12.7223Z" fill="#148B63"/>
<path d="M14.7979 10.6561V8.75971H19.1547V5.87012H7.29091V8.75971H11.6477V10.6527C8.10802 10.8153 5.44458 11.5109 5.44458 12.3484C5.44458 13.1859 8.10802 13.8815 11.6477 14.0441V20.1175H14.7979V14.0476C18.3306 13.8849 20.9871 13.1893 20.9871 12.3519C20.9871 11.5178 18.3306 10.8188 14.7979 10.6561ZM14.7979 13.5319C14.7075 13.5354 14.252 13.5631 13.2367 13.5631C12.4231 13.5631 11.8529 13.5389 11.6512 13.5285V13.5319C8.52528 13.3935 6.18867 12.8537 6.18867 12.203C6.18867 11.5525 8.5218 11.0126 11.6512 10.8742V12.9921C11.8563 13.0059 12.4405 13.0405 13.2506 13.0405C14.2207 13.0405 14.711 12.999 14.8014 12.9921V10.8742C17.9238 11.0126 20.2534 11.5559 20.2534 12.203C20.25 12.8502 17.9204 13.3935 14.7979 13.5319Z" fill="white"/>
</svg>
