<svg width="23" height="26" viewBox="0 0 23 26" fill="none" xmlns="http://www.w3.org/2000/svg">
<g clip-path="url(#clip0_405_4185)">
<path d="M16.25 22.75V24.7812C16.25 25.4544 15.7044 26 15.0312 26H1.21875C0.545645 26 0 25.4544 0 24.7812V6.09375C0 5.42064 0.545645 4.875 1.21875 4.875H4.875V19.9062C4.875 21.4743 6.15068 22.75 7.71875 22.75H16.25ZM16.25 5.28125V0H7.71875C7.04564 0 6.5 0.545645 6.5 1.21875V19.9062C6.5 20.5794 7.04564 21.125 7.71875 21.125H21.5312C22.2044 21.125 22.75 20.5794 22.75 19.9062V6.5H17.4688C16.7984 6.5 16.25 5.95156 16.25 5.28125ZM22.3931 3.70556L19.0444 0.356941C18.8159 0.128397 18.5059 1.68998e-06 18.1827 0L17.875 0V4.875H22.75V4.56732C22.75 4.2441 22.6216 3.93412 22.3931 3.70556Z" fill="#444444"/>
</g>
<defs>
<clipPath id="clip0_405_4185">
<rect width="22.75" height="26" fill="white"/>
</clipPath>
</defs>
</svg>
